<?xml version="1.0" standalone="no"?>
<!DOCTYPE svg PUBLIC "-//W3C//DTD SVG 20010904//EN"
 "http://www.w3.org/TR/2001/REC-SVG-20010904/DTD/svg10.dtd">
<svg version="1.0" xmlns="http://www.w3.org/2000/svg"
 width="972.000000pt" height="972.000000pt" viewBox="0 0 972.000000 972.000000"
 preserveAspectRatio="xMidYMid meet">
<metadata>
Created by potrace 1.11, written by Peter Selinger 2001-2013
</metadata>
<g transform="translate(0.000000,972.000000) scale(0.100000,-0.100000)"
fill="#000000" stroke="none">
<path d="M4328 9715 c-1 -1 -50 -6 -108 -10 -58 -3 -114 -8 -125 -10 -11 -3
-47 -7 -80 -10 -33 -3 -67 -7 -75 -10 -8 -2 -37 -6 -65 -10 -27 -3 -70 -11
-94 -16 -24 -5 -46 -7 -49 -4 -3 2 -11 0 -19 -6 -7 -6 -13 -9 -13 -7 0 3 -53
-8 -117 -24 -65 -15 -129 -31 -143 -34 -41 -9 -165 -49 -308 -99 -7 -2 -13 -4
-15 -3 -1 1 -15 -5 -32 -15 -16 -9 -64 -30 -105 -48 -137 -57 -411 -209 -479
-265 -9 -7 -45 -35 -81 -61 -160 -118 -365 -320 -455 -448 -11 -16 -25 -33
-30 -39 -18 -19 -115 -175 -115 -185 0 -5 -3 -11 -8 -13 -9 -4 -66 -121 -106
-222 -37 -91 -85 -272 -94 -356 -11 -106 -5 -322 12 -395 9 -38 19 -80 21 -91
7 -30 53 -151 70 -185 8 -15 66 -78 128 -138 318 -312 399 -391 403 -391 3 0
551 552 622 626 10 10 -7 31 -87 111 -55 54 -226 223 -381 376 l-281 278 17
27 c23 37 27 41 166 182 127 129 179 176 283 254 33 25 67 52 75 58 31 28 121
88 130 88 6 0 10 5 10 10 0 6 5 10 11 10 6 0 29 13 52 28 23 16 62 40 87 53
25 13 47 27 50 30 12 14 357 177 390 184 8 2 51 17 95 33 90 33 177 62 197 66
7 2 20 6 28 9 43 16 281 64 355 72 28 3 61 8 75 10 111 21 497 21 602 -1 13
-2 43 -7 68 -10 25 -3 61 -9 80 -14 19 -5 46 -11 60 -14 43 -7 83 -18 130 -33
25 -8 53 -16 63 -18 60 -12 304 -121 406 -181 237 -139 333 -238 460 -478 40
-76 103 -241 115 -302 3 -16 15 -72 25 -124 28 -137 35 -229 35 -460 0 -187
-6 -315 -19 -395 -2 -16 -7 -48 -9 -70 -16 -118 -89 -391 -109 -406 -5 -3 -9
-10 -9 -15 -1 -28 -76 -179 -131 -264 -43 -67 -46 -71 -75 -106 -9 -12 -28
-36 -42 -54 -48 -64 -155 -156 -278 -242 -54 -37 -102 -71 -109 -77 -7 -6 -15
-11 -18 -11 -3 0 -40 -26 -83 -57 -166 -125 -241 -232 -247 -356 -3 -65 11
-98 60 -139 37 -32 244 -168 254 -168 6 0 11 -3 11 -8 0 -4 9 -12 20 -17 11
-6 64 -38 118 -73 53 -34 106 -68 117 -75 11 -6 22 -14 25 -17 3 -3 34 -25 69
-49 145 -98 275 -204 396 -326 117 -117 148 -153 222 -261 71 -105 177 -309
188 -364 2 -8 12 -42 23 -75 38 -111 60 -219 79 -380 13 -116 5 -526 -12 -624
-2 -14 -7 -51 -10 -84 -4 -32 -8 -68 -11 -80 -2 -12 -7 -38 -10 -57 -22 -141
-102 -402 -167 -545 -44 -95 -123 -242 -138 -255 -3 -3 -19 -25 -36 -50 -17
-25 -41 -55 -52 -67 -12 -12 -21 -25 -21 -28 0 -10 -189 -195 -199 -195 -4 0
-19 -10 -32 -23 -40 -39 -147 -108 -258 -165 -59 -29 -108 -54 -111 -54 -8 -1
-29 -9 -92 -34 -32 -12 -58 -21 -58 -19 0 2 -18 -2 -40 -10 -22 -8 -40 -12
-40 -9 0 2 -8 0 -17 -5 -10 -5 -31 -12 -48 -15 -253 -46 -307 -53 -500 -61
-66 -3 -138 -10 -160 -15 -22 -6 -50 -13 -62 -15 -44 -10 -119 -47 -145 -73
-72 -67 -2 -160 194 -256 63 -31 122 -56 131 -56 9 0 19 -4 22 -10 3 -5 16
-10 29 -10 12 0 26 -3 30 -8 4 -4 11 -7 14 -8 4 0 27 -6 52 -13 25 -7 56 -15
70 -17 14 -3 32 -7 40 -9 62 -18 269 -26 308 -13 16 6 21 5 16 -4 -4 -6 -3 -8
3 -5 6 4 53 9 104 12 52 4 108 8 124 10 17 2 57 6 90 10 87 9 138 15 155 20 8
2 31 6 50 9 259 41 600 137 815 231 160 69 271 124 343 167 34 21 65 38 67 38
9 0 216 140 278 187 134 103 280 247 402 398 43 52 175 241 175 250 0 2 17 33
38 67 21 35 39 65 39 68 0 3 10 24 22 47 12 24 19 43 15 43 -4 0 -1 6 5 13 22
28 87 218 107 317 3 14 9 41 14 60 5 20 12 54 15 75 3 22 7 56 10 75 26 171
27 590 2 705 -3 11 -8 40 -11 65 -8 59 -16 101 -22 122 -3 9 -7 25 -9 35 -3
15 -20 74 -39 138 -2 6 -8 23 -14 38 -7 16 -12 33 -12 38 0 5 -4 17 -10 27 -5
9 -30 60 -54 112 -50 104 -77 153 -88 158 -5 2 -8 8 -8 13 0 9 -36 66 -50 79
-3 3 -13 17 -23 32 -42 66 -158 201 -251 291 -138 134 -340 285 -526 392 -100
57 -276 145 -320 160 -3 1 -18 7 -35 14 -102 42 -221 86 -265 97 -8 2 -76 21
-150 43 -74 22 -146 42 -160 45 -14 3 -52 12 -85 21 -33 9 -71 18 -85 20 -71
12 -98 17 -130 25 -19 5 -51 12 -70 14 -19 3 -53 8 -75 12 -22 3 -48 6 -58 6
-39 -2 -67 17 -67 43 0 19 6 26 28 31 321 73 630 181 877 307 174 88 365 207
438 271 9 9 21 16 26 16 5 0 11 3 13 8 2 4 30 29 63 56 79 66 268 252 288 285
9 14 27 38 41 53 14 15 26 31 26 36 0 5 7 15 15 22 8 7 27 34 42 61 14 27 30
49 35 49 4 0 8 7 8 16 0 8 11 32 25 52 14 20 25 40 25 44 0 4 13 35 29 68 16
33 27 60 24 60 -3 0 -1 6 5 13 22 27 94 281 107 377 2 14 6 42 9 62 3 20 9 59
12 85 8 61 12 435 5 448 -3 6 -6 19 -7 30 -3 45 -15 130 -25 173 -6 26 -13 58
-15 72 -9 49 -77 236 -112 310 -86 179 -222 348 -392 486 -19 16 -37 31 -40
34 -3 3 -21 17 -40 30 -19 13 -37 27 -40 30 -13 16 -158 109 -270 173 -65 37
-250 127 -350 170 -74 31 -220 87 -230 87 -6 0 -18 4 -28 10 -17 9 -200 67
-237 74 -11 2 -33 9 -48 15 -16 6 -33 9 -38 5 -5 -3 -9 0 -9 7 0 7 -3 10 -6 7
-3 -4 -20 -2 -37 3 -18 6 -43 12 -57 15 -14 3 -52 12 -85 20 -60 14 -83 19
-140 27 -16 3 -59 10 -95 17 -87 16 -96 18 -161 25 -31 3 -67 8 -80 10 -13 3
-58 8 -99 11 -41 3 -91 8 -110 10 -39 6 -636 14 -642 9z"/>
<path d="M4505 8463 c-38 -40 -427 -430 -863 -865 -1724 -1724 -1629 -1625
-1736 -1798 -77 -126 -127 -234 -181 -390 -17 -52 -33 -98 -33 -102 -1 -5 -2
-9 -3 -10 0 -2 -2 -10 -4 -18 -1 -8 -8 -40 -14 -71 -30 -141 -33 -173 -36
-339 -1 -85 1 -168 6 -185 4 -16 11 -43 14 -60 9 -47 10 -49 18 -62 5 -7 5
-13 1 -13 -3 0 1 -11 10 -25 9 -14 14 -25 11 -25 -17 0 52 -78 169 -193 72
-71 192 -189 267 -263 75 -74 140 -134 145 -134 5 0 150 143 322 317 l313 317
-262 257 -263 257 489 487 c863 857 926 919 1181 1177 137 139 261 269 274
288 13 19 27 37 31 40 12 9 116 176 123 198 4 12 12 22 17 22 5 0 9 7 9 15 0
9 6 26 14 38 34 54 128 326 141 407 2 14 6 36 9 50 34 170 38 388 10 525 -4
17 -8 37 -9 45 -6 41 -60 153 -82 171 -17 14 -23 9 -88 -58z"/>
<path d="M3694 5949 c-131 -133 -274 -276 -316 -318 l-78 -77 44 -45 c24 -24
141 -140 260 -258 184 -181 214 -216 204 -229 -7 -8 -206 -207 -441 -441 -824
-819 -1422 -1419 -1447 -1451 -14 -18 -30 -37 -35 -44 -6 -6 -21 -28 -35 -48
-14 -21 -28 -38 -32 -38 -5 0 -8 -6 -8 -14 0 -8 -6 -21 -12 -28 -28 -30 -100
-168 -145 -277 -40 -96 -100 -293 -107 -350 -3 -20 -5 -36 -6 -36 -2 0 -9 -35
-17 -95 -9 -70 -10 -344 0 -390 14 -69 30 -125 38 -135 5 -5 9 -17 9 -27 0
-15 79 -123 102 -139 5 -3 132 -127 284 -275 152 -148 279 -270 283 -272 5 -1
9 102 10 230 2 128 4 348 6 488 2 140 4 314 5 385 l1 130 502 498 c1349 1339
1444 1435 1475 1493 7 13 17 24 22 24 5 0 12 9 15 20 3 11 12 26 18 33 27 29
162 287 150 287 -3 0 -1 6 5 13 10 12 69 186 77 227 2 12 7 30 10 40 6 20 9
34 20 100 4 25 9 54 11 65 5 29 17 184 17 225 0 36 -11 173 -17 222 -6 37 -35
125 -57 169 -16 33 -125 144 -472 483 -54 53 -99 96 -101 96 -2 0 -111 -108
-242 -241z"/>
<path d="M3920 3416 c-30 -30 -173 -174 -318 -320 l-263 -266 262 -259 262
-258 -360 -359 c-198 -197 -379 -384 -401 -414 -23 -30 -45 -59 -50 -65 -85
-111 -223 -397 -258 -535 -2 -8 -10 -40 -18 -70 -8 -30 -18 -71 -21 -90 -3
-19 -8 -42 -10 -50 -6 -22 -17 -116 -20 -178 -2 -30 -6 -56 -9 -59 -2 -3 -1
-16 4 -29 6 -14 6 -26 -1 -29 -5 -4 -7 -11 -4 -16 4 -5 8 -37 10 -72 7 -136
44 -261 98 -329 12 -15 86 56 693 660 373 373 693 695 709 716 17 21 35 44 40
50 6 7 15 19 20 27 6 9 32 49 59 90 27 41 55 88 63 104 7 17 18 37 23 45 9 13
52 107 55 120 3 9 17 44 30 75 15 35 71 243 79 295 3 19 8 46 11 60 21 105 22
350 1 446 -4 16 -9 40 -12 54 -3 14 -6 30 -7 35 -2 6 -15 37 -30 70 -23 50
-61 92 -235 263 -114 112 -239 235 -277 273 l-71 70 -54 -55z m541 -509 c-10
-9 -11 -8 -5 6 3 10 9 15 12 12 3 -3 0 -11 -7 -18z m-21 -21 c0 -2 -8 -10 -17
-17 -16 -13 -17 -12 -4 4 13 16 21 21 21 13z m-65 -66 c-3 -5 -12 -10 -18 -10
-7 0 -6 4 3 10 19 12 23 12 15 0z m-35 -34 c0 -2 -8 -10 -17 -17 -16 -13 -17
-12 -4 4 13 16 21 21 21 13z m-45 -46 c-3 -5 -12 -10 -18 -10 -7 0 -6 4 3 10
19 12 23 12 15 0z m-40 -40 c-3 -5 -12 -10 -18 -10 -7 0 -6 4 3 10 19 12 23
12 15 0z m-80 -80 c-3 -5 -12 -10 -18 -10 -7 0 -6 4 3 10 19 12 23 12 15 0z
m-40 -40 c-3 -5 -12 -10 -18 -10 -7 0 -6 4 3 10 19 12 23 12 15 0z m-125 -124
c0 -2 -8 -10 -17 -17 -16 -13 -17 -12 -4 4 13 16 21 21 21 13z"/>
</g>
</svg>
