<?xml version="1.0" encoding="UTF-8" standalone="no"?>
<svg
   xmlns:dc="http://purl.org/dc/elements/1.1/"
   xmlns:cc="http://creativecommons.org/ns#"
   xmlns:rdf="http://www.w3.org/1999/02/22-rdf-syntax-ns#"
   xmlns:svg="http://www.w3.org/2000/svg"
   xmlns="http://www.w3.org/2000/svg"
   xmlns:sodipodi="http://sodipodi.sourceforge.net/DTD/sodipodi-0.dtd"
   xmlns:inkscape="http://www.inkscape.org/namespaces/inkscape"
   height="110px"
   style="enable-background:new 0 0 110 110;"
   version="1.0"
   viewBox="0 0 110 110"
   width="110px"
   xml:space="preserve"
   id="svg52"
   sodipodi:docname="if_Polaroid_379422.svg"
   inkscape:version="0.92.2 5c3e80d, 2017-08-06"><metadata
     id="metadata58"><rdf:RDF><cc:Work
         rdf:about=""><dc:format>image/svg+xml</dc:format><dc:type
           rdf:resource="http://purl.org/dc/dcmitype/StillImage" /></cc:Work></rdf:RDF></metadata><defs
     id="defs56" /><sodipodi:namedview
     pagecolor="#ffffff"
     bordercolor="#666666"
     borderopacity="1"
     objecttolerance="10"
     gridtolerance="10"
     guidetolerance="10"
     inkscape:pageopacity="0"
     inkscape:pageshadow="2"
     inkscape:window-width="1366"
     inkscape:window-height="709"
     id="namedview54"
     showgrid="false"
     inkscape:zoom="2.1454545"
     inkscape:cx="-48.070969"
     inkscape:cy="54.235545"
     inkscape:window-x="0"
     inkscape:window-y="0"
     inkscape:window-maximized="1"
     inkscape:current-layer="Multicolor" /><g
     id="Artboard" /><g
     id="Multicolor"><circle
       cx="55"
       cy="55"
       r="55"
       style="fill:#fabc3d;fill-opacity:1"
       id="circle3" /><g
       id="g49"><path
         d="M83,31c0-2.209-1.791-4-4-4H31c-2.209,0-4,1.791-4,4v24h56V31z"
         style="fill:#FFFFFF;"
         id="path5" /><path
         d="M51,49.239V55h3v-5.05C52.949,49.854,51.944,49.608,51,49.239z"
         style="fill:#FA5655;"
         id="path7" /><path
         d="M55,50c-0.337,0-0.67-0.021-1-0.05V55h3v-5.19C56.351,49.929,55.684,50,55,50z"
         style="fill:#FACB1B;"
         id="path9" /><path
         d="M57,49.81V55h3v-6.21C59.068,49.267,58.062,49.614,57,49.81z"
         style="fill:#21B2D1;"
         id="path11" /><circle
         cx="55"
         cy="39"
         r="11"
         style="fill:#CFD3D4;"
         id="circle13" /><path
         d="M55,28c-6.075,0-11,4.925-11,11c0,3.39,1.536,6.42,3.947,8.438l2.136-2.136    C48.209,43.837,47,41.563,47,39c0-4.418,3.582-8,8-8c2.562,0,4.837,1.209,6.302,3.083l2.136-2.136C61.42,29.536,58.39,28,55,28z"
         style="fill:#CFD3D4;"
         id="path15" /><path
         d="M86.795,62.384L83,55H27l-3.795,7.384c-0.067,0.201-0.117,0.407-0.151,0.616h63.893    C86.912,62.792,86.862,62.585,86.795,62.384z"
         style="fill:#E2E4E5;"
         id="path17" /><path
         d="M87,73v-9.351c0-0.218-0.019-0.435-0.054-0.649H23.054C23.019,63.214,23,63.431,23,63.649V73    c0,1.104,0.896,2,2,2h60C86.104,75,87,74.104,87,73z"
         style="fill:#FFFFFF;"
         id="path19" /><circle
         cx="36"
         cy="43"
         r="4"
         style="fill:#DF2C2C;"
         id="circle21" /><path
         d="M79,40c0,0.552-0.448,1-1,1h-8c-0.552,0-1-0.448-1-1v-8c0-0.552,0.448-1,1-1h8c0.552,0,1,0.448,1,1    V40z"
         style="fill:#21B2D1;"
         id="path23" /><circle
         cx="74"
         cy="36"
         r="4"
         style="fill:#6FDAF1;"
         id="circle25" /><circle
         cx="55"
         cy="39"
         r="8"
         style="fill:#3E3E3F;"
         id="circle27" /><polygon
         points="54,63 49,63 51,55 54,55   "
         style="fill:#DF2C2C;"
         id="polygon29" /><polygon
         points="62,63 57,63 57,55 60,55   "
         style="fill:#059BBF;"
         id="polygon31" /><polygon
         points="58,63 53,63 54,55 57,55   "
         style="fill:#F3B607;"
         id="polygon33" /><path
         d="M83,69c0,1.1-0.9,2-2,2H29c-1.1,0-2-0.9-2-2l0,0c0-1.1,0.9-2,2-2h52C82.1,67,83,67.9,83,69L83,69z"
         style="fill:#3E3E3F;"
         id="path35" /><path
         d="M36,39c-2.209,0-4,1.791-4,4c0,1.103,0.446,2.1,1.167,2.824l5.656-5.656    C38.1,39.446,37.103,39,36,39z"
         style="fill:#FA5655;"
         id="path37" /><path
         d="M74.917,69H55H35.083C31.5,71.917,27,82.583,27,87h28h28C83,82.583,78.5,71.917,74.917,69z"
         style="fill:#F0F1F1;"
         id="path39" /><path
         d="M69.266,69H55H40.734c-2.567,1.62-5.79,7.546-5.79,10H55h20.056    C75.056,76.546,71.832,70.62,69.266,69z"
         style="fill:#6FDAF1;"
         id="path41" /><path
         d="M34.944,79c0-2.454,3.223-8.38,5.79-10h-5.651C31.5,71.916,27,82.583,27,87h12.991l8-8H34.944z"
         style="fill:#FFFFFF;"
         id="path43" /><path
         d="M40.734,69c-2.567,1.62-5.79,7.546-5.79,10h13.047l10-10H55H40.734z"
         style="fill:#9CE5F4;"
         id="path45" /><path
         d="M55,31c-4.418,0-8,3.582-8,8c0,2.541,1.188,4.801,3.036,6.267l11.23-11.23    C59.801,32.188,57.541,31,55,31z"
         style="fill:#5B5C5F;"
         id="path47" /></g></g></svg>