<?xml version="1.0" encoding="UTF-8" standalone="no"?>
<!-- Creator: CorelDRAW X7 -->

<svg
   xmlns:dc="http://purl.org/dc/elements/1.1/"
   xmlns:cc="http://creativecommons.org/ns#"
   xmlns:rdf="http://www.w3.org/1999/02/22-rdf-syntax-ns#"
   xmlns:svg="http://www.w3.org/2000/svg"
   xmlns="http://www.w3.org/2000/svg"
   xmlns:sodipodi="http://sodipodi.sourceforge.net/DTD/sodipodi-0.dtd"
   xmlns:inkscape="http://www.inkscape.org/namespaces/inkscape"
   xml:space="preserve"
   width="346.548"
   height="346.548"
   version="1.1"
   style="clip-rule:evenodd;fill-rule:evenodd;image-rendering:optimizeQuality;shape-rendering:geometricPrecision;text-rendering:geometricPrecision"
   viewBox="0 0 3609.9062 3609.9971"
   id="svg28"
   sodipodi:docname="icon.svg"
   inkscape:version="0.92.2 (5c3e80d, 2017-08-06)"><metadata
     id="metadata32"><rdf:RDF><cc:Work
         rdf:about=""><dc:format>image/svg+xml</dc:format><dc:type
           rdf:resource="http://purl.org/dc/dcmitype/StillImage" /><dc:title></dc:title></cc:Work></rdf:RDF></metadata><sodipodi:namedview
     pagecolor="#ffffff"
     bordercolor="#666666"
     borderopacity="1"
     objecttolerance="10"
     gridtolerance="10"
     guidetolerance="10"
     inkscape:pageopacity="0"
     inkscape:pageshadow="2"
     inkscape:window-width="1600"
     inkscape:window-height="847"
     id="namedview30"
     showgrid="false"
     units="px"
     inkscape:zoom="0.25300254"
     inkscape:cx="561.25919"
     inkscape:cy="396.85057"
     inkscape:window-x="-8"
     inkscape:window-y="-8"
     inkscape:window-maximized="1"
     inkscape:current-layer="svg28" /><defs
     id="defs4"><style
       type="text/css"
       id="style2"><![CDATA[
    .fil4 {fill:#FEFEFE}
    .fil1 {fill:#004D40}
    .fil0 {fill:#009688}
    .fil2 {fill:#E65100}
    .fil3 {fill:#FF9800}
    .fil5 {fill:#FEFEFE;fill-rule:nonzero}
   ]]></style></defs><g
     id="Layer_x0020_1"
     transform="translate(-4328.0469,-1599.0014)"><metadata
       id="CorelCorpID_0Corel-Layer" /><circle
       class="fil0"
       cx="6133"
       cy="3404"
       r="1805"
       id="circle7"
       style="fill:#009688" /><polygon
       class="fil1"
       points="5291,4263 5456,4096 5452,4421 "
       id="polygon9"
       style="fill:#004d40" /><polygon
       class="fil2"
       points="5901,3765 6037,3899 5872,4066 5736,3932 "
       id="polygon11"
       style="fill:#e65100" /><polygon
       class="fil2"
       points="5488,3352 5625,3486 5460,3653 5323,3519 "
       id="polygon13"
       style="fill:#e65100" /><polygon
       class="fil1"
       points="5891,3057 6028,3191 5863,3358 5726,3224 "
       id="polygon15"
       style="fill:#004d40" /><polygon
       class="fil1"
       points="5364,2530 5616,2780 5451,2947 5315,2812 "
       id="polygon17"
       style="fill:#004d40" /><path
       class="fil3"
       d="m 5416,3089 c 143,-144 396,-391 643,-642 56,55 46,286 -90,426 -142,145 -399,395 -646,646 -56,-55 -43,-290 93,-430 z"
       id="path19"
       inkscape:connector-curvature="0"
       style="fill:#ff9800" /><path
       class="fil4"
       d="m 5385,3834 c 142,-145 395,-392 643,-643 55,55 46,286 -90,426 -143,145 -400,395 -647,646 -56,-55 -42,-289 94,-429 z"
       id="path21"
       inkscape:connector-curvature="0"
       style="fill:#fefefe" /><path
       class="fil3"
       d="m 5699,4239 c 142,-145 92,-88 339,-339 56,55 46,286 -90,426 -142,144 -96,91 -343,342 -55,-55 -42,-289 94,-429 z"
       id="path23"
       inkscape:connector-curvature="0"
       style="fill:#ff9800" /><path
       class="fil5"
       d="m 6767,3421 c 68,47 125,107 171,182 45,74 67,165 67,272 0,109 -23,204 -71,284 -47,81 -109,147 -185,199 -156,107 -351,155 -539,155 -90,0 -322,-98 -122,-132 358,0 508,-228 508,-565 0,-139 -47,-252 -140,-341 -118,-113 -270,-173 -274,-208 -10,-93 120,-124 186,-201 90,-104 109,-222 109,-356 0,-130 -35,-231 -105,-305 -404,-311 -1025,61 -1056,407 -112,-218 78,-564 512,-650 416,-83 858,73 985,274 43,67 64,147 64,242 0,153 -54,287 -171,387 -107,94 -248,153 -387,182 v 16 c 67,7 142,24 226,50 83,26 157,62 222,108 z"
       id="path25"
       inkscape:connector-curvature="0"
       style="fill:#fefefe;fill-rule:nonzero" /></g></svg>