<?xml version="1.0" encoding="UTF-8" standalone="no"?>
<svg
   xmlns:dc="http://purl.org/dc/elements/1.1/"
   xmlns:cc="http://creativecommons.org/ns#"
   xmlns:rdf="http://www.w3.org/1999/02/22-rdf-syntax-ns#"
   xmlns:svg="http://www.w3.org/2000/svg"
   xmlns="http://www.w3.org/2000/svg"
   xmlns:sodipodi="http://sodipodi.sourceforge.net/DTD/sodipodi-0.dtd"
   xmlns:inkscape="http://www.inkscape.org/namespaces/inkscape"
   id="Layer_1"
   version="1.1"
   viewBox="0 0 85.271 114.521"
   xml:space="preserve"
   inkscape:version="0.92.1 r"
   sodipodi:docname="png.svg"
   width="90.955734"
   height="122.15574"><metadata
     id="metadata25"><rdf:RDF><cc:Work
         rdf:about=""><dc:format>image/svg+xml</dc:format><dc:type
           rdf:resource="http://purl.org/dc/dcmitype/StillImage" /><dc:title /></cc:Work></rdf:RDF></metadata><defs
     id="defs23" /><sodipodi:namedview
     pagecolor="#ffffff"
     bordercolor="#666666"
     borderopacity="1"
     objecttolerance="10"
     gridtolerance="10"
     guidetolerance="10"
     inkscape:pageopacity="0"
     inkscape:pageshadow="2"
     inkscape:window-width="1366"
     inkscape:window-height="741"
     id="namedview21"
     showgrid="false"
     inkscape:zoom="2.8284271"
     inkscape:cx="-56.302635"
     inkscape:cy="35.981214"
     inkscape:window-x="0"
     inkscape:window-y="27"
     inkscape:window-maximized="1"
     inkscape:current-layer="g3"
     showguides="true"
     showborder="false"
     inkscape:guide-bbox="true"><sodipodi:guide
       position="52.001953,13.125"
       orientation="0,1"
       id="guide4493"
       inkscape:locked="false" /></sodipodi:namedview><g
     id="g3"><path
       d="M 11.271,114.521 H 74 c 6.225,0 11.271,-5.046 11.271,-11.271 V 39.656 L 45.568,0 H 11.271 C 5.046,0 0,5.046 0,11.271 v 91.979 c 0,6.225 5.046,11.271 11.271,11.271 z"
       style="fill:#f3dec5;fill-opacity:1"
       id="path5"
       inkscape:connector-curvature="0" /><path
       d="M 57.048,39.656 H 85.271 L 45.568,0 45.601,28.223 c 0.008,6.316 5.13,11.433 11.447,11.433 z"
       style="fill:#b4ad9b;fill-opacity:1"
       id="path15"
       inkscape:connector-curvature="0" /><path
       d="m 59.321,37.383 c 6.417,0.333 25.95,2.273 25.95,2.273 L 45.568,0 c 0,0 1.767,19.496 2.306,25.95 0.526,6.295 5.139,11.107 11.447,11.433 z"
       style="fill:#00a852;fill-opacity:1"
       id="path17"
       inkscape:connector-curvature="0" /><line
       style="fill:#fdffee"
       x1="85.271004"
       x2="45.568001"
       y1="39.655998"
       y2="0"
       id="line19" /><g
       aria-label="png"
       style="font-style:normal;font-variant:normal;font-weight:900;font-stretch:normal;font-size:40px;line-height:125%;font-family:'Ostrich Sans';-inkscape-font-specification:'Ostrich Sans Heavy';letter-spacing:0px;word-spacing:0px;fill:#00a852;fill-opacity:1;stroke:none;stroke-width:0.93749994px;stroke-linecap:butt;stroke-linejoin:miter;stroke-opacity:1"
       id="text4491"><path
         d="m 25.819874,89.877392 c 4.88,0 7.04,-2.56 7.04,-7.72 0,-5.16 -2.16,-7.72 -7.04,-7.72 h -4.32 c -0.8,0 -1.44,0.64 -1.44,1.44 v 24.08 c 0,0.799998 0.64,1.439998 1.44,1.439998 h 1.12 c 0.76,0 1.4,-0.64 1.4,-1.439998 v -10.08 z m 0,-11.48 c 2.16,0 3.04,1.08 3.04,3.76 0,2.6 -0.88,3.76 -3.04,3.76 h -1.8 v -7.52 z"
         style="font-style:normal;font-variant:normal;font-weight:900;font-stretch:normal;font-size:40px;font-family:'Ostrich Sans';-inkscape-font-specification:'Ostrich Sans Heavy';fill:#00a852;fill-opacity:1;stroke-width:0.93749994px"
         id="path4489" /><path
         d="m 47.444874,101.39739 c 0.8,0 1.44,-0.64 1.44,-1.439998 v -24.08 c 0,-0.8 -0.64,-1.44 -1.44,-1.44 h -1.12 c -0.8,0 -1.44,0.64 -1.44,1.44 v 13.2 l -5.56,-13.76 c -0.16,-0.44 -0.8,-0.88 -1.32,-0.88 h -0.96 c -0.76,0 -1.44,0.64 -1.44,1.44 v 24.08 c 0,0.799998 0.68,1.439998 1.44,1.439998 h 1.16 c 0.76,0 1.44,-0.64 1.44,-1.439998 v -13.2 l 5.56,13.759998 c 0.16,0.44 0.84,0.88 1.32,0.88 z"
         style="font-style:normal;font-variant:normal;font-weight:900;font-stretch:normal;font-size:40px;font-family:'Ostrich Sans';-inkscape-font-specification:'Ostrich Sans Heavy';fill:#00a852;fill-opacity:1;stroke-width:0.93749994px"
         id="path4491" /><path
         d="m 59.811124,87.877392 c -2.36,0 -2.24,4 0,4 h 1.4 v 1.72 c 0,2.6 -0.84,3.84 -2.56,3.84 -1.76,0 -2.6,-1.24 -2.6,-3.84 0,-1.04 0,-5.04 0,-11.4 0,-1.84 0.36,-2.8 0.92,-3.28 0.44,-0.44 1.12,-0.52 1.68,-0.52 0.56,0 1.2,0.08 1.68,0.52 0.48,0.44 0.88,1.4 0.88,3.28 v 0.56 c 0,0.8 0.64,1.44 1.44,1.44 h 1.16 c 0.76,0 1.4,-0.64 1.4,-1.44 v -0.56 c 0,-5.08 -2.16,-7.76 -6.56,-7.76 -4.4,0 -6.6,2.68 -6.6,7.76 v 11.4 c 0,5.04 2.2,7.799998 6.6,7.799998 4.4,0 6.56,-2.719998 6.56,-7.799998 v -4.28 c 0,-0.8 -0.64,-1.44 -1.4,-1.44 z"
         style="font-style:normal;font-variant:normal;font-weight:900;font-stretch:normal;font-size:40px;font-family:'Ostrich Sans';-inkscape-font-specification:'Ostrich Sans Heavy';fill:#00a852;fill-opacity:1;stroke-width:0.93749994px"
         id="path4493" /></g></g></svg>