<?xml version="1.0" encoding="UTF-8" standalone="no"?>
<svg
   xmlns:dc="http://purl.org/dc/elements/1.1/"
   xmlns:cc="http://creativecommons.org/ns#"
   xmlns:rdf="http://www.w3.org/1999/02/22-rdf-syntax-ns#"
   xmlns:svg="http://www.w3.org/2000/svg"
   xmlns="http://www.w3.org/2000/svg"
   xmlns:sodipodi="http://sodipodi.sourceforge.net/DTD/sodipodi-0.dtd"
   xmlns:inkscape="http://www.inkscape.org/namespaces/inkscape"
   height="110px"
   style="enable-background:new 0 0 110 110;"
   version="1.0"
   viewBox="0 0 110 110"
   width="110px"
   xml:space="preserve"
   id="svg2"
   inkscape:version="0.91 r13725"
   sodipodi:docname="posters.svg"><metadata
     id="metadata52"><rdf:RDF><cc:Work
         rdf:about=""><dc:format>image/svg+xml</dc:format><dc:type
           rdf:resource="http://purl.org/dc/dcmitype/StillImage" /><dc:title></dc:title></cc:Work></rdf:RDF></metadata><defs
     id="defs50" /><sodipodi:namedview
     pagecolor="#ffffff"
     bordercolor="#666666"
     borderopacity="1"
     objecttolerance="10"
     gridtolerance="10"
     guidetolerance="10"
     inkscape:pageopacity="0"
     inkscape:pageshadow="2"
     inkscape:window-width="1366"
     inkscape:window-height="709"
     id="namedview48"
     showgrid="false"
     inkscape:zoom="3.0341309"
     inkscape:cx="13.517846"
     inkscape:cy="44.607369"
     inkscape:window-x="0"
     inkscape:window-y="0"
     inkscape:window-maximized="1"
     inkscape:current-layer="svg2" /><g
     id="Artboard" /><circle
     id="circle6"
     style="fill:#32bea6"
     r="55"
     cy="55"
     cx="55" /><rect
     style="opacity:0.97000002;fill:#fffffe;fill-opacity:1"
     id="rect3438"
     width="58.006725"
     height="73.826744"
     x="25.996637"
     y="18.086628" /><rect
     height="64.089066"
     style="fill:#3e3e3f"
     width="47.9697"
     x="31.01515"
     y="22.955467"
     id="rect12" /><g
     id="g16"
     transform="matrix(1.1992425,0,0,1.1992425,-10.958335,-8.2903927)"><circle
       cx="59.667"
       cy="58.333"
       r="1.3329999"
       style="fill:#b6bcbd"
       id="circle18" /><rect
       height="1"
       style="fill:#b6bcbd"
       width="5"
       x="64"
       y="58"
       id="rect20" /></g><g
     id="g22"
     transform="matrix(1.1992425,0,0,1.1992425,-10.958335,-8.2903927)"><circle
       cx="59.667"
       cy="64.667"
       r="1.3329999"
       style="fill:#b6bcbd"
       id="circle24" /><rect
       height="1"
       style="fill:#b6bcbd"
       width="5"
       x="64"
       y="64.333"
       id="rect26" /></g><rect
     height="8.3946972"
     style="fill:#fbe158"
     width="7.1954551"
     x="39.409851"
     y="44.476276"
     id="rect32" /><rect
     height="13.191668"
     style="fill:#17b198"
     width="7.1954551"
     x="51.402275"
     y="39.679306"
     id="rect34" /><rect
     height="19.18788"
     style="fill:#059bbf"
     width="7.1954551"
     x="64.593941"
     y="33.683094"
     id="rect36" /><g
     id="g38"
     transform="matrix(1.1992425,0,0,1.1992425,-10.958335,-8.2903927)"><circle
       cx="47"
       cy="63"
       r="8"
       style="fill:#facb1b"
       id="circle40" /><path
       d="m 55,63 c 0,4.42 -3.58,8 -8,8 -3.36,0 -6.233,-2.067 -7.42,-5 L 54.36,59.847 C 54.773,60.813 55,61.88 55,63 Z"
       style="fill:#4ac3af"
       id="path42"
       inkscape:connector-curvature="0" /><path
       d="m 55.013,63.003 c 0,2.82 -1.46,5.3 -3.667,6.727 l -4.327,-6.82 7.353,-3.06 c 0.414,0.967 0.641,2.033 0.641,3.153 z"
       style="fill:#21b2d1"
       id="path44"
       inkscape:connector-curvature="0" /><path
       d="M 54.36,59.847 47,62.913 47,55 c 3.3,0 6.133,2 7.36,4.847 z"
       style="fill:#fa5655"
       id="path46"
       inkscape:connector-curvature="0" /></g></svg>