<?xml version="1.0" encoding="utf-8"?>
<!-- Generator: Adobe Illustrator 16.0.2, SVG Export Plug-In . SVG Version: 6.00 Build 0)  -->
<!DOCTYPE svg PUBLIC "-//W3C//DTD SVG 1.1//EN" "http://www.w3.org/Graphics/SVG/1.1/DTD/svg11.dtd">
<svg version="1.1" id="Layer_1" xmlns="http://www.w3.org/2000/svg" xmlns:xlink="http://www.w3.org/1999/xlink" x="0px" y="0px"
	 width="110px" height="110px" viewBox="0 0 110 110" enable-background="new 0 0 110 110" xml:space="preserve">
<g id="Artboard">
</g>
<ellipse fill="#F6F86A" cx="55.501" cy="55.805" rx="55.5" ry="55.807"/>
<g id="Multicolor">
	<g>
		<rect x="48.699" y="21.267" fill="#3E3E3F" width="12.109" height="14.222"/>
		<ellipse fill="#5B5C5F" cx="54.753" cy="28.377" rx="5.045" ry="5.079"/>
		<rect x="28.385" y="62.916" fill="#F0F1F1" width="52.472" height="18.284"/>
		<rect x="28.385" y="56.82" fill="#CFD3D4" width="52.472" height="6.096"/>
		<polygon fill="#FFFFFF" points="28.385,56.82 36.458,44.631 72.785,44.631 80.857,56.82 		"/>
		<path fill="#3E3E3F" d="M87.044,61.899h-2.017v10.159h2.017c1.114,0,2.019-0.911,2.019-2.032v-6.095
			C89.063,62.811,88.158,61.899,87.044,61.899z"/>
		<g>
			<path fill="#FFFFFF" d="M84.895,73.075h-4.037V38.536c0-2.241-1.81-4.063-4.035-4.063H60.676V30.41h16.146
				c4.45,0,8.072,3.646,8.072,8.126V73.075z"/>
		</g>
		<path fill="#3E3E3F" d="M70.899,84.247c0,1.124,0.901,2.032,2.019,2.032h4.036c1.115,0,2.019-0.908,2.019-2.032v-2.031h-8.073
			V84.247z"/>
		<path fill="#3E3E3F" d="M30.536,84.247c0,1.124,0.903,2.032,2.018,2.032h4.036c1.115,0,2.019-0.908,2.019-2.032v-2.031h-8.073
			V84.247z"/>
		<rect x="73.794" y="69.011" fill="#CFD3D4" width="2.019" height="8.126"/>
		<rect x="68.749" y="69.011" fill="#CFD3D4" width="2.019" height="8.126"/>
		<rect x="63.703" y="69.011" fill="#CFD3D4" width="2.019" height="8.126"/>
		<polygon fill="#6FDAF1" points="33.431,55.805 38.476,47.678 70.768,47.678 75.813,55.805 		"/>
		<path fill="#5B5C5F" d="M44.663,37.52c0,1.123,0.903,2.032,2.018,2.032h16.146c1.116,0,2.019-0.909,2.019-2.032
			s-0.902-2.032-2.019-2.032H46.681C45.566,35.488,44.663,36.397,44.663,37.52z"/>
		<ellipse fill="#6FDAF1" cx="54.622" cy="28.378" rx="3.027" ry="3.048"/>
		<polygon fill="#3E3E3F" points="58.79,41.583 50.717,41.583 48.699,39.552 60.808,39.552 		"/>
		<polygon fill="#E2E4E5" points="28.385,56.82 28.385,62.916 56.508,62.916 62.563,56.82 		"/>
		<polygon fill="#FFFFFF" points="28.385,62.916 28.385,81.2 38.344,81.2 56.508,62.916 		"/>
		<rect x="30.536" y="70.534" fill="#FA5655" width="4.036" height="3.048"/>
		<rect x="37.467" y="75.106" fill="#32BEA6" width="4.037" height="3.048"/>
	</g>
</g>
</svg>
