<?xml version="1.0" encoding="utf-8"?>
<!-- Generator: Adobe Illustrator 22.1.0, SVG Export Plug-In . SVG Version: 6.00 Build 0)  -->
<svg version="1.1"
	 id="svg2" inkscape:version="0.92.2 5c3e80d, 2017-08-06" sodipodi:docname="404.svg" xmlns:cc="http://creativecommons.org/ns#" xmlns:dc="http://purl.org/dc/elements/1.1/" xmlns:inkscape="http://www.inkscape.org/namespaces/inkscape" xmlns:rdf="http://www.w3.org/1999/02/22-rdf-syntax-ns#" xmlns:sodipodi="http://sodipodi.sourceforge.net/DTD/sodipodi-0.dtd" xmlns:svg="http://www.w3.org/2000/svg"
	 xmlns="http://www.w3.org/2000/svg" xmlns:xlink="http://www.w3.org/1999/xlink" x="0px" y="0px" viewBox="0 0 297.6 163.2"
	 style="enable-background:new 0 0 297.6 163.2;" xml:space="preserve">
<style type="text/css">
	.st0{filter:url(#filter5452);}
	.st1{fill:#2F61A7;}
	.st2{fill:#40BB6A;}
	.st3{fill:#E5E5E5;}
	.st4{fill:#004D40;}
	.st5{fill:#E65100;}
	.st6{fill:#FF9800;}
	.st7{fill:#009688;}
</style>
<filter  id="filter5452" inkscape:label="Greyscale" style="color-interpolation-filters:sRGB">
	<feColorMatrix  id="feColorMatrix5454" values="0 0 0 0 0 0 0 0 0 0 0 0 0 0 0 -1.1 0.4 -1.1 1 0 "></feColorMatrix>
</filter>
<sodipodi:namedview  bordercolor="#666666" borderlayer="true" borderopacity="1" fit-margin-bottom="0" fit-margin-left="0" fit-margin-right="14.41" fit-margin-top="0" gridtolerance="10" guidetolerance="10" id="namedview39" inkscape:current-layer="text4184" inkscape:cx="203.87545" inkscape:cy="100.93138" inkscape:pageopacity="0" inkscape:pageshadow="2" inkscape:window-height="732" inkscape:window-maximized="1" inkscape:window-width="1366" inkscape:window-x="0" inkscape:window-y="0" inkscape:zoom="1.4142136" objecttolerance="10" pagecolor="#ffffff" showgrid="false">
	</sodipodi:namedview>
<g id="Multicolor" transform="matrix(2.6985062,0,0,2.6985062,-79.546188,-65.189707)">
	<g id="g5476" transform="translate(5.5620169e-7,11.0511)">
		<g id="g5512" transform="translate(0,2.8091192)">
			<g id="g5548" transform="translate(0,1.482302)">
				<g id="g4245" transform="matrix(0.18252392,0,0,0.18252392,49.680581,22.897635)" class="st0">
					<path id="path40_2_" inkscape:connector-curvature="0" inkscape:export-xdpi="90" inkscape:export-ydpi="90" class="st1" d="
						M176.1,226.6"/>
					<path id="path106_2_" inkscape:connector-curvature="0" inkscape:export-xdpi="90" inkscape:export-ydpi="90" class="st2" d="
						M-71.2,226.6"/>
				</g>
				<g id="text4184">
					<path id="path866" class="st3" d="M98,45.9h-1.7v4.2h-3.1v-4.2H86v-2L91.5,28h3.4c0,0.1,0,0.1,0,0.1l-5.1,15h3.6v-6.6h3.1v6.6
						H98V45.9z"/>
					<path id="path868" class="st3" d="M110.8,48.1c0,1.3-0.7,2-2,2h-6.9c-1.3,0-2-0.7-2-2v-18c0-1.4,0.7-2,2-2h6.8c1.3,0,2,0.7,2,2
						V48.1z M107.5,47.3V30.9h-4.4v16.4H107.5z"/>
					<path id="path870" class="st3" d="M124.6,45.9H123v4.2h-3.1v-4.2h-7.2v-2l5.5-15.9h3.4c0,0.1,0,0.1,0,0.1l-5.1,15h3.6v-6.6h3.1
						v6.6h1.7L124.6,45.9z"/>
				</g>
			</g>
		</g>
	</g>
</g>
<g id="Layer_x0020_1" transform="matrix(0.99999832,0,0,1,-1607.6136,-2785.6122)">
	<g id="_1633319956736">
		<polygon id="polygon7" class="st4" points="1660.3,2918.3 1652.6,2910.8 1660.4,2902.9 		"/>
		<polygon id="polygon9" class="st5" points="1673.7,2895.1 1681.5,2887.2 1687.9,2893.6 1680.1,2901.5 		"/>
		<polygon id="polygon11" class="st5" points="1654.1,2875.6 1662,2867.7 1668.4,2874 1660.6,2881.9 		"/>
		<polygon id="polygon13" class="st4" points="1673.2,2861.6 1681,2853.7 1687.5,2860 1679.7,2868 		"/>
		<polygon id="polygon15" class="st4" points="1653.8,2842.1 1656.1,2828.7 1668.1,2840.6 1660.3,2848.5 		"/>
		<path id="path17" inkscape:connector-curvature="0" class="st6" d="M1658.6,2855.3c6.7-6.9,18.7-18.6,30.4-30.4
			c2.7,2.6,2.2,13.5-4.3,20.2c-6.7,6.9-18.9,18.7-30.6,30.6C1651.5,2873,1652.1,2861.9,1658.6,2855.3z"/>
		<path id="path19" inkscape:connector-curvature="0" class="st7" d="M1657.1,2890.5c6.7-6.9,18.7-18.6,30.4-30.4
			c2.6,2.6,2.2,13.6-4.3,20.2c-6.8,6.8-18.9,18.7-30.6,30.5C1650,2908.2,1650.6,2897.1,1657.1,2890.5z"/>
		<path id="path21" inkscape:connector-curvature="0" class="st6" d="M1671.9,2909.7c6.7-6.9,4.4-4.2,16-16
			c2.7,2.6,2.2,13.5-4.3,20.2c-6.7,6.9-4.5,4.3-16.2,16.2C1664.9,2927.4,1665.5,2916.3,1671.9,2909.7z"/>
		<path id="path23" inkscape:connector-curvature="0" class="st7" d="M1722.5,2871c3.3,2.2,6,5,8.1,8.6c2.1,3.6,3.2,7.9,3.2,12.9
			c0,5.2-1.1,9.7-3.4,13.5c-2.2,3.8-5.2,6.9-8.8,9.4c-7.4,5.1-16.6,7.3-25.5,7.3c-4.3,0-15.2-4.6-5.8-6.2c16.9,0,24-10.7,24-26.7
			c0-6.5-2.2-11.9-6.6-16.1c-5.6-5.3-12.8-8.1-13-9.8c-0.5-4.4,5.7-5.9,8.8-9.5c4.3-5,5.2-10.6,5.2-16.9c0-6.1-1.7-10.9-5-14.4
			c-19.1-14.7-48.5,2.9-50,19.2c-5.3-10.3,3.7-26.7,24.2-30.8c19.7-3.9,40.6,3.5,46.7,13c2,3.2,3,7,3,11.5c0,7.2-2.5,13.6-8.1,18.3
			c-5.1,4.5-11.7,7.2-18.3,8.7v0.7c3.2,0.3,6.7,1.1,10.7,2.4C1715.9,2867,1719.4,2868.7,1722.5,2871z"/>
	</g>
</g>
</svg>
