<?xml version="1.0" encoding="UTF-8" standalone="no"?>
<!-- Creator: CorelDRAW X7 -->

<svg
   xmlns:dc="http://purl.org/dc/elements/1.1/"
   xmlns:cc="http://creativecommons.org/ns#"
   xmlns:rdf="http://www.w3.org/1999/02/22-rdf-syntax-ns#"
   xmlns:svg="http://www.w3.org/2000/svg"
   xmlns="http://www.w3.org/2000/svg"
   xmlns:sodipodi="http://sodipodi.sourceforge.net/DTD/sodipodi-0.dtd"
   xmlns:inkscape="http://www.inkscape.org/namespaces/inkscape"
   xml:space="preserve"
   width="633.974"
   height="321.85901"
   version="1.1"
   style="clip-rule:evenodd;fill-rule:evenodd;image-rendering:optimizeQuality;shape-rendering:geometricPrecision;text-rendering:geometricPrecision"
   viewBox="0 0 6603.8451 3352.7511"
   id="svg19"
   sodipodi:docname="biotech.svg"
   inkscape:version="0.92.2 (5c3e80d, 2017-08-06)"><metadata
     id="metadata23"><rdf:RDF><cc:Work
         rdf:about=""><dc:format>image/svg+xml</dc:format><dc:type
           rdf:resource="http://purl.org/dc/dcmitype/StillImage" /><dc:title></dc:title></cc:Work></rdf:RDF></metadata><sodipodi:namedview
     pagecolor="#ffffff"
     bordercolor="#666666"
     borderopacity="1"
     objecttolerance="10"
     gridtolerance="10"
     guidetolerance="10"
     inkscape:pageopacity="0"
     inkscape:pageshadow="2"
     inkscape:window-width="1600"
     inkscape:window-height="847"
     id="namedview21"
     showgrid="false"
     units="px"
     inkscape:zoom="0.12927914"
     inkscape:cx="623.62079"
     inkscape:cy="603.34558"
     inkscape:window-x="-8"
     inkscape:window-y="-8"
     inkscape:window-maximized="1"
     inkscape:current-layer="svg19" /><defs
     id="defs4"><style
       type="text/css"
       id="style2"><![CDATA[
    .fil1 {fill:#31496F}
    .fil0 {fill:#3CB669}
    .fil2 {fill:#31496F;fill-rule:nonzero}
   ]]></style></defs><g
     id="Layer_x0020_1"
     transform="translate(-3010.0774,-604.00045)"><metadata
       id="CorelCorpID_0Corel-Layer" /><g
       id="_2357434106912"><g
         id="g11"><path
           class="fil0"
           d="m 5074,1076 c -28,99 -365,303 -457,309 8,31 11,32 35,53 56,49 124,67 197,54 104,-19 172,-64 226,-134 86,-111 187,-340 191,-530 -322,206 -626,45 -704,353 -18,71 -12,82 2,137 214,-13 383,-161 510,-242 z"
           id="path7"
           inkscape:connector-curvature="0"
           style="fill:#3cb669" /><path
           class="fil0"
           d="m 4453,854 c -1,60 -12,315 42,421 16,-2 21,-4 37,-13 -4,-42 27,-196 115,-239 0,-57 -45,-144 -63,-197 -26,-78 -40,-113 -38,-222 -206,132 -485,572 -113,667 -13,-101 -45,-318 20,-417 z"
           id="path9"
           inkscape:connector-curvature="0"
           style="fill:#3cb669" /></g><path
         class="fil1"
         d="m 3010,3399 h 734 v 109 h -230 c 40,47 88,88 144,121 275,163 630,72 793,-203 157,-266 77,-606 -177,-776 -70,42 -161,46 -236,1 v 0 l -73,123 -39,-23 -124,209 -40,-23 -47,79 -45,-27 -46,78 -223,-132 46,-78 -45,-26 47,-79 -40,-24 634,-1070 84,50 175,-294 -26,-15 56,-93 25,15 223,132 25,15 -55,93 -25,-15 -175,294 85,51 -124,209 39,24 -78,131 v 0 c 65,39 104,104 112,173 383,235 509,736 279,1124 -232,392 -738,522 -1130,289 -139,-82 -245,-199 -314,-333 H 3010 Z M 4214,2354 c -55,-32 -126,-14 -158,41 -32,54 -14,125 40,157 55,33 126,15 158,-40 32,-55 14,-125 -40,-158 z"
         id="path13"
         inkscape:connector-curvature="0"
         style="fill:#31496f" /><path
         class="fil2"
         d="m 4947,2615 c 0,-76 43,-114 127,-114 85,0 127,38 127,114 0,37 -10,65 -31,85 -21,20 -53,30 -96,30 -84,0 -127,-38 -127,-115 z m 244,1140 h -234 v -869 h 234 z m 431,-430 c 0,85 14,149 42,193 28,43 73,65 136,65 62,0 107,-22 134,-65 28,-43 41,-107 41,-193 0,-84 -13,-148 -41,-190 -28,-43 -73,-64 -136,-64 -62,0 -107,21 -134,63 -28,42 -42,106 -42,191 z m 592,1 c 0,139 -36,248 -110,327 -73,79 -176,118 -307,118 -82,0 -155,-18 -218,-54 -63,-36 -111,-88 -144,-155 -34,-68 -51,-146 -51,-236 0,-140 36,-249 109,-327 74,-78 176,-116 309,-116 82,0 154,17 217,53 63,36 111,87 145,154 34,67 50,146 50,236 z m 555,258 c 41,0 90,-9 147,-27 v 175 c -58,26 -130,39 -215,39 -93,0 -161,-24 -204,-71 -43,-47 -64,-118 -64,-213 v -413 h -112 v -136 l 129,-41 68,-279 h 149 v 280 h 240 v 176 h -240 v 413 c 0,33 9,58 28,73 18,16 43,24 74,24 z m 675,-535 c -50,0 -88,16 -117,47 -28,32 -44,76 -48,134 h 328 c -1,-58 -16,-102 -45,-134 -29,-31 -68,-47 -118,-47 z m 33,722 c -138,0 -246,-38 -324,-114 -77,-76 -116,-184 -116,-324 0,-143 36,-254 108,-333 71,-78 171,-117 297,-117 122,0 216,34 283,103 68,69 102,164 102,286 v 113 h -553 c 2,66 22,118 59,156 37,37 88,56 155,56 51,0 100,-6 146,-16 46,-11 94,-28 144,-52 v 181 c -41,21 -84,36 -131,46 -46,10 -103,15 -170,15 z m 887,0 c -266,0 -400,-146 -400,-439 0,-146 36,-257 109,-334 73,-77 176,-115 312,-115 99,0 188,19 267,58 l -70,181 c -36,-15 -70,-27 -102,-37 -32,-9 -63,-14 -95,-14 -122,0 -182,86 -182,259 0,167 60,251 182,251 45,0 86,-6 125,-18 38,-12 76,-31 115,-56 v 200 c -38,24 -76,41 -115,50 -38,9 -87,14 -146,14 z m 1250,-16 h -234 v -500 c 0,-124 -46,-186 -138,-186 -65,0 -112,23 -141,67 -29,45 -44,117 -44,216 v 403 H 8823 V 2477 h 234 v 329 c 0,18 -2,63 -5,133 l -6,69 h 13 c 52,-83 134,-125 248,-125 100,0 177,27 229,81 52,54 78,132 78,233 z"
         id="path15"
         inkscape:connector-curvature="0"
         style="fill:#31496f;fill-rule:nonzero" /></g></g></svg>