<?xml version="1.0" encoding="UTF-8" standalone="no"?>
<!-- Creator: CorelDRAW X7 -->

<svg
   xmlns:dc="http://purl.org/dc/elements/1.1/"
   xmlns:cc="http://creativecommons.org/ns#"
   xmlns:rdf="http://www.w3.org/1999/02/22-rdf-syntax-ns#"
   xmlns:svg="http://www.w3.org/2000/svg"
   xmlns="http://www.w3.org/2000/svg"
   xmlns:sodipodi="http://sodipodi.sourceforge.net/DTD/sodipodi-0.dtd"
   xmlns:inkscape="http://www.inkscape.org/namespaces/inkscape"
   xml:space="preserve"
   width="1052.335"
   height="189.021"
   version="1.1"
   style="clip-rule:evenodd;fill-rule:evenodd;image-rendering:optimizeQuality;shape-rendering:geometricPrecision;text-rendering:geometricPrecision"
   viewBox="0 0 10961.739 1968.9999"
   id="svg3693"
   sodipodi:docname="e3s.svg"
   inkscape:version="0.92.1 r15371"><metadata
   id="metadata3697"><rdf:RDF><cc:Work
       rdf:about=""><dc:format>image/svg+xml</dc:format><dc:type
         rdf:resource="http://purl.org/dc/dcmitype/StillImage" /><dc:title></dc:title></cc:Work></rdf:RDF></metadata><sodipodi:namedview
   pagecolor="#ffffff"
   bordercolor="#666666"
   borderopacity="1"
   objecttolerance="10"
   gridtolerance="10"
   guidetolerance="10"
   inkscape:pageopacity="0"
   inkscape:pageshadow="2"
   inkscape:window-width="1366"
   inkscape:window-height="715"
   id="namedview3695"
   showgrid="false"
   units="px"
   inkscape:zoom="0.29252145"
   inkscape:cx="192.88315"
   inkscape:cy="912.75357"
   inkscape:window-x="-8"
   inkscape:window-y="-8"
   inkscape:window-maximized="1"
   inkscape:current-layer="svg3693" />
 <defs
   id="defs3682">
  <style
   type="text/css"
   id="style3680">
   <![CDATA[
    .fil0 {fill:#EB5E00}
    .fil1 {fill:#FEFEFE;fill-rule:nonzero}
   ]]>
  </style>
 </defs>
 <g
   id="Layer_x0020_1"
   transform="translate(-1056.1305,-2458.0001)">
  <metadata
   id="CorelCorpID_0Corel-Layer" />
  <g
   id="_2118539042800">
   <path
   class="fil0"
   d="m 1326,2458 h 10422 c 148,0 270,122 270,270 v 1429 c 0,148 -122,270 -270,270 H 1326 c -149,0 -270,-122 -270,-270 V 2728 c 0,-148 121,-270 270,-270 z"
   id="path3685"
   inkscape:connector-curvature="0"
   style="fill:#eb5e00" />
   <path
   class="fil1"
   d="m 1509,3039 h 441 v 151 h -288 v 145 h 288 v 148 h -288 v 212 h 288 v 151 h -441 z m 705,199 h -147 c 7,-60 29,-107 64,-143 49,-51 110,-76 184,-76 66,0 122,21 166,63 45,42 67,92 67,150 0,36 -9,69 -29,98 -20,30 -48,54 -86,72 49,15 88,40 116,77 27,36 41,79 41,128 0,72 -27,133 -80,184 -53,50 -121,75 -204,75 -78,0 -142,-24 -191,-71 -49,-47 -76,-112 -81,-193 h 152 c 6,42 21,73 43,93 22,20 51,31 85,31 36,0 66,-12 89,-35 24,-23 35,-51 35,-84 0,-37 -15,-68 -47,-93 -32,-25 -77,-38 -137,-39 v -131 c 37,-3 64,-9 82,-18 18,-8 32,-20 42,-35 10,-15 15,-31 15,-48 0,-22 -7,-41 -23,-55 -15,-15 -35,-22 -60,-22 -22,0 -42,7 -60,20 -18,13 -30,31 -36,52 z m 931,-89 -114,100 c -40,-55 -80,-83 -122,-83 -20,0 -37,6 -49,16 -13,11 -20,23 -20,37 0,13 5,26 14,38 13,16 50,51 113,104 59,49 94,80 107,92 31,32 53,62 66,90 13,29 19,60 19,94 0,67 -22,121 -68,164 -46,43 -106,65 -179,65 -58,0 -108,-14 -151,-42 -42,-28 -79,-73 -109,-133 l 129,-78 c 39,71 84,107 134,107 27,0 49,-8 67,-23 18,-15 27,-33 27,-53 0,-18 -7,-37 -20,-55 -14,-18 -44,-46 -90,-84 -88,-72 -145,-127 -171,-166 -25,-39 -38,-77 -38,-116 0,-56 21,-104 64,-144 42,-40 95,-60 158,-60 40,0 78,9 115,28 36,19 75,52 118,102 z"
   id="path3687"
   inkscape:connector-curvature="0"
   style="fill:#fefefe;fill-rule:nonzero" />
   <path
   class="fil1"
   d="m 3758,3163 h 58 l 117,410 165,-410 h 10 l 161,410 117,-410 h 58 l -164,569 h -9 l -169,-430 -173,430 h -8 z m 1138,430 46,24 c -15,29 -32,52 -52,70 -20,18 -42,32 -66,41 -25,10 -53,14 -84,14 -68,0 -122,-22 -161,-67 -39,-45 -58,-96 -58,-152 0,-53 16,-101 49,-142 42,-53 98,-80 167,-80 72,0 130,27 173,82 30,38 46,86 46,143 h -380 c 1,49 17,89 47,120 31,31 68,46 113,46 21,0 42,-3 62,-11 21,-7 38,-17 52,-29 14,-12 30,-32 46,-59 z m 1,-114 c -7,-29 -18,-52 -32,-69 -14,-17 -32,-31 -55,-42 -23,-10 -47,-15 -72,-15 -41,0 -77,13 -107,39 -22,20 -38,49 -49,87 z m 163,253 v -583 h 54 v 235 c 23,-28 48,-48 76,-62 28,-14 59,-21 92,-21 60,0 111,22 153,65 42,43 63,95 63,156 0,61 -21,113 -64,156 -42,43 -93,64 -153,64 -35,0 -66,-7 -93,-22 -28,-14 -53,-36 -74,-65 v 77 z m 217,-42 c 30,0 58,-7 83,-22 25,-15 46,-36 61,-62 15,-27 22,-55 22,-85 0,-29 -7,-58 -22,-85 -16,-27 -36,-48 -62,-63 -25,-15 -52,-22 -82,-22 -29,0 -57,7 -84,22 -26,15 -47,36 -61,61 -14,25 -21,54 -21,86 0,48 16,89 48,121 32,33 71,49 118,49 z m 738,-389 c 65,0 119,23 161,70 39,43 58,93 58,152 0,58 -20,110 -61,153 -41,44 -94,66 -158,66 -65,0 -118,-22 -159,-66 -41,-43 -61,-95 -61,-153 0,-58 19,-109 58,-151 43,-47 97,-71 162,-71 z m 0,53 c -45,0 -84,17 -116,50 -33,33 -49,73 -49,120 0,30 8,58 22,85 15,26 35,46 60,60 25,15 53,22 83,22 30,0 57,-7 82,-22 25,-14 45,-34 60,-60 15,-27 22,-55 22,-85 0,-47 -16,-87 -49,-120 -32,-33 -71,-50 -115,-50 z m 493,-204 v 52 c -20,-8 -37,-13 -51,-13 -11,0 -20,3 -27,7 -7,4 -11,9 -13,14 -2,6 -2,21 -2,45 v 56 h 88 v 47 h -89 v 374 h -54 v -374 h -55 v -47 h 55 v -65 c 0,-30 3,-52 9,-65 5,-12 15,-23 28,-31 13,-7 29,-11 48,-11 18,0 39,3 63,11 z m 833,118 -45,35 c -25,-33 -55,-57 -89,-74 -35,-16 -73,-25 -115,-25 -45,0 -87,11 -125,33 -39,22 -69,51 -90,88 -21,37 -32,78 -32,124 0,69 24,127 71,174 48,46 108,69 180,69 80,0 146,-31 200,-93 l 45,34 c -29,36 -64,64 -107,84 -42,19 -89,29 -142,29 -99,0 -178,-33 -235,-99 -48,-56 -72,-124 -72,-203 0,-83 29,-153 87,-210 59,-57 132,-85 220,-85 53,0 101,10 143,31 43,21 78,51 106,88 z m 304,33 c 65,0 119,23 162,70 38,43 58,93 58,152 0,58 -21,110 -62,153 -41,44 -93,66 -158,66 -64,0 -117,-22 -158,-66 -41,-43 -62,-95 -62,-153 0,-58 20,-109 59,-151 42,-47 96,-71 161,-71 z m 0,53 c -45,0 -83,17 -116,50 -32,33 -48,73 -48,120 0,30 7,58 22,85 15,26 35,46 60,60 25,15 52,22 82,22 30,0 58,-7 83,-22 25,-14 45,-34 59,-60 15,-27 22,-55 22,-85 0,-47 -16,-87 -48,-120 -33,-33 -71,-50 -116,-50 z m 320,-43 h 53 v 76 c 22,-29 46,-51 72,-65 27,-14 55,-21 87,-21 31,0 59,8 83,24 25,16 43,37 55,65 11,26 17,69 17,126 v 216 h -54 v -200 c 0,-49 -2,-81 -6,-97 -7,-28 -19,-49 -37,-63 -17,-14 -41,-21 -69,-21 -33,0 -63,11 -88,32 -26,22 -44,49 -52,81 -5,21 -8,59 -8,114 v 154 h -53 z m 657,-161 v 52 c -20,-8 -37,-13 -52,-13 -10,0 -19,3 -26,7 -7,4 -12,9 -13,14 -2,6 -3,21 -3,45 v 56 h 88 v 47 h -88 l -1,374 h -53 v -374 h -56 v -47 h 56 v -65 c 0,-30 2,-52 8,-65 5,-12 15,-23 28,-31 14,-7 30,-11 49,-11 17,0 38,3 63,11 z m 429,443 46,24 c -15,29 -32,52 -52,70 -20,18 -42,32 -66,41 -25,10 -53,14 -84,14 -69,0 -122,-22 -161,-67 -39,-45 -58,-96 -58,-152 0,-53 16,-101 49,-142 42,-53 97,-80 167,-80 72,0 130,27 173,82 30,38 46,86 46,143 h -380 c 1,49 17,89 47,120 30,31 68,46 112,46 22,0 43,-3 63,-11 21,-7 38,-17 52,-29 14,-12 30,-32 46,-59 z m 1,-114 c -7,-29 -18,-52 -32,-69 -14,-17 -32,-31 -55,-42 -23,-10 -47,-15 -72,-15 -42,0 -77,13 -107,39 -22,20 -38,49 -50,87 z m 138,-168 h 56 v 62 c 16,-24 34,-42 52,-54 18,-12 37,-18 57,-18 15,0 31,5 48,14 l -28,46 c -11,-5 -21,-8 -29,-8 -18,0 -35,8 -52,23 -17,14 -29,37 -38,69 -7,23 -10,72 -10,145 v 142 h -56 z m 614,282 46,24 c -15,29 -33,52 -52,70 -20,18 -42,32 -66,41 -25,10 -53,14 -84,14 -69,0 -122,-22 -161,-67 -39,-45 -59,-96 -59,-152 0,-53 17,-101 50,-142 41,-53 97,-80 167,-80 72,0 130,27 172,82 31,38 47,86 47,143 h -380 c 1,49 17,89 47,120 30,31 68,46 112,46 22,0 43,-3 63,-11 20,-7 38,-17 52,-29 14,-12 30,-32 46,-59 z m 1,-114 c -8,-29 -18,-52 -32,-69 -14,-17 -32,-31 -55,-42 -23,-10 -47,-15 -72,-15 -42,0 -77,13 -107,39 -22,20 -38,49 -50,87 z m 159,-168 h 54 v 76 c 21,-29 45,-51 72,-65 26,-14 55,-21 86,-21 31,0 59,8 84,24 24,16 42,37 54,65 11,26 17,69 17,126 v 216 h -54 v -200 c 0,-49 -2,-81 -6,-97 -6,-28 -19,-49 -36,-63 -18,-14 -41,-21 -70,-21 -33,0 -62,11 -88,32 -26,22 -43,49 -52,81 -5,21 -7,59 -7,114 v 154 h -54 z m 891,88 -43,26 c -37,-49 -88,-73 -152,-73 -51,0 -94,16 -128,49 -34,33 -51,73 -51,120 0,30 8,59 23,86 16,27 37,48 65,63 27,15 57,22 91,22 62,0 113,-24 152,-73 l 43,28 c -20,30 -47,53 -81,70 -34,17 -73,25 -116,25 -67,0 -122,-21 -166,-63 -44,-42 -66,-93 -66,-154 0,-40 10,-78 31,-113 20,-35 49,-62 85,-82 36,-19 76,-29 120,-29 28,0 55,4 81,13 26,8 48,19 66,33 18,13 34,31 46,52 z m 459,194 46,24 c -15,29 -32,52 -52,70 -20,18 -42,32 -66,41 -25,10 -53,14 -84,14 -69,0 -122,-22 -161,-67 -39,-45 -58,-96 -58,-152 0,-53 16,-101 49,-142 41,-53 97,-80 167,-80 72,0 130,27 173,82 30,38 46,86 46,143 h -380 c 1,49 17,89 47,120 30,31 68,46 112,46 22,0 43,-3 63,-11 20,-7 38,-17 52,-29 14,-12 30,-32 46,-59 z m 1,-114 c -8,-29 -18,-52 -32,-69 -14,-17 -32,-31 -55,-42 -23,-10 -47,-15 -72,-15 -42,0 -77,13 -107,39 -22,20 -38,49 -50,87 z m 371,-122 -35,36 c -29,-28 -57,-42 -85,-42 -17,0 -32,6 -45,17 -12,12 -19,25 -19,41 0,14 5,27 16,39 10,13 32,27 65,44 40,21 67,41 82,61 14,19 21,41 21,66 0,34 -12,63 -36,87 -25,24 -55,36 -91,36 -25,0 -48,-5 -70,-16 -22,-10 -40,-25 -55,-43 l 34,-39 c 28,31 57,47 88,47 22,0 40,-7 56,-21 15,-14 23,-30 23,-49 0,-16 -5,-29 -15,-41 -11,-12 -33,-27 -69,-45 -38,-20 -64,-39 -77,-58 -14,-19 -21,-41 -21,-65 0,-32 11,-58 33,-79 22,-21 49,-32 83,-32 39,0 78,19 117,56 z"
   id="path3689"
   inkscape:connector-curvature="0"
   style="fill:#fefefe;fill-rule:nonzero" />
  </g>
 </g>
</svg>