<?xml version="1.0" encoding="UTF-8" standalone="no"?>
<!-- Creator: CorelDRAW X8 -->

<svg
   xmlns:dc="http://purl.org/dc/elements/1.1/"
   xmlns:cc="http://creativecommons.org/ns#"
   xmlns:rdf="http://www.w3.org/1999/02/22-rdf-syntax-ns#"
   xmlns:svg="http://www.w3.org/2000/svg"
   xmlns="http://www.w3.org/2000/svg"
   xmlns:sodipodi="http://sodipodi.sourceforge.net/DTD/sodipodi-0.dtd"
   xmlns:inkscape="http://www.inkscape.org/namespaces/inkscape"
   xml:space="preserve"
   width="4.442596in"
   height="1.7857782in"
   version="1.1"
   style="clip-rule:evenodd;fill-rule:evenodd;image-rendering:optimizeQuality;shape-rendering:geometricPrecision;text-rendering:geometricPrecision"
   viewBox="0 0 4442.7715 1785.8386"
   id="svg80"
   sodipodi:docname="HKI.svg"
   inkscape:version="0.92.1 r"><metadata
     id="metadata84"><rdf:RDF><cc:Work
         rdf:about=""><dc:format>image/svg+xml</dc:format><dc:type
           rdf:resource="http://purl.org/dc/dcmitype/StillImage" /><dc:title></dc:title></cc:Work></rdf:RDF></metadata><sodipodi:namedview
     pagecolor="#ffffff"
     bordercolor="#666666"
     borderopacity="1"
     objecttolerance="10"
     gridtolerance="10"
     guidetolerance="10"
     inkscape:pageopacity="0"
     inkscape:pageshadow="2"
     inkscape:window-width="1366"
     inkscape:window-height="741"
     id="namedview82"
     showgrid="false"
     inkscape:pagecheckerboard="true"
     fit-margin-top="0"
     fit-margin-left="0"
     fit-margin-right="0"
     fit-margin-bottom="0"
     inkscape:zoom="0.84100774"
     inkscape:cx="275.68636"
     inkscape:cy="140.39721"
     inkscape:window-x="0"
     inkscape:window-y="27"
     inkscape:window-maximized="1"
     inkscape:current-layer="Layer_x0020_1" /><defs
     id="defs4"><style
       type="text/css"
       id="style2"><![CDATA[
    .fil9 {fill:#02913E}
    .fil1 {fill:#058E42}
    .fil0 {fill:#15478C}
    .fil4 {fill:#707070}
    .fil3 {fill:#71706D}
    .fil6 {fill:#727070}
    .fil2 {fill:#72716F}
    .fil7 {fill:#FCFBFA}
    .fil8 {fill:#FCFCFC}
    .fil5 {fill:#FDFDFD}
   ]]></style></defs><g
     id="Layer_x0020_1"
     transform="translate(-581,-4917.0238)"><metadata
       id="CorelCorpID_0Corel-Layer" /><path
       class="fil0"
       d="m 2066,6095 c 9,-22 34,-55 48,-77 47,-71 328,-504 350,-524 l 1,1201 c -23,-23 -309,-462 -350,-524 z m 42,-607 c -52,0 -43,-2 -65,33 -51,80 -104,156 -156,237 -24,36 -144,212 -152,233 24,2 60,-7 60,21 0,25 -39,18 -62,18 -2,40 -1,84 -1,125 0,58 8,55 34,93 33,49 64,99 97,147 35,52 66,98 100,150 27,43 37,89 -5,130 -14,14 -21,13 -36,25 l 876,1 V 5488 Z"
       id="path7"
       inkscape:connector-curvature="0"
       style="fill:#15478c" /><path
       class="fil0"
       d="m 1580,6031 c -23,-3 -62,7 -63,-20 -1,-26 38,-18 64,-19 l -1,-248 c -86,-12 -131,-27 -179,-74 -40,-39 -71,-101 -75,-181 l -78,-1 -1,439 H 915 l -1,-437 c -102,-5 -226,-1 -333,-2 l 1,1212 c 69,0 287,4 332,-1 l 1,-438 c 102,0 234,-3 332,1 l 1,439 145,-2 c -70,-41 -91,-81 -40,-158 34,-50 65,-96 98,-147 33,-52 65,-99 99,-150 26,-39 31,-37 31,-94 0,-39 1,-80 -1,-119 z"
       id="path9"
       inkscape:connector-curvature="0"
       style="fill:#15478c" /><path
       class="fil1"
       d="m 1461,6492 c -12,10 -71,96 -73,112 -9,55 106,36 147,36 63,0 328,9 369,-1 31,-8 24,-57 7,-55 -12,1 -52,68 -207,-21 -63,-36 -54,-49 -133,-16 -70,28 -90,1 -110,-55 z"
       id="path11"
       inkscape:connector-curvature="0"
       style="fill:#058e42" /><path
       class="fil2"
       d="m 3427,5613 c -3,-36 5,-33 -40,-33 v 245 h 40 c 7,-72 -22,-202 55,-214 79,-12 38,111 51,214 h 38 c 8,-66 -24,-206 54,-214 76,-8 44,108 52,213 l 39,2 c 4,-36 6,-184 -6,-211 -11,-25 -34,-41 -68,-42 -41,-1 -56,19 -73,37 -22,-19 -29,-40 -74,-37 -36,2 -53,23 -68,40 z"
       id="path13"
       inkscape:connector-curvature="0"
       style="fill:#72716f" /><polygon
       class="fil2"
       points="3169,5667 3171,5826 3215,5825 3216,5490 3171,5488 3170,5627 2997,5626 2995,5489 2949,5489 2949,5825 2994,5825 2995,5667 "
       id="polygon15"
       style="fill:#72716f" /><path
       class="fil2"
       d="m 2949,6259 44,1 c 10,-64 -26,-124 53,-165 l 72,99 c 56,76 34,67 103,65 -6,-22 -119,-161 -141,-198 l 68,-68 c 16,-17 55,-47 70,-69 -70,-6 -61,-4 -126,64 l -98,94 1,-158 -46,-1 z"
       id="path17"
       inkscape:connector-curvature="0"
       style="fill:#72716f" /><path
       class="fil2"
       d="m 3401,6260 c 10,-66 -23,-201 54,-214 73,-13 49,101 51,213 h 41 c 0,-68 -20,-209 55,-214 76,-5 43,154 50,215 l 38,-1 c 5,-33 5,-186 -6,-211 -17,-41 -77,-64 -137,-11 -6,6 -1,2 -6,6 -37,-53 -111,-44 -134,3 l -8,-32 -38,1 1,244 z"
       id="path19"
       inkscape:connector-curvature="0"
       style="fill:#72716f" /><path
       class="fil3"
       d="m 3867,5612 c 104,-23 101,165 33,182 -55,14 -82,-25 -84,-73 -3,-53 7,-100 51,-109 z m -49,-2 -8,-26 c 0,-1 -1,-3 -1,-4 h -34 v 342 h 40 l 1,-120 c 7,4 54,55 119,17 69,-40 77,-188 4,-233 -48,-29 -99,-10 -121,24 z"
       id="path21"
       inkscape:connector-curvature="0"
       style="fill:#71706d" /><path
       class="fil4"
       d="m 3409,6480 c 98,-19 109,164 33,183 -53,13 -79,-27 -83,-74 -5,-52 4,-100 50,-109 z m 82,-2 c -15,-10 -61,-64 -126,-22 -121,78 -10,346 128,208 l 3,30 36,-1 v -336 l -41,2 z"
       id="path23"
       inkscape:connector-curvature="0"
       style="fill:#707070" /><path
       class="fil2"
       d="m 4006,6137 c 2,40 2,64 -27,82 -80,49 -132,-42 -60,-65 24,-7 61,-10 87,-17 z m -114,-51 c 13,-28 15,-42 52,-45 26,-2 54,6 60,29 18,58 -77,38 -120,58 -48,23 -57,98 -12,125 53,33 107,3 134,-23 15,29 25,43 68,29 l 1,-27 -26,-6 c -3,-70 19,-181 -39,-209 -37,-18 -142,-28 -155,70 z"
       id="path25"
       inkscape:connector-curvature="0"
       style="fill:#72716f" /><path
       class="fil2"
       d="m 4861,6572 c 2,38 3,60 -25,79 -19,13 -61,24 -83,6 -24,-21 -12,-57 17,-68 20,-7 71,-13 91,-17 z m -150,-50 c 69,0 21,-19 63,-40 68,-35 125,49 62,63 -28,6 -56,4 -84,13 -73,23 -59,100 -33,123 58,51 130,-7 146,-16 7,33 30,40 65,28 v -26 l -26,-7 c -5,-121 24,-211 -79,-218 -64,-5 -111,18 -114,80 z"
       id="path27"
       inkscape:connector-curvature="0"
       style="fill:#72716f" /><path
       class="fil2"
       d="m 4711,5704 c -1,46 1,61 -30,81 -73,48 -127,-40 -63,-64 21,-7 69,-12 93,-17 z m -151,-50 34,-1 c 18,-28 17,-48 65,-46 37,1 56,19 49,58 -17,29 -163,-8 -160,97 2,72 76,96 162,35 16,22 12,39 69,29 0,-48 -5,-20 -20,-33 -10,-8 -7,-11 -7,-26 0,-21 0,-43 0,-65 0,-39 7,-86 -24,-110 -24,-19 -69,-24 -106,-15 -40,10 -57,32 -62,77 z"
       id="path29"
       inkscape:connector-curvature="0"
       style="fill:#72716f" /><path
       class="fil2"
       d="m 4145,6552 c 2,-41 27,-74 70,-74 47,1 60,31 65,74 z m 134,66 c -28,74 -136,63 -133,-33 h 177 c 0,-73 -23,-134 -90,-143 -73,-10 -119,38 -130,99 -36,200 204,197 214,77 z"
       id="path31"
       inkscape:connector-curvature="0"
       style="fill:#72716f" /><path
       class="fil2"
       d="m 3620,6589 c -15,-138 126,-149 139,-37 16,136 -127,153 -139,37 z m 181,14 c 34,-183 -192,-219 -222,-68 -37,189 193,223 222,68 z"
       id="path33"
       inkscape:connector-curvature="0"
       style="fill:#72716f" /><path
       class="fil2"
       d="m 4358,6615 c 14,156 263,76 193,-28 -28,-42 -127,-34 -142,-62 -18,-32 17,-48 46,-48 46,0 46,15 61,42 h 35 c -4,-60 -55,-88 -121,-75 -63,11 -89,86 -42,120 40,28 140,18 130,69 -8,40 -109,55 -120,-18 z"
       id="path35"
       inkscape:connector-curvature="0"
       style="fill:#72716f" /><path
       class="fil2"
       d="m 3109,6693 c 0,-75 -23,-211 62,-214 88,-4 43,106 57,215 l 38,-1 c 5,-40 7,-186 -9,-214 -32,-59 -116,-44 -145,1 -1,-1 -1,-3 -1,-4 -1,-1 -1,-3 -2,-4 l -7,-24 -34,1 v 245 z"
       id="path37"
       inkscape:connector-curvature="0"
       style="fill:#72716f" /><path
       class="fil2"
       d="m 3890,6693 c 12,-69 -27,-208 62,-214 53,-3 58,31 58,78 -1,45 -1,91 -1,137 l 42,-1 v -39 c 0,-92 17,-192 -56,-209 -59,-15 -77,13 -104,34 l -3,-30 -37,-1 1,246 z"
       id="path39"
       inkscape:connector-curvature="0"
       style="fill:#72716f" /><path
       class="fil2"
       d="m 4867,5611 -10,-30 h -35 v 244 l 40,1 c 8,-72 -25,-205 57,-215 85,-10 60,96 62,214 h 41 c 0,-50 8,-176 -10,-213 -25,-52 -119,-53 -145,-1 z"
       id="path41"
       inkscape:connector-curvature="0"
       style="fill:#72716f" /><path
       class="fil2"
       d="m 4345,5611 -3,-7 c -1,-1 -1,-3 -2,-4 0,-1 0,-3 -1,-4 0,-3 -1,-11 -2,-16 h -35 l -2,244 40,2 c 8,-70 -25,-204 57,-215 52,-7 62,26 62,72 0,48 0,95 0,142 l 41,1 c 0,-49 7,-178 -10,-214 -26,-57 -121,-47 -145,-1 z"
       id="path43"
       inkscape:connector-curvature="0"
       style="fill:#72716f" /><path
       class="fil2"
       d="m 4198,5794 1,30 38,2 1,-246 h -41 c 0,50 9,152 -16,190 -14,22 -44,34 -74,22 -35,-13 -26,-85 -26,-136 v -75 l -41,-1 c 0,47 -6,182 9,214 11,26 37,38 74,38 46,0 50,-20 75,-38 z"
       id="path45"
       inkscape:connector-curvature="0"
       style="fill:#72716f" /><polygon
       class="fil2"
       points="2949,6358 2951,6694 2995,6693 2995,6357 "
       id="polygon53"
       style="fill:#72716f" /><polygon
       class="fil3"
       points="3284,5580 3284,5825 3325,5825 3325,5581 "
       id="polygon55"
       style="fill:#71706d" /><polygon
       class="fil4"
       points="3258,6015 3260,6259 3299,6260 3299,6015 "
       id="polygon57"
       style="fill:#707070" /><polygon
       class="fil6"
       points="3754,6015 3755,6260 3795,6259 3795,6015 "
       id="polygon59"
       style="fill:#727070" /><polygon
       class="fil4"
       points="4609,6449 4610,6693 4650,6694 4649,6449 "
       id="polygon61"
       style="fill:#707070" /><circle
       class="fil9"
       cx="1581"
       cy="5488"
       r="195"
       id="circle71"
       style="fill:#02913e" /><circle
       class="fil9"
       cx="1744"
       cy="5736"
       r="43"
       id="circle73"
       style="fill:#02913e" /><circle
       class="fil9"
       cx="1778"
       cy="5189"
       r="105"
       id="circle75"
       style="fill:#02913e" /><circle
       class="fil9"
       cx="1647"
       cy="4992"
       r="75"
       id="circle77"
       style="fill:#02913e" /></g></svg>