<?xml version="1.0" encoding="UTF-8" standalone="no"?>
<!-- Created with Inkscape (http://www.inkscape.org/) -->

<svg
   xmlns:dc="http://purl.org/dc/elements/1.1/"
   xmlns:cc="http://creativecommons.org/ns#"
   xmlns:rdf="http://www.w3.org/1999/02/22-rdf-syntax-ns#"
   xmlns:svg="http://www.w3.org/2000/svg"
   xmlns="http://www.w3.org/2000/svg"
   xmlns:sodipodi="http://sodipodi.sourceforge.net/DTD/sodipodi-0.dtd"
   xmlns:inkscape="http://www.inkscape.org/namespaces/inkscape"
   width="75.436813mm"
   height="75.436813mm"
   viewBox="0 0 75.436812 75.436814"
   version="1.1"
   id="svg8"
   inkscape:version="0.92.3 (2405546, 2018-03-11)"
   sodipodi:docname="ijp.svg">
  <defs
     id="defs2">
    <style
       id="style4456"
       type="text/css">
   <![CDATA[
    .fil1 {fill:none}
    .fil3 {fill:#397F48}
    .fil0 {fill:#397F48}
    .fil2 {fill:#397F48;fill-rule:nonzero}
   ]]>
  </style>
    <style
       id="style5948"
       type="text/css">
   <![CDATA[
    .str1 {stroke:#201E1E;stroke-width:3}
    .str0 {stroke:#373435;stroke-width:19.685;stroke-linecap:round;stroke-linejoin:round}
    .fil3 {fill:#FEFEFE}
    .fil2 {fill:#201E1E}
    .fil1 {fill:#201E1E;fill-rule:nonzero}
    .fil0 {fill:#FFF500;fill-rule:nonzero}
   ]]>
  </style>
    <style
       id="style5997"
       type="text/css">
   <![CDATA[
    .str1 {stroke:#201E1E;stroke-width:3}
    .str0 {stroke:#373435;stroke-width:19.685;stroke-linecap:round;stroke-linejoin:round}
    .fil3 {fill:#FEFEFE}
    .fil2 {fill:#201E1E}
    .fil1 {fill:#201E1E;fill-rule:nonzero}
    .fil0 {fill:#FFF500;fill-rule:nonzero}
   ]]>
  </style>
  </defs>
  <sodipodi:namedview
     id="base"
     pagecolor="#ffffff"
     bordercolor="#666666"
     borderopacity="1.0"
     inkscape:pageopacity="0.0"
     inkscape:pageshadow="2"
     inkscape:zoom="0.35"
     inkscape:cx="110.96519"
     inkscape:cy="131.89513"
     inkscape:document-units="mm"
     inkscape:current-layer="layer1"
     showgrid="false"
     inkscape:window-width="1366"
     inkscape:window-height="715"
     inkscape:window-x="-8"
     inkscape:window-y="-8"
     inkscape:window-maximized="1"
     units="mm"
     height="296mm"
     scale-x="1"
     fit-margin-top="0"
     fit-margin-left="0"
     fit-margin-right="0"
     fit-margin-bottom="0" />
  <metadata
     id="metadata5">
    <rdf:RDF>
      <cc:Work
         rdf:about="">
        <dc:format>image/svg+xml</dc:format>
        <dc:type
           rdf:resource="http://purl.org/dc/dcmitype/StillImage" />
        <dc:title></dc:title>
      </cc:Work>
    </rdf:RDF>
  </metadata>
  <g
     inkscape:label="Layer 1"
     inkscape:groupmode="layer"
     id="layer1"
     transform="translate(-45.10177,-108.29385)">
    <g
       style="clip-rule:evenodd;fill-rule:evenodd;image-rendering:optimizeQuality;shape-rendering:geometricPrecision;text-rendering:geometricPrecision"
       id="g6044"
       transform="matrix(0.0253996,0,0,0.0253996,-88.017534,83.757841)">
      <g
         id="Layer_x0020_1">
  <metadata
   id="CorelCorpID_0Corel-Layer" />

  <g
   id="_2800767576896-3">
   <path
   id="path6002"
   d="m 7014,1617 c 84,0 168,9 253,9 156,0 349,-33 506,41 68,32 130,84 178,151 41,78 74,161 99,248 5,33 8,67 8,102 0,200 -72,431 -187,527 -106,89 -163,54 -319,43 l -1,524 c 0,80 12,132 33,151 17,15 50,24 101,28 -28,28 -58,54 -89,80 -21,-1 -39,-2 -55,-2 -80,-2 -236,-2 -316,0 -46,1 -117,4 -211,8 v -84 c 78,0 128,-10 148,-31 21,-20 31,-70 31,-150 V 1884 c 0,-80 -10,-130 -31,-149 -20,-20 -70,-30 -148,-32 z m 535,1037 c 220,0 222,-241 222,-466 0,-223 7,-491 -222,-482 z"
   class="fil0 str0"
   inkscape:connector-curvature="0"
   style="fill:#fff500;fill-rule:nonzero;stroke:#373435;stroke-width:19.68499947;stroke-linecap:round;stroke-linejoin:round" />

   <path
   id="path6004"
   d="m 6453,1115 c 9,0 23,0 40,1 153,8 261,12 322,12 36,0 106,-3 212,-8 40,-3 72,-4 94,-5 v 86 c -73,2 -63,12 -83,32 -20,20 -30,71 -30,149 v 1881 c 0,179 -37,316 -108,405 -70,88 -236,134 -379,134 -326,0 -339,-279 -339,-549 0,-48 13,-293 36,-319 23,-26 44,-140 149,-134 106,6 144,107 165,132 22,24 35,265 35,306 0,39 15,321 -102,473 85,25 100,-25 116,-49 28,-44 44,-127 44,-248 0,-20 -1,-53 -2,-100 -2,-47 -3,-84 -3,-111 V 1382 c 0,-84 -12,-135 -36,-153 -24,-19 -30,-28 -131,-28 z"
   class="fil0 str0"
   inkscape:connector-curvature="0"
   style="fill:#fff500;fill-rule:nonzero;stroke:#373435;stroke-width:19.68499947;stroke-linecap:round;stroke-linejoin:round" />

   <path
   id="path6006"
   d="m 5616,1634 30,2 c 107,5 179,8 214,8 47,0 134,-3 259,-9 31,-2 55,-3 71,-4 l 1,87 c -81,0 -90,10 -112,30 -21,20 -32,71 -32,151 v 1363 c 0,83 11,134 32,153 22,19 31,28 112,28 v 84 c -90,-4 -159,-7 -205,-8 -45,-1 -82,-2 -110,-2 -7,0 -15,0 -24,0 -35,-29 -69,-59 -101,-91 -24,-24 -47,-49 -69,-75 4,-23 6,-53 6,-89 V 1899 c 0,-82 -10,-133 -31,-152 -20,-18 -29,-28 -98,-29 18,-29 37,-57 57,-84 z"
   class="fil0 str0"
   inkscape:connector-curvature="0"
   style="fill:#fff500;fill-rule:nonzero;stroke:#373435;stroke-width:19.68499947;stroke-linecap:round;stroke-linejoin:round" />

   <path
   id="path6008"
   d="m 6726,966 c 410,0 782,166 1050,435 269,269 435,640 435,1050 0,410 -166,782 -435,1050 -268,269 -640,435 -1050,435 -410,0 -781,-166 -1050,-435 -269,-268 -435,-640 -435,-1050 0,-410 166,-781 435,-1050 269,-269 640,-435 1050,-435 z m 975,510 c -250,-249 -594,-403 -975,-403 -380,0 -725,154 -975,403 -249,250 -403,594 -403,975 0,381 154,725 403,975 250,249 595,404 975,404 381,0 725,-155 975,-404 249,-250 404,-594 404,-975 0,-381 -155,-725 -404,-975 z"
   class="fil1"
   inkscape:connector-curvature="0"
   style="fill:#201e1e;fill-rule:nonzero" />

   <path
   id="path6010"
   d="m 6060,1973 c 663,-1046 2557,-136 1285,804 -409,302 -700,158 -792,256 -134,140 320,284 324,125 2,-117 -80,-132 24,-132 160,0 193,381 -232,341 -152,-14 -350,-173 -290,-319 21,-52 113,-187 302,-197 397,-21 908,-350 927,-676 23,-391 -672,-697 -1100,-427 -41,26 37,264 -148,115 -32,-25 -123,6 -162,59 -31,41 -81,74 -138,51 z"
   class="fil2"
   inkscape:connector-curvature="0"
   style="fill:#201e1e" />

   <path
   id="path6012"
   d="m 6215,1804 c 41,18 68,-3 100,-19 71,-36 14,-70 216,-54 0,1 -27,21 -31,23 -39,25 35,240 -143,101 -36,-28 -115,23 -124,26 18,-21 -21,-74 -18,-77 z"
   class="fil3"
   inkscape:connector-curvature="0"
   style="fill:#fefefe" />

   <path
   id="path6014"
   d="m 6218,1798 c 32,14 56,1 81,-12 5,-2 9,-5 14,-7 19,-10 29,-20 37,-28 22,-23 36,-38 182,-26 3,0 6,3 5,6 0,3 -1,5 -3,6 -3,2 -6,4 -9,7 -8,6 -20,14 -22,15 -9,6 -10,31 -11,58 -2,29 -3,60 -17,77 -17,22 -51,21 -121,-34 -28,-21 -87,10 -110,22 -4,2 -7,4 -9,5 -3,1 -7,-1 -8,-4 -1,-2 0,-5 2,-6 9,-12 -5,-40 -14,-57 -5,-10 -8,-17 -4,-21 2,-2 5,-2 7,-1 z m 87,-1 c -24,13 -48,26 -79,17 v 1 c 8,14 19,36 18,53 27,-14 86,-42 117,-18 64,50 92,53 105,37 11,-15 12,-44 13,-71 1,-30 3,-58 18,-67 1,-1 10,-7 18,-13 -125,-9 -137,4 -156,23 -9,10 -19,20 -41,31 -4,2 -9,5 -13,7 z"
   class="fil1"
   inkscape:connector-curvature="0"
   style="fill:#201e1e;fill-rule:nonzero" />

   <path
   id="path6016"
   d="m 6376,2955 c 4,0 -53,87 -62,131 -158,33 -286,150 -390,264 8,-206 318,-395 452,-395 z"
   class="fil2"
   inkscape:connector-curvature="0"
   style="fill:#201e1e" />

   <path
   id="path6018"
   d="m 7505,2225 -1749,-1 c 148,400 878,587 878,588 v 107 c 0,27 367,-4 369,-46 l 5,-123 c 3,-82 430,-249 497,-525 z"
   class="fil2"
   inkscape:connector-curvature="0"
   style="fill:#201e1e" />

   <path
   id="path6020"
   d="m 6374,1867 c -17,-12 -120,194 -326,210 -16,1 78,19 198,-50 19,-11 -6,119 2,81 13,-53 129,-239 126,-241 z"
   class="fil2 str1"
   inkscape:connector-curvature="0"
   style="fill:#201e1e;stroke:#201e1e;stroke-width:3" />

  </g>

 </g>
    </g>
  </g>
  <g
     inkscape:groupmode="layer"
     id="layer2"
     inkscape:label="Layer 2"
     transform="translate(-45.10177,-108.29385)" />
</svg>
