<?xml version="1.0" encoding="utf-8"?>
<!-- Generator: Adobe Illustrator 22.1.0, SVG Export Plug-In . SVG Version: 6.00 Build 0)  -->
<svg version="1.1" id="Layer_1" xmlns="http://www.w3.org/2000/svg" xmlns:xlink="http://www.w3.org/1999/xlink" x="0px" y="0px"
	 viewBox="0 0 668.7 188.2" style="enable-background:new 0 0 668.7 188.2;" xml:space="preserve">
<style type="text/css">
	.st0{fill:#004D40;}
	.st1{fill:#E65100;}
	.st2{fill:#FF9800;}
	.st3{fill:#009688;}
</style>
<g id="Layer_x0020_1">
	<path d="M556.8,155.5v-5.4c0-1.7,0.1-3,0.4-4c0.3-1,0.7-1.8,1.2-2.5c0.6-0.7,1.3-1.2,2.1-1.7c0.9-0.5,2.3-0.9,4.3-1.5l7.2-2
		c1.1-0.3,2-0.6,2.8-1c0.7-0.4,1.2-0.7,1.5-1.2c0.2-0.3,0.3-0.7,0.4-1.2s0.1-1.5,0.1-3c0-1.6-0.1-2.6-0.3-3.3
		c-0.2-0.6-0.5-1.1-1-1.5c-0.4-0.3-1.3-0.6-2.6-0.7s-3.1-0.2-5.4-0.2c-3.1,0-5,0.3-5.9,1c-0.8,0.7-1.2,2.1-1.2,4.3v1.9h-3.7v-2.1
		c0-3.2,0.8-5.4,2.3-6.6c1.5-1.2,4.5-1.8,8.8-1.8c2.5,0,4.4,0.1,5.6,0.2s2.2,0.3,2.8,0.6c1.6,0.7,2.6,1.6,3.2,2.7
		c0.6,1.1,0.9,3,0.9,5.8c0,3-0.5,5.1-1.3,6.3s-2.6,2.2-5.1,2.9l-9,2.5c-1.9,0.5-3.1,1.1-3.7,1.8c-0.5,0.6-0.8,1.6-0.8,2.8v3.5h19.9
		v3.3H556.8z"/>
	<path id="_x31_" d="M596.9,152.6h2.8c1.7,0,2.9-0.1,3.7-0.3c0.8-0.2,1.4-0.6,1.9-1.1c0.5-0.5,0.9-1.2,1-2c0.2-0.8,0.3-2.2,0.3-4.3
		v-0.5v-10.2c0-2-0.1-3.5-0.3-4.3c-0.2-0.8-0.5-1.4-1-2c-0.5-0.5-1.2-0.9-2-1.2c-0.8-0.2-2-0.3-3.6-0.3h-2.8c-1.7,0-2.9,0.1-3.7,0.3
		c-0.8,0.2-1.4,0.6-1.9,1.1c-0.5,0.5-0.9,1.2-1.1,2c-0.2,0.8-0.3,2.2-0.3,4.3v0.5v10.2c0,2.1,0.1,3.5,0.3,4.3c0.2,0.8,0.6,1.5,1.1,2
		c0.5,0.5,1.1,0.9,1.9,1.1C593.9,152.5,595.2,152.6,596.9,152.6z M596.7,155.9c-3.9,0-6.6-0.8-8.2-2.4c-1.6-1.6-2.3-4.5-2.3-8.6V134
		c0-4.1,0.8-7,2.3-8.6c1.5-1.6,4.3-2.4,8.2-2.4h3.1c3.9,0,6.6,0.8,8.2,2.4c1.6,1.6,2.3,4.5,2.3,8.6v10.9c0,4.1-0.8,7-2.3,8.6
		c-1.5,1.6-4.3,2.4-8.2,2.4H596.7z"/>
	<polygon id="_x32_" points="628.9,155.5 628.9,126.6 621.4,134.2 619.2,132.1 627.8,123.5 632.4,123.5 632.4,155.5 	"/>
	<path id="_x33_" d="M649,131.1v4.6c0,1.7,0.5,2.9,1.4,3.4c0.9,0.6,3.2,0.9,6.9,0.9c2.2,0,3.8-0.1,4.9-0.3c1.1-0.2,1.9-0.6,2.4-1.2
		c0.3-0.3,0.6-0.9,0.7-1.6c0.2-0.7,0.2-1.8,0.2-3.3c0-1.4-0.1-2.5-0.2-3.3c-0.1-0.8-0.3-1.3-0.5-1.6c-0.6-0.8-1.4-1.4-2.5-1.7
		c-1.1-0.3-3.1-0.5-6.1-0.5c-3,0-5,0.3-5.9,0.9C649.5,128,649,129.2,649,131.1z M669,132.4v14.8c0,3.2-0.7,5.4-2.1,6.8
		c-1.4,1.3-3.9,2-7.3,2h-5c-3.3,0-5.6-0.5-7-1.6c-1.4-1.1-2.1-2.9-2.1-5.4v-1.7h3.6v1c0,1.7,0.5,2.9,1.4,3.5c0.9,0.6,3,0.9,6.3,0.9
		c2.2,0,3.9-0.1,4.9-0.2c1-0.1,1.8-0.4,2.3-0.7c0.5-0.3,0.9-0.9,1.3-1.6c0.3-0.8,0.5-1.6,0.5-2.5v-7.7c-0.6,1.2-1.5,2-2.8,2.5
		c-1.3,0.5-3.4,0.7-6.3,0.7c-4,0-6.9-0.5-8.5-1.5s-2.5-2.6-2.5-5v-5.9c0-1.5,0.2-2.8,0.7-3.9c0.4-1,1.1-1.9,2-2.4
		c0.8-0.5,1.9-0.9,3.1-1.1s3.4-0.3,6.6-0.3c4.2,0,7.1,0.7,8.8,2.1C668.2,126.5,669,129,669,132.4z"/>
	<g id="_2777238904016">
		<polygon class="st0" points="2.6,158.3 14.9,145.9 14.6,170.1 		"/>
		<polygon class="st1" points="35.7,133.7 48,121.3 58.1,131.2 45.9,143.7 		"/>
		<polygon class="st1" points="5,102.9 17.3,90.5 27.4,100.5 15.2,112.9 		"/>
		<polygon class="st0" points="35,81 47.3,68.6 57.4,78.6 45.2,91 		"/>
		<polygon class="st0" points="4.4,50.4 8,29.4 26.8,47.9 14.5,60.4 		"/>
		<path class="st2" d="M11.9,71c10.6-10.8,29.5-29.1,47.8-47.8c4.2,4.1,3.4,21.3-6.7,31.7C42.5,65.6,23.4,84.3,5,102.9
			C0.8,98.9,1.8,81.4,11.9,71z"/>
		<path class="st3" d="M9.6,126.4C20.2,115.6,39,97.2,57.4,78.6c4.2,4.1,3.4,21.3-6.7,31.7C40.1,121,21,139.6,2.6,158.3
			C-1.5,154.2-0.5,136.8,9.6,126.4z"/>
		<path class="st2" d="M33,156.5c10.6-10.8,6.8-6.6,25.2-25.2c4.1,4.1,3.4,21.3-6.7,31.7c-10.6,10.7-7.1,6.8-25.5,25.5
			C21.9,184.4,22.8,166.9,33,156.5z"/>
		<path class="st3" d="M112.4,95.7c5.1,3.5,9.3,7.9,12.7,13.5c3.4,5.6,5,12.3,5,20.2c0,8.2-1.8,15.2-5.3,21.2
			c-3.5,6-8.1,10.9-13.8,14.7c-11.6,8-26.1,11.6-40.1,11.5c-6.7,0-24-7.3-9.1-9.8c26.6,0,37.7-17,37.7-42c0-10.3-3.4-18.8-10.4-25.4
			c-8.8-8.4-20.1-12.8-20.4-15.4c-0.8-7,9-9.3,13.8-15c6.7-7.8,8.1-16.5,8.1-26.5c0-9.6-2.6-17.2-7.9-22.6C53-3,6.8,24.6,4.4,50.4
			C-3.9,34.1,10.3,8.3,42.5,2c31-6.1,63.9,5.5,73.3,20.4c3.1,5,4.7,10.9,4.7,18c0,11.4-3.9,21.4-12.7,28.8c-8,7-18.5,11.4-28.8,13.6
			v1.1c5,0.5,10.6,1.8,16.8,3.7C102.1,89.6,107.6,92.3,112.4,95.7z"/>
	</g>
	<path d="M182.2,118.3v26.2h16.1c5.9,0,10.2-1,12.9-3.1c2.7-2.1,4.1-5.3,4.1-9.8c0-4.6-1.5-8-4.6-10.1c-3-2.2-7.8-3.3-14.3-3.3
		H182.2z M170.1,155.6V71.1h24.8c8.4,0,14.9,1.9,19.5,5.7c4.6,3.8,6.9,9.3,6.9,16.3c0,4.3-1,8-3.1,10.9c-2.1,2.9-5.2,5.1-9.4,6.7
		c6.2,1.4,10.9,4.1,14.3,7.9c3.4,3.8,5,8.5,5,13.9c0,7-2.6,12.6-7.7,16.8s-12.1,6.2-20.9,6.2H170.1z M182.2,107.3h8.2
		c6.2,0,10.7-1.1,13.7-3.3c3-2.2,4.5-5.6,4.5-10.1c0-4.1-1.2-7.2-3.5-9.1c-2.4-1.9-6.1-2.8-11.3-2.8h-11.5V107.3z"/>
	<path id="_x31__1_" d="M239.5,83.3c0-1.8,0.6-3.3,1.8-4.5c1.2-1.2,2.7-1.8,4.5-1.8c1.8,0,3.3,0.6,4.5,1.8c1.2,1.2,1.8,2.7,1.8,4.5
		s-0.6,3.3-1.8,4.5c-1.2,1.2-2.7,1.8-4.5,1.8c-1.8,0-3.3-0.6-4.5-1.8S239.5,85.1,239.5,83.3z M240.2,155.6V99.8h11.1v55.8H240.2z"/>
	<path id="_x32__1_" d="M274,127.6c0,5.2,1.8,9.6,5.2,13.3c3.5,3.7,7.7,5.5,12.7,5.5c4.9,0,9.1-1.8,12.7-5.5
		c3.5-3.7,5.3-8.1,5.3-13.3c0-5.1-1.8-9.5-5.3-13.2c-3.5-3.7-7.7-5.5-12.7-5.5c-5,0-9.2,1.8-12.7,5.5
		C275.8,118.1,274,122.5,274,127.6z M262.3,127.6c0-8.1,2.9-15,8.6-20.6c5.8-5.6,12.8-8.4,21.1-8.4c3.9,0,7.7,0.7,11.2,2.2
		c3.6,1.4,6.7,3.6,9.6,6.3c2.9,2.9,5,6.1,6.5,9.6c1.5,3.5,2.2,7.1,2.2,11c0,3.8-0.8,7.5-2.3,11.2c-1.6,3.6-3.7,6.8-6.5,9.5
		c-2.8,2.7-6,4.8-9.5,6.3c-3.5,1.4-7.3,2.1-11.3,2.1c-8.3,0-15.3-2.8-21.1-8.5S262.3,135.7,262.3,127.6z"/>
	<polygon id="_x33__1_" points="334.1,155.6 334.1,71.1 344.7,71.1 375.1,106.6 405.6,71.1 416.1,71.1 416.1,155.6 404.3,155.6 
		404.3,89.6 375.1,123.7 345.9,89.6 345.9,155.6 	"/>
	<polygon id="_x34_" points="434.5,155.6 434.5,71.1 446.7,71.1 446.7,155.6 	"/>
	<path id="_x35_" d="M537.1,135.5v13.6c-4.9,2.6-10,4.5-15.1,5.9c-5.1,1.3-10.2,2-15.3,2c-4.8,0-9.5-0.7-13.9-1.9
		c-4.4-1.3-8.5-3.1-12.4-5.6c-6.3-4.1-11.2-9.4-14.7-15.8c-3.5-6.4-5.2-13.3-5.2-20.8c0-5.7,1.2-11.2,3.5-16.5
		c2.3-5.3,5.6-10,9.8-14c4.5-4.3,9.6-7.5,15.2-9.6c5.6-2.1,11.8-3.2,18.6-3.2c4.8,0,9.5,0.5,14.1,1.6c4.7,1.1,9.6,2.8,14.7,5.2v13.2
		c-5.4-2.9-10.4-5.1-15.1-6.5c-4.7-1.4-9.3-2.1-13.7-2.1c-9.9,0-18,3.1-24.5,9.2c-6.4,6.1-9.7,13.8-9.7,23.1
		c0,9.2,3.2,16.8,9.5,22.9c6.3,6.1,14.3,9.2,23.9,9.2c4.9,0,9.9-0.8,14.9-2.5C526.8,141.4,531.9,138.9,537.1,135.5z"/>
	<g id="_2777238902928">
		<path d="M188.4,32.5v15.3c0,4.8-3.2,7.7-9.1,7.7c-5.9,0-9.1-2.9-9.1-7.7V32.5c0-0.5,0.4-0.7,1.4-0.7h0.3c0.9,0,1.3,0.3,1.3,0.7
			v15.4c0,2.9,2.6,5,6.2,5c3.6,0,6.2-2.1,6.2-5V32.5c0-0.5,0.4-0.7,1.3-0.7h0.3C188,31.8,188.4,32.1,188.4,32.5z"/>
		<path d="M233,33.7c0,0.6-0.7,1.9-1.1,1.9c-0.4,0-2-1.5-5.2-1.5c-5.9,0-7.9,3.5-7.9,9.3c0,5.1,1.5,9.5,7.5,9.5
			c1.7,0,3.4-0.2,4.3-0.5v-6.7h-3.9c-0.5,0-0.7-0.3-0.7-1v-0.5c0-0.7,0.2-1,0.7-1h5.8c0.7,0,1,0.3,1,1V53c0,1.9-3.6,2.4-7.4,2.4
			c-6.7,0-10.3-3.7-10.3-11.7c0-8.3,3.8-12.1,10.8-12.1C229.9,31.7,233,32.8,233,33.7z"/>
		<path d="M284.3,32.5v22.1c0,0.5-0.4,0.7-1.3,0.7h-0.2c-0.9,0-1.3-0.3-1.3-0.7v-18l-0.1,0.1l-6.7,11.6l-0.7,0.4h-1.3l-0.7-0.4
			l-6.7-11.8l-0.1-0.1v18.2c0,0.5-0.4,0.7-1.4,0.7h-0.2c-0.9,0-1.3-0.3-1.3-0.7V32.5c0-0.5,0.4-0.7,1.3-0.7h1.2
			c0.8,0,1.2,0.3,1.4,0.6l6.3,10.9l0.9,2.1l0.9-1.9l6.3-11.1c0.2-0.4,0.6-0.6,1.4-0.6h1.1C283.9,31.8,284.3,32.1,284.3,32.5z"/>
	</g>
</g>
</svg>
