<?xml version="1.0" encoding="UTF-8" standalone="no"?>
<!-- Creator: CorelDRAW X7 -->

<svg
   xmlns:dc="http://purl.org/dc/elements/1.1/"
   xmlns:cc="http://creativecommons.org/ns#"
   xmlns:rdf="http://www.w3.org/1999/02/22-rdf-syntax-ns#"
   xmlns:svg="http://www.w3.org/2000/svg"
   xmlns="http://www.w3.org/2000/svg"
   xmlns:sodipodi="http://sodipodi.sourceforge.net/DTD/sodipodi-0.dtd"
   xmlns:inkscape="http://www.inkscape.org/namespaces/inkscape"
   xml:space="preserve"
   width="167.457"
   height="242.717"
   version="1.1"
   style="clip-rule:evenodd;fill-rule:evenodd;image-rendering:optimizeQuality;shape-rendering:geometricPrecision;text-rendering:geometricPrecision"
   viewBox="0 0 1744.3588 2528.3875"
   id="svg27"
   sodipodi:docname="logo (no-text).svg"
   inkscape:version="0.92.2 (5c3e80d, 2017-08-06)"><metadata
     id="metadata31"><rdf:RDF><cc:Work
         rdf:about=""><dc:format>image/svg+xml</dc:format><dc:type
           rdf:resource="http://purl.org/dc/dcmitype/StillImage" /><dc:title></dc:title></cc:Work></rdf:RDF></metadata><sodipodi:namedview
     pagecolor="#ffffff"
     bordercolor="#666666"
     borderopacity="1"
     objecttolerance="10"
     gridtolerance="10"
     guidetolerance="10"
     inkscape:pageopacity="0"
     inkscape:pageshadow="2"
     inkscape:window-width="1600"
     inkscape:window-height="847"
     id="namedview29"
     showgrid="false"
     units="px"
     inkscape:zoom="0.25300254"
     inkscape:cx="561.25919"
     inkscape:cy="713.05293"
     inkscape:window-x="-8"
     inkscape:window-y="-8"
     inkscape:window-maximized="1"
     inkscape:current-layer="svg27" /><defs
     id="defs4"><style
       type="text/css"
       id="style2"><![CDATA[
    .fil0 {fill:#004D40}
    .fil3 {fill:#009688}
    .fil1 {fill:#E65100}
    .fil2 {fill:#FF9800}
    .fil4 {fill:#009688;fill-rule:nonzero}
   ]]></style></defs><g
     id="Layer_x0020_1"
     transform="matrix(0.99999832,0,0,1,-1607.6136,-2785.6122)"><metadata
       id="CorelCorpID_0Corel-Layer" /><g
       id="_1633319956736"><polygon
         class="fil0"
         points="1799,5067 1638,4909 1803,4742 "
         id="polygon7"
         style="fill:#004d40" /><polygon
         class="fil1"
         points="2083,4578 2248,4411 2384,4545 2219,4712 "
         id="polygon9"
         style="fill:#e65100" /><polygon
         class="fil1"
         points="1670,4165 1835,3998 1972,4132 1807,4299 "
         id="polygon11"
         style="fill:#e65100" /><polygon
         class="fil0"
         points="2073,3870 2238,3703 2375,3837 2210,4005 "
         id="polygon13"
         style="fill:#004d40" /><polygon
         class="fil0"
         points="1662,3459 1711,3176 1964,3426 1799,3593 "
         id="polygon15"
         style="fill:#004d40" /><path
         class="fil2"
         d="m 1764,3736 c 142,-145 395,-392 642,-643 56,55 46,286 -90,426 -142,145 -399,395 -646,646 -56,-55 -43,-289 94,-429 z"
         id="path17"
         inkscape:connector-curvature="0"
         style="fill:#ff9800" /><path
         class="fil3"
         d="m 1732,4480 c 142,-145 396,-392 643,-643 55,55 46,287 -90,427 -143,144 -400,394 -647,645 -55,-55 -42,-289 94,-429 z"
         id="path19"
         inkscape:connector-curvature="0"
         style="fill:#009688" /><path
         class="fil2"
         d="m 2046,4885 c 142,-145 92,-88 339,-339 56,55 46,286 -90,426 -142,145 -95,91 -342,342 -56,-55 -43,-289 93,-429 z"
         id="path21"
         inkscape:connector-curvature="0"
         style="fill:#ff9800" /><path
         class="fil4"
         d="m 3114,4068 c 69,46 126,106 171,181 45,75 67,166 67,272 0,110 -23,204 -71,285 -47,80 -109,146 -185,198 -156,107 -351,155 -539,155 -90,0 -322,-98 -122,-132 358,0 508,-227 508,-565 0,-138 -47,-252 -140,-341 -118,-113 -270,-172 -274,-207 -10,-94 121,-125 186,-201 90,-105 109,-223 109,-357 0,-129 -35,-231 -105,-304 -404,-311 -1025,61 -1056,406 -112,-218 78,-564 512,-650 416,-82 858,73 986,274 42,67 63,147 63,242 0,153 -53,287 -171,387 -107,95 -248,153 -387,183 v 15 c 67,7 142,24 226,50 83,26 157,62 222,109 z"
         id="path23"
         inkscape:connector-curvature="0"
         style="fill:#009688;fill-rule:nonzero" /></g></g></svg>