<?xml version="1.0" encoding="UTF-8" standalone="no"?>
<!-- Creator: CorelDRAW X7 -->

<svg
   xmlns:dc="http://purl.org/dc/elements/1.1/"
   xmlns:cc="http://creativecommons.org/ns#"
   xmlns:rdf="http://www.w3.org/1999/02/22-rdf-syntax-ns#"
   xmlns:svg="http://www.w3.org/2000/svg"
   xmlns="http://www.w3.org/2000/svg"
   xmlns:sodipodi="http://sodipodi.sourceforge.net/DTD/sodipodi-0.dtd"
   xmlns:inkscape="http://www.inkscape.org/namespaces/inkscape"
   xml:space="preserve"
   width="853.92999"
   height="242.717"
   version="1.1"
   style="clip-rule:evenodd;fill-rule:evenodd;image-rendering:optimizeQuality;shape-rendering:geometricPrecision;text-rendering:geometricPrecision"
   viewBox="0 0 8895.1809 2528.3875"
   id="svg60"
   sodipodi:docname="logo.svg"
   inkscape:version="0.92.2 (5c3e80d, 2017-08-06)"><metadata
     id="metadata64"><rdf:RDF><cc:Work
         rdf:about=""><dc:format>image/svg+xml</dc:format><dc:type
           rdf:resource="http://purl.org/dc/dcmitype/StillImage" /><dc:title></dc:title></cc:Work></rdf:RDF></metadata><sodipodi:namedview
     pagecolor="#ffffff"
     bordercolor="#666666"
     borderopacity="1"
     objecttolerance="10"
     gridtolerance="10"
     guidetolerance="10"
     inkscape:pageopacity="0"
     inkscape:pageshadow="2"
     inkscape:window-width="1600"
     inkscape:window-height="847"
     id="namedview62"
     showgrid="false"
     units="px"
     inkscape:zoom="0.25300254"
     inkscape:cx="561.25919"
     inkscape:cy="554.95175"
     inkscape:window-x="-8"
     inkscape:window-y="-8"
     inkscape:window-maximized="1"
     inkscape:current-layer="svg60" /><defs
     id="defs4"><style
       type="text/css"
       id="style2"><![CDATA[
    .str0 {stroke:#373435;stroke-width:39.3701}
    .fil6 {fill:none;fill-rule:nonzero}
    .fil0 {fill:#004D40}
    .fil3 {fill:#009688}
    .fil1 {fill:#E65100}
    .fil2 {fill:#FF9800}
    .fil5 {fill:#373435;fill-rule:nonzero}
    .fil7 {fill:#201E1E;fill-rule:nonzero}
    .fil4 {fill:#009688;fill-rule:nonzero}
   ]]></style></defs><g
     id="Layer_x0020_1"
     transform="translate(-1607.7067,-2785.6122)"><metadata
       id="CorelCorpID_0Corel-Layer" /><g
       id="_1633313641152"><g
         id="g25"><polygon
           class="fil0"
           points="1799,5067 1638,4909 1803,4742 "
           id="polygon7"
           style="fill:#004d40" /><polygon
           class="fil1"
           points="2083,4578 2248,4411 2384,4545 2219,4712 "
           id="polygon9"
           style="fill:#e65100" /><polygon
           class="fil1"
           points="1670,4165 1835,3998 1972,4132 1807,4299 "
           id="polygon11"
           style="fill:#e65100" /><polygon
           class="fil0"
           points="2073,3870 2238,3703 2375,3837 2210,4005 "
           id="polygon13"
           style="fill:#004d40" /><polygon
           class="fil0"
           points="1662,3459 1711,3176 1964,3426 1799,3593 "
           id="polygon15"
           style="fill:#004d40" /><path
           class="fil2"
           d="m 1764,3736 c 142,-145 395,-392 642,-643 56,55 46,286 -90,426 -142,145 -399,395 -646,646 -56,-55 -43,-289 94,-429 z"
           id="path17"
           inkscape:connector-curvature="0"
           style="fill:#ff9800" /><path
           class="fil3"
           d="m 1732,4480 c 142,-145 396,-392 643,-643 55,55 46,287 -90,427 -143,144 -400,394 -647,645 -55,-55 -42,-289 94,-429 z"
           id="path19"
           inkscape:connector-curvature="0"
           style="fill:#009688" /><path
           class="fil2"
           d="m 2046,4885 c 142,-145 92,-88 339,-339 56,55 46,286 -90,426 -142,145 -95,91 -342,342 -56,-55 -43,-289 93,-429 z"
           id="path21"
           inkscape:connector-curvature="0"
           style="fill:#ff9800" /><path
           class="fil4"
           d="m 3114,4068 c 69,46 126,106 171,181 45,75 67,166 67,272 0,110 -23,204 -71,285 -47,80 -109,146 -185,198 -156,107 -351,155 -539,155 -90,0 -322,-98 -122,-132 358,0 508,-227 508,-565 0,-138 -47,-252 -140,-341 -118,-113 -270,-172 -274,-207 -10,-94 121,-125 186,-201 90,-105 109,-223 109,-357 0,-129 -35,-231 -105,-304 -404,-311 -1025,61 -1056,406 -112,-218 78,-564 512,-650 416,-82 858,73 986,274 42,67 63,147 63,242 0,153 -53,287 -171,387 -107,95 -248,153 -387,183 v 15 c 67,7 142,24 226,50 83,26 157,62 222,109 z"
           id="path23"
           inkscape:connector-curvature="0"
           style="fill:#009688;fill-rule:nonzero" /></g><path
         class="fil5"
         d="m 4072,4372 v 353 h 216 c 79,0 137,-14 173,-42 37,-28 55,-72 55,-131 0,-62 -21,-108 -61,-136 -41,-29 -105,-44 -193,-44 z m -161,501 V 3737 h 332 c 114,0 201,26 262,77 62,51 92,124 92,219 0,59 -13,107 -41,146 -28,39 -70,69 -126,90 82,20 146,55 191,107 46,51 68,114 68,187 0,95 -34,170 -103,226 -69,56 -163,84 -281,84 z m 161,-649 h 110 c 83,0 144,-15 184,-45 40,-29 60,-75 60,-136 0,-56 -16,-96 -47,-122 -32,-25 -83,-38 -152,-38 h -155 z"
         id="path27"
         inkscape:connector-curvature="0"
         style="fill:#373435;fill-rule:nonzero" /><path
         id="1"
         class="fil5"
         d="m 4842,3901 c 0,-23 8,-44 25,-60 16,-16 36,-24 60,-24 24,0 44,8 60,24 17,16 25,37 25,60 0,24 -8,45 -25,61 -16,16 -36,24 -60,24 -24,0 -44,-8 -60,-24 -17,-16 -25,-37 -25,-61 z m 10,972 v -750 h 150 v 750 z"
         inkscape:connector-curvature="0"
         style="fill:#373435;fill-rule:nonzero" /><path
         id="2"
         class="fil5"
         d="m 5306,4497 c 0,70 24,129 71,179 47,49 104,74 170,74 66,0 123,-25 171,-75 47,-49 71,-109 71,-178 0,-69 -24,-128 -71,-177 -47,-50 -104,-74 -171,-74 -66,0 -123,24 -170,74 -47,49 -71,108 -71,177 z m -156,0 c 0,-109 39,-201 116,-277 77,-76 172,-114 283,-114 53,0 103,10 151,30 48,19 91,48 129,84 38,40 67,82 88,129 20,47 30,96 30,148 0,51 -11,101 -31,150 -21,49 -50,92 -87,128 -38,37 -81,65 -128,84 -47,19 -98,29 -152,29 -111,0 -206,-38 -283,-114 -77,-76 -116,-168 -116,-277 z"
         inkscape:connector-curvature="0"
         style="fill:#373435;fill-rule:nonzero" /><polygon
         id="3"
         class="fil5"
         points="7058,3986 6665,4444 6273,3986 6273,4873 6115,4873 6115,3737 6256,3737 6665,4214 7074,3737 7216,3737 7216,4873 7058,4873 "
         style="fill:#373435;fill-rule:nonzero" /><polygon
         id="4"
         class="fil5"
         points="7464,4873 7464,3737 7627,3737 7627,4873 "
         style="fill:#373435;fill-rule:nonzero" /><path
         id="5"
         class="fil5"
         d="m 8843,4603 v 184 c -67,34 -135,60 -204,78 -69,19 -137,28 -205,28 -65,0 -127,-9 -186,-26 -59,-17 -115,-42 -168,-76 -84,-55 -150,-126 -196,-211 -47,-86 -71,-179 -71,-280 0,-76 16,-150 46,-222 31,-72 75,-135 132,-188 61,-58 129,-101 204,-129 75,-28 159,-43 250,-43 64,0 127,8 190,22 63,15 129,38 198,70 v 176 c -72,-39 -140,-68 -204,-86 -63,-19 -124,-28 -184,-28 -133,0 -242,41 -329,123 -87,83 -130,186 -130,311 0,123 43,225 128,308 86,83 193,124 321,124 67,0 133,-11 201,-33 68,-22 137,-56 207,-102 z"
         inkscape:connector-curvature="0"
         style="fill:#373435;fill-rule:nonzero" /><path
         id="6"
         class="fil6 str0"
         d="m 4072,4372 v 353 h 216 c 79,0 137,-14 173,-42 37,-28 55,-72 55,-131 0,-62 -21,-108 -61,-136 -41,-29 -105,-44 -193,-44 z m -161,501 V 3737 h 332 c 114,0 201,26 262,77 62,51 92,124 92,219 0,59 -13,107 -41,146 -28,39 -70,69 -126,90 82,20 146,55 191,107 46,51 68,114 68,187 0,95 -34,170 -103,226 -69,56 -163,84 -281,84 z m 161,-649 h 110 c 83,0 144,-15 184,-45 40,-29 60,-75 60,-136 0,-56 -16,-96 -47,-122 -32,-25 -83,-38 -152,-38 h -155 z"
         inkscape:connector-curvature="0"
         style="fill:none;fill-rule:nonzero;stroke:#373435;stroke-width:39.37009811" /><path
         id="7"
         class="fil6 str0"
         d="m 4842,3901 c 0,-23 8,-44 25,-60 16,-16 36,-24 60,-24 24,0 44,8 60,24 17,16 25,37 25,60 0,24 -8,45 -25,61 -16,16 -36,24 -60,24 -24,0 -44,-8 -60,-24 -17,-16 -25,-37 -25,-61 z m 10,972 v -750 h 150 v 750 z"
         inkscape:connector-curvature="0"
         style="fill:none;fill-rule:nonzero;stroke:#373435;stroke-width:39.37009811" /><path
         id="8"
         class="fil6 str0"
         d="m 5306,4497 c 0,70 24,129 71,179 47,49 104,74 170,74 66,0 123,-25 171,-75 47,-49 71,-109 71,-178 0,-69 -24,-128 -71,-177 -47,-50 -104,-74 -171,-74 -66,0 -123,24 -170,74 -47,49 -71,108 -71,177 z m -156,0 c 0,-109 39,-201 116,-277 77,-76 172,-114 283,-114 53,0 103,10 151,30 48,19 91,48 129,84 38,40 67,82 88,129 20,47 30,96 30,148 0,51 -11,101 -31,150 -21,49 -50,92 -87,128 -38,37 -81,65 -128,84 -47,19 -98,29 -152,29 -111,0 -206,-38 -283,-114 -77,-76 -116,-168 -116,-277 z"
         inkscape:connector-curvature="0"
         style="fill:none;fill-rule:nonzero;stroke:#373435;stroke-width:39.37009811" /><polygon
         id="9"
         class="fil6 str0"
         points="7058,3986 6665,4444 6273,3986 6273,4873 6115,4873 6115,3737 6256,3737 6665,4214 7074,3737 7216,3737 7216,4873 7058,4873 "
         style="fill:none;fill-rule:nonzero;stroke:#373435;stroke-width:39.37009811" /><polygon
         id="10"
         class="fil6 str0"
         points="7464,4873 7464,3737 7627,3737 7627,4873 "
         style="fill:none;fill-rule:nonzero;stroke:#373435;stroke-width:39.37009811" /><path
         id="11"
         class="fil6 str0"
         d="m 8843,4603 v 184 c -67,34 -135,60 -204,78 -69,19 -137,28 -205,28 -65,0 -127,-9 -186,-26 -59,-17 -115,-42 -168,-76 -84,-55 -150,-126 -196,-211 -47,-86 -71,-179 -71,-280 0,-76 16,-150 46,-222 31,-72 75,-135 132,-188 61,-58 129,-101 204,-129 75,-28 159,-43 250,-43 64,0 127,8 190,22 63,15 129,38 198,70 v 176 c -72,-39 -140,-68 -204,-86 -63,-19 -124,-28 -184,-28 -133,0 -242,41 -329,123 -87,83 -130,186 -130,311 0,123 43,225 128,308 86,83 193,124 321,124 67,0 133,-11 201,-33 68,-22 137,-56 207,-102 z"
         inkscape:connector-curvature="0"
         style="fill:none;fill-rule:nonzero;stroke:#373435;stroke-width:39.37009811" /><g
         id="g46"><path
           class="fil7"
           d="m 4135,3219 v 205 c 0,64 -44,103 -123,103 -79,0 -122,-39 -122,-103 v -205 c 0,-6 5,-10 18,-10 h 3 c 13,0 18,4 18,10 v 206 c 0,40 36,68 83,68 48,0 83,-28 83,-68 v -206 c 0,-6 6,-10 18,-10 h 4 c 13,0 18,4 18,10 z"
           id="path40"
           inkscape:connector-curvature="0"
           style="fill:#201e1e;fill-rule:nonzero" /><path
           class="fil7"
           d="m 4735,3235 c 0,8 -10,26 -15,26 -5,0 -27,-20 -70,-20 -80,0 -106,47 -106,125 0,68 21,127 101,127 23,0 46,-3 58,-6 v -91 h -53 c -6,0 -9,-4 -9,-13 v -7 c 0,-10 3,-14 9,-14 h 79 c 9,0 13,4 13,14 v 119 c 0,25 -49,32 -100,32 -89,0 -138,-50 -138,-157 0,-112 51,-163 145,-163 44,0 86,16 86,28 z"
           id="path42"
           inkscape:connector-curvature="0"
           style="fill:#201e1e;fill-rule:nonzero" /><path
           class="fil7"
           d="m 5424,3219 v 296 c 0,7 -6,10 -18,10 h -4 c -12,0 -17,-3 -17,-10 v -241 l -1,1 -90,156 -10,6 h -18 l -9,-6 -91,-158 -1,-2 v 244 c 0,7 -5,10 -18,10 h -3 c -13,0 -18,-3 -18,-10 v -296 c 0,-6 5,-10 18,-10 h 16 c 11,0 16,3 19,8 l 85,147 11,29 12,-26 85,-150 c 3,-5 8,-8 19,-8 h 15 c 12,0 18,4 18,10 z"
           id="path44"
           inkscape:connector-curvature="0"
           style="fill:#201e1e;fill-rule:nonzero" /></g><g
         id="g56"><path
           class="fil7"
           d="m 9081,4551 c 0,-98 93,-128 176,-128 84,0 176,35 177,134 0,93 -94,131 -176,131 -66,1 -144,17 -144,95 v 70 h 315 v 35 h -350 v -104 c 0,-101 94,-128 178,-128 60,0 144,-22 144,-99 0,-81 -81,-103 -144,-103 -61,0 -141,21 -141,97 z"
           id="path48"
           inkscape:connector-curvature="0"
           style="fill:#201e1e;fill-rule:nonzero" /><path
           class="fil7"
           d="m 9542,4713 c 0,196 282,195 282,0 v -110 c 0,-195 -282,-195 -282,0 z m -35,-110 c 0,-240 351,-239 351,0 v 110 c 0,239 -351,240 -351,0 z"
           id="path50"
           inkscape:connector-curvature="0"
           style="fill:#201e1e;fill-rule:nonzero" /><polygon
           class="fil7"
           points="10093,4888 9903,4888 9903,4857 9980,4857 9980,4461 9903,4461 9903,4429 10016,4429 10016,4857 10093,4857 "
           id="polygon52"
           style="fill:#201e1e;fill-rule:nonzero" /><path
           class="fil7"
           d="m 10335,4426 c 45,0 81,11 107,31 26,20 39,48 39,84 0,24 -7,45 -20,62 -13,17 -32,30 -57,39 32,9 56,24 73,44 17,20 26,45 26,74 0,41 -15,73 -45,96 -30,24 -71,35 -123,35 -52,0 -93,-11 -123,-34 -30,-24 -45,-55 -45,-96 0,-29 9,-54 27,-74 17,-21 42,-36 74,-45 -25,-9 -45,-22 -59,-40 -13,-17 -20,-38 -20,-62 0,-35 13,-63 39,-83 27,-20 62,-31 107,-31 z m 0,38 c -33,0 -63,8 -82,22 -19,15 -25,32 -25,58 0,25 6,42 25,57 19,15 49,22 82,22 34,0 63,-7 82,-22 19,-15 24,-32 24,-57 0,-26 -5,-43 -24,-58 -19,-14 -48,-22 -82,-22 z m 0,203 c -39,0 -74,8 -96,25 -22,16 -33,39 -33,68 0,31 11,51 33,69 22,17 57,29 96,29 39,0 74,-12 96,-29 22,-18 33,-38 33,-69 0,-29 -11,-51 -34,-68 -22,-17 -56,-25 -95,-25 z"
           id="path54"
           inkscape:connector-curvature="0"
           style="fill:#201e1e;fill-rule:nonzero" /></g></g></g></svg>