<?xml version="1.0" encoding="UTF-8"?>
<!DOCTYPE svg PUBLIC "-//W3C//DTD SVG 1.1//EN" "http://www.w3.org/Graphics/SVG/1.1/DTD/svg11.dtd">
<!-- Creator: CorelDRAW X7 -->
<svg xmlns="http://www.w3.org/2000/svg" xml:space="preserve" width="7.383in" height="2.613in" version="1.1" style="shape-rendering:geometricPrecision; text-rendering:geometricPrecision; image-rendering:optimizeQuality; fill-rule:evenodd; clip-rule:evenodd"
viewBox="0 0 7383 2613"
 xmlns:xlink="http://www.w3.org/1999/xlink">
 <defs>
  <style type="text/css">
   <![CDATA[
    .fil6 {fill:none}
    .fil1 {fill:none;fill-rule:nonzero}
    .fil3 {fill:#306BA4}
    .fil2 {fill:#307ABD}
    .fil4 {fill:#3AB778}
    .fil5 {fill:#8FC74A}
    .fil7 {fill:#D7DF36}
    .fil0 {fill:black;fill-rule:nonzero}
   ]]>
  </style>
 </defs>
 <g id="Layer_x0020_1">
  <metadata id="CorelCorpID_0Corel-Layer"/>
  <g id="_1916240767312">
   <g id="_1916230172800">
    <polygon class="fil0" points="2864,1781 3035,1781 3035,867 2864,867 "/>
    <path class="fil0" d="M4003 1666c-94,92 -216,136 -348,136 -339,0 -483,-234 -484,-472 -1,-239 154,-481 484,-481 124,0 242,47 336,139l-115 111c-60,-58 -141,-86 -221,-86 -220,0 -315,165 -314,317 1,152 89,310 314,310 80,0 170,-33 230,-93l118 119 0 0z"/>
    <path class="fil0" d="M4677 1088c-31,-53 -117,-102 -216,-102 -128,0 -190,53 -190,121 0,80 94,102 204,115 191,23 368,73 368,291 0,204 -180,291 -384,291 -186,0 -330,-57 -398,-224l144 -75c40,101 146,145 257,145 108,0 210,-38 210,-137 0,-86 -90,-121 -211,-134 -187,-23 -359,-72 -359,-277 0,-188 185,-265 354,-266 142,0 289,40 359,181l-138 71 0 0 0 0z"/>
    <path class="fil0" d="M5213 1024l-290 0 0 -157c263,0 487,0 752,0l0 157 -290 0 0 757 -172 0 0 -757 0 0z"/>
   </g>
   <g id="_1916230172928">
    <path class="fil0" d="M3042 541l0 151c0,47 -32,76 -91,76 -58,0 -90,-29 -90,-76l0 -151c0,-4 4,-7 14,-7l2 0c9,0 13,3 13,7l0 152c0,29 27,50 61,50 36,0 62,-21 62,-50l0 -152c0,-4 4,-7 13,-7l2 0c10,0 14,3 14,7z"/>
    <path class="fil0" d="M3482 553c0,6 -7,20 -11,20 -4,0 -19,-15 -51,-15 -58,0 -78,34 -78,91 0,51 16,94 74,94 17,0 34,-2 43,-5l0 -66 -39 0c-4,0 -6,-3 -6,-10l0 -5c0,-7 2,-10 6,-10l58 0c7,0 10,3 10,10l0 87c0,19 -36,24 -74,24 -65,0 -102,-37 -102,-116 0,-82 38,-119 107,-119 33,0 63,11 63,20l0 0z"/>
    <path class="fil0" d="M3988 541l0 218c0,5 -4,8 -13,8l-2 0c-9,0 -13,-3 -13,-8l0 -177 -1 1 -66 114 -7 5 -13 0 -7 -5 -67 -116 -1 -1 0 179c0,5 -4,8 -13,8l-2 0c-9,0 -13,-3 -13,-8l0 -218c0,-4 4,-7 13,-7l12 0c8,0 12,3 14,6l62 108 9 21 8 -19 62 -110c2,-3 6,-6 14,-6l11 0c9,0 13,3 13,7z"/>
   </g>
   <polygon class="fil1" points="1219,650 10,1300 2429,2600 "/>
   <polygon class="fil2" points="2429,0 1219,650 2429,2600 "/>
   <polygon class="fil3" points="1219,650 10,1300 2429,2600 "/>
   <polygon class="fil4" points="0,2613 830,1300 1373,1585 "/>
   <polygon class="fil5" points="2005,1917 830,1300 1914,1300 "/>
   <polygon class="fil6" points="824,1386 1912,1317 "/>
   <polygon class="fil6" points="824,1386 1912,1317 "/>
   <polygon class="fil7" points="2767,328 830,1300 1914,1300 "/>
   <polygon class="fil6" points="824,1386 1912,1317 "/>
   <polygon class="fil6" points="824,1386 1912,1317 "/>
   <path class="fil0" d="M5824 1775l0 -76c0,-23 2,-41 6,-55 3,-13 9,-25 17,-35 8,-9 18,-17 30,-23 12,-6 32,-13 59,-21l100 -28c16,-4 29,-8 39,-13 10,-6 17,-11 20,-17 3,-3 5,-9 6,-16 1,-7 2,-21 2,-42 0,-22 -1,-37 -4,-46 -3,-8 -8,-15 -15,-20 -6,-5 -18,-8 -35,-10 -18,-2 -43,-3 -75,-3 -42,0 -70,4 -81,14 -12,9 -18,29 -18,60l0 26 -51 0 0 -29c0,-44 11,-75 32,-92 21,-17 62,-25 122,-25 34,0 60,1 78,2 17,2 30,5 39,9 21,9 36,22 45,38 8,15 12,42 12,80 0,42 -6,71 -19,88 -12,17 -35,30 -70,39l-125 35c-26,8 -44,16 -51,25 -8,9 -12,22 -12,39l0 49 277 0 0 47 -328 0 0 0 0 0z"/>
   <path id="_1" class="fil0" d="M6381 1734l39 0c24,0 41,-1 51,-5 11,-3 20,-8 27,-15 7,-7 12,-17 15,-28 3,-11 4,-31 4,-59l0 -7 0 -142c0,-29 -1,-49 -4,-60 -3,-11 -8,-20 -15,-27 -7,-8 -17,-13 -28,-16 -11,-4 -28,-5 -50,-5l-39 0c-24,0 -41,1 -51,4 -11,3 -20,9 -27,16 -7,7 -12,16 -14,28 -3,11 -5,31 -5,60l0 7 0 141c0,29 2,49 5,60 2,11 7,21 14,28 7,7 16,12 27,15 10,4 27,5 51,5zm-2 46c-54,0 -92,-11 -113,-33 -22,-23 -33,-63 -33,-120l0 -151c0,-57 11,-96 33,-119 21,-22 59,-33 113,-33l43 0c54,0 92,11 114,33 21,23 32,62 32,119l0 151c0,57 -11,97 -32,120 -22,22 -60,33 -114,33l-43 0z"/>
   <polygon id="_2" class="fil0" points="6826,1775 6826,1374 6721,1479 6691,1449 6810,1329 6875,1329 6875,1775 "/>
   <path id="_3" class="fil0" d="M7105 1435l0 64c0,24 7,39 19,47 13,8 45,12 96,12 31,0 53,-1 69,-4 15,-4 26,-9 33,-17 5,-5 8,-12 10,-22 3,-9 4,-25 4,-45 0,-20 -1,-35 -3,-46 -1,-11 -4,-18 -7,-22 -9,-11 -20,-19 -35,-23 -15,-5 -44,-7 -86,-7 -41,0 -69,4 -81,12 -12,8 -19,25 -19,51zm278 19l0 205c0,45 -10,76 -30,94 -20,19 -54,28 -101,28l-70 0c-45,0 -78,-8 -97,-23 -20,-15 -30,-40 -30,-75l0 -24 50 0 0 14c0,25 6,41 19,49 13,8 42,12 87,12 31,0 54,-1 68,-3 15,-2 25,-5 32,-9 7,-5 13,-12 18,-23 4,-10 7,-22 7,-35l0 -106c-8,16 -21,28 -39,35 -18,7 -47,10 -88,10 -56,0 -96,-7 -119,-21 -22,-14 -34,-37 -34,-69l0 -81c0,-22 3,-39 9,-54 7,-15 16,-26 28,-34 11,-8 26,-13 43,-16 18,-3 48,-4 92,-4 58,0 99,9 121,29 23,19 34,53 34,101l0 0z"/>
  </g>
 </g>
</svg>
