<?xml version="1.0" encoding="UTF-8" standalone="no"?>
<!-- Creator: CorelDRAW X7 -->

<svg
   xmlns:dc="http://purl.org/dc/elements/1.1/"
   xmlns:cc="http://creativecommons.org/ns#"
   xmlns:rdf="http://www.w3.org/1999/02/22-rdf-syntax-ns#"
   xmlns:svg="http://www.w3.org/2000/svg"
   xmlns="http://www.w3.org/2000/svg"
   xmlns:sodipodi="http://sodipodi.sourceforge.net/DTD/sodipodi-0.dtd"
   xmlns:inkscape="http://www.inkscape.org/namespaces/inkscape"
   xml:space="preserve"
   width="697.909"
   height="189.021"
   version="1.1"
   style="clip-rule:evenodd;fill-rule:evenodd;image-rendering:optimizeQuality;shape-rendering:geometricPrecision;text-rendering:geometricPrecision"
   viewBox="0 0 7269.8296 1968.9999"
   id="svg23"
   sodipodi:docname="scientific net.svg"
   inkscape:version="0.92.2 (5c3e80d, 2017-08-06)"><metadata
     id="metadata27"><rdf:RDF><cc:Work
         rdf:about=""><dc:format>image/svg+xml</dc:format><dc:type
           rdf:resource="http://purl.org/dc/dcmitype/StillImage" /><dc:title></dc:title></cc:Work></rdf:RDF></metadata><sodipodi:namedview
     pagecolor="#ffffff"
     bordercolor="#666666"
     borderopacity="1"
     objecttolerance="10"
     gridtolerance="10"
     guidetolerance="10"
     inkscape:pageopacity="0"
     inkscape:pageshadow="2"
     inkscape:window-width="1366"
     inkscape:window-height="715"
     id="namedview25"
     showgrid="false"
     units="px"
     inkscape:zoom="0.12927914"
     inkscape:cx="-351.01438"
     inkscape:cy="912.75357"
     inkscape:window-x="-8"
     inkscape:window-y="-8"
     inkscape:window-maximized="1"
     inkscape:current-layer="svg23" /><defs
     id="defs4"><style
       type="text/css"
       id="style2"><![CDATA[
    .fil2 {fill:#80161A}
    .fil1 {fill:black;fill-rule:nonzero}
    .fil0 {fill:#80161A;fill-rule:nonzero}
   ]]></style></defs><g
     id="Layer_x0020_1"
     transform="translate(-1141.0852,-13661)"><metadata
       id="CorelCorpID_0Corel-Layer" /><g
       id="_2118523861680"><g
         id="g11"><path
           class="fil0"
           d="m 1690,14818 109,-10 -1,29 c 0,32 7,61 22,88 14,26 39,47 72,61 34,15 74,22 121,22 66,0 117,-14 152,-44 34,-29 52,-62 52,-99 0,-26 -10,-50 -28,-72 -19,-21 -70,-49 -154,-86 -65,-28 -109,-49 -133,-64 -37,-25 -65,-51 -82,-80 -18,-29 -27,-62 -27,-99 0,-42 12,-81 35,-115 24,-34 58,-61 103,-79 45,-18 95,-27 152,-27 67,0 124,11 170,34 47,23 80,53 101,90 21,38 31,74 31,108 0,4 0,9 0,17 l -107,8 c 0,-23 -2,-41 -6,-54 -8,-23 -19,-43 -35,-59 -16,-16 -38,-28 -65,-38 -28,-10 -59,-14 -93,-14 -60,0 -107,13 -140,40 -26,21 -38,49 -38,83 0,21 5,39 16,55 10,16 29,32 56,47 20,11 66,33 139,65 60,26 101,47 123,62 30,20 53,44 70,73 16,28 24,60 24,97 0,44 -14,86 -41,123 -27,38 -65,68 -113,88 -48,21 -104,31 -166,31 -94,0 -170,-20 -229,-61 -60,-40 -89,-114 -90,-220 z m 1143,49 103,10 c -25,75 -62,131 -109,167 -48,36 -101,54 -162,54 -65,0 -118,-21 -159,-63 -40,-42 -60,-101 -60,-176 0,-66 13,-130 39,-193 26,-63 63,-112 111,-144 49,-33 104,-50 166,-50 65,0 116,18 154,55 37,36 56,84 56,144 l -101,7 c 0,-38 -11,-68 -33,-89 -21,-21 -50,-32 -86,-32 -41,0 -76,13 -107,39 -30,26 -53,65 -71,118 -17,53 -25,104 -25,152 0,51 11,90 34,115 22,26 50,39 83,39 34,0 65,-13 96,-38 30,-25 54,-64 71,-115 z m 313,-494 24,-116 h 102 l -25,116 z m -150,713 126,-601 h 102 l -126,601 z m 701,-204 99,9 c -14,50 -47,96 -98,141 -52,44 -113,66 -185,66 -44,0 -85,-10 -122,-30 -37,-21 -66,-51 -85,-90 -20,-39 -29,-84 -29,-134 0,-65 15,-128 45,-190 31,-61 70,-107 118,-137 48,-30 101,-45 157,-45 72,0 129,23 172,67 43,44 64,105 64,181 0,29 -3,59 -8,90 h -443 c -2,12 -2,22 -2,32 0,56 12,99 38,129 26,29 58,44 96,44 35,0 69,-11 103,-34 34,-23 61,-56 80,-99 z m -299,-150 h 338 c 1,-11 1,-18 1,-23 0,-51 -13,-90 -39,-117 -25,-27 -58,-41 -99,-41 -44,0 -84,15 -120,45 -36,30 -63,75 -81,136 z m 500,354 126,-601 h 93 l -21,105 c 40,-41 78,-71 114,-90 35,-18 71,-28 108,-28 49,0 88,14 116,40 28,26 42,62 42,106 0,22 -5,57 -16,105 l -81,363 h -101 l 84,-380 c 8,-37 12,-64 12,-82 0,-20 -7,-36 -21,-48 -14,-13 -34,-19 -61,-19 -53,0 -100,19 -142,56 -42,38 -73,102 -92,193 l -58,280 z m 883,-83 -17,83 c -25,7 -49,10 -71,10 -41,0 -73,-10 -97,-30 -18,-15 -27,-36 -27,-62 0,-13 4,-43 14,-91 l 73,-349 h -81 l 16,-79 h 81 l 31,-147 117,-70 -46,217 h 101 l -18,79 h -99 l -70,332 c -8,42 -12,67 -12,76 0,12 3,21 10,28 7,6 18,9 34,9 23,0 43,-2 61,-6 z m 230,-630 24,-116 h 102 l -24,116 z m -149,713 126,-601 h 101 l -126,601 z m 270,0 110,-522 h -90 l 17,-79 h 90 l 18,-85 c 9,-43 18,-73 28,-92 9,-19 25,-34 46,-46 22,-13 51,-19 89,-19 26,0 63,6 113,17 l -19,89 c -35,-9 -64,-13 -87,-13 -20,0 -35,5 -46,15 -10,9 -19,33 -26,70 l -14,64 h 115 l -16,79 h -116 l -111,522 z m 458,-713 24,-116 h 101 l -24,116 z m -150,713 126,-601 h 102 l -126,601 z m 673,-219 103,10 c -26,75 -62,131 -110,167 -47,36 -101,54 -161,54 -66,0 -118,-21 -159,-63 -41,-42 -61,-101 -61,-176 0,-66 13,-130 39,-193 26,-63 63,-112 112,-144 48,-33 104,-50 166,-50 64,0 115,18 153,55 38,36 57,84 57,144 l -101,7 c 0,-38 -11,-68 -33,-89 -22,-21 -51,-32 -86,-32 -41,0 -77,13 -107,39 -30,26 -54,65 -71,118 -17,53 -26,104 -26,152 0,51 11,90 34,115 23,26 51,39 84,39 33,0 65,-13 95,-38 30,-25 54,-64 72,-115 z"
           id="path7"
           inkscape:connector-curvature="0"
           style="fill:#80161a;fill-rule:nonzero" /><path
           class="fil1"
           d="m 6306,15086 24,-116 h 116 l -25,116 z m 304,0 174,-829 h 116 l 137,311 c 41,95 74,175 99,240 14,38 30,89 48,153 11,-71 25,-143 40,-217 l 101,-487 h 108 l -173,829 h -111 l -200,-479 c -36,-85 -66,-164 -89,-237 -8,62 -20,133 -36,211 l -106,505 z m 1266,-204 100,9 c -15,50 -48,96 -99,141 -52,44 -113,66 -184,66 -45,0 -86,-10 -123,-30 -37,-21 -65,-51 -85,-90 -19,-39 -29,-84 -29,-134 0,-65 15,-128 45,-190 31,-61 70,-107 118,-137 49,-30 101,-45 157,-45 72,0 129,23 172,67 43,44 64,105 64,181 0,29 -2,59 -7,90 h -444 c -1,12 -2,22 -2,32 0,56 13,99 39,129 26,29 58,44 95,44 35,0 70,-11 104,-34 34,-23 60,-56 79,-99 z m -298,-150 h 338 c 0,-11 0,-18 0,-23 0,-51 -12,-90 -38,-117 -26,-27 -59,-41 -99,-41 -44,0 -84,15 -120,45 -37,30 -63,75 -81,136 z m 739,271 -17,83 c -25,7 -49,10 -72,10 -40,0 -72,-10 -97,-30 -17,-15 -27,-36 -27,-62 0,-13 5,-43 15,-91 l 73,-349 h -81 l 16,-79 h 81 l 31,-147 117,-70 -46,217 h 101 l -18,79 h -99 l -70,332 c -8,42 -13,67 -13,76 0,12 4,21 11,28 7,6 18,9 34,9 23,0 43,-2 61,-6 z"
           id="path9"
           inkscape:connector-curvature="0"
           style="fill:#000000;fill-rule:nonzero" /></g><polygon
         class="fil2"
         points="1843,15622 1843,15214 2251,15214 2251,15622 "
         id="polygon13"
         style="fill:#80161a" /><polygon
         class="fil2"
         points="1843,14070 1843,13661 2251,13661 2251,14070 "
         id="polygon15"
         style="fill:#80161a" /><polygon
         class="fil2"
         points="1141,14864 1141,14456 1549,14456 1549,14864 "
         id="polygon17"
         style="fill:#80161a" /><path
         class="fil1"
         d="m 2440,15550 v -275 h 103 c 21,0 38,3 50,9 13,5 23,14 30,25 7,12 11,24 11,36 0,12 -3,23 -10,34 -6,10 -16,18 -28,25 16,4 29,13 38,24 9,12 13,26 13,42 0,13 -3,25 -8,36 -5,11 -12,19 -20,25 -8,6 -18,11 -30,14 -12,3 -27,5 -44,5 z m 36,-159 h 60 c 16,0 27,-2 34,-4 10,-2 17,-7 21,-13 5,-7 7,-15 7,-24 0,-9 -2,-18 -6,-24 -5,-7 -11,-12 -19,-15 -8,-2 -22,-4 -42,-4 h -55 z m 0,126 h 69 c 11,0 20,0 24,-1 9,-1 16,-4 21,-7 6,-4 11,-9 14,-16 4,-6 6,-14 6,-23 0,-10 -3,-19 -8,-27 -5,-7 -13,-13 -22,-16 -9,-3 -23,-4 -40,-4 h -64 z m 241,109 -4,-31 c 8,2 14,3 20,3 7,0 13,-2 18,-4 4,-2 8,-6 11,-10 2,-4 5,-12 10,-26 1,-1 2,-4 3,-8 l -75,-199 h 36 l 41,115 c 5,14 10,29 15,45 3,-15 8,-30 13,-44 l 43,-116 h 33 l -75,202 c -8,22 -14,37 -19,45 -6,11 -13,19 -20,24 -8,5 -17,8 -28,8 -7,0 -14,-1 -22,-4 z m 392,-76 v -243 h -90 v -32 h 217 v 32 h -90 v 243 z m 172,0 v -199 h 30 v 30 c 8,-14 15,-23 21,-28 7,-4 14,-6 22,-6 11,0 23,3 35,10 l -12,31 c -8,-4 -17,-7 -25,-7 -7,0 -14,3 -19,7 -6,4 -10,11 -13,18 -4,12 -6,25 -6,40 v 104 z m 283,-25 c -12,10 -24,18 -36,22 -11,5 -24,7 -37,7 -22,0 -39,-6 -50,-16 -12,-11 -18,-24 -18,-41 0,-10 2,-19 7,-27 4,-8 10,-14 17,-19 7,-5 15,-8 24,-11 7,-2 17,-3 30,-5 28,-3 48,-7 61,-11 0,-5 0,-8 0,-9 0,-14 -3,-24 -10,-29 -8,-8 -21,-12 -38,-12 -16,0 -28,3 -35,9 -8,5 -14,15 -17,29 l -33,-4 c 3,-14 8,-26 15,-34 7,-9 17,-16 30,-20 12,-5 28,-7 45,-7 17,0 31,2 41,6 11,4 19,9 24,15 5,6 8,13 10,23 1,5 2,16 2,31 v 44 c 0,31 1,51 2,60 1,8 4,16 8,24 h -35 c -3,-8 -6,-16 -7,-25 z m -2,-75 c -13,5 -31,9 -55,13 -14,2 -24,4 -30,6 -6,3 -10,6 -13,11 -3,5 -5,10 -5,16 0,9 3,16 10,22 7,6 17,9 30,9 13,0 25,-3 35,-8 10,-6 17,-14 22,-23 4,-8 6,-19 6,-34 z m 111,100 v -199 h 31 v 28 c 14,-22 35,-32 63,-32 12,0 23,2 33,6 10,4 17,10 22,17 5,7 9,15 11,25 1,6 2,17 2,32 v 123 h -34 v -121 c 0,-14 -1,-24 -4,-31 -3,-7 -7,-12 -14,-16 -6,-4 -14,-6 -23,-6 -15,0 -27,4 -37,13 -11,9 -16,27 -16,52 v 109 z m 226,-60 33,-5 c 2,13 7,23 16,30 8,8 20,11 36,11 15,0 27,-3 34,-9 8,-7 12,-14 12,-22 0,-8 -4,-14 -11,-18 -4,-3 -16,-7 -34,-12 -25,-6 -42,-11 -51,-16 -10,-4 -17,-11 -22,-19 -5,-8 -7,-17 -7,-26 0,-9 2,-17 6,-25 4,-7 9,-14 16,-19 6,-4 13,-7 22,-9 9,-3 18,-4 29,-4 15,0 29,2 41,6 12,5 20,11 26,19 5,7 9,18 11,30 l -33,5 c -1,-10 -5,-18 -13,-24 -7,-6 -17,-9 -30,-9 -15,0 -26,3 -33,8 -6,5 -10,11 -10,18 0,4 2,8 4,12 3,3 7,6 13,8 4,2 13,5 30,9 24,6 40,12 50,16 9,4 17,10 22,17 5,8 8,18 8,29 0,11 -3,22 -10,32 -6,10 -16,17 -28,23 -13,5 -27,8 -42,8 -26,0 -46,-6 -59,-16 -14,-11 -22,-27 -26,-48 z m 404,60 v -243 h -90 v -32 h 217 v 32 h -90 v 243 z m 279,-65 35,5 c -5,20 -16,36 -30,47 -15,11 -34,17 -57,17 -29,0 -52,-9 -69,-27 -17,-18 -25,-43 -25,-75 0,-34 8,-59 25,-78 17,-18 40,-27 67,-27 27,0 48,9 65,27 17,18 25,43 25,76 0,2 0,5 0,9 h -148 c 1,21 7,38 19,50 11,11 24,17 41,17 12,0 23,-3 31,-10 9,-6 16,-17 21,-31 z m -110,-54 h 111 c -2,-17 -6,-29 -13,-37 -11,-13 -25,-20 -42,-20 -15,0 -28,5 -39,16 -10,10 -16,24 -17,41 z m 343,46 33,4 c -3,23 -13,41 -27,54 -15,12 -34,19 -55,19 -27,0 -49,-9 -66,-27 -16,-18 -24,-43 -24,-76 0,-22 3,-40 10,-56 7,-16 18,-28 33,-36 14,-8 30,-12 47,-12 22,0 39,5 53,16 14,11 22,26 26,46 l -32,5 c -3,-13 -9,-23 -17,-30 -8,-7 -17,-10 -29,-10 -17,0 -30,6 -41,18 -11,12 -16,32 -16,58 0,27 5,46 15,58 11,12 24,18 40,18 14,0 25,-4 34,-12 8,-8 14,-20 16,-37 z m 88,73 v -275 h 34 v 99 c 15,-18 35,-27 59,-27 14,0 27,2 38,8 11,6 19,14 23,24 5,10 7,25 7,45 v 126 h -34 v -126 c 0,-17 -3,-29 -10,-37 -8,-8 -18,-11 -31,-11 -10,0 -19,2 -28,7 -9,6 -15,13 -19,21 -4,9 -5,21 -5,37 v 109 z m 349,0 v -275 h 104 c 18,0 32,1 42,3 13,2 24,6 34,13 9,6 16,15 22,26 5,11 8,24 8,37 0,24 -8,43 -22,59 -15,17 -42,25 -81,25 h -70 v 112 z m 37,-144 h 71 c 23,0 40,-5 50,-14 9,-8 14,-21 14,-36 0,-12 -3,-22 -8,-30 -6,-8 -14,-13 -23,-16 -6,-2 -18,-3 -34,-3 h -70 z m 370,144 v -30 c -15,22 -36,34 -63,34 -11,0 -22,-3 -32,-7 -10,-5 -18,-10 -23,-17 -5,-7 -8,-15 -10,-25 -2,-6 -2,-17 -2,-31 v -123 h 33 v 110 c 0,17 1,29 3,35 2,9 6,16 13,21 7,5 15,8 25,8 10,0 20,-3 29,-8 8,-5 15,-12 18,-21 4,-9 6,-22 6,-39 v -106 h 34 v 199 z m 140,0 h -31 v -275 h 34 v 98 c 14,-18 32,-26 54,-26 12,0 24,2 35,7 11,5 20,12 27,21 7,9 12,19 16,32 4,12 6,26 6,40 0,34 -8,60 -25,79 -17,18 -37,28 -60,28 -24,0 -42,-10 -56,-30 z m 0,-101 c 0,23 3,41 10,51 10,17 25,26 43,26 14,0 27,-6 38,-19 11,-13 16,-32 16,-57 0,-26 -5,-45 -15,-57 -11,-13 -23,-19 -38,-19 -14,0 -27,6 -38,19 -11,13 -16,31 -16,56 z m 208,101 v -275 h 33 v 275 z m 111,-236 v -39 h 34 v 39 z m 0,236 v -199 h 34 v 199 z m 241,-73 33,4 c -4,23 -13,41 -28,54 -15,12 -33,19 -55,19 -27,0 -48,-9 -65,-27 -16,-18 -25,-43 -25,-76 0,-22 4,-40 11,-56 7,-16 18,-28 32,-36 15,-8 31,-12 48,-12 21,0 39,5 53,16 13,11 22,26 26,46 l -33,5 c -3,-13 -8,-23 -16,-30 -8,-7 -18,-10 -29,-10 -17,0 -31,6 -41,18 -11,12 -16,32 -16,58 0,27 5,46 15,58 10,12 24,18 40,18 13,0 24,-4 33,-12 9,-8 15,-20 17,-37 z m 217,48 c -12,10 -24,18 -36,22 -11,5 -24,7 -37,7 -22,0 -38,-6 -50,-16 -12,-11 -18,-24 -18,-41 0,-10 2,-19 7,-27 4,-8 10,-14 17,-19 7,-5 15,-8 24,-11 7,-2 17,-3 30,-5 28,-3 48,-7 61,-11 0,-5 0,-8 0,-9 0,-14 -3,-24 -10,-29 -8,-8 -21,-12 -38,-12 -16,0 -28,3 -35,9 -8,5 -14,15 -17,29 l -33,-4 c 3,-14 8,-26 15,-34 7,-9 17,-16 30,-20 13,-5 28,-7 45,-7 17,0 31,2 41,6 11,4 19,9 24,15 5,6 8,13 10,23 1,5 2,16 2,31 v 44 c 0,31 1,51 2,60 1,8 4,16 8,24 h -35 c -3,-8 -6,-16 -7,-25 z m -2,-75 c -12,5 -31,9 -55,13 -14,2 -24,4 -30,6 -6,3 -10,6 -13,11 -3,5 -5,10 -5,16 0,9 4,16 10,22 7,6 17,9 30,9 13,0 25,-3 35,-8 10,-6 17,-14 22,-23 4,-8 6,-19 6,-34 z m 185,69 4,30 c -9,2 -18,3 -25,3 -12,0 -22,-2 -28,-6 -7,-4 -12,-9 -15,-15 -2,-6 -4,-19 -4,-40 v -114 h -25 v -26 h 25 v -49 l 34,-21 v 70 h 34 v 26 h -34 v 116 c 0,10 1,16 2,19 1,3 3,5 6,6 2,2 6,3 11,3 4,0 9,-1 15,-2 z m 59,-205 v -39 h 34 v 39 z m 0,236 v -199 h 34 v 199 z m 98,-100 c 0,-37 10,-64 31,-81 17,-15 38,-22 62,-22 28,0 50,8 67,26 18,18 26,43 26,74 0,26 -4,46 -11,60 -8,15 -19,26 -34,35 -14,8 -30,12 -48,12 -27,0 -50,-9 -67,-27 -17,-18 -26,-43 -26,-77 z m 35,0 c 0,26 5,45 16,57 11,13 25,19 42,19 17,0 31,-6 42,-19 11,-13 17,-32 17,-58 0,-24 -6,-43 -17,-56 -11,-12 -25,-19 -42,-19 -17,0 -31,7 -42,19 -11,13 -16,32 -16,57 z m 217,100 v -199 h 30 v 28 c 15,-22 36,-32 63,-32 12,0 23,2 33,6 10,4 18,10 23,17 5,7 8,15 10,25 1,6 2,17 2,32 v 123 h -34 v -121 c 0,-14 -1,-24 -4,-31 -2,-7 -7,-12 -14,-16 -6,-4 -14,-6 -23,-6 -14,0 -27,4 -37,13 -10,9 -16,27 -16,52 v 109 z m 225,-60 33,-5 c 2,13 8,23 16,30 9,8 21,11 36,11 16,0 27,-3 35,-9 7,-7 11,-14 11,-22 0,-8 -4,-14 -10,-18 -5,-3 -17,-7 -35,-12 -24,-6 -41,-11 -51,-16 -10,-4 -17,-11 -22,-19 -5,-8 -7,-17 -7,-26 0,-9 2,-17 6,-25 4,-7 10,-14 17,-19 5,-4 12,-7 21,-9 9,-3 19,-4 29,-4 16,0 29,2 41,6 12,5 20,11 26,19 6,7 9,18 12,30 l -33,5 c -2,-10 -6,-18 -13,-24 -7,-6 -18,-9 -31,-9 -15,0 -26,3 -33,8 -6,5 -10,11 -10,18 0,4 2,8 5,12 2,3 7,6 12,8 4,2 14,5 30,9 24,6 40,12 50,16 9,4 17,10 22,17 6,8 8,18 8,29 0,11 -3,22 -10,32 -6,10 -16,17 -28,23 -12,5 -26,8 -42,8 -26,0 -45,-6 -59,-16 -13,-11 -22,-27 -26,-48 z m 340,60 v -275 h 36 v 242 h 135 v 33 z m 309,-31 5,30 c -9,2 -18,3 -25,3 -13,0 -22,-2 -29,-6 -6,-4 -11,-9 -14,-15 -3,-6 -4,-19 -4,-40 v -114 h -25 v -26 h 25 v -49 l 34,-21 v 70 h 33 v 26 h -33 v 116 c 0,10 0,16 1,19 2,3 4,5 6,6 3,2 7,3 12,3 3,0 8,-1 14,-2 z m 188,31 v -26 c -13,20 -31,30 -56,30 -16,0 -30,-5 -43,-13 -14,-9 -24,-21 -31,-37 -7,-15 -11,-33 -11,-54 0,-19 3,-37 10,-54 6,-16 16,-28 30,-37 13,-8 28,-12 44,-12 12,0 22,2 32,7 9,5 17,12 23,20 v -99 h 33 v 275 z m -107,-100 c 0,26 6,45 17,57 10,13 23,19 38,19 14,0 27,-6 37,-18 10,-12 16,-30 16,-55 0,-27 -6,-47 -16,-59 -11,-13 -24,-20 -39,-20 -15,0 -27,7 -38,19 -10,12 -15,31 -15,57 z"
         id="path19"
         inkscape:connector-curvature="0"
         style="fill:#000000;fill-rule:nonzero" /></g></g></svg>