<?xml version="1.0" encoding="UTF-8" standalone="no"?>
<!-- Creator: CorelDRAW X7 -->

<svg
   xmlns:dc="http://purl.org/dc/elements/1.1/"
   xmlns:cc="http://creativecommons.org/ns#"
   xmlns:rdf="http://www.w3.org/1999/02/22-rdf-syntax-ns#"
   xmlns:svg="http://www.w3.org/2000/svg"
   xmlns="http://www.w3.org/2000/svg"
   xmlns:sodipodi="http://sodipodi.sourceforge.net/DTD/sodipodi-0.dtd"
   xmlns:inkscape="http://www.inkscape.org/namespaces/inkscape"
   xml:space="preserve"
   width="658.26202"
   height="189.021"
   version="1.1"
   style="clip-rule:evenodd;fill-rule:evenodd;image-rendering:optimizeQuality;shape-rendering:geometricPrecision;text-rendering:geometricPrecision"
   viewBox="0 0 6856.8434 1968.9999"
   id="svg23"
   sodipodi:docname="scopus.svg"
   inkscape:version="0.92.2 (5c3e80d, 2017-08-06)"><metadata
     id="metadata27"><rdf:RDF><cc:Work
         rdf:about=""><dc:format>image/svg+xml</dc:format><dc:type
           rdf:resource="http://purl.org/dc/dcmitype/StillImage" /><dc:title></dc:title></cc:Work></rdf:RDF></metadata><sodipodi:namedview
     pagecolor="#ffffff"
     bordercolor="#666666"
     borderopacity="1"
     objecttolerance="10"
     gridtolerance="10"
     guidetolerance="10"
     inkscape:pageopacity="0"
     inkscape:pageshadow="2"
     inkscape:window-width="1366"
     inkscape:window-height="715"
     id="namedview25"
     showgrid="false"
     units="px"
     inkscape:zoom="0.12927914"
     inkscape:cx="-351.01438"
     inkscape:cy="912.75357"
     inkscape:window-x="-8"
     inkscape:window-y="-8"
     inkscape:window-maximized="1"
     inkscape:current-layer="svg23" /><defs
     id="defs4"><style
       type="text/css"
       id="style2"><![CDATA[
    .fil0 {fill:#FF8201}
    .fil1 {fill:#FF8201;fill-rule:nonzero}
   ]]></style></defs><g
     id="Layer_x0020_1"
     transform="translate(-1056.0783,-6094)"><metadata
       id="CorelCorpID_0Corel-Layer" /><g
       id="_2118519979952"><path
         class="fil0"
         d="m 4765,7448 c -84,0 -137,-36 -211,-53 0,-111 -15,-437 3,-524 14,-66 69,-102 115,-149 160,-163 427,-91 427,181 0,210 16,545 -334,545 z m -211,-826 c -64,-133 80,-141 -211,-141 0,145 17,220 17,369 v 1213 h 194 v -492 c 606,290 970,-534 678,-960 -29,-43 -75,-89 -116,-112 -281,-159 -485,71 -562,123 z"
         id="path7"
         inkscape:connector-curvature="0"
         style="fill:#ff8201" /><path
         class="fil0"
         d="m 1056,6481 c 0,430 650,458 650,756 0,167 -188,193 -316,193 -159,0 -207,-62 -316,-88 -2,77 -18,110 -18,211 119,28 216,70 369,70 459,0 641,-397 409,-655 -153,-170 -549,-279 -549,-487 0,-154 132,-211 281,-211 148,0 223,62 334,88 l 11,-194 c -59,-34 -156,-60 -264,-70 h -169 c -164,15 -321,78 -380,218 -14,31 -42,135 -42,169 z"
         id="path9"
         inkscape:connector-curvature="0"
         style="fill:#ff8201" /><path
         class="fil0"
         d="m 3587,6622 c 412,0 442,826 0,826 -225,0 -300,-212 -311,-408 -9,-167 68,-418 311,-418 z m -527,386 c 0,186 37,332 136,444 309,348 918,135 918,-356 0,-203 4,-338 -153,-497 -344,-345 -901,-70 -901,409 z"
         id="path11"
         inkscape:connector-curvature="0"
         style="fill:#ff8201" /><path
         class="fil0"
         d="m 5556,7289 c 0,236 142,334 369,334 241,0 239,-128 351,-158 0,140 -20,123 194,123 0,-111 -18,-146 -18,-263 v -844 h -193 v 685 c 0,74 -68,148 -109,190 -108,110 -309,137 -367,5 -56,-126 -34,-706 -34,-880 h -193 z"
         id="path13"
         inkscape:connector-curvature="0"
         style="fill:#ff8201" /><path
         class="fil0"
         d="m 6733,6745 c 0,381 545,341 545,562 0,160 -272,174 -405,106 -16,-8 -84,-49 -91,-52 -34,-14 -47,-63 -66,175 88,23 131,87 369,87 394,0 571,-443 137,-647 -90,-42 -295,-119 -295,-231 0,-129 155,-123 246,-123 124,0 164,64 263,87 0,-93 12,-106 18,-175 -65,-15 -164,-88 -334,-88 -195,0 -387,102 -387,299 z"
         id="path15"
         inkscape:connector-curvature="0"
         style="fill:#ff8201" /><path
         class="fil0"
         d="m 2111,6938 v 176 c 0,391 369,664 861,404 -2,-77 -18,-82 -18,-176 -56,15 -367,243 -553,-27 -184,-267 -44,-825 323,-674 54,23 53,29 55,104 h 193 c 0,-198 -92,-299 -352,-299 -148,0 -269,67 -347,144 -85,83 -162,216 -162,348 z"
         id="path17"
         inkscape:connector-curvature="0"
         style="fill:#ff8201" /><path
         class="fil1"
         d="m 7761,6149 c 26,0 51,6 75,19 24,13 43,32 57,56 13,24 20,50 20,76 0,27 -7,52 -20,76 -13,24 -32,43 -56,56 -24,13 -49,20 -76,20 -26,0 -51,-7 -75,-20 -24,-13 -43,-32 -56,-56 -14,-24 -20,-49 -20,-76 0,-26 6,-52 20,-76 14,-24 33,-43 56,-56 24,-13 49,-19 75,-19 z m 1,30 c -21,0 -41,5 -61,15 -19,11 -34,26 -45,45 -11,20 -16,40 -16,61 0,22 5,42 16,61 11,19 26,34 45,45 19,11 39,17 61,17 21,0 41,-6 60,-17 19,-11 34,-26 45,-45 11,-19 17,-39 17,-61 0,-21 -6,-41 -17,-61 -11,-19 -26,-34 -45,-45 -20,-10 -40,-15 -60,-15 z m -69,203 v -161 h 32 c 31,0 48,0 52,0 11,1 19,3 25,7 6,3 11,8 15,15 4,7 6,15 6,23 0,12 -4,22 -11,30 -8,8 -19,13 -32,15 5,2 8,4 11,6 3,2 6,7 11,13 1,1 5,8 12,19 l 19,33 h -41 l -13,-27 c -9,-17 -17,-28 -22,-33 -6,-4 -14,-7 -23,-7 h -8 v 67 z m 33,-92 h 13 c 19,0 30,-1 35,-2 4,-2 8,-4 11,-8 2,-3 4,-7 4,-12 0,-4 -2,-8 -4,-12 -3,-3 -7,-6 -11,-7 -5,-2 -17,-3 -35,-3 h -13 z"
         id="path19"
         inkscape:connector-curvature="0"
         style="fill:#ff8201;fill-rule:nonzero" /></g></g></svg>