<?xml version="1.0" encoding="utf-8"?>
<!-- Generator: Adobe Illustrator 22.1.0, SVG Export Plug-In . SVG Version: 6.00 Build 0)  -->
<svg version="1.1" id="Layer_1" xmlns="http://www.w3.org/2000/svg" xmlns:xlink="http://www.w3.org/1999/xlink" x="0px" y="0px"
	 viewBox="0 0 1875 822.1" style="enable-background:new 0 0 1875 822.1;" xml:space="preserve">
<style type="text/css">
	.st0{fill:#CECECE;}
	.st1{fill:#FFFFFF;}
	
		.st2{fill:none;stroke:#009588;stroke-width:3;stroke-linecap:round;stroke-linejoin:round;stroke-miterlimit:10;stroke-dasharray:2;}
	.st3{fill:none;stroke:#F7971D;stroke-width:2;stroke-linecap:round;stroke-linejoin:round;stroke-miterlimit:10;}
	.st4{fill:none;stroke:#FFFFFF;stroke-width:4;stroke-linecap:round;stroke-linejoin:round;stroke-miterlimit:10;}
	.st5{fill:#FFFFFF;stroke:#FFFFFF;stroke-width:3;stroke-linecap:round;stroke-linejoin:round;stroke-miterlimit:10;}
	.st6{fill:none;stroke:#009588;stroke-width:3;stroke-linecap:round;stroke-linejoin:round;stroke-miterlimit:10;}
	.st7{fill:none;stroke:#F7971D;stroke-width:3;stroke-linecap:round;stroke-linejoin:round;stroke-miterlimit:10;}
	.st8{fill:none;stroke:#FFFFFF;stroke-width:3;stroke-linecap:round;stroke-linejoin:round;stroke-miterlimit:10;}
	.st9{fill:#F7971D;stroke:#F79720;stroke-width:3;stroke-linecap:round;stroke-linejoin:round;stroke-miterlimit:10;}
	.st10{fill:#009588;stroke:#009789;stroke-miterlimit:10;}
	.st11{fill:none;stroke:#FFFFFF;stroke-width:5;stroke-linecap:round;stroke-linejoin:round;stroke-miterlimit:10;}
</style>
<g id="Background">
	<g>
		<g id="Layer_1_9_">
			<rect y="0" class="st0" width="1875" height="822.1"/>
		</g>
	</g>
</g>
<g>
	<circle class="st1" cx="1294.8" cy="99.1" r="7.1"/>
	<circle class="st1" cx="1324.5" cy="99.1" r="7.1"/>
	<circle class="st1" cx="1354.2" cy="99.1" r="7.1"/>
	<circle class="st1" cx="1383.8" cy="99.1" r="7.1"/>
	<circle class="st1" cx="1413.5" cy="99.1" r="7.1"/>
	<circle class="st1" cx="1443.2" cy="99.1" r="7.1"/>
	<circle class="st1" cx="1472.9" cy="99.1" r="7.1"/>
	<circle class="st1" cx="1502.6" cy="99.1" r="7.1"/>
	<circle class="st1" cx="1294.8" cy="127.3" r="7.1"/>
	<circle class="st1" cx="1324.5" cy="127.3" r="7.1"/>
	<circle class="st1" cx="1354.2" cy="127.3" r="7.1"/>
	<circle class="st1" cx="1383.8" cy="127.3" r="7.1"/>
	<circle class="st1" cx="1413.5" cy="127.3" r="7.1"/>
	<circle class="st1" cx="1443.2" cy="127.3" r="7.1"/>
	<circle class="st1" cx="1472.9" cy="127.3" r="7.1"/>
	<circle class="st1" cx="1502.6" cy="127.3" r="7.1"/>
	<circle class="st1" cx="1294.8" cy="155.4" r="7.1"/>
	<circle class="st1" cx="1324.5" cy="155.4" r="7.1"/>
	<circle class="st1" cx="1354.2" cy="155.4" r="7.1"/>
	<circle class="st1" cx="1383.8" cy="155.4" r="7.1"/>
	<circle class="st1" cx="1413.5" cy="155.4" r="7.1"/>
	<circle class="st1" cx="1443.2" cy="155.4" r="7.1"/>
	<circle class="st1" cx="1472.9" cy="155.4" r="7.1"/>
	<circle class="st1" cx="1502.6" cy="155.4" r="7.1"/>
	<circle class="st1" cx="1294.8" cy="183.6" r="7.1"/>
	<circle class="st1" cx="1324.5" cy="183.6" r="7.1"/>
	<circle class="st1" cx="1354.2" cy="183.6" r="7.1"/>
	<circle class="st1" cx="1383.8" cy="183.6" r="7.1"/>
	<circle class="st1" cx="1413.5" cy="183.6" r="7.1"/>
	<circle class="st1" cx="1443.2" cy="183.6" r="7.1"/>
	<circle class="st1" cx="1472.9" cy="183.6" r="7.1"/>
	<circle class="st1" cx="1502.6" cy="183.6" r="7.1"/>
	<circle class="st1" cx="1294.8" cy="211.7" r="7.1"/>
	<circle class="st1" cx="1324.5" cy="211.7" r="7.1"/>
	<circle class="st1" cx="1354.2" cy="211.7" r="7.1"/>
	<circle class="st1" cx="1383.8" cy="211.7" r="7.1"/>
	<circle class="st1" cx="1413.5" cy="211.7" r="7.1"/>
	<circle class="st1" cx="1443.2" cy="211.7" r="7.1"/>
	<circle class="st1" cx="1472.9" cy="211.7" r="7.1"/>
	<circle class="st1" cx="1502.6" cy="211.7" r="7.1"/>
	<circle class="st1" cx="1294.8" cy="239.9" r="7.1"/>
	<circle class="st1" cx="1324.5" cy="239.9" r="7.1"/>
	<circle class="st1" cx="1354.2" cy="239.9" r="7.1"/>
	<circle class="st1" cx="1383.8" cy="239.9" r="7.1"/>
	<circle class="st1" cx="1413.5" cy="239.9" r="7.1"/>
	<circle class="st1" cx="1443.2" cy="239.9" r="7.1"/>
	<circle class="st1" cx="1472.9" cy="239.9" r="7.1"/>
	<circle class="st1" cx="1502.6" cy="239.9" r="7.1"/>
	<circle class="st1" cx="1294.8" cy="268.1" r="7.1"/>
	<circle class="st1" cx="1324.5" cy="268.1" r="7.1"/>
	<circle class="st1" cx="1354.2" cy="268.1" r="7.1"/>
	<circle class="st1" cx="1383.8" cy="268.1" r="7.1"/>
	<circle class="st1" cx="1413.5" cy="268.1" r="7.1"/>
	<circle class="st1" cx="1443.2" cy="268.1" r="7.1"/>
	<circle class="st1" cx="1472.9" cy="268.1" r="7.1"/>
	<circle class="st1" cx="1502.6" cy="268.1" r="7.1"/>
	<circle class="st1" cx="1294.8" cy="296.2" r="7.1"/>
	<circle class="st1" cx="1324.5" cy="296.2" r="7.1"/>
	<circle class="st1" cx="1354.2" cy="296.2" r="7.1"/>
	<circle class="st1" cx="1383.8" cy="296.2" r="7.1"/>
	<circle class="st1" cx="1413.5" cy="296.2" r="7.1"/>
	<circle class="st1" cx="1443.2" cy="296.2" r="7.1"/>
	<circle class="st1" cx="1472.9" cy="296.2" r="7.1"/>
	<circle class="st1" cx="1502.6" cy="296.2" r="7.1"/>
</g>
<polygon class="st1" points="1752.1,311.9 1716.4,373.8 1644.9,373.8 1609.2,311.9 1644.9,250 1716.4,250 "/>
<g>
	<line class="st2" x1="1758.2" y1="824.8" x2="1879" y2="824.8"/>
	<line class="st2" x1="1757.5" y1="665.3" x2="1880.3" y2="665.3"/>
	<line class="st2" x1="1749.8" y1="810.1" x2="1887.6" y2="810.1"/>
	<line class="st2" x1="1741.4" y1="795.4" x2="1896.1" y2="795.4"/>
	<line class="st2" x1="1732.9" y1="780.7" x2="1904.6" y2="780.7"/>
	<line class="st2" x1="1724.5" y1="766" x2="1912.8" y2="766"/>
	<line class="st2" x1="1716.1" y1="751.3" x2="1921.8" y2="751.3"/>
	<line class="st2" x1="1716" y1="736.6" x2="1921.2" y2="736.6"/>
	<line class="st2" x1="1725.5" y1="721.9" x2="1912.8" y2="721.9"/>
	<line class="st2" x1="1733" y1="707.9" x2="1904.8" y2="707.9"/>
	<line class="st2" x1="1741.2" y1="693.2" x2="1896.3" y2="693.2"/>
	<line class="st2" x1="1749.8" y1="678.4" x2="1887.9" y2="678.4"/>
	<line class="st2" x1="1765.5" y1="651.3" x2="1872.5" y2="651.6"/>
	<line class="st2" x1="1765" y1="836.7" x2="1872" y2="837"/>
</g>
<g>
	<line class="st3" x1="1575" y1="497.6" x2="1666" y2="347.1"/>
	<line class="st3" x1="1375.7" y1="378.4" x2="1468.2" y2="225.4"/>
	<line class="st3" x1="1550.4" y1="497" x2="1654.1" y2="325.4"/>
	<line class="st3" x1="1525.7" y1="496.4" x2="1642.2" y2="303.7"/>
	<line class="st3" x1="1501.1" y1="495.9" x2="1630.3" y2="282"/>
	<line class="st3" x1="1476.4" y1="495.3" x2="1618.2" y2="260.7"/>
	<line class="st3" x1="1451.7" y1="494.7" x2="1606.7" y2="238.4"/>
	<line class="st3" x1="1433.4" y1="483.8" x2="1587.9" y2="228.1"/>
	<line class="st3" x1="1422.2" y1="460.9" x2="1563.2" y2="227.6"/>
	<line class="st3" x1="1410.5" y1="441" x2="1539.8" y2="227"/>
	<line class="st3" x1="1398.3" y1="419.7" x2="1515.1" y2="226.5"/>
	<line class="st3" x1="1386.4" y1="397.9" x2="1490.3" y2="225.9"/>
	<line class="st3" x1="1364.5" y1="357.9" x2="1445.4" y2="224.9"/>
	<line class="st3" x1="1594.9" y1="498.1" x2="1675.8" y2="365"/>
</g>
<g>
	<line class="st4" x1="1367" y1="830.9" x2="1430.4" y2="726.1"/>
	<line class="st4" x1="1228.1" y1="747.9" x2="1292.6" y2="641.3"/>
	<line class="st4" x1="1349.8" y1="830.5" x2="1422.1" y2="711"/>
	<line class="st4" x1="1332.7" y1="830.2" x2="1413.8" y2="695.8"/>
	<line class="st4" x1="1315.5" y1="829.8" x2="1405.5" y2="680.7"/>
	<line class="st4" x1="1298.3" y1="829.4" x2="1397.1" y2="665.9"/>
	<line class="st4" x1="1281.1" y1="829" x2="1389.1" y2="650.4"/>
	<line class="st4" x1="1268.3" y1="821.3" x2="1376" y2="643.2"/>
	<line class="st4" x1="1260.6" y1="805.4" x2="1358.8" y2="642.8"/>
	<line class="st4" x1="1252.4" y1="791.5" x2="1342.5" y2="642.4"/>
	<line class="st4" x1="1243.9" y1="776.7" x2="1325.3" y2="642"/>
	<line class="st4" x1="1235.6" y1="761.5" x2="1308" y2="641.6"/>
	<line class="st4" x1="1220.3" y1="733.6" x2="1276.7" y2="640.9"/>
	<line class="st4" x1="1380.9" y1="831.3" x2="1437.3" y2="738.6"/>
</g>
<polygon class="st1" points="1756.9,766 1732.5,808.2 1683.8,808.2 1659.4,766 1683.8,723.8 1732.5,723.8 "/>
<polygon class="st5" points="599.2,634.2 578,670.9 535.6,670.9 514.4,634.2 535.6,597.5 578,597.5 "/>
<polygon class="st5" points="523.8,590.7 502.6,627.4 460.3,627.4 439.1,590.7 460.3,554 502.6,554 "/>
<polygon class="st6" points="523.8,679.6 502.6,716.2 460.3,716.2 439.1,679.6 460.3,642.9 502.6,642.9 "/>
<polygon class="st7" points="598.6,722.9 577.4,759.6 535,759.6 513.8,722.9 535,686.2 577.4,686.2 "/>
<polygon class="st8" points="673,679.6 651.9,716.2 609.5,716.2 588.3,679.6 609.5,642.9 651.9,642.9 "/>
<polygon class="st9" points="1455.6,637.3 1440.7,663.1 1411,663.1 1396.2,637.3 1411,611.6 1440.7,611.6 "/>
<polygon class="st8" points="1402.8,606.6 1388,632.3 1358.2,632.3 1343.4,606.6 1358.2,580.8 1388,580.8 "/>
<polygon class="st10" points="1265.3,833.9 1250.5,859.6 1220.7,859.6 1205.9,833.9 1220.7,808.1 1250.5,808.1 "/>
<g>
	<line class="st11" x1="240.1" y1="322.3" x2="381.7" y2="88"/>
	<line class="st11" x1="-70.1" y1="136.9" x2="73.9" y2="-101.4"/>
	<line class="st11" x1="201.7" y1="321.4" x2="363.2" y2="54.3"/>
	<line class="st11" x1="163.4" y1="320.6" x2="344.7" y2="20.5"/>
	<line class="st11" x1="125" y1="319.7" x2="326.2" y2="-13.3"/>
	<line class="st11" x1="86.6" y1="318.8" x2="307.3" y2="-46.4"/>
	<line class="st11" x1="48.2" y1="317.9" x2="289.4" y2="-81.1"/>
	<line class="st11" x1="19.6" y1="300.9" x2="260.2" y2="-97.2"/>
	<line class="st11" x1="2.3" y1="265.2" x2="221.8" y2="-98"/>
	<line class="st11" x1="-16" y1="234.2" x2="185.3" y2="-98.9"/>
	<line class="st11" x1="-35" y1="201.2" x2="146.9" y2="-99.7"/>
	<line class="st11" x1="-53.6" y1="167.2" x2="108.3" y2="-100.6"/>
	<line class="st11" x1="-87.7" y1="104.9" x2="38.3" y2="-102.2"/>
	<line class="st11" x1="271.1" y1="323.1" x2="397.1" y2="116"/>
</g>
<polygon class="st10" points="339.9,323.1 304.1,385 232.7,385 196.9,323.1 232.7,261.2 304.1,261.2 "/>
<polygon class="st8" points="393.6,291.4 378.7,317.1 349,317.1 334.1,291.4 349,265.6 378.7,265.6 "/>
<polygon class="st5" points="393.6,354.2 378.7,379.9 349,379.9 334.1,354.2 349,328.4 378.7,328.4 "/>
<polygon class="st9" points="218.6,396.8 194.2,439 145.5,439 121.2,396.8 145.5,354.6 194.2,354.6 "/>
<g>
	<circle class="st1" cx="175.4" cy="411.5" r="4.1"/>
	<circle class="st1" cx="192.3" cy="411.5" r="4.1"/>
	<circle class="st1" cx="209.1" cy="411.5" r="4.1"/>
	<circle class="st1" cx="225.9" cy="411.5" r="4.1"/>
	<circle class="st1" cx="242.7" cy="411.5" r="4.1"/>
	<circle class="st1" cx="259.6" cy="411.5" r="4.1"/>
	<circle class="st1" cx="276.4" cy="411.5" r="4.1"/>
	<circle class="st1" cx="293.2" cy="411.5" r="4.1"/>
	<circle class="st1" cx="175.4" cy="427.4" r="4.1"/>
	<circle class="st1" cx="192.3" cy="427.4" r="4.1"/>
	<circle class="st1" cx="209.1" cy="427.4" r="4.1"/>
	<circle class="st1" cx="225.9" cy="427.4" r="4.1"/>
	<circle class="st1" cx="242.7" cy="427.4" r="4.1"/>
	<circle class="st1" cx="259.6" cy="427.4" r="4.1"/>
	<circle class="st1" cx="276.4" cy="427.4" r="4.1"/>
	<circle class="st1" cx="293.2" cy="427.4" r="4.1"/>
	<circle class="st1" cx="175.4" cy="443.4" r="4.1"/>
	<circle class="st1" cx="192.3" cy="443.4" r="4.1"/>
	<circle class="st1" cx="209.1" cy="443.4" r="4.1"/>
	<circle class="st1" cx="225.9" cy="443.4" r="4.1"/>
	<circle class="st1" cx="242.7" cy="443.4" r="4.1"/>
	<circle class="st1" cx="259.6" cy="443.4" r="4.1"/>
	<circle class="st1" cx="276.4" cy="443.4" r="4.1"/>
	<circle class="st1" cx="293.2" cy="443.4" r="4.1"/>
	<circle class="st1" cx="175.4" cy="459.3" r="4.1"/>
	<circle class="st1" cx="192.3" cy="459.3" r="4.1"/>
	<circle class="st1" cx="209.1" cy="459.3" r="4.1"/>
	<circle class="st1" cx="225.9" cy="459.3" r="4.1"/>
	<circle class="st1" cx="242.7" cy="459.3" r="4.1"/>
	<circle class="st1" cx="259.6" cy="459.3" r="4.1"/>
	<circle class="st1" cx="276.4" cy="459.3" r="4.1"/>
	<circle class="st1" cx="293.2" cy="459.3" r="4.1"/>
	<circle class="st1" cx="175.4" cy="475.3" r="4.1"/>
	<circle class="st1" cx="192.3" cy="475.3" r="4.1"/>
	<circle class="st1" cx="209.1" cy="475.3" r="4.1"/>
	<circle class="st1" cx="225.9" cy="475.3" r="4.1"/>
	<circle class="st1" cx="242.7" cy="475.3" r="4.1"/>
	<circle class="st1" cx="259.6" cy="475.3" r="4.1"/>
	<circle class="st1" cx="276.4" cy="475.3" r="4.1"/>
	<circle class="st1" cx="293.2" cy="475.3" r="4.1"/>
	<circle class="st1" cx="175.4" cy="491.3" r="4.1"/>
	<circle class="st1" cx="192.3" cy="491.3" r="4.1"/>
	<circle class="st1" cx="209.1" cy="491.3" r="4.1"/>
	<circle class="st1" cx="225.9" cy="491.3" r="4.1"/>
	<circle class="st1" cx="242.7" cy="491.3" r="4.1"/>
	<circle class="st1" cx="259.6" cy="491.3" r="4.1"/>
	<circle class="st1" cx="276.4" cy="491.3" r="4.1"/>
	<circle class="st1" cx="293.2" cy="491.3" r="4.1"/>
	<circle class="st1" cx="175.4" cy="507.2" r="4.1"/>
	<circle class="st1" cx="192.3" cy="507.2" r="4.1"/>
	<circle class="st1" cx="209.1" cy="507.2" r="4.1"/>
	<circle class="st1" cx="225.9" cy="507.2" r="4.1"/>
	<circle class="st1" cx="242.7" cy="507.2" r="4.1"/>
	<circle class="st1" cx="259.6" cy="507.2" r="4.1"/>
	<circle class="st1" cx="276.4" cy="507.2" r="4.1"/>
	<circle class="st1" cx="293.2" cy="507.2" r="4.1"/>
	<circle class="st1" cx="175.4" cy="523.2" r="4.1"/>
	<circle class="st1" cx="192.3" cy="523.2" r="4.1"/>
	<circle class="st1" cx="209.1" cy="523.2" r="4.1"/>
	<circle class="st1" cx="225.9" cy="523.2" r="4.1"/>
	<circle class="st1" cx="242.7" cy="523.2" r="4.1"/>
	<circle class="st1" cx="259.6" cy="523.2" r="4.1"/>
	<circle class="st1" cx="276.4" cy="523.2" r="4.1"/>
	<circle class="st1" cx="293.2" cy="523.2" r="4.1"/>
</g>
<g>
	<circle class="st1" cx="310" cy="411.5" r="4.1"/>
	<circle class="st1" cx="326.9" cy="411.5" r="4.1"/>
	<circle class="st1" cx="343.7" cy="411.5" r="4.1"/>
	<circle class="st1" cx="360.5" cy="411.5" r="4.1"/>
	<circle class="st1" cx="377.3" cy="411.5" r="4.1"/>
	<circle class="st1" cx="394.2" cy="411.5" r="4.1"/>
	<circle class="st1" cx="411" cy="411.5" r="4.1"/>
	<circle class="st1" cx="427.8" cy="411.5" r="4.1"/>
	<circle class="st1" cx="310" cy="427.4" r="4.1"/>
	<circle class="st1" cx="326.9" cy="427.4" r="4.1"/>
	<circle class="st1" cx="343.7" cy="427.4" r="4.1"/>
	<circle class="st1" cx="360.5" cy="427.4" r="4.1"/>
	<circle class="st1" cx="377.3" cy="427.4" r="4.1"/>
	<circle class="st1" cx="394.2" cy="427.4" r="4.1"/>
	<circle class="st1" cx="411" cy="427.4" r="4.1"/>
	<circle class="st1" cx="427.8" cy="427.4" r="4.1"/>
	<circle class="st1" cx="310" cy="443.4" r="4.1"/>
	<circle class="st1" cx="326.9" cy="443.4" r="4.1"/>
	<circle class="st1" cx="343.7" cy="443.4" r="4.1"/>
	<circle class="st1" cx="360.5" cy="443.4" r="4.1"/>
	<circle class="st1" cx="377.3" cy="443.4" r="4.1"/>
	<circle class="st1" cx="394.2" cy="443.4" r="4.1"/>
	<circle class="st1" cx="411" cy="443.4" r="4.1"/>
	<circle class="st1" cx="427.8" cy="443.4" r="4.1"/>
	<circle class="st1" cx="310" cy="459.3" r="4.1"/>
	<circle class="st1" cx="326.9" cy="459.3" r="4.1"/>
	<circle class="st1" cx="343.7" cy="459.3" r="4.1"/>
	<circle class="st1" cx="360.5" cy="459.3" r="4.1"/>
	<circle class="st1" cx="377.3" cy="459.3" r="4.1"/>
	<circle class="st1" cx="394.2" cy="459.3" r="4.1"/>
	<circle class="st1" cx="411" cy="459.3" r="4.1"/>
	<circle class="st1" cx="427.8" cy="459.3" r="4.1"/>
	<circle class="st1" cx="310" cy="475.3" r="4.1"/>
	<circle class="st1" cx="326.9" cy="475.3" r="4.1"/>
	<circle class="st1" cx="343.7" cy="475.3" r="4.1"/>
	<circle class="st1" cx="360.5" cy="475.3" r="4.1"/>
	<circle class="st1" cx="377.3" cy="475.3" r="4.1"/>
	<circle class="st1" cx="394.2" cy="475.3" r="4.1"/>
	<circle class="st1" cx="411" cy="475.3" r="4.1"/>
	<circle class="st1" cx="427.8" cy="475.3" r="4.1"/>
	<circle class="st1" cx="310" cy="491.3" r="4.1"/>
	<circle class="st1" cx="326.9" cy="491.3" r="4.1"/>
	<circle class="st1" cx="343.7" cy="491.3" r="4.1"/>
	<circle class="st1" cx="360.5" cy="491.3" r="4.1"/>
	<circle class="st1" cx="377.3" cy="491.3" r="4.1"/>
	<circle class="st1" cx="394.2" cy="491.3" r="4.1"/>
	<circle class="st1" cx="411" cy="491.3" r="4.1"/>
	<circle class="st1" cx="427.8" cy="491.3" r="4.1"/>
	<circle class="st1" cx="310" cy="507.2" r="4.1"/>
	<circle class="st1" cx="326.9" cy="507.2" r="4.1"/>
	<circle class="st1" cx="343.7" cy="507.2" r="4.1"/>
	<circle class="st1" cx="360.5" cy="507.2" r="4.1"/>
	<circle class="st1" cx="377.3" cy="507.2" r="4.1"/>
	<circle class="st1" cx="394.2" cy="507.2" r="4.1"/>
	<circle class="st1" cx="411" cy="507.2" r="4.1"/>
	<circle class="st1" cx="427.8" cy="507.2" r="4.1"/>
	<circle class="st1" cx="310" cy="523.2" r="4.1"/>
	<circle class="st1" cx="326.9" cy="523.2" r="4.1"/>
	<circle class="st1" cx="343.7" cy="523.2" r="4.1"/>
	<circle class="st1" cx="360.5" cy="523.2" r="4.1"/>
	<circle class="st1" cx="377.3" cy="523.2" r="4.1"/>
	<circle class="st1" cx="394.2" cy="523.2" r="4.1"/>
	<circle class="st1" cx="411" cy="523.2" r="4.1"/>
	<circle class="st1" cx="427.8" cy="523.2" r="4.1"/>
</g>
</svg>
