<?xml version="1.0" encoding="UTF-8"?>
<!DOCTYPE svg PUBLIC "-//W3C//DTD SVG 1.1//EN" "http://www.w3.org/Graphics/SVG/1.1/DTD/svg11.dtd">
<!-- Creator: CorelDRAW X7 -->
<svg xmlns="http://www.w3.org/2000/svg" xml:space="preserve" width="26.0417in" height="11.4179in" version="1.1" style="shape-rendering:geometricPrecision; text-rendering:geometricPrecision; image-rendering:optimizeQuality; fill-rule:evenodd; clip-rule:evenodd"
viewBox="0 0 26042 11418"
 xmlns:xlink="http://www.w3.org/1999/xlink">
 <defs>
  <style type="text/css">
   <![CDATA[
    .fil37 {fill:none}
    .fil32 {fill:#FEFEFE}
    .fil0 {fill:#D7D9DA}
    .fil31 {fill:#C4C6C8}
    .fil67 {fill:#96989A}
    .fil42 {fill:#D7DF36}
    .fil41 {fill:#8FC74A}
    .fil40 {fill:#3AB778}
    .fil38 {fill:#307ABD}
    .fil39 {fill:#306BA4}
    .fil7 {fill:#17445A}
    .fil2 {fill:#F8CD2D}
    .fil3 {fill:#FF8201}
    .fil8 {fill:#FEFEFE;fill-rule:nonzero}
    .fil25 {fill:#FEFEFE;fill-rule:nonzero}
    .fil1 {fill:#C4C6C8;fill-rule:nonzero}
    .fil58 {fill:#FEE4C7;fill-rule:nonzero}
    .fil59 {fill:#FEE4C7;fill-rule:nonzero}
    .fil51 {fill:#FDCFA7;fill-rule:nonzero}
    .fil48 {fill:#FEC73E;fill-rule:nonzero}
    .fil10 {fill:#FCB62E;fill-rule:nonzero}
    .fil6 {fill:#FAB683;fill-rule:nonzero}
    .fil62 {fill:#FAB57B;fill-rule:nonzero}
    .fil13 {fill:#F79333;fill-rule:nonzero}
    .fil52 {fill:#F37875;fill-rule:nonzero}
    .fil53 {fill:#F1685E;fill-rule:nonzero}
    .fil27 {fill:#F39E39;fill-rule:nonzero}
    .fil5 {fill:#EF9B65;fill-rule:nonzero}
    .fil63 {fill:#E95F60;fill-rule:nonzero}
    .fil28 {fill:#E26161;fill-rule:nonzero}
    .fil23 {fill:#E0E1E0;fill-rule:nonzero}
    .fil14 {fill:#D54A4B;fill-rule:nonzero}
    .fil29 {fill:#CE504E;fill-rule:nonzero}
    .fil11 {fill:#CF7761;fill-rule:nonzero}
    .fil15 {fill:#C3403F;fill-rule:nonzero}
    .fil12 {fill:#C76C58;fill-rule:nonzero}
    .fil64 {fill:#C16853;fill-rule:nonzero}
    .fil24 {fill:#C9CAC9;fill-rule:nonzero}
    .fil22 {fill:#AB5C46;fill-rule:nonzero}
    .fil21 {fill:#9F4536;fill-rule:nonzero}
    .fil33 {fill:#BCBDBE;fill-rule:nonzero}
    .fil60 {fill:#9E4E3A;fill-rule:nonzero}
    .fil30 {fill:#984C3B;fill-rule:nonzero}
    .fil34 {fill:#AAAAAB;fill-rule:nonzero}
    .fil57 {fill:#74BCE8;fill-rule:nonzero}
    .fil66 {fill:#8480BC;fill-rule:nonzero}
    .fil17 {fill:#7FB54D;fill-rule:nonzero}
    .fil18 {fill:#70A04C;fill-rule:nonzero}
    .fil26 {fill:#6B974A;fill-rule:nonzero}
    .fil46 {fill:#4DB0CE;fill-rule:nonzero}
    .fil9 {fill:#4CA6D6;fill-rule:nonzero}
    .fil19 {fill:#464747;fill-rule:nonzero}
    .fil20 {fill:#393939;fill-rule:nonzero}
    .fil65 {fill:#6866AC;fill-rule:nonzero}
    .fil54 {fill:#34B2B9;fill-rule:nonzero}
    .fil44 {fill:#3AB778;fill-rule:nonzero}
    .fil55 {fill:#25A8AD;fill-rule:nonzero}
    .fil47 {fill:#349AB2;fill-rule:nonzero}
    .fil16 {fill:#3294BE;fill-rule:nonzero}
    .fil61 {fill:#3791BA;fill-rule:nonzero}
    .fil43 {fill:#307ABD;fill-rule:nonzero}
    .fil45 {fill:#1F685F;fill-rule:nonzero}
    .fil49 {fill:#004D71;fill-rule:nonzero}
    .fil36 {fill:#201E1E;fill-rule:nonzero}
    .fil35 {fill:#201E1E;fill-rule:nonzero}
    .fil4 {fill:black;fill-rule:nonzero}
    .fil56 {fill:#F8B815;fill-rule:nonzero}
    .fil50 {fill:#FAFAFA;fill-rule:nonzero}
   ]]>
  </style>
 </defs>
 <g id="Layer_x0020_1">
  <metadata id="CorelCorpID_0Corel-Layer"/>
  <polygon class="fil0" points="0,0 26042,0 26042,11418 0,11418 "/>
  <polygon class="fil1" points="23145,1687 20563,3453 19714,2211 22296,445 "/>
  <rect class="fil2" x="13533" y="8973" width="5108" height="758"/>
  <polygon class="fil3" points="12313,8239 12580,8206 14820,8206 14820,8973 12328,8973 12328,8516 "/>
  <path class="fil4" d="M12483 8377l50 0 0 292c0,28 1,49 5,60 3,11 8,20 16,27 8,8 17,13 28,16 11,2 30,4 57,4l47 0c27,0 47,-2 58,-4 11,-3 21,-8 29,-16 7,-6 12,-15 15,-27 3,-11 5,-31 5,-60l0 -292 49 0 0 298c0,57 -11,96 -33,119 -23,22 -62,33 -119,33l-54 0c-57,0 -97,-11 -119,-33 -22,-23 -34,-62 -34,-119l0 -298z"/>
  <polygon id="1" class="fil4" points="12946,8822 12946,8377 13022,8377 13263,8774 13263,8377 13312,8377 13312,8822 13236,8822 12995,8424 12995,8822 "/>
  <path id="2" class="fil4" d="M13420 8822l0 -445 215 0c56,0 95,11 118,33 22,22 33,60 33,115l0 147c0,55 -11,94 -34,116 -22,23 -61,34 -117,34l-215 0zm49 -44l158 0c43,0 72,-8 86,-22 15,-15 22,-42 22,-83l0 -144c0,-43 -7,-72 -22,-86 -14,-15 -43,-22 -86,-22l-158 0 0 357z"/>
  <polygon id="3" class="fil4" points="13880,8822 13880,8377 14192,8377 14192,8424 13929,8424 13929,8569 14184,8569 14184,8615 13929,8615 13929,8775 14192,8775 14192,8822 "/>
  <path id="4" class="fil4" d="M14462 8424l-142 0 0 178 142 0c37,0 61,-5 73,-14 11,-9 17,-25 17,-49l0 -52c0,-24 -5,-41 -17,-50 -11,-9 -35,-13 -73,-13zm-191 398l0 -445 201 0c50,0 84,7 103,22 19,15 29,41 29,79l0 67c0,24 -5,42 -15,55 -9,14 -24,22 -43,25 21,5 36,14 45,28 8,13 13,33 13,62l0 107 -52 0 0 -92c0,-32 -5,-53 -15,-65 -10,-11 -30,-17 -59,-17l-158 0 0 174 -49 0z"/>
  <path id="5" class="fil4" d="M13715 9274c0,-57 11,-96 33,-119 22,-22 60,-33 115,-33l52 0c55,0 94,9 116,29 22,19 33,52 33,98l0 19 -51 0 0 -12c0,-34 -7,-57 -20,-69 -14,-12 -41,-19 -81,-19l-35 0c-27,0 -46,2 -58,5 -13,4 -23,9 -31,17 -8,8 -14,17 -17,30 -4,12 -5,34 -5,67l0 126c0,33 1,55 5,67 3,13 9,22 17,30 8,8 18,13 30,17 11,3 31,5 59,5l35 0c41,0 68,-7 82,-20 13,-13 20,-38 20,-74 0,-6 0,-10 0,-13 0,-3 0,-6 -1,-9l51 0 0 30c0,49 -11,84 -32,103 -22,19 -60,29 -117,29l-52 0c-55,0 -93,-11 -115,-33 -22,-23 -33,-63 -33,-120l0 -151z"/>
  <path id="6" class="fil4" d="M14335 9168l-27 0c-31,0 -54,2 -67,6 -12,3 -24,9 -33,17 -9,7 -15,17 -18,30 -4,13 -6,35 -6,66l0 126c0,32 2,53 6,66 3,13 9,23 18,30 9,8 21,14 33,17 13,4 36,6 67,6l27 0c32,0 54,-2 67,-6 13,-3 24,-9 34,-17 8,-7 14,-17 18,-29 3,-13 5,-35 5,-67l0 -126c0,-32 -2,-54 -5,-66 -4,-13 -10,-23 -19,-31 -9,-8 -20,-13 -33,-17 -13,-3 -35,-5 -67,-5zm-202 107c0,-57 12,-97 36,-119 23,-23 65,-34 125,-34l56 0c61,0 102,11 126,33 23,22 35,62 35,120l0 150c0,58 -12,97 -36,120 -23,22 -65,33 -125,33l-56 0c-60,0 -102,-11 -125,-33 -24,-23 -36,-62 -36,-120l0 -150z"/>
  <polygon id="7" class="fil4" points="14604,9573 14604,9127 14680,9127 14921,9525 14921,9127 14970,9127 14970,9573 14894,9573 14653,9175 14653,9573 "/>
  <path id="8" class="fil4" d="M15066 9428l50 0 0 8c0,26 2,46 6,59 4,12 10,21 19,26 7,4 19,7 34,9 14,1 45,2 92,2 25,0 45,-1 59,-5 14,-3 24,-8 31,-16 4,-4 6,-10 8,-20 2,-10 3,-23 3,-39 0,-33 -3,-54 -10,-62 -7,-9 -20,-14 -40,-15l-137 -11c-41,-3 -69,-14 -85,-31 -16,-17 -24,-46 -24,-88 0,-26 3,-46 8,-62 5,-16 13,-29 25,-39 9,-8 22,-14 38,-17 16,-3 44,-5 85,-5l16 0c46,0 78,2 97,7 18,4 34,11 47,22 8,7 14,18 19,31 4,13 6,30 6,50 0,5 0,10 -1,13 0,3 0,6 0,8l-50 0 0 -11c0,-16 -1,-29 -2,-38 -2,-8 -5,-15 -10,-19 -6,-6 -17,-10 -33,-13 -16,-2 -46,-4 -90,-4 -46,0 -75,6 -86,16 -12,10 -18,31 -18,62 0,26 4,43 11,53 8,10 23,15 45,17l140 12c37,3 62,13 77,30 15,17 22,46 22,86 0,29 -2,51 -6,65 -3,15 -10,27 -18,37 -11,12 -26,20 -44,25 -18,5 -51,8 -100,8l-22 0c-41,0 -70,-2 -87,-7 -17,-4 -31,-11 -42,-21 -12,-10 -20,-23 -25,-39 -5,-17 -8,-37 -8,-63l0 -21z"/>
  <polygon id="9" class="fil4" points="15454,9175 15454,9127 15787,9127 15787,9175 15645,9175 15645,9573 15596,9573 15596,9175 "/>
  <path id="10" class="fil4" d="M16026 9175l-143 0 0 178 143 0c37,0 61,-5 72,-14 12,-9 18,-26 18,-49l0 -52c0,-24 -6,-41 -17,-50 -11,-9 -36,-13 -73,-13zm-192 398l0 -446 201 0c50,0 85,8 104,23 19,14 28,41 28,79l0 67c0,24 -5,42 -14,55 -10,14 -24,22 -43,25 21,5 36,14 44,27 9,14 13,34 13,63l0 107 -51 0 0 -92c0,-32 -5,-54 -16,-65 -10,-11 -29,-17 -59,-17l-158 0 0 174 -49 0z"/>
  <path id="11" class="fil4" d="M16258 9127l50 0 0 293c0,28 2,48 5,60 3,11 8,20 16,27 8,7 17,12 28,15 11,3 30,5 57,5l47 0c27,0 47,-2 58,-5 11,-3 21,-8 29,-15 7,-7 12,-16 15,-27 3,-11 5,-31 5,-60l0 -293 49 0 0 299c0,56 -11,96 -33,118 -23,23 -62,34 -119,34l-54 0c-57,0 -97,-11 -119,-34 -22,-22 -34,-62 -34,-118l0 -299z"/>
  <path id="12" class="fil4" d="M16707 9274c0,-57 11,-96 32,-119 22,-22 61,-33 116,-33l52 0c55,0 93,9 116,29 22,19 33,52 33,98l0 19 -51 0 0 -12c0,-34 -7,-57 -21,-69 -13,-12 -40,-19 -81,-19l-34 0c-27,0 -46,2 -59,5 -12,4 -22,9 -30,17 -9,8 -14,17 -18,30 -3,12 -5,34 -5,67l0 126c0,33 2,55 5,67 4,13 9,22 18,30 8,8 18,13 29,17 12,3 32,5 60,5l34 0c42,0 69,-7 83,-20 13,-13 20,-38 20,-74 0,-6 0,-10 0,-13 0,-3 -1,-6 -1,-9l51 0 0 30c0,49 -11,84 -32,103 -22,19 -61,29 -117,29l-52 0c-55,0 -94,-11 -116,-33 -21,-23 -32,-63 -32,-120l0 -151z"/>
  <polygon id="13" class="fil4" points="17079,9175 17079,9127 17412,9127 17412,9175 17270,9175 17270,9573 17220,9573 17220,9175 "/>
  <polygon id="14" class="fil4" points="17459,9573 17459,9127 17508,9127 17508,9573 "/>
  <path id="15" class="fil4" d="M17804 9168l-27 0c-32,0 -54,2 -67,6 -13,3 -24,9 -33,17 -9,7 -15,17 -19,30 -3,13 -5,35 -5,66l0 126c0,32 2,53 5,66 4,13 10,23 19,30 9,8 20,14 33,17 13,4 35,6 67,6l27 0c31,0 54,-2 67,-6 13,-3 24,-9 34,-17 8,-7 14,-17 18,-29 3,-13 5,-35 5,-67l0 -126c0,-32 -2,-54 -6,-66 -3,-13 -9,-23 -18,-31 -9,-8 -20,-13 -33,-17 -13,-3 -35,-5 -67,-5zm-202 107c0,-57 12,-97 35,-119 24,-23 66,-34 126,-34l56 0c60,0 102,11 125,33 24,22 35,62 35,120l0 150c0,58 -12,97 -35,120 -24,22 -65,33 -125,33l-56 0c-60,0 -102,-11 -126,-33 -23,-23 -35,-62 -35,-120l0 -150z"/>
  <polygon id="16" class="fil4" points="18072,9573 18072,9127 18148,9127 18390,9525 18390,9127 18439,9127 18439,9573 18363,9573 18121,9175 18121,9573 "/>
  <path class="fil1" d="M12466 7831c68,-3 112,52 -6,123 -35,21 -71,39 -105,55 147,2 276,9 276,9 0,0 100,18 -22,121 -122,102 -322,47 -593,97 -3,1 -5,1 -8,2 -54,67 -99,149 -93,232 2,25 5,46 9,64 79,26 165,16 280,-111 146,-162 269,-173 376,-171 138,3 73,84 -19,133 -124,65 -282,255 -434,514 -140,239 -402,241 -482,260 -82,19 -226,329 -375,713 52,42 92,108 130,211 -158,473 -187,882 -474,1336 -684,0 -769,-1 -1453,-1 432,-782 664,-965 923,-1591 84,0 161,-2 231,-4 225,-391 420,-753 501,-980 27,-78 274,-765 333,-874 77,-143 479,-320 479,-320 0,0 351,-98 451,-135 100,-36 166,5 58,124 -10,11 -22,21 -35,31l58 -3c114,-6 117,48 14,134 -14,12 -32,22 -51,32 10,0 21,0 31,-1z"/>
  <g id="_2413523536576">
   <path class="fil5" d="M12376 7886c68,-3 112,52 -6,123 -139,83 -283,124 -283,124 0,0 -276,193 -262,392 7,106 39,140 39,140 0,0 -308,-67 -323,-83 -16,-15 130,-487 412,-606 252,-107 316,-84 423,-90z"/>
   <path class="fil5" d="M12381 7721c114,-6 118,48 15,134 -103,85 -354,107 -354,107l-371 398 -166 -242 420 -370 456 -27z"/>
   <path class="fil6" d="M12490 8307c-108,-2 -231,9 -377,171 -146,163 -248,133 -345,82 -62,-34 -114,-218 157,-268 272,-51 472,4 593,-98 122,-102 22,-121 22,-121 0,0 -387,-21 -586,2 -199,23 -306,56 -306,56l294 -266c0,0 308,-53 416,-172 109,-119 43,-160 -58,-123 -100,36 -450,134 -450,134 0,0 -402,177 -479,320 -60,109 -306,796 -334,875 -194,548 -1063,1888 -1399,2518l1025 0c93,-287 686,-2155 892,-2203 79,-19 342,-21 481,-260 152,-259 310,-449 434,-514 92,-49 158,-130 20,-133z"/>
   <path class="fil5" d="M12451 8409c-15,-21 -11,-48 33,-56 45,-7 75,7 34,35 -40,28 -55,40 -67,21z"/>
   <path class="fil5" d="M12443 8088c42,0 104,-4 69,30 -30,29 -61,28 -89,29 -29,1 -32,-59 20,-59z"/>
   <polygon class="fil3" points="12313,8239 12580,8206 12317,8313 "/>
   <path class="fil7" d="M9395 11418c684,0 771,-1 1455,-1 288,-454 302,-806 459,-1279 -138,-383 -320,-256 -1004,-256 -258,626 -478,754 -910,1536z"/>
  </g>
  <path class="fil1" d="M15732 9138c-106,92 -308,390 -308,390 0,0 129,-359 209,-565 81,-206 -71,-171 -144,-54 -60,97 -249,541 -249,541 0,0 52,-422 94,-609 43,-193 -40,-238 -139,-41 -58,115 -170,597 -170,597 0,0 4,-276 19,-499 16,-234 -107,-194 -152,-41 -46,152 -87,940 -221,963 -187,33 -264,-302 -350,-368 -148,-113 -296,-97 -168,94 68,101 183,357 197,639 13,243 150,496 150,496 48,132 59,500 64,737l724 0c-60,-243 -134,-624 -130,-681 6,-89 45,-118 130,-339 49,-127 141,-439 271,-702 94,-189 232,-413 266,-462 93,-132 31,-203 -93,-96z"/>
  <path class="fil1" d="M6126 9043c40,-108 -53,-242 -208,-299 -154,-57 -312,-15 -352,93 -40,108 54,241 208,298 155,57 312,16 352,-92zm729 1536c-278,-48 -575,-165 -847,-329l-1401 861 -3155 0 -104 -170c-22,44 -43,84 -61,116 -16,28 -30,45 -44,54l-2 0c-5,-16 -6,-38 0,-70 9,-55 24,-127 41,-207l-323 -526c-57,247 -155,568 -212,730 -12,33 -24,52 -36,63 -8,-15 -13,-37 -13,-71 3,-202 30,-629 72,-881 6,-34 13,-72 21,-114l-791 -1286 0 -1904 3002 -1845 2160 3512c118,-205 241,-188 414,-143l0 0c74,19 158,42 254,56 569,77 91,-541 527,-533 507,10 1297,697 1520,1219 69,163 174,476 51,831 -136,391 -538,727 -1070,637l-3 0z"/>
  <path class="fil1" d="M6060 7061c0,-252 204,-457 456,-457 252,0 457,205 457,457 0,252 -205,456 -457,456 -252,0 -456,-204 -456,-456z"/>
  <path class="fil1" d="M8450 9135c0,-252 205,-456 457,-456 252,0 456,204 456,456 0,252 -204,457 -456,457 -252,0 -457,-205 -457,-457z"/>
  <path class="fil1" d="M8170 10485c0,-252 204,-457 456,-457 252,0 457,205 457,457 0,252 -205,456 -457,456 -252,0 -456,-204 -456,-456z"/>
  <path class="fil1" d="M3975 5573c-252,0 -456,-204 -456,-456 0,-253 204,-457 456,-457 252,0 456,204 456,457 0,252 -204,456 -456,456z"/>
  <path class="fil1" d="M5168 5879c0,-252 205,-457 457,-457 252,0 456,205 456,457 0,252 -204,456 -456,456 -252,0 -457,-204 -457,-456z"/>
  <path class="fil1" d="M4795 7211c0,-252 204,-456 456,-456 252,0 457,204 457,456 0,252 -205,457 -457,457 -252,0 -456,-205 -456,-457z"/>
  <polygon class="fil8" points="1552,11418 0,8894 0,6947 2982,5113 6150,10264 4273,11418 "/>
  <path class="fil9" d="M2802 11418c-2,-58 5,-116 9,-174 12,-152 -64,-228 -201,-276 -129,-46 -208,-102 -270,-229 -42,-84 -54,-184 -71,-276 -31,-160 -96,-270 -223,-373 -157,-129 -292,-230 -381,-418 -93,-197 -101,-422 -109,-636 -16,-412 -587,-564 -611,-962 -45,-716 -235,-786 -282,-894 -25,-57 -9,-133 55,-157 103,-38 198,5 263,89 84,109 -6,314 211,654 88,138 171,93 268,101 379,31 386,543 402,904 11,247 65,439 238,620 111,115 233,213 324,345 112,162 102,346 134,531 45,250 288,256 449,391 256,215 224,548 134,760l-339 0z"/>
  <path class="fil10" d="M3316 9133c20,-137 78,-284 195,-367 129,-91 322,-25 419,76 118,122 143,376 15,500 -156,151 -302,20 -230,-175 17,-45 61,-38 51,8 -13,44 -6,87 20,130 73,119 157,-123 161,-144 15,-68 -4,-138 -31,-199 -52,-122 -210,-205 -331,-134 -168,98 -179,385 -168,553 7,87 27,175 70,251 116,203 344,117 469,-16 239,-253 284,-714 73,-992 -31,-41 7,-62 41,-25 180,192 202,429 150,669 -46,210 -189,491 -413,556 -421,121 -533,-398 -491,-691z"/>
  <path class="fil10" d="M3409 8632c-83,-127 -157,-247 -214,-393 -14,-35 34,-68 55,-37 88,125 161,272 209,416 13,41 -25,52 -50,14z"/>
  <path class="fil10" d="M3087 9022c-74,-35 -167,-92 -226,-149 -50,-50 14,-61 49,-47 76,31 165,99 224,170 25,29 -12,42 -47,26z"/>
  <path class="fil10" d="M3770 8439c-11,-102 -31,-265 -20,-367 9,-76 60,-45 65,-2 12,102 -1,253 8,356 4,43 -48,57 -53,13z"/>
  <path class="fil10" d="M4599 9573c-62,-40 -166,-128 -239,-146 -37,-8 -22,-58 41,-38 79,26 149,64 219,106 87,54 16,103 -21,78z"/>
  <path class="fil10" d="M4393 10230c-83,-118 -122,-283 -221,-390 -29,-32 2,-72 31,-41 103,107 169,251 245,375 39,63 -5,128 -55,56z"/>
  <path class="fil10" d="M3775 10432c-20,-106 -2,-246 1,-353 1,-43 46,-49 46,-7 2,102 6,247 20,349 6,43 -59,54 -67,11z"/>
  <path class="fil10" d="M3068 10075c51,-92 89,-208 162,-286 27,-29 57,11 35,42 -61,84 -94,214 -162,291 -50,58 -69,14 -35,-47z"/>
  <path class="fil11" d="M6882 9572c-103,-210 -494,-646 -947,-814 -220,-82 -327,-188 -379,-276 75,19 158,43 255,56 569,78 90,-540 526,-532 507,10 1298,697 1520,1219 70,163 175,476 51,831 -136,391 -537,727 -1070,637l-2 0c368,-291 138,-934 46,-1121z"/>
  <path class="fil12" d="M5547 8950c-40,108 53,242 208,299 154,57 312,16 352,-92 39,-108 -54,-242 -208,-299 -155,-57 -312,-16 -352,92zm9 -468c52,88 159,194 379,276 453,168 844,604 947,814 49,99 135,324 153,557 -36,-29 -93,-30 -158,11 -69,43 -164,-22 -192,23 -39,65 -59,138 -5,199 13,15 35,28 53,35 51,19 86,54 115,100 10,15 42,32 60,30 32,-1 52,-13 77,-30 -32,74 -80,141 -149,196 -937,-160 -2099,-1119 -1751,-1951 137,-327 271,-311 471,-260z"/>
  <path class="fil10" d="M7552 9965c-63,-34 -135,-24 -168,-26 -162,-10 -60,-114 -31,-156 34,-49 22,-130 15,-198 41,-8 93,6 134,4 116,-5 154,101 155,199 0,46 15,93 25,139 -27,47 -78,66 -130,38z"/>
  <path class="fil13" d="M7676 10071c-31,63 -108,41 -150,11 -59,-43 -109,-46 -178,-55 -32,-4 -61,-15 -87,-34 -40,-29 -25,-88 -11,-126 12,-33 28,-64 39,-98 15,-44 3,-93 21,-136 12,-30 33,-43 58,-48 7,68 19,149 -15,198 -29,42 -131,146 31,156 33,2 105,-8 168,26 52,28 103,9 130,-38 10,49 16,97 -6,144z"/>
  <path class="fil14" d="M7356 9234c-69,-1 -112,-33 -146,-93 -25,-45 -125,-119 -130,-161 -3,-19 -5,-56 -14,-89 48,-50 117,-90 175,-88 74,4 118,66 133,128 16,70 23,109 83,161 28,24 64,54 74,91 2,10 4,20 5,29 -26,40 -143,22 -180,22z"/>
  <path class="fil15" d="M7456 9307c-48,7 -89,7 -136,25 -32,12 -62,20 -97,17 -81,-6 -95,-101 -113,-162 -23,-77 -127,-141 -87,-233 10,-21 25,-43 43,-63 9,33 11,70 14,89 5,42 105,116 130,161 34,60 77,92 146,93 37,0 154,18 180,-22 5,51 -20,87 -80,95z"/>
  <path class="fil9" d="M6820 8606c-53,44 -59,150 -145,132 -64,-13 -159,-61 -198,-116 -44,-62 52,-113 73,-172 8,-22 3,-97 -14,-154 16,1 32,4 49,10 70,25 130,76 192,116 55,37 153,28 167,113 3,22 -2,46 -16,62 -40,2 -93,-3 -108,9z"/>
  <path class="fil16" d="M6829 8671c11,139 -80,130 -171,96 -98,-38 -285,-58 -290,-165 -4,-78 118,-105 111,-174 -3,-26 -21,-48 -12,-83 11,-37 38,-50 69,-49 17,57 22,132 14,154 -21,59 -117,110 -73,172 39,55 124,83 187,96 86,18 115,-93 131,-160 15,-63 93,41 133,39 -5,6 -11,10 -18,13 -31,14 -85,15 -81,61z"/>
  <path class="fil17" d="M6987 10431c-88,37 -84,-28 -124,-63 -55,-50 -143,-52 -91,-176 7,-16 10,-27 11,-39 31,4 65,5 94,-13 65,-41 122,-40 158,-11 12,10 22,23 29,39 21,50 27,99 79,130 30,18 59,30 81,57 20,23 11,54 -9,75 -43,-6 -105,-37 -134,-38 -37,-1 -62,26 -94,39z"/>
  <path class="fil18" d="M6992 10492l-7 5c-25,17 -45,29 -77,30 -18,2 -50,-15 -60,-30 -29,-46 -64,-81 -115,-100 -18,-7 -40,-20 -53,-35 -54,-61 -34,-134 5,-199 16,-26 55,-16 98,-10 -1,12 -4,23 -11,39 -52,124 36,126 91,176 40,35 36,100 124,63 32,-13 57,-40 94,-39 29,1 91,32 134,38 -12,12 -26,21 -41,23 -65,10 -125,-2 -182,39z"/>
  <path class="fil19" d="M6090 9847c-39,-50 -76,-31 -103,-110 -10,-27 -18,-58 -30,-86 21,-28 48,-45 81,-27 217,121 237,0 313,78 69,71 -52,150 -17,195 18,24 60,48 79,77 -46,28 -151,49 -184,69 -89,52 -106,-153 -139,-196z"/>
  <path class="fil20" d="M6404 10043c-7,7 -16,15 -26,18 -53,11 -96,24 -137,62 -30,28 -83,22 -118,15 -88,-16 -102,-104 -86,-176 22,-101 -152,-129 -115,-241 7,-22 19,-49 35,-70 12,28 20,59 30,86 27,79 64,60 103,110 33,43 50,248 139,196 33,-20 138,-41 184,-69 13,20 16,43 -9,69z"/>
  <path class="fil14" d="M7234 8732c-7,37 -59,62 -93,58 -42,-6 -91,-51 -63,-90 56,-77 162,-4 156,32z"/>
  <path class="fil9" d="M6328 8279c28,8 92,66 35,150 -15,22 -55,31 -80,22 -25,-9 -27,-33 -27,-55 1,-14 2,-28 -2,-42 -4,-12 -8,-31 -2,-44 13,-30 46,-40 76,-31z"/>
  <path class="fil21" d="M1045 8864c8,-7 34,-63 55,-31 41,64 81,18 123,-1 3,62 -30,125 -79,174 -70,69 -75,106 -121,-61 -6,-23 -9,-45 -9,-67 12,-2 21,-6 31,-14z"/>
  <path class="fil9" d="M1184 8573c0,0 -38,86 21,193 11,22 17,44 18,66 -42,19 -82,65 -123,1 -21,-32 -47,24 -55,31 -10,8 -19,12 -31,14 -3,-178 170,-305 170,-305z"/>
  <path class="fil22" d="M1044 9242l65 12c0,0 -83,727 -144,1048 -48,251 -170,660 -238,850 -11,32 -23,52 -36,62l353 -1972z"/>
  <path class="fil21" d="M1044 9242l-66 -12c0,0 -174,712 -227,1033 -43,252 -70,679 -72,881 0,34 5,56 12,70l353 -1972z"/>
  <polygon class="fil23" points="1018,9384 1092,9397 1141,9009 1087,9000 "/>
  <polygon class="fil24" points="1018,9384 945,9371 1033,8990 1087,9000 "/>
  <path class="fil21" d="M1949 8963c9,-6 44,-57 59,-22 30,70 77,31 122,19 -7,62 -50,118 -107,159 -80,57 -91,93 -109,-79 -3,-24 -2,-47 2,-68 11,0 21,-2 33,-9z"/>
  <path class="fil10" d="M2132 8698c0,0 -51,79 -10,194 8,23 10,46 8,68 -45,12 -92,51 -122,-19 -15,-35 -50,16 -59,22 -12,7 -22,9 -33,9 25,-176 216,-274 216,-274z"/>
  <path class="fil22" d="M1887 9336l62 22c0,0 -198,705 -310,1011 -88,240 -274,625 -371,802 -17,30 -32,46 -46,55l665 -1890z"/>
  <path class="fil21" d="M1887 9336l-63 -22c0,0 -286,674 -391,983 -82,242 -177,658 -212,857 -6,34 -4,57 1,72l665 -1890z"/>
  <polygon class="fil23" points="1839,9472 1909,9497 2020,9122 1968,9104 "/>
  <polygon class="fil24" points="1839,9472 1768,9447 1917,9086 1968,9104 "/>
  <path class="fil25" d="M6448 7584c252,0 456,-205 456,-457 0,-252 -204,-456 -456,-456 -252,0 -457,204 -457,456 0,252 205,457 457,457z"/>
  <path class="fil17" d="M6283 7423c-104,-58 -174,-169 -174,-296 0,-187 152,-339 339,-339 117,0 219,59 280,149 -196,-9 -518,42 -445,486z"/>
  <path class="fil26" d="M6448 7466c-60,0 -116,-16 -165,-43 -73,-444 249,-495 445,-486 37,54 59,120 59,190 0,187 -152,339 -339,339z"/>
  <path class="fil25" d="M8838 9658c252,0 457,-204 457,-456 0,-252 -205,-457 -457,-457 -252,0 -456,205 -456,457 0,252 204,456 456,456z"/>
  <path class="fil19" d="M8673 9498c-104,-58 -174,-169 -174,-296 0,-187 152,-339 339,-339 117,0 220,59 281,149 -197,-9 -518,42 -446,486z"/>
  <path class="fil20" d="M8838 9541c-60,0 -116,-16 -165,-43 -72,-444 249,-495 446,-486 36,54 58,119 58,190 0,187 -152,339 -339,339z"/>
  <path class="fil25" d="M8558 11008c252,0 456,-204 456,-457 0,-252 -204,-456 -456,-456 -253,0 -457,204 -457,456 0,253 204,457 457,457z"/>
  <path class="fil9" d="M8393 10847c-104,-58 -174,-168 -174,-296 0,-187 151,-338 339,-338 116,0 219,59 280,148 -196,-8 -518,43 -445,486z"/>
  <path class="fil16" d="M8558 10890c-60,0 -117,-15 -165,-43 -73,-443 249,-494 445,-486 37,55 58,120 58,190 0,188 -151,339 -338,339z"/>
  <path class="fil25" d="M3906 5640c253,0 457,-205 457,-457 0,-252 -204,-456 -457,-456 -252,0 -456,204 -456,456 0,252 204,457 456,457z"/>
  <path class="fil10" d="M3741 5479c-103,-58 -173,-169 -173,-296 0,-187 151,-339 338,-339 117,0 220,59 281,149 -196,-9 -518,42 -446,486z"/>
  <path class="fil27" d="M3906 5522c-60,0 -116,-16 -165,-43 -72,-444 250,-495 446,-486 37,54 58,120 58,190 0,187 -151,339 -339,339z"/>
  <path class="fil25" d="M5556 6402c252,0 457,-205 457,-457 0,-252 -205,-456 -457,-456 -252,0 -456,204 -456,456 0,252 204,457 456,457z"/>
  <path class="fil28" d="M5391 6241c-103,-58 -173,-169 -173,-296 0,-187 151,-339 338,-339 117,0 220,59 281,149 -196,-9 -518,42 -446,486z"/>
  <path class="fil29" d="M5556 6284c-60,0 -116,-16 -165,-43 -72,-444 250,-495 446,-486 37,54 58,120 58,190 0,187 -151,339 -339,339z"/>
  <path class="fil25" d="M5183 7734c252,0 456,-204 456,-456 0,-252 -204,-457 -456,-457 -253,0 -457,205 -457,457 0,252 204,456 457,456z"/>
  <path class="fil22" d="M5018 7573c-104,-58 -174,-168 -174,-295 0,-187 151,-339 339,-339 116,0 219,59 280,149 -196,-9 -518,42 -445,485z"/>
  <path class="fil30" d="M5183 7616c-60,0 -117,-15 -165,-43 -73,-443 249,-494 445,-485 37,54 58,119 58,190 0,187 -151,338 -338,338z"/>
  <path class="fil1" d="M18109 5355c-34,-49 -167,-276 -257,-467 -125,-265 -211,-579 -257,-707 -80,-222 -119,-252 -124,-342 -20,-420 474,-2330 591,-2878l-964 286c-50,475 -162,2314 -285,2635 0,0 -143,250 -160,493 -20,282 -140,535 -210,635 -132,189 16,207 166,98 87,-64 171,-399 358,-362 133,27 158,814 201,968 42,153 164,196 153,-38 -11,-224 -9,-499 -9,-499 0,0 102,484 158,600 95,199 179,155 139,-38 -38,-188 -81,-611 -81,-611 0,0 180,448 238,545 70,119 221,158 145,-50 -76,-208 -198,-569 -198,-569 0,0 196,302 301,396 121,109 185,39 95,-95z"/>
  <path class="fil31" d="M17025 -2c528,0 723,0 1252,0 -227,1192 -203,2079 -340,2532 -611,482 -942,399 -1294,129 11,-525 216,-1852 382,-2661z"/>
  <rect class="fil32" x="14904" y="5515" width="2057" height="880"/>
  <path class="fil1" d="M14900 2008c-99,46 -251,-54 -204,-204 19,-63 56,-153 102,-233 17,9 27,16 27,16 106,124 181,199 301,-42 15,-32 30,-64 43,-98 14,14 26,29 34,44 49,97 -204,470 -303,517zm-323 -2c7,11 16,22 25,33 -115,123 -263,-3 -265,-4 -20,-33 -30,-77 -20,-132 12,-1 23,-3 35,-5 99,-19 194,-192 244,-392l0 0c30,2 58,8 83,15 -93,190 -149,410 -102,485zm-457 -293c-63,-141 13,-537 108,-609 1,60 9,121 27,180 39,128 -144,146 10,291 50,47 114,8 186,-28 -15,46 -32,88 -49,122 -68,142 -237,144 -282,44zm1101 -427c42,-176 38,-359 -51,-512 -97,-166 167,-562 324,-774l-756 0c-78,110 -150,214 -181,268 -62,109 -262,380 -316,680 -46,9 -87,30 -115,70 -149,211 -227,743 -52,839 19,10 43,19 70,27 -9,69 -13,213 71,310 -164,217 -457,608 -630,872 -127,192 -139,319 -121,407 17,87 62,126 62,126l715 -1113 -357 1249c0,0 34,6 83,-10 82,-26 208,-111 292,-385 97,-317 174,-809 209,-1055 151,-14 234,-86 276,-144 23,11 45,19 64,24 194,49 499,-394 534,-650 13,-100 -44,-177 -121,-229z"/>
  <path class="fil33" d="M13895 3625c-22,42 -40,75 -54,101 83,-26 209,-111 293,-385 133,-436 229,-1204 229,-1204 0,0 -216,-45 -169,-248 -40,1 -169,-44 -169,-44 0,0 -69,300 139,409l87 -3c0,0 -243,1165 -356,1374z"/>
  <path class="fil34" d="M13758 3736c0,0 34,6 83,-10 14,-26 32,-59 54,-101 113,-209 356,-1374 356,-1374l-87 3c5,2 11,5 16,7l-422 1475z"/>
  <path class="fil24" d="M14243 2288l1 -1c10,2 20,4 29,3 323,5 387,-226 387,-226 0,0 -115,-53 -142,-83 -117,217 -306,55 -306,55 0,0 -502,649 -753,1031 -127,193 -139,319 -121,407 18,87 62,126 62,126l843 -1312z"/>
  <path class="fil34" d="M14209 2227c-29,-17 -39,-55 -22,-84 17,-29 55,-38 84,-21 29,17 38,54 21,83 -17,29 -54,39 -83,22z"/>
  <path class="fil29" d="M14570 1805c34,-110 119,-299 212,-378 97,-83 252,-20 296,65 49,97 -204,470 -303,517 -99,46 -251,-54 -205,-204zm-118 202c51,82 163,142 231,159 193,49 498,-394 533,-650 29,-214 -263,-325 -393,-303 -198,32 -457,657 -371,794z"/>
  <path class="fil29" d="M13994 1714c-66,-148 22,-581 124,-618 90,-33 235,45 250,173 14,120 -41,298 -91,402 -68,141 -238,143 -283,43zm-45 144c61,34 182,59 277,41 159,-30 307,-456 276,-751 -14,-131 -377,-306 -501,-129 -149,211 -228,743 -52,839z"/>
  <path class="fil6" d="M15369 0l-756 0c-78,110 -150,215 -181,270 -85,148 -428,599 -302,1015 39,128 -144,146 9,291 83,78 202,-78 332,-69 129,10 228,82 228,82 107,123 181,198 301,-43 120,-241 179,-540 44,-771 -96,-166 168,-563 325,-775z"/>
  <g id="_2413523515232">
   <polygon class="fil35" points="12194,6183 12365,6183 12365,5269 12194,5269 "/>
   <path class="fil35" d="M13332 6068c-94,93 -215,136 -347,136 -340,0 -483,-234 -485,-471 -1,-239 154,-482 485,-482 124,0 241,47 335,140l-115 111c-60,-59 -141,-87 -220,-87 -221,0 -316,165 -315,318 1,151 89,309 315,309 79,0 169,-33 229,-93l118 119z"/>
   <path class="fil35" d="M14007 5490c-32,-52 -118,-102 -217,-102 -128,0 -189,54 -189,121 0,80 94,102 203,115 191,24 368,73 368,291 0,204 -180,292 -383,292 -187,0 -331,-58 -398,-225l143 -74c41,100 146,145 257,145 109,0 210,-38 210,-138 0,-86 -90,-121 -211,-134 -187,-22 -359,-72 -359,-277 0,-188 185,-265 354,-266 142,0 290,40 359,181l-137 71z"/>
   <path class="fil35" d="M14542 5426l-290 0 0 -157c264,0 487,0 752,0l0 157 -290 0 0 757 -172 0 0 -757z"/>
  </g>
  <g id="_2413523547392">
   <path class="fil36" d="M12371 4944l0 150c0,48 -32,76 -90,76 -59,0 -90,-28 -90,-76l0 -150c0,-5 4,-7 13,-7l3 0c9,0 13,2 13,7l0 151c0,30 26,50 61,50 35,0 61,-21 61,-50l0 -151c0,-5 4,-7 13,-7l3 0c9,0 13,2 13,7z"/>
   <path class="fil36" d="M12812 4956c0,5 -7,19 -12,19 -3,0 -19,-15 -51,-15 -58,0 -77,34 -77,92 0,50 15,93 74,93 17,0 33,-2 42,-4l0 -67 -38 0c-5,0 -7,-3 -7,-10l0 -5c0,-7 2,-10 7,-10l57 0c7,0 10,3 10,10l0 88c0,18 -36,23 -73,23 -66,0 -102,-37 -102,-115 0,-82 38,-120 107,-120 32,0 63,12 63,21z"/>
   <path class="fil36" d="M13318 4944l0 218c0,4 -4,7 -14,7l-2 0c-9,0 -13,-3 -13,-7l0 -178 -1 1 -65 115 -8 4 -13 0 -7 -4 -67 -117 0 -1 0 180c0,4 -4,7 -14,7l-2 0c-9,0 -13,-3 -13,-7l0 -218c0,-5 4,-7 13,-7l12 0c8,0 12,2 14,6l62 108 9 21 8 -19 63 -110c2,-4 6,-6 14,-6l10 0c10,0 14,2 14,7z"/>
  </g>
  <polygon class="fil37" points="10549,5052 9339,5703 11758,7003 "/>
  <polygon class="fil38" points="11758,4402 10549,5052 11758,7003 "/>
  <polygon class="fil39" points="10549,5052 9339,5703 11758,7003 "/>
  <polygon class="fil40" points="9330,7016 10159,5703 10702,5987 "/>
  <polygon class="fil41" points="11334,6319 10159,5703 11243,5703 "/>
  <polygon class="fil37" points="10154,5789 11242,5719 "/>
  <polygon class="fil37" points="10154,5789 11242,5719 "/>
  <polygon class="fil42" points="12096,4730 10159,5703 11243,5703 "/>
  <polygon class="fil37" points="10154,5789 11242,5719 "/>
  <polygon class="fil37" points="10154,5789 11242,5719 "/>
  <path class="fil4" d="M15154 6177l0 -75c0,-24 2,-42 5,-56 4,-13 10,-25 18,-34 8,-10 17,-17 29,-24 12,-6 32,-13 59,-20l101 -28c15,-4 28,-9 38,-14 10,-5 17,-10 21,-16 2,-4 4,-10 5,-17 2,-7 2,-21 2,-42 0,-22 -1,-37 -4,-45 -3,-9 -8,-16 -14,-21 -6,-4 -18,-8 -36,-10 -18,-2 -42,-3 -74,-3 -43,0 -70,5 -82,14 -12,10 -17,30 -17,60l0 27 -51 0 0 -30c0,-44 10,-74 31,-91 21,-17 62,-26 122,-26 35,0 61,1 78,3 17,1 30,4 39,8 22,10 37,22 45,38 8,15 12,42 12,80 0,42 -6,72 -18,88 -13,17 -36,30 -71,40l-124 35c-27,7 -44,16 -52,24 -8,9 -11,22 -11,40l0 48 276 0 0 47 -327 0z"/>
  <path id="1" class="fil4" d="M15710 6137l40 0c23,0 40,-2 51,-5 10,-3 19,-8 26,-16 7,-7 12,-16 15,-27 3,-11 4,-31 4,-60l0 -7 0 -142c0,-28 -1,-48 -4,-60 -3,-11 -8,-20 -15,-27 -7,-8 -16,-13 -28,-16 -11,-3 -27,-5 -49,-5l-40 0c-23,0 -41,2 -51,5 -11,3 -20,8 -26,15 -7,8 -12,17 -15,28 -3,11 -4,31 -4,60l0 7 0 142c0,28 1,48 4,60 3,11 8,20 15,27 6,8 15,13 26,16 10,3 28,5 51,5zm-1 45c-55,0 -93,-11 -114,-33 -22,-22 -32,-62 -32,-119l0 -151c0,-57 10,-97 32,-119 21,-23 59,-34 114,-34l42 0c55,0 92,11 114,34 21,22 32,62 32,119l0 151c0,57 -11,97 -32,119 -22,22 -59,33 -114,33l-42 0z"/>
  <polygon id="2" class="fil4" points="16155,6177 16155,5776 16051,5881 16020,5851 16139,5732 16204,5732 16204,6177 "/>
  <path id="3" class="fil4" d="M16435 5838l0 63c0,24 6,40 19,48 12,8 44,12 96,12 30,0 53,-2 68,-5 15,-3 26,-9 33,-16 5,-5 9,-13 11,-22 2,-10 3,-25 3,-46 0,-20 -1,-35 -3,-45 -1,-11 -4,-19 -7,-23 -8,-11 -20,-19 -35,-23 -15,-4 -44,-6 -85,-6 -42,0 -69,4 -82,12 -12,8 -18,25 -18,51zm277 19l0 205c0,44 -10,75 -30,94 -19,18 -53,27 -101,27l-69 0c-46,0 -79,-8 -98,-23 -20,-15 -30,-40 -30,-74l0 -24 50 0 0 14c0,24 6,40 19,48 13,8 42,13 87,13 31,0 54,-1 68,-3 15,-2 25,-5 32,-10 7,-4 13,-12 18,-23 5,-10 7,-22 7,-34l0 -107c-8,17 -21,28 -39,35 -18,7 -47,10 -88,10 -56,0 -95,-6 -118,-20 -23,-14 -34,-37 -34,-69l0 -82c0,-21 3,-39 9,-54 6,-14 15,-26 27,-34 12,-7 26,-12 43,-15 18,-3 48,-5 92,-5 59,0 99,10 121,29 23,19 34,53 34,102z"/>
  <polygon class="fil1" points="20217,10228 20973,10444 21528,10603 22284,10819 22155,10907 22218,11050 21462,10834 20907,10675 20151,10459 20281,10371 "/>
  <polygon class="fil1" points="24259,8792 24335,8673 24383,8805 24520,8840 24409,8927 24418,9068 24301,8990 24170,9042 24208,8906 24119,8798 "/>
  <polygon class="fil1" points="22376,10410 22389,10270 22493,10365 22630,10334 22571,10462 22643,10583 22503,10566 22411,10672 22383,10534 22253,10479 "/>
  <polygon class="fil1" points="20023,9570 20127,9666 20264,9635 20205,9763 20277,9884 20137,9867 20045,9973 20017,9835 19888,9779 20010,9710 "/>
  <polygon class="fil1" points="24896,9020 24963,8941 24985,9042 25080,9081 24991,9133 24983,9235 24906,9167 24806,9191 24848,9097 24794,9009 "/>
  <polygon class="fil1" points="20095,8847 20163,8770 20183,8871 20277,8912 20187,8962 20176,9064 20101,8994 20001,9016 20045,8923 19993,8834 "/>
  <polygon class="fil1" points="20522,9473 20423,9446 20505,9384 20499,9281 20584,9339 20680,9303 20651,9401 20715,9481 20613,9484 20556,9570 "/>
  <polygon class="fil1" points="20687,10007 20764,9939 20771,10042 20859,10095 20763,10133 20740,10233 20675,10153 20572,10162 20627,10075 20587,9981 "/>
  <polygon class="fil1" points="24354,9452 24337,9351 24428,9399 24519,9351 24502,9452 24575,9524 24473,9539 24428,9631 24382,9539 24281,9524 "/>
  <path class="fil1" d="M23148 10091c0,0 4,-12 12,-35l-16 0 4 35zm475 -68c37,22 66,33 88,40 6,-42 3,-94 -13,-160 -51,-212 9,-320 72,-407l0 -1 -39 -79 -38 -6c11,133 -99,249 -200,433 25,73 66,143 130,180zm58 121c-26,23 -54,49 -80,72 31,-19 60,-41 80,-72zm1389 -1894c13,-34 -25,-92 -91,-160l-385 264c119,-22 411,63 476,-104zm-374 -718l87 128c65,41 108,68 108,68 0,0 -94,-92 -195,-196zm-4271 144l-745 -342 917 -1999 423 194 1115 -1505 470 349 1326 -1183 1118 1252 -144 -778 50 -10 51 -9 175 945 861 965 0 46 -1619 1444 -261 -292 253 368c10,-43 74,-28 161,55 138,133 472,396 472,396 0,0 -282,-392 -333,-493 -63,-123 -14,-271 120,-96 135,176 375,473 375,473 0,0 -150,-328 -174,-467 -27,-160 66,-177 131,-29 24,54 143,289 257,467 157,247 376,487 460,596 84,108 121,170 151,213l0 739c-125,-64 -243,-117 -317,-132 0,0 -288,-14 -502,-129 -249,-134 -528,-168 -649,-163 -128,6 -165,-33 -143,-81l-1031 707c1,18 0,37 -3,57 6,-9 11,-17 17,-27 36,-58 106,-63 98,75 -5,85 -21,166 -35,223 73,-103 135,-183 135,-183 0,0 51,-51 76,28l21 -21 -17 -101 91 48 91 -48 -17 101 73 72 -101 15 -23 46c58,-52 79,35 69,125 -16,139 51,377 179,648 118,250 -28,468 -58,544 -13,34 141,325 317,639l-672 0c-102,-208 -182,-368 -198,-390 -49,-67 -476,-659 -533,-769 -74,-145 7,-576 7,-576 0,0 38,-112 76,-228l-750 514 229 87 -85 72 16 111 -357 -135 -341 234 -337 -492 -437 -165 86 -73 -16 -111 173 66 -1117 -1630 375 -257z"/>
  <polygon class="fil43" points="24314,7039 25955,5575 23821,3183 22180,4648 "/>
  <polygon class="fil44" points="23291,7693 24600,5926 22025,4018 20716,5785 "/>
  <polygon class="fil45" points="22483,8665 23400,6666 20487,5329 19570,7328 "/>
  <polygon class="fil46" points="22119,11092 21363,10876 20808,10717 20052,10500 20182,10413 22056,10949 "/>
  <polygon class="fil47" points="20874,10486 21429,10645 22185,10861 22056,10949 20182,10413 20119,10270 "/>
  <polygon class="fil48" points="24280,8673 24205,8792 24064,8798 24154,8906 24116,9042 24247,8990 24364,9068 24355,8927 24466,8840 24329,8805 "/>
  <polygon class="fil48" points="22310,10278 22297,10418 22174,10487 22304,10543 22331,10681 22424,10575 22564,10591 22492,10470 22551,10342 22414,10373 "/>
  <polygon class="fil48" points="19966,9590 19953,9730 19830,9799 19960,9855 19987,9993 20080,9887 20220,9903 20148,9782 20207,9654 20069,9686 "/>
  <polygon class="fil48" points="24746,9017 24800,9105 24758,9199 24858,9174 24935,9243 24943,9140 25032,9089 24937,9050 24915,8949 24848,9027 "/>
  <polygon class="fil49" points="21588,10332 24937,8037 23289,5633 19940,7927 "/>
  <polygon class="fil50" points="23210,9108 24795,8023 23252,5770 21667,6856 "/>
  <polygon class="fil50" points="21625,10194 23210,9108 21667,6856 20082,7941 "/>
  <polygon class="fil51" points="23252,9080 23169,9137 21626,6884 21709,6827 "/>
  <polygon class="fil51" points="22058,7023 23368,6126 23341,6088 22032,6985 "/>
  <polygon class="fil51" points="22122,7116 23431,6219 23405,6181 22096,7078 "/>
  <polygon class="fil51" points="22185,7208 23494,6311 23468,6273 22159,7170 "/>
  <polygon class="fil51" points="22248,7301 23558,6404 23532,6366 22222,7263 "/>
  <polygon class="fil51" points="21072,7795 21748,7332 21722,7294 21046,7757 "/>
  <polygon class="fil51" points="21135,7888 21811,7425 21785,7387 21109,7850 "/>
  <polygon class="fil51" points="21198,7980 21874,7517 21848,7479 21172,7942 "/>
  <polygon class="fil51" points="21262,8073 21938,7610 21912,7572 21236,8035 "/>
  <polygon class="fil14" points="20266,7954 20908,7514 20922,7504 21564,7064 21575,7176 21675,7226 21033,7666 21019,7675 20377,8116 20366,8004 "/>
  <path class="fil8" d="M21438 7232c-10,-37 57,-73 78,-9 9,27 -26,86 -26,86 0,0 -66,9 -89,-8 -51,-37 5,-93 37,-69z"/>
  <path class="fil8" d="M21243 7365c-10,-37 57,-73 78,-9 9,27 -25,86 -25,86 0,0 -67,10 -90,-7 -51,-37 5,-93 37,-70z"/>
  <path class="fil8" d="M21039 7505c-10,-37 57,-73 78,-10 9,28 -25,87 -25,87 0,0 -66,9 -90,-8 -51,-37 5,-93 37,-69z"/>
  <path class="fil8" d="M20845 7638c-10,-37 57,-73 78,-9 9,27 -26,86 -26,86 0,0 -66,9 -89,-7 -51,-38 5,-93 37,-70z"/>
  <path class="fil8" d="M20652 7771c-11,-38 57,-74 78,-10 9,28 -26,86 -26,86 0,0 -66,10 -89,-7 -51,-37 5,-93 37,-69z"/>
  <path class="fil8" d="M20457 7904c-10,-37 57,-73 78,-10 9,28 -25,87 -25,87 0,0 -67,9 -90,-8 -51,-37 5,-93 37,-69z"/>
  <path class="fil52" d="M21863 9548c-82,-78 31,-272 182,-144 64,56 68,256 68,256 0,0 -152,125 -237,118 -185,-15 -130,-241 -13,-230z"/>
  <path class="fil52" d="M22559 8683c1,-69 133,-99 139,21 2,51 -85,136 -85,136 0,0 -119,-16 -150,-56 -70,-88 52,-158 96,-101z"/>
  <path class="fil52" d="M22427 9086c-55,-42 1,-166 100,-98 42,29 58,150 58,150 0,0 -84,85 -136,86 -112,3 -93,-137 -22,-138z"/>
  <polygon class="fil14" points="20884,9491 21612,9767 21628,9773 22356,10050 22270,10122 22286,10233 21558,9957 21543,9951 20815,9674 20900,9602 "/>
  <path class="fil8" d="M22146 10041c24,-29 92,5 52,59 -18,23 -85,28 -85,28 0,0 -46,-49 -45,-78 1,-63 79,-49 78,-9z"/>
  <path class="fil8" d="M21925 9958c25,-30 93,4 52,58 -17,23 -85,28 -85,28 0,0 -46,-49 -45,-77 1,-63 79,-49 78,-9z"/>
  <path class="fil8" d="M21694 9870c25,-30 93,5 52,58 -17,23 -85,29 -85,29 0,0 -45,-49 -45,-78 2,-63 79,-49 78,-9z"/>
  <path class="fil8" d="M21474 9786c24,-29 92,5 52,59 -18,23 -85,28 -85,28 0,0 -46,-49 -45,-78 1,-63 79,-49 78,-9z"/>
  <path class="fil8" d="M21255 9703c24,-29 92,5 52,59 -17,23 -85,28 -85,28 0,0 -46,-49 -45,-78 1,-63 79,-49 78,-9z"/>
  <path class="fil8" d="M21034 9619c25,-29 93,5 52,59 -17,23 -85,28 -85,28 0,0 -46,-49 -45,-77 1,-63 79,-49 78,-10z"/>
  <polygon class="fil52" points="21948,6801 23229,5924 23258,5967 21977,6844 "/>
  <polygon class="fil53" points="22007,6886 21977,6844 23258,5967 23287,6009 "/>
  <polygon class="fil54" points="22740,8064 22296,7415 21970,6939 21525,6290 21681,6305 22782,7913 "/>
  <polygon class="fil55" points="22168,6803 22494,7279 22938,7928 22782,7913 21681,6305 21723,6154 "/>
  <polygon class="fil48" points="24130,7753 24117,7893 23994,7962 24124,8018 24151,8156 24244,8050 24384,8067 24312,7946 24371,7818 24233,7849 "/>
  <polygon class="fil8" points="19883,8827 19935,8916 19891,9009 19992,8988 20067,9058 20077,8956 20167,8906 20073,8865 20053,8764 19985,8840 "/>
  <polygon class="fil8" points="20639,9310 20543,9347 20458,9288 20463,9391 20381,9454 20481,9481 20515,9578 20571,9491 20674,9489 20609,9409 "/>
  <polygon class="fil48" points="20546,9999 20586,10093 20531,10180 20633,10171 20698,10251 20722,10150 20817,10113 20729,10060 20723,9957 20645,10024 "/>
  <polygon class="fil48" points="23425,8437 23479,8524 23438,8618 23538,8594 23614,8663 23622,8560 23711,8509 23616,8469 23594,8369 23528,8447 "/>
  <polygon class="fil56" points="23008,8241 23025,8342 22952,8414 23053,8429 23099,8521 23144,8429 23246,8414 23173,8342 23190,8241 23099,8289 "/>
  <polygon class="fil8" points="24281,9372 24299,9473 24225,9545 24327,9560 24372,9652 24418,9560 24520,9545 24446,9473 24463,9372 24372,9420 "/>
  <polygon class="fil8" points="23575,9222 23593,9323 23519,9395 23621,9410 23666,9502 23712,9410 23814,9395 23740,9323 23757,9221 23666,9269 "/>
  <polygon class="fil48" points="21074,9133 21645,8742 20980,7771 20409,8162 "/>
  <polygon class="fil57" points="23060,7268 23794,6765 23595,6474 22861,6977 "/>
  <polygon class="fil17" points="24896,3639 25303,5837 25252,5846 24845,3648 "/>
  <polygon class="fil26" points="24795,3657 24845,3648 25252,5846 25201,5855 "/>
  <path class="fil5" d="M23297 9201c36,-58 106,-63 98,74 -10,162 -57,304 -57,304 0,0 3,337 175,438 92,54 138,47 138,47 0,0 -230,216 -252,220 -21,3 -328,-384 -267,-683 55,-269 110,-309 165,-400z"/>
  <path class="fil5" d="M23164 9103c60,-97 106,-69 119,64 12,133 -112,353 -112,353l119 530 -294 0 -68 -555 236 -392z"/>
  <path class="fil6" d="M22800 9676c0,0 118,-344 144,-447 27,-104 98,-135 135,22 37,156 -94,440 -94,440l53 393c0,0 34,-106 127,-284 94,-177 330,-485 330,-485 0,0 72,-72 88,87 15,158 -143,292 -255,544 -112,252 70,314 132,281 98,-51 180,-118 128,-330 -51,-213 9,-320 72,-408 81,-112 110,-12 98,91 -16,139 52,377 180,649 117,250 -29,468 -59,544 -13,34 143,329 321,645l-672 0c-104,-212 -186,-374 -201,-396 -50,-68 -477,-659 -533,-770 -74,-144 6,-576 6,-576z"/>
  <path class="fil5" d="M23731 9590c-26,2 -48,-13 -33,-56 14,-44 41,-63 46,-14 6,50 9,68 -13,70z"/>
  <path class="fil5" d="M23505 9448c13,-25 29,-52 18,-92 -13,-47 -39,9 -59,46l41 46z"/>
  <path class="fil6" d="M24364 7447c184,129 418,275 418,275 0,0 -355,-345 -423,-455 -117,-187 -35,-234 107,-97 138,132 472,396 472,396 0,0 -282,-392 -333,-493 -63,-123 -14,-272 120,-96 135,175 375,472 375,472 0,0 -150,-327 -174,-466 -27,-161 66,-177 131,-30 24,55 144,289 257,468 158,247 376,487 460,595 145,187 150,236 223,287 6,5 20,12 38,19l0 704c-162,-88 -331,-170 -427,-189 0,0 -288,-14 -502,-129 -248,-134 -527,-168 -649,-163 -230,10 -166,-124 6,-192 101,-39 428,69 497,-109 49,-126 -602,-570 -709,-688 -107,-118 -78,-244 113,-109z"/>
  <path class="fil5" d="M24442 8426c-32,3 -57,23 -68,39 -11,16 -9,42 12,51 29,12 47,7 60,3 28,-8 20,-95 -4,-93z"/>
  <path class="fil5" d="M24419 7153c-26,-26 -65,-48 -83,-29 -15,15 8,60 17,72 15,19 76,-34 66,-43z"/>
  <path class="fil5" d="M24305 7438c-33,-29 -73,-33 -87,-11 -11,17 20,57 32,66 18,16 66,-45 55,-55z"/>
  <path class="fil5" d="M24697 6967c-21,-29 -55,-58 -76,-43 -17,12 -6,56 1,69 9,18 28,16 45,7 19,-9 34,-26 30,-33z"/>
  <path class="fil5" d="M25029 6924c-17,-32 -41,-53 -64,-41 -18,10 -11,49 -5,63 8,22 75,-10 69,-22z"/>
  <g id="_2411658122256">
   <polygon class="fil1" points="3921,6216 3813,6390 4016,6461 4252,6542 4074,6367 "/>
   <g>
    <path class="fil1" d="M1972 3144c-53,-9 -156,-93 -211,-140 -1,-27 -2,-55 -3,-82 107,48 182,137 327,207 -41,15 -77,21 -113,15zm3448 166l67 -46 -1195 -1725c8,4 16,8 23,11 203,88 237,0 81,-120 -148,-114 -444,-391 -461,-406l-1 -1c18,9 432,220 537,255 131,43 270,-27 77,-134 -194,-106 -524,-300 -524,-300 0,0 347,100 487,102 163,3 166,-91 10,-133 -57,-16 -307,-99 -501,-185 -268,-118 -538,-298 -657,-365 -206,-115 -255,-113 -317,-177 -11,-11 -30,-42 -54,-86l-815 0c161,196 361,445 400,550 0,0 56,283 202,477 49,65 90,133 124,201l-1026 710 812 1172 -98 3 24 94 -24 -94 -65 16c-24,-14 -63,-21 -115,-12l1 0c145,-37 66,-173 -93,-98 -93,-97 -194,-100 -342,-333 -148,-232 -209,-395 -673,-484 -232,-45 -367,-137 -430,-174 -225,-135 -624,-379 -874,-532l0 673c226,145 557,365 670,477 162,161 442,654 576,809l-528 135 51 199 0 0 716 -182c121,52 260,90 358,80 165,-18 375,-110 504,-159 127,-48 170,-138 102,-167l193 -49 137 -71 889 1283 67 -47 90 131 78 -54 -91 -130 147 -102 90 131 78 -54 -91 -131 159 -110 91 131 78 -54 -91 -131 146 -101 91 131 78 -54 -91 -131 160 -111 91 131 78 -54 -91 -131 146 -101 91 131 78 -54 -91 -131 159 -110 91 131 78 -54 -91 -131 146 -101 91 131 78 -54 -91 -131z"/>
    <polygon class="fil1" points="1028,4410 1018,4464 2924,4786 2929,4757 2942,4677 2942,4677 2924,4786 3139,4774 3388,4760 3157,4665 2958,4584 2951,4627 2952,4623 2958,4583 1053,4262 1041,4328 1037,4356 "/>
    <polygon class="fil1" points="2375,6059 2376,6059 755,5007 733,5041 709,5078 673,5133 671,5136 643,5179 643,5179 2264,6231 2466,6306 2700,6392 2526,6213 "/>
    <polygon class="fil1" points="3900,6250 3900,6250 3921,6216 2279,5197 2257,5231 2257,5231 2243,5255 2170,5372 3813,6390 3890,6266 "/>
    <path class="fil1" d="M5707 2178l0 0 53 -15 -53 15zm155 174l-11 -215 -74 21 17 -5 58 -16 -521 -1861 -39 11 0 0 -53 15 0 0 -53 15 0 0 -53 14 521 1861 102 190 119 219 -13 -249z"/>
   </g>
  </g>
  <path class="fil58" d="M2713 3314l898 1297 1819 -1260 -1790 -2585 -122 84c129,475 285,1610 -805,2464z"/>
  <path class="fil59" d="M2713 3314c1090,-854 934,-1989 805,-2464l-1697 1176 892 1288z"/>
  <polygon class="fil21" points="5195,3321 5273,3267 5454,3528 5376,3582 "/>
  <polygon class="fil21" points="4971,3476 5049,3422 5230,3683 5152,3737 "/>
  <polygon class="fil21" points="4735,3640 4812,3586 4993,3848 4916,3901 "/>
  <polygon class="fil21" points="4511,3795 4589,3741 4770,4003 4692,4057 "/>
  <polygon class="fil21" points="4272,3960 4350,3906 4531,4168 4453,4222 "/>
  <polygon class="fil21" points="4049,4115 4126,4062 4307,4323 4230,4377 "/>
  <polygon class="fil21" points="3812,4279 3890,4226 4071,4487 3993,4541 "/>
  <polygon class="fil21" points="3588,4435 3666,4381 3847,4642 3769,4696 "/>
  <path class="fil28" d="M3485 3406c117,70 301,-18 388,-135 -11,58 -14,118 -14,175 1,51 7,153 72,168 102,24 186,-104 206,-187 23,-98 1,-216 -39,-306 -2,-4 -7,-1 -7,2 13,90 37,173 29,265 -4,51 -25,98 -57,139 -27,33 -94,85 -138,56 -55,-35 -41,-158 -38,-212 4,-60 17,-150 37,-208 5,-16 2,-34 -7,-19 -16,26 -16,75 -76,130 -71,67 -172,121 -252,129 -103,11 -144,-87 -119,-173 14,-49 49,-95 81,-133 46,-56 100,-110 165,-144 12,16 48,48 62,61 11,10 19,1 10,-9 -11,-11 -40,-49 -50,-62 15,-6 80,-18 95,-22 10,-2 19,-12 8,-14 -31,-5 -99,7 -118,13 -78,-127 -102,-321 25,-420 77,-60 155,26 184,90 6,14 11,28 16,43 -42,63 -60,154 -51,212 4,-3 9,-6 14,-9 6,-40 21,-102 48,-153 7,47 6,95 0,142l8 1c13,-46 16,-110 8,-172 70,-119 185,-219 300,-123 162,134 -76,290 -182,373 -4,1 -8,3 -11,5 3,7 5,14 6,21 127,-52 617,-189 524,112 -37,118 -169,143 -274,138 -60,-2 -242,-44 -276,-106 -2,-4 -9,0 -7,4 24,84 247,129 317,128 113,-1 253,-54 272,-184 37,-246 -276,-212 -466,-151 130,-95 262,-264 96,-373 -103,-67 -229,5 -308,109 -24,-93 -79,-169 -177,-151 -98,18 -141,118 -153,207 -14,94 10,190 62,267 -92,42 -169,138 -221,215 -47,71 -85,206 8,261z"/>
  <path class="fil17" d="M3119 2516c71,70 146,134 223,196 87,70 183,138 288,161 5,1 7,-7 2,-9 -84,-34 -176,-88 -246,-146 -72,-59 -146,-122 -218,-188 -139,-125 -310,-273 -404,-435 -23,-38 -42,-41 -20,-3 86,151 253,302 375,424z"/>
  <path class="fil17" d="M3055 2877c-28,-90 -13,-179 18,-264l1 0c82,75 152,309 103,479 -48,-71 -96,-131 -122,-215zm140 236c52,-167 -12,-468 -119,-507 3,-8 9,-32 12,-40 4,-9 3,-18 -3,-10 -109,143 -61,391 58,528 41,48 48,44 52,29z"/>
  <path class="fil17" d="M3365 2291c82,-52 187,-77 284,-85 14,-1 -58,85 -60,87 -41,40 -91,69 -141,95 -64,33 -158,71 -234,73 42,-66 78,-123 151,-170zm-182 211c5,-9 21,-26 26,-34 85,20 205,-43 277,-78 84,-43 149,-106 204,-181 18,-25 13,-29 6,-29 -208,1 -463,102 -522,321 -3,9 4,8 9,1z"/>
  <path class="fil27" d="M4030 2975c25,-75 -65,-133 -120,-88 -54,45 -17,103 36,84 4,-2 8,-6 11,-10 9,-8 -2,-19 -13,-15 -48,18 -56,-34 3,-50 20,-5 41,4 55,19 18,21 11,55 -1,77 -19,35 -70,51 -108,53 -127,4 -31,-163 23,-195 84,-49 160,41 165,118 6,95 -61,154 -159,133 -20,-5 -24,2 -4,11 131,64 214,-98 167,-212 -22,-55 -77,-86 -135,-81 -69,6 -115,68 -136,129 -51,152 177,145 216,27z"/>
  <polygon class="fil48" points="962,4552 996,4349 2902,4671 2868,4873 "/>
  <polygon class="fil48" points="2902,4671 2868,4873 3082,4861 3101,4753 "/>
  <polygon class="fil27" points="3101,4753 3082,4861 3332,4847 "/>
  <polygon class="fil27" points="980,4443 989,4389 2895,4710 2886,4764 "/>
  <polygon class="fil27" points="962,4552 971,4498 2877,4819 2868,4873 "/>
  <polygon class="fil22" points="586,5267 698,5095 2319,6147 2207,6319 "/>
  <polygon class="fil48" points="2319,6147 2207,6319 2409,6393 2469,6301 "/>
  <polygon class="fil60" points="2469,6301 2409,6393 2643,6479 "/>
  <polygon class="fil60" points="646,5174 676,5128 2297,6180 2267,6226 "/>
  <polygon class="fil60" points="586,5267 616,5221 2237,6273 2207,6319 "/>
  <polygon class="fil9" points="2114,5459 2222,5285 3864,6304 3756,6478 "/>
  <polygon class="fil48" points="3864,6304 3756,6478 3959,6548 4018,6455 "/>
  <polygon class="fil9" points="4018,6455 3959,6548 4195,6630 "/>
  <polygon class="fil61" points="2172,5366 2201,5319 3843,6338 3814,6384 "/>
  <polygon class="fil61" points="2114,5459 2143,5412 3785,6431 3756,6478 "/>
  <polygon class="fil28" points="5077,419 5275,364 5795,2225 5597,2280 "/>
  <polygon class="fil48" points="5795,2225 5597,2280 5700,2469 5806,2440 "/>
  <polygon class="fil28" points="5806,2440 5700,2469 5818,2689 "/>
  <polygon class="fil14" points="5183,389 5236,374 5756,2236 5703,2250 "/>
  <polygon class="fil14" points="5077,419 5130,404 5650,2265 5597,2280 "/>
  <path class="fil5" d="M2356 3204c144,-36 66,-173 -93,-98 -161,76 -256,141 -347,125 -75,-13 -248,-173 -248,-173l6 282c0,0 216,166 228,140 0,0 294,-235 454,-276z"/>
  <path class="fil5" d="M2098 3493c0,0 298,-152 370,-196 72,-44 4,-132 -158,-82 -162,50 -346,177 -404,177 -105,-2 -198,-151 -198,-151 0,0 -4,-304 -19,-364 -16,-61 -524,-39 -594,31 -70,69 255,699 401,714 146,16 602,-129 602,-129z"/>
  <path class="fil6" d="M2242 3452c-136,34 -343,112 -446,88 -103,-25 -307,-174 -357,-268 -49,-93 -87,-331 165,-291 203,32 263,195 544,284 211,67 216,-54 115,-159 -94,-96 -195,-100 -342,-332 -148,-233 -210,-395 -673,-485 -232,-45 -368,-136 -430,-174 -209,-125 -568,-344 -818,-497l0 675c221,143 510,337 614,440 177,177 497,752 610,845 114,93 398,214 563,196 164,-18 375,-109 503,-158 182,-70 193,-224 -48,-164z"/>
  <path class="fil5" d="M2216 3108c0,0 79,52 45,95 -40,52 -114,-7 -114,-7l69 -88z"/>
  <polygon class="fil17" points="713,3876 662,3678 2534,3200 2585,3399 "/>
  <polygon class="fil48" points="2535,3201 2585,3399 2777,3301 2750,3195 "/>
  <polygon class="fil17" points="2750,3195 2777,3301 2999,3188 "/>
  <polygon class="fil26" points="685,3770 672,3717 2544,3239 2558,3292 "/>
  <polygon class="fil26" points="713,3876 699,3823 2572,3346 2585,3399 "/>
  <path class="fil6" d="M4491 1232c-194,-107 -523,-300 -523,-300 0,0 346,99 487,102 163,3 165,-92 10,-134 -58,-15 -308,-99 -501,-184 -268,-119 -538,-299 -658,-366 -206,-115 -255,-112 -317,-177 -16,-17 -52,-81 -97,-167l-838 0c166,202 422,511 466,632 0,0 57,282 203,477 170,225 245,496 258,617 24,229 148,146 189,-35 24,-106 -132,-413 33,-508 118,-67 654,511 786,599 133,88 253,40 91,-129 -155,-162 -334,-371 -334,-371 0,0 394,298 513,350 202,87 236,-1 80,-121 -152,-117 -462,-407 -462,-407 0,0 430,219 537,255 131,43 271,-27 77,-133z"/>
  <path class="fil5" d="M3101 1728c2,33 -15,61 -29,74 -14,13 -39,16 -52,-4 -16,-27 -14,-45 -12,-60 4,-28 92,-33 93,-10z"/>
  <path class="fil5" d="M4363 1561c29,22 57,57 41,78 -13,16 -61,0 -74,-7 -20,-12 22,-80 33,-71z"/>
  <path class="fil5" d="M4098 1716c34,28 44,67 24,84 -15,14 -59,-11 -70,-20 -18,-16 35,-73 46,-64z"/>
  <path class="fil5" d="M4505 1258c32,17 66,46 54,69 -9,19 -54,14 -68,10 -19,-7 -20,-26 -14,-44 6,-20 21,-38 28,-35z"/>
  <path class="fil5" d="M4498 924c34,12 58,32 50,56 -7,20 -47,18 -61,15 -24,-4 -2,-76 11,-71z"/>
  <path class="fil6" d="M18009 5438c-33,-49 -167,-276 -257,-467 -125,-266 -211,-579 -257,-708 -80,-222 -119,-252 -123,-341 -20,-420 473,-2330 591,-2878l-965 285c-49,476 -162,2314 -285,2636 0,0 -143,250 -160,493 -19,281 -140,535 -210,635 -132,189 16,207 166,97 87,-64 171,-398 358,-361 133,26 159,814 201,968 42,153 165,195 153,-38 -11,-224 -9,-500 -9,-500 0,0 102,484 158,601 95,198 179,155 140,-38 -38,-188 -82,-611 -82,-611 0,0 180,448 238,545 71,119 222,157 146,-50 -77,-208 -199,-570 -199,-570 0,0 196,302 301,397 121,109 185,39 95,-95z"/>
  <path class="fil7" d="M16947 0c528,0 723,0 1252,0 -227,1192 -224,2160 -362,2612 -610,483 -942,400 -1293,130 10,-525 237,-1933 403,-2742z"/>
  <g id="_2411658103376">
   <path class="fil6" d="M15673 9157c-106,92 -308,391 -308,391 0,0 129,-360 209,-566 81,-206 -71,-170 -144,-53 -60,96 -249,540 -249,540 0,0 52,-422 94,-609 43,-192 -40,-237 -139,-41 -58,116 -170,597 -170,597 0,0 4,-275 19,-499 16,-233 -107,-193 -152,-40 -46,152 -87,939 -221,963 -187,33 -264,-303 -350,-369 -148,-112 -296,-97 -168,95 68,101 183,357 197,639 13,243 150,496 150,496 48,132 60,480 65,717l718 0c-60,-243 -129,-604 -125,-661 6,-89 45,-119 130,-339 49,-128 141,-439 271,-702 94,-190 232,-413 266,-462 93,-132 31,-203 -93,-97z"/>
   <path class="fil5" d="M14188 9491c-19,-26 -49,-36 -68,-38 -20,-1 -41,14 -38,37 5,31 18,43 29,53 21,19 91,-33 77,-52z"/>
   <path class="fil5" d="M15265 8811c8,-35 7,-80 -18,-85 -21,-5 -47,38 -53,52 -8,22 68,47 71,33z"/>
   <path class="fil5" d="M14962 8862c8,-43 -9,-80 -35,-80 -21,-1 -39,46 -41,61 -4,24 73,33 76,19z"/>
   <path class="fil5" d="M15568 8953c14,-33 21,-77 -3,-88 -19,-8 -50,24 -58,37 -11,17 1,33 17,43 18,11 41,15 44,8z"/>
   <path class="fil5" d="M15777 9214c18,-31 24,-62 2,-75 -18,-11 -47,16 -57,27 -15,19 47,60 55,48z"/>
  </g>
  <polygon class="fil51" points="23073,1819 20491,3585 19642,2343 22223,577 "/>
  <polygon class="fil62" points="22882,1789 20532,3396 19832,2373 22182,766 "/>
  <polygon class="fil13" points="20874,3129 20543,3354 19879,2382 20209,2157 "/>
  <polygon class="fil10" points="20634,3293 20596,3318 19932,2346 19969,2321 "/>
  <polygon class="fil10" points="20727,3229 20690,3254 20025,2282 20062,2257 "/>
  <polygon class="fil10" points="20816,3168 20779,3194 20114,2222 20151,2196 "/>
  <polygon class="fil14" points="21266,2860 20936,3086 20271,2114 20601,1888 "/>
  <polygon class="fil63" points="21026,3024 20989,3050 20324,2078 20362,2052 "/>
  <polygon class="fil63" points="21120,2960 21082,2986 20418,2014 20455,1988 "/>
  <polygon class="fil63" points="21208,2900 21171,2925 20506,1953 20544,1927 "/>
  <polygon class="fil61" points="21656,2594 21326,2819 20661,1847 20991,1622 "/>
  <polygon class="fil46" points="21416,2758 21379,2783 20714,1811 20751,1786 "/>
  <polygon class="fil46" points="21510,2694 21472,2719 20807,1747 20845,1722 "/>
  <polygon class="fil46" points="21598,2633 21561,2659 20896,1687 20934,1661 "/>
  <polygon class="fil26" points="22051,2324 21721,2549 21056,1577 21386,1351 "/>
  <polygon class="fil17" points="21811,2488 21774,2513 21109,1541 21146,1516 "/>
  <polygon class="fil17" points="21904,2424 21867,2449 21202,1477 21240,1452 "/>
  <polygon class="fil17" points="21993,2363 21956,2389 21291,1416 21329,1391 "/>
  <polygon class="fil22" points="22447,2049 22117,2275 21452,1303 21782,1077 "/>
  <polygon class="fil64" points="22207,2213 22170,2239 21505,1267 21542,1241 "/>
  <polygon class="fil64" points="22300,2149 22263,2175 21598,1203 21636,1177 "/>
  <polygon class="fil64" points="22389,2089 22352,2114 21687,1142 21724,1117 "/>
  <polygon class="fil65" points="22841,1783 22511,2009 21846,1037 22176,811 "/>
  <polygon class="fil66" points="22601,1947 22564,1973 21899,1001 21936,975 "/>
  <polygon class="fil66" points="22695,1883 22657,1909 21993,937 22030,911 "/>
  <polygon class="fil66" points="22783,1823 22746,1848 22081,876 22119,851 "/>
  <rect class="fil67" transform="matrix(-0.973847 -0.227205 0.22569 -0.967355 13117 3155.59)" width="2057" height="886"/>
  <path class="fil25" d="M13025 2454l-18 73c-5,23 -11,40 -18,53 -6,12 -15,22 -25,29 -9,8 -21,13 -34,16 -13,4 -33,6 -62,7l-104 4c-16,0 -29,2 -40,5 -11,2 -19,6 -24,10 -4,4 -7,8 -9,15 -3,7 -7,20 -12,41 -5,21 -7,35 -6,44 0,9 4,17 9,24 5,6 16,12 32,18 17,6 41,13 72,20 42,10 69,11 83,5 13,-6 23,-24 30,-54l7 -26 48 12 -6 28c-10,43 -28,70 -52,82 -24,12 -66,11 -124,-3 -34,-8 -59,-15 -75,-21 -16,-5 -28,-11 -36,-17 -19,-14 -31,-30 -35,-47 -5,-17 -2,-44 6,-81 10,-41 23,-68 39,-81 15,-13 41,-21 78,-22l129 -5c27,-2 46,-6 55,-13 10,-6 17,-18 21,-35l11 -48 -269 -63 10 -46 319 76z"/>
  <path id="1" class="fil25" d="M12474 2366l-38 -9c-23,-5 -40,-8 -51,-7 -11,0 -21,3 -30,9 -8,5 -15,13 -20,23 -5,11 -11,29 -18,57l-2 7 -32 138c-7,28 -10,48 -10,59 0,12 3,22 8,30 5,9 13,17 23,22 11,6 26,11 48,17l38 8c23,6 40,8 51,8 11,-1 20,-4 29,-9 8,-6 15,-14 20,-24 6,-10 12,-29 18,-57l2 -7 33 -138c6,-28 10,-47 9,-59 0,-12 -2,-22 -8,-30 -5,-9 -12,-16 -21,-22 -10,-5 -26,-10 -49,-16zm12 -44c53,12 87,32 103,59 15,26 17,67 4,123l-35 147c-13,55 -33,91 -59,108 -26,17 -66,19 -118,7l-42 -10c-52,-13 -87,-32 -102,-59 -16,-27 -17,-68 -4,-123l35 -147c13,-56 32,-92 58,-109 26,-16 66,-19 118,-6l42 10z"/>
  <polygon id="2" class="fil25" points="12050,2226 11957,2616 12083,2538 12106,2574 11962,2663 11900,2648 12002,2215 "/>
  <path id="3" class="fil25" d="M11597 2379c-44,-11 -73,-13 -87,-7 -14,7 -25,25 -32,54 -4,18 -7,30 -7,38 0,8 0,15 3,20 3,9 11,16 25,23 14,6 37,13 67,21 27,6 47,10 62,11 15,0 26,-1 33,-5 5,-3 10,-9 14,-16 3,-8 8,-23 13,-45 6,-28 5,-48 -6,-60 -10,-12 -39,-23 -85,-34zm52 -205c-29,-7 -50,-10 -64,-11 -15,-1 -26,0 -33,3 -9,4 -15,10 -20,18 -5,9 -10,23 -15,44 -4,16 -6,29 -6,38 -1,8 0,16 2,22 4,11 12,19 25,26 13,6 37,14 72,22 31,8 52,12 66,13 14,1 24,-1 32,-5 7,-3 13,-10 18,-19 5,-9 10,-22 14,-39 5,-21 7,-36 7,-46 0,-9 -1,-17 -5,-23 -5,-9 -14,-16 -28,-23 -14,-6 -36,-13 -65,-20zm55 209c18,10 30,23 35,38 5,15 4,38 -3,68 -6,24 -11,41 -16,52 -6,11 -12,20 -20,27 -12,12 -29,18 -50,19 -22,0 -55,-5 -98,-15 -34,-8 -60,-16 -79,-24 -18,-8 -31,-17 -38,-26 -9,-12 -14,-25 -16,-40 -1,-14 2,-35 8,-63 8,-32 17,-54 29,-66 12,-12 29,-18 50,-17 -22,-11 -35,-25 -41,-41 -6,-17 -5,-41 3,-74 7,-31 15,-54 22,-68 8,-14 17,-24 29,-30 13,-7 29,-10 50,-9 21,0 52,6 94,16 43,10 73,20 91,30 19,11 32,24 39,40 5,9 7,21 6,34 0,14 -4,35 -10,62 -8,34 -18,56 -31,68 -12,12 -30,18 -54,19z"/>
 </g>
</svg>
