<?xml version="1.0" encoding="UTF-8"?>
<!DOCTYPE svg PUBLIC "-//W3C//DTD SVG 1.1//EN" "http://www.w3.org/Graphics/SVG/1.1/DTD/svg11.dtd">
<!-- Creator: CorelDRAW X7 -->
<svg xmlns="http://www.w3.org/2000/svg" xml:space="preserve" width="10.6667in" height="8in" version="1.1" style="shape-rendering:geometricPrecision; text-rendering:geometricPrecision; image-rendering:optimizeQuality; fill-rule:evenodd; clip-rule:evenodd"
viewBox="0 0 10667 8000"
 xmlns:xlink="http://www.w3.org/1999/xlink">
 <defs>
  <style type="text/css">
   <![CDATA[
    .str1 {stroke:#00E6CF;stroke-width:6.94488}
    .str0 {stroke:#00E6CF;stroke-width:3}
    .fil1 {fill:none}
    .fil0 {fill:#009688}
   ]]>
  </style>
 </defs>
 <g id="Layer_x0020_1">
  <metadata id="CorelCorpID_0Corel-Layer"/>
  <g id="_2509283919680">
   <rect class="fil0 str0" width="10667" height="8000"/>
   <line class="fil1 str1" x1="8617" y1="0" x2="8617" y2= "8000" />
   <line class="fil1 str1" x1="8376" y1="0" x2="8376" y2= "8000" />
   <line class="fil1 str1" x1="8126" y1="0" x2="8126" y2= "8000" />
   <line class="fil1 str1" x1="6901" y1="0" x2="6901" y2= "8000" />
   <line class="fil1 str1" x1="6659" y1="0" x2="6659" y2= "8000" />
   <line class="fil1 str1" x1="6409" y1="0" x2="6409" y2= "8000" />
   <line class="fil1 str1" x1="6167" y1="0" x2="6167" y2= "8000" />
   <line class="fil1 str1" x1="7884" y1="0" x2="7884" y2= "8000" />
   <line class="fil1 str1" x1="7642" y1="0" x2="7642" y2= "8000" />
   <line class="fil1 str1" x1="7392" y1="0" x2="7392" y2= "8000" />
   <line class="fil1 str1" x1="7151" y1="0" x2="7151" y2= "8000" />
   <line class="fil1 str1" x1="4926" y1="0" x2="4926" y2= "8000" />
   <line class="fil1 str1" x1="4684" y1="0" x2="4684" y2= "8000" />
   <line class="fil1 str1" x1="4434" y1="0" x2="4434" y2= "8000" />
   <line class="fil1 str1" x1="4192" y1="0" x2="4192" y2= "8000" />
   <line class="fil1 str1" x1="5909" y1="0" x2="5909" y2= "8000" />
   <line class="fil1 str1" x1="5667" y1="0" x2="5667" y2= "8000" />
   <line class="fil1 str1" x1="5417" y1="0" x2="5417" y2= "8000" />
   <line class="fil1 str1" x1="5176" y1="0" x2="5176" y2= "8000" />
   <line class="fil1 str1" x1="2951" y1="0" x2="2951" y2= "8000" />
   <line class="fil1 str1" x1="2709" y1="0" x2="2709" y2= "8000" />
   <line class="fil1 str1" x1="2459" y1="0" x2="2459" y2= "8000" />
   <line class="fil1 str1" x1="2217" y1="0" x2="2217" y2= "8000" />
   <line class="fil1 str1" x1="3934" y1="0" x2="3934" y2= "8000" />
   <line class="fil1 str1" x1="3692" y1="0" x2="3692" y2= "8000" />
   <line class="fil1 str1" x1="3442" y1="0" x2="3442" y2= "8000" />
   <line class="fil1 str1" x1="3201" y1="0" x2="3201" y2= "8000" />
   <line class="fil1 str1" x1="979" y1="0" x2="979" y2= "8000" />
   <line class="fil1 str1" x1="738" y1="0" x2="738" y2= "8000" />
   <line class="fil1 str1" x1="488" y1="0" x2="488" y2= "8000" />
   <line class="fil1 str1" x1="246" y1="0" x2="246" y2= "8000" />
   <line class="fil1 str1" x1="1963" y1="0" x2="1963" y2= "8000" />
   <line class="fil1 str1" x1="1721" y1="0" x2="1721" y2= "8000" />
   <line class="fil1 str1" x1="1471" y1="0" x2="1471" y2= "8000" />
   <line class="fil1 str1" x1="1229" y1="0" x2="1229" y2= "8000" />
   <line class="fil1 str1" x1="9601" y1="0" x2="9601" y2= "8000" />
   <line class="fil1 str1" x1="9359" y1="0" x2="9359" y2= "8000" />
   <line class="fil1 str1" x1="9109" y1="0" x2="9109" y2= "8000" />
   <line class="fil1 str1" x1="8867" y1="0" x2="8867" y2= "8000" />
   <line class="fil1 str1" x1="10584" y1="0" x2="10584" y2= "8000" />
   <line class="fil1 str1" x1="10342" y1="0" x2="10342" y2= "8000" />
   <line class="fil1 str1" x1="0" y1="122" x2="10667" y2= "122" />
   <line class="fil1 str1" x1="0" y1="378" x2="10667" y2= "378" />
   <line class="fil1 str1" x1="0" y1="622" x2="10667" y2= "622" />
   <line class="fil1 str1" x1="0" y1="878" x2="10667" y2= "878" />
   <line class="fil1 str1" x1="0" y1="2089" x2="10667" y2= "2089" />
   <line class="fil1 str1" x1="0" y1="2345" x2="10667" y2= "2345" />
   <line class="fil1 str1" x1="0" y1="2589" x2="10667" y2= "2589" />
   <line class="fil1 str1" x1="0" y1="2845" x2="10667" y2= "2845" />
   <line class="fil1 str1" x1="0" y1="1106" x2="10667" y2= "1106" />
   <line class="fil1 str1" x1="0" y1="1362" x2="10667" y2= "1362" />
   <line class="fil1 str1" x1="0" y1="1606" x2="10667" y2= "1606" />
   <line class="fil1 str1" x1="0" y1="1862" x2="10667" y2= "1862" />
   <line class="fil1 str1" x1="0" y1="3078" x2="10667" y2= "3078" />
   <line class="fil1 str1" x1="0" y1="3335" x2="10667" y2= "3335" />
   <line class="fil1 str1" x1="0" y1="3578" x2="10667" y2= "3578" />
   <line class="fil1 str1" x1="0" y1="3835" x2="10667" y2= "3835" />
   <line class="fil1 str1" x1="0" y1="4055" x2="10667" y2= "4055" />
   <line class="fil1 str1" x1="0" y1="4311" x2="10667" y2= "4311" />
   <line class="fil1 str1" x1="0" y1="4555" x2="10667" y2= "4555" />
   <line class="fil1 str1" x1="0" y1="4811" x2="10667" y2= "4811" />
   <line class="fil1 str1" x1="0" y1="6022" x2="10667" y2= "6022" />
   <line class="fil1 str1" x1="0" y1="6278" x2="10667" y2= "6278" />
   <line class="fil1 str1" x1="0" y1="6522" x2="10667" y2= "6522" />
   <line class="fil1 str1" x1="0" y1="6778" x2="10667" y2= "6778" />
   <line class="fil1 str1" x1="0" y1="5038" x2="10667" y2= "5038" />
   <line class="fil1 str1" x1="0" y1="5295" x2="10667" y2= "5295" />
   <line class="fil1 str1" x1="0" y1="5538" x2="10667" y2= "5538" />
   <line class="fil1 str1" x1="0" y1="5795" x2="10667" y2= "5795" />
   <line class="fil1 str1" x1="0" y1="7011" x2="10667" y2= "7011" />
   <line class="fil1 str1" x1="0" y1="7268" x2="10667" y2= "7268" />
   <line class="fil1 str1" x1="0" y1="7511" x2="10667" y2= "7511" />
   <line class="fil1 str1" x1="0" y1="7768" x2="10667" y2= "7768" />
   <line class="fil1 str1" x1="10092" y1="0" x2="10092" y2= "8000" />
   <line class="fil1 str1" x1="9851" y1="0" x2="9851" y2= "8000" />
  </g>
 </g>
</svg>
