<?xml version="1.0" encoding="UTF-8" standalone="no"?>
<!-- Creator: CorelDRAW X7 -->

<svg
   xmlns:dc="http://purl.org/dc/elements/1.1/"
   xmlns:cc="http://creativecommons.org/ns#"
   xmlns:rdf="http://www.w3.org/1999/02/22-rdf-syntax-ns#"
   xmlns:svg="http://www.w3.org/2000/svg"
   xmlns="http://www.w3.org/2000/svg"
   xmlns:sodipodi="http://sodipodi.sourceforge.net/DTD/sodipodi-0.dtd"
   xmlns:inkscape="http://www.inkscape.org/namespaces/inkscape"
   xml:space="preserve"
   width="551.36603"
   height="44.747002"
   version="1.1"
   style="clip-rule:evenodd;fill-rule:evenodd;image-rendering:optimizeQuality;shape-rendering:geometricPrecision;text-rendering:geometricPrecision"
   viewBox="0 0 5743.5578 466.1146"
   id="svg135"
   sodipodi:docname="ket.svg"
   inkscape:version="0.92.2 (5c3e80d, 2017-08-06)"><metadata
     id="metadata139"><rdf:RDF><cc:Work
         rdf:about=""><dc:format>image/svg+xml</dc:format><dc:type
           rdf:resource="http://purl.org/dc/dcmitype/StillImage" /><dc:title></dc:title></cc:Work></rdf:RDF></metadata><sodipodi:namedview
     pagecolor="#ffffff"
     bordercolor="#666666"
     borderopacity="1"
     objecttolerance="10"
     gridtolerance="10"
     guidetolerance="10"
     inkscape:pageopacity="0"
     inkscape:pageshadow="2"
     inkscape:window-width="1600"
     inkscape:window-height="847"
     id="namedview137"
     showgrid="false"
     units="px"
     inkscape:zoom="1.1093715"
     inkscape:cx="389.73753"
     inkscape:cy="186.62065"
     inkscape:window-x="-8"
     inkscape:window-y="-8"
     inkscape:window-maximized="1"
     inkscape:current-layer="svg135" /><defs
     id="defs4"><style
       type="text/css"
       id="style2"><![CDATA[
    .str0 {stroke:#FEFEFE;stroke-width:39.3701;stroke-linecap:round;stroke-linejoin:round}
    .fil1 {fill:none}
    .fil0 {fill:#FEFEFE}
   ]]></style></defs><g
     id="Layer_x0020_1"
     transform="translate(-2462.0287,-3279.5927)"><metadata
       id="CorelCorpID_0Corel-Layer" /><g
       id="_2509279378208"><g
         id="g9"><path
           class="fil0 str0"
           d="m 2543,3385 c -138,137 281,461 226,33 l -10,-83 c 0,-9 7,-17 17,-17 9,0 16,8 16,17 l 10,76 c 63,499 -467,134 -281,-51 7,-6 18,-5 24,2 6,7 5,17 -2,23 z"
           id="path7"
           inkscape:connector-curvature="0"
           style="fill:#fefefe;stroke:#fefefe;stroke-width:39.37009811;stroke-linecap:round;stroke-linejoin:round" /></g><path
         class="fil1"
         d="m 2532,3373 c -160,134 253,480 262,109 1,-42 -18,-89 -18,-147"
         id="path11"
         inkscape:connector-curvature="0"
         style="fill:none" /><g
         id="g15"><path
           class="fil0 str0"
           d="m 2900,3669 c 0,0 -121,-386 -3,-283 54,47 140,265 171,267 43,-23 5,-271 0,-304 -2,-9 3,-19 12,-21 9,-2 19,3 21,12 17,117 30,157 16,274 -28,236 -205,-153 -243,-202 -12,58 49,216 58,244 3,9 -1,19 -10,22 -8,4 -18,0 -22,-9 z"
           id="path13"
           inkscape:connector-curvature="0"
           style="fill:#fefefe;stroke:#fefefe;stroke-width:39.37009811;stroke-linecap:round;stroke-linejoin:round" /></g><path
         class="fil1"
         d="m 2916,3663 c -78,-191 -104,-458 77,-87 127,259 129,-87 92,-232"
         id="path17"
         inkscape:connector-curvature="0"
         style="fill:none" /><g
         id="g21"><path
           class="fil0 str0"
           d="m 3218,3676 c -8,-34 -65,-287 -15,-301 357,-104 262,313 33,314 -1,0 -3,0 -4,0 h -1 v 0 0 0 l -1,-1 v 0 0 0 0 0 h -1 v 0 0 0 0 h -1 v 0 0 0 0 0 l -1,-1 v 0 0 0 0 h -1 v 0 0 0 0 l -1,-1 v 0 0 0 0 0 h -1 v 0 -1 0 0 0 h -1 v 0 0 0 -1 0 0 0 h -1 v 0 0 0 -1 h -1 v 0 0 0 -1 0 0 c -1,-1 -1,-1 -1,-2 v 0 0 h -1 v 0 0 -1 0 0 0 0 -1 0 0 0 h -1 v -1 0 0 c 0,-1 0,-1 0,-1 z m 30,-21 c 128,-16 308,-300 -25,-249 -3,129 -7,118 25,249 z"
           id="path19"
           inkscape:connector-curvature="0"
           style="fill:#fefefe;stroke:#fefefe;stroke-width:39.37009811;stroke-linecap:round;stroke-linejoin:round" /></g><path
         class="fil1"
         d="m 3234,3672 c -43,-169 -28,-130 -28,-281 373,-86 195,295 28,281"
         id="path23"
         inkscape:connector-curvature="0"
         style="fill:none" /><g
         id="g27"><path
           class="fil0 str0"
           d="m 3579,3419 c 6,80 32,373 194,241 16,-13 32,-32 34,-53 0,-10 8,-17 17,-17 10,0 17,7 17,17 -4,42 -33,73 -69,94 -189,111 -218,-174 -227,-282 0,-9 8,-17 17,-17 9,0 17,8 17,17 z"
           id="path25"
           inkscape:connector-curvature="0"
           style="fill:#fefefe;stroke:#fefefe;stroke-width:39.37009811;stroke-linecap:round;stroke-linejoin:round" /></g><path
         class="fil1"
         d="m 3562,3419 c 0,431 262,271 262,188"
         id="path29"
         inkscape:connector-curvature="0"
         style="fill:none" /><g
         id="g33"><path
           class="fil0 str0"
           d="m 3563,3545 c 115,-65 58,-34 171,-95 9,-3 19,2 22,11 3,8 -2,18 -11,21 -107,59 -52,28 -165,92 -8,5 -18,2 -23,-6 -5,-8 -2,-18 6,-23 z"
           id="path31"
           inkscape:connector-curvature="0"
           style="fill:#fefefe;stroke:#fefefe;stroke-width:39.37009811;stroke-linecap:round;stroke-linejoin:round" /></g><path
         class="fil1"
         d="m 3571,3560 c 19,-11 159,-90 169,-94"
         id="path35"
         inkscape:connector-curvature="0"
         style="fill:none" /><g
         id="g39"><path
           class="fil0 str0"
           d="m 3520,3447 c 54,-59 110,-113 193,-119 10,0 16,9 16,18 -1,9 -9,16 -19,15 -66,6 -120,59 -162,105 -5,8 -16,10 -24,5 -7,-6 -9,-16 -4,-24 z"
           id="path37"
           inkscape:connector-curvature="0"
           style="fill:#fefefe;stroke:#fefefe;stroke-width:39.37009811;stroke-linecap:round;stroke-linejoin:round" /></g><path
         class="fil1"
         d="m 3534,3457 c 28,-41 125,-117 178,-113"
         id="path41"
         inkscape:connector-curvature="0"
         style="fill:none" /><g
         id="g45"><path
           class="fil0 str0"
           d="m 3915,3675 c -279,-312 155,-463 151,-256 -2,57 -78,71 -117,86 49,21 151,29 218,58 9,3 13,12 10,21 -3,9 -12,13 -21,10 -9,-4 -11,-4 -17,-9 -473,-104 -109,-93 -107,-167 3,-143 -323,-23 -93,233 7,6 7,17 0,23 -6,7 -17,7 -24,1 z"
           id="path43"
           inkscape:connector-curvature="0"
           style="fill:#fefefe;stroke:#fefefe;stroke-width:39.37009811;stroke-linecap:round;stroke-linejoin:round" /></g><path
         class="fil1"
         d="m 3927,3663 c -208,-202 14,-428 110,-279 89,139 -380,85 106,184 8,2 5,6 18,10"
         id="path47"
         inkscape:connector-curvature="0"
         style="fill:none" /><g
         id="g51"><path
           class="fil0 str0"
           d="m 4705,3387 c -190,-102 -297,359 67,236 l 16,-12 c 8,-5 18,-3 24,5 5,7 3,18 -4,23 l -9,6 c -2,1 -9,7 -12,8 -400,178 -336,-441 -64,-295 7,5 10,16 5,23 -5,8 -15,11 -23,6 z"
           id="path49"
           inkscape:connector-curvature="0"
           style="fill:#fefefe;stroke:#fefefe;stroke-width:39.37009811;stroke-linecap:round;stroke-linejoin:round" /></g><path
         class="fil1"
         d="m 4714,3373 c -224,-140 -316,429 66,265 l 18,-13"
         id="path53"
         inkscape:connector-curvature="0"
         style="fill:none" /><g
         id="g57"><path
           class="fil0 str0"
           d="m 4976,3405 c -152,-85 -83,417 149,131 65,-79 -1,-221 -136,-161 2,0 4,1 5,2 8,5 10,16 5,23 -5,8 -15,10 -23,5 z m -30,-45 c 0,0 1,-1 1,-1 187,-110 295,87 204,199 -265,326 -375,-215 -205,-198 z"
           id="path55"
           inkscape:connector-curvature="0"
           style="fill:#fefefe;stroke:#fefefe;stroke-width:39.37009811;stroke-linecap:round;stroke-linejoin:round" /></g><path
         class="fil1"
         d="m 4985,3391 c -183,-120 -117,480 153,156 89,-106 -35,-276 -181,-174"
         id="path59"
         inkscape:connector-curvature="0"
         style="fill:none" /><g
         id="g63"><path
           class="fil0 str0"
           d="m 5249,3653 c -9,-532 14,-163 197,-24 63,48 21,-186 -33,-273 -7,-7 -6,-18 1,-24 7,-6 17,-6 24,1 51,82 72,148 73,246 2,233 -173,-29 -236,-129 1,65 7,173 8,203 0,10 -8,17 -17,17 -9,0 -17,-7 -17,-17 z"
           id="path61"
           inkscape:connector-curvature="0"
           style="fill:#fefefe;stroke:#fefefe;stroke-width:39.37009811;stroke-linecap:round;stroke-linejoin:round" /></g><path
         class="fil1"
         d="m 5266,3653 c 0,-355 -52,-300 122,-63 152,208 119,-155 37,-246"
         id="path65"
         inkscape:connector-curvature="0"
         style="fill:none" /><g
         id="g69"><path
           class="fil0 str0"
           d="m 5690,3387 c -32,-15 -92,8 -29,91 62,82 284,252 -90,173 -9,-2 -15,-12 -12,-21 2,-9 11,-14 20,-12 173,37 216,45 117,-55 -226,-228 18,-239 27,-182 0,9 -7,17 -16,18 -8,0 -15,-5 -17,-12 z"
           id="path67"
           inkscape:connector-curvature="0"
           style="fill:#fefefe;stroke:#fefefe;stroke-width:39.37009811;stroke-linecap:round;stroke-linejoin:round" /></g><path
         class="fil1"
         d="m 5706,3382 c -2,-34 -205,-18 1,168 168,152 -69,101 -132,85"
         id="path71"
         inkscape:connector-curvature="0"
         style="fill:none" /><g
         id="g75"><path
           class="fil0 str0"
           d="m 5859,3357 c 129,-42 94,-30 209,-39 10,-1 18,5 20,14 1,10 -5,18 -14,20 -114,8 -77,-5 -203,36 -9,4 -18,-1 -22,-10 -3,-8 2,-18 10,-21 z"
           id="path73"
           inkscape:connector-curvature="0"
           style="fill:#fefefe;stroke:#fefefe;stroke-width:39.37009811;stroke-linecap:round;stroke-linejoin:round" /></g><path
         class="fil1"
         d="m 5865,3373 c 148,-55 134,-26 206,-38"
         id="path77"
         inkscape:connector-curvature="0"
         style="fill:none" /><g
         id="g81"><path
           class="fil0 str0"
           d="m 5979,3681 c -7,-70 -23,-256 -43,-326 0,-1 -1,-1 -1,-2 -5,-8 -2,-18 6,-23 56,-25 70,329 72,351 0,10 -7,17 -17,17 -9,0 -17,-7 -17,-17 z m -35,-321 c 1,1 2,1 3,1 -1,0 -2,0 -3,-1 z"
           id="path79"
           inkscape:connector-curvature="0"
           style="fill:#fefefe;stroke:#fefefe;stroke-width:39.37009811;stroke-linecap:round;stroke-linejoin:round" /></g><path
         class="fil1"
         d="m 5996,3681 c 0,-21 -38,-342 -47,-337"
         id="path83"
         inkscape:connector-curvature="0"
         style="fill:none" /><g
         id="g87"><path
           class="fil0 str0"
           d="m 6195,3676 c -38,-131 -146,-380 98,-358 163,16 -171,137 1,222 33,16 108,35 130,69 3,9 -1,19 -9,22 -8,4 -17,1 -22,-7 -9,-9 -37,-22 -47,-27 -266,-118 -88,-162 -45,-244 -210,-57 -96,236 -73,316 2,9 -4,18 -13,20 -9,2 -18,-4 -20,-13 z"
           id="path85"
           inkscape:connector-curvature="0"
           style="fill:#fefefe;stroke:#fefefe;stroke-width:39.37009811;stroke-linecap:round;stroke-linejoin:round" /></g><path
         class="fil1"
         d="m 6212,3672 c -25,-116 -141,-330 46,-337 219,-9 -232,137 78,240 15,5 67,29 72,41"
         id="path89"
         inkscape:connector-curvature="0"
         style="fill:none" /><g
         id="g93"><path
           class="fil0 str0"
           d="m 6535,3372 c -145,293 251,409 119,-50 -3,-9 2,-19 11,-22 9,-3 18,2 21,11 151,525 -354,397 -180,43 5,-8 15,-10 23,-5 8,5 11,15 6,23 z"
           id="path91"
           inkscape:connector-curvature="0"
           style="fill:#fefefe;stroke:#fefefe;stroke-width:39.37009811;stroke-linecap:round;stroke-linejoin:round" /></g><path
         class="fil1"
         d="m 6521,3363 c -189,309 320,447 149,-47"
         id="path95"
         inkscape:connector-curvature="0"
         style="fill:none" /><g
         id="g99"><path
           class="fil0 str0"
           d="m 6927,3379 c -175,-43 -96,357 117,214 8,-6 18,-4 24,4 5,7 4,18 -4,23 -269,180 -372,-333 -127,-273 9,3 14,12 12,21 -3,9 -13,14 -22,11 z"
           id="path97"
           inkscape:connector-curvature="0"
           style="fill:#fefefe;stroke:#fefefe;stroke-width:39.37009811;stroke-linecap:round;stroke-linejoin:round" /></g><path
         class="fil1"
         d="m 6932,3363 c -210,-66 -112,418 122,244"
         id="path101"
         inkscape:connector-curvature="0"
         style="fill:none" /><g
         id="g105"><path
           class="fil0 str0"
           d="m 7056,3348 c 16,-5 359,-82 282,-6 -4,4 -10,6 -16,9 -8,3 -18,-1 -21,-10 -1,-1 -1,-2 -1,-2 -67,-5 -175,23 -229,39 -8,4 -18,1 -23,-7 -4,-9 0,-19 8,-23 z"
           id="path103"
           inkscape:connector-curvature="0"
           style="fill:#fefefe;stroke:#fefefe;stroke-width:39.37009811;stroke-linecap:round;stroke-linejoin:round" /></g><path
         class="fil1"
         d="m 7064,3363 c 71,-36 319,-54 252,-28"
         id="path107"
         inkscape:connector-curvature="0"
         style="fill:none" /><g
         id="g111"><path
           class="fil0 str0"
           d="m 7196,3653 c -12,-210 -5,-101 -18,-327 0,-10 7,-17 17,-17 9,0 16,7 16,17 13,225 7,115 19,328 0,9 -8,17 -17,16 -10,0 -17,-8 -17,-17 z"
           id="path109"
           inkscape:connector-curvature="0"
           style="fill:#fefefe;stroke:#fefefe;stroke-width:39.37009811;stroke-linecap:round;stroke-linejoin:round" /></g><path
         class="fil1"
         d="m 7213,3653 c 2,-54 -18,-245 -18,-327"
         id="path113"
         inkscape:connector-curvature="0"
         style="fill:none" /><g
         id="g117"><path
           class="fil0 str0"
           d="m 7417,3354 c 18,234 8,125 28,327 0,10 -7,17 -16,17 -10,0 -17,-7 -17,-17 -21,-199 -11,-90 -28,-327 0,-10 7,-17 17,-17 9,0 16,7 16,17 z"
           id="path115"
           inkscape:connector-curvature="0"
           style="fill:#fefefe;stroke:#fefefe;stroke-width:39.37009811;stroke-linecap:round;stroke-linejoin:round" /></g><path
         class="fil1"
         d="m 7401,3354 c 0,125 28,271 28,327"
         id="path119"
         inkscape:connector-curvature="0"
         style="fill:none" /><g
         id="g123"><path
           class="fil0 str0"
           d="m 7648,3417 c -243,-61 26,492 152,107 24,-74 -47,-189 -143,-140 l 1,1 c 9,2 14,12 11,21 -2,8 -12,13 -21,11 z m -20,-38 c -3,-7 0,-16 7,-20 130,-73 230,73 197,176 -150,457 -489,-191 -204,-156 z"
           id="path121"
           inkscape:connector-curvature="0"
           style="fill:#fefefe;stroke:#fefefe;stroke-width:39.37009811;stroke-linecap:round;stroke-linejoin:round" /></g><path
         class="fil1"
         d="m 7653,3401 c -284,-89 17,566 163,128 32,-96 -74,-223 -172,-156"
         id="path125"
         inkscape:connector-curvature="0"
         style="fill:none" /><g
         id="g129"><path
           class="fil0 str0"
           d="m 7880,3625 c 18,-766 164,225 263,-33 19,-51 4,-235 -59,-240 -9,0 -17,-8 -17,-17 0,-9 8,-17 17,-17 102,9 116,221 90,286 -80,207 -213,-120 -250,-214 -14,93 -6,34 -10,235 0,10 -8,17 -17,17 -10,0 -17,-7 -17,-17 z"
           id="path127"
           inkscape:connector-curvature="0"
           style="fill:#fefefe;stroke:#fefefe;stroke-width:39.37009811;stroke-linecap:round;stroke-linejoin:round" /></g><path
         class="fil1"
         d="m 7897,3625 c 0,-716 100,221 256,-15 33,-51 12,-275 -69,-275"
         id="path131"
         inkscape:connector-curvature="0"
         style="fill:none" /></g></g></svg>