<?xml version="1.0" encoding="UTF-8" standalone="no"?>
<!-- Creator: CorelDRAW X7 -->

<svg
   xmlns:dc="http://purl.org/dc/elements/1.1/"
   xmlns:cc="http://creativecommons.org/ns#"
   xmlns:rdf="http://www.w3.org/1999/02/22-rdf-syntax-ns#"
   xmlns:svg="http://www.w3.org/2000/svg"
   xmlns="http://www.w3.org/2000/svg"
   xmlns:sodipodi="http://sodipodi.sourceforge.net/DTD/sodipodi-0.dtd"
   xmlns:inkscape="http://www.inkscape.org/namespaces/inkscape"
   xml:space="preserve"
   width="436.12201"
   height="126.163"
   version="1.1"
   style="clip-rule:evenodd;fill-rule:evenodd;image-rendering:optimizeQuality;shape-rendering:geometricPrecision;text-rendering:geometricPrecision"
   viewBox="0 0 4543.0655 1314.1979"
   id="svg198"
   sodipodi:docname="logo-draft.svg"
   inkscape:version="0.92.2 (5c3e80d, 2017-08-06)"><metadata
     id="metadata202"><rdf:RDF><cc:Work
         rdf:about=""><dc:format>image/svg+xml</dc:format><dc:type
           rdf:resource="http://purl.org/dc/dcmitype/StillImage" /><dc:title></dc:title></cc:Work></rdf:RDF></metadata><sodipodi:namedview
     pagecolor="#ffffff"
     bordercolor="#666666"
     borderopacity="1"
     objecttolerance="10"
     gridtolerance="10"
     guidetolerance="10"
     inkscape:pageopacity="0"
     inkscape:pageshadow="2"
     inkscape:window-width="1600"
     inkscape:window-height="847"
     id="namedview200"
     showgrid="false"
     units="px"
     inkscape:zoom="0.27734287"
     inkscape:cx="512.00162"
     inkscape:cy="384"
     inkscape:window-x="-8"
     inkscape:window-y="-8"
     inkscape:window-maximized="1"
     inkscape:current-layer="svg198" /><defs
     id="defs4"><style
       type="text/css"
       id="style2"><![CDATA[
    .str0 {stroke:#FEFEFE;stroke-width:39.3701}
    .fil6 {fill:none}
    .fil5 {fill:none;fill-rule:nonzero}
    .fil3 {fill:#FEFEFE}
    .fil0 {fill:#004D40}
    .fil1 {fill:#E65100}
    .fil2 {fill:#FF9800}
    .fil4 {fill:#FEFEFE;fill-rule:nonzero}
   ]]></style></defs><g
     id="Layer_x0020_1"
     transform="translate(-3061.9341,-1756.7855)"><metadata
       id="CorelCorpID_0Corel-Layer" /><g
       id="_2509283857152"><g
         id="g56"><polygon
           class="fil0"
           points="3162,2778 3160,2945 3078,2864 "
           id="polygon7"
           style="fill:#004d40" /><polygon
           class="fil1"
           points="3375,2763 3305,2695 3389,2609 3459,2678 "
           id="polygon9"
           style="fill:#e65100" /><polygon
           class="fil1"
           points="3164,2552 3094,2484 3178,2398 3248,2467 "
           id="polygon11"
           style="fill:#e65100" /><polygon
           class="fil0"
           points="3370,2402 3300,2333 3384,2248 3454,2316 "
           id="polygon13"
           style="fill:#004d40" /><polygon
           class="fil0"
           points="3160,2192 3090,2123 3115,1979 3244,2106 "
           id="polygon15"
           style="fill:#004d40" /><path
           class="fil2"
           d="m 3142,2264 c 72,-73 202,-199 328,-328 28,28 24,147 -46,218 -73,74 -204,202 -330,330 -28,-28 -22,-148 48,-220 z"
           id="path17"
           inkscape:connector-curvature="0"
           style="fill:#ff9800" /><path
           class="fil3"
           d="m 3126,2645 c 72,-74 202,-200 328,-329 28,29 23,147 -46,218 -73,74 -204,202 -330,330 -29,-28 -22,-148 48,-219 z"
           id="path19"
           inkscape:connector-curvature="0"
           style="fill:#fefefe" /><path
           class="fil2"
           d="m 3286,2851 c 73,-73 47,-45 173,-173 29,28 24,146 -46,218 -72,74 -49,46 -175,175 -28,-28 -21,-148 48,-220 z"
           id="path21"
           inkscape:connector-curvature="0"
           style="fill:#ff9800" /><path
           class="fil4"
           d="m 3832,2434 c 34,24 63,54 87,93 23,38 34,84 34,139 0,56 -12,104 -36,145 -24,41 -56,75 -95,101 -79,55 -179,80 -275,79 -46,0 -164,-50 -62,-67 183,0 259,-116 259,-289 0,-70 -24,-128 -71,-174 -61,-57 -138,-88 -140,-106 -6,-48 61,-63 95,-102 46,-54 55,-114 55,-182 0,-66 -17,-118 -53,-156 -207,-159 -524,31 -540,208 -57,-111 40,-288 262,-332 212,-42 438,37 503,140 22,34 32,75 32,123 0,78 -27,147 -87,198 -54,48 -126,78 -197,93 v 8 c 34,4 72,12 115,26 42,13 80,31 114,55 z"
           id="path23"
           inkscape:connector-curvature="0"
           style="fill:#fefefe;fill-rule:nonzero" /><path
           class="fil4"
           d="m 4321,2589 v 181 h 110 c 40,0 70,-8 88,-22 19,-14 28,-36 28,-67 0,-31 -10,-55 -31,-69 -21,-15 -54,-23 -98,-23 z m -83,256 v -580 h 170 c 58,0 103,13 134,39 31,27 47,64 47,112 0,30 -7,55 -21,75 -14,20 -36,35 -65,46 42,10 75,28 98,54 23,27 35,59 35,96 0,48 -18,87 -53,115 -35,29 -83,43 -143,43 z m 83,-331 h 56 c 42,0 73,-8 94,-23 20,-15 30,-38 30,-70 0,-28 -8,-49 -24,-62 -16,-13 -42,-19 -77,-19 h -79 z"
           id="path25"
           inkscape:connector-curvature="0"
           style="fill:#fefefe;fill-rule:nonzero" /><path
           id="1"
           class="fil4"
           d="m 4714,2349 c 0,-12 4,-22 12,-31 9,-8 19,-12 31,-12 12,0 23,4 31,12 8,9 13,19 13,31 0,12 -5,23 -13,31 -8,8 -19,12 -31,12 -12,0 -22,-4 -31,-12 -8,-8 -12,-19 -12,-31 z m 5,496 v -383 h 76 v 383 z"
           inkscape:connector-curvature="0"
           style="fill:#fefefe;fill-rule:nonzero" /><path
           id="2"
           class="fil4"
           d="m 4951,2653 c 0,36 12,66 36,91 24,26 53,38 87,38 34,0 63,-12 87,-38 24,-25 36,-55 36,-91 0,-35 -12,-65 -36,-90 -24,-25 -53,-38 -87,-38 -34,0 -63,13 -87,38 -24,25 -36,55 -36,90 z m -80,0 c 0,-55 20,-103 59,-141 40,-39 88,-58 145,-58 27,0 52,5 77,15 24,10 46,24 66,43 19,20 34,42 45,66 10,24 15,49 15,75 0,27 -5,52 -16,77 -11,25 -25,47 -44,65 -20,19 -41,34 -66,43 -24,10 -50,15 -77,15 -57,0 -105,-20 -145,-58 -39,-39 -59,-86 -59,-142 z"
           inkscape:connector-curvature="0"
           style="fill:#fefefe;fill-rule:nonzero" /><polygon
           id="3"
           class="fil4"
           points="5845,2845 5845,2392 5645,2626 5444,2392 5444,2845 5364,2845 5364,2265 5436,2265 5645,2509 5854,2265 5926,2265 5926,2845 "
           style="fill:#fefefe;fill-rule:nonzero" /><polygon
           id="4"
           class="fil4"
           points="6136,2845 6053,2845 6053,2265 6136,2265 "
           style="fill:#fefefe;fill-rule:nonzero" /><path
           id="5"
           class="fil4"
           d="m 6757,2708 v 93 c -34,18 -69,31 -104,40 -36,10 -70,14 -105,14 -33,0 -65,-4 -95,-13 -30,-8 -59,-21 -86,-38 -43,-29 -76,-65 -100,-108 -24,-44 -36,-92 -36,-143 0,-39 8,-77 24,-114 15,-36 38,-68 67,-96 31,-29 65,-51 104,-65 38,-15 81,-22 128,-22 32,0 65,3 97,11 32,7 65,19 101,35 v 90 c -37,-19 -72,-34 -104,-44 -33,-9 -64,-14 -94,-14 -68,0 -124,21 -168,63 -45,42 -67,95 -67,159 0,63 22,115 66,157 43,42 98,63 164,63 34,0 68,-5 102,-17 35,-11 70,-28 106,-51 z"
           inkscape:connector-curvature="0"
           style="fill:#fefefe;fill-rule:nonzero" /><path
           id="6"
           class="fil5 str0"
           d="m 4321,2589 v 181 h 110 c 40,0 70,-8 88,-22 19,-14 28,-36 28,-67 0,-31 -10,-55 -31,-69 -21,-15 -54,-23 -98,-23 z m -83,256 v -580 h 170 c 58,0 103,13 134,39 31,27 47,64 47,112 0,30 -7,55 -21,75 -14,20 -36,35 -65,46 42,10 75,28 98,54 23,27 35,59 35,96 0,48 -18,87 -53,115 -35,29 -83,43 -143,43 z m 83,-331 h 56 c 42,0 73,-8 94,-23 20,-15 30,-38 30,-70 0,-28 -8,-49 -24,-62 -16,-13 -42,-19 -77,-19 h -79 z"
           inkscape:connector-curvature="0"
           style="fill:none;fill-rule:nonzero;stroke:#fefefe;stroke-width:39.37009811" /><path
           id="7"
           class="fil5 str0"
           d="m 4714,2349 c 0,-12 4,-22 12,-31 9,-8 19,-12 31,-12 12,0 23,4 31,12 8,9 13,19 13,31 0,12 -5,23 -13,31 -8,8 -19,12 -31,12 -12,0 -22,-4 -31,-12 -8,-8 -12,-19 -12,-31 z m 5,496 v -383 h 76 v 383 z"
           inkscape:connector-curvature="0"
           style="fill:none;fill-rule:nonzero;stroke:#fefefe;stroke-width:39.37009811" /><path
           id="8"
           class="fil5 str0"
           d="m 4951,2653 c 0,36 12,66 36,91 24,26 53,38 87,38 34,0 63,-12 87,-38 24,-25 36,-55 36,-91 0,-35 -12,-65 -36,-90 -24,-25 -53,-38 -87,-38 -34,0 -63,13 -87,38 -24,25 -36,55 -36,90 z m -80,0 c 0,-55 20,-103 59,-141 40,-39 88,-58 145,-58 27,0 52,5 77,15 24,10 46,24 66,43 19,20 34,42 45,66 10,24 15,49 15,75 0,27 -5,52 -16,77 -11,25 -25,47 -44,65 -20,19 -41,34 -66,43 -24,10 -50,15 -77,15 -57,0 -105,-20 -145,-58 -39,-39 -59,-86 -59,-142 z"
           inkscape:connector-curvature="0"
           style="fill:none;fill-rule:nonzero;stroke:#fefefe;stroke-width:39.37009811" /><polygon
           id="9"
           class="fil5 str0"
           points="5845,2845 5845,2392 5645,2626 5444,2392 5444,2845 5364,2845 5364,2265 5436,2265 5645,2509 5854,2265 5926,2265 5926,2845 "
           style="fill:none;fill-rule:nonzero;stroke:#fefefe;stroke-width:39.37009811" /><polygon
           id="10"
           class="fil5 str0"
           points="6136,2845 6053,2845 6053,2265 6136,2265 "
           style="fill:none;fill-rule:nonzero;stroke:#fefefe;stroke-width:39.37009811" /><path
           id="11"
           class="fil5 str0"
           d="m 6757,2708 v 93 c -34,18 -69,31 -104,40 -36,10 -70,14 -105,14 -33,0 -65,-4 -95,-13 -30,-8 -59,-21 -86,-38 -43,-29 -76,-65 -100,-108 -24,-44 -36,-92 -36,-143 0,-39 8,-77 24,-114 15,-36 38,-68 67,-96 31,-29 65,-51 104,-65 38,-15 81,-22 128,-22 32,0 65,3 97,11 32,7 65,19 101,35 v 90 c -37,-19 -72,-34 -104,-44 -33,-9 -64,-14 -94,-14 -68,0 -124,21 -168,63 -45,42 -67,95 -67,159 0,63 22,115 66,157 43,42 98,63 164,63 34,0 68,-5 102,-17 35,-11 70,-28 106,-51 z"
           inkscape:connector-curvature="0"
           style="fill:none;fill-rule:nonzero;stroke:#fefefe;stroke-width:39.37009811" /><g
           id="g44"><path
             class="fil4"
             d="m 4353,2001 v 104 c 0,33 -22,53 -63,53 -40,0 -62,-20 -62,-53 v -104 c 0,-4 2,-5 9,-5 h 2 c 6,0 9,1 9,5 v 105 c 0,20 18,35 42,35 25,0 43,-15 43,-35 v -105 c 0,-4 2,-5 9,-5 h 2 c 6,0 9,1 9,5 z"
             id="path38"
             inkscape:connector-curvature="0"
             style="fill:#fefefe;fill-rule:nonzero" /><path
             class="fil4"
             d="m 4659,2009 c 0,4 -5,13 -8,13 -2,0 -13,-10 -35,-10 -41,0 -54,24 -54,64 0,35 10,65 51,65 12,0 24,-2 30,-3 v -47 h -27 c -3,0 -5,-2 -5,-7 v -3 c 0,-5 2,-7 5,-7 h 40 c 5,0 7,2 7,7 v 60 c 0,13 -25,17 -51,17 -46,0 -71,-26 -71,-80 0,-57 26,-83 74,-83 23,0 44,8 44,14 z"
             id="path40"
             inkscape:connector-curvature="0"
             style="fill:#fefefe;fill-rule:nonzero" /><path
             class="fil4"
             d="m 5011,2001 v 151 c 0,3 -3,5 -9,5 h -2 c -6,0 -9,-2 -9,-5 v -123 l -1,1 -45,79 -5,3 h -9 l -6,-3 -46,-81 v -1 125 c 0,3 -3,5 -9,5 h -2 c -7,0 -9,-2 -9,-5 v -151 c 0,-4 2,-5 9,-5 h 8 c 6,0 8,1 10,4 l 43,75 6,14 6,-13 43,-76 c 2,-3 5,-4 10,-4 h 8 c 6,0 9,1 9,5 z"
             id="path42"
             inkscape:connector-curvature="0"
             style="fill:#fefefe;fill-rule:nonzero" /></g><g
           id="g54"><path
             class="fil4"
             d="m 6879,2681 c 0,-50 47,-65 89,-65 43,0 90,17 90,68 0,48 -48,67 -89,67 -34,0 -74,8 -74,49 v 35 h 161 v 18 h -179 v -53 c 0,-52 48,-65 91,-65 31,0 74,-12 74,-51 0,-41 -42,-53 -74,-53 -31,0 -72,11 -72,50 z"
             id="path46"
             inkscape:connector-curvature="0"
             style="fill:#fefefe;fill-rule:nonzero" /><path
             class="fil4"
             d="m 7114,2763 c 0,101 144,100 144,0 v -55 c 0,-100 -144,-100 -144,0 z m -18,-55 c 0,-123 179,-123 179,0 v 55 c 0,123 -179,123 -179,0 z"
             id="path48"
             inkscape:connector-curvature="0"
             style="fill:#fefefe;fill-rule:nonzero" /><polygon
             class="fil4"
             points="7395,2837 7395,2853 7298,2853 7298,2837 7338,2837 7338,2635 7298,2635 7298,2619 7356,2619 7356,2837 "
             id="polygon50"
             style="fill:#fefefe;fill-rule:nonzero" /><path
             class="fil4"
             d="m 7519,2617 c 23,0 41,5 54,16 14,10 20,24 20,43 0,12 -3,23 -10,31 -7,9 -16,16 -29,20 16,5 28,13 37,23 9,10 14,23 14,37 0,21 -8,38 -23,50 -16,12 -37,18 -63,18 -27,0 -48,-6 -63,-18 -15,-12 -23,-28 -23,-49 0,-15 4,-28 14,-38 9,-10 21,-18 37,-23 -12,-4 -22,-11 -29,-20 -7,-9 -11,-20 -11,-32 0,-18 7,-32 20,-42 14,-11 32,-16 55,-16 z m 0,20 c -17,0 -33,3 -42,11 -10,7 -13,16 -13,29 0,13 3,22 13,29 10,8 25,12 42,12 17,0 32,-4 42,-12 9,-7 12,-16 12,-29 0,-13 -3,-22 -12,-29 -10,-8 -25,-11 -42,-11 z m 0,103 c -20,0 -38,4 -49,13 -11,8 -17,20 -17,34 0,16 6,27 17,36 11,8 29,15 49,15 20,0 37,-7 49,-15 11,-9 17,-20 17,-35 0,-15 -6,-27 -18,-35 -11,-9 -28,-13 -48,-13 z"
             id="path52"
             inkscape:connector-curvature="0"
             style="fill:#fefefe;fill-rule:nonzero" /></g></g><g
         id="g60"><path
           class="fil0"
           d="m 3075,2121 c -53,-127 79,-268 190,-312 89,-35 170,-67 264,-45 6,2 9,9 7,15 -2,6 -8,9 -15,7 -85,-20 -169,13 -249,45 -95,38 -223,167 -177,279 3,6 1,13 -4,16 -6,3 -13,1 -16,-5 z"
           id="path58"
           inkscape:connector-curvature="0"
           style="fill:#004d40" /></g><path
         class="fil6"
         d="m 3085,2116 c -56,-103 88,-266 184,-296 80,-25 173,-74 256,-45"
         id="path62"
         inkscape:connector-curvature="0"
         style="fill:none" /><g
         id="g66"><path
           class="fil0"
           d="m 3617,1892 c 100,126 113,314 -29,411 -122,84 100,78 156,309 7,26 5,63 5,91 0,7 -5,12 -12,12 -6,0 -11,-5 -11,-12 -3,-316 -318,-304 -151,-419 129,-89 116,-262 25,-376 -4,-4 -4,-11 1,-16 4,-4 12,-4 16,0 z"
           id="path64"
           inkscape:connector-curvature="0"
           style="fill:#004d40" /></g><path
         class="fil6"
         d="m 3609,1900 c 83,87 89,226 37,334 -32,68 -179,80 -67,159 47,33 161,179 158,253 -1,17 0,39 0,57"
         id="path68"
         inkscape:connector-curvature="0"
         style="fill:none" /><g
         id="g72"><path
           class="fil0"
           d="m 3599,2332 c 245,21 449,251 318,497 -75,139 -358,242 -481,139 l -2,1 c -7,1 -12,-4 -13,-10 -1,-6 3,-12 9,-13 l 4,-1 c 5,-1 8,-1 12,2 136,95 381,0 450,-129 123,-229 -69,-443 -297,-463 -6,0 -11,-5 -11,-11 0,-7 5,-12 11,-12 z"
           id="path70"
           inkscape:connector-curvature="0"
           style="fill:#004d40" /></g><path
         class="fil6"
         d="m 3599,2344 c 106,0 246,79 298,167 45,76 58,134 39,224 -30,147 -98,162 -211,236 -38,25 -235,44 -285,-15 l -8,1"
         id="path74"
         inkscape:connector-curvature="0"
         style="fill:none" /><g
         id="g78"><path
           class="fil0"
           d="m 4218,2253 c 6,136 0,258 9,394 1,7 -3,13 -10,13 -6,1 -12,-3 -13,-10 -9,-136 -3,-259 -9,-395 -1,-7 4,-12 10,-13 6,0 12,4 13,11 z"
           id="path76"
           inkscape:connector-curvature="0"
           style="fill:#004d40" /></g><path
         class="fil6"
         d="m 4206,2254 c 13,132 -6,270 10,395"
         id="path80"
         inkscape:connector-curvature="0"
         style="fill:none" /><g
         id="g84"><path
           class="fil0"
           d="m 4199,2239 c 56,-3 313,-26 349,46 2,6 -1,13 -7,15 -6,2 -13,-1 -15,-7 -25,-50 -286,-33 -325,-31 -6,1 -12,-4 -13,-10 0,-7 4,-12 11,-13 z"
           id="path82"
           inkscape:connector-curvature="0"
           style="fill:#004d40" /></g><path
         class="fil6"
         d="m 4200,2251 c 39,-5 317,-20 337,38"
         id="path86"
         inkscape:connector-curvature="0"
         style="fill:none" /><g
         id="g90"><path
           class="fil0"
           d="m 4343,2418 c 0,0 0,70 0,70 0,7 -5,12 -12,12 -6,0 -11,-5 -11,-12 0,0 0,-70 0,-70 0,-7 5,-12 11,-12 7,0 12,5 12,12 z"
           id="path88"
           inkscape:connector-curvature="0"
           style="fill:#004d40" /></g><path
         class="fil6"
         d="m 4331,2418 c 0,23 0,47 0,70"
         id="path92"
         inkscape:connector-curvature="0"
         style="fill:none" /><g
         id="g96"><path
           class="fil0"
           d="m 4492,2430 c -45,76 -42,82 -154,83 -7,0 -12,-6 -12,-12 0,-6 5,-12 12,-12 107,-1 95,-4 135,-71 3,-6 11,-7 16,-4 5,4 7,11 3,16 z"
           id="path94"
           inkscape:connector-curvature="0"
           style="fill:#004d40" /></g><path
         class="fil6"
         d="m 4482,2424 c -31,47 -10,63 -96,74 -23,2 -23,3 -48,3"
         id="path98"
         inkscape:connector-curvature="0"
         style="fill:none" /><g
         id="g102"><path
           class="fil0"
           d="m 4340,2596 c 77,-5 247,10 184,127 -21,41 -41,40 -77,40 -6,0 -11,-5 -11,-11 0,-7 5,-12 11,-12 24,0 33,4 50,-17 76,-95 -96,-108 -155,-104 -6,0 -12,-4 -12,-11 -1,-6 4,-12 10,-12 z"
           id="path100"
           inkscape:connector-curvature="0"
           style="fill:#004d40" /></g><path
         class="fil6"
         d="m 4341,2607 c 264,-26 181,156 122,144 0,0 -14,1 -16,1"
         id="path104"
         inkscape:connector-curvature="0"
         style="fill:none" /><g
         id="g108"><path
           class="fil0"
           d="m 4553,2522 c 134,60 133,299 -8,334 -130,32 -175,32 -310,23 -6,0 -11,-5 -11,-12 0,-6 5,-11 11,-11 135,8 176,10 306,-23 117,-29 115,-239 5,-289 -6,-2 -9,-8 -7,-14 2,-6 8,-10 14,-8 z"
           id="path106"
           inkscape:connector-curvature="0"
           style="fill:#004d40" /></g><path
         class="fil6"
         d="m 4550,2533 c 116,36 124,289 -7,311 -94,16 -82,30 -205,30 -42,0 -66,-7 -103,-7"
         id="path110"
         inkscape:connector-curvature="0"
         style="fill:none" /><g
         id="g114"><path
           class="fil0"
           d="m 4718,2447 c -8,93 -4,173 -2,269 0,7 -6,12 -12,12 -6,0 -12,-5 -12,-12 -1,-102 -6,-177 4,-276 2,-6 9,-10 15,-8 6,2 9,9 7,15 z"
           id="path112"
           inkscape:connector-curvature="0"
           style="fill:#004d40" /></g><path
         class="fil6"
         d="m 4707,2443 c -10,34 -3,226 -3,273"
         id="path116"
         inkscape:connector-curvature="0"
         style="fill:none" /><g
         id="g120"><path
           class="fil0"
           d="m 4818,2630 c 1,20 22,238 -14,243 -18,2 -69,5 -87,6 -7,0 -12,-5 -12,-12 0,-6 5,-11 12,-11 55,-4 30,-2 80,-6 7,-36 -1,-190 -2,-220 0,-7 5,-12 12,-12 6,0 11,5 11,12 z"
           id="path118"
           inkscape:connector-curvature="0"
           style="fill:#004d40" /></g><path
         class="fil6"
         d="m 4807,2630 c 0,13 12,230 -3,231 -23,1 -64,6 -87,6"
         id="path122"
         inkscape:connector-curvature="0"
         style="fill:none" /><g
         id="g126"><path
           class="fil0"
           d="m 4697,2309 c 90,-133 170,59 93,81 -7,2 -13,-3 -14,-9 -1,-6 3,-12 9,-13 32,-9 -3,-144 -68,-47 -3,5 -10,7 -16,4 -5,-3 -7,-10 -4,-16 z"
           id="path124"
           inkscape:connector-curvature="0"
           style="fill:#004d40" /></g><path
         class="fil6"
         d="m 4707,2315 c 68,-119 140,53 81,64"
         id="path128"
         inkscape:connector-curvature="0"
         style="fill:none" /><g
         id="g132"><path
           class="fil0"
           d="m 5067,2551 c -55,3 -43,13 -62,20 -27,62 -23,-1 -26,113 0,7 -5,12 -12,12 -6,0 -11,-5 -11,-12 2,-91 14,-151 111,-156 6,0 12,5 12,12 0,6 -6,11 -12,11 z"
           id="path130"
           inkscape:connector-curvature="0"
           style="fill:#004d40" /></g><path
         class="fil6"
         d="m 5067,2540 c -57,0 -56,20 -71,22 -19,57 -29,1 -29,122"
         id="path134"
         inkscape:connector-curvature="0"
         style="fill:none" /><g
         id="g138"><path
           class="fil0"
           d="m 5248,2523 c 98,56 64,376 -193,365 -50,-2 -146,-73 -172,-113 -2,-6 1,-13 7,-15 6,-2 12,1 14,7 21,29 115,96 150,98 234,13 258,-279 185,-321 -6,-3 -9,-9 -6,-15 2,-6 9,-9 15,-6 z"
           id="path136"
           inkscape:connector-curvature="0"
           style="fill:#004d40" /></g><path
         class="fil6"
         d="m 5244,2533 c 55,23 103,332 -190,344 -31,1 -151,-78 -160,-106"
         id="path140"
         inkscape:connector-curvature="0"
         style="fill:none" /><g
         id="g144"><path
           class="fil0"
           d="m 5361,2257 c -9,127 8,219 10,343 -2,6 -8,10 -14,9 -6,-1 -10,-7 -9,-14 -3,-128 -20,-212 -9,-345 1,-6 8,-9 14,-7 6,2 10,8 8,14 z"
           id="path142"
           inkscape:connector-curvature="0"
           style="fill:#004d40" /></g><path
         class="fil6"
         d="m 5350,2254 c -19,61 17,304 9,343"
         id="path146"
         inkscape:connector-curvature="0"
         style="fill:none" /><g
         id="g150"><path
           class="fil0"
           d="m 5454,2243 c 26,37 148,199 197,222 61,-69 30,-35 97,-104 7,-1 13,3 14,9 2,6 -2,12 -8,14 -11,12 -84,95 -90,101 -41,39 -224,-225 -233,-240 0,-6 4,-12 11,-12 6,-1 12,4 12,10 z"
           id="path148"
           inkscape:connector-curvature="0"
           style="fill:#004d40" /></g><path
         class="fil6"
         d="m 5443,2244 c 2,19 193,252 213,232 11,-11 90,-102 95,-103"
         id="path152"
         inkscape:connector-curvature="0"
         style="fill:none" /><g
         id="g156"><path
           class="fil0"
           d="m 5591,2575 c 126,93 21,38 205,-125 55,-50 46,102 47,138 0,6 -5,11 -12,11 -6,0 -11,-5 -11,-11 -2,-40 -5,-81 -10,-120 -172,155 -96,227 -232,126 -6,-4 -7,-11 -3,-16 3,-5 10,-7 16,-3 z"
           id="path154"
           inkscape:connector-curvature="0"
           style="fill:#004d40" /></g><path
         class="fil6"
         d="m 5584,2585 c 98,67 41,73 180,-84 74,-84 53,-55 64,42 2,15 3,29 3,45"
         id="path158"
         inkscape:connector-curvature="0"
         style="fill:none" /><g
         id="g162"><path
           class="fil0"
           d="m 5839,2813 c -13,52 -7,47 70,39 45,-4 20,-132 21,-187 2,-90 5,-165 -1,-255 -1,-6 3,-12 9,-13 7,-2 13,2 14,9 6,92 3,167 1,260 -1,60 26,191 -31,207 -75,21 -123,8 -105,-67 2,-6 9,-10 15,-8 6,2 9,9 7,15 z"
           id="path160"
           inkscape:connector-curvature="0"
           style="fill:#004d40" /></g><path
         class="fil6"
         d="m 5828,2809 c -23,75 18,53 71,55 63,3 42,-56 42,-128 0,-60 8,-283 0,-328"
         id="path164"
         inkscape:connector-curvature="0"
         style="fill:none" /><g
         id="g168"><path
           class="fil0"
           d="m 6045,2247 c 0,132 0,264 0,395 0,7 -5,12 -11,12 -7,0 -12,-5 -12,-12 0,-131 0,-263 0,-395 0,-6 5,-11 12,-11 6,0 11,5 11,11 z"
           id="path166"
           inkscape:connector-curvature="0"
           style="fill:#004d40" /></g><path
         class="fil6"
         d="m 6034,2247 c 0,131 0,264 0,395"
         id="path170"
         inkscape:connector-curvature="0"
         style="fill:none" /><g
         id="g174"><path
           class="fil0"
           d="m 6151,2587 c 2,18 28,273 -7,284 -7,2 -59,1 -65,1 -6,1 -12,-4 -12,-11 0,-6 5,-12 11,-12 42,0 25,0 55,0 13,-34 -2,-230 -5,-260 0,-6 4,-12 11,-13 6,0 12,4 12,11 z"
           id="path172"
           inkscape:connector-curvature="0"
           style="fill:#004d40" /></g><path
         class="fil6"
         d="m 6140,2588 c 3,32 20,264 0,272 -3,1 -44,0 -61,1"
         id="path176"
         inkscape:connector-curvature="0"
         style="fill:none" /><g
         id="g180"><path
           class="fil0"
           d="m 6771,2302 c 6,270 -14,-36 -312,81 -61,24 -78,65 -106,121 -1,6 -8,10 -14,8 -6,-1 -10,-8 -8,-14 l 17,-37 c 78,-146 299,-161 401,-78 1,-25 -1,-64 -1,-81 0,-6 5,-12 12,-12 6,0 11,6 11,12 z m -7,95 c 0,1 1,1 1,1 0,0 -1,0 -1,-1 z"
           id="path178"
           inkscape:connector-curvature="0"
           style="fill:#004d40" /></g><path
         class="fil6"
         d="m 6760,2302 c 0,15 3,114 -4,103 -59,-81 -317,-80 -378,29 -9,15 -32,50 -36,67"
         id="path182"
         inkscape:connector-curvature="0"
         style="fill:none" /><g
         id="g186"><path
           class="fil0"
           d="m 6778,2681 c 3,84 2,42 3,126 -1,6 -6,11 -13,11 -6,-1 -11,-6 -10,-13 -1,-81 0,-39 -4,-124 0,-6 6,-12 12,-12 6,0 12,6 12,12 z"
           id="path184"
           inkscape:connector-curvature="0"
           style="fill:#004d40" /></g><path
         class="fil6"
         d="m 6766,2681 c 0,34 6,96 3,125"
         id="path188"
         inkscape:connector-curvature="0"
         style="fill:none" /><g
         id="g192"><path
           class="fil0"
           d="m 6782,2820 c -79,79 -319,94 -409,28 -90,-64 -165,-135 -167,-250 -4,-1 -7,-5 -7,-9 -1,-7 4,-12 10,-13 10,0 18,3 20,13 26,131 30,149 158,241 78,57 308,43 376,-24 4,-5 11,-6 16,-3 6,4 7,12 3,17 z"
           id="path190"
           inkscape:connector-curvature="0"
           style="fill:#004d40" /></g><path
         class="fil6"
         d="m 6772,2813 c -49,64 -311,92 -392,26 -79,-63 -149,-109 -163,-229 -2,-11 5,-23 -7,-22"
         id="path194"
         inkscape:connector-curvature="0"
         style="fill:none" /></g></g></svg>