<?xml version="1.0" encoding="UTF-8" standalone="no"?>
<!-- Creator: CorelDRAW X7 -->

<svg
   xmlns:dc="http://purl.org/dc/elements/1.1/"
   xmlns:cc="http://creativecommons.org/ns#"
   xmlns:rdf="http://www.w3.org/1999/02/22-rdf-syntax-ns#"
   xmlns:svg="http://www.w3.org/2000/svg"
   xmlns="http://www.w3.org/2000/svg"
   xmlns:sodipodi="http://sodipodi.sourceforge.net/DTD/sodipodi-0.dtd"
   xmlns:inkscape="http://www.inkscape.org/namespaces/inkscape"
   xml:space="preserve"
   width="8.1420002in"
   height="1.658in"
   version="1.1"
   style="clip-rule:evenodd;fill-rule:evenodd;image-rendering:optimizeQuality;shape-rendering:geometricPrecision;text-rendering:geometricPrecision"
   viewBox="0 0 8141.9377 1658.0262"
   id="svg28"
   sodipodi:docname="aip.svg"
   inkscape:version="0.92.2 (5c3e80d, 2017-08-06)"><metadata
     id="metadata32"><rdf:RDF><cc:Work
         rdf:about=""><dc:format>image/svg+xml</dc:format><dc:type
           rdf:resource="http://purl.org/dc/dcmitype/StillImage" /><dc:title></dc:title></cc:Work></rdf:RDF></metadata><sodipodi:namedview
     pagecolor="#ffffff"
     bordercolor="#666666"
     borderopacity="1"
     objecttolerance="10"
     gridtolerance="10"
     guidetolerance="10"
     inkscape:pageopacity="0"
     inkscape:pageshadow="2"
     inkscape:window-width="1600"
     inkscape:window-height="847"
     id="namedview30"
     showgrid="false"
     inkscape:zoom="0.12927914"
     inkscape:cx="623.62079"
     inkscape:cy="912.75357"
     inkscape:window-x="-8"
     inkscape:window-y="-8"
     inkscape:window-maximized="1"
     inkscape:current-layer="svg28" /><defs
     id="defs4"><style
       type="text/css"
       id="style2"><![CDATA[
    .fil0 {fill:#FAC831}
    .fil1 {fill:#10679C;fill-rule:nonzero}
   ]]></style></defs><g
     id="Layer_x0020_1"
     transform="translate(-2522.0312,-1024.9869)"><metadata
       id="CorelCorpID_0Corel-Layer" /><g
       id="_2357365165952"><polygon
         class="fil0"
         points="5873,1067 5872,2683 5984,2638 5984,1025 "
         id="polygon7"
         style="fill:#fac831" /><path
         class="fil1"
         d="M 4501,2585 V 1164 h 541 c 95,0 168,5 219,13 70,12 129,34 177,67 48,32 86,78 115,137 29,58 44,197 44,268 0,120 -39,234 -117,318 -78,83 -218,125 -421,125 h -347 l 87,-214 h 275 c 120,0 205,-22 255,-68 63,-56 58,-283 15,-343 -29,-43 -53,-71 -101,-84 -31,-9 -89,-13 -173,-13 h -378 v 496 l -1,226 v 0 51 442 z"
         id="path9"
         inkscape:connector-curvature="0"
         style="fill:#10679c;fill-rule:nonzero" /><polygon
         class="fil1"
         points="4017,2585 4017,1164 4231,1164 4231,2585 "
         id="polygon11"
         style="fill:#10679c;fill-rule:nonzero" /><polygon
         class="fil1"
         points="3542,2198 3199,1352 2882,2188 2882,2187 2732,2585 2522,2585 3096,1164 3314,1164 3923,2585 3698,2585 3618,2387 2963,2386 2887,2199 "
         id="polygon13"
         style="fill:#10679c;fill-rule:nonzero" /><path
         class="fil1"
         d="m 6400,2277 h -119 v -753 h 272 c 78,0 135,22 173,67 37,44 56,96 56,157 0,68 -20,124 -61,167 -40,42 -92,64 -154,64 h -167 z m 0,-415 h 142 c 37,0 66,-10 85,-30 20,-21 29,-49 29,-83 0,-31 -9,-57 -27,-79 -18,-22 -50,-33 -97,-33 h -132 z"
         id="path15"
         inkscape:connector-curvature="0"
         style="fill:#10679c;fill-rule:nonzero" /><path
         id="1"
         class="fil1"
         d="m 7277,2277 h -103 v -120 c -28,88 -80,132 -156,132 -44,0 -80,-16 -106,-47 -27,-32 -40,-76 -40,-132 v -390 h 114 v 363 c 0,40 8,66 23,79 16,12 31,19 46,19 24,0 48,-13 73,-37 26,-24 38,-77 38,-156 v -268 h 111 z"
         inkscape:connector-curvature="0"
         style="fill:#10679c;fill-rule:nonzero" /><path
         id="2"
         class="fil1"
         d="m 7461,2277 h -51 v -753 h 112 v 272 c 21,-41 42,-69 63,-82 21,-13 46,-20 74,-20 54,0 99,26 134,78 35,52 53,124 53,216 0,83 -17,154 -52,213 -35,58 -85,88 -151,88 -65,0 -116,-35 -153,-103 z m 61,-238 c 0,50 9,87 28,111 19,23 44,35 74,35 29,0 54,-14 74,-41 19,-27 30,-80 31,-160 0,-58 -9,-103 -27,-134 -17,-31 -43,-47 -75,-47 -31,0 -56,13 -76,40 -19,27 -29,65 -29,114 z"
         inkscape:connector-curvature="0"
         style="fill:#10679c;fill-rule:nonzero" /><polygon
         id="3"
         class="fil1"
         points="8058,2277 7947,2277 7947,1524 8058,1524 "
         style="fill:#10679c;fill-rule:nonzero" /><path
         id="4"
         class="fil1"
         d="m 8303,1655 h -112 v -131 h 112 z m 0,622 h -112 v -557 h 112 z"
         inkscape:connector-curvature="0"
         style="fill:#10679c;fill-rule:nonzero" /><path
         id="5"
         class="fil1"
         d="m 8376,2149 104,-22 c 16,45 52,67 106,67 69,0 103,-23 103,-69 0,-14 -5,-26 -16,-36 -11,-10 -23,-16 -38,-19 l -90,-20 c -99,-21 -149,-76 -149,-164 0,-50 16,-92 47,-126 32,-34 79,-52 141,-52 104,0 168,44 191,130 l -99,23 c -11,-42 -40,-63 -89,-63 -59,0 -89,21 -89,63 0,29 24,49 72,60 l 106,25 c 82,19 123,72 123,160 0,61 -21,107 -63,137 -42,31 -93,46 -151,46 -50,0 -95,-12 -133,-35 -39,-23 -64,-58 -76,-105 z"
         inkscape:connector-curvature="0"
         style="fill:#10679c;fill-rule:nonzero" /><path
         id="6"
         class="fil1"
         d="m 9297,2277 h -111 v -365 c 0,-39 -8,-66 -23,-82 -14,-16 -32,-24 -52,-24 -31,0 -57,14 -79,42 -21,28 -32,75 -32,140 v 289 h -111 v -753 h 111 v 294 c 27,-80 76,-121 145,-121 101,0 152,66 152,197 z"
         inkscape:connector-curvature="0"
         style="fill:#10679c;fill-rule:nonzero" /><path
         id="7"
         class="fil1"
         d="m 9541,1655 h -111 v -131 h 111 z m 0,622 h -111 v -557 h 111 z"
         inkscape:connector-curvature="0"
         style="fill:#10679c;fill-rule:nonzero" /><path
         id="8"
         class="fil1"
         d="m 10082,2277 h -111 v -348 c 0,-37 -8,-64 -23,-83 -15,-18 -33,-28 -54,-28 -29,0 -54,15 -76,43 -22,29 -33,72 -33,130 v 286 h -111 v -557 h 102 v 129 c 35,-94 85,-141 149,-141 43,0 80,16 111,47 30,31 46,85 46,163 z"
         inkscape:connector-curvature="0"
         style="fill:#10679c;fill-rule:nonzero" /><path
         id="9"
         class="fil1"
         d="m 10663,1614 v 96 h -34 c -15,0 -28,2 -39,6 -11,4 -22,17 -33,39 39,36 59,77 59,121 0,49 -19,90 -55,122 -37,32 -85,49 -145,49 -26,0 -56,-5 -91,-15 -23,12 -34,30 -34,55 0,14 5,26 16,37 11,12 28,17 50,17 h 147 c 50,0 89,15 117,44 29,29 43,66 43,109 0,53 -22,97 -65,131 -43,35 -107,52 -191,52 -159,0 -238,-50 -238,-151 0,-49 24,-87 72,-113 -31,-29 -46,-60 -46,-92 0,-48 26,-87 78,-116 -45,-31 -68,-74 -68,-129 0,-46 17,-86 50,-118 34,-33 84,-50 152,-50 32,0 63,4 96,12 15,-71 54,-106 118,-106 z m -252,358 c 60,0 91,-32 91,-96 0,-25 -8,-46 -23,-63 -15,-17 -37,-25 -66,-25 -29,0 -52,9 -68,26 -16,18 -24,40 -24,67 0,27 8,49 24,66 16,17 38,25 66,25 z m -122,275 c -16,16 -24,32 -24,48 0,25 14,47 40,67 27,19 69,29 127,29 86,0 128,-25 128,-75 0,-18 -7,-32 -22,-41 -15,-10 -32,-14 -51,-14 h -118 c -22,0 -49,-5 -80,-14 z"
         inkscape:connector-curvature="0"
         style="fill:#10679c;fill-rule:nonzero" /></g></g></svg>