<svg id="Layer_1" data-name="Layer 1" xmlns="http://www.w3.org/2000/svg" viewBox="0 0 348.69 233.85"><defs><style>.cls-1{fill:#10679c;}.cls-2{fill:#fac831;}.cls-3{fill:#fff;}</style></defs><title>aip</title><g id="Layer_1-2" data-name="Layer 1-2"><g id="_1848508970096" data-name=" 1848508970096"><rect class="cls-1" width="348.69" height="233.85"/></g></g><g id="Layer_1-2-2" data-name="Layer_1"><g id="_2357365165952" data-name=" 2357365165952"><polygon id="polygon7" class="cls-2" points="161.16 92.78 161.14 134.01 163.99 132.86 163.99 91.71 161.16 92.78"/><path id="path9" class="cls-3" d="M126.16,131.51V95.26H140a37,37,0,0,1,5.59.33,10.93,10.93,0,0,1,4.51,1.71,8.62,8.62,0,0,1,2.94,3.49c.74,1.48,1.12,5,1.12,6.84a11.79,11.79,0,0,1-3,8.11q-3,3.18-10.74,3.19h-8.86l2.22-5.46h7c3.06,0,5.23-.56,6.5-1.73,1.61-1.43,1.48-7.22.39-8.75a4.35,4.35,0,0,0-2.58-2.15,18.81,18.81,0,0,0-4.41-.33H131v12.65l0,5.77h0v12.58Z" transform="translate(0 0)"/><polygon id="polygon11" class="cls-3" points="113.81 131.51 113.81 95.25 119.27 95.25 119.27 131.51 113.81 131.51"/><polygon id="polygon13" class="cls-3" points="101.69 121.63 92.94 100.05 84.86 121.38 84.86 121.35 81.03 131.51 75.67 131.51 90.32 95.25 95.88 95.25 111.42 131.51 105.67 131.51 103.63 126.46 86.92 126.43 84.98 121.66 101.69 121.63"/><path id="path15" class="cls-3" d="M174.61,123.65h-3V104.44h6.94a5.41,5.41,0,0,1,4.41,1.71,6.47,6.47,0,0,1-.12,8.26,5.21,5.21,0,0,1-3.93,1.64h-4.26Zm0-10.59h3.62a2.9,2.9,0,0,0,2.17-.76,3,3,0,0,0,.74-2.12,3.09,3.09,0,0,0-.69-2,3.06,3.06,0,0,0-2.48-.84h-3.36Z" transform="translate(0 0)"/><path id="_1" data-name="1" class="cls-3" d="M197,123.65h-2.63v-3.06c-.71,2.24-2,3.37-4,3.37a3.37,3.37,0,0,1-2.7-1.2,5.06,5.06,0,0,1-1-3.37v-10h2.91v9.26a2.67,2.67,0,0,0,.58,2,2,2,0,0,0,1.18.48,2.8,2.8,0,0,0,1.86-.94c.66-.62,1-2,1-4v-6.84H197Z" transform="translate(0 0)"/><path id="_2" data-name="2" class="cls-3" d="M201.68,123.65h-1.31V104.44h2.86v6.94a5.23,5.23,0,0,1,1.61-2.09,3.45,3.45,0,0,1,1.89-.51,4,4,0,0,1,3.42,2,9.78,9.78,0,0,1,1.35,5.51,10.48,10.48,0,0,1-1.33,5.43,4.27,4.27,0,0,1-3.85,2.25,4.35,4.35,0,0,1-3.9-2.63Zm1.55-6.07a4.5,4.5,0,0,0,.72,2.83,2.33,2.33,0,0,0,1.88.89,2.3,2.3,0,0,0,1.89-1,7.78,7.78,0,0,0,.79-4.09,6.9,6.9,0,0,0-.69-3.41,2.1,2.1,0,0,0-1.91-1.2,2.3,2.3,0,0,0-1.94,1,5,5,0,0,0-.74,2.91Z" transform="translate(0 0)"/><polygon id="_3" data-name="3" class="cls-3" points="216.91 123.65 214.07 123.65 214.07 104.44 216.91 104.44 216.91 123.65"/><path id="_4" data-name="4" class="cls-3" d="M223.16,107.78H220.3v-3.34h2.86Zm0,15.87H220.3V109.44h2.86Z" transform="translate(0 0)"/><path id="_5" data-name="5" class="cls-3" d="M225,120.38l2.65-.56a2.57,2.57,0,0,0,2.71,1.71c1.76,0,2.62-.58,2.62-1.76a1.19,1.19,0,0,0-.4-.92,2.07,2.07,0,0,0-1-.48l-2.3-.51q-3.79-.81-3.8-4.19a4.61,4.61,0,0,1,1.2-3.21,4.69,4.69,0,0,1,3.59-1.33c2.66,0,4.29,1.13,4.88,3.32l-2.53.59a2.07,2.07,0,0,0-2.27-1.61c-1.5,0-2.27.54-2.27,1.61,0,.74.61,1.25,1.84,1.53l2.7.64a3.74,3.74,0,0,1,3.14,4.08,4,4,0,0,1-1.61,3.49,6.33,6.33,0,0,1-3.85,1.18,6.43,6.43,0,0,1-3.39-.9A4.09,4.09,0,0,1,225,120.38Z" transform="translate(0 0)"/><path id="_6" data-name="6" class="cls-3" d="M248.51,123.65h-2.83v-9.31a3,3,0,0,0-.58-2.09,1.73,1.73,0,0,0-1.33-.62,2.5,2.5,0,0,0-2,1.08,6.12,6.12,0,0,0-.81,3.57v7.37h-2.83V104.44h2.83v7.5c.69-2,1.94-3.09,3.7-3.09,2.57,0,3.87,1.69,3.87,5Z" transform="translate(0 0)"/><path id="_7" data-name="7" class="cls-3" d="M254.74,107.78h-2.83v-3.34h2.83Zm0,15.87h-2.83V109.44h2.83Z" transform="translate(0 0)"/><path id="_8" data-name="8" class="cls-3" d="M268.54,123.65h-2.83v-8.88a3.31,3.31,0,0,0-.59-2.12,1.75,1.75,0,0,0-1.37-.71,2.44,2.44,0,0,0-1.94,1.1,5.41,5.41,0,0,0-.85,3.31v7.3h-2.83V109.44h2.6v3.29q1.35-3.6,3.81-3.6a3.89,3.89,0,0,1,2.83,1.2c.76.79,1.17,2.17,1.17,4.16Z" transform="translate(0 0)"/><path id="_9" data-name="9" class="cls-3" d="M283.36,106.74v2.44h-.86a3,3,0,0,0-1,.16,1.87,1.87,0,0,0-.84,1,4.19,4.19,0,0,1,1.5,3.09,4,4,0,0,1-1.4,3.11,5.43,5.43,0,0,1-3.7,1.25,8.77,8.77,0,0,1-2.32-.38,1.47,1.47,0,0,0-.87,1.4,1.29,1.29,0,0,0,.41,1,1.68,1.68,0,0,0,1.28.43h3.75a4,4,0,0,1,3,1.12,3.8,3.8,0,0,1,1.1,2.78,4.1,4.1,0,0,1-1.66,3.35,7.62,7.62,0,0,1-4.87,1.32c-4.06,0-6.07-1.27-6.07-3.85a3.13,3.13,0,0,1,1.83-2.88,3.21,3.21,0,0,1-1.17-2.35,3.34,3.34,0,0,1,2-3,3.79,3.79,0,0,1-1.74-3.29,4.09,4.09,0,0,1,1.28-3,5.35,5.35,0,0,1,3.88-1.28,10.48,10.48,0,0,1,2.45.31c.38-1.81,1.38-2.7,3-2.7Zm-6.43,9.13c1.54,0,2.33-.82,2.33-2.45a2.38,2.38,0,0,0-.59-1.61,2.12,2.12,0,0,0-1.68-.64,2.28,2.28,0,0,0-1.74.67,2.46,2.46,0,0,0-.61,1.71,2.33,2.33,0,0,0,.61,1.68A2.21,2.21,0,0,0,276.93,115.87Zm-3.11,7a1.76,1.76,0,0,0-.61,1.23,2.19,2.19,0,0,0,1,1.71,5.72,5.72,0,0,0,3.24.74c2.19,0,3.27-.64,3.27-1.92a1.13,1.13,0,0,0-.57-1,2.22,2.22,0,0,0-1.3-.36h-3A7.63,7.63,0,0,1,273.82,122.88Z" transform="translate(0 0)"/></g></g></svg>