<svg id="Layer_1" data-name="Layer 1" xmlns="http://www.w3.org/2000/svg" viewBox="0 0 236.74 42.56"><defs><style>.cls-1{fill:#009162;}.cls-2{isolation:isolate;font-size:24.21px;font-family:CenturyGothic-Bold, Century Gothic;font-weight:700;}.cls-2,.cls-3{fill:#fff;}</style></defs><title>bio-logo</title><g id="Layer_1-2" data-name="Layer 1-2"><g id="_1848508970096" data-name=" 1848508970096"><path class="cls-1" d="M5.84,0H230.9a5.87,5.87,0,0,1,5.84,5.84V36.72a5.87,5.87,0,0,1-5.84,5.84H5.84A5.87,5.87,0,0,1,0,36.72V5.84A5.87,5.87,0,0,1,5.84,0Z" transform="translate(0 0)"/><text class="cls-2" transform="translate(6.75 29.82)">BIO</text><path class="cls-3" d="M57.19,15.08h1.3L61,23.93l3.53-8.85h.21l3.46,8.85,2.59-8.85H72L68.5,27.32h-.22L64.68,18l-3.75,9.29h-.22Zm24.63,9.29,1,.5a5.45,5.45,0,0,1-1.15,1.51,4.51,4.51,0,0,1-1.44.87,5,5,0,0,1-1.8.36A4.13,4.13,0,0,1,75,26.09a4.63,4.63,0,0,1-1.3-3.24,4.87,4.87,0,0,1,1.08-3.09A4.25,4.25,0,0,1,78.36,18a4.4,4.4,0,0,1,3.74,1.8,4.69,4.69,0,0,1,1,3.1H74.93a3.79,3.79,0,0,0,1,2.59,3.35,3.35,0,0,0,2.45,1,4.81,4.81,0,0,0,1.3-.29,3.27,3.27,0,0,0,1.15-.65A5,5,0,0,0,81.82,24.37Zm0-2.45a2.92,2.92,0,0,0-.72-1.51,3.14,3.14,0,0,0-2.74-1.23,3.32,3.32,0,0,0-2.3.87A4,4,0,0,0,75,21.92Zm3.52,5.4V14.79H86.5v5a5.73,5.73,0,0,1,1.65-1.37,4.48,4.48,0,0,1,2-.43,4.35,4.35,0,0,1,3.24,1.44,4.79,4.79,0,0,1-3.31,8.14,5.1,5.1,0,0,1-2-.51,4.24,4.24,0,0,1-1.58-1.45v1.67ZM90,26.45a3.26,3.26,0,0,0,1.8-.5,2.87,2.87,0,0,0,1.3-1.3,3.55,3.55,0,0,0,.5-1.87,3.3,3.3,0,0,0-.5-1.81,3.56,3.56,0,0,0-1.3-1.37,3.26,3.26,0,0,0-1.8-.5,3.35,3.35,0,0,0-1.8.5,3.4,3.4,0,0,0-1.36,1.3,4,4,0,0,0-.44,1.88,3.75,3.75,0,0,0,1,2.58A3.54,3.54,0,0,0,90,26.45ZM105.93,18a4.49,4.49,0,0,1,3.52,1.51,5,5,0,0,1,1.23,3.31,4.82,4.82,0,0,1-1.3,3.32,4.66,4.66,0,0,1-3.45,1.44,4.53,4.53,0,0,1-3.39-1.44,4.62,4.62,0,0,1-1.37-3.32,4.67,4.67,0,0,1,1.3-3.31A4.48,4.48,0,0,1,105.93,18Zm0,1.15a3.2,3.2,0,0,0-2.45,1.08,3.53,3.53,0,0,0-1.08,2.59,3.13,3.13,0,0,0,.5,1.8A3.36,3.36,0,0,0,104.2,26a3.5,3.5,0,0,0,1.73.43,3.74,3.74,0,0,0,1.8-.43A3.47,3.47,0,0,0,109,24.65a3.71,3.71,0,0,0,.51-1.8,3.53,3.53,0,0,0-1.08-2.59,3.34,3.34,0,0,0-2.52-1.06Zm10.65-4.39v1.15a2.39,2.39,0,0,0-1.08-.29.7.7,0,0,0-.57.15.49.49,0,0,0-.29.29c0,.14-.07.43-.07.93v1.23h1.94v1h-1.94v8.07h-1.16V19.25h-1.22v-1h1.22V16.88a6.29,6.29,0,0,1,.15-1.44,1.33,1.33,0,0,1,.65-.65,2.22,2.22,0,0,1,1-.29,5,5,0,0,1,1.38.29Zm18,2.52-.93.79a5.61,5.61,0,0,0-4.4-2.16,5.51,5.51,0,0,0-4.68,2.59,5.8,5.8,0,0,0-.72,2.74A5,5,0,0,0,125.44,25a5.27,5.27,0,0,0,3.89,1.52,5.64,5.64,0,0,0,4.32-2l.93.72a5.89,5.89,0,0,1-2.3,1.8,7.2,7.2,0,0,1-3,.65,6.41,6.41,0,0,1-5.11-2.16,6.73,6.73,0,0,1-1.58-4.39,6,6,0,0,1,1.94-4.54,6.33,6.33,0,0,1,4.68-1.8,6.91,6.91,0,0,1,3.1.65,5.86,5.86,0,0,1,2.28,1.85Zm6.55.72a4.53,4.53,0,0,1,3.53,1.51,4.58,4.58,0,0,1,1.23,3.31,4.88,4.88,0,0,1-1.3,3.32,4.56,4.56,0,0,1-3.46,1.44,4.51,4.51,0,0,1-3.38-1.44,4.93,4.93,0,0,1-1.37-3.32,4.65,4.65,0,0,1,1.3-3.31A4.48,4.48,0,0,1,141.14,18Zm0,1.15a3.17,3.17,0,0,0-2.44,1.08,3.53,3.53,0,0,0-1.08,2.59,3.13,3.13,0,0,0,.5,1.8,3.29,3.29,0,0,0,3,1.8,3.74,3.74,0,0,0,1.8-.43,3.36,3.36,0,0,0,1.3-1.37,3.69,3.69,0,0,0,.5-1.8,3.53,3.53,0,0,0-1.08-2.59,3.33,3.33,0,0,0-2.49-1.06Zm6.92-.93h1.15V19.9a4.34,4.34,0,0,1,1.58-1.37,3.33,3.33,0,0,1,1.87-.5,3.69,3.69,0,0,1,1.8.5A3.08,3.08,0,0,1,155.6,20a6.53,6.53,0,0,1,.36,2.74v4.61h-1.15V23a7.7,7.7,0,0,0-.14-2.09,2.36,2.36,0,0,0-.79-1.37,2.21,2.21,0,0,0-1.44-.43,2.84,2.84,0,0,0-2,.72,2.8,2.8,0,0,0-1.08,1.73,9.13,9.13,0,0,0-.21,2.45v3.31H148Zm14.18-3.46v1.15a2.39,2.39,0,0,0-1.08-.29.71.71,0,0,0-.58.15.55.55,0,0,0-.29.29c0,.14-.07.43-.07.93v1.23h2v1h-2v8.07h-1.15V19.25h-1.22v-1h1.22V16.88a6.28,6.28,0,0,1,.14-1.44,1.37,1.37,0,0,1,.65-.65,2.36,2.36,0,0,1,1-.29,5.14,5.14,0,0,1,1.39.29Zm9.29,9.58,1,.5a5.45,5.45,0,0,1-1.15,1.51,3.87,3.87,0,0,1-1.44.87,4.63,4.63,0,0,1-1.8.36,4.38,4.38,0,0,1-3.45-1.52,4.54,4.54,0,0,1-1.23-3.24,5.25,5.25,0,0,1,1-3.09A4.49,4.49,0,0,1,168.12,18a4.35,4.35,0,0,1,3.67,1.8,4.69,4.69,0,0,1,1,3.1h-8.21a4.2,4.2,0,0,0,1,2.59,3.49,3.49,0,0,0,2.45,1,4.93,4.93,0,0,0,1.37-.29,3.06,3.06,0,0,0,1.08-.65,3.93,3.93,0,0,0,1.05-1.21Zm0-2.45a3.58,3.58,0,0,0-.65-1.51,4.16,4.16,0,0,0-1.23-.94,3.42,3.42,0,0,0-1.51-.29,3.21,3.21,0,0,0-2.3.87,3.06,3.06,0,0,0-1.08,1.87Zm3-3.67h1.22v1.36a4.67,4.67,0,0,1,1.08-1.22,2.19,2.19,0,0,1,2.31-.07l-.65,1a1.75,1.75,0,0,0-.55-.12,1.49,1.49,0,0,0-1.15.51,2.43,2.43,0,0,0-.79,1.44,14.53,14.53,0,0,0-.22,3.16v3h-1.22Zm13.25,6.12,1,.5a5.17,5.17,0,0,1-1.16,1.51,3.87,3.87,0,0,1-1.44.87,4.63,4.63,0,0,1-1.8.36,4.38,4.38,0,0,1-3.45-1.52,4.63,4.63,0,0,1-1.3-3.24,4.87,4.87,0,0,1,1.08-3.09A4.34,4.34,0,0,1,184.3,18a4.39,4.39,0,0,1,3.75,1.8,4.75,4.75,0,0,1,1,3.1h-8.12a3.84,3.84,0,0,0,1,2.59,3.49,3.49,0,0,0,2.45,1,4.93,4.93,0,0,0,1.37-.29,3.06,3.06,0,0,0,1.08-.65,3.9,3.9,0,0,0,1-1.21Zm0-2.45a3.58,3.58,0,0,0-.65-1.51,4.11,4.11,0,0,0-1.22-.94,3.46,3.46,0,0,0-1.52-.29A3.44,3.44,0,0,0,181,21.92Zm3.45-3.67h1.16V19.9A4.34,4.34,0,0,1,194,18.53a3.25,3.25,0,0,1,1.87-.5,3.92,3.92,0,0,1,1.8.5A3.08,3.08,0,0,1,198.78,20a6.53,6.53,0,0,1,.36,2.74v4.61H198V23a12.17,12.17,0,0,0-.14-2.09,2.36,2.36,0,0,0-.79-1.37,2.3,2.3,0,0,0-1.52-.43,2.66,2.66,0,0,0-1.87.72,3.27,3.27,0,0,0-1.15,1.73,16.7,16.7,0,0,0-.14,2.45v3.31h-1.16Zm19.23,1.87-.87.57a4.17,4.17,0,0,0-3.31-1.58,3.92,3.92,0,0,0-2.81,1.08,3.66,3.66,0,0,0-.57,4.46A4.17,4.17,0,0,0,204.26,26a4.93,4.93,0,0,0,2,.51,4.07,4.07,0,0,0,3.31-1.66l.87.65A4.51,4.51,0,0,1,208.71,27a5.78,5.78,0,0,1-2.52.58,5.42,5.42,0,0,1-3.6-1.37,4.55,4.55,0,0,1-1.37-3.39,5,5,0,0,1,.65-2.44,5.14,5.14,0,0,1,1.8-1.73,5.27,5.27,0,0,1,2.66-.65,4.44,4.44,0,0,1,1.73.29,5.71,5.71,0,0,1,1.44.72,3.39,3.39,0,0,1,1,1.08Zm9.93,4.25,1,.5a5.45,5.45,0,0,1-1.15,1.51,3.87,3.87,0,0,1-1.44.87,4.63,4.63,0,0,1-1.8.36,4.4,4.4,0,0,1-3.46-1.52,4.63,4.63,0,0,1-1.29-3.24,4.87,4.87,0,0,1,1.08-3.09,4.34,4.34,0,0,1,3.6-1.73,4.4,4.4,0,0,1,3.74,1.8,4.69,4.69,0,0,1,1,3.1h-8.21a3.79,3.79,0,0,0,1,2.59,3.49,3.49,0,0,0,2.45,1,5.31,5.31,0,0,0,1.37-.29,3.06,3.06,0,0,0,1.08-.65,3.83,3.83,0,0,0,1.06-1.21Zm0-2.45a3.7,3.7,0,0,0-.64-1.51,4.16,4.16,0,0,0-1.23-.94,3.58,3.58,0,0,0-4.89,2.45Zm8.07-2.67-.79.8a2.46,2.46,0,0,0-1.8-.94,1.68,1.68,0,0,0-1,.36,1.2,1.2,0,0,0-.36.94,1.11,1.11,0,0,0,.29.79,6,6,0,0,0,1.44,1,4.26,4.26,0,0,1,1.7,1.3,1.92,1.92,0,0,1,.51,1.37,2.69,2.69,0,0,1-.79,1.94,3,3,0,0,1-2,.8,3.6,3.6,0,0,1-1.44-.36,3.42,3.42,0,0,1-1.22-.94l.72-.86a2.76,2.76,0,0,0,1.94,1A1.68,1.68,0,0,0,226.8,26a1.34,1.34,0,0,0,.51-1.08,1.26,1.26,0,0,0-.29-.86,5.09,5.09,0,0,0-1.51-1,4.68,4.68,0,0,1-1.66-1.22,2.48,2.48,0,0,1-.43-1.44,2.06,2.06,0,0,1,.72-1.66,2.26,2.26,0,0,1,1.8-.72,4,4,0,0,1,2.54,1.21Z" transform="translate(0 0)"/></g></g></svg>