<svg id="Layer_1" data-name="Layer 1" xmlns="http://www.w3.org/2000/svg" viewBox="0 0 348.69 233.85"><defs><style>.cls-1,.cls-3{fill:#009162;}.cls-2{fill:#fefefe;}.cls-3{font-size:24.21px;font-family:CenturyGothic-Bold, Century Gothic;font-weight:700;}</style></defs><title>bio</title><g id="Layer_1-2" data-name="Layer_1"><g id="_1848508970096" data-name=" 1848508970096"><rect class="cls-1" width="348.69" height="233.85"/><path class="cls-2" d="M61.78,95.61H286.84a5.87,5.87,0,0,1,5.84,5.84v30.88a5.87,5.87,0,0,1-5.84,5.84H61.78a5.87,5.87,0,0,1-5.84-5.84V101.45A5.87,5.87,0,0,1,61.78,95.61Z" transform="translate(0 0)"/><text class="cls-3" transform="translate(63.82 125.62)">BIO</text><path class="cls-1" d="M114.26,110.88h1.3l2.52,8.85,3.53-8.85h.21l3.46,8.85,2.59-8.85h1.22l-3.52,12.24h-.22l-3.6-9.29L118,123.12h-.22Zm24.63,9.29,1,.5a5.2,5.2,0,0,1-1.15,1.51,4.31,4.31,0,0,1-1.44.87,4.81,4.81,0,0,1-1.8.36,4.12,4.12,0,0,1-3.45-1.52,4.59,4.59,0,0,1-1.3-3.24,4.89,4.89,0,0,1,1.08-3.09,4.28,4.28,0,0,1,3.6-1.73,4.42,4.42,0,0,1,3.74,1.8,4.69,4.69,0,0,1,1,3.1H132a3.77,3.77,0,0,0,1,2.59,3.31,3.31,0,0,0,2.45,1,4.42,4.42,0,0,0,1.3-.29,3.08,3.08,0,0,0,1.15-.65A4.86,4.86,0,0,0,138.89,120.17Zm0-2.45a3,3,0,0,0-.72-1.51,3.87,3.87,0,0,0-1.16-.94,3.77,3.77,0,0,0-1.58-.29,3.37,3.37,0,0,0-2.3.87,4,4,0,0,0-1.08,1.87Zm3.52,5.4V110.59h1.16v5a5.83,5.83,0,0,1,1.65-1.37,4.6,4.6,0,0,1,2-.43,4.37,4.37,0,0,1,3.24,1.44,4.79,4.79,0,0,1-3.31,8.14,4.91,4.91,0,0,1-2-.51,4.21,4.21,0,0,1-1.58-1.44v1.66Zm4.68-.87a3.23,3.23,0,0,0,1.8-.5,2.82,2.82,0,0,0,1.3-1.3,3.46,3.46,0,0,0,.5-1.87,3.25,3.25,0,0,0-.5-1.8,3.44,3.44,0,0,0-1.3-1.37,3.23,3.23,0,0,0-1.8-.5,3.27,3.27,0,0,0-1.8.5,3.39,3.39,0,0,0-1.36,1.3,4,4,0,0,0-.44,1.87,3.76,3.76,0,0,0,1,2.59A3.54,3.54,0,0,0,147.09,122.25ZM163,113.83a4.54,4.54,0,0,1,3.52,1.51,4.93,4.93,0,0,1,1.23,3.31,4.8,4.8,0,0,1-1.3,3.32,4.61,4.61,0,0,1-3.45,1.44,4.5,4.5,0,0,1-3.39-1.44,4.61,4.61,0,0,1-1.37-3.32,4.71,4.71,0,0,1,1.3-3.31A4.53,4.53,0,0,1,163,113.83Zm0,1.15a3.23,3.23,0,0,0-2.45,1.08,3.54,3.54,0,0,0-1.08,2.59,3.08,3.08,0,0,0,.5,1.8,3.35,3.35,0,0,0,1.3,1.37,3.39,3.39,0,0,0,1.73.43,3.71,3.71,0,0,0,1.8-.43,3.39,3.39,0,0,0,1.29-1.37,3.7,3.7,0,0,0,.51-1.8,3.54,3.54,0,0,0-1.08-2.59A3.39,3.39,0,0,0,163,115Zm10.65-4.39v1.15a2.5,2.5,0,0,0-1.08-.29.74.74,0,0,0-.57.15.52.52,0,0,0-.29.29c0,.14-.07.43-.07.93v1.23h1.94v1h-1.94v8.07h-1.16v-8.07h-1.22v-1h1.22v-1.37a6.34,6.34,0,0,1,.15-1.44,1.37,1.37,0,0,1,.65-.65,2.33,2.33,0,0,1,1-.29A5.26,5.26,0,0,1,173.66,110.59Zm18,2.52-.93.79a5.65,5.65,0,0,0-4.4-2.16,5,5,0,0,0-2.73.72,5,5,0,0,0-1.95,1.87,5.79,5.79,0,0,0-.72,2.74,4.94,4.94,0,0,0,1.59,3.74,5.26,5.26,0,0,0,3.89,1.52,5.62,5.62,0,0,0,4.32-2l.93.72a5.72,5.72,0,0,1-2.3,1.8,7,7,0,0,1-3,.65,6.38,6.38,0,0,1-5.11-2.16,6.71,6.71,0,0,1-1.58-4.39,6,6,0,0,1,1.94-4.54,6.38,6.38,0,0,1,4.68-1.8,7.07,7.07,0,0,1,3.1.65A5.88,5.88,0,0,1,191.66,113.11Zm6.55.72a4.56,4.56,0,0,1,3.53,1.51,4.61,4.61,0,0,1,1.23,3.31,4.84,4.84,0,0,1-1.3,3.32,4.53,4.53,0,0,1-3.46,1.44,4.47,4.47,0,0,1-3.38-1.44,4.92,4.92,0,0,1-1.37-3.32,4.67,4.67,0,0,1,1.3-3.31A4.51,4.51,0,0,1,198.21,113.83Zm0,1.15a3.2,3.2,0,0,0-2.44,1.08,3.54,3.54,0,0,0-1.08,2.59,3.08,3.08,0,0,0,.5,1.8,3.27,3.27,0,0,0,3,1.8,3.66,3.66,0,0,0,1.8-.43,3.35,3.35,0,0,0,1.3-1.37,3.7,3.7,0,0,0,.5-1.8,3.54,3.54,0,0,0-1.08-2.59A3.37,3.37,0,0,0,198.21,115Zm6.92-.93h1.15v1.65a4.54,4.54,0,0,1,1.58-1.37,3.48,3.48,0,0,1,1.87-.5,3.81,3.81,0,0,1,1.8.5,3.17,3.17,0,0,1,1.15,1.44,6.53,6.53,0,0,1,.36,2.74v4.61h-1.15V118.8a7.61,7.61,0,0,0-.14-2.09,2.43,2.43,0,0,0-.79-1.37,2.28,2.28,0,0,0-1.44-.43,2.88,2.88,0,0,0-2,.72,2.81,2.81,0,0,0-1.08,1.73,9.55,9.55,0,0,0-.21,2.45v3.31h-1.15Zm14.18-3.46v1.15a2.5,2.5,0,0,0-1.08-.29.76.76,0,0,0-.58.15.58.58,0,0,0-.29.29c0,.14-.07.43-.07.93v1.23h2v1h-2v8.07h-1.15v-8.07h-1.22v-1h1.22v-1.37a6.48,6.48,0,0,1,.14-1.44,1.41,1.41,0,0,1,.65-.65,2.42,2.42,0,0,1,1-.29A5.43,5.43,0,0,1,219.31,110.59Zm9.29,9.58,1,.5a5.2,5.2,0,0,1-1.15,1.51,3.71,3.71,0,0,1-1.44.87,4.53,4.53,0,0,1-1.8.36,4.31,4.31,0,0,1-3.45-1.52,4.52,4.52,0,0,1-1.23-3.24,5.26,5.26,0,0,1,1-3.09,4.52,4.52,0,0,1,3.67-1.73,4.38,4.38,0,0,1,3.67,1.8,4.69,4.69,0,0,1,1,3.1h-8.21a4.19,4.19,0,0,0,1,2.59,3.42,3.42,0,0,0,2.45,1,4.8,4.8,0,0,0,1.37-.29,2.79,2.79,0,0,0,1.08-.65A3.73,3.73,0,0,0,228.6,120.17Zm0-2.45a3.72,3.72,0,0,0-.65-1.51,4.24,4.24,0,0,0-1.23-.94,3.45,3.45,0,0,0-1.51-.29,3.26,3.26,0,0,0-2.3.87,3.09,3.09,0,0,0-1.08,1.87Zm3-3.67h1.22v1.36a4.76,4.76,0,0,1,1.08-1.22,2.22,2.22,0,0,1,2.31-.07l-.65,1A2,2,0,0,0,235,115a1.54,1.54,0,0,0-1.15.51,2.47,2.47,0,0,0-.79,1.44,14.63,14.63,0,0,0-.22,3.16v3h-1.22Zm13.25,6.12,1,.5a5.05,5.05,0,0,1-1.16,1.51,3.71,3.71,0,0,1-1.44.87,4.53,4.53,0,0,1-1.8.36,4.31,4.31,0,0,1-3.45-1.52,4.59,4.59,0,0,1-1.3-3.24,4.89,4.89,0,0,1,1.08-3.09,4.38,4.38,0,0,1,3.6-1.73,4.43,4.43,0,0,1,3.75,1.8,4.74,4.74,0,0,1,1,3.1H238a3.81,3.81,0,0,0,1,2.59,3.44,3.44,0,0,0,2.45,1,4.8,4.8,0,0,0,1.37-.29,2.79,2.79,0,0,0,1.08-.65A3.73,3.73,0,0,0,244.87,120.17Zm0-2.45a3.72,3.72,0,0,0-.65-1.51,4.33,4.33,0,0,0-1.22-.94,3.73,3.73,0,0,0-1.52-.29,3.15,3.15,0,0,0-2.3.87,3.19,3.19,0,0,0-1.08,1.87Zm3.45-3.67h1.16v1.65a4.54,4.54,0,0,1,1.58-1.37,3.32,3.32,0,0,1,1.87-.5,4,4,0,0,1,1.8.5,3.17,3.17,0,0,1,1.15,1.44,6.53,6.53,0,0,1,.36,2.74v4.61h-1.15V118.8a12.25,12.25,0,0,0-.14-2.09,2.43,2.43,0,0,0-.79-1.37,2.37,2.37,0,0,0-1.52-.43,2.69,2.69,0,0,0-1.87.72,3.27,3.27,0,0,0-1.15,1.73,17.14,17.14,0,0,0-.14,2.45v3.31h-1.16Zm19.23,1.87-.87.57a4.21,4.21,0,0,0-3.31-1.58,3.94,3.94,0,0,0-2.81,1.08,3.53,3.53,0,0,0-1.08,2.59,3.47,3.47,0,0,0,.51,1.87,4.08,4.08,0,0,0,1.37,1.37,4.82,4.82,0,0,0,2,.51,4.05,4.05,0,0,0,3.31-1.66l.87.65a4.37,4.37,0,0,1-1.73,1.51,5.64,5.64,0,0,1-2.52.58,5.35,5.35,0,0,1-3.6-1.37,4.51,4.51,0,0,1-1.37-3.39,5,5,0,0,1,.65-2.44,5.14,5.14,0,0,1,1.8-1.73,5.43,5.43,0,0,1,2.66-.65,4.73,4.73,0,0,1,1.73.29,6.25,6.25,0,0,1,1.44.72A3.5,3.5,0,0,1,267.55,115.92Zm9.93,4.25,1,.5a5.2,5.2,0,0,1-1.15,1.51,3.71,3.71,0,0,1-1.44.87,4.53,4.53,0,0,1-1.8.36,4.34,4.34,0,0,1-3.46-1.52,4.63,4.63,0,0,1-1.29-3.24,4.89,4.89,0,0,1,1.08-3.09,4.37,4.37,0,0,1,3.6-1.73,4.42,4.42,0,0,1,3.74,1.8,4.69,4.69,0,0,1,1,3.1h-8.21a3.77,3.77,0,0,0,1,2.59,3.42,3.42,0,0,0,2.45,1,4.87,4.87,0,0,0,1.37-.29,2.79,2.79,0,0,0,1.08-.65A3.72,3.72,0,0,0,277.48,120.17Zm0-2.45a3.72,3.72,0,0,0-.64-1.51,4.24,4.24,0,0,0-1.23-.94,3.69,3.69,0,0,0-1.51-.29,3.44,3.44,0,0,0-3.38,2.74Zm8.07-2.67-.79.8a2.48,2.48,0,0,0-1.8-.94,1.7,1.7,0,0,0-1,.36,1.2,1.2,0,0,0-.36.94,1.08,1.08,0,0,0,.29.79,5.82,5.82,0,0,0,1.44,1A4.38,4.38,0,0,1,285,119.3a1.92,1.92,0,0,1,.51,1.37,2.66,2.66,0,0,1-.79,1.94,3,3,0,0,1-2,.8,3.37,3.37,0,0,1-1.44-.36,3.27,3.27,0,0,1-1.22-.94l.72-.86a2.72,2.72,0,0,0,1.94,1,1.63,1.63,0,0,0,1.15-.43,1.31,1.31,0,0,0,.51-1.08,1.26,1.26,0,0,0-.29-.86,5.24,5.24,0,0,0-1.51-1,4.64,4.64,0,0,1-1.66-1.22,2.45,2.45,0,0,1-.43-1.44,2.07,2.07,0,0,1,.72-1.66,2.3,2.3,0,0,1,1.8-.72A4,4,0,0,1,285.55,115.05Z" transform="translate(0 0)"/></g></g></svg>