<?xml version="1.0" encoding="utf-8"?>
<!-- Generator: Adobe Illustrator 22.1.0, SVG Export Plug-In . SVG Version: 6.00 Build 0)  -->
<svg version="1.1"
	 id="Layer_1" inkscape:version="0.92.1 r15371" sodipodi:docname="ieee.svg" xmlns:cc="http://creativecommons.org/ns#" xmlns:dc="http://purl.org/dc/elements/1.1/" xmlns:inkscape="http://www.inkscape.org/namespaces/inkscape" xmlns:rdf="http://www.w3.org/1999/02/22-rdf-syntax-ns#" xmlns:sodipodi="http://sodipodi.sourceforge.net/DTD/sodipodi-0.dtd" xmlns:svg="http://www.w3.org/2000/svg"
	 xmlns="http://www.w3.org/2000/svg" xmlns:xlink="http://www.w3.org/1999/xlink" x="0px" y="0px" viewBox="0 0 495.8 142.4"
	 style="enable-background:new 0 0 495.8 142.4;" xml:space="preserve">
<style type="text/css">
	.st0{fill:#324388;}
	.st1{fill:#FEFEFE;}
</style>
<g id="Layer_x0020_1">
	
		<sodipodi:namedview  bordercolor="#666666" borderopacity="1" gridtolerance="10" guidetolerance="10" id="namedview3713" inkscape:current-layer="svg3711" inkscape:cx="192.88315" inkscape:cy="912.75357" inkscape:pageopacity="0" inkscape:pageshadow="2" inkscape:window-height="715" inkscape:window-maximized="1" inkscape:window-width="1366" inkscape:window-x="-8" inkscape:window-y="-8" inkscape:zoom="0.29252145" objecttolerance="10" pagecolor="#ffffff" showgrid="false" units="px">
		</sodipodi:namedview>
	<path class="st0" d="M67.1,140c-9.5-11.6-17.6-24.1-28.4-34.9C27.9,94.3,14.5,85.3,2.5,75.4c-1.4-1.1-2-2.8-2.1-4.5
		c0-1.7,0.7-3.3,2.1-4.5c12.1-9.9,25.4-18.9,36.2-29.7C49.5,26,57.6,13.6,67.1,1.9c1.2-1.4,2.9-2.1,4.6-2.2c1.8,0.1,3.5,0.8,4.6,2.2
		c9.5,11.7,17.6,24.1,28.4,34.9c10.8,10.8,24.1,19.8,36.2,29.7c1.4,1.1,2,2.7,2.1,4.5c0,1.7-0.7,3.3-2.1,4.5
		c-12.1,9.9-25.4,18.9-36.2,29.7c-10.8,10.8-18.9,23.3-28.4,34.9c-1.1,1.4-2.9,2.2-4.6,2.2C69.9,142.1,68.2,141.4,67.1,140z"/>
	<path id="path3685" inkscape:connector-curvature="0" class="st0" d="M405.4,20.3h89.1v23h-55.8v17.1h51.8v21.9h-51.8v21.2h57.5
		V128h-90.8V20.3z M306.1,20.1h89.1v23h-55.8v17.1h51.8v22h-51.8v21.1h57.5v24.4h-90.8V20.1z M206.8,20.1H296v23h-55.8v17.1h51.8v22
		h-51.8v21.1h57.5v24.4h-90.9V20.1z M162,20.1h33.3v107.7H162V20.1z"/>
	<path class="st1" d="M22.4,71.4c0.1,3.4,10.6,15.4,22.1,26.7c11.6,11.4,24,21.9,27.4,22l0.1,0c3.7-0.1,15.9-10.4,27.4-21.7
		c11.5-11.3,21.9-23.3,22-27v0c-0.1-3.7-11-16.6-22.7-28.3C87.6,31.9,75.9,22,72.1,21.9h0C67.9,22,55.6,32.5,44.2,44
		C32.8,55.5,22.5,67.8,22.4,71.4L22.4,71.4z M41.7,100.9C29.6,89,18.5,75.9,18.4,71.4v-0.2c0.1-4.5,11-17.9,23-30
		C53.4,29.1,66.8,18,72,17.9h0.2c5,0.1,17.6,10.6,29.3,22.3c12.3,12.3,23.7,26.2,23.9,31c0,0.1,0,0.2,0,0.3
		c-0.1,4.8-11.1,17.9-23.2,29.8c-12,11.8-25.3,22.6-30,22.8c-0.1,0-0.2,0-0.3,0C67.3,123.9,53.9,112.9,41.7,100.9z"/>
	<polygon class="st1" points="71.9,32.9 64.2,55.8 69.1,55.8 68.2,77.4 75.5,77.4 74.6,55.8 79.5,55.8 	"/>
	<path class="st1" d="M82.6,59.5l1.8,5.6l0.6,1.8l3.5-0.9l0,0c19,6.6-6,13.1-15.3,13.1c-18.7,0-33.3-10.4-9.6-14.5L56.6,60
		c-30.4,6.6-11.5,21.2,12.6,22.3c13.6,0.6,44.5-7.7,23.6-17.6h0l3.1-0.8L82.6,59.5z"/>
	<polygon class="st1" points="68,83.6 75.7,83.6 76.6,105.6 67.1,105.6 	"/>
</g>
<g id="Layer_x0020_1_0">
	<path id="path3705" inkscape:connector-curvature="0" class="st0" d="M101.2,122.4c1.4,0,2.7,0.3,4,1c1.3,0.7,2.3,1.7,3,3
		c0.7,1.3,1.1,2.7,1.1,4.1c0,1.4-0.4,2.7-1,4c-0.8,1.3-1.7,2.3-3,3c-1.3,0.7-2.7,1.1-4,1.1c-1.4,0-2.8-0.4-4.1-1.1
		c-1.2-0.7-2.2-1.7-2.9-3c-0.7-1.3-1.1-2.7-1.1-4c0-1.4,0.4-2.8,1.1-4.1c0.7-1.3,1.7-2.3,3-3C98.5,122.8,99.8,122.4,101.2,122.4z
		 M101.2,124c-1.2,0-2.2,0.3-3.2,0.9c-1,0.5-1.8,1.4-2.5,2.4c-0.6,1.1-0.9,2.2-0.9,3.3c0,1.1,0.3,2.2,0.9,3.2c0.6,1,1.4,1.9,2.5,2.4
		c1,0.6,2.1,0.9,3.2,0.9c1.2,0,2.2-0.3,3.2-0.9c1-0.6,1.8-1.4,2.4-2.4c0.6-1,0.9-2.1,0.9-3.2c0-1.2-0.3-2.2-0.9-3.3
		c-0.6-1-1.4-1.9-2.4-2.4C103.4,124.3,102.3,124,101.2,124z M97.5,134.9v-8.6h1.7c1.7,0,2.5,0.1,2.7,0.1c0.6,0,1.1,0.1,1.4,0.3
		c0.3,0.2,0.6,0.5,0.8,0.8c0.2,0.4,0.4,0.8,0.4,1.2c0,0.6-0.2,1.1-0.7,1.6c-0.4,0.5-0.9,0.7-1.7,0.9c0.3,0.1,0.5,0.2,0.7,0.3
		c0.1,0.1,0.3,0.4,0.6,0.7c0.1,0.1,0.3,0.4,0.7,1.1l1,1.7h-2.2l-0.7-1.4c-0.5-0.9-0.9-1.6-1.2-1.8c-0.3-0.2-0.7-0.3-1.2-0.3h-0.5
		v3.5H97.5z M99.3,130h0.7c1,0,1.6,0,1.9-0.1c0.2-0.1,0.4-0.2,0.6-0.4c0.1-0.2,0.2-0.5,0.2-0.7c0-0.3-0.1-0.5-0.2-0.7
		c-0.1-0.2-0.3-0.4-0.6-0.4c-0.3-0.1-0.9-0.2-1.9-0.2h-0.7V130z"/>
</g>
</svg>
