<svg id="Layer_1" data-name="Layer 1" xmlns="http://www.w3.org/2000/svg" viewBox="0 0 348.9 234"><defs><style>.cls-1{fill:#304ba0;}.cls-2{fill:#fff;}.cls-3{fill:#324388;}</style></defs><title>ieee</title><polygon class="cls-1" points="0 0 348.9 0 348.9 234 0 234 0 0"/><g id="Layer_1-2" data-name="Layer_1"><path class="cls-2" d="M99.08,142.54c-4.06-5-7.53-10.31-12.15-14.93s-10.35-8.46-15.48-12.7a2.56,2.56,0,0,1-.9-1.92,2.49,2.49,0,0,1,.9-1.93c5.17-4.23,10.86-8.08,15.48-12.7S95,88.47,99.08,83.47a2.76,2.76,0,0,1,2-.94,2.6,2.6,0,0,1,2,.94c4.07,5,7.53,10.31,12.15,14.93s10.31,8.47,15.49,12.7a2.53,2.53,0,0,1,.9,1.93,2.47,2.47,0,0,1-.9,1.92c-5.18,4.24-10.87,8.09-15.49,12.71s-8.08,10-12.15,14.93a2.55,2.55,0,0,1-2,.94A2.85,2.85,0,0,1,99.08,142.54Z" transform="translate(0.1 0.1)"/><path id="path3685" class="cls-2" d="M243.79,91.34H281.9v9.84H258v7.31h22.16v9.37H258v9.07h24.6v10.48H243.79V91.34Zm-42.48-.08h38.12v9.83H215.56v7.32h22.16v9.41H215.56v9h24.59v10.44H201.31v-46Zm-42.47,0H197v9.83H173.12v7.32h22.16v9.41H173.12v9h24.6v10.44H158.84v-46Zm-19.17,0h14.25v46.06H139.67Z" transform="translate(0.1 0.1)"/><path class="cls-3" d="M80,113.2c0,1.45,4.53,6.59,9.45,11.42S99.68,134,101.13,134h.05c1.58,0,6.8-4.45,11.72-9.28s9.36-10,9.41-11.55h0c0-1.58-4.71-7.1-9.71-12.11-4.75-4.79-9.76-9-11.38-9.06h0c-1.8,0-7.06,4.53-11.94,9.45S80,111.66,80,113.2Zm8.25,12.62c-5.17-5.09-9.92-10.7-10-12.62v-.09c0-1.92,4.7-7.65,9.84-12.83s10.86-9.92,13.09-10h.08c2.14,0,7.53,4.54,12.53,9.54,5.27,5.26,10.14,11.21,10.23,13.26v.13c0,2.06-4.75,7.66-9.93,12.75s-10.82,9.67-12.83,9.75h-.13C99.17,135.66,93.43,131,88.21,125.82Z" transform="translate(0.1 0.1)"/><polygon class="cls-3" points="101.23 96.83 97.94 106.63 100.03 106.63 99.65 115.87 102.77 115.87 102.39 106.63 104.48 106.63 101.23 96.83"/><path class="cls-3" d="M105.71,108.11l.77,2.39.26.77,1.49-.38h0c8.13,2.82-2.56,5.6-6.54,5.6-8,0-14.25-4.45-4.11-6.2l-3-2c-13,2.83-4.92,9.07,5.39,9.54,5.82.26,19-3.29,10.09-7.53h0l1.33-.34Z" transform="translate(0.1 0.1)"/><polygon class="cls-3" points="99.56 118.52 102.86 118.52 103.24 127.93 99.18 127.93 99.56 118.52"/></g><g id="Layer_1_0" data-name="Layer_1 0"><path id="path3705" class="cls-2" d="M116.51,134a3.46,3.46,0,0,1,1.71.42,3.09,3.09,0,0,1,1.29,1.29,3.67,3.67,0,0,1,.47,1.75,4,4,0,0,1-.43,1.71,3.28,3.28,0,0,1-1.28,1.28,3.38,3.38,0,0,1-3.47,0,3.19,3.19,0,0,1-1.24-1.28,3.42,3.42,0,0,1,0-3.46,3.12,3.12,0,0,1,1.28-1.29A3.82,3.82,0,0,1,116.51,134Zm0,.68a2.62,2.62,0,0,0-1.37.38,3.09,3.09,0,0,0-1.07,1,3,3,0,0,0-.38,1.41,2.72,2.72,0,0,0,.38,1.37,2.53,2.53,0,0,0,1.07,1,2.63,2.63,0,0,0,1.37.38,2.53,2.53,0,0,0,1.37-.38,3,3,0,0,0,1-1,2.72,2.72,0,0,0,.38-1.37,2.87,2.87,0,0,0-.38-1.41,2.68,2.68,0,0,0-1-1A2.72,2.72,0,0,0,116.51,134.63Zm-1.58,4.66v-3.68h.73c.72,0,1.07,0,1.15,0a1.2,1.2,0,0,1,.6.12,1.26,1.26,0,0,1,.34.35,1.14,1.14,0,0,1,.17.51.87.87,0,0,1-.3.68,1.17,1.17,0,0,1-.72.39,3,3,0,0,1,.3.13s.12.17.25.3a2.3,2.3,0,0,1,.3.47l.43.73h-.94l-.3-.6a2.79,2.79,0,0,0-.51-.77.89.89,0,0,0-.52-.13h-.21v1.5h-.77Zm.77-2.09h.3a3,3,0,0,0,.81,0,.77.77,0,0,0,.26-.17.79.79,0,0,0,.08-.3.66.66,0,0,0-.08-.3.31.31,0,0,0-.26-.17,3,3,0,0,0-.81-.08h-.3Z" transform="translate(0.1 0.1)"/></g></svg>