<svg id="Layer_1" data-name="Layer 1" xmlns="http://www.w3.org/2000/svg" viewBox="0 0 348.69 233.85"><defs><style>.cls-1{fill:#31496f;}.cls-2{fill:#3cb669;}.cls-3{fill:#fff;}</style></defs><title>ijbiotech</title><g id="Layer_1-2" data-name="Layer 1-2"><g id="_1848508970096" data-name=" 1848508970096"><rect class="cls-1" width="348.69" height="233.85"/></g></g><g id="Layer_1-2-2" data-name="Layer_1"><g id="_2357434106912" data-name=" 2357434106912"><g id="g11"><path id="path7" class="cls-2" d="M142.08,65.93c-.74,2.61-9.64,8-12.08,8.16a2,2,0,0,0,.93,1.4,6,6,0,0,0,5.21,1.43,9.1,9.1,0,0,0,6-3.54,27.39,27.39,0,0,0,5-14c-8.51,5.45-16.55,1.19-18.61,9.33a5.23,5.23,0,0,0,0,3.62C134.26,72,138.73,68.07,142.08,65.93Z" transform="translate(0 0)"/><path id="path9" class="cls-2" d="M125.67,60.06c0,1.58-.32,8.32,1.11,11.13a2.2,2.2,0,0,0,1-.35c-.11-1.11.71-5.18,3-6.32,0-1.5-1.19-3.8-1.67-5.2a13.54,13.54,0,0,1-1-5.87c-5.45,3.49-12.82,15.12-3,17.63C124.8,68.41,124,62.67,125.67,60.06Z" transform="translate(0 0)"/></g><path id="path13" class="cls-3" d="M87.53,127.33h19.4v2.88h-6.08a15.29,15.29,0,1,0,20.09-22.68,6.09,6.09,0,0,1-6.24,0h0l-1.93,3.25-1-.61-3.28,5.52-1.06-.61-1.24,2.09-1.19-.71-1.21,2.06-5.9-3.49L99.08,113l-1.19-.69,1.24-2.09-1.06-.63,16.76-28.28,2.22,1.32,4.63-7.77-.69-.4L122.47,72l.66.4,5.9,3.49.66.4-1.46,2.45-.66-.39L123,86.12l2.24,1.35L121.92,93l1,.64-2.07,3.46h0a6.18,6.18,0,0,1,3,4.57,21.8,21.8,0,1,1-30.8,28.55H87.53Zm31.82-27.62a3,3,0,1,0,1.06,4.17A3,3,0,0,0,119.35,99.71Z" transform="translate(0 0)"/><path id="path15" class="cls-3" d="M138.73,106.6c0-2,1.13-3,3.35-3s3.36,1,3.36,3a2.92,2.92,0,0,1-.82,2.25,3.55,3.55,0,0,1-2.54.79C139.86,109.64,138.73,108.64,138.73,106.6Zm6.45,30.14H139v-23h6.19Zm11.39-11.37a9.53,9.53,0,0,0,1.11,5.1,4,4,0,0,0,3.59,1.72,3.86,3.86,0,0,0,3.54-1.72,9.46,9.46,0,0,0,1.09-5.1,9.19,9.19,0,0,0-1.09-5,3.94,3.94,0,0,0-3.59-1.69,3.89,3.89,0,0,0-3.54,1.66A9.22,9.22,0,0,0,156.57,125.37Zm15.64,0c0,3.67-1,6.55-2.9,8.64s-4.65,3.12-8.12,3.12a11.47,11.47,0,0,1-5.76-1.43,9.4,9.4,0,0,1-3.81-4.1,13.77,13.77,0,0,1-1.34-6.23c0-3.7.95-6.58,2.88-8.65s4.65-3.06,8.17-3.06a11.32,11.32,0,0,1,5.73,1.4,9.48,9.48,0,0,1,3.83,4.07A13.63,13.63,0,0,1,172.21,125.4Zm14.67,6.82a13.15,13.15,0,0,0,3.89-.72v4.63a13.86,13.86,0,0,1-5.68,1c-2.46,0-4.26-.64-5.4-1.88s-1.69-3.12-1.69-5.63V118.74h-3v-3.6l3.41-1.08,1.8-7.38h3.94v7.4h6.34v4.66h-6.34v10.91a2.33,2.33,0,0,0,.74,1.93A2.84,2.84,0,0,0,186.88,132.22Zm17.85-14.14a4,4,0,0,0-3.1,1.24,5.82,5.82,0,0,0-1.27,3.54H209a5.14,5.14,0,0,0-1.19-3.54A4,4,0,0,0,204.73,118.08Zm.87,19.08c-3.65,0-6.5-1-8.57-3s-3.06-4.87-3.06-8.57.95-6.71,2.85-8.8a10.13,10.13,0,0,1,7.85-3.09c3.23,0,5.71.9,7.48,2.72a10.27,10.27,0,0,1,2.7,7.56v3H200.23a6,6,0,0,0,1.56,4.12,5.52,5.52,0,0,0,4.1,1.48,18.48,18.48,0,0,0,3.86-.42,18.72,18.72,0,0,0,3.8-1.38v4.79a13.77,13.77,0,0,1-3.46,1.21A21.15,21.15,0,0,1,205.6,137.16Zm23.44,0c-7,0-10.57-3.86-10.57-11.6,0-3.86.95-6.8,2.88-8.83s4.65-3,8.25-3a15.7,15.7,0,0,1,7.05,1.53L234.8,120c-1-.39-1.85-.71-2.69-1a9.14,9.14,0,0,0-2.51-.37c-3.23,0-4.81,2.27-4.81,6.84,0,4.42,1.58,6.64,4.81,6.64a11,11,0,0,0,3.3-.48,12.87,12.87,0,0,0,3-1.48v5.29a10,10,0,0,1-3,1.32A17,17,0,0,1,229,137.16Zm33-.42H255.9V123.52q0-4.92-3.65-4.92a4.16,4.16,0,0,0-3.73,1.77,10.94,10.94,0,0,0-1.16,5.71v10.66h-6.19V103h6.19v8.69c0,.48-.05,1.67-.13,3.52l-.16,1.82h.34c1.38-2.19,3.54-3.3,6.56-3.3a8,8,0,0,1,6,2.14,8.57,8.57,0,0,1,2.06,6.16Z" transform="translate(0 0)"/></g></g></svg>