<?xml version="1.0" encoding="utf-8"?>
<!-- Generator: Adobe Illustrator 22.1.0, SVG Export Plug-In . SVG Version: 6.00 Build 0)  -->
<svg version="1.1" id="Layer_1" xmlns="http://www.w3.org/2000/svg" xmlns:xlink="http://www.w3.org/1999/xlink" x="0px" y="0px"
	 viewBox="0 0 211.9 83.2" style="enable-background:new 0 0 211.9 83.2;" xml:space="preserve">
<style type="text/css">
	.st0{fill:#304BA0;}
</style>
<g>
	<g>
		<path class="st0" d="M211.9,0H0v75.7h51.1c0.5-0.3,0.9-0.6,1.3-1c1.4-1.3,2.5-2.8,3.3-4.4c0.7-1.7,1.2-3.5,1.4-5.6
			c0.2-2.1,0.3-4.4,0.3-7v-34c0-1.2,0-2.4,0-3.4s0-1.9-0.1-2.7c0-0.6-0.3-1-0.9-1.2l-4.5-1.4v-1.6c3.1,0.1,6.2,0.1,9.1,0.1
			c2.9,0,5.9,0,9-0.1l0.2,1.6l-4.5,1.3c-0.6,0.1-0.9,0.5-1,1.1c0,0.9,0,1.8-0.1,2.8c0,1,0,2.1,0,3.3v33.1c0,2.4-0.1,4.6-0.3,6.5
			c-0.2,2-0.5,3.7-1,5.2s-1.1,2.9-2,4.1c-0.8,1.2-1.9,2.3-3.2,3.2c0,0-0.1,0-0.1,0h21.1V8.9h4.1v66.8h128.7V0z M22,60.7
			c0,0.6,0.4,1,1.3,1.2l4.1,1.3l0.1,1.6c-3.1-0.1-6.2-0.1-9.1-0.1c-3,0-6,0-9.1,0.1l-0.1-1.6l4.5-1.3c0.6-0.2,0.9-0.5,1-1.1
			c0-1,0-2.1,0.1-3.3c0-1.2,0-2.5,0-4V23.9c0-1.2,0-2.4,0-3.4s0-1.9-0.1-2.7c0-0.6-0.3-1-0.9-1.2l-4.5-1.4l-0.1-1.7
			c3.1,0.1,6.2,0.1,9.1,0.1c2.9,0,6,0,9.1-0.1l0.1,1.6l-4.6,1.4c-0.6,0.1-0.9,0.5-0.9,1.1c0,0.9,0,1.8-0.1,2.8c0,1,0,2.1,0,3.3v29.7
			c0,1.5,0,2.8,0,4C21.9,58.5,21.9,59.7,22,60.7z M41.9,67.7h-4.1V8.9h4.1V67.7z M119.9,66c-7.9,0-14.2-2.4-19.1-7.2
			c-4.9-4.8-7.3-11.1-7.3-18.9c0-8.4,2.7-15,8-19.8c5.3-4.9,12.3-7.3,20.9-7.3c4.1,0,8.3,0.5,12.6,1.5l0.3,0.3l-2.1,11.6l-1.5,0.2
			l-2.7-9.6c-3-0.8-5.8-1.1-8.2-1.1c-6,0-10.6,2.1-14.1,6.2c-3.4,4.2-5.1,9.6-5.1,16.2c0,7.1,1.9,12.8,5.8,17s9.3,6.4,16.2,6.4
			c3.9,0,7.9-0.7,12.2-2.2l0.4,1.7C131.4,64.4,126,66,119.9,66z M149.8,67.7h-4.1V8.9h4.1V67.7z M186.4,66c-7.9,0-14.2-2.4-19.1-7.2
			c-4.9-4.8-7.3-11.1-7.3-18.9c0-8.4,2.7-15,8-19.8c5.3-4.9,12.3-7.3,20.9-7.3c4.1,0,8.3,0.5,12.6,1.5l0.3,0.3l-2.1,11.6l-1.5,0.2
			l-2.7-9.6c-3-0.8-5.8-1.1-8.2-1.1c-6,0-10.6,2.1-14.1,6.2c-3.4,4.2-5.1,9.6-5.1,16.2c0,7.1,1.9,12.8,5.8,17
			c3.9,4.2,9.3,6.4,16.2,6.4c3.9,0,7.9-0.7,12.2-2.2l0.4,1.7C197.9,64.4,192.5,66,186.4,66z"/>
		<rect x="79.1" y="75.7" class="st0" width="4.1" height="7.5"/>
		<path class="st0" d="M46.4,78.2l0.5,1.8c2.5-0.6,4.7-1.2,6.5-1.9c1.8-0.7,3.3-1.6,4.6-2.5h-6.9C49.8,76.6,48.2,77.4,46.4,78.2z"/>
	</g>
</g>
</svg>
