<?xml version="1.0" encoding="utf-8"?>
<!-- Generator: Adobe Illustrator 22.1.0, SVG Export Plug-In . SVG Version: 6.00 Build 0)  -->
<svg version="1.1" id="Layer_1" xmlns="http://www.w3.org/2000/svg" xmlns:xlink="http://www.w3.org/1999/xlink" x="0px" y="0px"
	 viewBox="0 0 348.7 233.9" style="enable-background:new 0 0 348.7 233.9;" xml:space="preserve">
<style type="text/css">
	.st0{fill:#304BA0;}
	.st1{fill:#FFFFFF;}
</style>
<g>
	<polygon class="st0" points="-0.1,-0.1 348.8,-0.1 348.8,233.9 -0.1,233.9 	"/>
	<g>
		<path class="st1" d="M281.2,77H69.3v75.7h51.1c0.5-0.3,0.9-0.6,1.3-1c1.4-1.3,2.5-2.8,3.3-4.4c0.7-1.7,1.2-3.5,1.4-5.6
			c0.2-2.1,0.3-4.4,0.3-7v-34c0-1.2,0-2.4,0-3.4s0-1.9-0.1-2.7c0-0.6-0.3-1-0.9-1.2l-4.5-1.4v-1.6c3.1,0.1,6.2,0.1,9.1,0.1
			c2.9,0,5.9,0,9-0.1l0.2,1.6l-4.5,1.3c-0.6,0.1-0.9,0.5-1,1.1c0,0.9,0,1.8-0.1,2.8c0,1,0,2.1,0,3.3v33.1c0,2.4-0.1,4.6-0.3,6.5
			c-0.2,2-0.5,3.7-1,5.2s-1.1,2.9-2,4.1c-0.8,1.2-1.9,2.3-3.2,3.2c0,0-0.1,0-0.1,0h21.1V85.9h4.1v66.8h128.7V77z M91.3,137.6
			c0,0.6,0.4,1,1.3,1.2l4.1,1.3l0.1,1.6c-3.1-0.1-6.2-0.1-9.1-0.1c-3,0-6,0-9.1,0.1l-0.1-1.6l4.5-1.3c0.6-0.2,0.9-0.5,1-1.1
			c0-1,0-2.1,0.1-3.3c0-1.2,0-2.5,0-4v-29.6c0-1.2,0-2.4,0-3.4s0-1.9-0.1-2.7c0-0.6-0.3-1-0.9-1.2l-4.5-1.4l-0.1-1.7
			c3.1,0.1,6.2,0.1,9.1,0.1c2.9,0,6,0,9.1-0.1l0.1,1.6l-4.6,1.4c-0.6,0.1-0.9,0.5-0.9,1.1c0,0.9,0,1.8-0.1,2.8c0,1,0,2.1,0,3.3v29.7
			c0,1.5,0,2.8,0,4C91.2,135.5,91.2,136.6,91.3,137.6z M111.2,144.6h-4.1V85.9h4.1V144.6z M189.2,143c-7.9,0-14.2-2.4-19.1-7.2
			c-4.9-4.8-7.3-11.1-7.3-18.9c0-8.4,2.7-15,8-19.8c5.3-4.9,12.3-7.3,20.9-7.3c4.1,0,8.3,0.5,12.6,1.5l0.3,0.3l-2.1,11.6l-1.5,0.2
			l-2.7-9.6c-3-0.8-5.8-1.1-8.2-1.1c-6,0-10.6,2.1-14.1,6.2c-3.4,4.2-5.1,9.6-5.1,16.2c0,7.1,1.9,12.8,5.8,17s9.3,6.4,16.2,6.4
			c3.9,0,7.9-0.7,12.2-2.2l0.4,1.7C200.7,141.4,195.3,143,189.2,143z M219.1,144.6H215V85.9h4.1V144.6z M255.7,143
			c-7.9,0-14.2-2.4-19.1-7.2c-4.9-4.8-7.3-11.1-7.3-18.9c0-8.4,2.7-15,8-19.8c5.3-4.9,12.3-7.3,20.9-7.3c4.1,0,8.3,0.5,12.6,1.5
			l0.3,0.3l-2.1,11.6l-1.5,0.2l-2.7-9.6c-3-0.8-5.8-1.1-8.2-1.1c-6,0-10.6,2.1-14.1,6.2c-3.4,4.2-5.1,9.6-5.1,16.2
			c0,7.1,1.9,12.8,5.8,17c3.9,4.2,9.3,6.4,16.2,6.4c3.9,0,7.9-0.7,12.2-2.2l0.4,1.7C267.2,141.4,261.8,143,255.7,143z"/>
		<rect x="148.4" y="152.7" class="st1" width="4.1" height="7.5"/>
		<path class="st1" d="M115.7,155.2l0.5,1.8c2.5-0.6,4.7-1.2,6.5-1.9c1.8-0.7,3.3-1.6,4.6-2.5h-6.9
			C119.1,153.6,117.5,154.4,115.7,155.2z"/>
	</g>
</g>
</svg>
