<?xml version="1.0" encoding="utf-8"?>
<!-- Generator: Adobe Illustrator 22.1.0, SVG Export Plug-In . SVG Version: 6.00 Build 0)  -->
<svg version="1.1" id="Layer_1" xmlns="http://www.w3.org/2000/svg" xmlns:xlink="http://www.w3.org/1999/xlink" x="0px" y="0px"
	 viewBox="0 0 213.8 213.8" style="enable-background:new 0 0 213.8 213.8;" xml:space="preserve">
<style type="text/css">
	.st0{fill:#FFF500;}
	.st1{fill:#373435;}
	.st2{fill:#201E1E;}
	.st3{fill:#FEFEFE;}
</style>
<title>ijp-logo</title>
<g id="Layer_1-2">
	<g id="_2800767576896">
		<g>
			<path class="st0" d="M127.7,46.9c6,0,12.1,0.7,18.2,0.7c11.2,0,25.1-2.4,36.4,3c5.1,2.5,9.5,6.2,12.8,10.9
				c3,5.7,5.4,11.7,7.1,17.9c0.4,2.4,0.6,4.9,0.6,7.3c0,14.4-5.2,31-13.5,37.9c-7.6,6.4-11.7,3.9-23,3.1l-0.1,37.7
				c0,5.8,0.9,9.5,2.4,10.9c1.2,1.1,3.6,1.7,7.3,2c-2,2-4.2,3.9-6.4,5.8c-1.5-0.1-2.8-0.1-4-0.1c-5.8-0.1-17-0.1-22.8,0
				c-3.3,0.1-8.4,0.3-15.2,0.6v-6c5.6,0,9.2-0.7,10.7-2.2s2.2-5,2.2-10.8V66.1c0-5.8-0.7-9.4-2.2-10.7s-5-2.2-10.7-2.3L127.7,46.9z
				 M166.2,121.5c15.8,0,16-17.3,16-33.6c0-16,0.5-35.3-16-34.7V121.5z"/>
			<path class="st1" d="M127.6,185.9c-0.4,0-0.8-0.1-1-0.4c-0.3-0.3-0.5-0.7-0.5-1.1v-6c0-0.8,0.7-1.5,1.5-1.5
				c6.9,0,8.9-1.1,9.6-1.8c0.7-0.7,1.8-2.9,1.8-9.8V66.1c0-7-1.1-9-1.7-9.6c-0.7-0.6-2.9-1.7-9.7-1.9c-0.8,0-1.5-0.7-1.5-1.5
				l0.1-6.2c0-0.8,0.7-1.5,1.5-1.5c3,0,6.1,0.2,9.1,0.3c3,0.2,6.1,0.3,9.1,0.3c2.5,0,5.2-0.1,8-0.3c9.4-0.4,20-0.9,29.1,3.3
				c5.4,2.6,10,6.5,13.4,11.4c0,0.1,0.1,0.1,0.1,0.2c3,5.8,5.5,11.9,7.2,18.1c0,0.1,0,0.1,0,0.2c0.4,2.5,0.6,5,0.6,7.6
				c0,13.6-4.8,31.4-14,39.1c-6.5,5.4-10.9,4.9-17.7,4.1c-1.4-0.2-3-0.4-4.8-0.5l-0.1,36.1c0,7.5,1.4,9.4,1.9,9.8
				c0.6,0.6,2.3,1.3,6.4,1.6c0.6,0,1.1,0.4,1.3,1c0.2,0.5,0.1,1.2-0.3,1.6c-2.1,2.1-4.5,4.2-6.5,5.8c-0.3,0.2-0.7,0.4-1,0.3l-0.9,0
				c-1.1-0.1-2.1-0.1-3-0.1c-5.8-0.1-17-0.1-22.7,0C139.4,185.4,133.9,185.6,127.6,185.9C127.6,185.9,127.6,185.9,127.6,185.9z
				 M129.1,179.9v3c5.6-0.2,10.5-0.4,13.7-0.5c5.8-0.1,17.1-0.1,22.8,0c0,0,0,0,0,0c0.9,0,1.9,0,3.1,0.1l0.3,0c1.1-1,2.4-2,3.6-3.1
				c-2.3-0.4-3.9-1.1-4.9-2c-1.9-1.7-2.9-5.8-2.9-12l0.1-37.7c0-0.4,0.2-0.8,0.5-1.1c0.3-0.3,0.7-0.4,1.1-0.4
				c2.5,0.2,4.6,0.4,6.5,0.7c6.6,0.8,10,1.2,15.4-3.4c7.5-6.3,12.9-21.8,12.9-36.8c0-2.3-0.2-4.7-0.5-7c-1.7-6-4.1-11.9-6.9-17.4
				c-3.1-4.4-7.3-8-12.2-10.3c-8.4-3.9-18.2-3.5-27.6-3.1c-2.8,0.1-5.5,0.3-8.1,0.3c-3.1,0-6.2-0.2-9.3-0.3c-2.5-0.1-5-0.3-7.5-0.3
				l0,3.2c5.2,0.3,8.5,1.1,10.2,2.6c1.9,1.7,2.7,5.4,2.7,11.8v99.2c0,6.2-0.8,9.9-2.6,11.8C137.7,178.9,134.4,179.7,129.1,179.9z
				 M166.2,123c-0.8,0-1.5-0.7-1.5-1.5V53.3c0-0.8,0.6-1.5,1.4-1.5c4.6-0.2,8.3,1.1,11,3.7c6.6,6.3,6.6,19.5,6.6,31.1l0,1.4
				C183.7,103.6,183.7,123,166.2,123z M167.7,54.8V120c12-1,13-13.9,13-32l0-1.4c0-11,0-23.5-5.6-28.9
				C173.1,55.8,170.7,54.9,167.7,54.8z"/>
		</g>
		<g>
			<path class="st0" d="M87.3,10.7c0.7,0,1.7,0,2.9,0.1c11,0.6,18.8,0.9,23.2,0.9c2.6,0,7.6-0.2,15.3-0.6c2.9-0.2,5.2-0.3,6.8-0.4
				v6.2c-5.3,0.1-4.5,0.9-6,2.3s-2.2,5.1-2.2,10.7v135.4c0,12.9-2.7,22.8-7.8,29.2s-17,9.6-27.3,9.6c-23.5,0-24.4-20.1-24.4-39.5
				c0-3.4,0.9-21.1,2.6-23s3.2-10.1,10.7-9.6s10.4,7.7,11.9,9.5s2.5,19.1,2.5,22s1.1,23.1-7.3,34.1c6.1,1.8,7.2-1.8,8.3-3.5
				c2-3.2,3.2-9.1,3.2-17.9c0-1.4-0.1-3.8-0.2-7.2s-0.2-6-0.2-8V30c0-6-0.9-9.7-2.6-11c-1.7-1.4-2.2-2-9.4-2L87.3,10.7z"/>
			<path class="st1" d="M92.1,205.7c-25.9,0-25.9-23.7-25.9-41c0-0.2,0.5-21.2,3-24c0.3-0.3,0.6-1.1,1-1.9c1.6-3.2,4.1-8.7,10.9-8.3
				c6.9,0.4,10.3,5.8,12.1,8.7c0.3,0.6,0.7,1.1,0.9,1.3c2.2,2.6,2.9,22.8,2.9,23c0,0.2,0,0.5,0,0.9c0.3,14.2-1.9,25-6.3,32.1
				c2.5,0.2,3.3-1.1,4.1-2.5c0.2-0.3,0.3-0.6,0.5-0.8c1.3-2.1,2.9-6.8,2.9-17c0-0.9,0-2.1-0.1-3.7c0-1-0.1-2.2-0.1-3.4
				c0-1.5-0.1-2.9-0.1-4.1c-0.1-1.5-0.1-2.8-0.1-4V30c0-7.5-1.4-9.4-2-9.8L95.5,20c-1.3-1.1-1.9-1.5-8.3-1.5c-0.4,0-0.8-0.2-1.1-0.4
				c-0.3-0.3-0.4-0.7-0.4-1.1l0-6.3c0-0.8,0.7-1.5,1.5-1.5c0.7,0,1.7,0,3,0.1c10.6,0.6,18.6,0.9,23.1,0.9c2.6,0,7.8-0.2,15.2-0.6
				c2.3-0.2,4.3-0.3,5.8-0.3l1,0c0.4,0,0.8,0.1,1.1,0.4c0.3,0.3,0.5,0.7,0.5,1.1v6.2c0,0.8-0.6,1.5-1.5,1.5c-3.5,0.1-3.7,0.4-4.2,1
				c-0.2,0.3-0.4,0.6-0.8,0.9c-0.5,0.5-1.7,2.5-1.7,9.7v135.4c0,13.2-2.7,23.4-8.1,30.1C115,202.5,102.3,205.7,92.1,205.7z
				 M80.5,133.5c-4.1,0-5.8,3-7.6,6.6c-0.5,1.1-0.9,1.9-1.4,2.5c-1.1,1.7-2.2,17-2.2,22c0,21.5,1.7,38,22.9,38
				c9.1,0,21.1-2.8,26.1-9.1c4.9-6.2,7.4-15.7,7.4-28.2V30c0-6.3,0.8-10,2.6-11.8c0.2-0.2,0.4-0.5,0.6-0.6c1-1.3,2-1.8,5-2v-3.2
				c-1.4,0.1-3.1,0.1-5.2,0.3c-7.5,0.4-12.7,0.6-15.4,0.6c-4.5,0-12.6-0.3-23.3-0.9c-0.5,0-0.9,0-1.3-0.1l0,3.3
				c5.8,0.1,6.9,0.7,8.6,2.1l0.2,0.2c2.1,1.6,3.2,5.5,3.2,12.2v131c0,1.1,0,2.4,0.1,3.9c0,1.2,0.1,2.6,0.1,4.1
				c0,1.3,0.1,2.4,0.1,3.4c0,1.6,0.1,2.9,0.1,3.8c0,8.8-1.1,15.1-3.4,18.7c-0.1,0.2-0.3,0.4-0.4,0.7c-1.1,1.9-3.1,5.4-9.6,3.5
				c-0.5-0.1-0.9-0.5-1-1c-0.2-0.5-0.1-1,0.2-1.4c5-6.4,7.3-17.3,7-32.2c0-0.4,0-0.7,0-1c0-3.8-1.1-19.3-2.2-21.1
				c-0.3-0.4-0.7-0.9-1.1-1.6c-1.6-2.6-4.3-7-9.7-7.3C80.8,133.5,80.6,133.5,80.5,133.5z"/>
		</g>
		<g>
			<path class="st0" d="M27,48.1l2.2,0.1c7.7,0.4,12.9,0.6,15.4,0.6c3.4,0,9.7-0.2,18.7-0.7c2.2-0.2,4-0.2,5.1-0.3l0.1,6.3
				c-5.8,0-6.5,0.7-8.1,2.2S58,61.4,58,67.2v98.1c0,6,0.8,9.6,2.3,11s2.2,2,8.1,2v6c-6.5-0.3-11.5-0.5-14.8-0.6s-5.9-0.1-7.9-0.1H44
				c-2.5-2.1-5-4.3-7.3-6.6c-1.7-1.7-3.4-3.5-5-5.4c0.3-2.1,0.5-4.3,0.4-6.4v-98c0-5.9-0.7-9.6-2.2-11s-2.1-2-7-2.1
				C24.2,52.1,25.6,50,27,48.1z"/>
			<path class="st1" d="M68.4,185.8C68.3,185.8,68.3,185.8,68.4,185.8c-6.8-0.3-11.5-0.5-14.8-0.6c-3.4-0.1-5.9-0.1-7.9-0.1H44
				c-0.3,0-0.7-0.1-1-0.3c-3.1-2.6-5.4-4.6-7.4-6.7c-1.6-1.6-3.3-3.4-5.1-5.5c-0.3-0.3-0.4-0.8-0.3-1.2c0.3-2,0.4-4.1,0.4-6.2V67.2
				c0-7.2-1.1-9.3-1.8-9.9c-1.3-1.2-1.7-1.6-6-1.7c-0.5,0-1-0.3-1.3-0.8s-0.2-1,0-1.5c1.5-2.3,2.8-4.3,4.1-6.1
				c0.3-0.4,0.8-0.6,1.3-0.6l2.2,0.1c7.6,0.4,12.8,0.6,15.3,0.6c3.3,0,9.6-0.2,18.6-0.6c1.4-0.1,2.6-0.2,3.6-0.2
				c0.6,0,1.1-0.1,1.5-0.1c0.4,0,0.8,0.1,1.1,0.4c0.3,0.3,0.5,0.7,0.5,1.1l0.1,6.3c0,0.4-0.2,0.8-0.4,1.1c-0.3,0.3-0.7,0.4-1.1,0.4
				c-5.1,0-5.6,0.5-6.9,1.7l-0.1,0.1c-0.7,0.6-1.9,2.7-1.9,9.8v98.1c0,7.5,1.3,9.4,1.8,9.9c1.3,1.2,1.8,1.6,7.1,1.6
				c0.8,0,1.5,0.7,1.5,1.5v6c0,0.4-0.2,0.8-0.5,1.1C69.1,185.7,68.8,185.8,68.4,185.8z M44.5,182.1h1.1c2,0,4.6,0.1,8,0.1
				c3,0.1,7.3,0.3,13.2,0.5v-2.9c-4.8-0.1-5.9-0.9-7.5-2.3c-1.9-1.7-2.8-5.6-2.8-12.1V67.2c0-6.4,0.9-10.2,2.8-12l0.1-0.1
				c1.7-1.5,2.7-2.3,7.4-2.4l0-3.2c-1,0-2.2,0.1-3.5,0.2c-9.1,0.4-15.4,0.7-18.8,0.7c-2.5,0-7.6-0.2-15.5-0.6l-1.4-0.1
				c-0.7,0.9-1.4,2-2.1,3.1c2.9,0.3,3.8,0.9,5.3,2.3c1.9,1.8,2.7,5.6,2.7,12.1v98c0,2-0.1,4-0.3,5.9c1.6,1.8,3,3.4,4.5,4.8
				C39.6,177.8,41.7,179.7,44.5,182.1z"/>
		</g>
		<path class="st2" d="M106.9,0C166,0,213.9,47.9,213.9,106.9c0,59.1-47.9,106.9-106.9,106.9S0,166,0,106.9
			c0-28.4,11.3-55.6,31.3-75.6C51.3,11.2,78.6-0.1,106.9,0z M177.1,36.7C138.3-2,75.5-2,36.8,36.8s-38.7,101.6,0,140.4
			s101.6,38.7,140.4,0c18.6-18.6,29-43.8,29-70.2C206.2,80.6,195.8,55.3,177.1,36.7z"/>
		<path class="st2" d="M59,72.5c47.7-75.3,184.1-9.8,92.5,57.9c-29.4,21.7-50.4,11.4-57,18.4c-9.7,10.1,23,20.4,23.3,9
			c0.1-8.4-5.8-9.5,1.7-9.5c11.5,0,13.9,27.4-16.7,24.6c-10.9-1-25.2-12.5-20.9-23c1.5-3.7,8.1-13.5,21.8-14.2
			c28.6-1.5,65.4-25.2,66.7-48.7c1.6-28.1-48.5-50.2-79.3-30.7c-3,1.9,2.7,19-10.7,8.3c-2.3-1.8-8.9,0.4-11.7,4.3
			C66.7,71.8,63.1,74.2,59,72.5z"/>
		<path class="st3" d="M70.1,60.3c3,1.3,4.9-0.2,7.2-1.4c5.1-2.6,1-5,15.6-3.9c-0.7,0.6-1.5,1.1-2.2,1.7C87.8,58.5,93.2,74,80.3,64
			c-2.6-2-8.3,1.7-8.9,1.9C72.7,64.4,69.9,60.5,70.1,60.3z"/>
		<path class="st2" d="M70.3,59.9c2.3,1,4,0.1,5.8-0.9c0.4-0.1,0.6-0.4,1-0.5c1-0.5,1.9-1.2,2.7-2c1.6-1.7,2.6-2.7,13.1-1.9
			c0.2,0,0.4,0.2,0.4,0.4c0,0,0,0.1,0,0.1c0,0.2-0.1,0.3-0.2,0.4c-0.2,0.1-0.4,0.3-0.6,0.5c-0.6,0.4-1.4,1-1.6,1.1
			c-0.7,0.4-0.7,2.2-0.8,4.2s-0.2,4.3-1.2,5.6c-1.2,1.6-3.7,1.5-8.7-2.4c-2-1.5-6.3,0.7-7.9,1.6c-0.3,0.2-0.5,0.3-0.7,0.4
			c-0.2,0.1-0.5-0.1-0.6-0.3c-0.1-0.2,0-0.3,0.2-0.4c0.6-0.9-0.4-2.9-1-4.1c-0.4-0.7-0.6-1.2-0.3-1.5C70,59.8,70.2,59.8,70.3,59.9z
			 M76.6,59.8c-1.7,0.9-3.5,1.9-5.7,1.2v0.1c0.8,1.1,1.2,2.4,1.3,3.8c1.9-1,6.2-3,8.4-1.3c4.6,3.6,6.6,3.8,7.6,2.7
			c0.8-1.1,0.9-3.2,0.9-5.1c0.1-2.2,0.2-4.2,1.3-4.8c0.1-0.1,0.7-0.5,1.3-0.9c-9-0.7-9.9,0.3-11.2,1.7c-0.8,0.9-1.8,1.7-2.9,2.2
			C77.3,59.5,76.9,59.7,76.6,59.8z"/>
		<path class="st2" d="M81.7,143.2c0.3,0-3.8,6.3-4.5,9.4c-11.4,2.4-20.6,10.8-28.1,19C49.8,156.8,72.1,143.2,81.7,143.2z"/>
		<path class="st2" d="M163,90.6L37.1,90.6c10.7,28.8,63.2,42.3,63.2,42.3v7.7c0,1.9,26.4-0.3,26.6-3.3l0.4-8.9
			C127.4,122.5,158.2,110.5,163,90.6z"/>
		<g>
			<path class="st2" d="M81.6,64.9c-1.2-0.9-8.6,14-23.5,15.1c-1.2,0.1,5.6,1.4,14.3-3.6c1.4-0.8-0.4,8.6,0.1,5.8
				C73.4,78.4,81.8,65,81.6,64.9z"/>
			<path class="st2" d="M72.4,84.2c-0.1,0-0.2,0-0.3,0C70.7,84,70.9,82.5,71,82c0.2-1.5,0.3-2.6,0.4-3.3C64.2,82.2,58,82,57,81.2
				l-0.8-0.6l0.3-1c0.1-0.2,0.4-1,1.5-1.1c10.1-0.8,16.6-8.3,20-12.4c1.8-2.2,2.9-3.5,4.4-2.5c1.2,0.8,0.5,2,0,3
				c-0.4,0.6-0.9,1.5-1.5,2.6c-2.2,3.9-6.4,11-7,13.4C73.9,83,73.6,84.2,72.4,84.2z M58.2,81.5C58.2,81.5,58.2,81.5,58.2,81.5
				C58.2,81.5,58.2,81.5,58.2,81.5z M73.4,75.1C73.4,75.1,73.4,75.1,73.4,75.1c0.3,0.2,0.4,0.3,0.5,0.5c0.3-0.6,0.6-1.1,0.9-1.7
				C74.4,74.3,73.9,74.7,73.4,75.1z"/>
		</g>
	</g>
</g>
</svg>
