<svg id="Layer_1" data-name="Layer 1" xmlns="http://www.w3.org/2000/svg" viewBox="0 0 213.84 213.84"><defs><style>.cls-1{fill:#fff500;stroke:#373435;stroke-linecap:round;stroke-linejoin:round;}.cls-1,.cls-4{stroke-width:3px;}.cls-2,.cls-4{fill:#201e1e;}.cls-3{fill:#fefefe;}.cls-4{stroke:#201e1e;}</style></defs><title>ijp-logo</title><g id="Layer_1-2" data-name="Layer_1"><g id="_2800767576896" data-name=" 2800767576896"><path class="cls-1" d="M127.65,46.87c6,0,12.1.65,18.22.65,11.23,0,25.13-2.38,36.43,2.95a33.61,33.61,0,0,1,12.82,10.87,94.68,94.68,0,0,1,7.13,17.86,48.82,48.82,0,0,1,.57,7.34c0,14.4-5.18,31-13.46,37.95-7.63,6.4-11.74,3.88-23,3.09l-.07,37.73c0,5.76.86,9.5,2.37,10.87,1.23,1.08,3.6,1.73,7.28,2-2,2-4.18,3.89-6.41,5.76-1.51-.07-2.81-.15-4-.15-5.76-.14-17-.14-22.75,0-3.32.08-8.43.29-15.2.58v-6c5.62,0,9.22-.72,10.66-2.23s2.23-5,2.23-10.8V66.1c0-5.76-.72-9.36-2.23-10.73s-5-2.16-10.66-2.31Zm38.52,74.66c15.84,0,16-17.35,16-33.55,0-16,.5-35.35-16-34.7Z" transform="translate(0 0)"/><path class="cls-1" d="M87.26,10.73c.65,0,1.66,0,2.88.07,11,.58,18.79.86,23.19.86,2.59,0,7.63-.21,15.26-.57,2.88-.22,5.18-.29,6.77-.36v6.19c-5.26.14-4.54.86-6,2.3s-2.16,5.12-2.16,10.73V165.38c0,12.89-2.66,22.75-7.77,29.16s-17,9.65-27.29,9.65c-23.47,0-24.41-20.09-24.41-39.53,0-3.45.94-21.09,2.59-23s3.17-10.08,10.73-9.64,10.37,7.7,11.88,9.5,2.52,19.08,2.52,22,1.08,23.11-7.34,34.06c6.12,1.8,7.2-1.8,8.35-3.53,2-3.17,3.17-9.14,3.17-17.86,0-1.44-.08-3.81-.15-7.2s-.21-6-.21-8V30q0-9.07-2.6-11c-1.72-1.37-2.16-2-9.43-2Z" transform="translate(0 0)"/><path class="cls-1" d="M27,48.1l2.16.14c7.7.36,12.89.58,15.41.58,3.38,0,9.65-.22,18.65-.65,2.23-.15,4-.22,5.11-.29l.07,6.26c-5.83,0-6.48.72-8.06,2.16S58,61.42,58,67.18v98.13c0,6,.79,9.65,2.31,11s2.23,2,8.06,2v6c-6.48-.29-11.45-.5-14.76-.58s-5.9-.14-7.92-.14H44c-2.52-2.09-5-4.25-7.27-6.55-1.73-1.73-3.38-3.53-5-5.4a38.76,38.76,0,0,0,.43-6.41V67.18c0-5.91-.72-9.58-2.23-11s-2.09-2-7-2.09C24.19,52.06,25.56,50,27,48.1Z" transform="translate(0 0)"/><path class="cls-2" d="M106.92,0a106.93,106.93,0,1,1-75.6,31.32A106.41,106.41,0,0,1,106.92,0Zm70.2,36.72a99.25,99.25,0,1,0,29.09,70.2A99.1,99.1,0,0,0,177.12,36.72Z" transform="translate(0 0)"/><path class="cls-2" d="M59,72.5c47.73-75.31,184.1-9.79,92.52,57.89-29.45,21.74-50.4,11.38-57,18.43-9.65,10.08,23,20.45,23.33,9,.14-8.42-5.76-9.5,1.73-9.5,11.52,0,13.89,27.43-16.71,24.55-10.94-1-25.19-12.46-20.88-23,1.52-3.74,8.14-13.46,21.75-14.18,28.58-1.51,65.37-25.2,66.74-48.67C172.08,58.9,122,36.86,91.22,56.3c-3,1.88,2.67,19-10.65,8.28-2.31-1.8-8.86.44-11.67,4.25C66.67,71.78,63.07,74.16,59,72.5Z" transform="translate(0 0)"/><path class="cls-3" d="M70.13,60.34c3,1.29,4.89-.22,7.2-1.37,5.11-2.59,1-5,15.55-3.89a24.89,24.89,0,0,1-2.23,1.66C87.84,58.54,93.17,74,80.35,64c-2.59-2-8.28,1.65-8.93,1.87C72.72,64.37,69.91,60.55,70.13,60.34Z" transform="translate(0 0)"/><path class="cls-2" d="M70.34,59.9c2.31,1,4,.08,5.84-.86.36-.14.64-.36,1-.5a10,10,0,0,0,2.67-2c1.58-1.66,2.59-2.74,13.1-1.87a.36.36,0,0,1,.36.43.42.42,0,0,1-.22.43,4.08,4.08,0,0,0-.64.51c-.58.43-1.44,1-1.59,1.08-.65.43-.72,2.23-.79,4.17s-.22,4.32-1.22,5.55c-1.23,1.58-3.68,1.51-8.71-2.45-2-1.51-6.27.72-7.92,1.58-.29.15-.51.29-.65.36A.49.49,0,0,1,71,66a.34.34,0,0,1,.15-.43c.64-.86-.36-2.88-1-4.1-.36-.72-.58-1.23-.29-1.51A.43.43,0,0,1,70.34,59.9Zm6.27-.07c-1.73.94-3.46,1.87-5.69,1.23v.07a8,8,0,0,1,1.3,3.81c1.94-1,6.19-3,8.42-1.29,4.61,3.6,6.62,3.81,7.56,2.66.79-1.08.86-3.17.93-5.11.08-2.16.22-4.18,1.3-4.82.07-.08.72-.51,1.3-.94-9-.65-9.87.29-11.24,1.66a8.69,8.69,0,0,1-2.95,2.23C77.26,59.47,76.9,59.69,76.61,59.83Z" transform="translate(0 0)"/><path class="cls-2" d="M81.72,143.21c.29,0-3.82,6.26-4.46,9.43-11.38,2.37-20.6,10.8-28.08,19C49.75,156.81,72.07,143.21,81.72,143.21Z" transform="translate(0 0)"/><path class="cls-2" d="M163,90.65,37.08,90.57c10.66,28.8,63.21,42.27,63.21,42.34v7.7c0,1.95,26.43-.28,26.57-3.31l.36-8.85C127.44,122.54,158.18,110.52,163,90.65Z" transform="translate(0 0)"/><path class="cls-4" d="M81.57,64.87C80.35,64,72.94,78.84,58.1,80c-1.15.07,5.62,1.37,14.26-3.6,1.37-.79-.43,8.57.14,5.83C73.44,78.41,81.79,65,81.57,64.87Z" transform="translate(0 0)"/></g></g></svg>