<svg id="Layer_1" data-name="Layer 1" xmlns="http://www.w3.org/2000/svg" viewBox="0 0 348.69 233.85"><defs><style>.cls-1,.cls-2{fill:#fff500;}.cls-2{stroke:#373435;stroke-linecap:round;stroke-linejoin:round;}.cls-3,.cls-5{fill:#201e1e;}.cls-4{fill:#fefefe;}.cls-5{stroke:#201e1e;}</style></defs><title>ijp</title><g id="Layer_1-2" data-name="Layer 1-2"><g id="_1848508970096" data-name=" 1848508970096"><rect class="cls-1" width="348.69" height="233.85"/></g></g><g id="Layer_1-2-2" data-name="Layer_1"><g id="_2800767576896" data-name=" 2800767576896"><path class="cls-2" d="M185,91c2.57,0,5.13.28,7.72.28,4.76,0,10.66-1,15.45,1.25a14.26,14.26,0,0,1,5.43,4.61,39.72,39.72,0,0,1,3,7.57,21.05,21.05,0,0,1,.25,3.11c0,6.11-2.2,13.16-5.71,16.09-3.24,2.71-5,1.64-9.74,1.31l0,16c0,2.44.37,4,1,4.61a5.5,5.5,0,0,0,3.08.85c-.85.86-1.77,1.65-2.72,2.45-.64,0-1.19-.06-1.67-.06-2.45-.07-7.21-.07-9.65,0-1.4,0-3.57.12-6.44.24v-2.56c2.38,0,3.91-.31,4.52-.95s.94-2.14.94-4.58V99.16c0-2.44-.3-4-.94-4.54s-2.14-.92-4.52-1Zm16.33,31.65c6.71,0,6.78-7.35,6.78-14.22s.21-15-6.78-14.71Z" transform="translate(0 0)"/><path class="cls-2" d="M167.83,75.69c.27,0,.7,0,1.22,0,4.67.25,8,.37,9.83.37,1.1,0,3.23-.09,6.47-.25,1.22-.09,2.2-.12,2.87-.15v2.63c-2.23.06-1.93.36-2.54,1s-.91,2.17-.91,4.55v57.41c0,5.47-1.13,9.65-3.3,12.36s-7.2,4.09-11.57,4.09c-10,0-10.34-8.51-10.34-16.75,0-1.47.39-8.95,1.1-9.74s1.34-4.27,4.54-4.09,4.4,3.27,5,4,1.07,8.09,1.07,9.34.46,9.8-3.12,14.44c2.6.76,3.06-.77,3.55-1.5.85-1.34,1.34-3.88,1.34-7.57,0-.61,0-1.62-.06-3.05s-.09-2.57-.09-3.39V83.84c0-2.56-.37-4.12-1.1-4.67s-.92-.85-4-.85Z" transform="translate(0 0)"/><path class="cls-2" d="M142.28,91.53l.92.06c3.26.16,5.46.25,6.53.25,1.43,0,4.09-.09,7.9-.28l2.17-.12,0,2.66c-2.47,0-2.74.3-3.42.91s-1,2.17-1,4.61v41.6c0,2.53.33,4.09,1,4.67s1,.86,3.42.86v2.56c-2.74-.12-4.85-.21-6.25-.24s-2.51-.07-3.36-.07h-.73c-1.07-.88-2.11-1.8-3.09-2.77-.73-.74-1.43-1.5-2.1-2.29a16.78,16.78,0,0,0,.18-2.72V99.62c0-2.5-.31-4.06-.95-4.64s-.88-.85-3-.88C141.09,93.21,141.67,92.36,142.28,91.53Z" transform="translate(0 0)"/><path class="cls-3" d="M176.16,71.14a45.32,45.32,0,1,1-32,13.28A45.13,45.13,0,0,1,176.16,71.14Zm29.76,15.57a42.08,42.08,0,1,0,12.33,29.76A42,42,0,0,0,205.92,86.71Z" transform="translate(0 0)"/><path class="cls-3" d="M155.83,101.88c20.24-31.93,78-4.15,39.22,24.54-12.48,9.22-21.36,4.82-24.17,7.81-4.09,4.28,9.77,8.67,9.89,3.82.06-3.57-2.44-4,.73-4,4.89,0,5.89,11.63-7.08,10.41-4.64-.43-10.68-5.28-8.85-9.74a10.59,10.59,0,0,1,9.22-6C186.9,128,202.5,118,203.08,108c.7-11.93-20.51-21.27-33.57-13-1.25.8,1.13,8.06-4.52,3.51-1-.76-3.75.19-4.94,1.8C159.1,101.57,157.57,102.58,155.83,101.88Z" transform="translate(0 0)"/><path class="cls-4" d="M160.56,96.72c1.26.55,2.08-.09,3.06-.58,2.16-1.1.42-2.14,6.59-1.65a10.18,10.18,0,0,1-1,.71c-1.19.76,1.07,7.32-4.36,3.08-1.1-.86-3.51.7-3.79.79C161.66,98.43,160.47,96.81,160.56,96.72Z" transform="translate(0 0)"/><path class="cls-3" d="M160.66,96.54a2.6,2.6,0,0,0,2.47-.37c.15-.06.27-.15.43-.21a4.34,4.34,0,0,0,1.13-.86c.67-.7,1.09-1.16,5.55-.79a.15.15,0,0,1,.15.18.2.2,0,0,1-.09.19,1.65,1.65,0,0,0-.27.21c-.25.18-.61.43-.68.46-.27.18-.3.94-.33,1.77a4.45,4.45,0,0,1-.52,2.35c-.52.67-1.56.64-3.69-1-.86-.64-2.66.31-3.36.67l-.27.15a.2.2,0,0,1-.25-.12A.14.14,0,0,1,161,99c.28-.37-.15-1.22-.43-1.74-.15-.31-.24-.52-.12-.64A.2.2,0,0,1,160.66,96.54Zm2.65,0a3.06,3.06,0,0,1-2.41.52v0a3.44,3.44,0,0,1,.55,1.61c.82-.42,2.62-1.28,3.57-.54,1.95,1.52,2.81,1.61,3.21,1.12a4.47,4.47,0,0,0,.39-2.16c0-.92.09-1.77.55-2l.55-.39c-3.81-.28-4.18.12-4.76.7a3.71,3.71,0,0,1-1.25.94Z" transform="translate(0 0)"/><path class="cls-3" d="M165.48,131.85c.12,0-1.62,2.66-1.89,4-4.83,1-8.73,4.58-11.91,8.06C151.93,137.62,161.39,131.85,165.48,131.85Z" transform="translate(0 0)"/><path class="cls-3" d="M199.94,109.57l-53.38,0c4.51,12.21,26.79,17.92,26.79,17.95v3.26c0,.83,11.2-.12,11.27-1.4l.15-3.76C184.86,123.09,197.89,118,199.94,109.57Z" transform="translate(0 0)"/><path class="cls-5" d="M165.42,98.64c-.52-.36-3.67,5.93-9.95,6.41-.49,0,2.38.58,6-1.52.58-.34-.18,3.63.06,2.47C162,104.38,165.51,98.71,165.42,98.64Z" transform="translate(0 0)"/></g></g></svg>