<?xml version="1.0" encoding="utf-8"?>
<!-- Generator: Adobe Illustrator 22.1.0, SVG Export Plug-In . SVG Version: 6.00 Build 0)  -->
<svg version="1.1" id="Layer_1" xmlns="http://www.w3.org/2000/svg" xmlns:xlink="http://www.w3.org/1999/xlink" x="0px" y="0px"
	 viewBox="0 0 464.9 311.8" style="enable-background:new 0 0 464.9 311.8;" xml:space="preserve">
<style type="text/css">
	.st0{fill:#0081C3;}
	.st1{enable-background:new    ;}
	.st2{fill:#FFFFFF;}
	.st3{fill:#178ECA;}
	.st4{fill:#2B2171;}
</style>
<g id="svg21" inkscape:version="0.92.4 (5da689c313, 2019-01-14)" sodipodi:docname="ieee.svg" xmlns:cc="http://creativecommons.org/ns#" xmlns:dc="http://purl.org/dc/elements/1.1/" xmlns:inkscape="http://www.inkscape.org/namespaces/inkscape" xmlns:rdf="http://www.w3.org/1999/02/22-rdf-syntax-ns#" xmlns:sodipodi="http://sodipodi.sourceforge.net/DTD/sodipodi-0.dtd" xmlns:svg="http://www.w3.org/2000/svg">
	<rect id="rect7" y="0" class="st0" width="464.9" height="311.8"/>
</g>
<g>
	<g>
		<g class="st1">
			<path class="st2" d="M238,184.6c0,0.5,0,0.9,0,1.1c0,0.3,0.1,0.5,0.1,0.6c0.1,0.2,0.1,0.3,0.2,0.4s0.2,0.2,0.4,0.3
				c0.2,0.1,0.4,0.2,0.8,0.2v0.6H234v-0.6c0.5-0.1,0.8-0.3,1-0.4s0.3-0.4,0.4-0.7s0.1-0.8,0.1-1.5v-5.5h-7.3v5.5c0,0.6,0,1,0.1,1.3
				c0,0.3,0.1,0.5,0.2,0.6c0.1,0.2,0.2,0.3,0.4,0.4c0.2,0.1,0.5,0.2,0.9,0.3v0.6h-5.5v-0.6c0.5-0.1,0.9-0.3,1.1-0.5s0.3-0.4,0.4-0.7
				s0.1-0.8,0.1-1.4v-11.3c0-0.6,0-1-0.1-1.3c0-0.3-0.1-0.5-0.2-0.6c-0.1-0.2-0.2-0.3-0.4-0.4c-0.2-0.1-0.4-0.2-0.8-0.3V170h5.5v0.6
				c-0.4,0.1-0.7,0.2-0.8,0.3c-0.2,0.1-0.3,0.2-0.4,0.4c-0.1,0.1-0.2,0.4-0.2,0.6c0,0.3-0.1,0.7-0.1,1.3v4.6h7.3v-4.6
				c0-0.8,0-1.3-0.1-1.6c-0.1-0.3-0.2-0.5-0.4-0.6c-0.2-0.1-0.5-0.3-1-0.4V170h5.5v0.6c-0.5,0.1-0.8,0.3-1,0.4s-0.3,0.4-0.4,0.7
				c-0.1,0.3-0.1,0.8-0.1,1.5V184.6z"/>
			<path class="st2" d="M252.8,185.6c-0.6,0.6-1.1,1-1.5,1.4c-0.5,0.3-1,0.6-1.5,0.8c-0.6,0.2-1.2,0.3-1.8,0.3
				c-1.8,0-3.2-0.5-4.1-1.6s-1.4-2.7-1.4-4.8c0-1.3,0.2-2.4,0.7-3.4c0.5-1,1.1-1.8,2-2.3c0.9-0.5,1.9-0.8,3-0.8
				c0.9,0,1.6,0.1,2.2,0.4c0.6,0.3,1.1,0.7,1.5,1.1c0.4,0.5,0.7,1.1,0.9,1.8c0.2,0.7,0.3,1.7,0.3,2.9h-8.2v0.2c0,1,0.1,1.9,0.3,2.6
				c0.2,0.7,0.6,1.3,1.1,1.6s1.2,0.6,2.1,0.6c0.7,0,1.4-0.1,1.9-0.4c0.6-0.3,1.1-0.7,1.7-1.3L252.8,185.6z M250.6,180.3
				c-0.1-0.9-0.2-1.7-0.4-2.3c-0.2-0.6-0.5-1.1-0.8-1.4s-0.8-0.5-1.4-0.5c-0.9,0-1.6,0.4-2.2,1.1c-0.5,0.7-0.9,1.7-0.9,3.1H250.6z"
				/>
			<path class="st2" d="M263,186l-0.2-0.1c-0.8,0.8-1.5,1.3-2.1,1.6c-0.7,0.3-1.4,0.5-2.1,0.5c-0.7,0-1.2-0.1-1.8-0.4
				s-0.9-0.6-1.2-1.1c-0.3-0.5-0.4-1-0.4-1.6c0-1.3,0.6-2.3,1.9-2.9c1.3-0.7,3.1-1.1,5.7-1.2v-0.8c0-0.9-0.1-1.6-0.3-2.1
				c-0.2-0.5-0.4-0.9-0.8-1.2c-0.4-0.2-0.9-0.4-1.5-0.4c-0.7,0-1.2,0.2-1.6,0.5c-0.4,0.4-0.7,0.9-0.9,1.6h-1.7v-1.7
				c0.8-0.4,1.5-0.8,2.1-1c0.6-0.2,1.1-0.4,1.7-0.5c0.6-0.1,1.1-0.2,1.7-0.2c0.9,0,1.6,0.1,2.1,0.4c0.5,0.3,0.9,0.7,1.2,1.3
				c0.3,0.6,0.4,1.4,0.4,2.6v4.5c0,0.6,0,1.1,0,1.4c0,0.3,0,0.5,0.1,0.7s0.1,0.4,0.2,0.5c0.1,0.1,0.2,0.3,0.4,0.3s0.4,0.2,0.8,0.3
				v0.6h-3.6L263,186z M262.7,181.9c-1.8,0-3.1,0.3-4,0.7c-0.9,0.5-1.3,1.1-1.3,2.1c0,0.5,0.1,0.9,0.3,1.2c0.2,0.3,0.5,0.5,0.8,0.6
				c0.3,0.1,0.7,0.2,1.1,0.2c0.6,0,1.1-0.1,1.6-0.4c0.5-0.3,0.9-0.7,1.1-1.1c0.3-0.4,0.4-0.9,0.4-1.3V181.9z"/>
			<path class="st2" d="M272,184.6c0,0.8,0,1.3,0.1,1.6c0.1,0.3,0.2,0.5,0.4,0.7s0.5,0.3,1,0.4v0.6h-5.2v-0.6
				c0.4-0.1,0.7-0.2,0.9-0.4s0.3-0.3,0.4-0.4c0.1-0.2,0.1-0.4,0.2-0.7s0-0.7,0-1.1v-10.9c0-0.8,0-1.4,0-1.8s0-0.6-0.1-0.8
				c-0.1-0.2-0.1-0.4-0.2-0.5c-0.1-0.1-0.2-0.2-0.4-0.3c-0.2-0.1-0.5-0.2-0.9-0.2v-0.7l3.2-0.1h0.8V184.6z"/>
			<path class="st2" d="M275,176c0.4-0.1,0.8-0.2,1.1-0.4c0.3-0.2,0.5-0.4,0.6-0.7c0.2-0.3,0.3-0.6,0.4-1c0.1-0.4,0.2-1,0.3-1.8h1.9
				v3.2h4.2v1.3h-4.2v5.8c0,0.8,0,1.5,0.1,2c0.1,0.5,0.2,0.9,0.4,1.2c0.2,0.3,0.4,0.5,0.7,0.6s0.6,0.2,0.9,0.2c0.3,0,0.7-0.1,1-0.2
				c0.3-0.1,0.6-0.4,0.9-0.6l0.6,0.7c-0.6,0.6-1.2,1-1.8,1.3c-0.6,0.3-1.1,0.4-1.7,0.4c-1.1,0-2-0.3-2.5-1c-0.5-0.7-0.8-1.7-0.8-3.1
				v-7.3H275V176z"/>
			<path class="st2" d="M288.3,177.4L288.3,177.4c0.7-0.7,1.3-1.2,1.7-1.4s0.8-0.5,1.2-0.6c0.4-0.1,0.8-0.2,1.2-0.2
				c0.5,0,0.9,0.1,1.3,0.2c0.4,0.1,0.7,0.3,1,0.5c0.3,0.2,0.5,0.5,0.7,0.8c0.2,0.3,0.3,0.7,0.4,1.2c0.1,0.5,0.1,1.1,0.1,1.8v4.9
				c0,0.8,0,1.3,0.1,1.5s0.2,0.5,0.4,0.6s0.5,0.3,1,0.4v0.6h-5.2v-0.6c0.3-0.1,0.6-0.2,0.7-0.3s0.3-0.2,0.4-0.3
				c0.1-0.1,0.2-0.4,0.2-0.6s0.1-0.7,0.1-1.3v-3.4c0-1.2-0.1-2-0.2-2.7c-0.1-0.6-0.3-1.1-0.7-1.4c-0.3-0.3-0.8-0.5-1.4-0.5
				c-0.3,0-0.7,0.1-0.9,0.2c-0.3,0.1-0.6,0.3-1,0.7c-0.4,0.3-0.6,0.6-0.8,1s-0.3,0.7-0.3,1.1v5c0,0.6,0,1,0,1.3
				c0,0.3,0.1,0.5,0.2,0.6c0.1,0.2,0.2,0.3,0.4,0.4c0.2,0.1,0.5,0.2,0.8,0.3v0.6h-5.2v-0.6c0.4-0.1,0.7-0.2,0.8-0.3
				c0.2-0.1,0.3-0.2,0.4-0.4c0.1-0.1,0.2-0.4,0.2-0.6c0-0.3,0.1-0.7,0.1-1.3v-10.9c0-0.8,0-1.4,0-1.8c0-0.3,0-0.6-0.1-0.8
				c-0.1-0.2-0.1-0.4-0.2-0.5c-0.1-0.1-0.2-0.2-0.4-0.3c-0.2-0.1-0.5-0.2-0.9-0.2v-0.7l3.2-0.1h0.8V177.4z"/>
			<path class="st2" d="M307,183.8c0.2,0.8,0.4,1.4,0.7,1.8c0.3,0.4,0.7,0.8,1.2,1c0.5,0.2,1.1,0.3,1.8,0.3c1,0,1.8-0.3,2.3-0.8
				c0.5-0.5,0.8-1.3,0.8-2.3c0-0.7-0.1-1.2-0.3-1.6s-0.6-0.9-1.1-1.3c-0.5-0.4-1.3-0.8-2.4-1.4c-1-0.5-1.8-1-2.4-1.5s-1-1-1.3-1.6
				s-0.4-1.2-0.4-1.9c0-1,0.2-1.8,0.7-2.5s1.1-1.3,2-1.7c0.9-0.4,1.9-0.6,3-0.6c0.7,0,1.3,0,1.9,0.1c0.6,0.1,1.4,0.2,2.4,0.5v3.5
				h-1.3c-0.2-0.8-0.5-1.4-0.8-1.8c-0.3-0.4-0.7-0.7-1.1-0.9c-0.4-0.2-0.9-0.3-1.6-0.3c-0.6,0-1.1,0.1-1.5,0.3
				c-0.4,0.2-0.8,0.5-1.1,0.9c-0.3,0.4-0.4,0.9-0.4,1.5c0,0.6,0.1,1.1,0.3,1.6c0.2,0.4,0.6,0.8,1,1.2c0.5,0.4,1.2,0.8,2.1,1.2
				c1.1,0.6,2,1.1,2.6,1.6c0.6,0.5,1.1,1,1.4,1.6c0.3,0.6,0.5,1.3,0.5,2.2c0,0.9-0.1,1.7-0.4,2.3c-0.3,0.6-0.7,1.1-1.2,1.5
				s-1.1,0.7-1.8,0.9s-1.5,0.3-2.3,0.3c-1.4,0-2.9-0.2-4.7-0.7v-3.6H307z"/>
			<path class="st2" d="M328.5,175.6v2.7h-1.7c-0.1-0.6-0.3-1-0.5-1.3s-0.5-0.6-0.8-0.7c-0.3-0.1-0.6-0.2-1.1-0.2
				c-0.6,0-1.2,0.2-1.6,0.6c-0.5,0.4-0.8,1-1.1,1.8s-0.4,1.8-0.4,2.9c0,0.7,0.1,1.4,0.2,2s0.3,1.1,0.5,1.6c0.3,0.4,0.6,0.8,1,1
				s0.9,0.4,1.6,0.4c0.6,0,1.2-0.1,1.7-0.4s1.1-0.6,1.6-1.2l0.7,0.9c-0.4,0.5-0.8,0.9-1.2,1.1s-0.7,0.5-1.1,0.7
				c-0.4,0.2-0.8,0.3-1.2,0.4s-0.8,0.1-1.2,0.1c-1.6,0-2.9-0.5-3.8-1.6s-1.3-2.7-1.3-4.7c0-1.3,0.2-2.4,0.7-3.4
				c0.5-1,1.2-1.8,2.1-2.3c0.9-0.5,1.9-0.8,3-0.8c0.7,0,1.4,0,2,0.1S327.9,175.5,328.5,175.6z"/>
			<path class="st2" d="M330.6,187.2c0.3-0.1,0.6-0.2,0.7-0.3c0.1-0.1,0.3-0.2,0.4-0.3c0.1-0.1,0.2-0.4,0.2-0.6
				c0.1-0.3,0.1-0.7,0.1-1.3v-5.7c0-0.6,0-1,0-1.3s-0.1-0.6-0.2-0.8c-0.1-0.2-0.3-0.4-0.5-0.5c-0.2-0.1-0.5-0.2-0.9-0.3v-0.7l3-0.1
				h0.8v9.3c0,0.8,0,1.3,0.1,1.6s0.2,0.5,0.4,0.7c0.2,0.2,0.5,0.3,1,0.4v0.6h-5.1V187.2z M334.3,170.2v2.5h-2.4v-2.5H334.3z"/>
			<path class="st2" d="M348.4,185.6c-0.6,0.6-1.1,1-1.5,1.4c-0.5,0.3-1,0.6-1.5,0.8c-0.6,0.2-1.2,0.3-1.8,0.3
				c-1.8,0-3.2-0.5-4.1-1.6s-1.4-2.7-1.4-4.8c0-1.3,0.2-2.4,0.7-3.4c0.5-1,1.1-1.8,2-2.3c0.9-0.5,1.9-0.8,3-0.8
				c0.9,0,1.6,0.1,2.2,0.4c0.6,0.3,1.1,0.7,1.5,1.1c0.4,0.5,0.7,1.1,0.9,1.8c0.2,0.7,0.3,1.7,0.3,2.9h-8.2v0.2c0,1,0.1,1.9,0.3,2.6
				c0.2,0.7,0.6,1.3,1.1,1.6s1.2,0.6,2.1,0.6c0.7,0,1.4-0.1,1.9-0.4c0.6-0.3,1.1-0.7,1.7-1.3L348.4,185.6z M346.2,180.3
				c-0.1-0.9-0.2-1.7-0.4-2.3c-0.2-0.6-0.5-1.1-0.8-1.4s-0.8-0.5-1.4-0.5c-0.9,0-1.6,0.4-2.2,1.1c-0.5,0.7-0.9,1.7-0.9,3.1H346.2z"
				/>
			<path class="st2" d="M363.8,187.8h-5.2v-0.6c0.3-0.1,0.6-0.2,0.7-0.3s0.3-0.2,0.4-0.3c0.1-0.1,0.2-0.4,0.2-0.6s0.1-0.7,0.1-1.3
				v-3.4c0-0.6,0-1.2-0.1-1.7c0-0.5-0.1-0.9-0.2-1.2c-0.1-0.3-0.2-0.6-0.3-0.7c-0.1-0.2-0.3-0.3-0.4-0.5c-0.2-0.1-0.3-0.2-0.6-0.3
				c-0.2-0.1-0.5-0.1-0.8-0.1s-0.7,0.1-1,0.2c-0.3,0.1-0.6,0.4-1,0.7c-0.4,0.3-0.6,0.7-0.8,1c-0.2,0.3-0.2,0.7-0.2,1.1v4.9
				c0,0.8,0,1.3,0.1,1.6c0.1,0.3,0.2,0.5,0.4,0.7s0.5,0.3,1,0.4v0.6h-5.1v-0.6c0.3-0.1,0.6-0.2,0.7-0.3s0.3-0.2,0.4-0.3
				c0.1-0.1,0.2-0.4,0.2-0.6c0.1-0.3,0.1-0.7,0.1-1.3v-5.7c0-0.6,0-1,0-1.3s-0.1-0.6-0.2-0.8c-0.1-0.2-0.3-0.4-0.5-0.5
				s-0.5-0.2-0.9-0.3v-0.7l3.1-0.1h0.8l-0.1,2.1l0.2,0.1c0.6-0.7,1.2-1.1,1.6-1.4s0.8-0.5,1.2-0.6c0.4-0.2,0.8-0.2,1.3-0.2
				c0.5,0,0.9,0.1,1.3,0.2c0.4,0.1,0.7,0.3,1,0.5s0.5,0.5,0.7,0.8c0.2,0.3,0.3,0.7,0.4,1.2c0.1,0.5,0.1,1.1,0.1,1.8v4.9
				c0,0.6,0,1,0.1,1.3c0,0.3,0.1,0.5,0.2,0.6c0.1,0.1,0.2,0.3,0.4,0.4c0.2,0.1,0.5,0.2,0.9,0.3V187.8z"/>
			<path class="st2" d="M375.7,175.6v2.7h-1.7c-0.1-0.6-0.3-1-0.5-1.3s-0.5-0.6-0.8-0.7c-0.3-0.1-0.6-0.2-1.1-0.2
				c-0.6,0-1.2,0.2-1.6,0.6c-0.5,0.4-0.8,1-1.1,1.8s-0.4,1.8-0.4,2.9c0,0.7,0.1,1.4,0.2,2s0.3,1.1,0.5,1.6c0.3,0.4,0.6,0.8,1,1
				s0.9,0.4,1.6,0.4c0.6,0,1.2-0.1,1.7-0.4s1.1-0.6,1.6-1.2l0.7,0.9c-0.4,0.5-0.8,0.9-1.2,1.1s-0.7,0.5-1.1,0.7
				c-0.4,0.2-0.8,0.3-1.2,0.4s-0.8,0.1-1.2,0.1c-1.6,0-2.9-0.5-3.8-1.6s-1.3-2.7-1.3-4.7c0-1.3,0.2-2.4,0.7-3.4
				c0.5-1,1.2-1.8,2.1-2.3c0.9-0.5,1.9-0.8,3-0.8c0.7,0,1.4,0,2,0.1S375.1,175.5,375.7,175.6z"/>
			<path class="st2" d="M388.3,185.6c-0.6,0.6-1.1,1-1.5,1.4c-0.5,0.3-1,0.6-1.5,0.8c-0.6,0.2-1.2,0.3-1.8,0.3
				c-1.8,0-3.2-0.5-4.1-1.6s-1.4-2.7-1.4-4.8c0-1.3,0.2-2.4,0.7-3.4c0.5-1,1.1-1.8,2-2.3c0.9-0.5,1.9-0.8,3-0.8
				c0.9,0,1.6,0.1,2.2,0.4c0.6,0.3,1.1,0.7,1.5,1.1c0.4,0.5,0.7,1.1,0.9,1.8s0.3,1.7,0.3,2.9h-8.2v0.2c0,1,0.1,1.9,0.3,2.6
				c0.2,0.7,0.6,1.3,1.1,1.6s1.2,0.6,2.1,0.6c0.7,0,1.4-0.1,1.9-0.4c0.6-0.3,1.1-0.7,1.7-1.3L388.3,185.6z M386.1,180.3
				c-0.1-0.9-0.2-1.7-0.4-2.3c-0.2-0.6-0.5-1.1-0.8-1.4c-0.4-0.3-0.8-0.5-1.4-0.5c-0.9,0-1.6,0.4-2.2,1.1c-0.5,0.7-0.9,1.7-0.9,3.1
				H386.1z"/>
			<path class="st2" d="M399.6,178.2h-1.3c-0.2-0.5-0.4-0.9-0.7-1.2c-0.3-0.3-0.6-0.5-0.9-0.6s-0.7-0.2-1.2-0.2
				c-0.7,0-1.3,0.2-1.7,0.5c-0.4,0.3-0.6,0.8-0.6,1.3c0,0.4,0.1,0.7,0.2,1c0.2,0.3,0.4,0.5,0.8,0.7c0.3,0.2,1,0.5,1.8,0.9
				c0.9,0.4,1.6,0.7,2.1,1.1c0.5,0.3,0.9,0.7,1.1,1.1c0.3,0.4,0.4,0.9,0.4,1.5c0,0.7-0.1,1.3-0.4,1.7s-0.6,0.9-1,1.2
				c-0.4,0.3-0.9,0.5-1.5,0.6c-0.6,0.1-1.2,0.2-1.9,0.2c-0.7,0-1.4-0.1-2.1-0.2c-0.7-0.1-1.4-0.3-2-0.4v-2.7h1.3
				c0.2,0.8,0.6,1.4,1,1.7c0.5,0.4,1.1,0.5,1.9,0.5c0.3,0,0.6,0,0.9-0.1s0.6-0.2,0.8-0.3s0.4-0.4,0.6-0.6c0.1-0.3,0.2-0.6,0.2-1
				c0-0.4-0.1-0.8-0.3-1.1c-0.2-0.3-0.4-0.5-0.8-0.8c-0.4-0.2-1-0.5-1.9-0.9c-0.8-0.3-1.4-0.7-1.9-1c-0.5-0.3-0.9-0.7-1.1-1.1
				c-0.3-0.4-0.4-0.9-0.4-1.5c0-0.7,0.2-1.3,0.6-1.9s0.9-0.9,1.7-1.2c0.7-0.3,1.6-0.4,2.6-0.4c0.6,0,1.1,0,1.7,0.1
				c0.5,0.1,1.2,0.2,2,0.3V178.2z"/>
		</g>
		<g class="st1">
			<path class="st3" d="M182.7,186l-0.2-0.1c-0.8,0.8-1.5,1.3-2.1,1.6s-1.4,0.5-2.1,0.5c-0.7,0-1.2-0.1-1.8-0.4
				c-0.5-0.3-0.9-0.6-1.2-1.1c-0.3-0.5-0.4-1-0.4-1.6c0-1.3,0.6-2.3,1.9-2.9c1.3-0.7,3.1-1.1,5.7-1.2v-0.8c0-0.9-0.1-1.6-0.3-2.1
				c-0.2-0.5-0.4-0.9-0.8-1.2c-0.4-0.2-0.9-0.4-1.5-0.4c-0.7,0-1.2,0.2-1.6,0.5c-0.4,0.4-0.7,0.9-0.9,1.6h-1.7v-1.7
				c0.8-0.4,1.5-0.8,2.1-1c0.6-0.2,1.1-0.4,1.7-0.5c0.6-0.1,1.1-0.2,1.7-0.2c0.9,0,1.6,0.1,2.1,0.4s0.9,0.7,1.2,1.3s0.4,1.4,0.4,2.6
				v4.5c0,0.6,0,1.1,0,1.4c0,0.3,0,0.5,0.1,0.7c0,0.2,0.1,0.4,0.2,0.5c0.1,0.1,0.2,0.3,0.4,0.3s0.4,0.2,0.8,0.3v0.6h-3.6L182.7,186z
				 M182.5,181.9c-1.8,0-3.1,0.3-4,0.7c-0.9,0.5-1.3,1.1-1.3,2.1c0,0.5,0.1,0.9,0.3,1.2c0.2,0.3,0.5,0.5,0.8,0.6
				c0.3,0.1,0.7,0.2,1.1,0.2c0.6,0,1.1-0.1,1.6-0.4c0.5-0.3,0.9-0.7,1.1-1.1s0.4-0.9,0.4-1.3V181.9z"/>
			<path class="st3" d="M201,187.8h-5.2v-0.6c0.3-0.1,0.6-0.2,0.7-0.3c0.1-0.1,0.3-0.2,0.4-0.3c0.1-0.1,0.2-0.4,0.2-0.6
				s0.1-0.7,0.1-1.3v-3.4c0-0.6,0-1.2-0.1-1.7c0-0.5-0.1-0.9-0.2-1.2c-0.1-0.3-0.2-0.6-0.3-0.7s-0.3-0.3-0.4-0.5
				c-0.2-0.1-0.3-0.2-0.6-0.3c-0.2-0.1-0.5-0.1-0.8-0.1s-0.7,0.1-1,0.2s-0.6,0.4-1,0.7c-0.4,0.3-0.6,0.7-0.8,1s-0.2,0.7-0.2,1.1v4.9
				c0,0.8,0,1.3,0.1,1.6c0.1,0.3,0.2,0.5,0.4,0.7c0.2,0.2,0.5,0.3,1,0.4v0.6h-5.1v-0.6c0.3-0.1,0.6-0.2,0.7-0.3
				c0.1-0.1,0.3-0.2,0.4-0.3c0.1-0.1,0.2-0.4,0.2-0.6c0.1-0.3,0.1-0.7,0.1-1.3v-5.7c0-0.6,0-1,0-1.3s-0.1-0.6-0.2-0.8
				c-0.1-0.2-0.3-0.4-0.5-0.5c-0.2-0.1-0.5-0.2-0.9-0.3v-0.7l3.1-0.1h0.8l-0.1,2.1l0.2,0.1c0.6-0.7,1.2-1.1,1.6-1.4s0.8-0.5,1.2-0.6
				c0.4-0.2,0.8-0.2,1.3-0.2c0.5,0,0.9,0.1,1.3,0.2c0.4,0.1,0.7,0.3,1,0.5s0.5,0.5,0.7,0.8c0.2,0.3,0.3,0.7,0.4,1.2
				c0.1,0.5,0.1,1.1,0.1,1.8v4.9c0,0.6,0,1,0.1,1.3s0.1,0.5,0.2,0.6c0.1,0.1,0.2,0.3,0.4,0.4c0.2,0.1,0.5,0.2,0.9,0.3V187.8z"/>
			<path class="st3" d="M212,173.6c0-0.8,0-1.4,0-1.8s0-0.6-0.1-0.8c-0.1-0.2-0.1-0.4-0.2-0.5c-0.1-0.1-0.2-0.2-0.4-0.3
				c-0.2-0.1-0.5-0.2-0.9-0.2v-0.7l3.2-0.1h0.8v15.1c0,0.7,0,1.2,0,1.5c0,0.3,0.1,0.5,0.2,0.7c0.1,0.2,0.2,0.3,0.4,0.4
				c0.2,0.1,0.5,0.2,1,0.3v0.7l-3.1,0.1H212l0.2-2.1l-0.2-0.1c-0.5,0.6-1,1-1.4,1.3s-0.8,0.5-1.3,0.7c-0.5,0.2-0.9,0.3-1.5,0.3
				c-1.4,0-2.5-0.5-3.3-1.6c-0.8-1.1-1.2-2.7-1.2-4.7c0-1.4,0.3-2.6,0.8-3.6s1.2-1.7,2-2.2c0.9-0.5,1.8-0.7,2.9-0.7
				c0.6,0,1.1,0,1.6,0.1c0.5,0.1,1,0.2,1.5,0.5V173.6z M212,180.1c0-0.7,0-1.2-0.1-1.6c-0.1-0.4-0.2-0.8-0.3-1
				c-0.1-0.3-0.3-0.5-0.6-0.7s-0.5-0.3-0.8-0.4c-0.3-0.1-0.6-0.1-1.1-0.1c-1.1,0-2,0.4-2.5,1.3s-0.9,2.2-0.9,3.8
				c0,1.7,0.2,2.9,0.7,3.8c0.5,0.9,1.2,1.3,2.2,1.3c0.4,0,0.7,0,1-0.1c0.3-0.1,0.5-0.2,0.7-0.3c0.2-0.1,0.5-0.3,0.7-0.6
				c0.3-0.3,0.4-0.5,0.6-0.7c0.1-0.2,0.2-0.4,0.3-0.7c0.1-0.3,0.1-0.6,0.1-1V180.1z"/>
		</g>
		<g class="st1">
			<path class="st2" d="M83.9,170.6c-0.4,0.1-0.7,0.2-0.8,0.3c-0.2,0.1-0.3,0.2-0.4,0.4c-0.1,0.1-0.2,0.4-0.2,0.6
				c0,0.3-0.1,0.7-0.1,1.3v11.3c0,0.6,0,1,0.1,1.3c0,0.3,0.1,0.5,0.2,0.6c0.1,0.2,0.2,0.3,0.4,0.4c0.2,0.1,0.5,0.2,0.9,0.3v0.6h-5.5
				v-0.6c0.5-0.1,0.8-0.3,1-0.4c0.2-0.2,0.3-0.4,0.4-0.7c0.1-0.3,0.1-0.8,0.1-1.5v-5c0-1.3,0-2.6,0.1-4c0-1.3,0.1-2.3,0.1-2.8h-0.2
				l-5.2,13h-1.5l-4.8-13.2h-0.2c0,0.5,0.1,1.5,0.1,2.9s0.1,2.8,0.1,4.3v4.8c0,0.6,0,1,0.1,1.3c0,0.3,0.1,0.5,0.2,0.6
				c0.1,0.2,0.2,0.3,0.4,0.4s0.5,0.2,0.9,0.3v0.6h-4.8v-0.6c0.5-0.1,0.9-0.3,1.1-0.5s0.3-0.4,0.4-0.7s0.1-0.8,0.1-1.4v-11.3
				c0-0.6,0-1-0.1-1.3c0-0.3-0.1-0.5-0.2-0.6c-0.1-0.2-0.2-0.3-0.4-0.4c-0.2-0.1-0.4-0.2-0.9-0.3V170h4.7l4.6,12.7l5-12.7h4.4V170.6
				z"/>
			<path class="st2" d="M97.1,185.6c-0.6,0.6-1.1,1-1.5,1.4s-1,0.6-1.5,0.8c-0.6,0.2-1.2,0.3-1.8,0.3c-1.8,0-3.2-0.5-4.1-1.6
				s-1.4-2.7-1.4-4.8c0-1.3,0.2-2.4,0.7-3.4c0.5-1,1.1-1.8,2-2.3c0.9-0.5,1.9-0.8,3-0.8c0.9,0,1.6,0.1,2.2,0.4
				c0.6,0.3,1.1,0.7,1.5,1.1c0.4,0.5,0.7,1.1,0.9,1.8c0.2,0.7,0.3,1.7,0.3,2.9h-8.2v0.2c0,1,0.1,1.9,0.3,2.6
				c0.2,0.7,0.6,1.3,1.1,1.6s1.2,0.6,2.1,0.6c0.7,0,1.4-0.1,1.9-0.4s1.1-0.7,1.7-1.3L97.1,185.6z M94.9,180.3
				c-0.1-0.9-0.2-1.7-0.4-2.3c-0.2-0.6-0.5-1.1-0.8-1.4c-0.4-0.3-0.8-0.5-1.4-0.5c-0.9,0-1.6,0.4-2.2,1.1c-0.5,0.7-0.9,1.7-0.9,3.1
				H94.9z"/>
			<path class="st2" d="M108.6,173.6c0-0.8,0-1.4,0-1.8s0-0.6-0.1-0.8c-0.1-0.2-0.1-0.4-0.2-0.5c-0.1-0.1-0.2-0.2-0.4-0.3
				c-0.2-0.1-0.5-0.2-0.9-0.2v-0.7l3.2-0.1h0.8v15.1c0,0.7,0,1.2,0,1.5c0,0.3,0.1,0.5,0.2,0.7c0.1,0.2,0.2,0.3,0.4,0.4
				c0.2,0.1,0.5,0.2,1,0.3v0.7l-3.1,0.1h-0.8l0.2-2.1l-0.2-0.1c-0.5,0.6-1,1-1.4,1.3s-0.8,0.5-1.3,0.7c-0.5,0.2-0.9,0.3-1.5,0.3
				c-1.4,0-2.5-0.5-3.3-1.6c-0.8-1.1-1.2-2.7-1.2-4.7c0-1.4,0.3-2.6,0.8-3.6s1.2-1.7,2-2.2c0.9-0.5,1.8-0.7,2.9-0.7
				c0.6,0,1.1,0,1.6,0.1c0.5,0.1,1,0.2,1.5,0.5V173.6z M108.6,180.1c0-0.7,0-1.2-0.1-1.6c-0.1-0.4-0.2-0.8-0.3-1
				c-0.1-0.3-0.3-0.5-0.6-0.7s-0.5-0.3-0.8-0.4c-0.3-0.1-0.6-0.1-1.1-0.1c-1.1,0-2,0.4-2.5,1.3s-0.9,2.2-0.9,3.8
				c0,1.7,0.2,2.9,0.7,3.8c0.5,0.9,1.2,1.3,2.2,1.3c0.4,0,0.7,0,1-0.1c0.3-0.1,0.5-0.2,0.7-0.3c0.2-0.1,0.5-0.3,0.7-0.6
				c0.3-0.3,0.4-0.5,0.6-0.7c0.1-0.2,0.2-0.4,0.3-0.7c0.1-0.3,0.1-0.6,0.1-1V180.1z"/>
			<path class="st2" d="M114.6,187.2c0.3-0.1,0.6-0.2,0.7-0.3c0.1-0.1,0.3-0.2,0.4-0.3c0.1-0.1,0.2-0.4,0.2-0.6
				c0.1-0.3,0.1-0.7,0.1-1.3v-5.7c0-0.6,0-1,0-1.3s-0.1-0.6-0.2-0.8c-0.1-0.2-0.3-0.4-0.5-0.5c-0.2-0.1-0.5-0.2-0.9-0.3v-0.7l3-0.1
				h0.8v9.3c0,0.8,0,1.3,0.1,1.6c0.1,0.3,0.2,0.5,0.4,0.7c0.2,0.2,0.5,0.3,1,0.4v0.6h-5.1V187.2z M118.4,170.2v2.5h-2.4v-2.5H118.4z
				"/>
			<path class="st2" d="M131.8,175.6v2.7h-1.7c-0.1-0.6-0.3-1-0.5-1.3c-0.2-0.3-0.5-0.6-0.8-0.7s-0.6-0.2-1.1-0.2
				c-0.6,0-1.2,0.2-1.6,0.6c-0.5,0.4-0.8,1-1.1,1.8s-0.4,1.8-0.4,2.9c0,0.7,0.1,1.4,0.2,2s0.3,1.1,0.5,1.6c0.3,0.4,0.6,0.8,1,1
				c0.4,0.2,0.9,0.4,1.6,0.4c0.6,0,1.2-0.1,1.7-0.4s1.1-0.6,1.6-1.2l0.7,0.9c-0.4,0.5-0.8,0.9-1.2,1.1s-0.7,0.5-1.1,0.7
				c-0.4,0.2-0.8,0.3-1.2,0.4c-0.4,0.1-0.8,0.1-1.2,0.1c-1.6,0-2.9-0.5-3.8-1.6c-0.9-1.1-1.3-2.7-1.3-4.7c0-1.3,0.2-2.4,0.7-3.4
				c0.5-1,1.2-1.8,2.1-2.3c0.9-0.5,1.9-0.8,3-0.8c0.7,0,1.4,0,2,0.1C130.6,175.3,131.2,175.5,131.8,175.6z"/>
			<path class="st2" d="M133.9,187.2c0.3-0.1,0.6-0.2,0.7-0.3c0.1-0.1,0.3-0.2,0.4-0.3c0.1-0.1,0.2-0.4,0.2-0.6
				c0.1-0.3,0.1-0.7,0.1-1.3v-5.7c0-0.6,0-1,0-1.3s-0.1-0.6-0.2-0.8c-0.1-0.2-0.3-0.4-0.5-0.5c-0.2-0.1-0.5-0.2-0.9-0.3v-0.7l3-0.1
				h0.8v9.3c0,0.8,0,1.3,0.1,1.6c0.1,0.3,0.2,0.5,0.4,0.7c0.2,0.2,0.5,0.3,1,0.4v0.6h-5.1V187.2z M137.6,170.2v2.5h-2.4v-2.5H137.6z
				"/>
			<path class="st2" d="M154,187.8h-5.2v-0.6c0.3-0.1,0.6-0.2,0.7-0.3c0.1-0.1,0.3-0.2,0.4-0.3c0.1-0.1,0.2-0.4,0.2-0.6
				s0.1-0.7,0.1-1.3v-3.4c0-0.6,0-1.2-0.1-1.7c0-0.5-0.1-0.9-0.2-1.2c-0.1-0.3-0.2-0.6-0.3-0.7s-0.3-0.3-0.4-0.5
				c-0.2-0.1-0.3-0.2-0.6-0.3c-0.2-0.1-0.5-0.1-0.8-0.1s-0.7,0.1-1,0.2s-0.6,0.4-1,0.7c-0.4,0.3-0.6,0.7-0.8,1s-0.2,0.7-0.2,1.1v4.9
				c0,0.8,0,1.3,0.1,1.6c0.1,0.3,0.2,0.5,0.4,0.7c0.2,0.2,0.5,0.3,1,0.4v0.6h-5.1v-0.6c0.3-0.1,0.6-0.2,0.7-0.3
				c0.1-0.1,0.3-0.2,0.4-0.3c0.1-0.1,0.2-0.4,0.2-0.6c0.1-0.3,0.1-0.7,0.1-1.3v-5.7c0-0.6,0-1,0-1.3s-0.1-0.6-0.2-0.8
				c-0.1-0.2-0.3-0.4-0.5-0.5c-0.2-0.1-0.5-0.2-0.9-0.3v-0.7l3.1-0.1h0.8l-0.1,2.1l0.2,0.1c0.6-0.7,1.2-1.1,1.6-1.4s0.8-0.5,1.2-0.6
				c0.4-0.2,0.8-0.2,1.3-0.2c0.5,0,0.9,0.1,1.3,0.2c0.4,0.1,0.7,0.3,1,0.5s0.5,0.5,0.7,0.8c0.2,0.3,0.3,0.7,0.4,1.2
				c0.1,0.5,0.1,1.1,0.1,1.8v4.9c0,0.6,0,1,0.1,1.3s0.1,0.5,0.2,0.6c0.1,0.1,0.2,0.3,0.4,0.4c0.2,0.1,0.5,0.2,0.9,0.3V187.8z"/>
			<path class="st2" d="M166.7,185.6c-0.6,0.6-1.1,1-1.5,1.4s-1,0.6-1.5,0.8c-0.6,0.2-1.2,0.3-1.8,0.3c-1.8,0-3.2-0.5-4.1-1.6
				s-1.4-2.7-1.4-4.8c0-1.3,0.2-2.4,0.7-3.4c0.5-1,1.1-1.8,2-2.3c0.9-0.5,1.9-0.8,3-0.8c0.9,0,1.6,0.1,2.2,0.4
				c0.6,0.3,1.1,0.7,1.5,1.1c0.4,0.5,0.7,1.1,0.9,1.8c0.2,0.7,0.3,1.7,0.3,2.9h-8.2v0.2c0,1,0.1,1.9,0.3,2.6
				c0.2,0.7,0.6,1.3,1.1,1.6s1.2,0.6,2.1,0.6c0.7,0,1.4-0.1,1.9-0.4s1.1-0.7,1.7-1.3L166.7,185.6z M164.5,180.3
				c-0.1-0.9-0.2-1.7-0.4-2.3c-0.2-0.6-0.5-1.1-0.8-1.4c-0.4-0.3-0.8-0.5-1.4-0.5c-0.9,0-1.6,0.4-2.2,1.1c-0.5,0.7-0.9,1.7-0.9,3.1
				H164.5z"/>
		</g>
	</g>
	<g class="st1">
		<rect id="rect7_1_" x="108.7" y="123.8" class="st4" width="247.3" height="32.6"/>
		<path class="st2" d="M133.2,132.6c-0.3,0.1-0.5,0.2-0.7,0.2c-0.1,0.1-0.2,0.2-0.3,0.3c-0.1,0.1-0.1,0.3-0.2,0.5
			c0,0.2-0.1,0.6-0.1,1.1v8.9c0,0.5,0,0.8,0,1c0,0.2,0.1,0.4,0.2,0.5s0.2,0.2,0.3,0.3s0.4,0.2,0.7,0.2v0.5h-4.3v-0.5
			c0.4-0.1,0.7-0.2,0.8-0.3s0.3-0.3,0.3-0.5s0.1-0.6,0.1-1.2v-4c0-1,0-2.1,0-3.2c0-1.1,0.1-1.8,0.1-2.2h-0.2l-4.1,10.2h-1.2
			l-3.8-10.4h-0.2c0,0.4,0.1,1.2,0.1,2.3c0,1.1,0,2.2,0,3.4v3.8c0,0.5,0,0.8,0,1c0,0.2,0.1,0.4,0.2,0.5s0.2,0.2,0.3,0.3
			s0.4,0.2,0.7,0.2v0.5h-3.8v-0.5c0.4-0.1,0.7-0.2,0.9-0.4c0.1-0.1,0.2-0.3,0.3-0.6c0-0.2,0.1-0.6,0.1-1.1v-8.9c0-0.5,0-0.8-0.1-1
			c0-0.2-0.1-0.4-0.2-0.5c-0.1-0.1-0.2-0.2-0.3-0.3s-0.4-0.2-0.7-0.2v-0.5h3.7l3.6,10l4-10h3.5V132.6z"/>
		<path class="st2" d="M142.6,146.2v-0.5c0.3-0.1,0.6-0.1,0.8-0.2c0.2-0.1,0.3-0.2,0.4-0.3c0.1-0.1,0.1-0.3,0.1-0.6
			c0-0.2,0-0.5-0.1-0.8c-0.1-0.3-0.1-0.6-0.2-0.9l-0.4-1.3h-4.8l-0.4,1c-0.2,0.5-0.3,0.9-0.4,1.2c-0.1,0.3-0.1,0.5-0.1,0.7
			c0,0.4,0.1,0.7,0.3,0.9c0.2,0.2,0.5,0.3,1,0.4v0.5h-4.4v-0.5c0.4-0.1,0.7-0.3,1-0.7c0.3-0.4,0.6-0.9,0.8-1.7l4.3-11.4h1.6
			l3.5,11.5c0.2,0.5,0.3,0.9,0.4,1.2c0.1,0.3,0.3,0.5,0.5,0.7c0.2,0.2,0.4,0.3,0.7,0.4v0.5H142.6z M138.7,140.6h4.3l-2-6.7
			L138.7,140.6z"/>
		<path class="st2" d="M152,145.2h2.7c0.3,0,0.5,0,0.7-0.1c0.2,0,0.4-0.1,0.5-0.2s0.3-0.2,0.4-0.3c0.1-0.1,0.2-0.3,0.3-0.5
			c0.1-0.2,0.2-0.5,0.3-0.8c0.1-0.3,0.2-0.8,0.3-1.4h1l-0.2,4.2h-9.3v-0.5c0.4-0.1,0.7-0.2,0.9-0.4c0.1-0.1,0.2-0.3,0.3-0.6
			c0-0.2,0.1-0.6,0.1-1.1v-8.9c0-0.5,0-0.8-0.1-1c0-0.2-0.1-0.4-0.2-0.5c-0.1-0.1-0.2-0.2-0.3-0.3s-0.4-0.2-0.7-0.2v-0.5h4.3v0.5
			c-0.3,0.1-0.5,0.2-0.6,0.2c-0.1,0.1-0.2,0.2-0.3,0.3c-0.1,0.1-0.1,0.3-0.2,0.5s-0.1,0.6-0.1,1.1V145.2z"/>
		<path class="st2" d="M167.2,146.2v-0.5c0.3-0.1,0.6-0.1,0.8-0.2c0.2-0.1,0.3-0.2,0.4-0.3c0.1-0.1,0.1-0.3,0.1-0.6
			c0-0.2,0-0.5-0.1-0.8c-0.1-0.3-0.1-0.6-0.2-0.9l-0.4-1.3h-4.8l-0.4,1c-0.2,0.5-0.3,0.9-0.4,1.2c-0.1,0.3-0.1,0.5-0.1,0.7
			c0,0.4,0.1,0.7,0.3,0.9c0.2,0.2,0.5,0.3,1,0.4v0.5H159v-0.5c0.4-0.1,0.7-0.3,1-0.7c0.3-0.4,0.6-0.9,0.8-1.7l4.3-11.4h1.6l3.5,11.5
			c0.2,0.5,0.3,0.9,0.4,1.2c0.1,0.3,0.3,0.5,0.5,0.7c0.2,0.2,0.4,0.3,0.7,0.4v0.5H167.2z M163.2,140.6h4.3l-2-6.7L163.2,140.6z"/>
		<path class="st2" d="M175.6,140.2l-2.9-5.3c-0.3-0.6-0.6-1.1-0.8-1.4c-0.2-0.3-0.4-0.5-0.5-0.7c-0.2-0.2-0.4-0.3-0.6-0.4v-0.5h4.4
			v0.5c-0.6,0.1-1,0.4-1,0.8c0,0.2,0,0.4,0.1,0.7c0.1,0.2,0.3,0.6,0.5,1.1l2.1,3.9l2-3.6c0.3-0.5,0.5-0.9,0.6-1.2
			c0.1-0.3,0.2-0.6,0.2-0.9c0-0.2-0.1-0.4-0.2-0.6c-0.1-0.1-0.4-0.2-0.7-0.3v-0.5h3.9v0.5c-0.3,0.1-0.5,0.2-0.7,0.4
			s-0.4,0.4-0.7,0.7c-0.2,0.3-0.5,0.8-1,1.6l-2.9,4.9v3.3c0,0.4,0,0.7,0.1,1c0,0.2,0.1,0.4,0.2,0.6c0.1,0.1,0.2,0.3,0.4,0.3
			c0.2,0.1,0.4,0.2,0.7,0.2v0.5h-4.7v-0.5c0.3-0.1,0.6-0.1,0.7-0.2c0.2-0.1,0.3-0.2,0.4-0.3c0.1-0.1,0.2-0.3,0.2-0.6s0.1-0.6,0.1-1
			V140.2z"/>
		<path class="st2" d="M184.6,142.9c0.1,0.6,0.3,1.1,0.6,1.4s0.5,0.6,0.9,0.8c0.4,0.2,0.9,0.3,1.4,0.3c0.8,0,1.4-0.2,1.9-0.6
			c0.4-0.4,0.6-1,0.6-1.8c0-0.5-0.1-1-0.3-1.3c-0.2-0.4-0.5-0.7-0.9-1c-0.4-0.3-1-0.7-1.9-1.1c-0.8-0.4-1.4-0.8-1.9-1.2
			c-0.5-0.4-0.8-0.8-1-1.2c-0.2-0.4-0.3-0.9-0.3-1.5c0-0.8,0.2-1.4,0.5-2c0.4-0.6,0.9-1,1.6-1.3c0.7-0.3,1.5-0.5,2.4-0.5
			c0.5,0,1,0,1.5,0.1c0.5,0.1,1.1,0.2,1.9,0.4v2.8h-1c-0.2-0.6-0.4-1.1-0.6-1.4c-0.2-0.3-0.5-0.6-0.8-0.7c-0.3-0.1-0.7-0.2-1.3-0.2
			c-0.4,0-0.8,0.1-1.2,0.2c-0.4,0.2-0.6,0.4-0.8,0.7s-0.3,0.7-0.3,1.2c0,0.5,0.1,0.9,0.3,1.2c0.2,0.3,0.4,0.7,0.8,0.9
			c0.4,0.3,0.9,0.6,1.7,1c0.9,0.4,1.6,0.9,2,1.2c0.5,0.4,0.9,0.8,1.1,1.3c0.3,0.5,0.4,1.1,0.4,1.7c0,0.7-0.1,1.3-0.3,1.8
			c-0.2,0.5-0.5,0.9-0.9,1.2c-0.4,0.3-0.9,0.5-1.4,0.7c-0.6,0.1-1.2,0.2-1.8,0.2c-1.1,0-2.3-0.2-3.7-0.5v-2.8H184.6z"/>
		<path class="st2" d="M197.3,143.6c0,0.5,0,0.8,0,1c0,0.2,0.1,0.4,0.2,0.5s0.2,0.2,0.3,0.3s0.4,0.2,0.7,0.2v0.5h-4.4v-0.5
			c0.4-0.1,0.7-0.2,0.9-0.4c0.1-0.1,0.2-0.3,0.3-0.6c0-0.2,0.1-0.6,0.1-1.1v-8.9c0-0.5,0-0.8-0.1-1c0-0.2-0.1-0.4-0.2-0.5
			c-0.1-0.1-0.2-0.2-0.3-0.3s-0.4-0.2-0.7-0.2v-0.5h4.4v0.5c-0.3,0.1-0.5,0.2-0.7,0.2c-0.1,0.1-0.2,0.2-0.3,0.3
			c-0.1,0.1-0.1,0.3-0.2,0.5c0,0.2-0.1,0.6-0.1,1.1V143.6z"/>
		<path class="st2" d="M208,146.2v-0.5c0.3-0.1,0.6-0.1,0.8-0.2c0.2-0.1,0.3-0.2,0.4-0.3c0.1-0.1,0.1-0.3,0.1-0.6
			c0-0.2,0-0.5-0.1-0.8c-0.1-0.3-0.1-0.6-0.2-0.9l-0.4-1.3h-4.8l-0.4,1c-0.2,0.5-0.3,0.9-0.4,1.2c-0.1,0.3-0.1,0.5-0.1,0.7
			c0,0.4,0.1,0.7,0.3,0.9c0.2,0.2,0.5,0.3,1,0.4v0.5h-4.4v-0.5c0.4-0.1,0.7-0.3,1-0.7c0.3-0.4,0.6-0.9,0.8-1.7l4.3-11.4h1.6
			l3.5,11.5c0.2,0.5,0.3,0.9,0.4,1.2c0.1,0.3,0.3,0.5,0.5,0.7c0.2,0.2,0.4,0.3,0.7,0.4v0.5H208z M204,140.6h4.3l-2-6.7L204,140.6z"
			/>
		<path class="st2" d="M222.5,140.6c0.2,0.4,0.5,0.8,0.6,1.1c0.2,0.3,0.3,0.7,0.5,1h0.1c0-0.4-0.1-1.3-0.1-2.5c0-1.3,0-2.4,0-3.4
			v-2.2c0-0.5,0-0.8,0-1c0-0.2-0.1-0.4-0.1-0.5s-0.2-0.2-0.3-0.3s-0.3-0.2-0.7-0.2v-0.5h3.7v0.5c-0.3,0.1-0.5,0.2-0.7,0.2
			c-0.1,0.1-0.2,0.2-0.3,0.3c-0.1,0.1-0.1,0.3-0.2,0.5c0,0.2-0.1,0.6-0.1,1.1v11.6h-1.3l-5.8-9.6c-0.4-0.6-0.6-1-0.8-1.3
			c-0.2-0.3-0.3-0.5-0.4-0.8h-0.2c0,0.5,0.1,1.5,0.1,2.9c0,1.4,0,2.8,0,4.1v2.1c0,0.5,0,0.8,0,1c0,0.2,0.1,0.4,0.2,0.5
			s0.2,0.2,0.3,0.3s0.4,0.2,0.7,0.2v0.5h-3.8v-0.5c0.4-0.1,0.7-0.2,0.9-0.4c0.1-0.1,0.2-0.3,0.3-0.6c0-0.2,0.1-0.6,0.1-1.1v-8.9
			c0-0.5,0-0.8-0.1-1c0-0.2-0.1-0.4-0.2-0.5c-0.1-0.1-0.2-0.2-0.3-0.3s-0.4-0.2-0.7-0.2v-0.5h3.2L222.5,140.6z"/>
		<path class="st2" d="M236.2,145.5c0,0.9-0.1,1.7-0.3,2.3s-0.6,1.1-1.1,1.5c-0.5,0.4-1.2,0.7-2.2,1l-0.3-0.9c0.6-0.2,1-0.5,1.3-0.7
			c0.3-0.2,0.4-0.5,0.5-0.9c0.1-0.4,0.2-0.8,0.2-1.4v-11.6c0-0.6,0-1-0.1-1.2c-0.1-0.2-0.2-0.4-0.3-0.5c-0.1-0.1-0.4-0.2-0.8-0.3
			v-0.5h4.4v0.5c-0.3,0.1-0.5,0.2-0.7,0.2c-0.1,0.1-0.2,0.2-0.3,0.3c-0.1,0.1-0.1,0.3-0.2,0.5s-0.1,0.6-0.1,1.1V145.5z"/>
		<path class="st2" d="M245.3,146.3c-0.8,0-1.6-0.1-2.3-0.4c-0.7-0.3-1.3-0.7-1.7-1.3c-0.5-0.6-0.9-1.3-1.1-2.2
			c-0.3-0.9-0.4-2-0.4-3.2c0-1.5,0.2-2.9,0.7-4c0.5-1.1,1.1-1.9,2-2.5c0.9-0.6,1.9-0.9,3-0.9c1.2,0,2.3,0.3,3.1,0.8
			c0.8,0.5,1.5,1.3,1.9,2.4c0.4,1,0.6,2.3,0.6,3.8c0,1.6-0.2,3-0.7,4.1c-0.5,1.1-1.2,1.9-2,2.5S246.4,146.3,245.3,146.3z
			 M241.9,138.9c0,2.1,0.3,3.7,0.9,4.8s1.5,1.7,2.7,1.7c0.8,0,1.4-0.2,1.9-0.7c0.5-0.5,0.9-1.2,1.2-2.1c0.3-0.9,0.4-2,0.4-3.2
			c0-1.5-0.2-2.7-0.5-3.7c-0.3-1-0.7-1.7-1.3-2.2c-0.5-0.4-1.1-0.7-1.8-0.7c-0.6,0-1.2,0.1-1.6,0.4c-0.4,0.3-0.8,0.7-1.1,1.2
			s-0.5,1.2-0.6,1.9C241.9,137.2,241.9,138,241.9,138.9z"/>
		<path class="st2" d="M263.9,141.3c0,0.8-0.1,1.4-0.2,1.9c-0.1,0.5-0.3,1-0.6,1.4c-0.2,0.4-0.5,0.7-0.9,0.9s-0.8,0.4-1.3,0.6
			c-0.5,0.1-1.1,0.2-1.8,0.2c-0.8,0-1.5-0.1-2.1-0.3c-0.6-0.2-1.1-0.5-1.5-0.9c-0.4-0.4-0.7-0.9-0.8-1.5c-0.2-0.6-0.3-1.3-0.3-2.2
			v-6.8c0-0.5,0-0.9-0.1-1.1c0-0.2-0.1-0.3-0.2-0.4s-0.2-0.2-0.3-0.3c-0.1-0.1-0.4-0.2-0.7-0.3v-0.5h4.3v0.5
			c-0.4,0.1-0.7,0.2-0.8,0.3s-0.3,0.3-0.3,0.5c-0.1,0.2-0.1,0.6-0.1,1.2v7.3c0,0.7,0.1,1.2,0.2,1.7c0.1,0.5,0.3,0.8,0.6,1.1
			c0.3,0.3,0.6,0.4,0.9,0.5c0.4,0.1,0.8,0.2,1.3,0.2c0.5,0,0.9-0.1,1.3-0.3c0.4-0.2,0.7-0.4,0.9-0.8c0.2-0.3,0.4-0.8,0.5-1.3
			s0.1-1.2,0.1-2v-6.5c0-0.6,0-1-0.1-1.2c-0.1-0.2-0.2-0.4-0.3-0.5c-0.1-0.1-0.4-0.2-0.8-0.3v-0.5h4.1v0.5c-0.4,0.1-0.7,0.2-0.8,0.3
			s-0.3,0.3-0.3,0.5s-0.1,0.6-0.1,1.2V141.3z"/>
		<path class="st2" d="M270.4,140v3.5c0,0.5,0,0.9,0.1,1.1s0.1,0.4,0.2,0.5c0.1,0.1,0.2,0.2,0.3,0.3s0.4,0.2,0.7,0.2v0.5h-4.4v-0.5
			c0.4-0.1,0.7-0.2,0.9-0.4c0.1-0.1,0.2-0.3,0.3-0.6c0-0.2,0.1-0.6,0.1-1.1v-8.9c0-0.5,0-0.8-0.1-1c0-0.2-0.1-0.4-0.2-0.5
			c-0.1-0.1-0.2-0.2-0.3-0.3s-0.4-0.2-0.7-0.2v-0.5h5.1c1.6,0,2.8,0.3,3.6,0.9c0.8,0.6,1.2,1.5,1.2,2.7c0,0.9-0.3,1.7-0.8,2.4
			c-0.5,0.7-1.3,1.2-2.3,1.5v0.1c0.4,0.2,0.8,0.4,1.1,0.7c0.3,0.3,0.6,0.8,1,1.5l0.9,1.7c0.3,0.5,0.5,0.9,0.7,1.1
			c0.2,0.3,0.4,0.5,0.6,0.6c0.2,0.1,0.5,0.2,0.8,0.3v0.5h-2.9c-0.3-0.4-0.5-0.8-0.7-1.2c-0.2-0.4-0.5-0.8-0.7-1.3L274,142
			c-0.3-0.5-0.5-0.9-0.7-1.2c-0.2-0.2-0.3-0.4-0.5-0.5c-0.1-0.1-0.3-0.2-0.5-0.2c-0.2,0-0.4-0.1-0.8-0.1H270.4z M270.4,133v6.1h1.2
			c0.6,0,1.1,0,1.5-0.1s0.7-0.2,1-0.5c0.3-0.2,0.6-0.6,0.8-1c0.2-0.4,0.3-1,0.3-1.6c0-0.7-0.1-1.2-0.3-1.6c-0.2-0.4-0.6-0.8-1-1
			c-0.5-0.2-1.1-0.3-1.8-0.3C271.3,133,270.8,133,270.4,133z"/>
		<path class="st2" d="M288.7,140.6c0.2,0.4,0.5,0.8,0.6,1.1c0.2,0.3,0.3,0.7,0.5,1h0.1c0-0.4-0.1-1.3-0.1-2.5c0-1.3,0-2.4,0-3.4
			v-2.2c0-0.5,0-0.8,0-1c0-0.2-0.1-0.4-0.1-0.5s-0.2-0.2-0.3-0.3c-0.1-0.1-0.3-0.2-0.7-0.2v-0.5h3.7v0.5c-0.3,0.1-0.5,0.2-0.7,0.2
			c-0.1,0.1-0.2,0.2-0.3,0.3c-0.1,0.1-0.1,0.3-0.2,0.5c0,0.2-0.1,0.6-0.1,1.1v11.6h-1.3l-5.8-9.6c-0.4-0.6-0.6-1-0.8-1.3
			s-0.3-0.5-0.4-0.8h-0.2c0,0.5,0.1,1.5,0.1,2.9c0,1.4,0,2.8,0,4.1v2.1c0,0.5,0,0.8,0,1c0,0.2,0.1,0.4,0.2,0.5s0.2,0.2,0.3,0.3
			c0.1,0.1,0.4,0.2,0.7,0.2v0.5h-3.8v-0.5c0.4-0.1,0.7-0.2,0.9-0.4c0.1-0.1,0.2-0.3,0.3-0.6c0-0.2,0.1-0.6,0.1-1.1v-8.9
			c0-0.5,0-0.8-0.1-1s-0.1-0.4-0.2-0.5c-0.1-0.1-0.2-0.2-0.3-0.3s-0.4-0.2-0.7-0.2v-0.5h3.2L288.7,140.6z"/>
		<path class="st2" d="M301.4,146.2v-0.5c0.3-0.1,0.6-0.1,0.8-0.2c0.2-0.1,0.3-0.2,0.4-0.3c0.1-0.1,0.1-0.3,0.1-0.6
			c0-0.2,0-0.5-0.1-0.8c-0.1-0.3-0.1-0.6-0.2-0.9l-0.4-1.3h-4.8l-0.4,1c-0.2,0.5-0.3,0.9-0.4,1.2s-0.1,0.5-0.1,0.7
			c0,0.4,0.1,0.7,0.3,0.9c0.2,0.2,0.5,0.3,1,0.4v0.5h-4.4v-0.5c0.4-0.1,0.7-0.3,1-0.7c0.3-0.4,0.6-0.9,0.8-1.7l4.3-11.4h1.6
			l3.5,11.5c0.2,0.5,0.3,0.9,0.4,1.2c0.1,0.3,0.3,0.5,0.5,0.7c0.2,0.2,0.4,0.3,0.7,0.4v0.5H301.4z M297.4,140.6h4.3l-2-6.7
			L297.4,140.6z"/>
		<path class="st2" d="M310.7,145.2h2.7c0.3,0,0.5,0,0.7-0.1c0.2,0,0.4-0.1,0.5-0.2c0.1-0.1,0.3-0.2,0.4-0.3
			c0.1-0.1,0.2-0.3,0.3-0.5c0.1-0.2,0.2-0.5,0.3-0.8c0.1-0.3,0.2-0.8,0.3-1.4h1l-0.2,4.2h-9.3v-0.5c0.4-0.1,0.7-0.2,0.9-0.4
			c0.1-0.1,0.2-0.3,0.3-0.6c0-0.2,0.1-0.6,0.1-1.1v-8.9c0-0.5,0-0.8-0.1-1c0-0.2-0.1-0.4-0.2-0.5c-0.1-0.1-0.2-0.2-0.3-0.3
			s-0.4-0.2-0.7-0.2v-0.5h4.3v0.5c-0.3,0.1-0.5,0.2-0.6,0.2c-0.1,0.1-0.2,0.2-0.3,0.3s-0.1,0.3-0.2,0.5c0,0.2-0.1,0.6-0.1,1.1V145.2
			z"/>
		<path class="st2" d="M329.1,146.3c-0.8,0-1.6-0.1-2.3-0.4c-0.7-0.3-1.3-0.7-1.7-1.3c-0.5-0.6-0.9-1.3-1.1-2.2
			c-0.3-0.9-0.4-2-0.4-3.2c0-1.5,0.2-2.9,0.7-4c0.5-1.1,1.1-1.9,2-2.5c0.9-0.6,1.9-0.9,3-0.9c1.2,0,2.3,0.3,3.1,0.8
			c0.8,0.5,1.5,1.3,1.9,2.4c0.4,1,0.6,2.3,0.6,3.8c0,1.6-0.2,3-0.7,4.1c-0.5,1.1-1.2,1.9-2,2.5S330.3,146.3,329.1,146.3z
			 M325.7,138.9c0,2.1,0.3,3.7,0.9,4.8s1.5,1.7,2.7,1.7c0.8,0,1.4-0.2,1.9-0.7s0.9-1.2,1.2-2.1c0.3-0.9,0.4-2,0.4-3.2
			c0-1.5-0.2-2.7-0.5-3.7c-0.3-1-0.7-1.7-1.3-2.2c-0.5-0.4-1.1-0.7-1.8-0.7c-0.6,0-1.2,0.1-1.6,0.4s-0.8,0.7-1.1,1.2
			c-0.3,0.5-0.5,1.2-0.6,1.9C325.8,137.2,325.7,138,325.7,138.9z"/>
		<path class="st2" d="M346.8,132.1v3.1h-1c-0.2-0.5-0.3-0.8-0.4-1.1c-0.1-0.3-0.3-0.5-0.4-0.7c-0.2-0.2-0.3-0.3-0.5-0.3
			c-0.2-0.1-0.5-0.1-0.8-0.1h-3v5.6h2.1c0.3,0,0.5,0,0.7-0.1s0.3-0.3,0.4-0.5s0.2-0.6,0.3-1.1h1v4.4h-1c-0.1-0.5-0.2-0.8-0.3-1.1
			c-0.1-0.2-0.3-0.4-0.4-0.5c-0.2-0.1-0.4-0.1-0.7-0.1h-2.1v4c0,0.4,0,0.7,0.1,1c0,0.2,0.1,0.4,0.2,0.6c0.1,0.1,0.3,0.3,0.4,0.3
			c0.2,0.1,0.4,0.1,0.7,0.2v0.5h-4.6v-0.5c0.4-0.1,0.7-0.2,0.9-0.4c0.1-0.1,0.2-0.3,0.3-0.6c0-0.2,0.1-0.6,0.1-1.1v-8.9
			c0-0.5,0-0.8-0.1-1s-0.1-0.4-0.2-0.5c-0.1-0.1-0.2-0.2-0.3-0.3s-0.4-0.2-0.7-0.2v-0.5H346.8z"/>
	</g>
</g>
</svg>
