<?xml version="1.0" encoding="utf-8"?>
<!-- Generator: Adobe Illustrator 22.1.0, SVG Export Plug-In . SVG Version: 6.00 Build 0)  -->
<svg version="1.1" id="Layer_1" xmlns="http://www.w3.org/2000/svg" xmlns:xlink="http://www.w3.org/1999/xlink" x="0px" y="0px"
	 viewBox="0 0 490.4 271.5" style="enable-background:new 0 0 490.4 271.5;" xml:space="preserve">
<style type="text/css">
	.st0{fill:#0081C3;}
	.st1{fill:#2B2171;}
	.st2{enable-background:new    ;}
	.st3{fill:#FFFFFF;}
	.st4{fill:#57BFEA;}
</style>
<rect y="101.3" class="st0" width="490.4" height="170.2"/>
<rect y="0" class="st1" width="490.4" height="101.3"/>
<g class="st2">
	<path class="st3" d="M18.8,58.6l0.1-1.2c1.5-0.2,2.4-0.5,2.8-0.9c0.3-0.3,0.5-1,0.6-2.2l0.2-6.3l0.3-6.4c0-0.4,0-0.6,0-0.7
		c0-1.7-0.1-2.6-0.3-2.9c-0.2-0.3-0.9-0.5-2.3-0.8c-0.3-0.1-0.6-0.1-0.8-0.2c0-0.3,0-0.5,0-0.7v-0.5c0.4,0,0.9-0.1,1.5-0.1l5.2,0.2
		c0.1,0,0.3,0,0.5,0l0.8,0c0.2,0.2,0.4,0.6,0.6,0.9c0.4,0.9,1,2.1,1.7,3.8l0.2,0.5l2.7,6c0.1,0.1,0.2,0.3,0.3,0.6
		c0.2,0.4,0.4,0.8,0.6,1.2c0.2,0.4,0.4,0.8,0.6,1.3c0.2,0.5,0.4,0.9,0.6,1.2c0.2-0.3,0.3-0.6,0.5-0.9c0.5-1.1,0.9-2.1,1.4-3
		c0.8-1.6,1.8-4,3.2-7.3c0.2-0.5,0.6-1.3,1-2.4c0.5-1.1,0.8-1.6,0.8-1.7c0.1-0.1,0.3-0.1,0.6-0.1c0.1,0,0.3,0,0.5,0
		c0.6,0,1.3-0.1,2.2-0.1c1.2,0,2.2,0,3-0.1c0.7-0.1,1.2-0.1,1.3-0.1c0.1,0,0.3,0,0.4,0c0,0.2,0,0.3,0,0.4l0,0.5c0,0.1,0,0.3,0,0.5
		c-1.1,0.2-2,0.4-2.7,0.7c-0.5,0.2-0.7,0.5-0.7,0.9V39l0.3,5.4c0,0.5,0.1,2.9,0.3,7.4c0,1,0.1,2.2,0.2,3.8c0,0.2,0,0.3,0,0.4
		c0,0.3,0.1,0.5,0.2,0.5c0.1,0.1,1.2,0.4,3.2,1c0,0.2,0,0.3,0,0.4c0,0.2,0,0.5,0,0.7c-0.3,0-1.1-0.1-2.4-0.2
		c-1.3-0.1-2.5-0.2-3.6-0.2c-1.7,0-3.4,0.1-5,0.2c-0.2,0-0.4,0-0.6,0.1l0-1.2c0.5-0.2,1.1-0.3,1.9-0.5c0.6-0.1,0.9-0.3,1.1-0.5
		c0.2-0.2,0.2-0.8,0.2-1.9c0-0.4,0-0.7,0-1c-0.1-1.2-0.1-3-0.1-5.1l-0.3-6.2c0-0.9-0.1-1.5-0.1-1.8l-4.4,10.1
		c-0.1,0.2-0.3,0.6-0.5,1c-0.3,0.6-0.5,1-0.5,1.2c-0.9,2.2-1.5,3.8-1.9,5c-0.1,0.3-0.2,0.7-0.4,1.1l-1.4,0l-1-2.7
		c-0.3-0.7-0.8-1.8-1.4-3.2c-0.4-0.8-0.7-1.5-0.9-2c-0.1-0.2-0.2-0.4-0.2-0.5l-0.2-0.4c0-0.1,0-0.1-0.1-0.2L25.9,44l-1.6-3.4
		l-0.1,8.3L24,54.3c0,0.9,0.2,1.5,0.5,1.9s1.1,0.7,2.2,1l0.8,0.2v1.3c-0.7,0-1.4-0.1-2.2-0.1c-0.8-0.1-1.8-0.1-3.1-0.1
		C22,58.4,20.8,58.5,18.8,58.6z"/>
	<path class="st3" d="M50.7,58.6l0-1.2c0.2-0.1,0.6-0.2,1.2-0.3c0.9-0.2,1.5-0.3,1.6-0.5c0.2-0.1,0.4-0.5,0.7-1l3.6-9.3l4.2-11
		c0.4,0,0.8,0,1.1,0h0.8l0.2,0.3l3.1,7.3c0.7,1.5,1.3,3,1.9,4.5s1,2.6,1.4,3.6c0.2,0.6,0.6,1.4,1,2.5c0.2,0.6,0.5,1.4,1,2.3
		c0.2,0.5,0.4,0.8,0.5,0.9c0.2,0.2,0.6,0.3,1,0.4c0.5,0.1,1,0.2,1.5,0.4c0.1,0.4,0.1,0.7,0.1,0.9c0,0.1,0,0.2,0,0.4
		c-0.9,0-1.8,0-2.9-0.1c-1-0.1-2-0.1-2.8-0.1c-0.9,0-1.6,0-2,0l-3,0.2l-0.9,0c0-0.4,0-0.8,0.1-1.2l2-0.4c0.6-0.2,0.9-0.3,1-0.4
		c0.1-0.1,0.2-0.3,0.2-0.4c0-0.2,0-0.3-0.1-0.5L66.4,54L65,50.6l-6.7,0c-0.3,0.6-0.8,1.9-1.6,4.1c-0.2,0.6-0.3,1-0.3,1.3
		c0,0.3,0.1,0.5,0.2,0.7c0.3,0.2,0.8,0.4,1.6,0.5c0.1,0,0.5,0.1,1.3,0.2c0,0.4,0,0.7,0,0.9c0,0.1,0,0.3,0,0.4
		c-0.7,0-2.5-0.1-5.2-0.3l-0.7,0.1c-0.9,0.1-1.7,0.2-2.5,0.2H50.7z M59,48.7c2.7,0,4.4,0.1,4.9,0.1l0.4,0c-0.4-1-0.8-2.3-1.4-3.7
		c-0.6-1.4-1-2.5-1.4-3.2L59,48.7z"/>
	<path class="st3" d="M75.7,57.1c0.4-0.1,0.9-0.2,1.5-0.3c0.7-0.1,1.1-0.1,1.2-0.1c0.5,0,0.8-0.1,0.9-0.2c0.1-0.3,0.1-0.5,0.1-0.7
		l0-2.3l0.1-2.3v-1.5l0-1.7l0-1.8l0.1-3.9l0-1.8v-0.2c-0.1-1.2-0.2-1.9-0.2-2c-0.1-0.1-0.4-0.3-1-0.5c-0.1,0-0.3-0.1-0.7-0.3
		c-0.3-0.1-0.6-0.2-0.8-0.2c-0.4-0.1-0.7-0.2-0.9-0.4c0-0.3,0-0.5,0-0.7c0-0.1,0-0.2,0-0.4c0.1-0.1,0.2-0.1,0.3-0.1
		c0.3,0,1.3,0,3.1,0.1l2.5,0l1.9,0c0.8,0,1.9,0,3.1-0.1c0.4,0,0.6,0,0.7,0c0.2,0,0.3,0,0.4,0.1c0.1,0.1,0.1,0.4,0.1,0.7
		c0,0.3-0.1,0.5-0.2,0.6c-0.1,0.1-0.3,0.2-0.8,0.2l-2.2,0.5c-0.1,0-0.2,0.1-0.3,0.1c0,0.1-0.1,0.2-0.1,0.2l0,0.5l-0.1,1.1V40v0.2
		c0,0.1,0,0.4,0,1c0,0.2,0,0.3,0,0.5c0,0.2,0,0.5,0,1c0,0.7,0.1,1.3,0.1,1.9c0,0.6,0,1.3-0.1,2.1c0,0.3,0,0.7,0,1.1l-0.1,8.4
		c0,0.4,0.1,0.6,0.2,0.7l1.7,0.1l1,0l1.1,0c1.9,0,3.4-0.2,4.5-0.6c0.8-0.3,1.3-0.7,1.6-1c0.4-0.4,0.7-0.7,1-1.1
		c0.3-0.4,0.5-1.1,0.9-2h0.6c0.3,0,0.6,0,1,0.1v0.5c0,0.8-0.1,2.3-0.3,4.4c-0.1,0.8-0.2,1.4-0.2,1.5c-0.3,0-0.4,0.1-0.5,0.1h-0.7
		l-0.9,0c-0.1,0-0.8,0-2.1-0.1c-0.2,0-1.4-0.1-3.4-0.1s-4-0.1-5.9-0.1l-3.6,0.1c-1.4,0-2.7,0.1-3.9,0.2h-0.3c-0.1,0-0.2,0-0.3,0
		c0-0.1,0-0.2,0-0.3C75.5,57.7,75.6,57.4,75.7,57.1z"/>
	<path class="st3" d="M97.3,58.6l0-1.2c0.2-0.1,0.6-0.2,1.2-0.3c0.9-0.2,1.5-0.3,1.6-0.5c0.2-0.1,0.4-0.5,0.7-1l3.6-9.3l4.2-11
		c0.4,0,0.8,0,1.1,0h0.8l0.2,0.3l3.1,7.3c0.7,1.5,1.3,3,1.9,4.5s1,2.6,1.4,3.6c0.2,0.6,0.6,1.4,1,2.5c0.2,0.6,0.5,1.4,1,2.3
		c0.2,0.5,0.4,0.8,0.5,0.9c0.2,0.2,0.6,0.3,1,0.4c0.5,0.1,1,0.2,1.5,0.4c0.1,0.4,0.1,0.7,0.1,0.9c0,0.1,0,0.2,0,0.4
		c-0.9,0-1.8,0-2.9-0.1c-1-0.1-2-0.1-2.8-0.1c-0.9,0-1.6,0-2,0l-3,0.2l-0.9,0c0-0.4,0-0.8,0.1-1.2l2-0.4c0.6-0.2,0.9-0.3,1-0.4
		c0.1-0.1,0.2-0.3,0.2-0.4c0-0.2,0-0.3-0.1-0.5L113,54l-1.4-3.5l-6.7,0c-0.3,0.6-0.8,1.9-1.6,4.1c-0.2,0.6-0.3,1-0.3,1.3
		c0,0.3,0.1,0.5,0.2,0.7c0.3,0.2,0.8,0.4,1.6,0.5c0.1,0,0.5,0.1,1.3,0.2c0,0.4,0,0.7,0,0.9c0,0.1,0,0.3,0,0.4
		c-0.7,0-2.5-0.1-5.2-0.3l-0.7,0.1c-0.9,0.1-1.7,0.2-2.5,0.2H97.3z M105.6,48.7c2.7,0,4.4,0.1,4.9,0.1l0.4,0c-0.4-1-0.8-2.3-1.4-3.7
		c-0.6-1.4-1-2.5-1.4-3.2L105.6,48.7z"/>
	<path class="st3" d="M120.5,35.9c0.3-0.1,1.1-0.1,2.2-0.1l0.2,0c0.3,0,0.5,0.1,0.6,0.1l0.2,0c0.2,0,0.7,0.1,1.4,0.1
		c1.5,0.1,2.6,0.2,3.5,0.2c0.9,0,1.9-0.1,2.8-0.2c0.1,0,0.2,0,0.3,0l0.1,0c0.1,0.2,0.1,0.3,0.1,0.4l0,0.9c-0.3,0.1-0.6,0.2-1,0.2
		l-0.8,0.1c-0.3,0.1-0.7,0.1-1.2,0.2l-0.1,0.1l0,0.2c0.4,0.8,1.2,2.1,2.5,3.9c0.3,0.6,0.7,1.1,1,1.6c0.1,0.1,0.4,0.7,1,1.6
		c0.1,0.1,0.1,0.2,0.2,0.3c0.1,0.2,0.2,0.3,0.3,0.5c0.2,0.3,0.3,0.5,0.4,0.6c0.2,0.4,0.4,0.7,0.6,0.9l1.8-2.6
		c0.6-0.8,1.4-1.9,2.3-3.4l0.1-0.1l1.5-2.7c0.2-0.3,0.4-0.6,0.4-0.8c0-0.1,0-0.2-0.1-0.3c-0.2-0.1-0.3-0.2-0.4-0.2
		c0,0-0.3,0-0.7-0.1c-0.2,0-0.5-0.1-0.7-0.1s-0.4-0.1-0.5-0.1c0-0.2-0.1-0.6-0.1-1.3l3.6,0.2c0.1,0,0.3,0,0.4,0.1h0.8l0.3,0
		c0.4-0.1,0.9-0.1,1.5-0.1c0.2,0,0.3,0,0.5-0.1l0,1.3l-0.2,0.1c-1,0.2-1.7,0.4-2,0.7c-0.5,0.4-1.2,1.4-2.1,2.9l-2.3,3.4
		c-1.4,1.9-2.3,3.1-2.7,3.8c-0.1,0.2-0.2,0.4-0.3,0.6v0.5l0,1.5v0.4c0,0.3-0.1,0.6-0.1,1l0.1,4.5c0,0.1,0.1,0.2,0.2,0.2
		c0.2,0,0.5,0.1,1.1,0.2c1.1,0.1,1.8,0.2,1.9,0.3c0.1,0.1,0.1,0.2,0.1,0.4c0,0.1,0,0.2,0,0.4c0,0.1,0,0.3,0,0.5l-2,0l-1.9-0.2
		l-1.3-0.1l-2,0.1h-1.5c-0.2,0-0.4,0-0.8,0.1c-0.6,0.1-1,0.1-1.3,0.1l-1.2,0c0-0.2,0-0.4,0-0.6c0-0.1,0-0.3,0-0.6l3.2-0.7
		c0.1,0,0.3-0.1,0.4-0.2c0-0.5,0-0.9,0-1c0-1.8,0-3,0-3.7c0-0.7,0-1,0-1.1v-0.4c0-0.7-0.4-1.6-1.2-2.6c-0.3-0.4-0.5-0.7-0.6-0.8
		l-3.5-5.3l-1.6-2.6c-0.1-0.1-0.4-0.6-1.1-1.4c-0.2-0.2-0.4-0.3-0.6-0.4c-0.1,0-0.7-0.2-1.6-0.4c-0.1-0.1-0.1-0.2-0.1-0.3
		c0-0.1,0-0.2,0-0.3C120.5,36.3,120.5,36.1,120.5,35.9z"/>
	<path class="st3" d="M160.4,36.3c0.1,0.4,0.2,1,0.3,1.8c0.1,1.2,0.2,2.2,0.2,2.8c0,0.2,0,0.4-0.1,0.7l-0.2,0.1l-1.3-0.1l-0.2,0
		c-0.5-1.6-1-2.6-1.6-3.2c-0.9-0.9-1.9-1.4-3.2-1.4c-1.2,0-2.1,0.3-2.7,0.9c-0.7,0.6-1,1.4-1,2.3c0,0.8,0.3,1.5,1,2.2
		c0.7,0.7,2.1,1.4,4.2,2c0.7,0.2,1.6,0.6,2.6,1c1,0.5,1.8,1,2.3,1.5c0.7,0.7,1.2,1.4,1.5,2.1c0.3,0.7,0.4,1.5,0.4,2.5
		c0,1.1-0.2,2.2-0.6,3.3c-0.2,0.6-0.6,1.1-1.1,1.6c-0.4,0.4-0.9,0.8-1.6,1.2c-0.7,0.5-1.5,0.8-2.3,1c-0.8,0.2-1.8,0.3-3.1,0.3
		c-0.8,0-1.8-0.1-2.9-0.4L149,58c-0.6-0.2-1-0.3-1.1-0.4c-0.1,0-0.1-0.2-0.2-0.3V57c0-0.1,0-0.9-0.1-2.4c0-0.8,0-1.3,0-1.6v-0.7
		l1.6,0c0.6,1.3,0.9,2.1,1.1,2.4c0.4,0.6,0.8,1.1,1.2,1.5c0.4,0.4,1,0.7,1.6,0.9c0.6,0.2,1.3,0.3,2,0.3c0.6,0,1.3-0.1,2.1-0.4
		s1.4-0.7,1.8-1.3c0.5-0.6,0.7-1.3,0.7-2c0-0.9-0.4-1.7-1.2-2.4c-0.5-0.5-1.8-1.1-4-1.8c-2.2-0.8-3.7-1.4-4.5-2
		c-0.8-0.6-1.5-1.4-2-2.4c-0.5-1-0.7-2-0.7-2.9c0-1.9,0.7-3.5,2-4.8c1.3-1.3,3.3-2,5.9-2c0.6,0,1.4,0.1,2.5,0.3
		C158.4,35.7,159.3,35.9,160.4,36.3z"/>
	<path class="st3" d="M165.4,58.6v-1.3c0.2-0.1,0.6-0.2,1.2-0.3c0.8-0.2,1.3-0.4,1.7-0.6c0.2-0.4,0.3-0.9,0.3-1.5l0-2.1l0-4l0-1
		c0.1-2.3,0.1-3.5,0.1-3.6l0-2.3l0.1-1l-0.1-2l0-0.8c0-0.1-0.1-0.3-0.1-0.6c-0.5-0.2-1.3-0.4-2.3-0.4c-0.3,0-0.5,0-0.6-0.1l0-1.6
		l5,0.2c0.6,0,1,0,1.2,0c0.7,0,1.8,0,3.3-0.1c0.9-0.1,1.4-0.1,1.6-0.1c0,0.2,0,0.4,0,0.6c0,0.2,0,0.5,0,0.8c-0.5,0.2-1,0.3-1.6,0.5
		c-0.6,0.1-1.1,0.3-1.5,0.4c-0.1,0.3-0.1,0.7-0.1,1.3c0,0.5,0,0.9,0.1,1.2c0,2-0.1,3.5-0.1,4.6l0,4.7l-0.1,2.4l0.1,3.5l-0.1,0.7
		c0,0.1,0,0.2,0.1,0.4c0.7,0.2,1.4,0.3,1.9,0.3c0.1,0,0.5,0.1,1.1,0.1c0,0.4,0.1,0.6,0.1,0.9c0,0.1,0,0.3,0,0.6c-0.2,0-0.3,0-0.4,0
		c-0.4,0-0.6,0-0.7,0c-0.1,0-0.2,0-0.5-0.1c-0.2,0-0.9-0.1-2.3-0.2l-3.1,0c-0.6,0-1.5,0.1-2.7,0.2C166.1,58.6,165.6,58.6,165.4,58.6
		z"/>
	<path class="st3" d="M177.8,58.6l0-1.2c0.2-0.1,0.6-0.2,1.2-0.3c0.9-0.2,1.5-0.3,1.6-0.5c0.2-0.1,0.4-0.5,0.7-1l3.6-9.3l4.2-11
		c0.4,0,0.8,0,1.1,0h0.8l0.2,0.3l3.1,7.3c0.7,1.5,1.3,3,1.9,4.5s1,2.6,1.4,3.6c0.2,0.6,0.6,1.4,1,2.5c0.2,0.6,0.5,1.4,1,2.3
		c0.2,0.5,0.4,0.8,0.5,0.9c0.2,0.2,0.6,0.3,1,0.4c0.5,0.1,1,0.2,1.5,0.4c0.1,0.4,0.1,0.7,0.1,0.9c0,0.1,0,0.2,0,0.4
		c-0.9,0-1.8,0-2.9-0.1c-1-0.1-2-0.1-2.8-0.1c-0.9,0-1.6,0-2,0l-3,0.2l-0.9,0c0-0.4,0-0.8,0.1-1.2l2-0.4c0.6-0.2,0.9-0.3,1-0.4
		c0.1-0.1,0.2-0.3,0.2-0.4c0-0.2,0-0.3-0.1-0.5l-0.7-1.7l-1.4-3.5l-6.7,0c-0.2,0.6-0.8,1.9-1.6,4.1c-0.2,0.6-0.3,1-0.3,1.3
		c0,0.3,0.1,0.5,0.2,0.7c0.3,0.2,0.8,0.4,1.6,0.5c0.1,0,0.5,0.1,1.3,0.2c0,0.4,0,0.7,0,0.9c0,0.1,0,0.3,0,0.4
		c-0.7,0-2.5-0.1-5.2-0.3l-0.7,0.1c-0.9,0.1-1.7,0.2-2.5,0.2H177.8z M186.1,48.7c2.7,0,4.4,0.1,4.9,0.1l0.4,0
		c-0.4-1-0.8-2.3-1.4-3.7c-0.6-1.4-1-2.5-1.4-3.2L186.1,48.7z"/>
	<path class="st3" d="M202.1,37.2l-0.1-1.2h1.5l0.5,0c0.7,0,1.2-0.1,1.5-0.1c0.1,0,0.6,0,1.2,0c0.2,0,0.3,0,0.4,0c0.1,0,0.5,0,1.1,0
		s1,0,1.1,0c0.1,0,0.3,0,0.5,0c1.8,1.6,3.3,3.1,4.4,4.2c1.1,1.2,5.3,5.3,12.5,12.5v-0.4l-0.1-2c0-1.2-0.1-2.1-0.1-2.8
		c-0.1-0.7-0.1-1.5-0.1-2.5s-0.1-1.8-0.1-2.6c-0.1-1.5-0.2-2.4-0.2-2.7c0-0.8-0.1-1.2-0.2-1.4c-0.2-0.3-0.8-0.5-1.7-0.6
		c-0.6-0.1-1.1-0.2-1.4-0.4l0-1l0.5-0.1l3.5-0.1l3.9-0.1c0.3,0,0.5,0,0.7,0l0,1.1c-0.3,0.1-0.5,0.2-0.8,0.3
		c-0.8,0.2-1.2,0.3-1.3,0.4c-0.6,0.3-0.9,0.5-1,0.6c-0.1,0.1-0.2,0.4-0.2,0.7c0,0.1,0,0.3,0,0.7c0,0.2,0,0.7,0,1.5
		c0,1.7,0.1,3,0.1,4c0,0.3,0,0.7,0.1,1.1l0.2,6.2c0,0.4,0,0.7,0,0.9v2.2l0.1,0.9l-0.1,1c0,0.5,0.1,0.8,0.1,0.9v0.9l-2,0.1l-2.1-2.2
		l-4.3-4.2l-3-3l-2.2-2.3c-1.4-1.4-2.7-2.7-3.9-3.7l-2.9-2.6l0.2,6.6c0,0.4,0,0.8,0,1.2l0,1.3l0.1,2.3c0,1,0.1,2,0.2,3.1
		c0,0.3,0.1,0.5,0.1,0.6c0,0.1,0.1,0.3,0.2,0.5c0.5,0.2,1.5,0.3,3,0.4c0.1,0,0.3,0.1,0.5,0.1l0.1,1.4l-0.7,0c-0.4,0-1.6-0.1-3.6-0.3
		c-1.9,0-3.1,0.1-3.7,0.1c-0.6,0-1,0.1-1,0.1c-0.1,0-0.3,0-0.6-0.1c0-0.3,0-0.5,0-0.7c0-0.1,0-0.3,0-0.6c0.3-0.1,0.6-0.1,0.8-0.1
		c0.1,0,0.3,0,0.7,0c1,0,1.6-0.1,1.8-0.2c0.2-0.1,0.3-0.5,0.3-1.2c0.1-1.9,0.1-3,0.1-3.4v-1l0-5.7l-0.1-3.6c0-1.4-0.1-2.3-0.3-2.8
		c-0.1-0.3-0.2-0.5-0.4-0.7c-0.4-0.4-0.9-0.7-1.4-1C204.2,37.5,203.4,37.4,202.1,37.2z"/>
	<path class="st3" d="M243.2,63.2c0.5,0.8,0.9,1.3,1.3,1.6c0.2,0.1,0.4,0.1,0.5,0.1c0.3,0,0.5-0.1,0.7-0.4c0.3-0.4,0.4-1.1,0.4-2v-1
		c0-0.6,0-1.2,0.1-1.8c0-0.3,0-0.6,0-0.8c0-0.1,0-0.5,0-1.2l0-1.3l-0.1-6.6c0-0.4,0-0.6,0-0.8c0-0.5-0.1-0.9-0.1-1.4l0-3.8l-0.1-3.2
		l-0.1-1.2c0-0.9,0-1.4,0-1.6c-0.3-0.1-1.1-0.2-2.4-0.3H243l-0.5-0.1c-0.1,0-0.2,0-0.3-0.1l-0.1-1.5c1.2,0,2.1,0,3,0.1
		c0.8,0.1,1.9,0.1,3.3,0.1c1.2,0,2.5-0.1,3.9-0.2c0.3,0,0.5-0.1,0.7-0.1c0.2,0,0.5,0,0.9,0.1c0,0.3,0,0.5,0,0.6c0,0.2,0,0.4-0.1,0.7
		c-0.9,0.1-1.4,0.2-1.7,0.2c-0.6,0-1.1,0.1-1.4,0.2c0,0.3,0,0.5,0,0.5c0,1.1,0,1.8,0,2.1c0,0.2,0,0.9,0,2v1.5l0.1,2.3l0,1.8l0.1,1.8
		l0,1.9l0,1.4c0,2.6-0.1,4.6-0.3,6.1s-0.6,2.6-1.1,3.5c-0.7,1.3-1.3,2.2-1.9,2.8c-0.9,0.9-1.8,1.5-2.7,1.8s-1.8,0.5-2.6,0.5
		c-0.8,0-1.5-0.3-2.1-0.9s-0.9-1.2-0.9-2c0-0.6,0.2-1.1,0.6-1.6s0.9-0.6,1.5-0.6C242,62.2,242.6,62.5,243.2,63.2z"/>
	<path class="st3" d="M256.5,46.9c0-1.5,0.3-2.9,0.8-4.4c0.4-1.1,1-2,1.7-2.9c0.7-0.9,1.7-1.7,2.8-2.4c1.1-0.7,2.3-1.2,3.4-1.5
		c1.2-0.3,2.5-0.5,3.9-0.5c2.4,0,4.6,0.5,6.4,1.4c1.8,0.9,3.2,2.2,4.2,3.7c1.3,2,2,4.2,2,6.4c0,3.3-1.1,6.2-3.4,8.6
		c-2.3,2.4-5.4,3.6-9.4,3.6c-1,0-1.9-0.1-2.8-0.2c-0.7-0.1-1.2-0.2-1.7-0.4c-0.9-0.3-1.4-0.5-1.5-0.5c-1.3-0.7-2.3-1.5-3.1-2.2
		c-0.8-0.8-1.4-1.6-2-2.6c-0.3-0.5-0.6-1.5-1-2.9C256.7,49.2,256.5,48.1,256.5,46.9z M268.5,37.1c-1,0-1.9,0.2-2.7,0.7
		c-0.8,0.5-1.4,1-1.8,1.6c-0.7,1-1.1,2-1.4,3.2c-0.3,1.2-0.4,2.6-0.4,4.2c0,1,0,1.7,0.1,2.2c0,0.1,0.1,0.4,0.1,0.7
		c0.1,0.9,0.2,1.5,0.4,1.9c0.5,1.5,0.9,2.4,1.1,2.8c0.4,0.6,0.9,1.2,1.6,1.8c0.4,0.3,0.9,0.6,1.5,0.8s1.3,0.4,2,0.4
		c1.3,0,2.4-0.3,3.5-0.9c1.1-0.6,2-1.6,2.6-3s1-3.3,1-5.6c0-0.9-0.1-2.2-0.2-3.8l-0.1-0.3c0-0.1-0.1-0.3-0.2-0.7
		c-0.4-1.9-1.3-3.4-2.5-4.4S270.4,37.1,268.5,37.1z"/>
	<path class="st3" d="M284.2,37.3l-0.1-1.4c0.2,0,0.4,0,0.7,0c0.6,0,1.2,0,1.9,0.1c1.6,0.1,2.5,0.1,2.7,0.1c0.9,0,1.9,0,2.8-0.1
		c0.9,0,1.7-0.1,2.4-0.1c0.7,0,1.2,0,1.4,0l0,0.2l0,1v0.1c-0.7,0.1-1.3,0.1-2,0.1c-0.7,0-1.1,0.1-1.3,0.4c-0.1,0.2-0.2,0.9-0.2,2.1
		c0,0.4,0,0.7,0,0.9l0,0.6l0,1.7l0.1,1.4l-0.1,3l0.2,4.4c0.1,1.3,0.3,2.3,0.8,3.2c0.4,0.6,0.9,1.1,1.6,1.5c1,0.5,2,0.7,2.9,0.7
		c1.1,0,2.2-0.1,3.2-0.4c0.6-0.2,1.1-0.4,1.6-0.8c0.5-0.4,0.9-0.7,1.1-1c0.4-0.6,0.7-1.3,0.9-1.8c0.2-0.8,0.3-2,0.3-3.6
		c0-2.8-0.2-6-0.5-9.6l-0.1-0.9c0-0.7-0.2-1.2-0.4-1.4c-0.4-0.4-0.8-0.5-1.3-0.5l-1.7,0l-0.2-0.1l0-1.4h1.4l3.4,0.2
		c1.1,0,2.2-0.1,3.2-0.2l0.3,0c0.1,0.4,0.1,0.7,0.1,0.8c0,0.1,0,0.3-0.1,0.5c-0.4,0.1-0.9,0.2-1.4,0.2c-0.8,0.1-1.2,0.2-1.3,0.3
		c-0.2,0.1-0.2,0.4-0.2,0.7c0,0.2,0,0.5,0.1,0.9c0,0.3,0.1,0.8,0.1,1.5c0,0.4,0,0.7,0,1c0,0.2,0,0.5,0,0.7c0,0.8,0.1,1.7,0.1,2.6
		l0.2,3.6c0,2.4-0.1,4-0.2,4.8c-0.2,0.8-0.4,1.5-0.7,1.9c-0.4,0.7-1.1,1.4-1.9,1.9c-0.8,0.6-1.8,1.1-3,1.4c-1.2,0.3-2.6,0.5-4.2,0.5
		c-1.8,0-3.4-0.2-4.7-0.7c-1.3-0.5-2.3-1.1-3-1.9c-0.7-0.8-1.1-1.8-1.4-3.1c-0.2-0.9-0.3-2.1-0.3-3.7v-8.4c0-2-0.1-3.1-0.3-3.4
		c-0.3-0.4-1.1-0.6-2.4-0.6C284.6,37.3,284.4,37.3,284.2,37.3z"/>
	<path class="st3" d="M312.5,57.5c0.3-0.2,0.8-0.3,1.4-0.4c0.6-0.1,1.1-0.2,1.6-0.4c0.1-0.2,0.1-0.4,0.1-0.5c0-0.2,0-0.7,0-1.7
		l0-3.9l0.1-2.1l0-1.6l0-1c0-1.3,0.1-2.5,0.1-3.6c0-2.4,0-4-0.1-4.7l-1-0.2c-1-0.1-1.6-0.1-1.9-0.2l0-1.1l0.1-0.2
		c0.6-0.1,1.1-0.1,1.6-0.1c0.3,0,0.8,0,1.6,0c0.8,0.1,1.3,0.1,1.4,0.1l0.9-0.1l2.2-0.1c1.4-0.1,2.8-0.2,4.4-0.2
		c2.4,0,4.3,0.6,5.7,1.8c1.4,1.2,2.1,2.6,2.1,4.2c0,1.2-0.4,2.3-1.2,3.2s-1.9,1.7-3.5,2.2c0.1,0.2,0.3,0.5,0.6,0.9
		c0.5,0.7,0.9,1.3,1.2,1.8l2.8,4.6c0.7,1.2,1.2,1.9,1.4,2.1c0.2,0.2,0.7,0.4,1.3,0.7c0.5,0.2,0.9,0.4,1.2,0.6
		c0.1,0.2,0.1,0.4,0.1,0.5c0,0.1,0,0.2,0,0.4h-0.5l-0.4,0l-0.9-0.1h-0.7c-0.4-0.1-0.8-0.1-1.4-0.1l-1.8,0c-0.1,0-0.5,0-1.2,0.1
		c-0.3,0-0.6,0.1-0.8,0.1l-0.6-1.2c-0.5-0.9-0.8-1.5-1-2c-0.5-1.1-1.4-3-2.7-5.4c-0.6-1.2-1-1.8-1.2-2c-0.4-0.2-1-0.4-1.8-0.4
		c-0.2,0-0.6,0-1.2,0c0,0.3-0.1,0.7-0.1,1.2l0.1,3.9l-0.1,3.3c0.3,0.2,0.8,0.4,1.3,0.5c0.9,0.2,1.7,0.4,2.4,0.7c0,0.6,0,1-0.1,1.3
		c-0.2,0-0.4,0-0.4,0l-0.7,0c-2.5-0.2-4-0.3-4.5-0.3c-0.3,0-0.5,0-0.7,0l-2.4,0.2c-0.7,0.1-1.4,0.1-2,0.1h-0.8c0-0.3,0-0.5,0-0.6
		C312.4,57.9,312.4,57.8,312.5,57.5z M320.4,46.1c0.6,0,1,0,1.2,0c2,0,3.4-0.4,4.2-1.1c0.8-0.7,1.3-1.7,1.3-2.9
		c0-0.7-0.1-1.4-0.3-2.1c-0.2-0.7-0.5-1.1-0.8-1.5c-0.4-0.5-1-0.8-1.7-1c-0.5-0.2-1.3-0.3-2.5-0.3c-0.5,0-1,0-1.4,0.1l0,0.3l0,2.4
		l-0.1,1.4l0,1.9c0,0.5,0,1.2-0.1,2.1V46.1z"/>
	<path class="st3" d="M336.4,37.2l-0.1-1.2h1.5l0.5,0c0.7,0,1.2-0.1,1.5-0.1c0.1,0,0.6,0,1.2,0c0.2,0,0.3,0,0.4,0c0.1,0,0.5,0,1.1,0
		s1,0,1.1,0c0.1,0,0.3,0,0.5,0c1.8,1.6,3.3,3.1,4.4,4.2c1.1,1.2,5.3,5.3,12.5,12.5v-0.4l-0.1-2c0-1.2-0.1-2.1-0.1-2.8
		c-0.1-0.7-0.1-1.5-0.1-2.5s-0.1-1.8-0.1-2.6c-0.1-1.5-0.2-2.4-0.2-2.7c0-0.8-0.1-1.2-0.2-1.4c-0.2-0.3-0.8-0.5-1.7-0.6
		c-0.6-0.1-1.1-0.2-1.4-0.4l0-1l0.5-0.1l3.5-0.1l3.9-0.1c0.3,0,0.5,0,0.7,0l0,1.1c-0.3,0.1-0.5,0.2-0.8,0.3
		c-0.8,0.2-1.2,0.3-1.3,0.4c-0.6,0.3-0.9,0.5-1,0.6c-0.1,0.1-0.2,0.4-0.2,0.7c0,0.1,0,0.3,0,0.7c0,0.2,0,0.7,0,1.5
		c0,1.7,0.1,3,0.1,4c0,0.3,0,0.7,0.1,1.1l0.2,6.2c0,0.4,0,0.7,0,0.9v2.2l0.1,0.9l-0.1,1c0,0.5,0.1,0.8,0.1,0.9v0.9l-2,0.1l-2.1-2.2
		l-4.3-4.2l-3-3l-2.2-2.3c-1.4-1.4-2.7-2.7-3.9-3.7l-2.9-2.6l0.2,6.6c0,0.4,0,0.8,0,1.2l0,1.3l0.1,2.3c0,1,0.1,2,0.2,3.1
		c0,0.3,0.1,0.5,0.1,0.6c0,0.1,0.1,0.3,0.2,0.5c0.5,0.2,1.5,0.3,3,0.4c0.1,0,0.3,0.1,0.5,0.1l0.1,1.4l-0.7,0c-0.4,0-1.6-0.1-3.6-0.3
		c-1.9,0-3.1,0.1-3.7,0.1c-0.6,0-1,0.1-1,0.1c-0.1,0-0.3,0-0.6-0.1c0-0.3,0-0.5,0-0.7c0-0.1,0-0.3,0-0.6c0.3-0.1,0.6-0.1,0.8-0.1
		c0.1,0,0.3,0,0.7,0c1,0,1.6-0.1,1.8-0.2c0.2-0.1,0.3-0.5,0.3-1.2c0.1-1.9,0.1-3,0.1-3.4v-1l0-5.7l-0.1-3.6c0-1.4-0.1-2.3-0.3-2.8
		c-0.1-0.3-0.2-0.5-0.4-0.7c-0.4-0.4-0.9-0.7-1.4-1C338.4,37.5,337.6,37.4,336.4,37.2z"/>
	<path class="st3" d="M365.5,58.6l0-1.2c0.2-0.1,0.6-0.2,1.2-0.3c0.9-0.2,1.5-0.3,1.6-0.5c0.2-0.1,0.4-0.5,0.7-1l3.6-9.3l4.2-11
		c0.4,0,0.8,0,1.1,0h0.8l0.2,0.3l3.1,7.3c0.7,1.5,1.3,3,1.9,4.5s1,2.6,1.4,3.6c0.2,0.6,0.6,1.4,1,2.5c0.2,0.6,0.5,1.4,1,2.3
		c0.2,0.5,0.4,0.8,0.5,0.9c0.2,0.2,0.6,0.3,1,0.4c0.5,0.1,1,0.2,1.5,0.4c0.1,0.4,0.1,0.7,0.1,0.9c0,0.1,0,0.2,0,0.4
		c-0.9,0-1.8,0-2.9-0.1c-1-0.1-2-0.1-2.8-0.1c-0.9,0-1.6,0-2,0l-3,0.2l-0.9,0c0-0.4,0-0.8,0.1-1.2l2-0.4c0.6-0.2,0.9-0.3,1-0.4
		c0.1-0.1,0.2-0.3,0.2-0.4c0-0.2,0-0.3-0.1-0.5l-0.7-1.7l-1.4-3.5l-6.7,0c-0.3,0.6-0.8,1.9-1.6,4.1c-0.2,0.6-0.3,1-0.3,1.3
		c0,0.3,0.1,0.5,0.2,0.7c0.3,0.2,0.8,0.4,1.6,0.5c0.1,0,0.5,0.1,1.3,0.2c0,0.4,0,0.7,0,0.9c0,0.1,0,0.3,0,0.4
		c-0.7,0-2.5-0.1-5.2-0.3l-0.7,0.1c-0.9,0.1-1.7,0.2-2.5,0.2H365.5z M373.8,48.7c2.7,0,4.4,0.1,4.9,0.1l0.4,0
		c-0.4-1-0.8-2.3-1.4-3.7c-0.6-1.4-1-2.5-1.4-3.2L373.8,48.7z"/>
	<path class="st3" d="M390.5,57.1c0.4-0.1,0.9-0.2,1.5-0.3c0.7-0.1,1.1-0.1,1.2-0.1c0.5,0,0.8-0.1,0.9-0.2c0.1-0.3,0.1-0.5,0.1-0.7
		l0-2.3l0.1-2.3v-1.5l0-1.7l0-1.8l0.1-3.9l0-1.8v-0.2c-0.1-1.2-0.2-1.9-0.2-2c-0.1-0.1-0.4-0.3-1-0.5c-0.1,0-0.3-0.1-0.7-0.3
		c-0.3-0.1-0.6-0.2-0.8-0.2c-0.4-0.1-0.7-0.2-0.9-0.4c0-0.3,0-0.5,0-0.7c0-0.1,0-0.2,0-0.4c0.1-0.1,0.2-0.1,0.3-0.1
		c0.3,0,1.3,0,3.1,0.1l2.5,0l1.9,0c0.8,0,1.9,0,3.1-0.1c0.4,0,0.6,0,0.7,0c0.2,0,0.3,0,0.4,0.1c0.1,0.1,0.1,0.4,0.1,0.7
		c0,0.3-0.1,0.5-0.2,0.6c-0.1,0.1-0.3,0.2-0.8,0.2l-2.2,0.5c-0.1,0-0.2,0.1-0.3,0.1c0,0.1-0.1,0.2-0.1,0.2l0,0.5l-0.1,1.1V40v0.2
		c0,0.1,0,0.4,0,1c0,0.2,0,0.3,0,0.5c0,0.2,0,0.5,0,1c0,0.7,0.1,1.3,0.1,1.9c0,0.6,0,1.3-0.1,2.1c0,0.3,0,0.7,0,1.1l-0.1,8.4
		c0,0.4,0.1,0.6,0.2,0.7l1.7,0.1l1,0l1.1,0c1.9,0,3.4-0.2,4.5-0.6c0.8-0.3,1.3-0.7,1.6-1c0.4-0.4,0.7-0.7,1-1.1
		c0.3-0.4,0.5-1.1,0.9-2h0.6c0.3,0,0.6,0,1,0.1v0.5c0,0.8-0.1,2.3-0.3,4.4c-0.1,0.8-0.2,1.4-0.2,1.5c-0.3,0-0.4,0.1-0.5,0.1h-0.7
		l-0.9,0c-0.1,0-0.8,0-2.1-0.1c-0.2,0-1.4-0.1-3.4-0.1s-4-0.1-5.9-0.1l-3.6,0.1c-1.4,0-2.7,0.1-3.9,0.2h-0.3c-0.1,0-0.2,0-0.3,0
		c0-0.1,0-0.2,0-0.3C390.3,57.7,390.4,57.4,390.5,57.1z"/>
	<path class="st3" d="M423.2,46.9c0-1.5,0.3-2.9,0.8-4.4c0.4-1.1,1-2,1.7-2.9c0.7-0.9,1.7-1.7,2.8-2.4c1.1-0.7,2.3-1.2,3.4-1.5
		c1.2-0.3,2.5-0.5,3.9-0.5c2.4,0,4.6,0.5,6.4,1.4c1.8,0.9,3.2,2.2,4.2,3.7c1.3,2,2,4.2,2,6.4c0,3.3-1.1,6.2-3.4,8.6
		c-2.3,2.4-5.4,3.6-9.4,3.6c-1,0-1.9-0.1-2.8-0.2c-0.7-0.1-1.2-0.2-1.7-0.4c-0.9-0.3-1.4-0.5-1.5-0.5c-1.3-0.7-2.3-1.5-3.1-2.2
		c-0.8-0.8-1.4-1.6-2-2.6c-0.3-0.5-0.6-1.5-1-2.9C423.3,49.2,423.2,48.1,423.2,46.9z M435.2,37.1c-1,0-1.9,0.2-2.7,0.7
		c-0.8,0.5-1.4,1-1.8,1.6c-0.7,1-1.1,2-1.4,3.2c-0.3,1.2-0.4,2.6-0.4,4.2c0,1,0,1.7,0.1,2.2c0,0.1,0.1,0.4,0.1,0.7
		c0.1,0.9,0.2,1.5,0.4,1.9c0.5,1.5,0.9,2.4,1.1,2.8c0.4,0.6,0.9,1.2,1.6,1.8c0.4,0.3,0.9,0.6,1.5,0.8s1.3,0.4,2,0.4
		c1.3,0,2.4-0.3,3.5-0.9c1.1-0.6,2-1.6,2.6-3s1-3.3,1-5.6c0-0.9-0.1-2.2-0.2-3.8l-0.1-0.3c0-0.1-0.1-0.3-0.2-0.7
		c-0.4-1.9-1.3-3.4-2.5-4.4S437,37.1,435.2,37.1z"/>
	<path class="st3" d="M451.2,58.7l0-1.3c0.3-0.1,0.7-0.1,1.3-0.3c0.6-0.1,1.2-0.3,1.8-0.4l0.3-0.2c0.1-0.5,0.2-1,0.2-1.4V55
		l-0.1-4.1l0-1.7l-0.1-2.5l0-3l-0.2-5.9c-0.2-0.2-0.7-0.3-1.7-0.5c-0.2,0-0.6-0.1-1-0.3l-0.4-0.1v-1.2l2.3,0.1
		c1.4,0.1,3.5,0.2,6.2,0.2c1.4,0,2.8,0,4.3-0.1l0.3,0l0.9,0l0.4,0h0.7l3.2-0.1c0.1,0,0.3,0,0.6,0c0.2,0,0.4,0,0.6-0.1
		c0.1,0.4,0.1,0.7,0.1,1.1l0.3,3.3c0,0.4,0,0.6-0.1,0.8c-0.4,0.1-0.7,0.1-0.9,0.1c-0.2,0-0.4-0.1-0.6-0.2c-0.1-0.1-0.2-0.3-0.4-0.8
		c-0.5-1.2-0.9-1.9-1.3-2.1s-1.3-0.3-2.9-0.3l-2.4,0.1c-1,0-1.8,0.1-2.4,0.2c-0.1,0-0.3,0.1-0.6,0.2c-0.2,0.3-0.2,0.6-0.2,1l0.1,2.1
		l-0.1,2.4c0,1.2,0,2,0.1,2.3c0.1,0.1,0.2,0.1,0.3,0.1l1.2,0h2.1c0.5,0,1.2-0.1,2.2-0.2c0.7-0.1,1.1-0.2,1.2-0.3
		c0.3-0.2,0.5-0.4,0.6-0.7s0.2-1,0.3-2.1c0.1,0,0.2,0,0.5,0c0.2,0,0.3,0,0.3,0c0.1,0,0.4,0,0.8,0.1l-0.1,2.8c0,0.6,0,1.1-0.1,1.6
		l0,0.4c0,0.1,0,1,0,2.6c0,0.1,0,0.3,0,0.5c-0.2,0-0.4,0.1-0.5,0.1c-0.1,0-0.3,0-0.7-0.1c-0.1-0.2-0.2-0.5-0.4-1
		c-0.3-0.9-0.6-1.5-0.9-1.6c-0.6-0.3-2.3-0.4-5.3-0.4c-0.4,0-0.9,0-1.5,0.1c-0.1,0.5-0.1,1.1-0.1,1.7l0.1,5.3c0,1,0.1,1.6,0.3,1.8
		c0.1,0.1,0.6,0.3,1.3,0.4l0.4,0c0.5,0,1,0.1,1.4,0.2l0.5,0.1c0,0.3,0.1,0.5,0.1,0.7c0,0.2,0,0.4-0.1,0.7l-0.3,0l-0.5,0l-2.5-0.1
		c-0.3,0-1.6,0-3.9,0c-0.6,0-1.3,0-1.9,0.1c-0.9,0.1-1.4,0.2-1.5,0.2C452,58.7,451.5,58.7,451.2,58.7z"/>
</g>
<g class="st2">
	<path class="st3" d="M20.4,175.8c0.8-0.6,2.3-1.1,4.5-1.4c1.7-0.1,2.7-0.3,3-0.5c0.2-0.2,0.4-0.4,0.5-0.7c0.4-1.1,0.7-4.2,0.9-9.3
		c0.2-6.6,0.6-15.3,1.2-26.2c0.4-8.3,0.6-13.5,0.6-15.6v-1.2c-1.9-0.5-5-1-9.1-1.5c-0.3-0.5-0.4-0.8-0.4-1.1c0-0.2,0.1-0.4,0.3-0.8
		c0.5-0.2,0.8-0.3,1-0.3c0.2,0,0.7,0.1,1.4,0.2c1.3,0.2,3.1,0.3,5.4,0.3c0.7,0,2-0.1,3.8-0.2c1.3-0.1,2-0.2,2.1-0.2
		c0.4,0,0.9,0.1,1.5,0.3c0.3,0.3,0.5,0.6,0.6,0.9l1.7,4.3l11.3,29l4.7,12.2c3.7-8.5,6.5-16,8.6-22.6c0.1-0.5,0.3-0.9,0.5-1.3
		c0.2-0.5,0.5-1.1,0.7-1.8c0.2-0.6,1.1-3.1,2.6-7.4c0.6-1.7,1.1-3.2,1.5-4.4c1.5-4.9,2.4-7.8,2.7-8.5c0.5-0.2,0.9-0.4,1.3-0.4
		c0.4,0,1,0,1.6,0.1c1.5,0.1,3.9,0.1,7.3,0.1c2.1,0,3.8,0,5.1-0.1c0.1,0.3,0.1,0.6,0.1,0.7c0,0.2,0,0.5-0.1,0.9
		c-0.8,0.5-1.9,0.8-3.1,0.9c-2.4,0.2-3.9,0.4-4.5,0.6c-0.6,0.3-1,0.6-1.2,1.1c-0.2,0.4-0.3,1.9-0.5,4.3l0,2.1l0,2.2
		c0,4.6,0.1,12.4,0.3,23.3l0,9.1l0,5.8c0,2.3,0.1,3.6,0.3,4c0.2,0.4,0.7,0.8,1.6,1.2c1.4,0.6,3.8,1.1,7,1.7c0.2,0.2,0.3,0.4,0.3,0.6
		c0,0.3,0,0.6,0,0.9h-1.8c-1.6,0-3.3-0.1-5.1-0.2c-1.8-0.1-2.8-0.2-3-0.2c-5.4,0-9.1,0.1-10.8,0.2c-1.1,0.1-1.8,0.2-2.1,0.2
		c-0.2,0-0.4-0.1-0.6-0.2v-0.6c0-0.3,0-0.6,0.1-0.9c0.9-0.4,2.1-0.7,3.6-0.9c1.7-0.5,2.9-1.1,3.7-1.7c0.2-1.2,0.4-3.6,0.4-7.2
		l-0.1-9.4c0-1,0-2.9,0.1-5.7c0.1-2.8,0.1-7.3,0.1-13.6c0-5-0.1-8.7-0.3-11.3c-0.4,1.1-1.3,3.4-2.7,7l-0.6,1.8l-0.1,0.3l-5.9,16.2
		l-2.1,6.2l-2.7,7.6c-1.2,3.5-2.2,6.6-3.1,9.3c-0.4,1.2-0.7,2.2-0.9,2.9l-0.9,0c-3-10.2-6.6-20.6-10.7-31.3
		c-4.2-10.7-7.1-17.8-8.7-21.2c-0.2,1.3-0.5,5.2-0.7,11.6c-0.4,7.8-0.5,16.3-0.5,25.7c0,2.9,0.2,6.2,0.6,9.9c0.1,1,0.5,1.8,1.2,2.3
		c0.7,0.5,2.4,0.8,5.1,0.9c1.1,0,2.1,0.1,3,0.3c0.2,0.5,0.3,0.8,0.3,1c0,0.2-0.1,0.4-0.2,0.8l-12.4-0.5c-0.9,0-2.3,0.1-4.2,0.2
		c-1.1,0.1-2.6,0.1-4.6,0.2L20.4,175.8z"/>
	<path class="st3" d="M114.4,152.5l-16,0.1l-3,0c-1.2,0-2.5,0.1-3.7,0.2c-0.2,0.9-0.4,1.6-0.4,1.9l0,0.5v0.5l0,2.3
		c0,1.9,0.5,4.2,1.5,6.9c1,2.7,2.5,4.8,4.4,6.2c1.9,1.4,4.3,2.2,7.1,2.3c1.5-0.1,2.7-0.3,3.6-0.6c0.9-0.3,2.2-1.1,3.8-2.4l2.9-2.7
		l0.2,1.9c0,0.2,0,0.4,0,0.7c-1.2,1.8-2.7,3.3-4.5,4.6c-1.8,1.3-3.7,2.3-5.6,2.9c-0.9,0.3-2.4,0.4-4.5,0.4c-1.9,0-3.7-0.4-5.6-1.3
		c-2.7-1.4-4.8-3.5-6.4-6.5c-1.6-3-2.3-6.7-2.3-10.9c0-1.4,0.2-3.1,0.7-5.2c0.4-2.1,1.2-4.4,2.4-6.8c0.8-1.6,1.7-3,2.8-4
		c1.6-1.5,3-2.5,4.2-3.1c1.7-0.8,3.7-1.3,6-1.3c2.5,0,4.5,0.5,6.1,1.6c2.1,1.4,3.7,3.2,4.8,5.4c1,2.2,1.6,4.2,1.6,6V152.5z
		 M92.2,150.8H94c1.4,0,5.4-0.2,12.1-0.7c1.1-0.1,1.7-0.2,2-0.4c0.5-0.6,0.7-1.1,0.7-1.6c0-1-0.3-2-0.8-3.3
		c-0.5-1.2-1.3-2.2-2.4-2.8c-1.1-0.7-2.4-1-3.8-1c-3.1,0-5.5,1.3-7.4,4C92.9,147.1,92.2,149,92.2,150.8z"/>
	<path class="st3" d="M140.9,143.3l0-1.3l0-5.4l0-10.2c0-2.8-0.3-4.6-0.8-5.4c-0.5-0.8-2.1-1.6-4.7-2.4c-0.2-0.1-0.5-0.2-0.9-0.3
		v-0.5c0-0.3,0-0.6,0.1-1c3.6-0.4,6.7-1.2,9.3-2.2l2,0c0.1,2.1,0.2,4.4,0.2,7l-0.2,17.8l0.3,20.1l-0.1,10.7c0,2.2,0.1,3.4,0.4,3.7
		c0.5,0.6,1.7,0.9,3.5,1c0.4,0,0.9,0,1.5,0.1v0.8c0,0.2,0,0.4,0,0.7c-0.8,0.2-1.7,0.4-2.5,0.6l-5.8,1.3c-0.8,0.2-1.5,0.3-2,0.3v-4.4
		c-0.5,0.2-1.2,0.5-2.1,0.9c-4.1,2-7.9,3.1-11.4,3.1c-2.1,0-4.2-0.8-6.4-2.4c-2.2-1.6-3.8-3.8-5-6.6c-1.2-2.8-1.8-5.7-1.8-8.7
		c0-2.7,0.4-5.2,1.2-7.6c0.8-2.4,1.8-4.4,3-6c0.8-1,1.9-2.1,3.4-3.1s2.7-1.7,3.6-2c2.4-0.7,3.9-1.1,4.7-1.1c3.6,0,6.5,0.6,8.8,1.9
		C140,142.9,140.5,143.2,140.9,143.3z M140.9,171.9c0.1-2.1,0.2-6.3,0.2-12.8c0-5.5-0.2-8.9-0.7-10.3c-0.4-1.4-1.5-2.8-3.3-4.1
		c-1.7-1.3-3.7-1.9-5.9-1.9c-3,0-5.6,1.4-7.7,4.1c-2.1,2.7-3.2,6.8-3.2,12.2c0,4.7,1.1,8.5,3.4,11.3c2.3,2.8,5.1,4.2,8.5,4.2
		c2,0,3.7-0.3,5.4-0.9C139.3,173.1,140.4,172.5,140.9,171.9z"/>
	<path class="st3" d="M149.9,144.1l0-1.4c1.7-0.6,2.7-0.9,2.8-1c1-0.5,2-1.3,3-2.3c1-1,1.9-2.2,2.6-3.4c0.3-0.1,0.6-0.1,0.8-0.1
		l0.5,0c0.1,1.5,0.2,2.6,0.2,3.2c0,0.2,0,0.8-0.1,2.1v2.5l0,13.3l-0.1,14.1c0,1.1,0.1,1.9,0.5,2.4c0.3,0.4,1.4,0.9,3.1,1.5
		c1.1,0.3,1.9,0.6,2.4,0.9c0.1,0.2,0.1,0.4,0.1,0.6c0,0.2-0.1,0.4-0.2,0.7c-1,0-2.4-0.1-4-0.2c-2.2-0.2-3.7-0.3-4.4-0.3
		c-0.3,0-2.5,0.1-6.4,0.2c-0.8,0-1.6,0.1-2.3,0.2c-0.1,0-0.3,0-0.6-0.1c-0.1-0.2-0.2-0.4-0.2-0.6c0-0.4,0.3-0.8,0.8-1
		c0.1-0.1,1.5-0.4,4.1-1.1c0.8-0.2,1.4-0.5,1.7-0.9c0.5-0.6,0.7-1.7,0.7-3.1c0.1-2.4,0.1-8.9,0.1-19.5c0-2.1-0.1-3.4-0.2-4
		c-0.1-0.4-0.5-0.8-1.1-1.3C153,145.1,151.8,144.6,149.9,144.1z M153.3,120.1c0-1,0.3-1.9,1-2.6s1.5-1.1,2.4-1.1
		c1,0,1.8,0.4,2.6,1.2c0.7,0.8,1.1,1.7,1.1,2.7c0,1-0.4,1.9-1.1,2.7c-0.7,0.8-1.6,1.3-2.6,1.3c-1,0-1.8-0.4-2.5-1.2
		C153.6,122.3,153.3,121.3,153.3,120.1z"/>
	<path class="st3" d="M193.1,168.5l0,3c-2.1,2.6-4.1,4.3-6.1,5.4c-2,1-4.4,1.5-7.1,1.5c-3,0-5.7-0.9-8-2.7c-2.4-1.8-4.2-4.4-5.5-7.7
		c-1.3-3.3-1.9-6.5-1.9-9.7c0-3.5,0.8-6.8,2.3-9.9c1.6-3.1,3.6-5.4,6.2-6.9c2.6-1.5,5.8-2.3,9.7-2.3c3.7,0,6.5,0.7,8.5,2.2
		c1.1,0.9,1.6,2,1.6,3.3c0,1-0.3,1.8-0.8,2.5c-0.6,0.6-1.3,1-2.1,1c-1.3,0-2.8-1-4.4-2.9c-1-1.2-1.9-2-2.7-2.4
		c-0.8-0.4-1.7-0.7-2.7-0.7c-2.4,0-4.3,1.1-5.9,3.4c-2.2,3.2-3.3,7.2-3.3,12.1c0,5,1.1,9,3.3,11.9s4.8,4.4,7.8,4.4
		c2.1,0,3.9-0.4,5.5-1.2C189.1,172,191,170.6,193.1,168.5z"/>
	<path class="st3" d="M192.6,144.1l0-1.4c1.7-0.6,2.7-0.9,2.8-1c1-0.5,2-1.3,3-2.3c1-1,1.9-2.2,2.6-3.4c0.3-0.1,0.6-0.1,0.8-0.1
		l0.5,0c0.1,1.5,0.2,2.6,0.2,3.2c0,0.2,0,0.8-0.1,2.1v2.5l0,13.3l-0.1,14.1c0,1.1,0.1,1.9,0.5,2.4c0.3,0.4,1.4,0.9,3.1,1.5
		c1.1,0.3,1.9,0.6,2.4,0.9c0.1,0.2,0.1,0.4,0.1,0.6c0,0.2-0.1,0.4-0.2,0.7c-1,0-2.4-0.1-4-0.2c-2.2-0.2-3.7-0.3-4.4-0.3
		c-0.3,0-2.5,0.1-6.4,0.2c-0.8,0-1.6,0.1-2.3,0.2c-0.1,0-0.3,0-0.6-0.1c-0.1-0.2-0.2-0.4-0.2-0.6c0-0.4,0.3-0.8,0.8-1
		c0.1-0.1,1.5-0.4,4.1-1.1c0.8-0.2,1.4-0.5,1.7-0.9c0.5-0.6,0.7-1.7,0.7-3.1c0.1-2.4,0.1-8.9,0.1-19.5c0-2.1-0.1-3.4-0.2-4
		c-0.1-0.4-0.5-0.8-1.1-1.3C195.7,145.1,194.5,144.6,192.6,144.1z M196,120.1c0-1,0.3-1.9,1-2.6s1.5-1.1,2.4-1.1
		c1,0,1.8,0.4,2.6,1.2c0.7,0.8,1.1,1.7,1.1,2.7c0,1-0.4,1.9-1.1,2.7c-0.7,0.8-1.6,1.3-2.6,1.3c-1,0-1.8-0.4-2.5-1.2
		C196.3,122.3,196,121.3,196,120.1z"/>
	<path class="st3" d="M205.5,175.4c0.7-0.2,1.4-0.4,2.3-0.6c1.7-0.3,2.7-0.6,3-1c0.3-0.4,0.5-1.2,0.5-2.5l0.1-1.7c0-0.6,0-1.4,0-2.4
		l-0.1-14.2c0-1.9-0.2-3.1-0.6-3.7c-0.7-0.9-2-1.5-4-1.8V146c1.9-0.6,3.4-1.4,4.5-2.4c1.5-1.4,2.8-3.3,3.8-5.7l1.4,0
		c0.1,1.5,0.1,2.5,0.1,3.1v3.1l0,0.8c0.3-0.2,0.7-0.6,1.1-0.9c1.6-1.4,3.2-2.5,4.9-3.4c1.7-0.9,3.2-1.5,4.5-1.8
		c0.8-0.2,1.8-0.4,2.8-0.4c2.2,0,4,0.7,5.6,2s2.6,3,3,4.8c0.5,1.8,0.7,5.5,0.7,11v7c0,0.2,0,0.8-0.1,1.9c0,1.1-0.1,2.3-0.1,3.6
		c0,2.2,0.1,3.5,0.2,4.1c0.1,0.4,0.5,0.8,1,1.2c2.5,0.4,4,0.9,4.5,1.4v0.4c0,0.3-0.1,0.7-0.2,1.2h-0.8l-5.3-0.1l-5.2,0.1
		c-1.9,0.1-3.7,0-5.3,0l-0.2-1c0-0.2,0.1-0.4,0.3-0.7c0.7-0.4,1.7-0.6,3-0.7c0.8-0.1,1.3-0.2,1.6-0.3c0.3-0.1,0.7-0.4,1.1-0.7
		c0.3-0.7,0.5-1.4,0.5-1.9c0-0.2,0-0.6-0.1-1.3c-0.1-1.4-0.1-5-0.2-10.6v-2.4l0.1-3.7c0-4-0.7-6.7-2.1-8.2c-1.4-1.5-3.2-2.3-5.5-2.3
		c-1.8,0-3.5,0.5-5.2,1.4s-3.3,2.3-4.9,4.1c-0.1,1.5-0.1,2.7-0.1,3.8l0.1,10.2c0,5.3,0.1,8.6,0.2,9.8c0.1,0.5,0.1,0.8,0.3,1
		c0.2,0.2,0.6,0.4,1.3,0.6c0.6,0.2,1.4,0.4,2.2,0.6c0.8,0.3,1.4,0.4,1.7,0.5c0.5,0.2,0.9,0.5,1.1,0.9l0,0.9h-4.2l-8.6-0.1
		c-2,0-3.3,0-3.8,0h-1l-0.1-0.6C205.4,176.1,205.4,175.8,205.5,175.4z"/>
	<path class="st3" d="M272.2,152.5l-16,0.1l-3,0c-1.2,0-2.5,0.1-3.7,0.2c-0.2,0.9-0.4,1.6-0.4,1.9l0,0.5v0.5l0,2.3
		c0,1.9,0.5,4.2,1.5,6.9c1,2.7,2.5,4.8,4.4,6.2c1.9,1.4,4.3,2.2,7.1,2.3c1.5-0.1,2.7-0.3,3.6-0.6c0.9-0.3,2.2-1.1,3.8-2.4l2.9-2.7
		l0.2,1.9c0,0.2,0,0.4,0,0.7c-1.2,1.8-2.7,3.3-4.5,4.6c-1.8,1.3-3.7,2.3-5.6,2.9c-0.9,0.3-2.4,0.4-4.5,0.4c-1.9,0-3.7-0.4-5.6-1.3
		c-2.7-1.4-4.8-3.5-6.4-6.5c-1.6-3-2.3-6.7-2.3-10.9c0-1.4,0.2-3.1,0.7-5.2c0.4-2.1,1.2-4.4,2.4-6.8c0.8-1.6,1.7-3,2.8-4
		c1.6-1.5,3-2.5,4.2-3.1c1.7-0.8,3.7-1.3,6-1.3c2.5,0,4.5,0.5,6.1,1.6c2.1,1.4,3.7,3.2,4.8,5.4c1,2.2,1.6,4.2,1.6,6V152.5z
		 M250,150.8h1.9c1.4,0,5.4-0.2,12.1-0.7c1.1-0.1,1.7-0.2,2-0.4c0.5-0.6,0.7-1.1,0.7-1.6c0-1-0.3-2-0.8-3.3s-1.3-2.2-2.4-2.8
		c-1.1-0.7-2.4-1-3.8-1c-3.1,0-5.5,1.3-7.4,4C250.7,147.1,250,149,250,150.8z"/>
</g>
<g class="st2">
	<path class="st4" d="M314.5,170.6c0.2,0.4,0.2,0.7,0.2,0.9c0,0.5-0.3,1.3-1,2.5c-0.8,1.5-1.7,2.7-2.7,3.4c-0.6,0.5-1.5,0.7-2.6,0.7
		c-1.9,0-3.3-0.7-4.3-2c-0.6-0.8-1-2.2-1.2-4.3l-4.5,3.6c-1.6,1-2.8,1.7-3.6,2c-1.3,0.4-2.9,0.6-4.8,0.6c-1.4,0-2.4-0.5-3.2-1.4
		c-0.8-0.9-1.2-2.2-1.2-3.6c0-2.1,1.1-4.7,3.4-7.6s5.3-5.4,9.2-7.3c2.7-1.3,4.4-2.2,5-2.5c0.1-1,0.1-2.1,0.1-3.3
		c0-3.9-0.5-6.6-1.4-8c-0.9-1.4-2.3-2.1-4.1-2.1c-1.8,0-3.6,0.8-5.2,2.5c-1,1-1.7,3-2.2,5.9c-0.2,0.8-0.5,1.7-0.9,2.6
		c-1.1,0.9-2.1,1.3-2.7,1.3c-0.6,0-1.1-0.2-1.6-0.6c-0.3-0.2-0.4-0.5-0.4-0.7c0-0.8,0.7-2.6,2.2-5.4s3.3-4.9,5.6-6.3
		c2.2-1.4,4.2-2.1,5.9-2.1c2.3,0,4,0.2,5.1,0.7c1.1,0.5,2.1,1.3,2.9,2.5c0.8,1.2,1.4,2.5,1.6,3.9c0.1,0.7,0.2,3.1,0.2,7.3l-0.1,7.4
		l0,5.4c0,0.7,0,1.3,0,1.8c0,0.9,0,1.6,0,2c0,1,0.3,1.8,0.8,2.5s1.1,0.9,1.8,0.9c1,0,1.9-0.6,2.6-1.8l0.5-0.7
		C313.8,170.9,314,170.8,314.5,170.6z M302.8,169.3c0.2-3.9,0.3-6.7,0.3-8.3c0-0.8,0-2-0.1-3.4c-1.8,0.7-3.7,1.9-5.7,3.4
		c-2,1.5-3.6,3.3-4.8,5.2c-0.9,1.4-1.3,2.8-1.3,4c0,1.2,0.4,2.2,1.1,3c0.7,0.8,1.6,1.2,2.7,1.2c0.8,0,1.8-0.3,3-1
		C299.5,172.6,301.2,171.2,302.8,169.3z"/>
	<path class="st4" d="M311.8,175.4c0.7-0.2,1.4-0.4,2.3-0.6c1.7-0.3,2.7-0.6,3-1c0.3-0.4,0.5-1.2,0.5-2.5l0.1-1.7c0-0.6,0-1.4,0-2.4
		l-0.1-14.2c0-1.9-0.2-3.1-0.6-3.7c-0.7-0.9-2-1.5-4-1.8V146c1.9-0.6,3.4-1.4,4.5-2.4c1.5-1.4,2.8-3.3,3.8-5.7l1.4,0
		c0.1,1.5,0.1,2.5,0.1,3.1v3.1l0,0.8c0.3-0.2,0.7-0.6,1.1-0.9c1.6-1.4,3.2-2.5,4.9-3.4c1.7-0.9,3.2-1.5,4.5-1.8
		c0.8-0.2,1.8-0.4,2.8-0.4c2.2,0,4,0.7,5.6,2s2.6,3,3,4.8s0.7,5.5,0.7,11v7c0,0.2,0,0.8-0.1,1.9c0,1.1-0.1,2.3-0.1,3.6
		c0,2.2,0.1,3.5,0.2,4.1c0.1,0.4,0.5,0.8,1,1.2c2.5,0.4,4,0.9,4.5,1.4v0.4c0,0.3-0.1,0.7-0.2,1.2H350l-5.3-0.1l-5.2,0.1
		c-1.9,0.1-3.7,0-5.3,0l-0.2-1c0-0.2,0.1-0.4,0.3-0.7c0.7-0.4,1.7-0.6,3-0.7c0.8-0.1,1.3-0.2,1.6-0.3c0.3-0.1,0.7-0.4,1.1-0.7
		c0.3-0.7,0.5-1.4,0.5-1.9c0-0.2,0-0.6-0.1-1.3c-0.1-1.4-0.1-5-0.2-10.6v-2.4l0.1-3.7c0-4-0.7-6.7-2.1-8.2c-1.4-1.5-3.2-2.3-5.5-2.3
		c-1.8,0-3.5,0.5-5.2,1.4s-3.3,2.3-4.9,4.1c-0.1,1.5-0.1,2.7-0.1,3.8l0.1,10.2c0,5.3,0.1,8.6,0.2,9.8c0.1,0.5,0.1,0.8,0.3,1
		c0.2,0.2,0.6,0.4,1.3,0.6c0.6,0.2,1.4,0.4,2.2,0.6c0.8,0.3,1.4,0.4,1.7,0.5c0.5,0.2,0.9,0.5,1.1,0.9l0,0.9h-4.2l-8.6-0.1
		c-2,0-3.3,0-3.8,0h-1l-0.1-0.6C311.7,176.1,311.7,175.8,311.8,175.4z"/>
	<path class="st4" d="M376,143.3l0-1.3l0-5.4l0-10.2c0-2.8-0.3-4.6-0.8-5.4c-0.5-0.8-2.1-1.6-4.7-2.4c-0.2-0.1-0.5-0.2-0.9-0.3v-0.5
		c0-0.3,0-0.6,0.1-1c3.6-0.4,6.7-1.2,9.3-2.2l2,0c0.1,2.1,0.2,4.4,0.2,7l-0.2,17.8l0.3,20.1l-0.1,10.7c0,2.2,0.1,3.4,0.4,3.7
		c0.5,0.6,1.7,0.9,3.5,1c0.4,0,0.9,0,1.5,0.1v0.8c0,0.2,0,0.4,0,0.7c-0.8,0.2-1.7,0.4-2.5,0.6l-5.8,1.3c-0.8,0.2-1.5,0.3-2,0.3v-4.4
		c-0.5,0.2-1.2,0.5-2.1,0.9c-4.1,2-7.9,3.1-11.4,3.1c-2.1,0-4.2-0.8-6.4-2.4s-3.8-3.8-5-6.6c-1.2-2.8-1.8-5.7-1.8-8.7
		c0-2.7,0.4-5.2,1.2-7.6s1.8-4.4,3-6c0.8-1,1.9-2.1,3.4-3.1s2.7-1.7,3.6-2c2.4-0.7,3.9-1.1,4.7-1.1c3.6,0,6.5,0.6,8.8,1.9
		C375.1,142.9,375.6,143.2,376,143.3z M376,171.9c0.1-2.1,0.2-6.3,0.2-12.8c0-5.5-0.2-8.9-0.7-10.3c-0.4-1.4-1.5-2.8-3.3-4.1
		c-1.7-1.3-3.7-1.9-5.9-1.9c-3,0-5.6,1.4-7.7,4.1c-2.1,2.7-3.2,6.8-3.2,12.2c0,4.7,1.1,8.5,3.4,11.3c2.3,2.8,5.1,4.2,8.5,4.2
		c2,0,3.7-0.3,5.4-0.9C374.4,173.1,375.5,172.5,376,171.9z"/>
</g>
<g class="st2">
	<path class="st3" d="M52.3,254.7l0-1c0.9-0.6,2-1,3.1-1.1c1.9-0.3,3.1-0.6,3.6-0.9c0.5-0.3,0.9-0.7,1.1-1.2c0.4-1,0.6-2.1,0.6-3.1
		l-0.1-3.5l0-3.2l-0.1-3.8c0-1.6,0-3.5,0.1-5.9s0.1-3.6,0.1-3.8v-12.6c0-2,0-4.2,0.1-6.5s0.1-3.9,0.1-4.8c0-2.7-0.1-4.2-0.2-4.6
		c-0.1-0.4-0.3-0.7-0.6-0.9s-1.2-0.4-2.9-0.5c-1.2-0.1-2.1-0.2-2.6-0.3c-0.1-0.3-0.2-0.6-0.2-0.8c0-0.2,0-0.5,0-0.9
		c0.6-0.1,1.1-0.1,1.5-0.1l3.7,0c2.7,0,5.5-0.1,8.4-0.4c1.5-0.1,3.7-0.2,6.6-0.3c0.1,0.3,0.1,0.5,0.1,0.8c0,0.3-0.1,0.5-0.2,0.7
		c-0.1,0.2-0.3,0.3-0.6,0.3c-3.5,0.3-5.5,0.8-6.2,1.5c-0.6,0.7-0.9,2.4-0.9,5.1c0,5,0.1,10.1,0.2,15.5l0.2,4.3
		c0.1,0.1,1.9,0.3,5.2,0.5c0.9,0.1,1.4,0.1,1.6,0.1l5.9-0.1l3.9,0.1l10.1-0.4c1.2,0,2-0.1,2.3-0.2c0.2-5.3,0.2-10.5,0.2-15.5
		c0-4.8-0.1-7.7-0.3-8.5c-0.1-0.5-0.3-0.9-0.6-1.1c-0.2-0.1-1.5-0.3-4.1-0.7c-0.5-0.1-0.9-0.1-1.3-0.2c-0.1-0.5-0.2-1-0.2-1.6
		c0.9-0.2,1.5-0.2,1.7-0.2l2.6,0.2c2.4,0.1,4.8,0.2,7.3,0.2c1.6,0,4.2-0.2,7.8-0.5c0,0.6-0.1,1.2-0.2,1.7c-1,0.5-2.2,0.8-3.6,0.9
		c-0.9,0.1-1.7,0.2-2.3,0.5c-0.5,0.4-0.8,1.3-0.8,2.6c0,0.3,0,0.6,0,1c0,1.1,0,1.8,0,2.2v5.3l0,3.3l-0.1,4.3l0,8.1l-0.1,7.6
		c0,1.5,0,3.9,0.1,7.1l0,6.2c0,2.1,0.2,3.6,0.5,4.5c0.2,0.4,0.4,0.7,0.8,0.9l3.2,0.8c1.6,0.5,2.5,0.8,2.8,1.1c0.3,0.3,0.5,0.6,0.5,1
		l-0.1,0.6l-0.2,0c-0.1,0-0.3,0-0.5-0.1c-2.9-0.6-5.9-0.9-9.1-0.9c-2.5,0-4.3,0-5.3,0.1c-1,0.1-3.2,0.4-6.5,1
		c-0.1-0.4-0.1-0.7-0.1-0.9c0-0.2,0-0.5,0.1-0.9c0.8-0.6,2.1-0.9,3.9-1.2c1.3-0.2,2.4-0.6,3.1-1.5c0.5-0.6,0.8-1.4,0.8-2.5l0-6.7
		c0.1-2,0.1-3.1,0.1-3.3c0-2.6,0-6.4-0.1-11.5c-0.1-0.4-0.2-0.7-0.4-0.8c-0.7-0.3-4.2-0.2-10.6,0.2c-1.3,0.1-2.2,0.1-2.9,0.1
		c-0.6,0-2,0-4-0.1c-2-0.1-3.9-0.1-5.6-0.1c-0.9,0-1.7,0-2.3,0c-1.2,0-1.9,0-2,0c-0.6,0-1,0.1-1.3,0.4c-0.2,0.3-0.3,0.8-0.3,1.5
		l0,3.2c0,0.5-0.1,3.4-0.2,8.7c0,1.1,0,2,0,2.7c0,4.2,0.1,7,0.4,8.4c0.1,0.6,0.4,1.1,0.7,1.3c0.2,0.2,1.3,0.5,3.1,1
		c1.2,0.3,2.1,0.6,2.8,0.9l0.2,0.5c0,0.2-0.1,0.3-0.2,0.4c-0.2,0.2-0.4,0.2-0.7,0.2c-0.2,0-0.5,0-0.8,0c-0.3,0-0.9,0-1.7-0.1
		c-1.4,0-3-0.1-5.1-0.3c-1.3-0.1-2.5-0.2-3.5-0.2c-1.7,0-4.4,0.1-8.2,0.3C53.4,254.7,52.8,254.7,52.3,254.7z"/>
	<path class="st3" d="M139.2,229.5l-16,0.1l-3,0c-1.2,0-2.5,0.1-3.7,0.2c-0.2,0.9-0.4,1.6-0.4,1.9l0,0.5v0.5l0,2.3
		c0,1.9,0.5,4.2,1.5,6.9c1,2.7,2.5,4.8,4.4,6.2c1.9,1.4,4.3,2.2,7.1,2.3c1.5-0.1,2.7-0.3,3.6-0.6c0.9-0.3,2.2-1.1,3.8-2.4l2.9-2.7
		l0.2,1.9c0,0.2,0,0.4,0,0.7c-1.2,1.8-2.7,3.3-4.5,4.6c-1.8,1.3-3.7,2.3-5.6,2.9c-0.9,0.3-2.4,0.4-4.5,0.4c-1.9,0-3.7-0.4-5.6-1.3
		c-2.7-1.4-4.8-3.5-6.4-6.5c-1.6-3-2.3-6.7-2.3-10.9c0-1.4,0.2-3.1,0.7-5.2c0.4-2.1,1.2-4.4,2.4-6.8c0.8-1.6,1.7-3,2.8-4
		c1.6-1.5,3-2.5,4.2-3.1c1.7-0.8,3.7-1.3,6-1.3c2.5,0,4.5,0.5,6.1,1.6c2.1,1.4,3.7,3.2,4.8,5.4c1,2.2,1.6,4.2,1.6,6V229.5z
		 M117,227.8h1.9c1.4,0,5.4-0.2,12.1-0.7c1.1-0.1,1.7-0.2,2-0.4c0.5-0.6,0.7-1.1,0.7-1.6c0-1-0.3-2-0.8-3.3
		c-0.5-1.2-1.3-2.2-2.4-2.8c-1.1-0.7-2.4-1-3.8-1c-3.1,0-5.5,1.3-7.4,4C117.7,224.1,117,226,117,227.8z"/>
	<path class="st3" d="M169.1,247.6c0.2,0.4,0.2,0.7,0.2,0.9c0,0.5-0.3,1.3-1,2.5c-0.8,1.5-1.7,2.7-2.7,3.4c-0.6,0.5-1.5,0.7-2.6,0.7
		c-1.9,0-3.3-0.7-4.3-2c-0.6-0.8-1-2.2-1.2-4.3l-4.5,3.6c-1.6,1-2.8,1.7-3.6,2c-1.3,0.4-2.9,0.6-4.8,0.6c-1.4,0-2.4-0.5-3.2-1.4
		c-0.8-0.9-1.2-2.2-1.2-3.6c0-2.1,1.1-4.7,3.4-7.6s5.3-5.4,9.2-7.3c2.7-1.3,4.4-2.2,5-2.5c0.1-1,0.1-2.1,0.1-3.3
		c0-3.9-0.5-6.6-1.4-8c-0.9-1.4-2.3-2.1-4.1-2.1c-1.8,0-3.6,0.8-5.2,2.5c-1,1-1.7,3-2.2,5.9c-0.2,0.8-0.5,1.7-0.9,2.6
		c-1.1,0.9-2.1,1.3-2.7,1.3c-0.6,0-1.1-0.2-1.6-0.6c-0.3-0.2-0.4-0.5-0.4-0.7c0-0.8,0.7-2.6,2.2-5.4c1.5-2.8,3.3-4.9,5.6-6.3
		c2.2-1.4,4.2-2.1,5.9-2.1c2.3,0,4,0.2,5.1,0.7c1.1,0.5,2.1,1.3,2.9,2.5c0.8,1.2,1.4,2.5,1.6,3.9c0.1,0.7,0.2,3.1,0.2,7.3l-0.1,7.4
		l0,5.4c0,0.7,0,1.3,0,1.8c0,0.9,0,1.6,0,2c0,1,0.3,1.8,0.8,2.5c0.5,0.6,1.1,0.9,1.8,0.9c1,0,1.9-0.6,2.6-1.8l0.5-0.7
		C168.3,247.9,168.6,247.8,169.1,247.6z M157.4,246.3c0.2-3.9,0.3-6.7,0.3-8.3c0-0.8,0-2-0.1-3.4c-1.8,0.7-3.7,1.9-5.7,3.4
		c-2,1.5-3.6,3.3-4.8,5.2c-0.9,1.4-1.3,2.8-1.3,4c0,1.2,0.4,2.2,1.1,3c0.7,0.8,1.6,1.2,2.7,1.2c0.8,0,1.8-0.3,3-1
		C154.1,249.6,155.7,248.2,157.4,246.3z"/>
	<path class="st3" d="M166.9,196.6v-1c0.7-0.3,1.6-0.6,2.5-0.9c1.3-0.5,3.3-1.2,5.9-2.3h1.9c0,1.5,0,2.3,0,2.5
		c0,25.3-0.1,40.5-0.2,45.3c-0.1,2.9-0.1,4.4-0.1,4.6c0,3.5,0.1,5.4,0.4,5.8c0.3,0.6,1.3,0.9,2.9,1.2c1.6,0.2,2.6,0.4,2.9,0.6
		c0.2,0.1,0.3,0.3,0.3,0.6c0,0.3-0.1,0.6-0.2,0.7c-0.1,0.1-0.3,0.2-0.7,0.2c-0.2,0-1.6-0.1-4.2-0.2l-5.2-0.2l-6.7,0.4
		c-0.4,0-0.7-0.1-1-0.3c-0.2-0.2-0.2-0.4-0.2-0.7c0-0.3,0.1-0.5,0.3-0.7c0.2-0.1,1.1-0.4,2.9-0.7c1.7-0.3,2.7-0.6,3-0.9
		c0.3-0.2,0.4-0.7,0.5-1.5c0.1-1.1,0.2-4.2,0.2-9.4l0-10.6l0.1-11l0-11l0.1-5.4c0-1.1-0.1-1.9-0.4-2.3c-0.3-0.5-0.9-0.9-1.9-1.4
		C168.4,197.4,167.4,196.9,166.9,196.6z"/>
	<path class="st3" d="M189.9,208.2l1.2,0l0.2,4.4l-0.1,5.7c0.5,0,0.8,0,1,0c0.7,0,2-0.1,3.9-0.2c1.2-0.1,2.4-0.1,3.6-0.1
		c0.5,0,1.3,0,2.4,0c0.1,0.6,0.1,1.1,0.1,1.5c0,0.4-0.1,1-0.2,1.9h-0.7l-6.2,0.2l-3.1,0.1l-0.7,0.1c-0.2,0.8-0.3,1.7-0.3,2.7
		l0.1,6.9l-0.1,12.2c0,3.2,0.4,5.3,1.1,6.4c0.7,1.1,1.7,1.6,3.1,1.6c0.7,0,2-0.2,3.9-0.7c0.6-0.2,1.4-0.7,2.3-1.5h0.4
		c0.2,0,0.4,0.1,0.6,0.3c0.1,0.2,0.2,0.4,0.2,0.7l0,0.3c-1.1,1.4-2.4,2.5-3.9,3.2c-1.5,0.7-3.4,1-5.9,1c-1.7,0-3.2-0.5-4.3-1.4
		s-1.9-2-2.2-3.3c-0.3-1.3-0.5-4-0.5-8.3l0.2-10.4l0-5v-1.9c0-0.9,0-1.7-0.1-2.6l-0.7,0l-3.3,0.1l-0.3,0c-0.3,0-0.5-0.1-0.7-0.2
		c-0.1-0.2-0.2-0.3-0.2-0.6c0-0.4,0.1-0.7,0.3-0.9s0.8-0.6,1.8-1.1c0.7-0.3,1.5-1,2.4-1.9c0.9-0.9,1.7-2,2.3-3.1
		c0.3-0.6,0.8-1.8,1.4-3.5C189.4,209.6,189.7,208.7,189.9,208.2z"/>
	<path class="st3" d="M198.9,252.8c3.1-0.6,4.9-1.1,5.4-1.5c0.3-0.2,0.4-0.7,0.4-1.5l0-3.1l0-5.4l-0.1-13.8l0-5.1v-3.7l0.1-4.5
		c0-7-0.1-11.2-0.2-12.6c-0.1-1.4-0.4-2.2-0.7-2.6c-0.6-0.7-2.4-1.4-5.3-2.2v-0.2c0-0.2,0-0.5,0.1-0.9c0.4-0.1,0.7-0.1,1.1-0.2
		c0.3-0.1,0.7-0.2,1-0.2c3.2-1,5.5-2.1,6.9-3.1h2c0.1,0.9,0.1,3.6,0.1,8.2l0,5.9l0,7.6l-0.2,9.4c0,0.6,0,1.2,0.1,1.9
		c1.7-2.3,2.9-3.8,3.7-4.5c1.4-1.3,2.9-2.3,4.4-3.1c1.6-0.8,3.2-1.1,4.9-1.1c3.3,0,5.9,1.6,8,4.8c1.2,1.9,1.8,4.5,1.8,8l-0.1,4.7
		l0,2.6l-0.2,4.6c-0.1,3.8-0.2,6-0.2,6.7c0,0.8,0,1.9,0.1,3.2l2.3,0.6c1.5,0.4,2.7,0.7,3.5,1l0,1.4l-8.5-0.3c-0.5,0-1.8,0.1-3.9,0.2
		c-1.3,0.1-2.1,0.1-2.3,0.1h-0.9c-0.1-0.3-0.2-0.5-0.2-0.7v-0.4c0.4-0.6,1.1-0.9,2.1-1.1l2.4-0.6c0.3-0.3,0.5-0.6,0.6-1
		c0.1-0.8,0.2-4.8,0.4-11.9l0.1-3.4c0.1-3.6-0.1-6.6-0.7-9c-0.4-1.6-1.2-2.9-2.5-3.9c-1.3-1-2.8-1.5-4.6-1.5c-1.4,0-2.8,0.4-4.1,1.1
		c-0.9,0.5-1.9,1.4-3.2,2.7c-1.2,1.3-2.1,2.4-2.6,3.3c-0.3,0.6-0.5,1.6-0.5,3l0,3.2l-0.1,3.4c0,0.3,0,2.2,0.1,5.8l0,3l0.1,3.2
		c0,0.5,0.1,0.8,0.1,1l5.6,1.6c0.3,0.1,0.7,0.3,1.3,0.6l0.1,0.5c0,0.2-0.1,0.4-0.2,0.8c-0.8,0-1.4,0-1.8,0l-3.1,0l-6.8,0.1l-5.1,0.2
		c-0.3,0-0.7-0.1-1.2-0.1l0-0.3C198.6,253.5,198.7,253.1,198.9,252.8z"/>
	<path class="st3" d="M281,196.8c0.2,2,0.3,3.2,0.3,3.5l-0.2,4.1c-0.1,1.8-0.1,2.9-0.2,3.4c-0.2,0.1-0.4,0.2-0.6,0.2l-0.4-0.1
		c-0.8-4.3-2.3-7.5-4.3-9.4s-4.5-3-7.4-3c-3,0-5.5,1-7.4,3c-1.9,2-2.9,4.3-2.9,6.9c0,2,0.7,3.8,2,5.5s4.8,4.2,10.4,7.5
		c4.2,2.6,7.3,4.6,9.1,6.3c1.8,1.6,3.2,3.5,4.1,5.6c0.9,2.1,1.4,4.5,1.4,7.1c0,3.3-0.7,6.4-2.2,9.3c-1.5,2.9-3.5,5.1-6,6.6
		c-2.5,1.5-5.8,2.2-9.9,2.2c-3.6,0-7-0.7-10.3-2c-1.9-0.8-3.1-1.4-3.5-1.9c-0.4-0.5-0.6-1-0.6-1.6c0-0.3,0-0.8,0.1-1.3
		c0.4-3.6,0.6-6.6,0.6-9c0.1-1.4,0.1-2.3,0.3-2.5c0.1-0.2,0.3-0.3,0.6-0.3c0.2,0,0.4,0.1,0.6,0.3c0.1,0.2,0.2,0.6,0.3,1.1
		c0.3,3.8,1.8,7.2,4.5,10.2c2.7,3,5.8,4.5,9.2,4.5c2.1,0,4-0.5,5.8-1.5c1.8-1,3.1-2.5,4.1-4.4s1.5-3.8,1.5-5.6
		c0-2.5-0.8-4.8-2.3-6.8s-4.6-4.5-9.1-7.2s-7.5-4.8-8.9-6c-2.2-2.1-3.9-4.3-5-6.6c-0.8-1.8-1.2-3.9-1.2-6.2c0-4.3,1.5-7.9,4.4-10.9
		c2.9-3,6.8-4.5,11.7-4.5c2.7,0,5,0.4,7,1.1C278,194.7,279.5,195.6,281,196.8z"/>
	<path class="st3" d="M315.2,245.5l0,3c-2.1,2.6-4.1,4.3-6.1,5.4c-2,1-4.4,1.5-7.1,1.5c-3,0-5.7-0.9-8-2.7c-2.4-1.8-4.2-4.4-5.5-7.7
		c-1.3-3.3-1.9-6.5-1.9-9.7c0-3.5,0.8-6.8,2.3-9.9c1.6-3.1,3.6-5.4,6.2-6.9c2.6-1.5,5.8-2.3,9.7-2.3c3.7,0,6.5,0.7,8.5,2.2
		c1.1,0.9,1.6,2,1.6,3.3c0,1-0.3,1.8-0.8,2.5c-0.6,0.6-1.3,1-2.1,1c-1.3,0-2.8-1-4.4-2.9c-1-1.2-1.9-2-2.7-2.4
		c-0.8-0.4-1.7-0.7-2.7-0.7c-2.4,0-4.3,1.1-5.9,3.4c-2.2,3.2-3.3,7.2-3.3,12.1c0,5,1.1,9,3.3,11.9c2.2,3,4.8,4.4,7.8,4.4
		c2.1,0,3.9-0.4,5.5-1.2C311.2,249,313.1,247.6,315.2,245.5z"/>
	<path class="st3" d="M314.7,221.1l0-1.4c1.7-0.6,2.7-0.9,2.8-1c1-0.5,2-1.3,3-2.3c1-1,1.9-2.2,2.6-3.4c0.3-0.1,0.6-0.1,0.8-0.1
		l0.5,0c0.1,1.5,0.2,2.6,0.2,3.2c0,0.2,0,0.8-0.1,2.1v2.5l0,13.3l-0.1,14.1c0,1.1,0.1,1.9,0.5,2.4c0.3,0.4,1.4,0.9,3.1,1.5
		c1.1,0.3,1.9,0.6,2.4,0.9c0.1,0.2,0.1,0.4,0.1,0.6c0,0.2-0.1,0.4-0.2,0.7c-1,0-2.4-0.1-4-0.2c-2.2-0.2-3.7-0.3-4.4-0.3
		c-0.3,0-2.5,0.1-6.4,0.2c-0.8,0-1.6,0.1-2.3,0.2c-0.1,0-0.3,0-0.6-0.1c-0.1-0.2-0.2-0.4-0.2-0.6c0-0.4,0.3-0.8,0.8-1
		c0.1-0.1,1.5-0.4,4.1-1.1c0.8-0.2,1.4-0.5,1.7-0.9c0.5-0.6,0.7-1.7,0.7-3.1c0.1-2.4,0.1-8.9,0.1-19.5c0-2.1-0.1-3.4-0.2-4
		c-0.1-0.4-0.5-0.8-1.1-1.3C317.8,222.1,316.6,221.6,314.7,221.1z M318.1,197.1c0-1,0.3-1.9,1-2.6c0.7-0.7,1.5-1.1,2.4-1.1
		c1,0,1.8,0.4,2.6,1.3c0.7,0.8,1.1,1.7,1.1,2.7s-0.4,1.9-1.1,2.7c-0.7,0.8-1.6,1.3-2.6,1.3s-1.8-0.4-2.5-1.2
		S318.1,198.3,318.1,197.1z"/>
	<path class="st3" d="M357.6,229.5l-16,0.1l-3,0c-1.2,0-2.5,0.1-3.7,0.2c-0.2,0.9-0.4,1.6-0.4,1.9l0,0.5v0.5l0,2.3
		c0,1.9,0.5,4.2,1.5,6.9c1,2.7,2.5,4.8,4.4,6.2c1.9,1.4,4.3,2.2,7.1,2.3c1.5-0.1,2.7-0.3,3.6-0.6c0.9-0.3,2.2-1.1,3.8-2.4l2.9-2.7
		l0.2,1.9c0,0.2,0,0.4,0,0.7c-1.2,1.8-2.7,3.3-4.5,4.6c-1.8,1.3-3.7,2.3-5.6,2.9c-0.9,0.3-2.4,0.4-4.5,0.4c-1.9,0-3.7-0.4-5.6-1.3
		c-2.7-1.4-4.8-3.5-6.4-6.5c-1.6-3-2.3-6.7-2.3-10.9c0-1.4,0.2-3.1,0.7-5.2c0.4-2.1,1.2-4.4,2.4-6.8c0.8-1.6,1.7-3,2.8-4
		c1.6-1.5,3-2.5,4.2-3.1c1.7-0.8,3.7-1.3,6-1.3c2.5,0,4.5,0.5,6.1,1.6c2.1,1.4,3.7,3.2,4.8,5.4c1,2.2,1.6,4.2,1.6,6V229.5z
		 M335.4,227.8h1.9c1.4,0,5.4-0.2,12.1-0.7c1.1-0.1,1.7-0.2,2-0.4c0.5-0.6,0.7-1.1,0.7-1.6c0-1-0.3-2-0.8-3.3
		c-0.5-1.2-1.3-2.2-2.4-2.8c-1.1-0.7-2.4-1-3.8-1c-3.1,0-5.5,1.3-7.4,4C336.2,224.1,335.4,226,335.4,227.8z"/>
	<path class="st3" d="M356.6,252.4c0.7-0.2,1.4-0.4,2.3-0.6c1.7-0.3,2.7-0.6,3-1s0.5-1.2,0.5-2.5l0.1-1.7c0-0.6,0-1.4,0-2.4
		l-0.1-14.2c0-1.9-0.2-3.1-0.6-3.7c-0.7-0.9-2-1.5-4-1.8V223c1.9-0.6,3.4-1.4,4.5-2.4c1.5-1.4,2.8-3.3,3.8-5.7l1.4,0
		c0.1,1.5,0.1,2.5,0.1,3.1v3.1l0,0.8c0.3-0.2,0.7-0.6,1.1-0.9c1.6-1.4,3.2-2.5,4.9-3.4c1.7-0.9,3.2-1.5,4.5-1.8
		c0.8-0.2,1.8-0.4,2.8-0.4c2.2,0,4,0.7,5.6,2c1.6,1.4,2.6,3,3,4.8c0.5,1.8,0.7,5.5,0.7,11v7c0,0.2,0,0.8-0.1,1.9
		c0,1.1-0.1,2.3-0.1,3.6c0,2.2,0.1,3.5,0.2,4.1c0.1,0.4,0.5,0.8,1,1.2c2.5,0.4,4,0.9,4.5,1.4v0.4c0,0.3-0.1,0.7-0.2,1.2h-0.8
		l-5.3-0.1l-5.2,0.1c-1.9,0.1-3.7,0-5.3,0l-0.2-1c0-0.2,0.1-0.4,0.3-0.7c0.7-0.4,1.7-0.6,3-0.7c0.8-0.1,1.3-0.2,1.6-0.3
		c0.3-0.1,0.7-0.4,1.1-0.7c0.3-0.7,0.5-1.4,0.5-1.9c0-0.2,0-0.6-0.1-1.3c-0.1-1.4-0.1-5-0.2-10.6v-2.4l0.1-3.7c0-4-0.7-6.7-2.1-8.2
		s-3.2-2.3-5.5-2.3c-1.8,0-3.5,0.5-5.2,1.4c-1.7,0.9-3.3,2.3-4.9,4.1c-0.1,1.5-0.1,2.7-0.1,3.8l0.1,10.2c0,5.3,0.1,8.6,0.2,9.8
		c0.1,0.5,0.1,0.8,0.3,1c0.2,0.2,0.6,0.4,1.3,0.6s1.4,0.4,2.2,0.6c0.8,0.3,1.4,0.4,1.7,0.5c0.5,0.2,0.9,0.5,1.1,0.9l0,0.9H370
		l-8.6-0.1c-2,0-3.3,0-3.8,0h-1l-0.1-0.6C356.5,253.1,356.5,252.8,356.6,252.4z"/>
	<path class="st3" d="M423.5,245.5l0,3c-2.1,2.6-4.1,4.3-6.1,5.4c-2,1-4.4,1.5-7.1,1.5c-3,0-5.7-0.9-8-2.7c-2.4-1.8-4.2-4.4-5.5-7.7
		c-1.3-3.3-1.9-6.5-1.9-9.7c0-3.5,0.8-6.8,2.3-9.9c1.6-3.1,3.6-5.4,6.2-6.9c2.6-1.5,5.8-2.3,9.7-2.3c3.7,0,6.5,0.7,8.5,2.2
		c1.1,0.9,1.6,2,1.6,3.3c0,1-0.3,1.8-0.8,2.5c-0.6,0.6-1.3,1-2.2,1c-1.3,0-2.8-1-4.4-2.9c-1-1.2-1.9-2-2.7-2.4
		c-0.8-0.4-1.7-0.7-2.7-0.7c-2.4,0-4.3,1.1-5.9,3.4c-2.2,3.2-3.3,7.2-3.3,12.1c0,5,1.1,9,3.3,11.9s4.8,4.4,7.8,4.4
		c2.1,0,3.9-0.4,5.5-1.2C419.5,249,421.4,247.6,423.5,245.5z"/>
	<path class="st3" d="M452.2,229.5l-16,0.1l-3,0c-1.2,0-2.5,0.1-3.7,0.2c-0.2,0.9-0.4,1.6-0.4,1.9l0,0.5v0.5l0,2.3
		c0,1.9,0.5,4.2,1.5,6.9c1,2.7,2.5,4.8,4.4,6.2c1.9,1.4,4.3,2.2,7.1,2.3c1.5-0.1,2.7-0.3,3.6-0.6c0.9-0.3,2.2-1.1,3.8-2.4l2.9-2.7
		l0.2,1.9c0,0.2,0,0.4,0,0.7c-1.2,1.8-2.7,3.3-4.5,4.6c-1.8,1.3-3.7,2.3-5.6,2.9c-0.9,0.3-2.4,0.4-4.5,0.4c-1.9,0-3.7-0.4-5.6-1.3
		c-2.7-1.4-4.8-3.5-6.4-6.5c-1.6-3-2.3-6.7-2.3-10.9c0-1.4,0.2-3.1,0.7-5.2c0.4-2.1,1.2-4.4,2.4-6.8c0.8-1.6,1.7-3,2.8-4
		c1.6-1.5,3-2.5,4.2-3.1c1.7-0.8,3.7-1.3,6-1.3c2.5,0,4.5,0.5,6.1,1.6c2.1,1.4,3.7,3.2,4.8,5.4c1,2.2,1.6,4.2,1.6,6V229.5z
		 M430,227.8h1.9c1.4,0,5.4-0.2,12.1-0.7c1.1-0.1,1.7-0.2,2-0.4c0.5-0.6,0.7-1.1,0.7-1.6c0-1-0.3-2-0.8-3.3s-1.3-2.2-2.4-2.8
		c-1.1-0.7-2.4-1-3.8-1c-3.1,0-5.5,1.3-7.4,4C430.7,224.1,430,226,430,227.8z"/>
	<path class="st3" d="M455.4,242.2c1,2.9,1.7,4.8,2.2,5.7c1,1.8,2.2,3.1,3.6,4.1c1.4,1,2.9,1.5,4.6,1.5c1.5,0,3-0.8,4.5-2.3
		c1.1-1.1,1.6-2.5,1.6-4c0-2-0.6-3.9-1.9-5.6c-1.2-1.7-3.6-3.3-7.1-4.8c-3.5-1.5-5.8-3.2-7-4.9c-1.2-1.7-1.8-3.7-1.8-5.9
		c0-2.1,0.5-3.9,1.5-5.6c1-1.6,2.3-2.8,4.1-3.6c1.7-0.8,3.3-1.2,4.8-1.2c1.9,0,3.6,0.2,5.1,0.5s2.8,0.9,3.9,1.6
		c0.2,1.6,0.4,3.9,0.5,6.9l0.1,1.5c-0.3,0-0.6,0-0.9,0h-0.6c-0.8-2.6-2-4.6-3.6-6.1s-3.2-2.2-4.8-2.2c-1.6,0-2.9,0.6-3.9,1.7
		s-1.5,2.6-1.5,4.4c0,1.4,0.4,2.6,1.2,3.7c0.8,1.1,2.7,2.3,5.6,3.7s5.1,2.7,6.4,3.9c1.3,1.2,2.3,2.6,3,4.3c0.6,1.7,1,3.3,1,4.9
		c0,2.1-0.6,4.1-1.8,6c-1.2,1.9-2.7,3.2-4.5,3.9c-1.8,0.8-3.4,1.1-4.9,1.1c-3.4,0-6.5-0.7-9.3-2.2c-0.3-0.2-0.4-0.7-0.4-1.4
		c0-0.3,0-0.7-0.1-1.3c-0.4-4.2-0.6-6.6-0.6-7.4c0-0.4,0.1-0.6,0.2-0.7C454.5,242.2,454.9,242.2,455.4,242.2z"/>
</g>
</svg>
