<?xml version="1.0" encoding="utf-8"?>
<!-- Generator: Adobe Illustrator 22.1.0, SVG Export Plug-In . SVG Version: 6.00 Build 0)  -->
<svg version="1.1" id="Layer_1" xmlns="http://www.w3.org/2000/svg" xmlns:xlink="http://www.w3.org/1999/xlink" x="0px" y="0px"
	 viewBox="0 0 612 410.5" style="enable-background:new 0 0 612 410.5;" xml:space="preserve">
<style type="text/css">
	.st0{fill:#1B80B5;}
	.st1{fill:#2B2171;}
	.st2{enable-background:new    ;}
	.st3{fill:#FFFFFF;}
	.st4{fill:#57BFEA;}
</style>
<g id="svg21" inkscape:version="0.92.4 (5da689c313, 2019-01-14)" sodipodi:docname="ieee.svg" xmlns:cc="http://creativecommons.org/ns#" xmlns:dc="http://purl.org/dc/elements/1.1/" xmlns:inkscape="http://www.inkscape.org/namespaces/inkscape" xmlns:rdf="http://www.w3.org/1999/02/22-rdf-syntax-ns#" xmlns:sodipodi="http://sodipodi.sourceforge.net/DTD/sodipodi-0.dtd" xmlns:svg="http://www.w3.org/2000/svg">
	<rect id="rect7" y="0" class="st0" width="612" height="410.5"/>
</g>
<rect x="-0.1" y="0" class="st1" width="612.1" height="164.6"/>
<g class="st2">
	<path class="st3" d="M56.6,94.7l0.1-1.3c1.7-0.2,2.6-0.6,3.1-1c0.3-0.3,0.6-1.1,0.7-2.4l0.2-6.9L61,76c0-0.4,0-0.7,0-0.8
		c0-1.9-0.1-2.9-0.3-3.2c-0.2-0.3-1-0.6-2.5-0.9c-0.3-0.1-0.7-0.1-0.9-0.2c0-0.3,0-0.6,0-0.8v-0.6c0.4,0,1-0.1,1.7-0.1l5.7,0.2
		c0.1,0,0.3,0,0.6,0h0.9c0.2,0.2,0.4,0.7,0.7,1c0.4,1,1.1,2.3,1.9,4.2l0.2,0.6l3,6.6c0.1,0.1,0.2,0.3,0.3,0.7
		c0.2,0.4,0.4,0.9,0.7,1.3s0.4,0.9,0.7,1.4s0.4,1,0.7,1.3c0.2-0.3,0.3-0.7,0.6-1c0.6-1.2,1-2.3,1.5-3.3c0.9-1.8,2-4.4,3.5-8
		c0.2-0.6,0.7-1.4,1.1-2.6c0.6-1.2,0.9-1.8,0.9-1.9c0.1-0.1,0.3-0.1,0.7-0.1c0.1,0,0.3,0,0.6,0c0.7,0,1.4-0.1,2.4-0.1
		c1.3,0,2.4,0,3.3-0.1c0.8-0.1,1.3-0.1,1.4-0.1c0.1,0,0.3,0,0.4,0c0,0.2,0,0.3,0,0.4v0.6c0,0.1,0,0.3,0,0.6c-1.2,0.2-2.2,0.4-3,0.8
		c-0.6,0.2-0.8,0.6-0.8,1v0.3l0.3,6c0,0.6,0.1,3.2,0.3,8.2c0,1.1,0.1,2.4,0.2,4.2c0,0.2,0,0.3,0,0.4c0,0.3,0.1,0.6,0.2,0.6
		c0.1,0.1,1.3,0.4,3.5,1.1c0,0.2,0,0.3,0,0.4c0,0.2,0,0.6,0,0.8c-0.3,0-1.2-0.1-2.6-0.2c-1.4-0.1-2.8-0.2-4-0.2
		c-1.9,0-3.7,0.1-5.5,0.2c-0.2,0-0.4,0-0.7,0.1v-1.3c0.6-0.2,1.2-0.3,2.1-0.6c0.7-0.1,1-0.3,1.2-0.6c0.2-0.2,0.2-0.9,0.2-2.1
		c0-0.4,0-0.8,0-1.1c-0.1-1.3-0.1-3.3-0.1-5.6l-0.3-6.8c0-1-0.1-1.7-0.1-2l-4.9,11.1c-0.1,0.2-0.3,0.7-0.6,1.1
		c-0.3,0.7-0.6,1.1-0.6,1.3c-1,2.4-1.7,4.2-2.1,5.5c-0.1,0.3-0.2,0.8-0.4,1.2h-1.5l-1.1-3c-0.3-0.8-0.9-2-1.5-3.5
		c-0.4-0.9-0.8-1.7-1-2.2c-0.1-0.2-0.2-0.4-0.2-0.6l-0.2-0.4c0-0.1,0-0.1-0.1-0.2l-3-6.3l-1.8-3.7L62.5,84l-0.2,6
		c0,1,0.2,1.7,0.6,2.1s1.2,0.8,2.4,1.1l0.9,0.2v1.4c-0.8,0-1.5-0.1-2.4-0.1c-0.9-0.1-2-0.1-3.4-0.1C60.1,94.5,58.8,94.6,56.6,94.7z"
		/>
	<path class="st3" d="M91.8,94.7v-1.3c0.2-0.1,0.7-0.2,1.3-0.3c1-0.2,1.7-0.3,1.8-0.6c0.2-0.1,0.4-0.6,0.8-1.1l4-10.3l4.6-12.1
		c0.4,0,0.9,0,1.2,0h0.9l0.2,0.3l3.4,8c0.8,1.7,1.4,3.3,2.1,5c0.7,1.7,1.1,2.9,1.5,4c0.2,0.7,0.7,1.5,1.1,2.8
		c0.2,0.7,0.6,1.5,1.1,2.5c0.2,0.6,0.4,0.9,0.6,1c0.2,0.2,0.7,0.3,1.1,0.4c0.6,0.1,1.1,0.2,1.7,0.4c0.1,0.4,0.1,0.8,0.1,1
		c0,0.1,0,0.2,0,0.4c-1,0-2,0-3.2-0.1c-1.1-0.1-2.2-0.1-3.1-0.1c-1,0-1.8,0-2.2,0l-3.3,0.2h-1c0-0.4,0-0.9,0.1-1.3l2.2-0.4
		c0.7-0.2,1-0.3,1.1-0.4c0.1-0.1,0.2-0.3,0.2-0.4c0-0.2,0-0.3-0.1-0.6l-0.9-2.1l-1.5-3.7h-7.4c-0.3,0.7-0.9,2.1-1.8,4.5
		c-0.2,0.7-0.3,1.1-0.3,1.4s0.1,0.6,0.2,0.8c0.3,0.2,0.9,0.4,1.8,0.6c0.1,0,0.6,0.1,1.4,0.2c0,0.4,0,0.8,0,1c0,0.1,0,0.3,0,0.4
		c-0.8,0-2.8-0.1-5.7-0.3L95,94.6c-1,0.1-1.9,0.2-2.8,0.2h-0.4V94.7z M100.9,83.8c3,0,4.9,0.1,5.4,0.1h0.4c-0.4-1.1-0.9-2.5-1.5-4.1
		c-0.7-1.5-1.1-2.8-1.5-3.5L100.9,83.8z"/>
	<path class="st3" d="M119.3,93.1c0.4-0.1,1-0.2,1.7-0.3c0.8-0.1,1.2-0.1,1.3-0.1c0.6,0,0.9-0.1,1-0.2c0.1-0.3,0.1-0.6,0.1-0.8v-2.5
		l0.1-2.5v-1.7V83v-2l0.1-4.3v-2v-0.2c-0.1-1.3-0.2-2.1-0.2-2.2c-0.1-0.1-0.4-0.3-1.1-0.6c-0.1,0-0.3-0.1-0.8-0.3
		c-0.3-0.1-0.7-0.2-0.9-0.2c-0.4-0.1-0.8-0.2-1-0.4c0-0.3,0-0.6,0-0.8c0-0.1,0-0.2,0-0.4c0.1-0.1,0.2-0.1,0.3-0.1
		c0.3,0,1.4,0,3.4,0.1h2.8h2.1c0.9,0,2.1,0,3.4-0.1c0.4,0,0.7,0,0.8,0c0.2,0,0.3,0,0.4,0.1c0.1,0.1,0.1,0.4,0.1,0.8
		s-0.1,0.6-0.2,0.7c-0.1,0.1-0.3,0.2-0.9,0.2l-2.4,0.6c-0.1,0-0.2,0.1-0.3,0.1c0,0.1-0.1,0.2-0.1,0.2v0.6l-0.1,1.2v0.3v0.2
		c0,0.1,0,0.4,0,1.1c0,0.2,0,0.3,0,0.6c0,0.2,0,0.6,0,1.1c0,0.8,0.1,1.4,0.1,2.1c0,0.7,0,1.4-0.1,2.3c0,0.3,0,0.8,0,1.2l-0.1,9.3
		c0,0.4,0.1,0.7,0.2,0.8l1.9,0.1h1.1h1.2c2.1,0,3.7-0.2,5-0.7c0.9-0.3,1.4-0.8,1.8-1.1c0.4-0.4,0.8-0.8,1.1-1.2s0.6-1.2,1-2.2h0.7
		c0.3,0,0.7,0,1.1,0.1v0.6c0,0.9-0.1,2.5-0.3,4.9c-0.1,0.9-0.2,1.5-0.2,1.7c-0.3,0-0.4,0.1-0.6,0.1h-0.8h-1c-0.1,0-0.9,0-2.3-0.1
		c-0.2,0-1.5-0.1-3.7-0.1s-4.4-0.1-6.5-0.1l-4,0.1c-1.5,0-3,0.1-4.3,0.2h-0.3c-0.1,0-0.2,0-0.3,0c0-0.1,0-0.2,0-0.3
		C119.1,93.7,119.2,93.4,119.3,93.1z"/>
	<path class="st3" d="M143.1,94.7v-1.3c0.2-0.1,0.7-0.2,1.3-0.3c1-0.2,1.7-0.3,1.8-0.6c0.2-0.1,0.4-0.6,0.8-1.1l4-10.3l4.6-12.1
		c0.4,0,0.9,0,1.2,0h0.9l0.2,0.3l3.4,8c0.8,1.7,1.4,3.3,2.1,5c0.7,1.7,1.1,2.9,1.5,4c0.2,0.7,0.7,1.5,1.1,2.8
		c0.2,0.7,0.6,1.5,1.1,2.5c0.2,0.6,0.4,0.9,0.6,1c0.2,0.2,0.7,0.3,1.1,0.4c0.6,0.1,1.1,0.2,1.7,0.4c0.1,0.4,0.1,0.8,0.1,1
		c0,0.1,0,0.2,0,0.4c-1,0-2,0-3.2-0.1c-1.1-0.1-2.2-0.1-3.1-0.1c-1,0-1.8,0-2.2,0l-3.3,0.2h-1c0-0.4,0-0.9,0.1-1.3l2.2-0.4
		c0.7-0.2,1-0.3,1.1-0.4s0.2-0.3,0.2-0.4c0-0.2,0-0.3-0.1-0.6l-0.9-2.1l-1.5-3.9h-7.4c-0.3,0.7-0.9,2.1-1.8,4.5
		c-0.2,0.7-0.3,1.1-0.3,1.4s0.1,0.6,0.2,0.8c0.3,0.2,0.9,0.4,1.8,0.6c0.1,0,0.6,0.1,1.4,0.2c0,0.4,0,0.8,0,1c0,0.1,0,0.3,0,0.4
		c-0.8,0-2.8-0.1-5.7-0.3l-0.8,0.1c-1,0.1-1.9,0.2-2.8,0.2C143.6,94.7,143.1,94.7,143.1,94.7z M152.3,83.8c3,0,4.9,0.1,5.4,0.1h0.4
		c-0.4-1.1-0.9-2.5-1.5-4.1c-0.7-1.5-1.1-2.8-1.5-3.5L152.3,83.8z"/>
	<path class="st3" d="M168.7,69.7c0.3-0.1,1.2-0.1,2.4-0.1h0.2c0.3,0,0.6,0.1,0.7,0.1h0.2c0.2,0,0.8,0.1,1.5,0.1
		c1.7,0.1,2.9,0.2,3.9,0.2s2.1-0.1,3.1-0.2c0.1,0,0.2,0,0.3,0h0.1c0.1,0.2,0.1,0.3,0.1,0.4v1c-0.3,0.1-0.7,0.2-1.1,0.2l-0.9,0.1
		c-0.3,0.1-0.8,0.1-1.3,0.2l-0.1,0.1v0.2c0.4,0.9,1.3,2.3,2.8,4.3c0.3,0.7,0.8,1.2,1.1,1.8c0.1,0.1,0.4,0.8,1.1,1.8
		c0.1,0.1,0.1,0.2,0.2,0.3c0.1,0.2,0.2,0.3,0.3,0.6c0.2,0.3,0.3,0.6,0.4,0.7c0.2,0.4,0.4,0.8,0.7,1l2-2.9c0.7-0.9,1.5-2.1,2.5-3.7
		l0.1-0.1l1.7-3c0.2-0.3,0.4-0.7,0.4-0.9c0-0.1,0-0.2-0.1-0.3c-0.2-0.1-0.3-0.2-0.4-0.2c0,0-0.3,0-0.8-0.1c-0.2,0-0.6-0.1-0.8-0.1
		c-0.2,0-0.4-0.1-0.6-0.1c0-0.2-0.1-0.7-0.1-1.4l4,0.2c0.1,0,0.3,0,0.4,0.1h0.9h0.3c0.4-0.1,1-0.1,1.7-0.1c0.2,0,0.3,0,0.6-0.1v1.4
		l-0.2,0.1c-1.1,0.2-1.9,0.4-2.2,0.8c-0.6,0.4-1.3,1.5-2.3,3.2L189,79c-1.5,2.1-2.5,3.4-3,4.2c-0.1,0.2-0.2,0.4-0.3,0.7v0.6V86v0.4
		c0,0.3-0.1,0.7-0.1,1.1l0.1,5c0,0.1,0.1,0.2,0.2,0.2c0.2,0,0.6,0.1,1.2,0.2c1.2,0.1,2,0.2,2.1,0.3c0.1,0.1,0.1,0.2,0.1,0.4
		c0,0.1,0,0.2,0,0.4c0,0.1,0,0.3,0,0.6h-2.2l-2.1-0.2l-1.4-0.1l-2.2,0.1h-1.7c-0.2,0-0.4,0-0.9,0.1c-0.7,0.1-1.1,0.1-1.4,0.1h-1.3
		c0-0.2,0-0.4,0-0.7c0-0.1,0-0.3,0-0.7l3.5-0.8c0.1,0,0.3-0.1,0.4-0.2c0-0.6,0-1,0-1.1c0-2,0-3.3,0-4.1s0-1.1,0-1.2v-0.4
		c0-0.8-0.4-1.8-1.3-2.9c-0.3-0.4-0.6-0.8-0.7-0.9l-3.9-5.8l-1.8-2.9c-0.1-0.1-0.4-0.7-1.2-1.5c-0.2-0.2-0.4-0.3-0.7-0.4
		c-0.1,0-0.8-0.2-1.8-0.4c-0.1-0.1-0.1-0.2-0.1-0.3c0-0.1,0-0.2,0-0.3C168.7,70.1,168.7,69.9,168.7,69.7z"/>
	<path class="st3" d="M212.7,70.1c0.1,0.4,0.2,1.1,0.3,2c0.1,1.3,0.2,2.4,0.2,3.1c0,0.2,0,0.4-0.1,0.8l-0.2,0.1l-1.4-0.1h-0.2
		c-0.6-1.8-1.1-2.9-1.8-3.5c-1-1-2.1-1.5-3.5-1.5c-1.3,0-2.3,0.3-3,1c-0.8,0.7-1.1,1.5-1.1,2.5c0,0.9,0.3,1.7,1.1,2.4
		c0.8,0.8,2.3,1.5,4.6,2.2c0.8,0.2,1.8,0.7,2.9,1.1c1.1,0.6,2,1.1,2.5,1.7c0.8,0.8,1.3,1.5,1.7,2.3c0.3,0.8,0.4,1.7,0.4,2.8
		c0,1.2-0.2,2.4-0.7,3.6c-0.2,0.7-0.7,1.2-1.2,1.8c-0.4,0.4-1,0.9-1.8,1.3c-0.8,0.6-1.7,0.9-2.5,1.1c-0.9,0.2-2,0.3-3.4,0.3
		c-0.9,0-2-0.1-3.2-0.4l-2.2-0.6c-0.7-0.2-1.1-0.3-1.2-0.4c-0.1,0-0.1-0.2-0.2-0.3V93c0-0.1,0-1-0.1-2.6c0-0.9,0-1.4,0-1.8v-0.8h1.8
		c0.7,1.4,1,2.3,1.2,2.6c0.4,0.7,0.9,1.2,1.3,1.7s1.1,0.8,1.8,1c0.7,0.2,1.4,0.3,2.2,0.3c0.7,0,1.4-0.1,2.3-0.4
		c0.9-0.3,1.5-0.8,2-1.4c0.6-0.7,0.8-1.4,0.8-2.2c0-1-0.4-1.9-1.3-2.6c-0.6-0.6-2-1.2-4.4-2c-2.4-0.9-4.1-1.5-5-2.2
		c-0.9-0.7-1.7-1.5-2.2-2.6c-0.6-1.1-0.8-2.2-0.8-3.2c0-2.1,0.8-3.9,2.2-5.3c1.4-1.4,3.6-2.2,6.5-2.2c0.7,0,1.5,0.1,2.8,0.3
		C210.5,69.5,211.5,69.7,212.7,70.1z"/>
	<path class="st3" d="M218.2,94.7v-1.4c0.2-0.1,0.7-0.2,1.3-0.3c0.9-0.2,1.4-0.4,1.9-0.7c0.2-0.4,0.3-1,0.3-1.7v-2.3v-4.4v-1.1
		c0.1-2.5,0.1-3.9,0.1-4v-2.5l0.1-1.1l-0.1-2.2v-0.9c0-0.1-0.1-0.3-0.1-0.7c-0.6-0.2-1.4-0.4-2.5-0.4c-0.3,0-0.6,0-0.7-0.1v-1.8
		l5.5,0.2c0.7,0,1.1,0,1.3,0c0.8,0,2,0,3.6-0.1c1-0.1,1.5-0.1,1.8-0.1c0,0.2,0,0.4,0,0.7s0,0.6,0,0.9c-0.6,0.2-1.1,0.3-1.8,0.6
		c-0.7,0.1-1.2,0.3-1.7,0.4c-0.1,0.3-0.1,0.8-0.1,1.4c0,0.6,0,1,0.1,1.3c0,2.2-0.1,3.9-0.1,5.1v5.2l-0.1,2.6l0.1,3.9l-0.1,0.8
		c0,0.1,0,0.2,0.1,0.4c0.8,0.2,1.5,0.3,2.1,0.3c0.1,0,0.6,0.1,1.2,0.1c0,0.4,0.1,0.7,0.1,1c0,0.1,0,0.3,0,0.7c-0.2,0-0.3,0-0.4,0
		c-0.4,0-0.7,0-0.8,0c-0.1,0-0.2,0-0.6-0.1c-0.2,0-1-0.1-2.5-0.2H223c-0.7,0-1.7,0.1-3,0.2C219,94.7,218.4,94.7,218.2,94.7z"/>
	<path class="st3" d="M231.9,94.7v-1.3c0.2-0.1,0.7-0.2,1.3-0.3c1-0.2,1.7-0.3,1.8-0.6c0.2-0.1,0.4-0.6,0.8-1.1l4-10.3l4.6-12.1
		c0.4,0,0.9,0,1.2,0h0.9l0.2,0.3l3.4,8c0.8,1.7,1.4,3.3,2.1,5c0.7,1.7,1.1,2.9,1.5,4c0.2,0.7,0.7,1.5,1.1,2.8
		c0.2,0.7,0.6,1.5,1.1,2.5c0.2,0.6,0.4,0.9,0.6,1c0.2,0.2,0.7,0.3,1.1,0.4c0.6,0.1,1.1,0.2,1.7,0.4c0.1,0.4,0.1,0.8,0.1,1
		c0,0.1,0,0.2,0,0.4c-1,0-2,0-3.2-0.1c-1.1-0.1-2.2-0.1-3.1-0.1c-1,0-1.8,0-2.2,0l-3.3,0.2h-1c0-0.4,0-0.9,0.1-1.3l2.2-0.4
		c0.7-0.2,1-0.3,1.1-0.4s0.2-0.3,0.2-0.4c0-0.2,0-0.3-0.1-0.6l-0.8-1.9l-1.5-3.9h-7.4c-0.2,0.7-0.9,2.1-1.8,4.5
		c-0.2,0.7-0.3,1.1-0.3,1.4s0.1,0.6,0.2,0.8c0.3,0.2,0.9,0.4,1.8,0.6c0.1,0,0.6,0.1,1.4,0.2c0,0.4,0,0.8,0,1c0,0.1,0,0.3,0,0.4
		c-0.8,0-2.8-0.1-5.7-0.3l-0.8,0.1c-1,0.1-1.9,0.2-2.8,0.2h-0.6V94.7z M241.1,83.8c3,0,4.9,0.1,5.4,0.1h0.4
		c-0.4-1.1-0.9-2.5-1.5-4.1c-0.7-1.5-1.1-2.8-1.5-3.5L241.1,83.8z"/>
	<path class="st3" d="M258.7,71.1l-0.1-1.3h1.7h0.6c0.8,0,1.3-0.1,1.7-0.1c0.1,0,0.7,0,1.3,0c0.2,0,0.3,0,0.4,0s0.6,0,1.2,0
		c0.7,0,1.1,0,1.2,0c0.1,0,0.3,0,0.6,0c2,1.8,3.6,3.4,4.9,4.6c1.2,1.3,5.8,5.8,13.8,13.8v-0.4l-0.1-2.2c0-1.3-0.1-2.3-0.1-3.1
		c-0.1-0.8-0.1-1.7-0.1-2.8c0-1.1-0.1-2-0.1-2.9c-0.1-1.7-0.2-2.6-0.2-3c0-0.9-0.1-1.3-0.2-1.5c-0.2-0.3-0.9-0.6-1.9-0.7
		c-0.7-0.1-1.2-0.2-1.5-0.4V70l0.6-0.1l3.9-0.1l4.3-0.1c0.3,0,0.6,0,0.8,0v1.2c-0.3,0.1-0.6,0.2-0.9,0.3c-0.9,0.2-1.3,0.3-1.4,0.4
		c-0.7,0.3-1,0.6-1.1,0.7c-0.1,0.1-0.2,0.4-0.2,0.8c0,0.1,0,0.3,0,0.8c0,0.2,0,0.8,0,1.7c0,1.9,0.1,3.3,0.1,4.4c0,0.3,0,0.8,0.1,1.2
		l0.2,6.8c0,0.4,0,0.8,0,1v2.4l0.1,1l-0.1,1.1c0,0.6,0.1,0.9,0.1,1v1l-2.2,0.1l-2.3-2.4l-4.7-4.6l-3.3-3.3l-2.4-2.5
		c-1.5-1.5-3-3-4.3-4.1l-3.2-2.9l0.2,7.3c0,0.4,0,0.9,0,1.3v1.4l0.1,2.5c0,1.1,0.1,2.2,0.2,3.4c0,0.3,0.1,0.6,0.1,0.7
		c0,0.1,0.1,0.3,0.2,0.6c0.6,0.2,1.7,0.3,3.3,0.4c0.1,0,0.3,0.1,0.6,0.1l0.1,1.5h-0.8c-0.4,0-1.8-0.1-4-0.3c-2.1,0-3.4,0.1-4.1,0.1
		s-1.1,0.1-1.1,0.1c-0.1,0-0.3,0-0.7-0.1c0-0.3,0-0.6,0-0.8c0-0.1,0-0.3,0-0.7c0.3-0.1,0.7-0.1,0.9-0.1c0.1,0,0.3,0,0.8,0
		c1.1,0,1.8-0.1,2-0.2c0.2-0.1,0.3-0.6,0.3-1.3c0.1-2.1,0.1-3.3,0.1-3.7v-1.1v-6.3l-0.1-4c0-1.5-0.1-2.5-0.3-3.1
		c-0.1-0.3-0.2-0.6-0.4-0.8c-0.4-0.4-1-0.8-1.5-1.1C261,71.5,260.1,71.4,258.7,71.1z"/>
	<path class="st3" d="M304,99.8c0.6,0.9,1,1.4,1.4,1.8c0.2,0.1,0.4,0.1,0.6,0.1c0.3,0,0.6-0.1,0.8-0.4c0.3-0.4,0.4-1.2,0.4-2.2v-1.1
		c0-0.7,0-1.3,0.1-2c0-0.3,0-0.7,0-0.9c0-0.1,0-0.6,0-1.3v-1.4l-0.1-7.3c0-0.4,0-0.7,0-0.9c0-0.6-0.1-1-0.1-1.5v-4.2l-0.1-3.5
		l-0.1-1.3c0-1,0-1.5,0-1.8c-0.3-0.1-1.2-0.2-2.6-0.3h-0.4l-0.6-0.1c-0.1,0-0.2,0-0.3-0.1l-0.1-1.7c1.3,0,2.3,0,3.3,0.1
		c0.9,0.1,2.1,0.1,3.6,0.1c1.3,0,2.8-0.1,4.3-0.2c0.3,0,0.6-0.1,0.8-0.1c0.2,0,0.6,0,1,0.1c0,0.3,0,0.6,0,0.7c0,0.2,0,0.4-0.1,0.8
		c-1,0.1-1.5,0.2-1.9,0.2c-0.7,0-1.2,0.1-1.5,0.2c0,0.3,0,0.6,0,0.6c0,1.2,0,2,0,2.3c0,0.2,0,1,0,2.2v1.7l0.1,2.5v2l0.1,2v2.1v1.5
		c0,2.9-0.1,5.1-0.3,6.7c-0.2,1.7-0.7,2.9-1.2,3.9c-0.8,1.4-1.4,2.4-2.1,3.1c-1,1-2,1.7-3,2c-1,0.3-2,0.6-2.9,0.6
		c-0.9,0-1.7-0.3-2.3-1c-0.7-0.7-1-1.3-1-2.2c0-0.7,0.2-1.2,0.7-1.8c0.4-0.6,1-0.7,1.7-0.7C302.7,98.7,303.4,99,304,99.8z"/>
	<path class="st3" d="M318.7,81.8c0-1.7,0.3-3.2,0.9-4.9c0.4-1.2,1.1-2.2,1.9-3.2c0.8-1,1.9-1.9,3.1-2.6c1.2-0.8,2.5-1.3,3.7-1.7
		c1.3-0.3,2.8-0.6,4.3-0.6c2.6,0,5.1,0.6,7.1,1.5s3.5,2.4,4.6,4.1c1.4,2.2,2.2,4.6,2.2,7.1c0,3.6-1.2,6.8-3.7,9.5
		c-2.5,2.6-6,4-10.4,4c-1.1,0-2.1-0.1-3.1-0.2c-0.8-0.1-1.3-0.2-1.9-0.4c-1-0.3-1.5-0.6-1.7-0.6c-1.4-0.8-2.5-1.7-3.4-2.4
		c-0.9-0.9-1.5-1.8-2.2-2.9c-0.3-0.6-0.7-1.7-1.1-3.2C318.9,84.4,318.7,83.2,318.7,81.8z M331.9,71c-1.1,0-2.1,0.2-3,0.8
		c-0.9,0.6-1.5,1.1-2,1.8c-0.8,1.1-1.2,2.2-1.5,3.5c-0.3,1.3-0.4,2.9-0.4,4.6c0,1.1,0,1.9,0.1,2.4c0,0.1,0.1,0.4,0.1,0.8
		c0.1,1,0.2,1.7,0.4,2.1c0.6,1.7,1,2.6,1.2,3.1c0.4,0.7,1,1.3,1.8,2c0.4,0.3,1,0.7,1.7,0.9c0.7,0.2,1.4,0.4,2.2,0.4
		c1.4,0,2.6-0.3,3.9-1c1.2-0.7,2.2-1.8,2.9-3.3c0.7-1.5,1.1-3.6,1.1-6.2c0-1-0.1-2.4-0.2-4.2l-0.1-0.3c0-0.1-0.1-0.3-0.2-0.8
		c-0.4-2.1-1.4-3.7-2.8-4.9C335.7,71.7,334,71,331.9,71z"/>
	<path class="st3" d="M349.2,71.3l-0.1-1.5c0.2,0,0.4,0,0.8,0c0.7,0,1.3,0,2.1,0.1c1.8,0.1,2.8,0.1,3,0.1c1,0,2.1,0,3.1-0.1
		c1,0,1.9-0.1,2.6-0.1c0.8,0,1.3,0,1.5,0v0.2V71v0.1c-0.8,0.1-1.4,0.1-2.2,0.1s-1.2,0.1-1.4,0.4c-0.1,0.2-0.2,1-0.2,2.3
		c0,0.4,0,0.8,0,1v0.7v1.9l0.1,1.5l-0.1,3.3l0.2,4.9c0.1,1.4,0.3,2.5,0.9,3.5c0.4,0.7,1,1.2,1.8,1.7c1.1,0.6,2.2,0.8,3.2,0.8
		c1.2,0,2.4-0.1,3.5-0.4c0.7-0.2,1.2-0.4,1.8-0.9c0.6-0.4,1-0.8,1.2-1.1c0.4-0.7,0.8-1.4,1-2c0.2-0.9,0.3-2.2,0.3-4
		c0-3.1-0.2-6.6-0.6-10.6l-0.1-1c0-0.8-0.2-1.3-0.4-1.5c-0.4-0.4-0.9-0.6-1.4-0.6h-1.9l-0.2-0.1v-1.5h1.5l3.7,0.2
		c1.2,0,2.4-0.1,3.5-0.2h0.3c0.1,0.4,0.1,0.8,0.1,0.9c0,0.1,0,0.3-0.1,0.6c-0.4,0.1-1,0.2-1.5,0.2c-0.9,0.1-1.3,0.2-1.4,0.3
		c-0.2,0.1-0.2,0.4-0.2,0.8c0,0.2,0,0.6,0.1,1c0,0.3,0.1,0.9,0.1,1.7c0,0.4,0,0.8,0,1.1c0,0.2,0,0.6,0,0.8c0,0.9,0.1,1.9,0.1,2.9
		l0.2,4c0,2.6-0.1,4.4-0.2,5.3c-0.2,0.9-0.4,1.7-0.8,2.1c-0.4,0.8-1.2,1.5-2.1,2.1c-0.9,0.7-2,1.2-3.3,1.5c-1.3,0.3-2.9,0.6-4.6,0.6
		c-2,0-3.7-0.2-5.2-0.8c-1.4-0.6-2.5-1.2-3.3-2.1c-0.8-0.9-1.2-2-1.5-3.4c-0.2-1-0.3-2.3-0.3-4.1v-9.3c0-2.2-0.1-3.4-0.3-3.7
		c-0.3-0.4-1.2-0.7-2.6-0.7C349.7,71.3,349.4,71.3,349.2,71.3z"/>
	<path class="st3" d="M380.4,93.5c0.3-0.2,0.9-0.3,1.5-0.4c0.7-0.1,1.2-0.2,1.8-0.4c0.1-0.2,0.1-0.4,0.1-0.6c0-0.2,0-0.8,0-1.9v-4.3
		l0.1-2.3v-1.8v-1.1c0-1.4,0.1-2.8,0.1-4c0-2.6,0-4.4-0.1-5.2l-1.1-0.2c-1.1-0.1-1.8-0.1-2.1-0.2v-1.2l0.1-0.2
		c0.7-0.1,1.2-0.1,1.8-0.1c0.3,0,0.9,0,1.8,0c0.9,0.1,1.4,0.1,1.5,0.1l1-0.1l2.4-0.1c1.5-0.1,3.1-0.2,4.9-0.2c2.6,0,4.7,0.7,6.3,2
		c1.5,1.3,2.3,2.9,2.3,4.6c0,1.3-0.4,2.5-1.3,3.5c-0.9,1-2.1,1.9-3.9,2.4c0.1,0.2,0.3,0.6,0.7,1c0.6,0.8,1,1.4,1.3,2l3.1,5.1
		c0.8,1.3,1.3,2.1,1.5,2.3c0.2,0.2,0.8,0.4,1.4,0.8c0.6,0.2,1,0.4,1.3,0.7c0.1,0.2,0.1,0.4,0.1,0.6c0,0.1,0,0.2,0,0.4h-0.6h-0.4
		l-1-0.1h-0.8c-0.4-0.1-0.9-0.1-1.5-0.1h-2c-0.1,0-0.6,0-1.3,0.1c-0.3,0-0.7,0.1-0.9,0.1l-0.7-1.3c-0.6-1-0.9-1.7-1.1-2.2
		c-0.6-1.2-1.5-3.3-3-6c-0.7-1.3-1.1-2-1.3-2.2c-0.4-0.2-1.1-0.4-2-0.4c-0.2,0-0.7,0-1.3,0c0,0.3-0.1,0.8-0.1,1.3l0.1,4.3l-0.1,3.6
		c0.3,0.2,0.9,0.4,1.4,0.6c1,0.2,1.9,0.4,2.6,0.8c0,0.7,0,1.1-0.1,1.4c-0.2,0-0.4,0-0.4,0h-0.8c-2.8-0.2-4.4-0.3-5-0.3
		c-0.3,0-0.6,0-0.8,0l-2.6,0.2c-0.8,0.1-1.5,0.1-2.2,0.1h-0.9c0-0.3,0-0.6,0-0.7C380.3,94,380.3,93.9,380.4,93.5z M389.1,81
		c0.7,0,1.1,0,1.3,0c2.2,0,3.7-0.4,4.6-1.2c0.9-0.8,1.4-1.9,1.4-3.2c0-0.8-0.1-1.5-0.3-2.3c-0.2-0.8-0.6-1.2-0.9-1.7
		c-0.4-0.6-1.1-0.9-1.9-1.1c-0.6-0.2-1.4-0.3-2.8-0.3c-0.6,0-1.1,0-1.5,0.1v0.3v2.6l-0.1,1.5v2.1c0,0.6,0,1.3-0.1,2.3V81H389.1z"/>
	<path class="st3" d="M406.8,71.1l-0.1-1.3h1.7h0.6c0.8,0,1.3-0.1,1.7-0.1c0.1,0,0.7,0,1.3,0c0.2,0,0.3,0,0.4,0c0.1,0,0.6,0,1.2,0
		c0.7,0,1.1,0,1.2,0c0.1,0,0.3,0,0.6,0c2,1.8,3.6,3.4,4.9,4.6c1.2,1.3,5.8,5.8,13.8,13.8v-0.4l-0.1-2.2c0-1.3-0.1-2.3-0.1-3.1
		c-0.1-0.8-0.1-1.7-0.1-2.8c0-1.1-0.1-2-0.1-2.9c-0.1-1.7-0.2-2.6-0.2-3c0-0.9-0.1-1.3-0.2-1.5c-0.2-0.3-0.9-0.6-1.9-0.7
		c-0.7-0.1-1.2-0.2-1.5-0.4V70l0.6-0.1l3.9-0.1l4.3-0.1c0.3,0,0.6,0,0.8,0v1.2c-0.3,0.1-0.6,0.2-0.9,0.3c-0.9,0.2-1.3,0.3-1.4,0.4
		c-0.7,0.3-1,0.6-1.1,0.7c-0.1,0.1-0.2,0.4-0.2,0.8c0,0.1,0,0.3,0,0.8c0,0.2,0,0.8,0,1.7c0,1.9,0.1,3.3,0.1,4.4c0,0.3,0,0.8,0.1,1.2
		l0.2,6.8c0,0.4,0,0.8,0,1v2.4l0.1,1l-0.1,1.1c0,0.6,0.1,0.9,0.1,1v1l-2.2,0.1l-2.3-2.4l-4.7-4.6l-3.3-3.3l-2.4-2.5
		c-1.5-1.5-3-3-4.3-4.1l-3.2-2.9l0.2,7.3c0,0.4,0,0.9,0,1.3v1.4l0.1,2.5c0,1.1,0.1,2.2,0.2,3.4c0,0.3,0.1,0.6,0.1,0.7
		c0,0.1,0.1,0.3,0.2,0.6c0.6,0.2,1.7,0.3,3.3,0.4c0.1,0,0.3,0.1,0.6,0.1l0.1,1.5h-0.8c-0.4,0-1.8-0.1-4-0.3c-2.1,0-3.4,0.1-4.1,0.1
		s-1.1,0.1-1.1,0.1c-0.1,0-0.3,0-0.7-0.1c0-0.3,0-0.6,0-0.8c0-0.1,0-0.3,0-0.7c0.3-0.1,0.7-0.1,0.9-0.1c0.1,0,0.3,0,0.8,0
		c1.1,0,1.8-0.1,2-0.2c0.2-0.1,0.3-0.6,0.3-1.3c0.1-2.1,0.1-3.3,0.1-3.7v-1.1v-6.3l-0.1-4c0-1.5-0.1-2.5-0.3-3.1
		c-0.1-0.3-0.2-0.6-0.4-0.8c-0.4-0.4-1-0.8-1.5-1.1C409,71.5,408.1,71.4,406.8,71.1z"/>
	<path class="st3" d="M438.9,94.7v-1.3c0.2-0.1,0.7-0.2,1.3-0.3c1-0.2,1.7-0.3,1.8-0.6c0.2-0.1,0.4-0.6,0.8-1.1l4-10.3l4.6-12.1
		c0.4,0,0.9,0,1.2,0h0.9l0.2,0.3l3.4,8c0.8,1.7,1.4,3.3,2.1,5c0.7,1.7,1.1,2.9,1.5,4c0.2,0.7,0.7,1.5,1.1,2.8
		c0.2,0.7,0.6,1.5,1.1,2.5c0.2,0.6,0.4,0.9,0.6,1c0.2,0.2,0.7,0.3,1.1,0.4c0.6,0.1,1.1,0.2,1.7,0.4c0.1,0.4,0.1,0.8,0.1,1
		c0,0.1,0,0.2,0,0.4c-1,0-2,0-3.2-0.1c-1.1-0.1-2.2-0.1-3.1-0.1c-1,0-1.8,0-2.2,0l-3.3,0.2h-1c0-0.4,0-0.9,0.1-1.3l2.2-0.4
		c0.7-0.2,1-0.3,1.1-0.4c0.1-0.1,0.2-0.3,0.2-0.4c0-0.2,0-0.3-0.1-0.6l-0.8-1.9l-1.5-3.9h-7.4c-0.3,0.7-0.9,2.1-1.8,4.5
		c-0.2,0.7-0.3,1.1-0.3,1.4s0.1,0.6,0.2,0.8c0.3,0.2,0.9,0.4,1.8,0.6c0.1,0,0.6,0.1,1.4,0.2c0,0.4,0,0.8,0,1c0,0.1,0,0.3,0,0.4
		c-0.8,0-2.8-0.1-5.7-0.3l-0.8,0.1c-1,0.1-1.9,0.2-2.8,0.2h-0.6V94.7z M448,83.8c3,0,4.9,0.1,5.4,0.1h0.4c-0.4-1.1-0.9-2.5-1.5-4.1
		c-0.7-1.5-1.1-2.8-1.5-3.5L448,83.8z"/>
	<path class="st3" d="M466.4,93.1c0.4-0.1,1-0.2,1.7-0.3c0.8-0.1,1.2-0.1,1.3-0.1c0.6,0,0.9-0.1,1-0.2c0.1-0.3,0.1-0.6,0.1-0.8v-2.5
		l0.1-2.5v-1.7V83v-2l0.1-4.3v-2v-0.2c-0.1-1.3-0.2-2.1-0.2-2.2c-0.1-0.1-0.4-0.3-1.1-0.6c-0.1,0-0.3-0.1-0.8-0.3
		c-0.3-0.1-0.7-0.2-0.9-0.2c-0.4-0.1-0.8-0.2-1-0.4c0-0.3,0-0.6,0-0.8c0-0.1,0-0.2,0-0.4c0.1-0.1,0.2-0.1,0.3-0.1
		c0.3,0,1.4,0,3.4,0.1h2.8h2.1c0.9,0,2.1,0,3.4-0.1c0.4,0,0.7,0,0.8,0c0.2,0,0.3,0,0.4,0.1c0.1,0.1,0.1,0.4,0.1,0.8
		s-0.1,0.6-0.2,0.7c-0.1,0.1-0.3,0.2-0.9,0.2l-2.4,0.6c-0.1,0-0.2,0.1-0.3,0.1c0,0.1-0.1,0.2-0.1,0.2v0.6l-0.1,1.2v0.3v0.2
		c0,0.1,0,0.4,0,1.1c0,0.2,0,0.3,0,0.6c0,0.2,0,0.6,0,1.1c0,0.8,0.1,1.4,0.1,2.1c0,0.7,0,1.4-0.1,2.3c0,0.3,0,0.8,0,1.2l-0.1,9.3
		c0,0.4,0.1,0.7,0.2,0.8L478,93h1.1h1.2c2.1,0,3.7-0.2,5-0.7c0.9-0.3,1.4-0.8,1.8-1.1c0.4-0.4,0.8-0.8,1.1-1.2s0.6-1.2,1-2.2h0.7
		c0.3,0,0.7,0,1.1,0.1v0.6c0,0.9-0.1,2.5-0.3,4.9c-0.1,0.9-0.2,1.5-0.2,1.7c-0.3,0-0.4,0.1-0.6,0.1H489h-1c-0.1,0-0.9,0-2.3-0.1
		c-0.2,0-1.5-0.1-3.7-0.1c-2.2,0-4.4-0.1-6.5-0.1l-4,0.1c-1.5,0-3,0.1-4.3,0.2h-0.3c-0.1,0-0.2,0-0.3,0c0-0.1,0-0.2,0-0.3
		C466.2,93.7,466.3,93.4,466.4,93.1z"/>
	<path class="st3" d="M502.5,81.8c0-1.7,0.3-3.2,0.9-4.9c0.4-1.2,1.1-2.2,1.9-3.2c0.8-1,1.9-1.9,3.1-2.6c1.2-0.8,2.5-1.3,3.7-1.7
		c1.3-0.3,2.8-0.6,4.3-0.6c2.6,0,5.1,0.6,7.1,1.5c2,1,3.5,2.4,4.6,4.1c1.4,2.2,2.2,4.6,2.2,7.1c0,3.6-1.2,6.8-3.7,9.5
		c-2.5,2.6-6,4-10.4,4c-1.1,0-2.1-0.1-3.1-0.2c-0.8-0.1-1.3-0.2-1.9-0.4c-1-0.3-1.5-0.6-1.7-0.6c-1.4-0.8-2.5-1.7-3.4-2.4
		c-0.9-0.9-1.5-1.8-2.2-2.9c-0.3-0.6-0.7-1.7-1.1-3.2C502.6,84.4,502.5,83.2,502.5,81.8z M515.7,71c-1.1,0-2.1,0.2-3,0.8
		c-0.9,0.6-1.5,1.1-2,1.8c-0.8,1.1-1.2,2.2-1.5,3.5c-0.3,1.3-0.4,2.9-0.4,4.6c0,1.1,0,1.9,0.1,2.4c0,0.1,0.1,0.4,0.1,0.8
		c0.1,1,0.2,1.7,0.4,2.1c0.6,1.7,1,2.6,1.2,3.1c0.4,0.7,1,1.3,1.8,2c0.4,0.3,1,0.7,1.7,0.9c0.7,0.2,1.4,0.4,2.2,0.4
		c1.4,0,2.6-0.3,3.9-1c1.2-0.7,2.2-1.8,2.9-3.3c0.7-1.5,1.1-3.6,1.1-6.2c0-1-0.1-2.4-0.2-4.2l-0.1-0.3c0-0.1-0.1-0.3-0.2-0.8
		c-0.4-2.1-1.4-3.7-2.8-4.9C519.5,71.7,517.7,71,515.7,71z"/>
	<path class="st3" d="M533.4,94.8v-1.4c0.3-0.1,0.8-0.1,1.4-0.3c0.7-0.1,1.3-0.3,2-0.4l0.3-0.2c0.1-0.6,0.2-1.1,0.2-1.5v-0.1
		l-0.1-4.5v-1.9l-0.1-2.8v-3.3l-0.2-6.5c-0.2-0.2-0.8-0.3-1.9-0.6c-0.2,0-0.7-0.1-1.1-0.3l-0.4-0.1v-1.3l2.5,0.1
		c1.5,0.1,3.9,0.2,6.8,0.2c1.5,0,3.1,0,4.7-0.1h0.3h1h0.4h0.8l3.5-0.1c0.1,0,0.3,0,0.7,0c0.2,0,0.4,0,0.7-0.1
		c0.1,0.4,0.1,0.8,0.1,1.2l0.3,3.6c0,0.4,0,0.7-0.1,0.9c-0.4,0.1-0.8,0.1-1,0.1s-0.4-0.1-0.7-0.2c-0.1-0.1-0.2-0.3-0.4-0.9
		c-0.6-1.3-1-2.1-1.4-2.3s-1.4-0.3-3.2-0.3l-2.6,0.1c-1.1,0-2,0.1-2.6,0.2c-0.1,0-0.3,0.1-0.7,0.2c-0.2,0.3-0.2,0.7-0.2,1.1l0.1,2.3
		l-0.1,2.6c0,1.3,0,2.2,0.1,2.5c0.1,0.1,0.2,0.1,0.3,0.1h1.3h2.3c0.6,0,1.3-0.1,2.4-0.2c0.8-0.1,1.2-0.2,1.3-0.3
		c0.3-0.2,0.6-0.4,0.7-0.8s0.2-1.1,0.3-2.3c0.1,0,0.2,0,0.6,0c0.2,0,0.3,0,0.3,0c0.1,0,0.4,0,0.9,0.1l-0.1,3.1c0,0.7,0,1.2-0.1,1.8
		v0.4c0,0.1,0,1.1,0,2.9c0,0.1,0,0.3,0,0.6c-0.2,0-0.4,0.1-0.6,0.1s-0.3,0-0.8-0.1c-0.1-0.2-0.2-0.6-0.4-1.1c-0.3-1-0.7-1.7-1-1.8
		c-0.7-0.3-2.5-0.4-5.8-0.4c-0.4,0-1,0-1.7,0.1c-0.1,0.6-0.1,1.2-0.1,1.9l0.1,5.8c0,1.1,0.1,1.8,0.3,2c0.1,0.1,0.7,0.3,1.4,0.4h0.4
		c0.6,0,1.1,0.1,1.5,0.2l0.6,0.1c0,0.3,0.1,0.6,0.1,0.8c0,0.2,0,0.4-0.1,0.8h-0.3h-0.6l-2.8-0.1c-0.3,0-1.8,0-4.3,0
		c-0.7,0-1.4,0-2.1,0.1c-1,0.1-1.5,0.2-1.7,0.2C534.2,94.8,533.7,94.8,533.4,94.8z"/>
</g>
<g>
	<g class="st2">
		<path class="st3" d="M77.6,280.4c0.8-0.6,2.3-1.1,4.5-1.4c1.7-0.1,2.7-0.3,3-0.5c0.2-0.2,0.4-0.4,0.5-0.7c0.4-1.1,0.7-4.2,0.9-9.3
			c0.2-6.6,0.6-15.3,1.2-26.3c0.4-8.3,0.6-13.5,0.6-15.6v-1.2c-1.9-0.5-5-1-9.1-1.5c-0.3-0.5-0.4-0.8-0.4-1.1c0-0.2,0.1-0.4,0.3-0.8
			c0.5-0.2,0.8-0.3,1-0.3c0.2,0,0.7,0.1,1.4,0.2c1.3,0.2,3.1,0.3,5.4,0.3c0.7,0,2-0.1,3.8-0.2c1.3-0.1,2-0.2,2.1-0.2
			c0.4,0,0.9,0.1,1.5,0.3c0.3,0.3,0.5,0.6,0.6,0.9l1.7,4.3l11.3,29.1l4.7,12.2c3.7-8.5,6.5-16,8.6-22.7c0.1-0.5,0.3-0.9,0.5-1.3
			c0.2-0.5,0.5-1.1,0.7-1.8c0.2-0.6,1.1-3.1,2.6-7.4c0.6-1.7,1.1-3.2,1.5-4.4c1.5-4.9,2.4-7.8,2.7-8.5c0.5-0.2,0.9-0.4,1.3-0.4
			c0.4,0,1,0,1.6,0.1c1.5,0.1,3.9,0.1,7.3,0.1c2.1,0,3.8,0,5.1-0.1c0.1,0.3,0.1,0.6,0.1,0.7c0,0.2,0,0.5-0.1,0.9
			c-0.8,0.5-1.9,0.8-3.1,0.9c-2.4,0.2-3.9,0.4-4.5,0.6c-0.6,0.3-1,0.6-1.2,1.1c-0.2,0.4-0.3,1.9-0.5,4.3v2.1v2.2
			c0,4.6,0.1,12.4,0.3,23.4v9.1v5.8c0,2.3,0.1,3.6,0.3,4c0.2,0.4,0.7,0.8,1.6,1.2c1.4,0.6,3.8,1.1,7,1.7c0.2,0.2,0.3,0.4,0.3,0.6
			c0,0.3,0,0.6,0,0.9H143c-1.6,0-3.3-0.1-5.1-0.2c-1.8-0.1-2.8-0.2-3-0.2c-5.4,0-9.1,0.1-10.8,0.2c-1.1,0.1-1.8,0.2-2.1,0.2
			c-0.2,0-0.4-0.1-0.6-0.2v-0.6c0-0.3,0-0.6,0.1-0.9c0.9-0.4,2.1-0.7,3.6-0.9c1.7-0.5,2.9-1.1,3.7-1.7c0.2-1.2,0.4-3.6,0.4-7.2
			l-0.1-9.4c0-1,0-2.9,0.1-5.7c0.1-2.8,0.1-7.3,0.1-13.6c0-5-0.1-8.7-0.3-11.3c-0.4,1.1-1.3,3.4-2.7,7l-0.6,1.8l-0.1,0.3l-5.9,16.2
			l-2.1,6.2l-2.7,7.6c-1.2,3.5-2.2,6.6-3.1,9.3c-0.4,1.2-0.7,2.2-0.9,2.9H110c-3-10.2-6.6-20.7-10.7-31.4
			c-4.2-10.7-7.1-17.8-8.7-21.3c-0.2,1.3-0.5,5.2-0.7,11.6c-0.4,7.8-0.5,16.3-0.5,25.8c0,2.9,0.2,6.2,0.6,9.9c0.1,1,0.5,1.8,1.2,2.3
			c0.7,0.5,2.4,0.8,5.1,0.9c1.1,0,2.1,0.1,3,0.3c0.2,0.5,0.3,0.8,0.3,1c0,0.2-0.1,0.4-0.2,0.8L86.9,281c-0.9,0-2.3,0.1-4.2,0.2
			c-1.1,0.1-2.6,0.1-4.6,0.2L77.6,280.4z"/>
		<path class="st3" d="M171.8,257l-16,0.1h-3c-1.2,0-2.5,0.1-3.7,0.2c-0.2,0.9-0.4,1.6-0.4,1.9v0.5v0.5v2.3c0,1.9,0.5,4.2,1.5,6.9
			c1,2.7,2.5,4.8,4.4,6.2c1.9,1.4,4.3,2.2,7.1,2.3c1.5-0.1,2.7-0.3,3.6-0.6s2.2-1.1,3.8-2.4l2.9-2.7l0.2,1.9c0,0.2,0,0.4,0,0.7
			c-1.2,1.8-2.7,3.3-4.5,4.6c-1.8,1.3-3.7,2.3-5.6,2.9c-0.9,0.3-2.4,0.4-4.5,0.4c-1.9,0-3.7-0.4-5.6-1.3c-2.7-1.4-4.8-3.5-6.4-6.5
			c-1.6-3-2.3-6.7-2.3-10.9c0-1.4,0.2-3.1,0.7-5.2c0.4-2.1,1.2-4.4,2.4-6.8c0.8-1.6,1.7-3,2.8-4c1.6-1.5,3-2.5,4.2-3.1
			c1.7-0.8,3.7-1.3,6-1.3c2.5,0,4.5,0.5,6.1,1.6c2.1,1.4,3.7,3.2,4.8,5.4c1,2.2,1.6,4.2,1.6,6v0.4H171.8z M149.6,255.3h1.8
			c1.4,0,5.4-0.2,12.1-0.7c1.1-0.1,1.7-0.2,2-0.4c0.5-0.6,0.7-1.1,0.7-1.6c0-1-0.3-2-0.8-3.3c-0.5-1.2-1.3-2.2-2.4-2.8
			c-1.1-0.7-2.4-1-3.8-1c-3.1,0-5.5,1.3-7.4,4C150.3,251.6,149.6,253.5,149.6,255.3z"/>
		<path class="st3" d="M198.4,247.8v-1.3v-5.4v-10.2c0-2.8-0.3-4.6-0.8-5.4s-2.1-1.6-4.7-2.4c-0.2-0.1-0.5-0.2-0.9-0.3v-0.5
			c0-0.3,0-0.6,0.1-1c3.6-0.4,6.7-1.2,9.3-2.2h2c0.1,2.1,0.2,4.4,0.2,7l-0.2,17.8l0.3,20.2l-0.1,10.7c0,2.2,0.1,3.4,0.4,3.7
			c0.5,0.6,1.7,0.9,3.5,1c0.4,0,0.9,0,1.5,0.1v0.8c0,0.2,0,0.4,0,0.7c-0.8,0.2-1.7,0.4-2.5,0.6l-5.8,1.3c-0.8,0.2-1.5,0.3-2,0.3
			v-4.4c-0.5,0.2-1.2,0.5-2.1,0.9c-4.1,2-7.9,3.1-11.4,3.1c-2.1,0-4.2-0.8-6.4-2.4c-2.2-1.6-3.8-3.8-5-6.6s-1.8-5.7-1.8-8.7
			c0-2.7,0.4-5.2,1.2-7.6c0.8-2.4,1.8-4.4,3-6c0.8-1,1.9-2.1,3.4-3.1c1.5-1,2.7-1.7,3.6-2c2.4-0.7,3.9-1.1,4.7-1.1
			c3.6,0,6.5,0.6,8.8,1.9C197.5,247.4,198,247.7,198.4,247.8z M198.4,276.5c0.1-2.1,0.2-6.3,0.2-12.8c0-5.5-0.2-8.9-0.7-10.3
			c-0.4-1.4-1.5-2.8-3.3-4.1c-1.7-1.3-3.7-1.9-5.9-1.9c-3,0-5.6,1.4-7.7,4.1c-2.1,2.7-3.2,6.8-3.2,12.2c0,4.7,1.1,8.5,3.4,11.3
			c2.3,2.8,5.1,4.2,8.5,4.2c2,0,3.7-0.3,5.4-0.9C196.8,277.7,197.9,277.1,198.4,276.5z"/>
		<path class="st3" d="M207.4,248.6v-1.4c1.7-0.6,2.7-0.9,2.8-1c1-0.5,2-1.3,3-2.3s1.9-2.2,2.6-3.4c0.3-0.1,0.6-0.1,0.8-0.1h0.5
			c0.1,1.5,0.2,2.6,0.2,3.2c0,0.2,0,0.8-0.1,2.1v2.5v13.3l-0.1,14.1c0,1.1,0.1,1.9,0.5,2.4c0.3,0.4,1.4,0.9,3.1,1.5
			c1.1,0.3,1.9,0.6,2.4,0.9c0.1,0.2,0.1,0.4,0.1,0.6s-0.1,0.4-0.2,0.7c-1,0-2.4-0.1-4-0.2c-2.2-0.2-3.7-0.3-4.4-0.3
			c-0.3,0-2.5,0.1-6.4,0.2c-0.8,0-1.6,0.1-2.3,0.2c-0.1,0-0.3,0-0.6-0.1c-0.1-0.2-0.2-0.4-0.2-0.6c0-0.4,0.3-0.8,0.8-1
			c0.1-0.1,1.5-0.4,4.1-1.1c0.8-0.2,1.4-0.5,1.7-0.9c0.5-0.6,0.7-1.7,0.7-3.1c0.1-2.4,0.1-8.9,0.1-19.6c0-2.1-0.1-3.4-0.2-4
			c-0.1-0.4-0.5-0.8-1.1-1.3C210.5,249.6,209.3,249.1,207.4,248.6z M210.8,224.6c0-1,0.3-1.9,1-2.6c0.7-0.7,1.5-1.1,2.4-1.1
			c1,0,1.8,0.4,2.6,1.2c0.7,0.8,1.1,1.7,1.1,2.7c0,1-0.4,1.9-1.1,2.7c-0.7,0.8-1.6,1.3-2.6,1.3c-1,0-1.8-0.4-2.5-1.2
			C211.1,226.8,210.8,225.8,210.8,224.6z"/>
		<path class="st3" d="M250.7,273.1v3c-2.1,2.6-4.1,4.3-6.1,5.4c-2,1-4.4,1.5-7.1,1.5c-3,0-5.7-0.9-8-2.7c-2.4-1.8-4.2-4.4-5.5-7.7
			c-1.3-3.3-1.9-6.5-1.9-9.7c0-3.5,0.8-6.8,2.3-9.9c1.6-3.1,3.6-5.4,6.2-6.9c2.6-1.5,5.8-2.3,9.7-2.3c3.7,0,6.5,0.7,8.5,2.2
			c1.1,0.9,1.6,2,1.6,3.3c0,1-0.3,1.8-0.8,2.5c-0.6,0.6-1.3,1-2.1,1c-1.3,0-2.8-1-4.4-2.9c-1-1.2-1.9-2-2.7-2.4s-1.7-0.7-2.7-0.7
			c-2.4,0-4.3,1.1-5.9,3.4c-2.2,3.2-3.3,7.2-3.3,12.1c0,5,1.1,9,3.3,11.9c2.2,2.9,4.8,4.4,7.8,4.4c2.1,0,3.9-0.4,5.5-1.2
			C246.7,276.6,248.6,275.2,250.7,273.1z"/>
		<path class="st3" d="M250.2,248.6v-1.4c1.7-0.6,2.7-0.9,2.8-1c1-0.5,2-1.3,3-2.3s1.9-2.2,2.6-3.4c0.3-0.1,0.6-0.1,0.8-0.1h0.5
			c0.1,1.5,0.2,2.6,0.2,3.2c0,0.2,0,0.8-0.1,2.1v2.5v13.3l-0.1,14.1c0,1.1,0.1,1.9,0.5,2.4c0.3,0.4,1.4,0.9,3.1,1.5
			c1.1,0.3,1.9,0.6,2.4,0.9c0.1,0.2,0.1,0.4,0.1,0.6s-0.1,0.4-0.2,0.7c-1,0-2.4-0.1-4-0.2c-2.2-0.2-3.7-0.3-4.4-0.3
			c-0.3,0-2.5,0.1-6.4,0.2c-0.8,0-1.6,0.1-2.3,0.2c-0.1,0-0.3,0-0.6-0.1c-0.1-0.2-0.2-0.4-0.2-0.6c0-0.4,0.3-0.8,0.8-1
			c0.1-0.1,1.5-0.4,4.1-1.1c0.8-0.2,1.4-0.5,1.7-0.9c0.5-0.6,0.7-1.7,0.7-3.1c0.1-2.4,0.1-8.9,0.1-19.6c0-2.1-0.1-3.4-0.2-4
			c-0.1-0.4-0.5-0.8-1.1-1.3C253.4,249.6,252.2,249.1,250.2,248.6z M253.7,224.6c0-1,0.3-1.9,1-2.6c0.7-0.7,1.5-1.1,2.4-1.1
			c1,0,1.8,0.4,2.6,1.2c0.7,0.8,1.1,1.7,1.1,2.7c0,1-0.4,1.9-1.1,2.7c-0.7,0.8-1.6,1.3-2.6,1.3s-1.8-0.4-2.5-1.2
			C254,226.8,253.7,225.8,253.7,224.6z"/>
		<path class="st3" d="M263.2,280c0.7-0.2,1.4-0.4,2.3-0.6c1.7-0.3,2.7-0.6,3-1s0.5-1.2,0.5-2.5l0.1-1.7c0-0.6,0-1.4,0-2.4
			l-0.1-14.2c0-1.9-0.2-3.1-0.6-3.7c-0.7-0.9-2-1.5-4-1.8v-1.5c1.9-0.6,3.4-1.4,4.5-2.4c1.5-1.4,2.8-3.3,3.8-5.7h1.4
			c0.1,1.5,0.1,2.5,0.1,3.1v3.1v0.8c0.3-0.2,0.7-0.6,1.1-0.9c1.6-1.4,3.2-2.5,4.9-3.4s3.2-1.5,4.5-1.8c0.8-0.2,1.8-0.4,2.8-0.4
			c2.2,0,4,0.7,5.6,2c1.6,1.3,2.6,3,3,4.8c0.5,1.8,0.7,5.5,0.7,11v7c0,0.2,0,0.8-0.1,1.9c0,1.1-0.1,2.3-0.1,3.6
			c0,2.2,0.1,3.5,0.2,4.1c0.1,0.4,0.5,0.8,1,1.2c2.5,0.4,4,0.9,4.5,1.4v0.4c0,0.3-0.1,0.7-0.2,1.2h-0.8l-5.3-0.1l-5.2,0.1
			c-1.9,0.1-3.7,0-5.3,0l-0.2-1c0-0.2,0.1-0.4,0.3-0.7c0.7-0.4,1.7-0.6,3-0.7c0.8-0.1,1.3-0.2,1.6-0.3s0.7-0.4,1.1-0.7
			c0.3-0.7,0.5-1.4,0.5-1.9c0-0.2,0-0.6-0.1-1.3c-0.1-1.4-0.1-5-0.2-10.6V262l0.1-3.7c0-4-0.7-6.7-2.1-8.2s-3.2-2.3-5.5-2.3
			c-1.8,0-3.5,0.5-5.2,1.4c-1.7,0.9-3.3,2.3-4.9,4.1c-0.1,1.5-0.1,2.7-0.1,3.8l0.1,10.2c0,5.3,0.1,8.6,0.2,9.8
			c0.1,0.5,0.1,0.8,0.3,1s0.6,0.4,1.3,0.6c0.6,0.2,1.4,0.4,2.2,0.6c0.8,0.3,1.4,0.4,1.7,0.5c0.5,0.2,0.9,0.5,1.1,0.9v0.9h-4.2
			l-8.6-0.1c-2,0-3.3,0-3.8,0h-1l-0.1-0.6C263.1,280.7,263.1,280.4,263.2,280z"/>
		<path class="st3" d="M330.1,257l-16,0.1h-3c-1.2,0-2.5,0.1-3.7,0.2c-0.2,0.9-0.4,1.6-0.4,1.9v0.5v0.5v2.3c0,1.9,0.5,4.2,1.5,6.9
			s2.5,4.8,4.4,6.2c1.9,1.4,4.3,2.2,7.1,2.3c1.5-0.1,2.7-0.3,3.6-0.6s2.2-1.1,3.8-2.4l2.9-2.7l0.2,1.9c0,0.2,0,0.4,0,0.7
			c-1.2,1.8-2.7,3.3-4.5,4.6c-1.8,1.3-3.7,2.3-5.6,2.9c-0.9,0.3-2.4,0.4-4.5,0.4c-1.9,0-3.7-0.4-5.6-1.3c-2.7-1.4-4.8-3.5-6.4-6.5
			c-1.6-3-2.3-6.7-2.3-10.9c0-1.4,0.2-3.1,0.7-5.2c0.4-2.1,1.2-4.4,2.4-6.8c0.8-1.6,1.7-3,2.8-4c1.6-1.5,3-2.5,4.2-3.1
			c1.7-0.8,3.7-1.3,6-1.3c2.5,0,4.5,0.5,6.1,1.6c2.1,1.4,3.7,3.2,4.8,5.4c1,2.2,1.6,4.2,1.6,6v0.4H330.1z M307.8,255.3h1.9
			c1.4,0,5.4-0.2,12.1-0.7c1.1-0.1,1.7-0.2,2-0.4c0.5-0.6,0.7-1.1,0.7-1.6c0-1-0.3-2-0.8-3.3s-1.3-2.2-2.4-2.8c-1.1-0.7-2.4-1-3.8-1
			c-3.1,0-5.5,1.3-7.4,4C308.5,251.6,307.8,253.5,307.8,255.3z"/>
	</g>
	<g class="st2">
		<path class="st4" d="M372.5,275.2c0.2,0.4,0.2,0.7,0.2,0.9c0,0.5-0.3,1.3-1,2.5c-0.8,1.5-1.7,2.7-2.7,3.4
			c-0.6,0.5-1.5,0.7-2.6,0.7c-1.9,0-3.3-0.7-4.3-2c-0.6-0.8-1-2.2-1.2-4.3l-4.5,3.6c-1.6,1-2.8,1.7-3.6,2c-1.3,0.4-2.9,0.6-4.8,0.6
			c-1.4,0-2.4-0.5-3.2-1.4c-0.8-0.9-1.2-2.2-1.2-3.6c0-2.1,1.1-4.7,3.4-7.6s5.3-5.4,9.2-7.3c2.7-1.3,4.4-2.2,5-2.5
			c0.1-1,0.1-2.1,0.1-3.3c0-3.9-0.5-6.6-1.4-8s-2.3-2.1-4.1-2.1c-1.8,0-3.6,0.8-5.2,2.5c-1,1-1.7,3-2.2,5.9
			c-0.2,0.8-0.5,1.7-0.9,2.6c-1.1,0.9-2.1,1.3-2.7,1.3c-0.6,0-1.1-0.2-1.6-0.6c-0.3-0.2-0.4-0.5-0.4-0.7c0-0.8,0.7-2.6,2.2-5.4
			c1.5-2.8,3.3-4.9,5.6-6.3c2.2-1.4,4.2-2.1,5.9-2.1c2.3,0,4,0.2,5.1,0.7s2.1,1.3,2.9,2.5s1.4,2.5,1.6,3.9c0.1,0.7,0.2,3.1,0.2,7.3
			l-0.1,7.4v5.4c0,0.7,0,1.3,0,1.8c0,0.9,0,1.6,0,2c0,1,0.3,1.8,0.8,2.5c0.5,0.7,1.1,0.9,1.8,0.9c1,0,1.9-0.6,2.6-1.8l0.5-0.7
			C371.8,275.5,372,275.4,372.5,275.2z M360.8,273.9c0.2-3.9,0.3-6.7,0.3-8.3c0-0.8,0-2-0.1-3.4c-1.8,0.7-3.7,1.9-5.7,3.4
			c-2,1.5-3.6,3.3-4.8,5.2c-0.9,1.4-1.3,2.8-1.3,4s0.4,2.2,1.1,3c0.7,0.8,1.6,1.2,2.7,1.2c0.8,0,1.8-0.3,3-1
			C357.4,277.2,359.1,275.8,360.8,273.9z"/>
		<path class="st4" d="M369.8,280c0.7-0.2,1.4-0.4,2.3-0.6c1.7-0.3,2.7-0.6,3-1c0.3-0.4,0.5-1.2,0.5-2.5l0.1-1.7c0-0.6,0-1.4,0-2.4
			l-0.1-14.2c0-1.9-0.2-3.1-0.6-3.7c-0.7-0.9-2-1.5-4-1.8v-1.5c1.9-0.6,3.4-1.4,4.5-2.4c1.5-1.4,2.8-3.3,3.8-5.7h1.4
			c0.1,1.5,0.1,2.5,0.1,3.1v3.1v0.8c0.3-0.2,0.7-0.6,1.1-0.9c1.6-1.4,3.2-2.5,4.9-3.4c1.7-0.9,3.2-1.5,4.5-1.8
			c0.8-0.2,1.8-0.4,2.8-0.4c2.2,0,4,0.7,5.6,2c1.6,1.3,2.6,3,3,4.8c0.4,1.8,0.7,5.5,0.7,11v7c0,0.2,0,0.8-0.1,1.9
			c0,1.1-0.1,2.3-0.1,3.6c0,2.2,0.1,3.5,0.2,4.1c0.1,0.4,0.5,0.8,1,1.2c2.5,0.4,4,0.9,4.5,1.4v0.4c0,0.3-0.1,0.7-0.2,1.2h-0.7
			l-5.3-0.1l-5.2,0.1c-1.9,0.1-3.7,0-5.3,0l-0.2-1c0-0.2,0.1-0.4,0.3-0.7c0.7-0.4,1.7-0.6,3-0.7c0.8-0.1,1.3-0.2,1.6-0.3
			c0.3-0.1,0.7-0.4,1.1-0.7c0.3-0.7,0.5-1.4,0.5-1.9c0-0.2,0-0.6-0.1-1.3c-0.1-1.4-0.1-5-0.2-10.6V262l0.1-3.7c0-4-0.7-6.7-2.1-8.2
			c-1.4-1.5-3.2-2.3-5.5-2.3c-1.8,0-3.5,0.5-5.2,1.4s-3.3,2.3-4.9,4.1c-0.1,1.5-0.1,2.7-0.1,3.8l0.1,10.2c0,5.3,0.1,8.6,0.2,9.8
			c0.1,0.5,0.1,0.8,0.3,1c0.2,0.2,0.6,0.4,1.3,0.6c0.6,0.2,1.4,0.4,2.2,0.6c0.8,0.3,1.4,0.4,1.7,0.5c0.5,0.2,0.9,0.5,1.1,0.9v0.9
			h-4.2l-8.6-0.1c-2,0-3.3,0-3.8,0h-1l-0.1-0.6C369.7,280.7,369.7,280.4,369.8,280z"/>
		<path class="st4" d="M434.2,247.8v-1.3v-5.4v-10.2c0-2.8-0.3-4.6-0.8-5.4c-0.5-0.8-2.1-1.6-4.7-2.4c-0.2-0.1-0.5-0.2-0.9-0.3v-0.5
			c0-0.3,0-0.6,0.1-1c3.6-0.4,6.7-1.2,9.3-2.2h2c0.1,2.1,0.2,4.4,0.2,7l-0.2,17.8l0.3,20.2l-0.1,10.7c0,2.2,0.1,3.4,0.4,3.7
			c0.5,0.6,1.7,0.9,3.5,1c0.4,0,0.9,0,1.5,0.1v0.8c0,0.2,0,0.4,0,0.7c-0.8,0.2-1.7,0.4-2.5,0.6l-5.8,1.3c-0.8,0.2-1.5,0.3-2,0.3
			v-4.4c-0.5,0.2-1.2,0.5-2.1,0.9c-4.1,2-7.9,3.1-11.4,3.1c-2.1,0-4.2-0.8-6.4-2.4c-2.2-1.6-3.8-3.8-5-6.6c-1.2-2.8-1.8-5.7-1.8-8.7
			c0-2.7,0.4-5.2,1.2-7.6c0.8-2.4,1.8-4.4,3-6c0.8-1,1.9-2.1,3.4-3.1c1.5-1,2.7-1.7,3.6-2c2.4-0.7,3.9-1.1,4.7-1.1
			c3.6,0,6.5,0.6,8.8,1.9C433.3,247.4,433.8,247.7,434.2,247.8z M434.2,276.5c0.1-2.1,0.2-6.3,0.2-12.8c0-5.5-0.2-8.9-0.7-10.3
			c-0.4-1.4-1.5-2.8-3.3-4.1c-1.7-1.3-3.7-1.9-5.9-1.9c-3,0-5.6,1.4-7.7,4.1c-2.1,2.7-3.2,6.8-3.2,12.2c0,4.7,1.1,8.5,3.4,11.3
			c2.3,2.8,5.1,4.2,8.5,4.2c2,0,3.7-0.3,5.4-0.9C432.6,277.7,433.7,277.1,434.2,276.5z"/>
	</g>
	<g class="st2">
		<path class="st3" d="M109.6,359.5v-1c0.9-0.6,2-1,3.1-1.1c1.9-0.3,3.1-0.6,3.6-0.9c0.5-0.3,0.9-0.7,1.1-1.2c0.4-1,0.6-2.1,0.6-3.1
			l-0.1-3.5v-3.2l-0.1-3.8c0-1.6,0-3.5,0.1-5.9c0.1-2.4,0.1-3.6,0.1-3.8v-12.6c0-2,0-4.2,0.1-6.5c0.1-2.3,0.1-3.9,0.1-4.8
			c0-2.7-0.1-4.2-0.2-4.6c-0.1-0.4-0.3-0.7-0.6-0.9c-0.3-0.2-1.2-0.4-2.9-0.5c-1.2-0.1-2.1-0.2-2.6-0.3c-0.1-0.3-0.2-0.6-0.2-0.8
			c0-0.2,0-0.5,0-0.9c0.6-0.1,1.1-0.1,1.5-0.1h3.7c2.7,0,5.5-0.1,8.4-0.4c1.5-0.1,3.7-0.2,6.6-0.3c0.1,0.3,0.1,0.5,0.1,0.8
			s-0.1,0.5-0.2,0.7c-0.1,0.2-0.3,0.3-0.6,0.3c-3.5,0.3-5.5,0.8-6.2,1.5c-0.6,0.7-0.9,2.4-0.9,5.1c0,5,0.1,10.1,0.2,15.5l0.2,4.3
			c0.1,0.1,1.9,0.3,5.2,0.5c0.9,0.1,1.4,0.1,1.6,0.1l5.9-0.1l3.9,0.1l10.1-0.4c1.2,0,2-0.1,2.3-0.2c0.2-5.3,0.2-10.5,0.2-15.5
			c0-4.8-0.1-7.7-0.3-8.5c-0.1-0.5-0.3-0.9-0.6-1.1c-0.2-0.1-1.5-0.3-4.1-0.7c-0.5-0.1-0.9-0.1-1.3-0.2c-0.1-0.5-0.2-1-0.2-1.6
			c0.9-0.2,1.5-0.2,1.7-0.2l2.6,0.2c2.4,0.1,4.8,0.2,7.3,0.2c1.6,0,4.2-0.2,7.8-0.5c0,0.6-0.1,1.2-0.2,1.7c-1,0.5-2.2,0.8-3.6,0.9
			c-0.9,0.1-1.7,0.2-2.3,0.5c-0.5,0.4-0.8,1.3-0.8,2.6c0,0.3,0,0.6,0,1c0,1.1,0,1.8,0,2.2v5.3v3.3l-0.1,4.3v8.1l-0.1,7.6
			c0,1.5,0,3.9,0.1,7.1v6.2c0,2.1,0.2,3.6,0.5,4.5c0.2,0.4,0.4,0.7,0.8,0.9l3.2,0.8c1.6,0.5,2.5,0.8,2.8,1.1c0.3,0.3,0.5,0.6,0.5,1
			l-0.1,0.6h-0.2c-0.1,0-0.3,0-0.5-0.1c-2.9-0.6-5.9-0.9-9.1-0.9c-2.5,0-4.3,0-5.3,0.1c-1,0.1-3.2,0.4-6.5,1
			c-0.1-0.4-0.1-0.7-0.1-0.9c0-0.2,0-0.5,0.1-0.9c0.8-0.6,2.1-0.9,3.9-1.2c1.3-0.2,2.4-0.6,3.1-1.5c0.5-0.6,0.8-1.4,0.8-2.5v-6.7
			c0.1-2,0.1-3.1,0.1-3.3c0-2.6,0-6.4-0.1-11.5c-0.1-0.4-0.2-0.7-0.4-0.8c-0.7-0.3-4.2-0.2-10.6,0.2c-1.3,0.1-2.2,0.1-2.9,0.1
			c-0.6,0-2,0-4-0.1c-2-0.1-3.9-0.1-5.6-0.1c-0.9,0-1.7,0-2.3,0c-1.2,0-1.9,0-2,0c-0.6,0-1,0.1-1.3,0.4c-0.2,0.3-0.3,0.8-0.3,1.5
			v3.2c0,0.5-0.1,3.4-0.2,8.7c0,1.1,0,2,0,2.7c0,4.2,0.1,7,0.4,8.4c0.1,0.6,0.4,1.1,0.7,1.3c0.2,0.2,1.3,0.5,3.1,1
			c1.2,0.3,2.1,0.6,2.8,0.9l0.2,0.5c0,0.2-0.1,0.3-0.2,0.4c-0.2,0.2-0.4,0.2-0.7,0.2c-0.2,0-0.5,0-0.8,0s-0.9,0-1.7-0.1
			c-1.4,0-3-0.1-5.1-0.3c-1.3-0.1-2.5-0.2-3.5-0.2c-1.7,0-4.4,0.1-8.2,0.3C110.7,359.5,110.1,359.5,109.6,359.5z"/>
		<path class="st3" d="M196.7,334.3l-16,0.1h-3c-1.2,0-2.5,0.1-3.7,0.2c-0.2,0.9-0.4,1.6-0.4,1.9v0.5v0.5v2.3c0,1.9,0.5,4.2,1.5,6.9
			c1,2.7,2.5,4.8,4.4,6.2s4.3,2.2,7.1,2.3c1.5-0.1,2.7-0.3,3.6-0.6c0.9-0.3,2.2-1.1,3.8-2.4l2.9-2.7l0.2,1.9c0,0.2,0,0.4,0,0.7
			c-1.2,1.8-2.7,3.3-4.5,4.6c-1.8,1.3-3.7,2.3-5.6,2.9c-0.9,0.3-2.4,0.4-4.5,0.4c-1.9,0-3.7-0.4-5.6-1.3c-2.7-1.4-4.8-3.5-6.4-6.5
			c-1.6-3-2.3-6.7-2.3-10.9c0-1.4,0.2-3.1,0.7-5.2c0.4-2.1,1.2-4.4,2.4-6.8c0.8-1.6,1.7-3,2.8-4c1.6-1.5,3-2.5,4.2-3.1
			c1.7-0.8,3.7-1.3,6-1.3c2.5,0,4.5,0.5,6.1,1.6c2.1,1.4,3.7,3.2,4.8,5.4c1,2.2,1.6,4.2,1.6,6v0.4H196.7z M174.4,332.6h1.9
			c1.4,0,5.4-0.2,12.1-0.7c1.1-0.1,1.7-0.2,2-0.4c0.5-0.6,0.7-1.1,0.7-1.6c0-1-0.3-2-0.8-3.3c-0.5-1.2-1.3-2.2-2.4-2.8
			c-1.1-0.7-2.4-1-3.8-1c-3.1,0-5.5,1.3-7.4,4C175.1,328.8,174.4,330.7,174.4,332.6z"/>
		<path class="st3" d="M226.7,352.4c0.2,0.4,0.2,0.7,0.2,0.9c0,0.5-0.3,1.3-1,2.5c-0.8,1.5-1.7,2.7-2.7,3.4
			c-0.6,0.5-1.5,0.7-2.6,0.7c-1.9,0-3.3-0.7-4.3-2c-0.6-0.8-1-2.2-1.2-4.3l-4.5,3.6c-1.6,1-2.8,1.7-3.6,2c-1.3,0.4-2.9,0.6-4.8,0.6
			c-1.4,0-2.4-0.5-3.2-1.4s-1.2-2.2-1.2-3.6c0-2.1,1.1-4.7,3.4-7.6c2.3-2.9,5.3-5.4,9.2-7.3c2.7-1.3,4.4-2.2,5-2.5
			c0.1-1,0.1-2.1,0.1-3.3c0-3.9-0.5-6.6-1.4-8s-2.3-2.1-4.1-2.1s-3.6,0.8-5.2,2.5c-1,1-1.7,3-2.2,5.9c-0.2,0.8-0.5,1.7-0.9,2.6
			c-1.1,0.9-2.1,1.3-2.7,1.3s-1.1-0.2-1.6-0.6c-0.3-0.2-0.4-0.5-0.4-0.7c0-0.8,0.7-2.6,2.2-5.4c1.5-2.8,3.3-4.9,5.6-6.3
			c2.2-1.4,4.2-2.1,5.9-2.1c2.3,0,4,0.2,5.1,0.7c1.1,0.5,2.1,1.3,2.9,2.5c0.8,1.2,1.4,2.5,1.6,3.9c0.1,0.7,0.2,3.1,0.2,7.3l-0.1,7.4
			v5.4c0,0.7,0,1.3,0,1.8c0,0.9,0,1.6,0,2c0,1,0.3,1.8,0.8,2.5c0.5,0.6,1.1,0.9,1.8,0.9c1,0,1.9-0.6,2.6-1.8l0.5-0.7
			C225.9,352.7,226.2,352.6,226.7,352.4z M214.9,351.1c0.2-3.9,0.3-6.7,0.3-8.3c0-0.8,0-2-0.1-3.4c-1.8,0.7-3.7,1.9-5.7,3.4
			c-2,1.5-3.6,3.3-4.8,5.2c-0.9,1.4-1.3,2.8-1.3,4s0.4,2.2,1.1,3c0.7,0.8,1.6,1.2,2.7,1.2c0.8,0,1.8-0.3,3-1
			C211.6,354.4,213.2,353,214.9,351.1z"/>
		<path class="st3" d="M224.5,301.3v-1c0.7-0.3,1.6-0.6,2.5-0.9c1.3-0.5,3.3-1.2,5.9-2.3h1.9c0,1.5,0,2.3,0,2.5
			c0,25.4-0.1,40.6-0.2,45.4c-0.1,2.9-0.1,4.4-0.1,4.6c0,3.5,0.1,5.4,0.4,5.8c0.3,0.6,1.3,0.9,2.9,1.2c1.6,0.2,2.6,0.4,2.9,0.6
			c0.2,0.1,0.3,0.3,0.3,0.6s-0.1,0.6-0.2,0.7c-0.1,0.1-0.3,0.2-0.7,0.2c-0.2,0-1.6-0.1-4.2-0.2l-5.2-0.2l-6.7,0.4
			c-0.4,0-0.7-0.1-1-0.3c-0.2-0.2-0.2-0.4-0.2-0.7c0-0.3,0.1-0.5,0.3-0.7c0.2-0.1,1.1-0.4,2.9-0.7c1.7-0.3,2.7-0.6,3-0.9
			c0.3-0.2,0.4-0.7,0.5-1.5c0.1-1.1,0.2-4.2,0.2-9.4v-10.6l0.1-11v-11l0.1-5.4c0-1.1-0.1-1.9-0.4-2.3c-0.3-0.5-0.9-0.9-1.9-1.4
			C226,302.1,225,301.6,224.5,301.3z"/>
		<path class="st3" d="M247.5,312.9h1.2l0.2,4.4l-0.1,5.7c0.5,0,0.8,0,1,0c0.7,0,2-0.1,3.9-0.2c1.2-0.1,2.4-0.1,3.6-0.1
			c0.5,0,1.3,0,2.4,0c0.1,0.6,0.1,1.1,0.1,1.5c0,0.4-0.1,1-0.2,1.9H259l-6.2,0.2l-3.1,0.1l-0.7,0.1c-0.2,0.8-0.3,1.7-0.3,2.7
			l0.1,6.9l-0.1,12.2c0,3.2,0.4,5.3,1.1,6.4c0.7,1.1,1.7,1.6,3.1,1.6c0.7,0,2-0.2,3.9-0.7c0.6-0.2,1.4-0.7,2.3-1.5h0.4
			c0.2,0,0.4,0.1,0.6,0.3c0.1,0.2,0.2,0.4,0.2,0.7v0.3c-1.1,1.4-2.4,2.5-3.9,3.2c-1.5,0.7-3.4,1-5.9,1c-1.7,0-3.2-0.5-4.3-1.4
			s-1.9-2-2.2-3.3c-0.3-1.3-0.5-4-0.5-8.3l0.2-10.4v-5v-1.9c0-0.9,0-1.7-0.1-2.6h-0.7l-3.3,0.1h-0.3c-0.3,0-0.5-0.1-0.7-0.2
			c-0.1-0.2-0.2-0.3-0.2-0.6c0-0.4,0.1-0.7,0.3-0.9c0.2-0.2,0.8-0.6,1.8-1.1c0.7-0.3,1.5-1,2.4-1.9s1.7-2,2.3-3.1
			c0.3-0.6,0.8-1.8,1.4-3.5C247,314.3,247.3,313.4,247.5,312.9z"/>
		<path class="st3" d="M256.6,357.6c3.1-0.6,4.9-1.1,5.4-1.5c0.3-0.2,0.4-0.7,0.4-1.5v-3.1v-5.4l-0.1-13.8v-5.1v-3.7l0.1-4.5
			c0-7-0.1-11.2-0.2-12.6c-0.1-1.4-0.4-2.2-0.7-2.6c-0.6-0.7-2.4-1.4-5.3-2.2v-0.2c0-0.2,0-0.5,0.1-0.9c0.4-0.1,0.7-0.1,1.1-0.2
			c0.3-0.1,0.7-0.2,1-0.2c3.2-1,5.5-2.1,6.9-3.1h2c0.1,0.9,0.1,3.6,0.1,8.2v5.9v7.6l-0.2,9.4c0,0.6,0,1.2,0.1,1.9
			c1.7-2.3,2.9-3.8,3.7-4.5c1.4-1.3,2.9-2.3,4.4-3.1c1.6-0.8,3.2-1.1,4.9-1.1c3.3,0,5.9,1.6,8,4.8c1.2,1.9,1.8,4.5,1.8,8l-0.1,4.7
			v2.6l-0.2,4.6c-0.1,3.8-0.2,6-0.2,6.7c0,0.8,0,1.9,0.1,3.2l2.3,0.6c1.5,0.4,2.7,0.7,3.5,1v1.4l-8.5-0.3c-0.5,0-1.8,0.1-3.9,0.2
			c-1.3,0.1-2.1,0.1-2.3,0.1h-0.9c-0.1-0.3-0.2-0.5-0.2-0.7v-0.4c0.4-0.6,1.1-0.9,2.1-1.1l2.4-0.6c0.3-0.3,0.5-0.6,0.6-1
			c0.1-0.8,0.2-4.8,0.4-11.9l0.1-3.4c0.1-3.6-0.1-6.6-0.7-9c-0.4-1.6-1.2-2.9-2.5-3.9c-1.3-1-2.8-1.5-4.6-1.5
			c-1.4,0-2.8,0.4-4.1,1.1c-0.9,0.5-1.9,1.4-3.2,2.7c-1.2,1.3-2.1,2.4-2.6,3.3c-0.3,0.6-0.5,1.6-0.5,3v3.2l-0.1,3.4
			c0,0.3,0,2.2,0.1,5.8v3l0.1,3.2c0,0.5,0.1,0.8,0.1,1l5.6,1.6c0.3,0.1,0.7,0.3,1.3,0.6l0.1,0.5c0,0.2-0.1,0.4-0.2,0.8
			c-0.8,0-1.4,0-1.8,0h-3.1l-6.8,0.1l-5.1,0.2c-0.3,0-0.7-0.1-1.2-0.1v-0.3C256.3,358.3,256.4,357.9,256.6,357.6z"/>
		<path class="st3" d="M338.9,301.5c0.2,2,0.3,3.2,0.3,3.5l-0.2,4.1c-0.1,1.8-0.1,2.9-0.2,3.4c-0.2,0.1-0.4,0.2-0.6,0.2l-0.4-0.1
			c-0.8-4.3-2.3-7.5-4.3-9.4c-2-1.9-4.5-3-7.4-3c-3,0-5.5,1-7.4,3c-1.9,2-2.9,4.3-2.9,6.9c0,2,0.7,3.8,2,5.5
			c1.3,1.7,4.8,4.2,10.4,7.5c4.2,2.6,7.3,4.6,9.1,6.3c1.8,1.6,3.2,3.5,4.1,5.6c0.9,2.1,1.4,4.5,1.4,7.1c0,3.3-0.7,6.4-2.2,9.3
			c-1.5,2.9-3.5,5.1-6,6.6s-5.8,2.2-9.9,2.2c-3.6,0-7-0.7-10.3-2c-1.9-0.8-3.1-1.4-3.5-1.9c-0.4-0.5-0.6-1-0.6-1.6
			c0-0.3,0-0.8,0.1-1.3c0.4-3.6,0.6-6.6,0.6-9c0.1-1.4,0.1-2.3,0.3-2.5c0.1-0.2,0.3-0.3,0.6-0.3c0.2,0,0.4,0.1,0.6,0.3
			c0.1,0.2,0.2,0.6,0.3,1.1c0.3,3.8,1.8,7.2,4.5,10.2c2.7,3,5.8,4.5,9.2,4.5c2.1,0,4-0.5,5.8-1.5c1.8-1,3.1-2.5,4.1-4.4
			c1-1.9,1.5-3.8,1.5-5.6c0-2.5-0.8-4.8-2.3-6.8c-1.5-2-4.6-4.5-9.1-7.2c-4.5-2.7-7.5-4.8-8.9-6c-2.2-2.1-3.9-4.3-5-6.6
			c-0.8-1.8-1.2-3.9-1.2-6.2c0-4.3,1.5-7.9,4.4-10.9c2.9-3,6.8-4.5,11.7-4.5c2.7,0,5,0.4,7,1.1C335.9,299.4,337.4,300.3,338.9,301.5
			z"/>
		<path class="st3" d="M373.2,350.3v3c-2.1,2.6-4.1,4.3-6.1,5.4c-2,1-4.4,1.5-7.1,1.5c-3,0-5.7-0.9-8-2.7c-2.4-1.8-4.2-4.4-5.5-7.7
			c-1.3-3.3-1.9-6.5-1.9-9.7c0-3.5,0.8-6.8,2.3-9.9c1.6-3.1,3.6-5.4,6.2-6.9c2.6-1.5,5.8-2.3,9.7-2.3c3.7,0,6.5,0.7,8.5,2.2
			c1.1,0.9,1.6,2,1.6,3.3c0,1-0.3,1.8-0.8,2.5c-0.6,0.6-1.3,1-2.1,1c-1.3,0-2.8-1-4.4-2.9c-1-1.2-1.9-2-2.7-2.4
			c-0.8-0.4-1.7-0.7-2.7-0.7c-2.4,0-4.3,1.1-5.9,3.4c-2.2,3.2-3.3,7.2-3.3,12.1c0,5,1.1,9,3.3,11.9c2.2,3,4.8,4.4,7.8,4.4
			c2.1,0,3.9-0.4,5.5-1.2C369.2,353.8,371.1,352.4,373.2,350.3z"/>
		<path class="st3" d="M372.7,325.8v-1.4c1.7-0.6,2.7-0.9,2.8-1c1-0.5,2-1.3,3-2.3c1-1,1.9-2.2,2.6-3.4c0.3-0.1,0.6-0.1,0.8-0.1h0.5
			c0.1,1.5,0.2,2.6,0.2,3.2c0,0.2,0,0.8-0.1,2.1v2.5v13.3l-0.1,14.1c0,1.1,0.1,1.9,0.5,2.4c0.3,0.4,1.4,0.9,3.1,1.5
			c1.1,0.3,1.9,0.6,2.4,0.9c0.1,0.2,0.1,0.4,0.1,0.6s-0.1,0.4-0.2,0.7c-1,0-2.4-0.1-4-0.2c-2.2-0.2-3.7-0.3-4.4-0.3
			c-0.3,0-2.5,0.1-6.4,0.2c-0.8,0-1.6,0.1-2.3,0.2c-0.1,0-0.3,0-0.6-0.1c-0.1-0.2-0.2-0.4-0.2-0.6c0-0.4,0.3-0.8,0.8-1
			c0.1-0.1,1.5-0.4,4.1-1.1c0.8-0.2,1.4-0.5,1.7-0.9c0.5-0.6,0.7-1.7,0.7-3.1c0.1-2.4,0.1-8.9,0.1-19.6c0-2.1-0.1-3.4-0.2-4
			c-0.1-0.4-0.5-0.8-1.1-1.3C375.8,326.8,374.6,326.3,372.7,325.8z M376.1,301.8c0-1,0.3-1.9,1-2.6c0.7-0.7,1.5-1.1,2.4-1.1
			c1,0,1.8,0.4,2.6,1.3c0.7,0.8,1.1,1.7,1.1,2.7s-0.4,1.9-1.1,2.7c-0.7,0.8-1.6,1.3-2.6,1.3s-1.8-0.4-2.5-1.2
			C376.3,304.1,376.1,303,376.1,301.8z"/>
		<path class="st3" d="M415.7,334.3l-16,0.1h-3c-1.2,0-2.5,0.1-3.7,0.2c-0.2,0.9-0.4,1.6-0.4,1.9v0.5v0.5v2.3c0,1.9,0.5,4.2,1.5,6.9
			c1,2.7,2.5,4.8,4.4,6.2s4.3,2.2,7.1,2.3c1.5-0.1,2.7-0.3,3.6-0.6s2.2-1.1,3.8-2.4l2.9-2.7l0.2,1.9c0,0.2,0,0.4,0,0.7
			c-1.2,1.8-2.7,3.3-4.5,4.6s-3.7,2.3-5.6,2.9c-0.9,0.3-2.4,0.4-4.5,0.4c-1.9,0-3.7-0.4-5.6-1.3c-2.7-1.4-4.8-3.5-6.4-6.5
			c-1.6-3-2.3-6.7-2.3-10.9c0-1.4,0.2-3.1,0.7-5.2c0.4-2.1,1.2-4.4,2.4-6.8c0.8-1.6,1.7-3,2.8-4c1.6-1.5,3-2.5,4.2-3.1
			c1.7-0.8,3.7-1.3,6-1.3c2.5,0,4.5,0.5,6.1,1.6c2.1,1.4,3.7,3.2,4.8,5.4c1,2.2,1.6,4.2,1.6,6v0.4H415.7z M393.4,332.6h1.9
			c1.4,0,5.4-0.2,12.1-0.7c1.1-0.1,1.7-0.2,2-0.4c0.5-0.6,0.7-1.1,0.7-1.6c0-1-0.3-2-0.8-3.3c-0.5-1.2-1.3-2.2-2.4-2.8
			c-1.1-0.7-2.4-1-3.8-1c-3.1,0-5.5,1.3-7.4,4C394.2,328.8,393.4,330.7,393.4,332.6z"/>
		<path class="st3" d="M414.7,357.2c0.7-0.2,1.4-0.4,2.3-0.6c1.7-0.3,2.7-0.6,3-1c0.3-0.4,0.5-1.2,0.5-2.5l0.1-1.7
			c0-0.6,0-1.4,0-2.4l-0.1-14.2c0-1.9-0.2-3.1-0.6-3.7c-0.7-0.9-2-1.5-4-1.8v-1.5c1.9-0.6,3.4-1.4,4.5-2.4c1.5-1.4,2.8-3.3,3.8-5.7
			h1.4c0.1,1.5,0.1,2.5,0.1,3.1v3.1v0.8c0.3-0.2,0.7-0.6,1.1-0.9c1.6-1.4,3.2-2.5,4.9-3.4c1.7-0.9,3.2-1.5,4.5-1.8
			c0.8-0.2,1.8-0.4,2.8-0.4c2.2,0,4,0.7,5.6,2c1.6,1.4,2.6,3,3,4.8c0.5,1.8,0.7,5.5,0.7,11v7c0,0.2,0,0.8-0.1,1.9
			c0,1.1-0.1,2.3-0.1,3.6c0,2.2,0.1,3.5,0.2,4.1c0.1,0.4,0.5,0.8,1,1.2c2.5,0.4,4,0.9,4.5,1.4v0.4c0,0.3-0.1,0.7-0.2,1.2h-0.8
			l-5.3-0.1l-5.2,0.1c-1.9,0.1-3.7,0-5.3,0l-0.2-1c0-0.2,0.1-0.4,0.3-0.7c0.7-0.4,1.7-0.6,3-0.7c0.8-0.1,1.3-0.2,1.6-0.3
			c0.3-0.1,0.7-0.4,1.1-0.7c0.3-0.7,0.5-1.4,0.5-1.9c0-0.2,0-0.6-0.1-1.3c-0.1-1.4-0.1-5-0.2-10.6v-2.4l0.1-3.7c0-4-0.7-6.7-2.1-8.2
			s-3.2-2.3-5.5-2.3c-1.8,0-3.5,0.5-5.2,1.4s-3.3,2.3-4.9,4.1c-0.1,1.5-0.1,2.7-0.1,3.8l0.1,10.2c0,5.3,0.1,8.6,0.2,9.8
			c0.1,0.5,0.1,0.8,0.3,1c0.2,0.2,0.6,0.4,1.3,0.6s1.4,0.4,2.2,0.6c0.8,0.3,1.4,0.4,1.7,0.5c0.5,0.2,0.9,0.5,1.1,0.9v0.9h-4.1
			l-8.6-0.1c-2,0-3.3,0-3.8,0h-1l-0.1-0.6C414.6,357.9,414.6,357.6,414.7,357.2z"/>
		<path class="st3" d="M481.8,350.3v3c-2.1,2.6-4.1,4.3-6.1,5.4c-2,1-4.4,1.5-7.1,1.5c-3,0-5.7-0.9-8-2.7c-2.4-1.8-4.2-4.4-5.5-7.7
			c-1.3-3.3-1.9-6.5-1.9-9.7c0-3.5,0.8-6.8,2.3-9.9c1.6-3.1,3.6-5.4,6.2-6.9s5.8-2.3,9.7-2.3c3.7,0,6.5,0.7,8.5,2.2
			c1.1,0.9,1.6,2,1.6,3.3c0,1-0.3,1.8-0.8,2.5c-0.6,0.6-1.3,1-2.2,1c-1.3,0-2.8-1-4.4-2.9c-1-1.2-1.9-2-2.7-2.4
			c-0.8-0.4-1.7-0.7-2.7-0.7c-2.4,0-4.3,1.1-5.9,3.4c-2.2,3.2-3.3,7.2-3.3,12.1c0,5,1.1,9,3.3,11.9c2.2,2.9,4.8,4.4,7.8,4.4
			c2.1,0,3.9-0.4,5.5-1.2C477.8,353.8,479.7,352.4,481.8,350.3z"/>
		<path class="st3" d="M510.6,334.3l-16,0.1h-3c-1.2,0-2.5,0.1-3.7,0.2c-0.2,0.9-0.4,1.6-0.4,1.9v0.5v0.5v2.3c0,1.9,0.5,4.2,1.5,6.9
			s2.5,4.8,4.4,6.2c1.9,1.4,4.3,2.2,7.1,2.3c1.5-0.1,2.7-0.3,3.6-0.6c0.9-0.3,2.2-1.1,3.8-2.4l2.9-2.7l0.2,1.9c0,0.2,0,0.4,0,0.7
			c-1.2,1.8-2.7,3.3-4.5,4.6c-1.8,1.3-3.7,2.3-5.6,2.9c-0.9,0.3-2.4,0.4-4.5,0.4c-1.9,0-3.7-0.4-5.6-1.3c-2.7-1.4-4.8-3.5-6.4-6.5
			c-1.6-3-2.3-6.7-2.3-10.9c0-1.4,0.2-3.1,0.7-5.2c0.4-2.1,1.2-4.4,2.4-6.8c0.8-1.6,1.7-3,2.8-4c1.6-1.5,3-2.5,4.2-3.1
			c1.7-0.8,3.7-1.3,6-1.3c2.5,0,4.5,0.5,6.1,1.6c2.1,1.4,3.7,3.2,4.8,5.4c1,2.2,1.6,4.2,1.6,6v0.4H510.6z M488.3,332.6h1.9
			c1.4,0,5.4-0.2,12.1-0.7c1.1-0.1,1.7-0.2,2-0.4c0.5-0.6,0.7-1.1,0.7-1.6c0-1-0.3-2-0.8-3.3c-0.5-1.3-1.3-2.2-2.4-2.8
			c-1.1-0.7-2.4-1-3.8-1c-3.1,0-5.5,1.3-7.4,4C489,328.8,488.3,330.7,488.3,332.6z"/>
		<path class="st3" d="M513.8,347c1,2.9,1.7,4.8,2.2,5.7c1,1.8,2.2,3.1,3.6,4.1c1.4,1,2.9,1.5,4.6,1.5c1.5,0,3-0.8,4.5-2.3
			c1.1-1.1,1.6-2.5,1.6-4c0-2-0.6-3.9-1.9-5.6c-1.2-1.7-3.6-3.3-7.1-4.8c-3.5-1.5-5.8-3.2-7-4.9c-1.2-1.7-1.8-3.7-1.8-5.9
			c0-2.1,0.5-3.9,1.5-5.6c1-1.6,2.3-2.8,4.1-3.6c1.7-0.8,3.3-1.2,4.8-1.2c1.9,0,3.6,0.2,5.1,0.5c1.5,0.3,2.8,0.9,3.9,1.6
			c0.2,1.6,0.4,3.9,0.5,6.9l0.1,1.5c-0.3,0-0.6,0-0.9,0H531c-0.8-2.6-2-4.6-3.6-6.1c-1.6-1.5-3.2-2.2-4.8-2.2s-2.9,0.6-3.9,1.7
			c-1,1.1-1.5,2.6-1.5,4.4c0,1.4,0.4,2.6,1.2,3.7c0.8,1.1,2.7,2.3,5.6,3.7c2.9,1.4,5.1,2.7,6.4,3.9c1.3,1.2,2.3,2.6,3,4.3
			c0.6,1.7,1,3.3,1,4.9c0,2.1-0.6,4.1-1.8,6c-1.2,1.9-2.7,3.2-4.5,3.9c-1.8,0.8-3.4,1.1-4.9,1.1c-3.4,0-6.5-0.7-9.3-2.2
			c-0.3-0.2-0.4-0.7-0.4-1.4c0-0.3,0-0.7-0.1-1.3c-0.4-4.2-0.6-6.6-0.6-7.4c0-0.4,0.1-0.6,0.2-0.7C512.9,347,513.3,347,513.8,347z"
			/>
	</g>
</g>
</svg>
