<?xml version="1.0" encoding="utf-8"?>
<!-- Generator: Adobe Illustrator 22.1.0, SVG Export Plug-In . SVG Version: 6.00 Build 0)  -->
<svg version="1.1"
	 id="svg21" inkscape:version="0.92.4 (5da689c313, 2019-01-14)" sodipodi:docname="ieee.svg" xmlns:cc="http://creativecommons.org/ns#" xmlns:dc="http://purl.org/dc/elements/1.1/" xmlns:inkscape="http://www.inkscape.org/namespaces/inkscape" xmlns:rdf="http://www.w3.org/1999/02/22-rdf-syntax-ns#" xmlns:sodipodi="http://sodipodi.sourceforge.net/DTD/sodipodi-0.dtd" xmlns:svg="http://www.w3.org/2000/svg"
	 xmlns="http://www.w3.org/2000/svg" xmlns:xlink="http://www.w3.org/1999/xlink" x="0px" y="0px" viewBox="0 0 464.9 311.8"
	 style="enable-background:new 0 0 464.9 311.8;" xml:space="preserve">
<style type="text/css">
	.st0{fill:#F45A4E;}
	.st1{enable-background:new    ;}
</style>
<sodipodi:namedview  bordercolor="#666666" borderopacity="1" gridtolerance="10" guidetolerance="10" id="namedview23" inkscape:current-layer="svg21" inkscape:cx="-331.67638" inkscape:cy="912.75357" inkscape:pageopacity="0" inkscape:pageshadow="2" inkscape:window-height="847" inkscape:window-maximized="1" inkscape:window-width="1600" inkscape:window-x="-8" inkscape:window-y="-8" inkscape:zoom="0.12927914" objecttolerance="10" pagecolor="#ffffff" showgrid="false" units="px">
	</sodipodi:namedview>
<g id="Layer_x0020_1" transform="translate(-1398.0551,-5345.0003)">
	<g id="_1848509316400">
		<rect id="rect7" x="1398.1" y="5345" class="st0" width="464.9" height="311.8"/>
	</g>
</g>
<g class="st1">
	<path d="M75.9,156.2c-0.2,0-0.4,0.1-0.4,0.3c-0.1,0.2-0.1,0.6-0.1,1.2c0,1,0,1.7,0.1,2.3c0,0.2,0.1,0.3,0.1,0.4
		c0.1,0.1,0.2,0.2,0.3,0.3c0.4,0.3,0.5,0.6,0.5,1c0,0.5-0.2,0.9-0.7,1.1c-0.5,0.2-1.3,0.3-2.5,0.3c-2.2,0-3.3-0.5-3.3-1.6
		c0-0.2,0-0.3,0.1-0.4c0.1-0.1,0.2-0.3,0.4-0.5c0.3-0.2,0.4-0.5,0.5-0.8c0.1-0.3,0.2-0.8,0.2-1.6c0-0.5,0-2.5,0-5.8
		c0-1.1,0-1.8-0.1-2.2c-0.1-0.4-0.3-0.7-0.5-0.8c-0.3-0.2-0.4-0.3-0.5-0.4s-0.1-0.3-0.1-0.5c0-0.3,0.1-0.5,0.3-0.7
		c0.2-0.2,0.4-0.4,0.7-0.5c0.3-0.1,0.6-0.1,1.1-0.1c0.2,0,0.7,0,1.5,0.1c0.1,0,0.4,0,0.7,0c0.5,0,1.3,0,2.2-0.1
		c0.6-0.1,1-0.1,1.2-0.1c1.3,0,2.3,0.4,3.2,1.2c0.8,0.7,1.1,1.7,1.1,3c0,0.7-0.1,1.3-0.4,1.9c-0.3,0.6-0.6,1-1.1,1.3
		c-0.2,0.1-0.3,0.3-0.3,0.4c0,0.2,0.1,0.4,0.4,0.5c0.6,0.3,1.1,0.7,1.4,1.3c0.3,0.6,0.5,1.5,0.6,2.7c0.1,0.5,0.1,0.8,0.2,1
		c0.1,0.1,0.3,0.3,0.7,0.4c0.1,0,0.2,0.1,0.3,0.3s0.1,0.3,0.1,0.5c0,0.2-0.1,0.5-0.2,0.7s-0.3,0.4-0.6,0.6c-0.5,0.3-1.2,0.4-2.1,0.4
		c-1.2,0-2-0.4-2.5-1.2c-0.2-0.4-0.4-0.8-0.6-1.3c-0.2-0.5-0.3-1.4-0.6-2.5c-0.1-0.7-0.3-1.2-0.5-1.5S76.3,156.2,75.9,156.2z
		 M75.4,150.4l-0.1,2.7c0,0,0,0.1,0,0.1c0,0.3,0,0.5,0.1,0.6c0.1,0.1,0.2,0.1,0.4,0.1c0.5,0,0.9-0.2,1.1-0.5
		c0.2-0.3,0.4-0.9,0.4-1.7c0-1.5-0.4-2.2-1.2-2.2c-0.2,0-0.4,0.1-0.5,0.2C75.5,149.8,75.4,150,75.4,150.4z"/>
	<path d="M92.3,157.7h-4.2c-0.2,0-0.3,0.1-0.3,0.3c0,0.5,0.2,1,0.6,1.4s0.9,0.7,1.4,0.7c0.3,0,0.6-0.1,1-0.2
		c0.4-0.1,0.6-0.3,0.9-0.5c0.2-0.2,0.4-0.3,0.5-0.3c0.2,0,0.3,0.1,0.5,0.4c0.1,0.2,0.2,0.5,0.2,0.8c0,0.5-0.3,1.1-0.8,1.6
		c-1,0.9-2,1.4-3.3,1.4c-1.3,0-2.3-0.5-3.2-1.4c-0.4-0.5-0.8-1-1-1.7c-0.4-0.9-0.5-1.8-0.5-2.7c0-1.3,0.3-2.4,0.9-3.5
		c0.5-0.9,1.2-1.5,2-2c0.6-0.3,1.3-0.5,2-0.5c1.1,0,2.1,0.4,2.9,1.2c0.4,0.4,0.7,0.9,1,1.5c0.3,0.6,0.4,1.3,0.4,1.9
		c0,0.5-0.1,0.9-0.2,1.2S92.6,157.7,92.3,157.7z M88.4,155.5h0.9c0.4,0,0.6-0.2,0.6-0.7c0-0.4-0.1-0.7-0.3-1
		c-0.2-0.3-0.4-0.4-0.7-0.4c-0.3,0-0.6,0.2-0.8,0.5c-0.2,0.3-0.3,0.6-0.3,1c0,0.2,0,0.4,0.1,0.5C88,155.5,88.1,155.5,88.4,155.5z"/>
	<path d="M97.4,151.4c0.3,0,0.8,0.1,1.5,0.3c0.1,0,0.3,0,0.3,0c0.1,0,0.3-0.1,0.6-0.2c0.1-0.1,0.3-0.1,0.4-0.1
		c0.3,0,0.6,0.2,0.8,0.7c0.2,0.4,0.4,0.8,0.6,1.2c0.1,0.4,0.2,0.8,0.2,1.1c0,0.3-0.1,0.6-0.3,0.8c-0.2,0.2-0.4,0.3-0.6,0.3
		c-0.2,0-0.4-0.1-0.6-0.2c-0.2-0.1-0.4-0.4-0.8-0.9c-0.4-0.5-0.7-0.7-1-0.7c-0.2,0-0.3,0.1-0.4,0.2s-0.2,0.3-0.2,0.6
		c0,0.4,0.3,0.7,0.8,1.1c1,0.6,1.8,1.2,2.3,1.9c0.5,0.6,0.7,1.3,0.7,2.1c0,1.1-0.4,1.9-1.1,2.7c-0.6,0.6-1.4,0.9-2.3,0.9
		c-0.2,0-0.7,0-1.3-0.1c-0.6-0.1-0.9-0.1-1-0.1c-0.1,0-0.2,0-0.3,0c-0.2,0-0.3,0-0.4,0c-0.3,0-0.5-0.1-0.7-0.3
		c-0.2-0.3-0.5-0.7-0.7-1.3s-0.3-1.1-0.3-1.6c0-0.7,0.2-1.1,0.6-1.1c0.2,0,0.3,0.1,0.5,0.2c0.1,0.1,0.4,0.5,0.9,1.1
		c0.2,0.3,0.4,0.6,0.6,0.7c0.2,0.1,0.3,0.2,0.5,0.2c0.2,0,0.4-0.1,0.5-0.2s0.2-0.3,0.2-0.5c0-0.3-0.2-0.7-0.7-0.9
		c-1-0.6-1.7-1.2-2.1-1.9c-0.4-0.6-0.6-1.4-0.6-2.2c0-0.9,0.2-1.7,0.7-2.4C95.5,151.9,96.3,151.4,97.4,151.4z"/>
	<path d="M110.8,157.7h-4.2c-0.2,0-0.3,0.1-0.3,0.3c0,0.5,0.2,1,0.6,1.4s0.9,0.7,1.4,0.7c0.3,0,0.6-0.1,1-0.2
		c0.4-0.1,0.6-0.3,0.9-0.5c0.2-0.2,0.4-0.3,0.5-0.3c0.2,0,0.3,0.1,0.5,0.4c0.1,0.2,0.2,0.5,0.2,0.8c0,0.5-0.3,1.1-0.8,1.6
		c-1,0.9-2,1.4-3.3,1.4c-1.3,0-2.3-0.5-3.2-1.4c-0.4-0.5-0.8-1-1-1.7c-0.4-0.9-0.5-1.8-0.5-2.7c0-1.3,0.3-2.4,0.9-3.5
		c0.5-0.9,1.2-1.5,2-2c0.6-0.3,1.3-0.5,2-0.5c1.1,0,2.1,0.4,2.9,1.2c0.4,0.4,0.7,0.9,1,1.5c0.3,0.6,0.4,1.3,0.4,1.9
		c0,0.5-0.1,0.9-0.2,1.2S111.1,157.7,110.8,157.7z M106.9,155.5h0.9c0.4,0,0.6-0.2,0.6-0.7c0-0.4-0.1-0.7-0.3-1
		c-0.2-0.3-0.4-0.4-0.7-0.4c-0.3,0-0.6,0.2-0.8,0.5c-0.2,0.3-0.3,0.6-0.3,1c0,0.2,0,0.4,0.1,0.5
		C106.5,155.5,106.6,155.5,106.9,155.5z"/>
	<path d="M117.4,151.4c1,0,1.9,0.3,2.6,1c0.4,0.4,0.7,0.8,0.8,1.2c0.2,0.5,0.2,1.1,0.2,1.9l0,1.7c0,1.2,0.1,2,0.2,2.3
		c0.1,0.2,0.1,0.3,0.2,0.3c0.1,0,0.2,0.1,0.4,0.1c0.2,0,0.3,0.2,0.3,0.5c0,0.4-0.1,0.7-0.3,1.1c-0.2,0.4-0.5,0.7-0.9,1
		c-0.4,0.3-0.9,0.5-1.4,0.5c-0.6,0-1.1-0.3-1.5-0.8c-0.1-0.2-0.2-0.3-0.4-0.3c-0.1,0-0.3,0.1-0.5,0.3c-0.6,0.6-1.3,0.8-2,0.8
		c-0.8,0-1.4-0.2-1.9-0.6c-0.3-0.3-0.6-0.7-0.8-1.1s-0.3-0.9-0.3-1.4c0-0.8,0.3-1.5,0.8-2.1c0.8-1,2-1.4,3.5-1.5
		c0.3,0,0.6,0,0.7-0.1c0.1-0.1,0.1-0.3,0.1-0.6c0-0.8-0.1-1.4-0.2-1.8c-0.1-0.4-0.3-0.5-0.6-0.5c-0.2,0-0.3,0.1-0.5,0.2
		c-0.1,0.1-0.3,0.4-0.5,0.8c-0.5,1-1.1,1.5-1.7,1.5c-0.3,0-0.5-0.1-0.7-0.3c-0.2-0.2-0.3-0.5-0.3-0.9c0-0.4,0.1-0.7,0.3-1.1
		s0.5-0.7,0.9-1C115.1,151.7,116.2,151.4,117.4,151.4z M116.8,158c-0.3,0-0.5,0.1-0.7,0.4c-0.2,0.3-0.3,0.6-0.3,1
		c0,0.4,0.1,0.7,0.2,0.9c0.1,0.2,0.3,0.3,0.5,0.3c0.5,0,0.7-0.5,0.7-1.5c0-0.4,0-0.7-0.1-0.8C117.1,158.1,117,158,116.8,158z"/>
	<path d="M126.9,151.5c0.3,0,0.5,0.1,0.6,0.2s0.1,0.5,0.2,1.1c0,0.3,0.1,0.5,0.3,0.5c0.1,0,0.2-0.1,0.3-0.3c0.5-1,1.1-1.4,1.9-1.4
		c0.5,0,1,0.2,1.3,0.7c0.2,0.2,0.3,0.5,0.4,0.9c0.1,0.3,0.2,0.7,0.2,1c0,0.4-0.1,0.7-0.2,1.1c-0.1,0.4-0.3,0.7-0.5,0.9
		c-0.4,0.5-0.9,0.7-1.4,0.7c-0.3,0-0.6-0.1-0.8-0.2c-0.2-0.1-0.5-0.4-0.8-0.8c-0.1-0.2-0.2-0.2-0.4-0.2c-0.2,0-0.3,0.1-0.3,0.4
		c-0.1,0.2-0.1,0.7-0.1,1.5c0,1.2,0,1.9,0.1,2.4c0,0.2,0.1,0.4,0.2,0.5s0.2,0.2,0.5,0.3c0.5,0.2,0.8,0.6,0.8,1.1
		c0,0.3-0.1,0.6-0.3,0.8c-0.2,0.2-0.4,0.4-0.7,0.5c-0.6,0.2-1.4,0.2-2.5,0.2c-1.1,0-1.9-0.1-2.4-0.4c-0.5-0.2-0.7-0.6-0.7-1.1
		c0-0.4,0.2-0.8,0.5-1.1c0.2-0.1,0.3-0.3,0.4-0.4c0.1-0.1,0.1-0.3,0.1-0.5c0.1-0.7,0.1-2,0.1-3.9c0-0.3,0-0.6-0.1-0.7
		c-0.1-0.1-0.2-0.3-0.4-0.4c-0.4-0.2-0.6-0.5-0.6-0.9c0-0.4,0.1-0.7,0.4-0.9s0.8-0.5,1.5-0.8C125.5,151.6,126.3,151.5,126.9,151.5z"
		/>
	<path d="M137.5,151.4c1.1,0,2,0.3,2.8,1c0.8,0.6,1.2,1.5,1.2,2.4c0,0.7-0.2,1.2-0.5,1.6c-0.3,0.4-0.7,0.6-1.2,0.6
		c-0.5,0-0.9-0.2-1.1-0.7c-0.1-0.1-0.2-0.5-0.3-1.1c-0.2-0.6-0.5-1-0.9-1c-0.3,0-0.6,0.2-0.8,0.6c-0.2,0.4-0.3,0.8-0.3,1.4
		c0,0.9,0.3,1.7,0.8,2.4c0.4,0.6,0.9,0.9,1.6,0.9c0.3,0,0.6,0,0.8-0.1c0.2-0.1,0.5-0.2,0.8-0.4c0.1-0.1,0.2-0.1,0.3-0.1
		c0.2,0,0.4,0.1,0.5,0.4c0.2,0.2,0.2,0.5,0.2,0.9c0,0.3-0.1,0.7-0.3,1.1c-0.2,0.4-0.5,0.7-0.9,1c-0.8,0.6-1.7,0.9-2.8,0.9
		c-1.2,0-2.3-0.5-3.1-1.4c-1.1-1.2-1.7-2.6-1.7-4.4c0-1.7,0.5-3.2,1.6-4.3C134.9,151.9,136.1,151.4,137.5,151.4z"/>
	<path d="M147,147.7l-0.1,4.8c0,0.6,0.1,0.9,0.4,0.9c0.1,0,0.3-0.1,0.4-0.4c0.6-1.1,1.4-1.6,2.3-1.6c1,0,1.7,0.4,2.3,1.1
		c0.3,0.3,0.4,0.7,0.5,1.2c0.1,0.5,0.2,1.1,0.2,1.9l0.1,4.1c0,0.4,0,0.6,0.1,0.8s0.2,0.4,0.5,0.6c0.2,0.2,0.3,0.4,0.3,0.6
		c0,0.8-1,1.2-2.9,1.2c-1.7,0-2.6-0.4-2.6-1.2c0-0.1,0-0.2,0-0.3s0.1-0.3,0.3-0.5c0.3-0.4,0.4-1.5,0.4-3.2c0-1-0.1-1.8-0.2-2.2
		c-0.2-0.6-0.6-1-1.1-1c-0.4,0-0.6,0.2-0.8,0.5c-0.1,0.2-0.2,0.7-0.2,1.4v2.2c0,1,0.1,1.5,0.1,1.7c0,0.1,0.2,0.4,0.4,0.7
		c0.1,0.2,0.2,0.3,0.2,0.6c0,0.9-0.9,1.3-2.6,1.3c-2.1,0-3.1-0.4-3.1-1.3c0-0.2,0-0.4,0.1-0.5c0.1-0.1,0.2-0.3,0.5-0.5
		c0.2-0.2,0.4-0.8,0.5-1.7c0.1-0.9,0.1-2.4,0.1-4.5c0-1.6,0-2.8-0.1-3.4c0-0.2-0.1-0.4-0.1-0.5c-0.1-0.1-0.2-0.2-0.4-0.3
		c-0.4-0.2-0.6-0.5-0.6-0.8c0-0.4,0.1-0.7,0.4-0.9s0.8-0.5,1.6-0.8c1.1-0.4,1.9-0.6,2.6-0.6C146.8,147.1,147,147.3,147,147.7z"/>
	<path d="M166.5,146.9c0.7,0,1.4,0.1,2,0.2c0.6,0.1,1,0.3,1.2,0.5c0.2,0.2,0.4,0.5,0.4,0.9c0,0.2,0,0.4-0.1,0.6s-0.3,0.3-0.6,0.5
		c-0.3,0.2-0.5,0.5-0.6,0.8s-0.1,1.5-0.1,3.6c0,2,0,3.2,0,3.6c0,0.4-0.1,0.8-0.1,1.2c-0.2,1.1-0.5,2-1,2.6c-0.4,0.5-1,0.9-1.7,1.2
		c-0.7,0.3-1.4,0.4-2.1,0.4c-0.7,0-1.3-0.1-2-0.3c-0.7-0.2-1.2-0.5-1.7-0.9c-0.4-0.3-0.7-0.8-1-1.3c-0.2-0.5-0.4-1.1-0.4-1.7
		c0-0.8,0.2-1.4,0.6-1.9c0.4-0.5,0.8-0.8,1.4-0.8c0.6,0,1,0.2,1.4,0.6c0.4,0.4,0.6,1,0.6,1.6c0,0.2,0,0.4-0.1,0.8c0,0.1,0,0.2,0,0.3
		c0,0.2,0.1,0.4,0.2,0.6c0.1,0.2,0.3,0.2,0.5,0.2c0.4,0,0.7-0.2,1-0.7c0.2-0.5,0.4-1.1,0.4-1.8l0-1l0-2.8c-0.1-1.7-0.1-2.7-0.1-3
		c0-0.3-0.1-0.5-0.2-0.7c-0.1-0.2-0.2-0.3-0.2-0.3c-0.1,0-0.3-0.1-0.6-0.2c-0.1,0-0.3-0.1-0.4-0.3c-0.1-0.2-0.2-0.4-0.2-0.6
		c0-0.4,0.1-0.7,0.4-1c0.3-0.2,0.7-0.4,1.2-0.6C165.1,147,165.8,146.9,166.5,146.9z"/>
	<path d="M176.1,151.4c1.1,0,2.1,0.4,2.9,1.1c0.6,0.5,1.1,1.2,1.4,2c0.4,0.9,0.6,1.8,0.6,2.7c0,1.7-0.6,3.1-1.8,4.2
		c-1.1,1.1-2.4,1.7-3.9,1.7c-1.4,0-2.6-0.5-3.5-1.6c-0.9-1-1.3-2.3-1.3-3.9c0-1.8,0.5-3.3,1.6-4.4
		C173.2,152,174.6,151.4,176.1,151.4z M175.4,154c-0.3,0-0.5,0.1-0.6,0.4c-0.2,0.2-0.2,0.6-0.2,1c0,0.5,0.1,1.1,0.2,1.9
		c0.1,0.8,0.3,1.5,0.5,2.1c0.2,0.6,0.5,0.9,0.9,0.9c0.5,0,0.8-0.4,0.8-1.3c0-0.6-0.1-1.4-0.2-2.2c-0.1-0.8-0.3-1.5-0.5-2
		C176.1,154.3,175.8,154,175.4,154z"/>
	<path d="M186.6,152v6.2c0,1.3,0.3,2,1,2c0.2,0,0.3-0.1,0.5-0.2s0.3-0.3,0.4-0.5c0.1-0.4,0.2-1.2,0.2-2.5c0-1.3,0-2.1-0.1-2.6
		c0-0.2-0.1-0.3-0.1-0.4c-0.1-0.1-0.2-0.2-0.3-0.3c-0.3-0.2-0.5-0.5-0.5-0.9c0-0.5,0.3-0.8,0.9-1c1.1-0.4,2.2-0.5,3.3-0.5
		c0.6,0,0.9,0.4,0.9,1.2c0,0.1,0,0.3,0,0.5c0,0.4,0,0.8,0,1.3v5.1c0,0.3,0.2,0.5,0.5,0.7c0.3,0.2,0.4,0.5,0.4,0.8
		c0,0.7-0.6,1.2-1.9,1.6c-0.7,0.2-1.5,0.3-2.2,0.3c-0.3,0-0.5,0-0.6-0.1c-0.1-0.1-0.2-0.2-0.2-0.5c0-0.5-0.1-0.7-0.3-0.7
		c-0.1,0-0.1,0-0.2,0.1c-0.1,0-0.2,0.2-0.5,0.5c-0.6,0.5-1.3,0.8-1.9,0.8c-1.1,0-2-0.4-2.4-1.3c-0.4-0.7-0.6-1.9-0.6-3.6
		c0-0.6,0-1.2,0-1.6c0-0.3,0-0.4,0-0.5c0-0.7,0-1.1-0.1-1.4s-0.3-0.6-0.5-0.7c-0.2-0.2-0.4-0.3-0.4-0.4c-0.1-0.1-0.1-0.2-0.1-0.4
		c0-0.6,0.3-1,1-1.2c1.2-0.3,2.3-0.5,3.5-0.5C186.4,151.5,186.6,151.7,186.6,152z"/>
	<path d="M198.3,151.5c0.3,0,0.5,0.1,0.6,0.2s0.1,0.5,0.2,1.1c0,0.3,0.1,0.5,0.3,0.5c0.1,0,0.2-0.1,0.3-0.3c0.5-1,1.1-1.4,1.9-1.4
		c0.5,0,1,0.2,1.3,0.7c0.2,0.2,0.3,0.5,0.4,0.9c0.1,0.3,0.2,0.7,0.2,1c0,0.4-0.1,0.7-0.2,1.1c-0.1,0.4-0.3,0.7-0.5,0.9
		c-0.4,0.5-0.9,0.7-1.4,0.7c-0.3,0-0.6-0.1-0.8-0.2c-0.2-0.1-0.5-0.4-0.8-0.8c-0.1-0.2-0.2-0.2-0.4-0.2c-0.2,0-0.3,0.1-0.3,0.4
		c-0.1,0.2-0.1,0.7-0.1,1.5c0,1.2,0,1.9,0.1,2.4c0,0.2,0.1,0.4,0.2,0.5s0.2,0.2,0.5,0.3c0.5,0.2,0.8,0.6,0.8,1.1
		c0,0.3-0.1,0.6-0.3,0.8c-0.2,0.2-0.4,0.4-0.7,0.5c-0.6,0.2-1.4,0.2-2.5,0.2c-1.1,0-1.9-0.1-2.4-0.4c-0.5-0.2-0.7-0.6-0.7-1.1
		c0-0.4,0.2-0.8,0.5-1.1c0.2-0.1,0.3-0.3,0.4-0.4c0.1-0.1,0.1-0.3,0.1-0.5c0.1-0.7,0.1-2,0.1-3.9c0-0.3,0-0.6-0.1-0.7
		c-0.1-0.1-0.2-0.3-0.4-0.4c-0.4-0.2-0.6-0.5-0.6-0.9c0-0.4,0.1-0.7,0.4-0.9s0.8-0.5,1.5-0.8C196.9,151.6,197.7,151.5,198.3,151.5z"
		/>
	<path d="M215,155.6l0.1,4c0,0.3,0,0.5,0.1,0.7c0.1,0.1,0.2,0.4,0.6,0.8c0.1,0.1,0.1,0.3,0.1,0.5c0,0.5-0.2,0.9-0.7,1.1
		c-0.5,0.2-1.3,0.3-2.5,0.3c-0.8,0-1.4-0.1-1.8-0.3c-0.4-0.2-0.5-0.5-0.5-0.9c0-0.2,0-0.3,0.1-0.3c0-0.1,0.2-0.3,0.4-0.5
		c0.2-0.3,0.4-1.4,0.4-3.2c0-1.1-0.1-1.8-0.3-2.3c-0.2-0.4-0.4-0.6-0.9-0.6c-0.4,0-0.7,0.2-0.8,0.5c-0.1,0.3-0.2,0.9-0.2,1.8v2.3
		c0,0.5,0,0.8,0.1,0.9s0.2,0.5,0.4,1c0.1,0.1,0.1,0.3,0.1,0.5c0,0.5-0.2,0.8-0.7,1s-1.3,0.3-2.3,0.3c-1.7,0-2.5-0.4-2.5-1.3
		c0-0.2,0-0.3,0.1-0.4s0.2-0.2,0.4-0.4c0.2-0.1,0.3-0.3,0.3-0.5c0-0.2,0.1-0.6,0.1-1.4c0-0.9,0.1-1.8,0.1-2.7c0-0.5,0-0.9-0.1-1
		c-0.1-0.2-0.2-0.4-0.5-0.6c-0.3-0.2-0.4-0.5-0.4-0.8c0-0.3,0.1-0.6,0.3-0.8s0.6-0.4,1.3-0.7c0.6-0.3,1.1-0.5,1.7-0.7
		c0.5-0.2,0.9-0.3,1.1-0.3c0.2,0,0.3,0.1,0.5,0.3s0.2,0.4,0.2,0.6c0,0,0,0.1,0,0.3c0,0.1,0,0.1,0,0.2c0,0.4,0.1,0.6,0.4,0.6
		c0.1,0,0.3-0.1,0.5-0.4c0.5-0.9,1.3-1.4,2.2-1.4c0.8,0,1.4,0.3,1.9,0.8c0.4,0.4,0.6,0.8,0.8,1.3C214.8,154,214.9,154.7,215,155.6z"
		/>
	<path d="M221.5,151.4c1,0,1.9,0.3,2.6,1c0.4,0.4,0.7,0.8,0.8,1.2c0.2,0.5,0.2,1.1,0.2,1.9l0,1.7c0,1.2,0.1,2,0.2,2.3
		c0.1,0.2,0.1,0.3,0.2,0.3c0.1,0,0.2,0.1,0.4,0.1c0.2,0,0.3,0.2,0.3,0.5c0,0.4-0.1,0.7-0.3,1.1c-0.2,0.4-0.5,0.7-0.9,1
		c-0.4,0.3-0.9,0.5-1.4,0.5c-0.6,0-1.1-0.3-1.5-0.8c-0.1-0.2-0.2-0.3-0.4-0.3c-0.1,0-0.3,0.1-0.5,0.3c-0.6,0.6-1.3,0.8-2,0.8
		c-0.8,0-1.4-0.2-1.9-0.6c-0.3-0.3-0.6-0.7-0.8-1.1s-0.3-0.9-0.3-1.4c0-0.8,0.3-1.5,0.8-2.1c0.8-1,2-1.4,3.5-1.5
		c0.3,0,0.6,0,0.7-0.1c0.1-0.1,0.1-0.3,0.1-0.6c0-0.8-0.1-1.4-0.2-1.8c-0.1-0.4-0.3-0.5-0.6-0.5c-0.2,0-0.3,0.1-0.5,0.2
		c-0.1,0.1-0.3,0.4-0.5,0.8c-0.5,1-1.1,1.5-1.7,1.5c-0.3,0-0.5-0.1-0.7-0.3c-0.2-0.2-0.3-0.5-0.3-0.9c0-0.4,0.1-0.7,0.3-1.1
		s0.5-0.7,0.9-1C219.2,151.7,220.3,151.4,221.5,151.4z M220.9,158c-0.3,0-0.5,0.1-0.7,0.4c-0.2,0.3-0.3,0.6-0.3,1
		c0,0.4,0.1,0.7,0.2,0.9c0.1,0.2,0.3,0.3,0.5,0.3c0.5,0,0.7-0.5,0.7-1.5c0-0.4,0-0.7-0.1-0.8C221.2,158.1,221.1,158,220.9,158z"/>
	<path d="M231.9,153.7v3.7c0,1.6,0,2.6,0.1,2.8c0,0.3,0.2,0.5,0.4,0.6c0.2,0.1,0.4,0.2,0.4,0.3c0.1,0.1,0.1,0.3,0.1,0.5
		c0,0.3-0.1,0.5-0.2,0.7c-0.1,0.2-0.3,0.4-0.6,0.4c-0.4,0.2-1.2,0.3-2.2,0.3c-1.2,0-2-0.1-2.4-0.3c-0.2-0.1-0.4-0.3-0.5-0.5
		s-0.2-0.4-0.2-0.7c0-0.2,0-0.3,0.1-0.4c0.1-0.1,0.2-0.2,0.5-0.4c0.2-0.1,0.4-0.5,0.4-1.1c0.1-1,0.1-2.4,0.1-4.2
		c0-1.9,0-3.1-0.1-3.6c-0.1-0.5-0.3-0.9-0.6-1.2c-0.3-0.2-0.4-0.4-0.5-0.5c-0.1-0.2-0.1-0.4-0.1-0.6c0-0.4,0.1-0.7,0.4-1
		c0.3-0.3,0.7-0.5,1.3-0.8c0.4-0.2,0.9-0.3,1.6-0.5s1.1-0.2,1.4-0.2c0.5,0,0.7,0.4,0.7,1.1c0,0.2,0,0.8-0.1,1.7
		C232,151.3,232,152.6,231.9,153.7z"/>
	<path d="M243.7,151.4c1.1,0,2.1,0.4,2.9,1.1c0.6,0.5,1.1,1.2,1.4,2c0.4,0.9,0.6,1.8,0.6,2.7c0,1.7-0.6,3.1-1.8,4.2
		c-1.1,1.1-2.4,1.7-3.9,1.7c-1.4,0-2.6-0.5-3.5-1.6c-0.9-1-1.3-2.3-1.3-3.9c0-1.8,0.5-3.3,1.6-4.4
		C240.8,152,242.1,151.4,243.7,151.4z M243,154c-0.3,0-0.5,0.1-0.6,0.4c-0.2,0.2-0.2,0.6-0.2,1c0,0.5,0.1,1.1,0.2,1.9
		c0.1,0.8,0.3,1.5,0.5,2.1c0.2,0.6,0.5,0.9,0.9,0.9c0.5,0,0.8-0.4,0.8-1.3c0-0.6-0.1-1.4-0.2-2.2c-0.1-0.8-0.3-1.5-0.5-2
		C243.6,154.3,243.3,154,243,154z"/>
	<path d="M254.5,153.5h1.1c0.2,0,0.3,0,0.4,0.1c0.1,0.1,0.1,0.2,0.1,0.4l-0.1,1.4c0,0.3,0,0.4-0.1,0.5c-0.1,0.1-0.2,0.1-0.4,0.1
		c0,0-0.1,0-0.3,0c-0.1,0-0.2,0-0.3,0c-0.3,0-0.4,0.1-0.5,0.3c-0.1,0.2-0.1,0.6-0.1,1.2c0,0.8,0.1,1.5,0.2,2
		c0.1,0.2,0.1,0.4,0.2,0.5s0.3,0.2,0.5,0.3c0.5,0.2,0.8,0.6,0.8,1.1c0,0.6-0.3,1-0.9,1.2c-0.6,0.3-1.6,0.4-3,0.4
		c-2.1,0-3.1-0.5-3.1-1.6c0-0.3,0-0.5,0.1-0.6c0.1-0.1,0.3-0.3,0.6-0.4c0.3-0.2,0.5-0.5,0.6-1c0.1-0.8,0.2-1.6,0.2-2.4
		c0-0.4-0.1-0.6-0.2-0.8c-0.1-0.1-0.3-0.2-0.6-0.2c-0.3,0-0.5,0-0.6-0.1c-0.1,0-0.1-0.1-0.1-0.3l0.1-1.4c0-0.2,0-0.4,0.1-0.4
		s0.2-0.1,0.4-0.1c0.2,0,0.3-0.2,0.3-0.4c0-0.1-0.1-0.4-0.2-0.7c-0.3-0.6-0.4-1.3-0.4-1.9c0-0.9,0.3-1.7,0.8-2.3
		c0.7-0.9,1.8-1.3,3.2-1.3c1.1,0,2,0.3,2.7,1c0.5,0.5,0.8,1.1,0.8,1.8c0,0.5-0.1,0.9-0.4,1.3c-0.3,0.3-0.6,0.5-1,0.5
		c-0.4,0-0.8-0.2-1.2-0.6c-0.1-0.1-0.3-0.4-0.7-0.9c-0.3-0.4-0.5-0.5-0.8-0.5c-0.2,0-0.3,0.1-0.4,0.2c-0.1,0.2-0.2,0.3-0.2,0.6
		c0,0.6,0.4,1.2,1.3,1.9c0.3,0.2,0.5,0.4,0.6,0.5c0.1,0.1,0.2,0.3,0.3,0.5C254.2,153.5,254.3,153.5,254.5,153.5z"/>
	<path d="M266.5,162.8l-1.2,0c-0.8,0-1.5,0-1.8,0.1c-0.3,0-0.6,0.1-0.7,0.1c-0.4,0-0.7-0.1-0.9-0.4c-0.2-0.2-0.3-0.5-0.3-0.8
		c0-0.2,0-0.4,0.1-0.5c0.1-0.1,0.3-0.3,0.6-0.6c0.2-0.2,0.3-0.4,0.4-0.7c0.1-0.3,0.1-1,0.2-2.1c0.1-1.7,0.2-3.7,0.2-6.2
		c0-0.9,0-1.5-0.1-1.8c-0.1-0.3-0.3-0.5-0.7-0.7c-0.4-0.2-0.6-0.5-0.6-0.9c0-0.3,0.1-0.6,0.4-0.8s0.5-0.3,0.9-0.3c0.2,0,0.5,0,0.8,0
		c0.5,0,1.1,0,1.7,0c0.4,0,1.3,0,2.6-0.1c0.4,0,0.8,0,1.1,0c0.8,0,1.4,0.1,1.9,0.2c0.5,0.2,0.9,0.4,1.3,0.8c0.6,0.6,0.9,1.5,0.9,2.5
		c0,0.5-0.1,1-0.3,1.5c-0.2,0.5-0.4,0.9-0.7,1.2c-0.2,0.2-0.3,0.4-0.3,0.6c0,0.2,0.1,0.4,0.4,0.5c0.5,0.3,0.9,0.7,1.3,1.3
		c0.4,0.6,0.6,1.4,0.6,2.3c0,1.1-0.3,2.1-0.9,3c-0.8,1.2-2.1,1.8-3.7,1.8c-0.2,0-0.8,0-1.6-0.1C267.1,162.8,266.6,162.8,266.5,162.8
		z M267.1,150.4v2.4c0,0.4,0,0.6,0.1,0.8s0.2,0.2,0.4,0.2c0.4,0,0.8-0.2,1-0.5c0.2-0.3,0.3-0.9,0.3-1.6c0-0.7-0.1-1.3-0.3-1.7
		c-0.2-0.4-0.5-0.6-0.9-0.6c-0.2,0-0.4,0.1-0.4,0.2C267.1,149.7,267.1,150,267.1,150.4z M267.1,157v1.1c0,1,0.1,1.7,0.2,2
		c0.1,0.3,0.3,0.5,0.7,0.5c0.9,0,1.4-0.7,1.4-2c0-1.7-0.5-2.5-1.5-2.5c-0.3,0-0.4,0.1-0.5,0.2S267.1,156.6,267.1,157z"/>
	<path d="M279.8,152.2v6.7c0,0.5,0,0.9,0.1,1.2c0.1,0.2,0.2,0.5,0.5,0.7c0.2,0.2,0.3,0.3,0.4,0.4c0.1,0.1,0.1,0.3,0.1,0.5
		c0,1-1,1.5-2.9,1.5c-1.1,0-1.9-0.1-2.5-0.3c-0.2-0.1-0.4-0.2-0.5-0.4c-0.1-0.2-0.2-0.4-0.2-0.7c0-0.2,0-0.4,0.1-0.5
		c0.1-0.1,0.2-0.3,0.5-0.6c0.2-0.2,0.3-0.5,0.4-0.9c0.1-0.4,0.1-1,0.1-1.8c0-0.3,0-0.7,0-1.4s0-1.1-0.1-1.2c0-0.3-0.2-0.6-0.5-0.7
		c-0.4-0.2-0.6-0.5-0.6-0.9c0-0.5,0.2-0.8,0.7-1.1c0.7-0.3,1.4-0.6,2.2-0.8c0.8-0.2,1.4-0.3,1.8-0.3
		C279.6,151.5,279.8,151.7,279.8,152.2z M278,147.2c0.5,0,0.9,0.1,1.2,0.4c0.3,0.2,0.5,0.6,0.5,1c0,0.6-0.2,1.1-0.7,1.4
		c-0.7,0.5-1.6,0.8-2.6,0.8c-0.4,0-0.8-0.1-1-0.3c-0.3-0.3-0.5-0.7-0.5-1.1c0-0.7,0.4-1.2,1.1-1.5
		C276.6,147.3,277.3,147.2,278,147.2z"/>
	<path d="M286.9,151.4c1.1,0,2.1,0.4,2.9,1.1c0.6,0.5,1.1,1.2,1.4,2c0.4,0.9,0.6,1.8,0.6,2.7c0,1.7-0.6,3.1-1.8,4.2
		c-1.1,1.1-2.4,1.7-3.9,1.7c-1.4,0-2.6-0.5-3.5-1.6c-0.9-1-1.3-2.3-1.3-3.9c0-1.8,0.5-3.3,1.6-4.4C284,152,285.3,151.4,286.9,151.4z
		 M286.2,154c-0.3,0-0.5,0.1-0.6,0.4c-0.2,0.2-0.2,0.6-0.2,1c0,0.5,0.1,1.1,0.2,1.9c0.1,0.8,0.3,1.5,0.5,2.1
		c0.2,0.6,0.5,0.9,0.9,0.9c0.5,0,0.8-0.4,0.8-1.3c0-0.6-0.1-1.4-0.2-2.2c-0.1-0.8-0.3-1.5-0.5-2C286.8,154.3,286.5,154,286.2,154z"
		/>
	<path d="M297.5,154.4v3.9c0,0.5,0.1,0.8,0.3,1.1c0.2,0.3,0.4,0.4,0.7,0.4c0.2,0,0.5-0.1,0.9-0.4c0.1-0.1,0.2-0.1,0.3-0.1
		c0.1,0,0.3,0.1,0.4,0.3c0.1,0.2,0.2,0.5,0.2,0.7c0,0.5-0.2,0.9-0.6,1.4c-0.8,0.9-1.9,1.4-3.1,1.4c-1,0-1.7-0.3-2.3-1
		c-0.6-0.7-0.9-1.6-0.9-2.7V154c0-0.2,0-0.3,0-0.3s-0.1-0.1-0.3-0.1h-0.9c-0.2,0-0.3,0-0.3-0.1s-0.1-0.2-0.1-0.5v-0.5
		c0-0.2,0.1-0.4,0.2-0.5l4.1-3.3c0.1-0.1,0.2-0.1,0.4-0.1h0.7c0.1,0,0.3,0,0.3,0.1s0.1,0.3,0.1,0.5v1.5c0,0.2,0,0.4,0.1,0.4
		c0.1,0.1,0.2,0.1,0.4,0.1h1.7c0.2,0,0.4,0.1,0.4,0.2c0.1,0.1,0.1,0.3,0.1,0.7v0.7c0,0.4,0,0.6-0.1,0.8c-0.1,0.1-0.2,0.2-0.5,0.2
		h-1.6c-0.2,0-0.3,0-0.3,0.1C297.5,154,297.5,154.2,297.5,154.4z"/>
	<path d="M308.8,157.7h-4.2c-0.2,0-0.3,0.1-0.3,0.3c0,0.5,0.2,1,0.6,1.4c0.4,0.4,0.9,0.7,1.4,0.7c0.3,0,0.6-0.1,1-0.2
		c0.4-0.1,0.6-0.3,0.9-0.5c0.2-0.2,0.4-0.3,0.5-0.3c0.2,0,0.3,0.1,0.5,0.4s0.2,0.5,0.2,0.8c0,0.5-0.3,1.1-0.8,1.6
		c-1,0.9-2,1.4-3.3,1.4c-1.3,0-2.3-0.5-3.2-1.4c-0.4-0.5-0.8-1-1-1.7c-0.4-0.9-0.5-1.8-0.5-2.7c0-1.3,0.3-2.4,0.9-3.5
		c0.5-0.9,1.2-1.5,2-2c0.6-0.3,1.3-0.5,2-0.5c1.1,0,2.1,0.4,2.9,1.2c0.4,0.4,0.7,0.9,1,1.5c0.3,0.6,0.4,1.3,0.4,1.9
		c0,0.5-0.1,0.9-0.2,1.2S309.1,157.7,308.8,157.7z M304.8,155.5h0.9c0.4,0,0.6-0.2,0.6-0.7c0-0.4-0.1-0.7-0.3-1
		c-0.2-0.3-0.4-0.4-0.7-0.4c-0.3,0-0.6,0.2-0.8,0.5c-0.2,0.3-0.3,0.6-0.3,1c0,0.2,0,0.4,0.1,0.5
		C304.5,155.5,304.6,155.5,304.8,155.5z"/>
	<path d="M315.4,151.4c1.1,0,2,0.3,2.8,1c0.8,0.6,1.2,1.5,1.2,2.4c0,0.7-0.2,1.2-0.5,1.6c-0.3,0.4-0.7,0.6-1.2,0.6
		c-0.5,0-0.9-0.2-1.1-0.7c-0.1-0.1-0.2-0.5-0.3-1.1c-0.2-0.6-0.5-1-0.9-1c-0.3,0-0.6,0.2-0.8,0.6s-0.3,0.8-0.3,1.4
		c0,0.9,0.3,1.7,0.8,2.4c0.4,0.6,0.9,0.9,1.6,0.9c0.3,0,0.6,0,0.8-0.1s0.5-0.2,0.8-0.4c0.1-0.1,0.2-0.1,0.3-0.1
		c0.2,0,0.4,0.1,0.5,0.4c0.2,0.2,0.2,0.5,0.2,0.9c0,0.3-0.1,0.7-0.3,1.1c-0.2,0.4-0.5,0.7-0.9,1c-0.8,0.6-1.7,0.9-2.8,0.9
		c-1.2,0-2.3-0.5-3.1-1.4c-1.1-1.2-1.7-2.6-1.7-4.4c0-1.7,0.5-3.2,1.6-4.3C312.8,151.9,314,151.4,315.4,151.4z"/>
	<path d="M324.9,147.7l-0.1,4.8c0,0.6,0.1,0.9,0.4,0.9c0.1,0,0.3-0.1,0.4-0.4c0.6-1.1,1.4-1.6,2.3-1.6c1,0,1.7,0.4,2.3,1.1
		c0.3,0.3,0.4,0.7,0.5,1.2c0.1,0.5,0.2,1.1,0.2,1.9l0.1,4.1c0,0.4,0,0.6,0.1,0.8c0.1,0.2,0.2,0.4,0.5,0.6c0.2,0.2,0.3,0.4,0.3,0.6
		c0,0.8-1,1.2-2.9,1.2c-1.7,0-2.6-0.4-2.6-1.2c0-0.1,0-0.2,0-0.3s0.1-0.3,0.3-0.5c0.3-0.4,0.4-1.5,0.4-3.2c0-1-0.1-1.8-0.2-2.2
		c-0.2-0.6-0.6-1-1.1-1c-0.4,0-0.6,0.2-0.8,0.5c-0.1,0.2-0.2,0.7-0.2,1.4v2.2c0,1,0.1,1.5,0.1,1.7c0,0.1,0.2,0.4,0.4,0.7
		c0.1,0.2,0.2,0.3,0.2,0.6c0,0.9-0.9,1.3-2.6,1.3c-2.1,0-3.1-0.4-3.1-1.3c0-0.2,0-0.4,0.1-0.5c0.1-0.1,0.2-0.3,0.5-0.5
		c0.2-0.2,0.4-0.8,0.5-1.7c0.1-0.9,0.1-2.4,0.1-4.5c0-1.6,0-2.8-0.1-3.4c0-0.2-0.1-0.4-0.1-0.5c-0.1-0.1-0.2-0.2-0.4-0.3
		c-0.4-0.2-0.6-0.5-0.6-0.8c0-0.4,0.1-0.7,0.4-0.9s0.8-0.5,1.6-0.8c1.1-0.4,1.9-0.6,2.6-0.6C324.7,147.1,324.9,147.3,324.9,147.7z"
		/>
	<path d="M343.3,155.6l0.1,4c0,0.3,0,0.5,0.1,0.7c0.1,0.1,0.2,0.4,0.6,0.8c0.1,0.1,0.1,0.3,0.1,0.5c0,0.5-0.2,0.9-0.7,1.1
		c-0.5,0.2-1.3,0.3-2.5,0.3c-0.8,0-1.4-0.1-1.8-0.3c-0.4-0.2-0.5-0.5-0.5-0.9c0-0.2,0-0.3,0.1-0.3c0-0.1,0.2-0.3,0.4-0.5
		c0.2-0.3,0.4-1.4,0.4-3.2c0-1.1-0.1-1.8-0.3-2.3c-0.2-0.4-0.4-0.6-0.9-0.6c-0.4,0-0.7,0.2-0.8,0.5s-0.2,0.9-0.2,1.8v2.3
		c0,0.5,0,0.8,0.1,0.9s0.2,0.5,0.4,1c0.1,0.1,0.1,0.3,0.1,0.5c0,0.5-0.2,0.8-0.7,1c-0.5,0.2-1.3,0.3-2.3,0.3c-1.7,0-2.5-0.4-2.5-1.3
		c0-0.2,0-0.3,0.1-0.4s0.2-0.2,0.4-0.4c0.2-0.1,0.3-0.3,0.3-0.5c0-0.2,0.1-0.6,0.1-1.4c0-0.9,0.1-1.8,0.1-2.7c0-0.5,0-0.9-0.1-1
		c-0.1-0.2-0.2-0.4-0.5-0.6c-0.3-0.2-0.4-0.5-0.4-0.8c0-0.3,0.1-0.6,0.3-0.8c0.2-0.2,0.6-0.4,1.3-0.7c0.6-0.3,1.1-0.5,1.7-0.7
		c0.5-0.2,0.9-0.3,1.1-0.3c0.2,0,0.3,0.1,0.5,0.3c0.1,0.2,0.2,0.4,0.2,0.6c0,0,0,0.1,0,0.3c0,0.1,0,0.1,0,0.2c0,0.4,0.1,0.6,0.4,0.6
		c0.1,0,0.3-0.1,0.5-0.4c0.5-0.9,1.3-1.4,2.2-1.4c0.8,0,1.4,0.3,1.9,0.8c0.4,0.4,0.6,0.8,0.8,1.3S343.2,154.7,343.3,155.6z"/>
	<path d="M350.3,151.4c1.1,0,2.1,0.4,2.9,1.1c0.6,0.5,1.1,1.2,1.4,2c0.4,0.9,0.6,1.8,0.6,2.7c0,1.7-0.6,3.1-1.8,4.2
		c-1.1,1.1-2.4,1.7-3.9,1.7c-1.4,0-2.6-0.5-3.5-1.6c-0.9-1-1.3-2.3-1.3-3.9c0-1.8,0.5-3.3,1.6-4.4
		C347.4,152,348.7,151.4,350.3,151.4z M349.5,154c-0.3,0-0.5,0.1-0.6,0.4c-0.2,0.2-0.2,0.6-0.2,1c0,0.5,0.1,1.1,0.2,1.9
		c0.1,0.8,0.3,1.5,0.5,2.1c0.2,0.6,0.5,0.9,0.9,0.9c0.5,0,0.8-0.4,0.8-1.3c0-0.6-0.1-1.4-0.2-2.2c-0.1-0.8-0.3-1.5-0.5-2
		C350.2,154.3,349.9,154,349.5,154z"/>
	<path d="M360.9,153.7v3.7c0,1.6,0,2.6,0.1,2.8c0,0.3,0.2,0.5,0.4,0.6c0.2,0.1,0.4,0.2,0.4,0.3c0.1,0.1,0.1,0.3,0.1,0.5
		c0,0.3-0.1,0.5-0.2,0.7c-0.1,0.2-0.3,0.4-0.6,0.4c-0.4,0.2-1.2,0.3-2.2,0.3c-1.2,0-2-0.1-2.4-0.3c-0.2-0.1-0.4-0.3-0.5-0.5
		s-0.2-0.4-0.2-0.7c0-0.2,0-0.3,0.1-0.4c0.1-0.1,0.2-0.2,0.5-0.4c0.2-0.1,0.4-0.5,0.4-1.1c0.1-1,0.1-2.4,0.1-4.2
		c0-1.9,0-3.1-0.1-3.6c-0.1-0.5-0.3-0.9-0.6-1.2c-0.3-0.2-0.4-0.4-0.5-0.5c-0.1-0.2-0.1-0.4-0.1-0.6c0-0.4,0.1-0.7,0.4-1
		c0.3-0.3,0.7-0.5,1.3-0.8c0.4-0.2,0.9-0.3,1.6-0.5s1.1-0.2,1.4-0.2c0.5,0,0.7,0.4,0.7,1.1c0,0.2,0,0.8-0.1,1.7
		C361,151.3,360.9,152.6,360.9,153.7z"/>
	<path d="M368,151.4c1.1,0,2.1,0.4,2.9,1.1c0.6,0.5,1.1,1.2,1.4,2c0.4,0.9,0.6,1.8,0.6,2.7c0,1.7-0.6,3.1-1.8,4.2
		c-1.1,1.1-2.4,1.7-3.9,1.7c-1.4,0-2.6-0.5-3.5-1.6c-0.9-1-1.3-2.3-1.3-3.9c0-1.8,0.5-3.3,1.6-4.4C365.1,152,366.5,151.4,368,151.4z
		 M367.3,154c-0.3,0-0.5,0.1-0.6,0.4c-0.2,0.2-0.2,0.6-0.2,1c0,0.5,0.1,1.1,0.2,1.9c0.1,0.8,0.3,1.5,0.5,2.1
		c0.2,0.6,0.5,0.9,0.9,0.9c0.5,0,0.8-0.4,0.8-1.3c0-0.6-0.1-1.4-0.2-2.2c-0.1-0.8-0.3-1.5-0.5-2C368,154.3,367.7,154,367.3,154z"/>
	<path d="M383.1,150.8c0.1,0,0.3,0.1,0.4,0.3c0.1,0.2,0.2,0.5,0.2,0.8c0,0.3-0.1,0.7-0.2,1.1c-0.2,0.4-0.3,0.7-0.6,1
		c-0.1,0.2-0.2,0.3-0.2,0.4c0,0,0,0.1,0,0.3c0,0.2,0,0.3,0,0.4c0,0.9-0.2,1.7-0.7,2.3c-0.4,0.5-1,1-1.7,1.3
		c-0.7,0.3-1.4,0.5-2.2,0.5c-0.2,0-0.4,0-0.6,0c-0.2,0-0.3,0-0.4,0c-0.3,0-0.5,0.2-0.5,0.6c0,0.3,0.1,0.5,0.3,0.6
		c0.2,0.1,0.5,0.2,0.8,0.2c0.2,0,0.6,0,1.1-0.1c1-0.2,1.7-0.3,2.2-0.3c0.7,0,1.3,0.1,1.6,0.4c0.3,0.2,0.6,0.5,0.7,1s0.3,0.9,0.3,1.3
		c0,0.8-0.2,1.5-0.7,2.2c-0.5,0.9-1.3,1.5-2.3,1.9c-0.8,0.3-1.7,0.5-2.8,0.5c-1.3,0-2.4-0.3-3.2-0.8c-0.4-0.2-0.7-0.6-0.9-1
		s-0.3-0.8-0.3-1.2c0-0.3,0.1-0.6,0.2-0.8c0.1-0.3,0.3-0.4,0.5-0.5c0.2-0.1,0.3-0.2,0.3-0.3c0-0.1-0.1-0.2-0.2-0.4
		c-0.5-0.5-0.7-1-0.7-1.6c0-0.4,0.1-0.7,0.3-1.1c0.2-0.4,0.5-0.7,0.9-0.9c0.1-0.1,0.2-0.2,0.2-0.3c0-0.1-0.1-0.3-0.3-0.5
		c-0.6-0.7-0.9-1.6-0.9-2.5c0-0.5,0.1-1,0.3-1.5c0.2-0.5,0.5-0.9,0.9-1.2c1-0.8,2-1.2,3.2-1.2c0.5,0,1,0.1,1.6,0.2
		c0.5,0.1,0.9,0.2,1.1,0.2c0.7,0,1.3-0.3,1.9-1C382.9,150.8,383,150.8,383.1,150.8z M376.3,163.6c-0.2,0-0.2,0.1-0.2,0.3
		c0,0.5,0.2,0.8,0.6,1.1c0.4,0.3,0.9,0.4,1.5,0.4c0.6,0,1-0.1,1.4-0.3s0.5-0.5,0.5-0.8c0-0.2-0.1-0.4-0.2-0.5
		c-0.1-0.1-0.3-0.2-0.5-0.2c-0.1,0-0.2,0-0.4,0c-0.3,0.1-0.7,0.1-1.1,0.1c-0.3,0-0.6,0-0.9-0.1c-0.2,0-0.4-0.1-0.5-0.1
		C376.3,163.6,376.3,163.6,376.3,163.6z M378.2,153.1c-0.3,0-0.5,0.1-0.7,0.4s-0.3,0.7-0.3,1.2c0,0.8,0.1,1.5,0.3,2s0.5,0.7,0.8,0.7
		c0.3,0,0.6-0.2,0.8-0.5c0.2-0.3,0.3-0.7,0.3-1.2c0-0.8-0.1-1.5-0.3-1.9S378.6,153.2,378.2,153.1z"/>
	<path d="M392.7,157l-1.2,4.2c-0.3,1-0.6,1.9-0.9,2.5s-0.6,1.2-1,1.7c-0.8,0.9-1.7,1.4-2.8,1.4c-0.9,0-1.6-0.3-2.2-0.9
		c-0.4-0.5-0.6-1-0.6-1.8c0-0.6,0.1-1.1,0.4-1.5c0.3-0.4,0.7-0.6,1.1-0.6s0.8,0.2,1,0.5c0.1,0.2,0.2,0.3,0.3,0.4s0.1,0.4,0.2,0.9
		c0.1,0.3,0.2,0.5,0.4,0.5c0.2,0,0.3-0.1,0.5-0.3c0.1-0.2,0.2-0.5,0.2-0.8c0-0.4-0.2-1-0.5-1.8l-2.2-5.9c-0.2-0.6-0.4-1-0.5-1.1
		c-0.1-0.2-0.4-0.3-0.8-0.6c-0.1-0.1-0.2-0.2-0.3-0.4c-0.1-0.2-0.1-0.4-0.1-0.5c0-0.7,0.5-1.1,1.6-1.4c0.7-0.2,1.5-0.2,2.4-0.2
		c0.6,0,1.1,0.1,1.5,0.3c0.5,0.2,0.7,0.6,0.7,1.1c0,0.2-0.1,0.4-0.2,0.7c-0.1,0.2-0.2,0.5-0.2,0.7c0,0.2,0,0.4,0.1,0.6
		s0.2,0.5,0.4,1c0.2,0.5,0.4,0.8,0.6,0.8c0.2,0,0.4-0.2,0.6-0.7c0.2-0.5,0.3-0.9,0.3-1.4c0-0.4-0.1-0.6-0.2-0.9
		c-0.2-0.3-0.3-0.6-0.3-0.9c0-0.4,0.2-0.7,0.6-0.9c0.4-0.2,1-0.3,1.6-0.3c1.3,0,1.9,0.4,1.9,1.2c0,0.3-0.1,0.5-0.2,0.7
		c-0.1,0.2-0.4,0.3-0.7,0.5c-0.3,0.1-0.5,0.4-0.7,0.7C393.4,155,393.1,155.8,392.7,157z"/>
</g>
</svg>
