<?xml version="1.0" encoding="utf-8"?>
<!-- Generator: Adobe Illustrator 22.1.0, SVG Export Plug-In . SVG Version: 6.00 Build 0)  -->
<svg version="1.1"
	 id="svg21" inkscape:version="0.92.4 (5da689c313, 2019-01-14)" sodipodi:docname="ieee.svg" xmlns:cc="http://creativecommons.org/ns#" xmlns:dc="http://purl.org/dc/elements/1.1/" xmlns:inkscape="http://www.inkscape.org/namespaces/inkscape" xmlns:rdf="http://www.w3.org/1999/02/22-rdf-syntax-ns#" xmlns:sodipodi="http://sodipodi.sourceforge.net/DTD/sodipodi-0.dtd" xmlns:svg="http://www.w3.org/2000/svg"
	 xmlns="http://www.w3.org/2000/svg" xmlns:xlink="http://www.w3.org/1999/xlink" x="0px" y="0px" viewBox="0 0 464.9 311.8"
	 style="enable-background:new 0 0 464.9 311.8;" xml:space="preserve">
<style type="text/css">
	.st0{fill:#0F86D6;}
	.st1{enable-background:new    ;}
	.st2{fill:#FFFFFF;}
</style>
<sodipodi:namedview  bordercolor="#666666" borderopacity="1" gridtolerance="10" guidetolerance="10" id="namedview23" inkscape:current-layer="svg21" inkscape:cx="-331.67638" inkscape:cy="912.75357" inkscape:pageopacity="0" inkscape:pageshadow="2" inkscape:window-height="847" inkscape:window-maximized="1" inkscape:window-width="1600" inkscape:window-x="-8" inkscape:window-y="-8" inkscape:zoom="0.12927914" objecttolerance="10" pagecolor="#ffffff" showgrid="false" units="px">
	</sodipodi:namedview>
<g id="Layer_x0020_1" transform="translate(-1398.0551,-5345.0003)">
	<g>
		<g id="_1848509316400_8_">
			<rect id="rect7_8_" x="1398.1" y="5345" class="st0" width="464.9" height="311.8"/>
		</g>
	</g>
</g>
<g class="st1">
	<path class="st2" d="M82.2,160.9l-0.2,0.7h-3.7c-0.6-1.4-1.1-2.6-1.7-3.5c-0.5-1-1.1-2-1.6-3.1h-1.5l-1.1,4.7c0,0.1,0,0.1,0,0.2
		s0,0.1,0,0.2c0,0.2,0,0.3,0.1,0.4s0.2,0.2,0.3,0.3c0.1,0,0.3,0.1,0.6,0.1c0.3,0,0.6,0.1,0.8,0.1l-0.2,0.7h-6.2l0.2-0.7
		c0.2,0,0.4,0,0.7-0.1s0.5-0.1,0.7-0.1c0.2-0.1,0.4-0.2,0.6-0.4c0.1-0.2,0.2-0.4,0.3-0.6l2.5-10.6c0-0.1,0-0.1,0-0.2
		c0-0.1,0-0.1,0-0.2c0-0.1,0-0.3-0.1-0.4s-0.2-0.2-0.3-0.3c-0.1-0.1-0.4-0.1-0.6-0.2c-0.3-0.1-0.5-0.1-0.7-0.1l0.2-0.7h6.5
		c0.6,0,1.1,0.1,1.6,0.2c0.5,0.1,0.9,0.3,1.2,0.5c0.4,0.2,0.6,0.5,0.9,0.9c0.2,0.4,0.3,0.8,0.3,1.3c0,0.6-0.1,1.2-0.4,1.8
		c-0.2,0.5-0.6,1-1,1.4c-0.4,0.4-0.9,0.7-1.5,1c-0.5,0.3-1.1,0.5-1.8,0.6c0.5,1,1,1.8,1.3,2.5c0.3,0.6,0.7,1.3,1.2,2.2
		c0.2,0.4,0.4,0.8,0.6,1c0.2,0.2,0.4,0.4,0.6,0.5c0.2,0.1,0.4,0.2,0.7,0.2S82,160.9,82.2,160.9z M79.3,150c0-0.7-0.2-1.2-0.6-1.6
		c-0.4-0.4-1-0.6-1.8-0.6h-1.6l-1.4,6.3h1.5c1.1,0,2.1-0.4,2.9-1.2C78.9,152.2,79.3,151.2,79.3,150z"/>
	<path class="st2" d="M92.4,153.4c0,0.7-0.2,1.3-0.7,1.9c-0.5,0.5-1.1,0.9-2,1.2c-0.6,0.2-1.3,0.4-1.9,0.6s-1.4,0.3-2.2,0.4
		c0,1.1,0.2,1.9,0.6,2.5c0.4,0.6,1,0.9,1.8,0.9c0.7,0,1.3-0.2,1.8-0.5c0.5-0.3,1-0.9,1.5-1.5l0.6,0.4c-0.5,0.8-1.2,1.5-2.1,2
		c-0.8,0.5-1.7,0.7-2.6,0.7c-1.2,0-2.1-0.3-2.8-1c-0.6-0.7-1-1.6-1-2.9c0-0.9,0.1-1.7,0.4-2.5c0.3-0.8,0.7-1.5,1.2-2.2
		c0.5-0.6,1.1-1.2,1.9-1.5c0.7-0.4,1.5-0.6,2.4-0.6c1,0,1.7,0.2,2.2,0.6S92.4,152.8,92.4,153.4z M90.5,153.1c0-0.3,0-0.5-0.1-0.6
		s-0.2-0.3-0.3-0.3c-0.1-0.1-0.3-0.1-0.4-0.2s-0.3,0-0.4,0c-0.8,0-1.6,0.5-2.3,1.4s-1.1,2-1.3,3.4c0.5-0.1,1-0.2,1.6-0.3
		s1.1-0.3,1.5-0.5c0.6-0.3,1-0.7,1.3-1.1C90.4,154.3,90.5,153.8,90.5,153.1z"/>
	<path class="st2" d="M96.5,161.9c-1,0-1.9-0.2-2.5-0.5c-0.7-0.4-1-0.8-1-1.4c0-0.3,0.1-0.5,0.3-0.8c0.2-0.2,0.4-0.4,0.7-0.4
		c0.3,0,0.5,0.1,0.7,0.2c0.2,0.1,0.3,0.3,0.4,0.4c0.1,0.2,0.2,0.4,0.3,0.6s0.1,0.4,0.2,0.6c0.1,0.1,0.2,0.2,0.4,0.3
		c0.2,0.1,0.4,0.1,0.8,0.1c0.7,0,1.3-0.2,1.7-0.6c0.4-0.4,0.6-0.9,0.6-1.5c0-0.5-0.2-0.8-0.5-1.1s-0.9-0.5-1.6-0.8
		c-0.3-0.1-0.6-0.2-0.9-0.4s-0.6-0.3-0.8-0.5c-0.2-0.2-0.4-0.5-0.6-0.8s-0.2-0.7-0.2-1.1c0-0.9,0.4-1.6,1.2-2.3c0.8-0.6,1.7-1,2.9-1
		c0.3,0,0.6,0,0.9,0s0.6,0.1,1,0.2c0.3,0.1,0.6,0.3,0.8,0.5c0.2,0.2,0.3,0.5,0.3,0.8c0,0.3-0.1,0.5-0.3,0.8
		c-0.2,0.2-0.4,0.3-0.7,0.3c-0.3,0-0.5-0.1-0.6-0.2c-0.2-0.1-0.3-0.3-0.4-0.4s-0.2-0.4-0.3-0.6s-0.1-0.4-0.2-0.6
		c-0.1-0.1-0.2-0.1-0.3-0.1s-0.2,0-0.4,0c-0.7,0-1.2,0.2-1.5,0.5c-0.3,0.4-0.5,0.8-0.5,1.3c0,0.5,0.2,0.8,0.5,1.1s0.8,0.5,1.5,0.8
		c0.9,0.3,1.6,0.7,2,1.2c0.4,0.4,0.6,1,0.6,1.6c0,1-0.4,1.9-1.2,2.5C98.7,161.6,97.7,161.9,96.5,161.9z"/>
	<path class="st2" d="M111.4,153.4c0,0.7-0.2,1.3-0.7,1.9c-0.5,0.5-1.1,0.9-2,1.2c-0.6,0.2-1.3,0.4-1.9,0.6s-1.4,0.3-2.2,0.4
		c0,1.1,0.2,1.9,0.6,2.5c0.4,0.6,1,0.9,1.8,0.9c0.7,0,1.3-0.2,1.8-0.5c0.5-0.3,1-0.9,1.5-1.5l0.6,0.4c-0.5,0.8-1.2,1.5-2.1,2
		c-0.8,0.5-1.7,0.7-2.6,0.7c-1.2,0-2.1-0.3-2.8-1c-0.6-0.7-1-1.6-1-2.9c0-0.9,0.1-1.7,0.4-2.5c0.3-0.8,0.7-1.5,1.2-2.2
		c0.5-0.6,1.1-1.2,1.9-1.5c0.7-0.4,1.5-0.6,2.4-0.6c1,0,1.7,0.2,2.2,0.6S111.4,152.8,111.4,153.4z M109.5,153.1c0-0.3,0-0.5-0.1-0.6
		s-0.2-0.3-0.3-0.3c-0.1-0.1-0.3-0.1-0.4-0.2s-0.3,0-0.4,0c-0.8,0-1.6,0.5-2.3,1.4s-1.1,2-1.3,3.4c0.5-0.1,1-0.2,1.6-0.3
		s1.1-0.3,1.5-0.5c0.6-0.3,1-0.7,1.3-1.1C109.3,154.3,109.5,153.8,109.5,153.1z"/>
	<path class="st2" d="M118.9,160.2L118.9,160.2c-0.2,0.1-0.4,0.3-0.6,0.5c-0.2,0.2-0.5,0.4-0.7,0.5c-0.3,0.2-0.6,0.3-0.9,0.4
		c-0.3,0.1-0.7,0.2-1,0.2c-1,0-1.8-0.4-2.3-1.1c-0.6-0.7-0.8-1.7-0.8-2.9c0-0.8,0.2-1.7,0.5-2.5c0.3-0.8,0.7-1.5,1.3-2.2
		c0.5-0.6,1.2-1.1,1.9-1.5s1.5-0.6,2.2-0.6c0.5,0,0.9,0.1,1.4,0.2s0.8,0.3,1,0.4l1.9-0.5l0.1,0.2l-1.6,6.6c-0.1,0.2-0.1,0.5-0.2,0.8
		s-0.1,0.5-0.1,0.7c0,0.4,0.1,0.7,0.2,0.8s0.4,0.2,0.8,0.2c0.1,0,0.3,0,0.6-0.1s0.4-0.1,0.6-0.1l-0.2,0.7c-0.6,0.2-1.1,0.4-1.4,0.5
		c-0.3,0.1-0.7,0.2-1.1,0.2c-0.5,0-0.9-0.1-1.2-0.4S118.9,160.7,118.9,160.2z M120.4,153.8c0-0.2,0-0.4-0.1-0.6
		c0-0.2-0.1-0.4-0.3-0.6c-0.1-0.2-0.3-0.3-0.6-0.4c-0.2-0.1-0.5-0.2-0.9-0.2c-0.5,0-1,0.2-1.5,0.5c-0.5,0.3-0.9,0.8-1.3,1.3
		c-0.4,0.5-0.6,1.2-0.9,1.9c-0.2,0.7-0.3,1.5-0.3,2.2c0,0.4,0,0.8,0.1,1.1c0,0.3,0.1,0.6,0.3,0.9c0.1,0.3,0.3,0.5,0.6,0.6
		s0.6,0.2,0.9,0.2c0.4,0,0.8-0.1,1.2-0.3c0.4-0.2,0.9-0.6,1.4-1.1L120.4,153.8z"/>
	<path class="st2" d="M133.6,152.9c0,0.2,0,0.4-0.1,0.6c-0.1,0.2-0.1,0.4-0.2,0.6c-0.1,0.2-0.3,0.3-0.4,0.4
		c-0.1,0.1-0.4,0.1-0.6,0.1c-0.4,0-0.6-0.1-0.8-0.3c-0.2-0.2-0.3-0.4-0.3-0.6c0-0.2,0.1-0.5,0.2-0.7c0.1-0.3,0.2-0.5,0.3-0.8
		c-0.1,0-0.2,0-0.4,0.1c-0.2,0-0.4,0.1-0.7,0.3c-0.3,0.1-0.6,0.3-0.9,0.6c-0.3,0.3-0.7,0.6-1.1,1l-1.7,7.3h-1.9l1.5-6.7
		c0-0.2,0.1-0.4,0.1-0.7c0.1-0.3,0.1-0.6,0.1-0.7c0-0.4-0.1-0.6-0.2-0.8s-0.4-0.2-0.8-0.2c-0.1,0-0.3,0-0.6,0.1
		c-0.2,0.1-0.4,0.1-0.5,0.1l0.2-0.7c0.5-0.2,1-0.4,1.4-0.5s0.8-0.2,1.1-0.2c0.5,0,0.9,0.1,1.2,0.4s0.3,0.7,0.3,1.3h0.1
		c0.8-0.7,1.4-1.2,1.9-1.5s0.9-0.4,1.3-0.4c0.2,0,0.4,0,0.6,0.1s0.4,0.1,0.5,0.3c0.2,0.1,0.3,0.3,0.3,0.5
		C133.5,152.3,133.6,152.6,133.6,152.9z"/>
	<path class="st2" d="M138,161.9c-1.2,0-2.1-0.3-2.8-1s-1-1.7-1-3c0-0.9,0.1-1.7,0.4-2.5c0.3-0.8,0.6-1.5,1.1-2.1
		c0.5-0.6,1.1-1.1,1.8-1.5c0.7-0.4,1.5-0.6,2.4-0.6c1,0,1.7,0.2,2.2,0.6c0.5,0.4,0.8,0.9,0.8,1.6c0,0.5-0.1,0.9-0.3,1.2
		c-0.2,0.4-0.6,0.5-1,0.5c-0.4,0-0.6-0.1-0.8-0.3c-0.2-0.2-0.3-0.4-0.3-0.6c0-0.2,0.1-0.5,0.2-0.9c0.1-0.4,0.3-0.7,0.4-0.9
		c-0.1-0.2-0.2-0.3-0.5-0.4c-0.3-0.1-0.5-0.1-0.8-0.1c-0.9,0-1.7,0.5-2.4,1.6c-0.7,1.1-1,2.4-1,4c0,1,0.2,1.7,0.7,2.3
		c0.4,0.6,1,0.9,1.8,0.9c0.7,0,1.3-0.2,1.8-0.5c0.5-0.4,1-0.9,1.5-1.5l0.6,0.4c-0.5,0.7-1.1,1.4-1.9,1.9
		C139.8,161.6,138.9,161.9,138,161.9z"/>
	<path class="st2" d="M154.2,160.4l-0.2,0.7c-0.6,0.2-1.1,0.4-1.4,0.5c-0.3,0.1-0.7,0.2-1,0.2c-0.5,0-1-0.1-1.2-0.4
		c-0.3-0.3-0.4-0.6-0.4-1.1c0-0.2,0-0.3,0-0.5s0.1-0.4,0.1-0.6l1-3.8c0.1-0.3,0.1-0.6,0.2-0.8c0-0.2,0.1-0.4,0.1-0.6
		c0-0.5-0.1-0.8-0.3-1.1c-0.2-0.3-0.5-0.4-1-0.4c-0.4,0-0.9,0.1-1.4,0.4c-0.5,0.3-1,0.7-1.4,1.2l-1.7,7.5h-1.9l3.1-13.2
		c0-0.2,0.1-0.3,0.1-0.4c0-0.1,0-0.2,0-0.3c0-0.2,0-0.4-0.1-0.6c-0.1-0.1-0.2-0.2-0.4-0.3c-0.1-0.1-0.3-0.1-0.5-0.1s-0.5,0-0.7-0.1
		l0.1-0.6l3.8-0.2l0.1,0.2l-1.6,7.1h0c0.7-0.6,1.3-1,1.9-1.3c0.6-0.3,1.2-0.4,1.9-0.4c0.7,0,1.2,0.2,1.5,0.6
		c0.4,0.4,0.6,0.9,0.6,1.5c0,0.1,0,0.3-0.1,0.7c0,0.3-0.1,0.6-0.2,0.9l-0.9,3.3c-0.1,0.2-0.1,0.5-0.2,0.8s-0.1,0.5-0.1,0.7
		c0,0.4,0.1,0.7,0.3,0.8c0.2,0.1,0.5,0.2,0.8,0.2c0.1,0,0.3,0,0.6-0.1C153.9,160.5,154.1,160.5,154.2,160.4z"/>
	<path class="st2" d="M172.3,147.1l-0.2,0.7c-0.2,0-0.4,0-0.7,0.1c-0.3,0-0.5,0.1-0.8,0.2c-0.3,0.1-0.5,0.2-0.6,0.4
		c-0.1,0.2-0.2,0.4-0.3,0.6l-2,8.7c-0.1,0.5-0.3,0.9-0.6,1.5c-0.3,0.5-0.6,1-1.1,1.4c-0.5,0.4-1,0.8-1.6,1c-0.6,0.3-1.3,0.4-2.1,0.4
		c-1,0-1.7-0.2-2.3-0.7s-0.9-1.1-0.9-2c0-0.7,0.2-1.3,0.5-1.8c0.3-0.5,0.8-0.8,1.3-0.8c0.4,0,0.7,0.1,0.9,0.3s0.3,0.4,0.3,0.7
		c0,0.2-0.1,0.5-0.2,0.7s-0.3,0.5-0.5,0.7c-0.2,0.2-0.3,0.4-0.5,0.7c-0.2,0.2-0.4,0.4-0.5,0.6c0.1,0.2,0.3,0.4,0.6,0.6
		c0.3,0.2,0.7,0.2,1.2,0.2c0.5,0,0.9-0.1,1.3-0.3c0.4-0.2,0.7-0.5,0.9-0.9s0.4-0.8,0.6-1.4c0.2-0.5,0.3-1.1,0.5-1.7l1.7-7.8
		c0,0,0-0.1,0-0.2s0-0.1,0-0.2c0-0.1,0-0.3-0.1-0.4s-0.2-0.2-0.3-0.3c-0.2-0.1-0.4-0.2-0.8-0.3c-0.3-0.1-0.6-0.1-0.8-0.1l0.2-0.7
		H172.3z"/>
	<path class="st2" d="M181.3,155.3c0,0.8-0.1,1.6-0.4,2.4s-0.7,1.5-1.2,2.1c-0.5,0.6-1.2,1.1-1.9,1.5c-0.7,0.4-1.6,0.6-2.6,0.6
		c-1.1,0-2.1-0.4-2.8-1.1c-0.7-0.7-1.1-1.7-1.1-3c0-0.9,0.2-1.8,0.5-2.5s0.7-1.5,1.2-2.1c0.5-0.6,1.1-1.1,1.9-1.4
		c0.8-0.4,1.6-0.5,2.5-0.5c1.2,0,2.2,0.4,2.9,1.1C181,153.1,181.3,154.1,181.3,155.3z M179.3,154.9c0-1-0.2-1.7-0.5-2.2
		c-0.3-0.5-0.8-0.7-1.5-0.7c-0.6,0-1.1,0.2-1.6,0.5c-0.5,0.3-0.9,0.9-1.3,1.7c-0.3,0.6-0.5,1.3-0.6,2c-0.1,0.7-0.2,1.4-0.2,2
		c0,1,0.2,1.7,0.5,2.2c0.3,0.5,0.8,0.8,1.5,0.8c0.6,0,1.1-0.2,1.6-0.6c0.5-0.4,0.9-0.9,1.1-1.5c0.3-0.6,0.5-1.2,0.7-2
		C179.2,156.4,179.3,155.7,179.3,154.9z"/>
	<path class="st2" d="M189.3,160.2L189.3,160.2c-0.4,0.3-0.7,0.5-1,0.7s-0.6,0.4-0.9,0.5c-0.3,0.2-0.6,0.3-0.9,0.4
		c-0.3,0.1-0.6,0.1-1,0.1c-0.7,0-1.2-0.2-1.5-0.6c-0.4-0.4-0.5-0.9-0.5-1.5c0-0.2,0-0.4,0-0.6c0-0.2,0.1-0.6,0.2-1l0.8-3.3
		c0.1-0.3,0.1-0.6,0.2-0.8s0.1-0.5,0.1-0.7c0-0.4-0.1-0.6-0.2-0.8c-0.1-0.1-0.4-0.2-0.8-0.2c-0.2,0-0.3,0-0.6,0.1s-0.4,0.1-0.5,0.1
		l0.2-0.7c0.5-0.2,1-0.4,1.4-0.5s0.7-0.2,1-0.2c0.5,0,0.9,0.1,1.2,0.4c0.3,0.3,0.4,0.6,0.4,1.1c0,0.1,0,0.3,0,0.5
		c0,0.2-0.1,0.4-0.1,0.6l-0.9,3.8c-0.1,0.3-0.1,0.6-0.2,0.8c0,0.2-0.1,0.4-0.1,0.6c0,0.5,0.1,0.8,0.3,1.1c0.2,0.3,0.5,0.4,0.9,0.4
		c0.4,0,0.9-0.1,1.3-0.3c0.5-0.2,0.9-0.6,1.4-1l1.8-7.7l1.8-0.1l0.1,0.2l-1.5,6.6c-0.1,0.3-0.1,0.6-0.2,0.8
		c-0.1,0.3-0.1,0.5-0.1,0.6c0,0.4,0.1,0.7,0.3,0.8c0.2,0.1,0.4,0.2,0.8,0.2c0.1,0,0.3,0,0.6-0.1s0.4-0.1,0.6-0.1l-0.2,0.7
		c-0.6,0.2-1,0.4-1.4,0.5s-0.7,0.2-1.1,0.2c-0.6,0-1-0.2-1.2-0.5C189.4,161,189.3,160.6,189.3,160.2z"/>
	<path class="st2" d="M203.9,152.9c0,0.2,0,0.4-0.1,0.6c-0.1,0.2-0.1,0.4-0.2,0.6c-0.1,0.2-0.3,0.3-0.4,0.4
		c-0.1,0.1-0.4,0.1-0.6,0.1c-0.4,0-0.6-0.1-0.8-0.3c-0.2-0.2-0.3-0.4-0.3-0.6c0-0.2,0.1-0.5,0.2-0.7c0.1-0.3,0.2-0.5,0.3-0.8
		c-0.1,0-0.2,0-0.4,0.1c-0.2,0-0.4,0.1-0.7,0.3c-0.3,0.1-0.6,0.3-0.9,0.6c-0.3,0.3-0.7,0.6-1.1,1l-1.7,7.3h-1.9l1.5-6.7
		c0-0.2,0.1-0.4,0.1-0.7c0.1-0.3,0.1-0.6,0.1-0.7c0-0.4-0.1-0.6-0.2-0.8s-0.4-0.2-0.8-0.2c-0.1,0-0.3,0-0.6,0.1
		c-0.2,0.1-0.4,0.1-0.5,0.1l0.2-0.7c0.5-0.2,1-0.4,1.4-0.5s0.8-0.2,1.1-0.2c0.5,0,0.9,0.1,1.2,0.4s0.3,0.7,0.3,1.3h0.1
		c0.8-0.7,1.4-1.2,1.9-1.5s0.9-0.4,1.3-0.4c0.2,0,0.4,0,0.6,0.1s0.4,0.1,0.5,0.3c0.2,0.1,0.3,0.3,0.3,0.5
		C203.9,152.3,203.9,152.6,203.9,152.9z"/>
	<path class="st2" d="M215.6,160.4l-0.2,0.7c-0.6,0.2-1.1,0.4-1.4,0.5c-0.3,0.1-0.7,0.2-1,0.2c-0.5,0-1-0.1-1.2-0.4
		c-0.3-0.3-0.4-0.6-0.4-1.1c0-0.2,0-0.3,0-0.5s0.1-0.4,0.1-0.6l1-3.8c0.1-0.3,0.1-0.6,0.2-0.8c0-0.2,0.1-0.4,0.1-0.6
		c0-0.5-0.1-0.8-0.3-1.1c-0.2-0.3-0.5-0.4-1-0.4c-0.4,0-0.9,0.1-1.4,0.4c-0.5,0.3-1,0.7-1.5,1.2l-1.8,7.5h-1.9l1.5-6.7
		c0-0.2,0.1-0.4,0.1-0.7s0.1-0.6,0.1-0.8c0-0.4-0.1-0.6-0.2-0.8c-0.1-0.1-0.4-0.2-0.8-0.2c-0.2,0-0.3,0-0.6,0.1
		c-0.2,0.1-0.4,0.1-0.5,0.1l0.2-0.7c0.5-0.2,1-0.4,1.4-0.5c0.4-0.1,0.8-0.2,1.1-0.2c0.5,0,0.9,0.1,1.2,0.4c0.2,0.3,0.4,0.7,0.4,1.2
		h0.1c0.7-0.6,1.4-1,1.9-1.3c0.5-0.3,1.2-0.4,1.9-0.4c0.7,0,1.2,0.2,1.5,0.6c0.4,0.4,0.6,0.9,0.6,1.5c0,0.1,0,0.3-0.1,0.7
		c0,0.3-0.1,0.6-0.2,0.9l-0.9,3.3c-0.1,0.2-0.1,0.5-0.2,0.8c-0.1,0.3-0.1,0.5-0.1,0.7c0,0.4,0.1,0.7,0.3,0.8
		c0.2,0.1,0.5,0.2,0.8,0.2c0.1,0,0.3,0,0.6-0.1C215.3,160.5,215.5,160.5,215.6,160.4z"/>
	<path class="st2" d="M223.3,160.2L223.3,160.2c-0.2,0.1-0.4,0.3-0.6,0.5c-0.2,0.2-0.5,0.4-0.7,0.5c-0.3,0.2-0.6,0.3-0.9,0.4
		c-0.3,0.1-0.7,0.2-1,0.2c-1,0-1.8-0.4-2.3-1.1c-0.6-0.7-0.8-1.7-0.8-2.9c0-0.8,0.2-1.7,0.5-2.5c0.3-0.8,0.7-1.5,1.3-2.2
		c0.5-0.6,1.2-1.1,1.9-1.5s1.5-0.6,2.2-0.6c0.5,0,0.9,0.1,1.4,0.2s0.8,0.3,1,0.4l1.9-0.5l0.1,0.2l-1.6,6.6c-0.1,0.2-0.1,0.5-0.2,0.8
		s-0.1,0.5-0.1,0.7c0,0.4,0.1,0.7,0.2,0.8s0.4,0.2,0.8,0.2c0.1,0,0.3,0,0.6-0.1s0.4-0.1,0.6-0.1l-0.2,0.7c-0.6,0.2-1.1,0.4-1.4,0.5
		c-0.3,0.1-0.7,0.2-1.1,0.2c-0.5,0-0.9-0.1-1.2-0.4S223.3,160.7,223.3,160.2z M224.8,153.8c0-0.2,0-0.4-0.1-0.6
		c0-0.2-0.1-0.4-0.3-0.6c-0.1-0.2-0.3-0.3-0.6-0.4c-0.2-0.1-0.5-0.2-0.9-0.2c-0.5,0-1,0.2-1.5,0.5c-0.5,0.3-0.9,0.8-1.3,1.3
		c-0.4,0.5-0.6,1.2-0.9,1.9c-0.2,0.7-0.3,1.5-0.3,2.2c0,0.4,0,0.8,0.1,1.1c0,0.3,0.1,0.6,0.3,0.9c0.1,0.3,0.3,0.5,0.6,0.6
		s0.6,0.2,0.9,0.2c0.4,0,0.8-0.1,1.2-0.3c0.4-0.2,0.9-0.6,1.4-1.1L224.8,153.8z"/>
	<path class="st2" d="M234.4,145.9l-2.9,12.3c-0.1,0.3-0.1,0.5-0.2,0.8s-0.1,0.5-0.1,0.6c0,0.4,0.1,0.7,0.3,0.8
		c0.2,0.1,0.5,0.2,0.8,0.2c0.1,0,0.3,0,0.6-0.1s0.5-0.1,0.6-0.1l-0.2,0.7c-0.6,0.2-1.1,0.4-1.4,0.5c-0.3,0.1-0.7,0.2-1.1,0.2
		c-0.5,0-1-0.1-1.2-0.4c-0.3-0.3-0.4-0.6-0.4-1.1c0-0.2,0-0.3,0-0.5c0-0.2,0.1-0.4,0.1-0.6l2.5-10.8c0-0.2,0.1-0.4,0.1-0.4
		s0-0.2,0-0.3c0-0.2,0-0.4-0.1-0.6c-0.1-0.1-0.2-0.2-0.4-0.3c-0.1-0.1-0.3-0.1-0.5-0.1s-0.4,0-0.7-0.1l0.1-0.6l3.8-0.2L234.4,145.9z
		"/>
	<path class="st2" d="M249.9,155.3c0,0.8-0.1,1.6-0.4,2.4s-0.7,1.5-1.2,2.1c-0.5,0.6-1.2,1.1-1.9,1.5c-0.7,0.4-1.6,0.6-2.6,0.6
		c-1.1,0-2.1-0.4-2.8-1.1c-0.7-0.7-1.1-1.7-1.1-3c0-0.9,0.2-1.8,0.5-2.5s0.7-1.5,1.2-2.1c0.5-0.6,1.1-1.1,1.9-1.4
		c0.8-0.4,1.6-0.5,2.5-0.5c1.2,0,2.2,0.4,2.9,1.1C249.5,153.1,249.9,154.1,249.9,155.3z M247.8,154.9c0-1-0.2-1.7-0.5-2.2
		c-0.3-0.5-0.8-0.7-1.5-0.7c-0.6,0-1.1,0.2-1.6,0.5c-0.5,0.3-0.9,0.9-1.3,1.7c-0.3,0.6-0.5,1.3-0.6,2c-0.1,0.7-0.2,1.4-0.2,2
		c0,1,0.2,1.7,0.5,2.2c0.3,0.5,0.8,0.8,1.5,0.8c0.6,0,1.1-0.2,1.6-0.6c0.5-0.4,0.9-0.9,1.1-1.5c0.3-0.6,0.5-1.2,0.7-2
		C247.7,156.4,247.8,155.7,247.8,154.9z"/>
	<path class="st2" d="M255.6,152.5l-1.8,8.5c-0.3,1.5-1,2.8-2,3.7c-1,1-2.1,1.4-3.2,1.4c-0.6,0-1-0.1-1.3-0.3
		c-0.3-0.2-0.4-0.5-0.4-0.9c0-0.3,0.1-0.6,0.3-0.8s0.4-0.3,0.8-0.3c0.2,0,0.4,0,0.6,0.1c0.2,0.1,0.3,0.2,0.4,0.4
		c0.1,0.1,0.2,0.3,0.3,0.5c0.1,0.2,0.2,0.4,0.3,0.5c0.5,0,1-0.4,1.3-1.1c0.4-0.7,0.7-1.6,1-2.9l1.9-8.9h-2l0.2-0.9h2l0.1-0.7
		c0.2-0.8,0.4-1.5,0.8-2.1s0.8-1.2,1.2-1.6c0.4-0.4,0.9-0.8,1.5-1c0.6-0.2,1.1-0.4,1.6-0.4c0.6,0,1,0.1,1.3,0.3
		c0.3,0.2,0.4,0.5,0.4,0.9c0,0.3-0.1,0.6-0.3,0.8s-0.4,0.3-0.8,0.3c-0.2,0-0.4,0-0.6-0.1c-0.2-0.1-0.3-0.2-0.4-0.4
		c-0.1-0.2-0.2-0.3-0.3-0.5c-0.1-0.2-0.2-0.3-0.3-0.5c-0.5,0-0.9,0.3-1.3,0.9c-0.4,0.6-0.7,1.6-1,3l-0.2,1.1h2.6l-0.2,0.9H255.6z"/>
	<path class="st2" d="M274.6,147.6c0.4,0.2,0.7,0.5,0.9,0.8c0.2,0.3,0.3,0.7,0.3,1.2c0,0.6-0.1,1.2-0.4,1.6c-0.2,0.5-0.6,0.9-1,1.2
		c-0.4,0.3-0.9,0.6-1.4,0.8c-0.5,0.2-1,0.4-1.5,0.5v0.1c0.4,0,0.8,0.1,1.2,0.3c0.4,0.1,0.8,0.3,1.2,0.6c0.4,0.2,0.7,0.5,0.9,0.9
		c0.2,0.4,0.3,0.8,0.3,1.3c0,0.8-0.2,1.5-0.5,2s-0.8,1.1-1.4,1.4c-0.6,0.4-1.2,0.7-1.9,0.9s-1.4,0.3-2.1,0.3h-7.1l0.2-0.7
		c0.2,0,0.4,0,0.7-0.1c0.3,0,0.6-0.1,0.7-0.2c0.2-0.1,0.4-0.2,0.5-0.4c0.1-0.2,0.2-0.4,0.3-0.6l2.4-10.6c0-0.1,0-0.1,0-0.2
		c0-0.1,0-0.1,0-0.2c0-0.1,0-0.3-0.1-0.4c-0.1-0.1-0.2-0.2-0.3-0.3c-0.2-0.1-0.4-0.2-0.6-0.2c-0.2-0.1-0.4-0.1-0.6-0.1l0.2-0.7h6.4
		c0.5,0,0.9,0,1.4,0.1C273.9,147.3,274.2,147.4,274.6,147.6z M271.8,159.4c0.3-0.4,0.5-0.8,0.7-1.3c0.2-0.5,0.2-1,0.2-1.4
		c0-0.7-0.2-1.3-0.7-1.7c-0.5-0.4-1.2-0.6-2.1-0.6c-0.4,0-0.8,0-1.1,0c-0.3,0-0.5,0-0.7,0l-1.2,5c0,0.1,0,0.2,0,0.3
		c0,0.1,0,0.2,0,0.2c0,0.4,0.2,0.6,0.5,0.8s0.8,0.2,1.4,0.2c0.7,0,1.3-0.1,1.8-0.4C271.1,160.2,271.5,159.8,271.8,159.4z
		 M272.5,152.4c0.3-0.4,0.6-0.8,0.7-1.2c0.1-0.4,0.2-0.9,0.2-1.4c0-0.4-0.1-0.7-0.2-0.9s-0.3-0.5-0.5-0.6c-0.2-0.1-0.5-0.2-0.8-0.3
		c-0.3-0.1-0.6-0.1-0.9-0.1c-0.2,0-0.5,0-0.8,0c-0.3,0-0.5,0-0.7,0l-1.3,5.7h1.3c0.7,0,1.3-0.1,1.7-0.3S272.2,152.7,272.5,152.4z"/>
	<path class="st2" d="M281.9,160.5l-0.2,0.7c-0.6,0.3-1.1,0.4-1.5,0.5c-0.4,0.1-0.7,0.1-1,0.1c-0.5,0-1-0.1-1.2-0.4
		c-0.3-0.3-0.4-0.6-0.4-1.1c0-0.2,0-0.3,0-0.5c0-0.2,0.1-0.4,0.1-0.6l1.1-4.4c0.1-0.2,0.1-0.5,0.2-0.8c0.1-0.3,0.1-0.5,0.1-0.7
		c0-0.4-0.1-0.6-0.2-0.8c-0.1-0.1-0.4-0.2-0.8-0.2c-0.1,0-0.3,0-0.6,0.1s-0.4,0.1-0.6,0.1l0.2-0.7c0.5-0.2,1-0.4,1.4-0.5
		c0.4-0.1,0.8-0.2,1-0.2c0.6,0,1,0.1,1.2,0.4s0.4,0.6,0.4,1.1c0,0.1,0,0.3,0,0.5s-0.1,0.4-0.1,0.6l-1.1,4.4
		c-0.1,0.3-0.1,0.5-0.2,0.8s-0.1,0.5-0.1,0.6c0,0.4,0.1,0.7,0.3,0.8s0.5,0.2,0.8,0.2c0.1,0,0.3,0,0.6-0.1
		C281.6,160.6,281.8,160.5,281.9,160.5z M282.6,147.4c0,0.4-0.1,0.7-0.4,1c-0.3,0.3-0.6,0.4-0.9,0.4c-0.3,0-0.6-0.1-0.9-0.4
		c-0.3-0.3-0.4-0.6-0.4-0.9c0-0.4,0.1-0.7,0.4-1c0.3-0.3,0.6-0.4,0.9-0.4c0.4,0,0.7,0.1,1,0.4C282.5,146.7,282.6,147,282.6,147.4z"
		/>
	<path class="st2" d="M293.1,155.3c0,0.8-0.1,1.6-0.4,2.4s-0.7,1.5-1.2,2.1c-0.5,0.6-1.2,1.1-1.9,1.5c-0.7,0.4-1.6,0.6-2.6,0.6
		c-1.1,0-2.1-0.4-2.8-1.1c-0.7-0.7-1.1-1.7-1.1-3c0-0.9,0.2-1.8,0.5-2.5s0.7-1.5,1.2-2.1c0.5-0.6,1.1-1.1,1.9-1.4
		c0.8-0.4,1.6-0.5,2.5-0.5c1.2,0,2.2,0.4,2.9,1.1C292.7,153.1,293.1,154.1,293.1,155.3z M291,154.9c0-1-0.2-1.7-0.5-2.2
		c-0.3-0.5-0.8-0.7-1.5-0.7c-0.6,0-1.1,0.2-1.6,0.5c-0.5,0.3-0.9,0.9-1.3,1.7c-0.3,0.6-0.5,1.3-0.6,2c-0.1,0.7-0.2,1.4-0.2,2
		c0,1,0.2,1.7,0.5,2.2c0.3,0.5,0.8,0.8,1.5,0.8c0.6,0,1.1-0.2,1.6-0.6c0.5-0.4,0.9-0.9,1.1-1.5c0.3-0.6,0.5-1.2,0.7-2
		C290.9,156.4,291,155.7,291,154.9z"/>
	<path class="st2" d="M296.9,161.8c-0.6,0-1.1-0.1-1.4-0.4c-0.3-0.3-0.5-0.6-0.5-1.1c0-0.2,0-0.3,0-0.4c0-0.1,0-0.3,0.1-0.5l1.6-6.8
		h-1.8l0.2-0.9h1.9l0.7-3h1.8l-0.7,3h2.9l-0.2,0.9h-2.8l-1.3,5.6c-0.1,0.3-0.1,0.5-0.2,0.8c0,0.2-0.1,0.5-0.1,0.6
		c0,0.4,0.1,0.7,0.3,0.8c0.2,0.2,0.5,0.3,1,0.3c0.2,0,0.4,0,0.7-0.1c0.3,0,0.6-0.1,0.7-0.2l-0.2,0.7c-0.5,0.2-0.9,0.3-1.4,0.5
		C297.9,161.8,297.5,161.8,296.9,161.8z"/>
	<path class="st2" d="M310.6,153.4c0,0.7-0.2,1.3-0.7,1.9c-0.5,0.5-1.1,0.9-2,1.2c-0.6,0.2-1.3,0.4-1.9,0.6s-1.4,0.3-2.2,0.4
		c0,1.1,0.2,1.9,0.6,2.5c0.4,0.6,1,0.9,1.8,0.9c0.7,0,1.3-0.2,1.8-0.5c0.5-0.3,1-0.9,1.5-1.5l0.6,0.4c-0.5,0.8-1.2,1.5-2.1,2
		c-0.8,0.5-1.7,0.7-2.6,0.7c-1.2,0-2.1-0.3-2.8-1c-0.6-0.7-1-1.6-1-2.9c0-0.9,0.1-1.7,0.4-2.5c0.3-0.8,0.7-1.5,1.2-2.2
		c0.5-0.6,1.1-1.2,1.9-1.5c0.7-0.4,1.5-0.6,2.4-0.6c1,0,1.7,0.2,2.2,0.6C310.3,152.2,310.6,152.8,310.6,153.4z M308.7,153.1
		c0-0.3,0-0.5-0.1-0.6s-0.2-0.3-0.3-0.3c-0.1-0.1-0.3-0.1-0.4-0.2s-0.3,0-0.4,0c-0.8,0-1.6,0.5-2.3,1.4c-0.7,0.9-1.1,2-1.3,3.4
		c0.5-0.1,1-0.2,1.6-0.3s1.1-0.3,1.5-0.5c0.6-0.3,1-0.7,1.3-1.1C308.5,154.3,308.7,153.8,308.7,153.1z"/>
	<path class="st2" d="M315.5,161.9c-1.2,0-2.1-0.3-2.8-1c-0.7-0.7-1-1.7-1-3c0-0.9,0.1-1.7,0.4-2.5c0.3-0.8,0.6-1.5,1.1-2.1
		c0.5-0.6,1.1-1.1,1.8-1.5c0.7-0.4,1.5-0.6,2.4-0.6c1,0,1.7,0.2,2.2,0.6c0.5,0.4,0.8,0.9,0.8,1.6c0,0.5-0.1,0.9-0.3,1.2
		c-0.2,0.4-0.6,0.5-1,0.5c-0.4,0-0.6-0.1-0.8-0.3c-0.2-0.2-0.3-0.4-0.3-0.6c0-0.2,0.1-0.5,0.2-0.9c0.1-0.4,0.3-0.7,0.4-0.9
		c-0.1-0.2-0.2-0.3-0.5-0.4c-0.3-0.1-0.5-0.1-0.8-0.1c-0.9,0-1.7,0.5-2.4,1.6c-0.7,1.1-1,2.4-1,4c0,1,0.2,1.7,0.7,2.3
		c0.4,0.6,1,0.9,1.8,0.9c0.7,0,1.3-0.2,1.8-0.5c0.5-0.4,1-0.9,1.5-1.5l0.6,0.4c-0.5,0.7-1.1,1.4-1.9,1.9
		C317.3,161.6,316.4,161.9,315.5,161.9z"/>
	<path class="st2" d="M331.7,160.4l-0.2,0.7c-0.6,0.2-1.1,0.4-1.4,0.5c-0.3,0.1-0.7,0.2-1,0.2c-0.5,0-1-0.1-1.2-0.4
		c-0.3-0.3-0.4-0.6-0.4-1.1c0-0.2,0-0.3,0-0.5s0.1-0.4,0.1-0.6l1-3.8c0.1-0.3,0.1-0.6,0.2-0.8c0-0.2,0.1-0.4,0.1-0.6
		c0-0.5-0.1-0.8-0.3-1.1c-0.2-0.3-0.5-0.4-1-0.4c-0.4,0-0.9,0.1-1.4,0.4c-0.5,0.3-1,0.7-1.4,1.2l-1.7,7.5h-1.9l3.1-13.2
		c0-0.2,0.1-0.3,0.1-0.4c0-0.1,0-0.2,0-0.3c0-0.2,0-0.4-0.1-0.6c-0.1-0.1-0.2-0.2-0.4-0.3c-0.1-0.1-0.3-0.1-0.5-0.1s-0.5,0-0.7-0.1
		l0.1-0.6l3.8-0.2l0.1,0.2L325,153h0c0.7-0.6,1.3-1,1.9-1.3c0.6-0.3,1.2-0.4,1.9-0.4c0.7,0,1.2,0.2,1.5,0.6c0.4,0.4,0.6,0.9,0.6,1.5
		c0,0.1,0,0.3-0.1,0.7c0,0.3-0.1,0.6-0.2,0.9l-0.9,3.3c-0.1,0.2-0.1,0.5-0.2,0.8s-0.1,0.5-0.1,0.7c0,0.4,0.1,0.7,0.3,0.8
		c0.2,0.1,0.5,0.2,0.8,0.2c0.1,0,0.3,0,0.6-0.1C331.4,160.5,331.6,160.5,331.7,160.4z"/>
	<path class="st2" d="M344.1,160.4l-0.2,0.7c-0.6,0.2-1.1,0.4-1.4,0.5c-0.3,0.1-0.7,0.2-1,0.2c-0.5,0-1-0.1-1.2-0.4
		c-0.3-0.3-0.4-0.6-0.4-1.1c0-0.2,0-0.3,0-0.5s0.1-0.4,0.1-0.6l1-3.8c0.1-0.3,0.1-0.6,0.2-0.8c0-0.2,0.1-0.4,0.1-0.6
		c0-0.5-0.1-0.8-0.3-1.1c-0.2-0.3-0.5-0.4-1-0.4c-0.4,0-0.9,0.1-1.4,0.4c-0.5,0.3-1,0.7-1.5,1.2l-1.8,7.5h-1.9l1.5-6.7
		c0-0.2,0.1-0.4,0.1-0.7c0.1-0.3,0.1-0.6,0.1-0.8c0-0.4-0.1-0.6-0.2-0.8c-0.1-0.1-0.4-0.2-0.8-0.2c-0.2,0-0.3,0-0.6,0.1
		c-0.2,0.1-0.4,0.1-0.5,0.1l0.2-0.7c0.5-0.2,1-0.4,1.4-0.5s0.8-0.2,1.1-0.2c0.5,0,0.9,0.1,1.2,0.4c0.2,0.3,0.4,0.7,0.4,1.2h0.1
		c0.7-0.6,1.4-1,1.9-1.3c0.5-0.3,1.2-0.4,1.9-0.4c0.7,0,1.2,0.2,1.5,0.6c0.4,0.4,0.6,0.9,0.6,1.5c0,0.1,0,0.3-0.1,0.7
		c0,0.3-0.1,0.6-0.2,0.9l-0.9,3.3c-0.1,0.2-0.1,0.5-0.2,0.8s-0.1,0.5-0.1,0.7c0,0.4,0.1,0.7,0.3,0.8c0.2,0.1,0.5,0.2,0.8,0.2
		c0.1,0,0.3,0,0.6-0.1C343.8,160.5,344,160.5,344.1,160.4z"/>
	<path class="st2" d="M355.3,155.3c0,0.8-0.1,1.6-0.4,2.4s-0.7,1.5-1.2,2.1c-0.5,0.6-1.2,1.1-1.9,1.5c-0.7,0.4-1.6,0.6-2.6,0.6
		c-1.1,0-2.1-0.4-2.8-1.1c-0.7-0.7-1.1-1.7-1.1-3c0-0.9,0.2-1.8,0.5-2.5s0.7-1.5,1.2-2.1c0.5-0.6,1.1-1.1,1.9-1.4
		c0.8-0.4,1.6-0.5,2.5-0.5c1.2,0,2.2,0.4,2.9,1.1C354.9,153.1,355.3,154.1,355.3,155.3z M353.2,154.9c0-1-0.2-1.7-0.5-2.2
		c-0.3-0.5-0.8-0.7-1.5-0.7c-0.6,0-1.1,0.2-1.6,0.5c-0.5,0.3-0.9,0.9-1.3,1.7c-0.3,0.6-0.5,1.3-0.6,2c-0.1,0.7-0.2,1.4-0.2,2
		c0,1,0.2,1.7,0.5,2.2c0.3,0.5,0.8,0.8,1.5,0.8c0.6,0,1.1-0.2,1.6-0.6c0.5-0.4,0.9-0.9,1.1-1.5c0.3-0.6,0.5-1.2,0.7-2
		C353.1,156.4,353.2,155.7,353.2,154.9z"/>
	<path class="st2" d="M362.1,145.9l-2.9,12.3c-0.1,0.3-0.1,0.5-0.2,0.8s-0.1,0.5-0.1,0.6c0,0.4,0.1,0.7,0.3,0.8
		c0.2,0.1,0.5,0.2,0.8,0.2c0.1,0,0.3,0,0.6-0.1s0.5-0.1,0.6-0.1l-0.2,0.7c-0.6,0.2-1.1,0.4-1.4,0.5c-0.3,0.1-0.7,0.2-1.1,0.2
		c-0.5,0-1-0.1-1.2-0.4c-0.3-0.3-0.4-0.6-0.4-1.1c0-0.2,0-0.3,0-0.5c0-0.2,0.1-0.4,0.1-0.6l2.5-10.8c0-0.2,0.1-0.4,0.1-0.4
		c0-0.1,0-0.2,0-0.3c0-0.2,0-0.4-0.1-0.6c-0.1-0.1-0.2-0.2-0.3-0.3c-0.1-0.1-0.3-0.1-0.5-0.1s-0.4,0-0.7-0.1l0.1-0.6l3.8-0.2
		L362.1,145.9z"/>
	<path class="st2" d="M372.5,155.3c0,0.8-0.1,1.6-0.4,2.4s-0.7,1.5-1.2,2.1c-0.5,0.6-1.2,1.1-1.9,1.5c-0.7,0.4-1.6,0.6-2.6,0.6
		c-1.1,0-2.1-0.4-2.8-1.1c-0.7-0.7-1.1-1.7-1.1-3c0-0.9,0.2-1.8,0.5-2.5s0.7-1.5,1.2-2.1c0.5-0.6,1.1-1.1,1.9-1.4
		c0.8-0.4,1.6-0.5,2.5-0.5c1.2,0,2.2,0.4,2.9,1.1C372.2,153.1,372.5,154.1,372.5,155.3z M370.5,154.9c0-1-0.2-1.7-0.5-2.2
		c-0.3-0.5-0.8-0.7-1.5-0.7c-0.6,0-1.1,0.2-1.6,0.5c-0.5,0.3-0.9,0.9-1.3,1.7c-0.3,0.6-0.5,1.3-0.6,2c-0.1,0.7-0.2,1.4-0.2,2
		c0,1,0.2,1.7,0.5,2.2c0.3,0.5,0.8,0.8,1.5,0.8c0.6,0,1.1-0.2,1.6-0.6c0.5-0.4,0.9-0.9,1.1-1.5c0.3-0.6,0.5-1.2,0.7-2
		C370.4,156.4,370.5,155.7,370.5,154.9z"/>
	<path class="st2" d="M380.5,160.2L380.5,160.2c-0.2,0.1-0.4,0.2-0.7,0.4c-0.2,0.2-0.5,0.4-0.8,0.5c-0.3,0.2-0.6,0.3-1,0.5
		c-0.3,0.1-0.7,0.2-1.1,0.2c-1,0-1.8-0.4-2.3-1.1c-0.5-0.7-0.8-1.7-0.8-2.9c0-0.8,0.2-1.7,0.5-2.5c0.3-0.8,0.7-1.5,1.3-2.1
		c0.5-0.6,1.1-1.1,1.9-1.5c0.7-0.4,1.5-0.5,2.3-0.5c0.5,0,1,0.1,1.4,0.2c0.4,0.1,0.8,0.3,1.1,0.4l1.9-0.5l0.1,0.2l-1.7,8.1
		c-0.3,1.2-0.6,2.3-1,3.1c-0.4,0.8-0.9,1.5-1.4,2c-0.5,0.5-1.2,0.9-1.8,1.1c-0.7,0.2-1.4,0.3-2.2,0.3c-0.6,0-1,0-1.4-0.1
		c-0.4-0.1-0.6-0.2-0.8-0.3c-0.2-0.1-0.3-0.3-0.4-0.5c-0.1-0.2-0.1-0.4-0.1-0.5c0-0.3,0.1-0.6,0.3-0.8c0.2-0.2,0.4-0.3,0.8-0.3
		c0.3,0,0.5,0.1,0.6,0.2c0.2,0.1,0.3,0.3,0.4,0.5c0.1,0.2,0.2,0.4,0.3,0.6c0.1,0.2,0.2,0.4,0.2,0.6h0.3c0.4,0,0.8-0.1,1.2-0.3
		s0.8-0.4,1.2-0.8c0.4-0.4,0.7-0.9,1-1.6S380.3,161.3,380.5,160.2z M381.9,153.7c0-0.2,0-0.4-0.1-0.6c-0.1-0.2-0.2-0.4-0.3-0.6
		c-0.2-0.2-0.3-0.3-0.6-0.4c-0.2-0.1-0.5-0.1-0.9-0.1c-0.5,0-1,0.2-1.5,0.5c-0.5,0.3-0.9,0.8-1.3,1.3c-0.3,0.5-0.6,1.1-0.8,1.9
		s-0.3,1.5-0.3,2.2c0,0.4,0,0.8,0.1,1.1c0.1,0.3,0.2,0.6,0.3,0.9s0.3,0.5,0.6,0.6c0.2,0.1,0.5,0.2,0.9,0.2c0.5,0,1-0.1,1.4-0.4
		s0.9-0.6,1.3-1.1L381.9,153.7z"/>
	<path class="st2" d="M392.6,160.1L392.6,160.1c-0.7,0.5-1.3,0.9-1.9,1.2c-0.6,0.3-1.2,0.5-1.9,0.5c-0.7,0-1.2-0.2-1.6-0.6
		c-0.4-0.4-0.6-0.9-0.6-1.5c0-0.2,0-0.4,0-0.6s0.1-0.6,0.2-1l0.8-3.2c0.1-0.3,0.1-0.6,0.2-0.8c0-0.2,0.1-0.4,0.1-0.7
		c0-0.4-0.1-0.6-0.2-0.8c-0.1-0.1-0.4-0.2-0.8-0.2c-0.2,0-0.3,0-0.6,0.1c-0.2,0.1-0.4,0.1-0.5,0.1l0.2-0.7c0.5-0.2,1-0.4,1.4-0.5
		c0.4-0.1,0.7-0.2,1-0.2c0.5,0,1,0.1,1.2,0.4c0.3,0.2,0.4,0.6,0.4,1.1c0,0.1,0,0.3,0,0.5s-0.1,0.4-0.1,0.6l-0.9,3.7
		c-0.1,0.3-0.1,0.6-0.2,0.8c0,0.3-0.1,0.4-0.1,0.6c0,0.5,0.1,0.8,0.3,1.1c0.2,0.3,0.5,0.4,1,0.4c0.5,0,1-0.1,1.5-0.4
		c0.5-0.2,0.9-0.6,1.3-1l1.7-7.7l1.8-0.1l0.1,0.2l-1.8,8c-0.3,1.2-0.6,2.2-1,3s-0.9,1.5-1.4,2c-0.6,0.5-1.2,0.9-1.8,1.2
		s-1.4,0.4-2.2,0.4c-0.6,0-1,0-1.4-0.1s-0.6-0.2-0.8-0.3c-0.2-0.1-0.3-0.3-0.4-0.5s-0.1-0.3-0.1-0.5c0-0.3,0.1-0.6,0.3-0.8
		s0.4-0.3,0.8-0.3c0.3,0,0.5,0.1,0.6,0.2s0.3,0.3,0.4,0.5c0.1,0.2,0.2,0.4,0.3,0.6c0.1,0.2,0.2,0.4,0.2,0.6h0.2
		c0.4,0,0.8-0.1,1.2-0.3c0.4-0.2,0.8-0.5,1.2-0.9c0.4-0.4,0.7-1,1.1-1.7C392.2,161.9,392.4,161.1,392.6,160.1z"/>
</g>
</svg>
