<svg id="Layer_1" data-name="Layer 1" xmlns="http://www.w3.org/2000/svg" viewBox="0 0 348.69 233.85"><defs><style>.cls-1{fill:#f7e79e;}.cls-2{fill:#397f48;}.cls-3{fill:none;}</style></defs><title>tmj</title><g id="Layer_1-2" data-name="Layer 1-2"><g id="_1848508970096" data-name=" 1848508970096"><rect class="cls-1" width="348.69" height="233.85"/><g id="Layer_1-2-2" data-name="Layer_1"><g id="_2800770323584" data-name=" 2800770323584"><path class="cls-2" d="M210.16,138.56c-4.12,6.39-4.88,6.35-9.85,11.55a.38.38,0,0,1-.52,0,.37.37,0,0,1,0-.52c4.92-5.16,5.68-5.16,9.75-11.46A.38.38,0,0,1,210,138,.39.39,0,0,1,210.16,138.56Z" transform="translate(0 0)"/><path class="cls-3" d="M209.83,138.37c-3.88,6.77-5.4,6.44-9.8,11.51" transform="translate(0 0)"/><path class="cls-2" d="M201.31,141.12c-2.75,4.78-4.93,7.1-7.86,11.36a.4.4,0,0,1-.47.24.42.42,0,0,1-.24-.48c2.84-4.26,5.16-6.72,7.86-11.41a.34.34,0,0,1,.47-.18A.42.42,0,0,1,201.31,141.12Z" transform="translate(0 0)"/><path class="cls-3" d="M200.93,141c-1.42,3.55-7.43,10.27-7.81,11.36" transform="translate(0 0)"/><path class="cls-2" d="M191.75,147.79c-2,4.17-1.09,2.13-2.85,6a.36.36,0,0,1-.71,0,62.81,62.81,0,0,1,2.89-6.29.34.34,0,0,1,.48-.19A.33.33,0,0,1,191.75,147.79Z" transform="translate(0 0)"/><path class="cls-3" d="M191.41,147.65c-.37.95-2.88,5.59-2.88,6.15" transform="translate(0 0)"/><path class="cls-2" d="M215.79,138.37a50,50,0,0,1-8.47,10.7.42.42,0,0,1-.47.24.33.33,0,0,1-.24-.48c3.64-4,5.54-5.91,8.47-10.69a.36.36,0,0,1,.48-.24A.41.41,0,0,1,215.79,138.37Z" transform="translate(0 0)"/><path class="cls-3" d="M215.41,138.23c-1.23,3.31-8.42,10.65-8.47,10.75" transform="translate(0 0)"/><path class="cls-2" d="M220.19,138.8c-2.46,4.35-3.69,5.49-6.95,9.09a.38.38,0,0,1-.52.05.35.35,0,0,1-.05-.53c3.17-3.55,4.45-4.68,6.86-8.94a.33.33,0,0,1,.48-.14A.33.33,0,0,1,220.19,138.8Z" transform="translate(0 0)"/><path class="cls-3" d="M219.86,138.66c-1.61,3.55-4.49,6.2-6.91,9" transform="translate(0 0)"/><path class="cls-2" d="M224.64,139.46c-3.4,5.63-1.56,2.89-5.53,8.19a.37.37,0,0,1-.52,0c-.19-.09-.19-.33-.05-.52,3.93-5.16,2.08-2.51,5.44-8a.35.35,0,0,1,.52-.14A.33.33,0,0,1,224.64,139.46Z" transform="translate(0 0)"/><path class="cls-3" d="M224.31,139.32a47.36,47.36,0,0,1-5.49,8.05" transform="translate(0 0)"/><path class="cls-2" d="M228.19,140.36a26.51,26.51,0,0,1-4.54,7.1.34.34,0,0,1-.47-.19.33.33,0,0,1,.19-.47,37.31,37.31,0,0,0,4.07-6.49.37.37,0,0,1,.42-.33A.33.33,0,0,1,228.19,140.36Z" transform="translate(0 0)"/><path class="cls-3" d="M227.82,140.36c-.1,1-4,6.63-4.31,6.77" transform="translate(0 0)"/><path class="cls-2" d="M232,141.21a46.2,46.2,0,0,1-3.41,5.49.32.32,0,0,1-.47.24.4.4,0,0,1-.24-.47,60.13,60.13,0,0,0,3.36-5.45.45.45,0,0,1,.48-.28A.44.44,0,0,1,232,141.21Z" transform="translate(0 0)"/><path class="cls-3" d="M231.6,141.12c-.42,1.56-3.07,4.59-3.41,5.49" transform="translate(0 0)"/><path class="cls-2" d="M235.63,142.44a18.85,18.85,0,0,1-2.89,3.65.4.4,0,0,1-.47.24.42.42,0,0,1-.24-.48,33.58,33.58,0,0,0,2.89-3.69.4.4,0,0,1,.52-.19A.39.39,0,0,1,235.63,142.44Z" transform="translate(0 0)"/><path class="cls-3" d="M235.25,142.3a21.82,21.82,0,0,1-2.84,3.65" transform="translate(0 0)"/><path class="cls-2" d="M238.61,143.25c-1.75,2.18-.9,1.18-2.51,3a.38.38,0,0,1-.52.14.35.35,0,0,1-.1-.52c1.61-1.89.81-.9,2.47-3a.37.37,0,0,1,.66.33Z" transform="translate(0 0)"/><path class="cls-3" d="M238.28,143.06c-.43.71-2.32,2.79-2.51,3" transform="translate(0 0)"/><path class="cls-2" d="M241.88,144a12.23,12.23,0,0,1-2,2.55.38.38,0,0,1-.28-.71,16.44,16.44,0,0,0,1.61-2.13.4.4,0,0,1,.52-.19A.36.36,0,0,1,241.88,144Z" transform="translate(0 0)"/><path class="cls-3" d="M241.54,143.86a18.52,18.52,0,0,1-1.84,2.37" transform="translate(0 0)"/><path class="cls-2" d="M244.72,145a16.41,16.41,0,0,1-1.42,1.66.38.38,0,0,1-.48.24.42.42,0,0,1-.23-.48c1-1.18.47-.57,1.46-1.8a.46.46,0,0,1,.52-.14A.4.4,0,0,1,244.72,145Z" transform="translate(0 0)"/><path class="cls-3" d="M244.38,144.76a16.43,16.43,0,0,1-1.42,1.71" transform="translate(0 0)"/><path class="cls-2" d="M246.8,145.38c-.71,1.13-.38.61-1,1.61a.42.42,0,0,1-.47.24c-.19-.1-.33-.29-.24-.48.71-1.18.34-.57,1.09-1.75a.34.34,0,0,1,.48-.14A.38.38,0,0,1,246.8,145.38Z" transform="translate(0 0)"/><path class="cls-3" d="M246.47,145.19c-.15.24-1,1.61-1,1.66" transform="translate(0 0)"/><path class="cls-2" d="M249.21,146.23c-.76.81-.38.43-1.09,1.14a.33.33,0,0,1-.47.23.39.39,0,0,1-.24-.47c.86-1,.43-.52,1.28-1.47a.39.39,0,0,1,.57.05A.38.38,0,0,1,249.21,146.23Z" transform="translate(0 0)"/><path class="cls-3" d="M249,146a14.92,14.92,0,0,0-1.19,1.32" transform="translate(0 0)"/><path class="cls-2" d="M190,149.4a100,100,0,0,0,8.62-5.44.37.37,0,1,1,.47.57,103,103,0,0,1-8.81,5.54.37.37,0,1,1-.28-.67Z" transform="translate(0 0)"/><path class="cls-3" d="M190.18,149.73c1.8-.75,8.43-5.3,8.71-5.49" transform="translate(0 0)"/><path class="cls-2" d="M189.14,152.29c1-.66,5-3.08,5.59-3.83a.38.38,0,1,1,.71.28c-.62,1-4.69,3.36-5.78,4.12a.34.34,0,0,1-.52-.05A.37.37,0,0,1,189.14,152.29Z" transform="translate(0 0)"/><path class="cls-3" d="M189.43,152.57c.75-.75,5.44-3.26,5.68-4" transform="translate(0 0)"/><path class="cls-2" d="M198.14,145.24c2.65-1.42,7.14-4.5,10.08-5a.37.37,0,0,1,.33.38.42.42,0,0,1-.43.37c-2.27.43-7.52,3.74-9.65,4.88a.4.4,0,0,1-.52-.19A.38.38,0,0,1,198.14,145.24Z" transform="translate(0 0)"/><path class="cls-3" d="M198.32,145.57c1.85-.85,8.29-5.07,9.85-4.92" transform="translate(0 0)"/><path class="cls-2" d="M200.79,143.67c2.79.15,1.37.05,4.35.19a.38.38,0,1,1,0,.76c-3-.14-1.56-.05-4.35-.19a.38.38,0,0,1,0-.76Z" transform="translate(0 0)"/><path class="cls-3" d="M200.79,144.05c1.37,0,2.55.19,4.35.19" transform="translate(0 0)"/><path class="cls-2" d="M195.91,148.41c4.17-1.85,3.93-2.46,7.2-4.36a.4.4,0,0,1,.47.24.32.32,0,0,1-.24.47c-3.26,1.94-2.84,2.42-7.19,4.36a.36.36,0,0,1-.48-.19A.45.45,0,0,1,195.91,148.41Z" transform="translate(0 0)"/><path class="cls-3" d="M196.05,148.79c4.26-1.47,5.4-3.74,7.2-4.36" transform="translate(0 0)"/><path class="cls-2" d="M200.83,150c-1.23-1.09-.61-.57-1.89-1.61a.38.38,0,0,1-.24-.47.42.42,0,0,1,.48-.24,14.5,14.5,0,0,1,2.27,1.85.34.34,0,0,1-.1.52A.38.38,0,0,1,200.83,150Z" transform="translate(0 0)"/><path class="cls-3" d="M201.17,149.73a18,18,0,0,0-2.09-1.7" transform="translate(0 0)"/><path class="cls-2" d="M211.63,138.66c-.1,1.61.94,2.93.61,4.16a.38.38,0,0,1-.52.19.33.33,0,0,1-.19-.47c.14-.62-.76-2.46-.66-4a.47.47,0,0,1,.43-.33A.49.49,0,0,1,211.63,138.66Z" transform="translate(0 0)"/><path class="cls-3" d="M211.25,138.56c-.24,1.28.94,3.36.61,4.12" transform="translate(0 0)"/><path class="cls-2" d="M203.91,145.85c4.4-1.89,2.23-1.13,5.92-3.41a3.19,3.19,0,0,1,1.75-.56.37.37,0,0,1,.38.33.38.38,0,0,1-.38.38,2.74,2.74,0,0,0-1.37.47c-3.65,2.27-1.61,1.61-6,3.5-.14.1-.37,0-.47-.19A.4.4,0,0,1,203.91,145.85Z" transform="translate(0 0)"/><path class="cls-3" d="M204.05,146.23c3.22-1.56,2.37-.52,5.54-3.17a3.41,3.41,0,0,1,2-.85" transform="translate(0 0)"/><path class="cls-2" d="M206.89,144.57a21.18,21.18,0,0,0,2.89.48.37.37,0,0,1,.38.38.37.37,0,0,1-.38.37,14.15,14.15,0,0,1-2.84-.47.37.37,0,0,1-.38-.33A.42.42,0,0,1,206.89,144.57Z" transform="translate(0 0)"/><path class="cls-3" d="M206.94,145a18.62,18.62,0,0,0,2.84.48" transform="translate(0 0)"/><path class="cls-2" d="M204.62,147.79a5.59,5.59,0,0,1,4.31-2.22.38.38,0,1,1,0,.76,5,5,0,0,0-3.74,1.94.33.33,0,0,1-.52,0A.37.37,0,0,1,204.62,147.79Z" transform="translate(0 0)"/><path class="cls-3" d="M204.9,148a5.48,5.48,0,0,1,4-2.08" transform="translate(0 0)"/><path class="cls-2" d="M206.32,146.75a5.52,5.52,0,0,0,1.05.66c.19.1.33.29.23.48a.34.34,0,0,1-.47.23,5.59,5.59,0,0,1-1.28-.75.34.34,0,0,1,0-.52A.38.38,0,0,1,206.32,146.75Z" transform="translate(0 0)"/><path class="cls-3" d="M206.09,147a5.88,5.88,0,0,0,1.18.75" transform="translate(0 0)"/><path class="cls-2" d="M210.44,144.81c1-1.51,5.68-3.08,7.48-4.07a.39.39,0,1,1,.57.52c-1.42.81-6.72,2.89-7.38,3.83a.37.37,0,1,1-.67-.28Z" transform="translate(0 0)"/><path class="cls-3" d="M210.77,145c.53-1.28,6.68-3.12,7.44-4" transform="translate(0 0)"/><path class="cls-2" d="M213.71,142.78a5.12,5.12,0,0,1,2.37.66.33.33,0,0,1,.19.47.4.4,0,0,1-.48.24,4.07,4.07,0,0,0-2.08-.62.41.41,0,0,1-.38-.38A.37.37,0,0,1,213.71,142.78Z" transform="translate(0 0)"/><path class="cls-3" d="M213.71,143.15c1.09,0,1.23.29,2.22.67" transform="translate(0 0)"/><path class="cls-2" d="M217.54,138.75c-1.27,1.56-1.89,1.56-2.08,3.55a.38.38,0,1,1-.76,0c.19-2.32.81-2.18,2.23-3.93a.39.39,0,0,1,.47-.14C217.59,138.37,217.69,138.56,217.54,138.75Z" transform="translate(0 0)"/><path class="cls-3" d="M217.26,138.56c-.66,1.09-2.18,1.52-2.18,3.74" transform="translate(0 0)"/><path class="cls-2" d="M214.28,145.71c-2-.76-2.89.9-3.6.33.09.05.09.1.19.1h-.14a.38.38,0,0,1,0-.76H211c1.8-.38,1.52-1.14,3.6-.38a.37.37,0,0,1,.14.52A.33.33,0,0,1,214.28,145.71Zm-3.17-.28h0Z" transform="translate(0 0)"/><path class="cls-3" d="M214.42,145.38c-1.66-.76-1.85.09-3.27.38-.38,0,0,0-.42,0" transform="translate(0 0)"/><path class="cls-2" d="M217.26,142.35a51,51,0,0,1,6.15-3.17.38.38,0,0,1-.09.76c-2,1-3.74,2-5.68,3.07a.37.37,0,0,1-.52-.14A.38.38,0,0,1,217.26,142.35Z" transform="translate(0 0)"/><path class="cls-3" d="M217.45,142.68c.57-.33,5.63-3.17,5.92-3.12" transform="translate(0 0)"/><path class="cls-2" d="M219.72,140.93c1.66.09.85,1.09,1.89,1.89a.35.35,0,0,1,.1.52.34.34,0,0,1-.52.1c-1.33-1-.47-1.71-1.47-1.75a.35.35,0,0,1-.38-.38A.37.37,0,0,1,219.72,140.93Z" transform="translate(0 0)"/><path class="cls-3" d="M219.72,141.31c1.33,0,.57,1,1.71,1.84" transform="translate(0 0)"/><path class="cls-2" d="M215.41,145.05c1.71-.76,3.65-2.09,5.35-2.37a.41.41,0,0,1,.38.38.37.37,0,0,1-.38.38c-1.28.23-3.74,1.75-5.11,2.36a.37.37,0,0,1-.47-.28A.4.4,0,0,1,215.41,145.05Z" transform="translate(0 0)"/><path class="cls-3" d="M215.56,145.43c1.51-.48,3.92-2.37,5.2-2.37" transform="translate(0 0)"/><path class="cls-2" d="M217.35,144.15c.71,0,1.38.66,2.51,1a.38.38,0,0,1,.29.43.42.42,0,0,1-.43.33c-.85-.29-2.08-1-2.37-1a.41.41,0,0,1-.37-.38A.37.37,0,0,1,217.35,144.15Z" transform="translate(0 0)"/><path class="cls-3" d="M217.35,144.53c.81,0,.67.61,2.42,1" transform="translate(0 0)"/><path class="cls-2" d="M222.56,142c2-.85,2.27-2.89,3.5.19l.05,0a.37.37,0,0,1,.38.34.45.45,0,0,1-.33.42c-1,0-.85-1.23-1.33-1.65a9.2,9.2,0,0,1-2.08,1.37.37.37,0,0,1-.47-.29A.36.36,0,0,1,222.56,142Z" transform="translate(0 0)"/><path class="cls-3" d="M222.66,142.35c1.94-.52,2.08-2.84,3.07,0a.48.48,0,0,0,.38.28" transform="translate(0 0)"/><path class="cls-2" d="M225,141.17a3,3,0,0,1,2.13-1.14.37.37,0,0,1,.38.38.41.41,0,0,1-.38.38,2.16,2.16,0,0,0-1.51.8.45.45,0,0,1-.57.1A.38.38,0,0,1,225,141.17Z" transform="translate(0 0)"/><path class="cls-3" d="M225.31,141.4a2.65,2.65,0,0,1,1.84-1" transform="translate(0 0)"/><path class="cls-2" d="M221.09,144.53c1.61-.38,3-2.09,4.74-2.13a.36.36,0,1,1-.1.71c-1.13.09-2.93,1.8-4.64,2.17a.38.38,0,0,1,0-.75Z" transform="translate(0 0)"/><path class="cls-3" d="M221.09,144.91c.95,0,3.6-2.23,4.69-2.18" transform="translate(0 0)"/><path class="cls-2" d="M221.19,145.9c1.47-1.33,1.32-1.33,3.22-1.33a.38.38,0,0,1,.38.38.35.35,0,0,1-.38.38c-1.66,0-1.38-.09-2.65,1.09a.44.44,0,0,1-.57,0A.37.37,0,0,1,221.19,145.9Z" transform="translate(0 0)"/><path class="cls-3" d="M221.47,146.14c1.38-1.38,1.47-1.19,2.94-1.19" transform="translate(0 0)"/><path class="cls-2" d="M226.4,143.34c1.89-.14,2.69-.94,4.49-1.61a.38.38,0,0,1,.38.38.41.41,0,0,1-.38.38c-1.84.81-2.46,1.47-4.54,1.61a.33.33,0,0,1-.33-.38A.37.37,0,0,1,226.4,143.34Z" transform="translate(0 0)"/><path class="cls-3" d="M226.35,143.72c1.8.05,4.07-1.61,4.54-1.61" transform="translate(0 0)"/><path class="cls-2" d="M227.53,141.26a1.85,1.85,0,0,1,1.85,1.37.34.34,0,0,1-.19.48.45.45,0,0,1-.52-.24,1.08,1.08,0,0,0-1.14-.85.38.38,0,1,1,0-.76Z" transform="translate(0 0)"/><path class="cls-3" d="M227.53,141.64a1.49,1.49,0,0,1,1.52,1.09" transform="translate(0 0)"/><path class="cls-2" d="M226.54,146c-.38-1.7,1.18-1.7,2.55-2.08a.4.4,0,0,1,.48.24.35.35,0,0,1-.19.47c-1.09.28-2.37.19-2.13,1.18a.42.42,0,0,1-.24.48A.38.38,0,0,1,226.54,146Z" transform="translate(0 0)"/><path class="cls-3" d="M226.92,146c-.48-1.42,1.37-1.23,2.32-1.61" transform="translate(0 0)"/><path class="cls-2" d="M230,143.77c1.9-.71,2.61-1.33,4.69-1.7a.33.33,0,0,1,.33.37.37.37,0,0,1-.33.38,28.59,28.59,0,0,0-4.5,1.66.41.41,0,0,1-.47-.24A.39.39,0,0,1,230,143.77Z" transform="translate(0 0)"/><path class="cls-3" d="M230.09,144.1c1.61-.43,3.26-1.66,4.59-1.66" transform="translate(0 0)"/><path class="cls-2" d="M231.74,143.11c.67.42,1,.8,1.61,1.18a.39.39,0,0,1,.24.47.41.41,0,0,1-.47.24c-.71-.43-1-.76-1.71-1.18a.38.38,0,0,1-.14-.52C231.32,143.11,231.56,143.06,231.74,143.11Z" transform="translate(0 0)"/><path class="cls-3" d="M231.6,143.49c.48.18,1.28,1,1.61,1.13" transform="translate(0 0)"/><path class="cls-2" d="M237.66,143.58c-2.18.71-1.09.38-3.22,1a.41.41,0,0,1-.38-.42.46.46,0,0,1,.43-.33c1.85-.62.85-.29,2.94-.95.18-.09.37,0,.47.24A.41.41,0,0,1,237.66,143.58Z" transform="translate(0 0)"/><path class="cls-3" d="M237.52,143.2c-.38.14-2.93,1-3.08,1" transform="translate(0 0)"/><path class="cls-2" d="M236,146.14c-1.09-.15-.57-1.14-.62-1.47a.47.47,0,0,1-.19-.47.4.4,0,0,1,.48-.24c.71.33.42.9.38,1.42a.41.41,0,0,1,.33.38A.38.38,0,0,1,236,146.14Z" transform="translate(0 0)"/><path class="cls-3" d="M236,145.76c-.81,0,.19-1.23-.48-1.42" transform="translate(0 0)"/><path class="cls-2" d="M232.08,146.09c-.67-.33-1.8-.76-2.13-1.52a.32.32,0,0,1,.23-.47c.19-.09.38.05.48.24a7.38,7.38,0,0,0,1.75,1.09.33.33,0,0,1,.19.47A.4.4,0,0,1,232.08,146.09Z" transform="translate(0 0)"/><path class="cls-3" d="M232.27,145.76c-.53-.24-1.8-.85-2-1.33" transform="translate(0 0)"/><path class="cls-2" d="M237.38,144.34c1.23.23,2.32-.38,3.45-.71a.4.4,0,0,1,.48.28c0,.24-.1.43-.33.43-1.61.47-2.18,1-3.84.71a.35.35,0,0,1-.24-.43A.38.38,0,0,1,237.38,144.34Z" transform="translate(0 0)"/><path class="cls-3" d="M237.28,144.72c1.38.37,2.32-.48,3.65-.71" transform="translate(0 0)"/><path class="cls-2" d="M238.8,144.48c.38.33.76.71,1.13,1a.45.45,0,0,1,.19.48l-.38.23c-.37,0-1.08-.85-1.42-1.09a.42.42,0,0,1,0-.56A.37.37,0,0,1,238.8,144.48Z" transform="translate(0 0)"/><path class="cls-3" d="M238.56,144.76a14.18,14.18,0,0,0,1.18,1" transform="translate(0 0)"/><path class="cls-2" d="M240.55,144.72c2.08-.15,1-.05,3.12-.24a.35.35,0,0,1,.43.33.46.46,0,0,1-.33.43c-2.13.19-1,.09-3.22.23a.38.38,0,1,1,0-.75Z" transform="translate(0 0)"/><path class="cls-3" d="M240.55,145.09c1.14,0,2.13-.18,3.17-.23" transform="translate(0 0)"/><path class="cls-2" d="M243.53,146.14a5.15,5.15,0,0,1,2.46-.9.37.37,0,0,1,.38.38.34.34,0,0,1-.38.37,4.82,4.82,0,0,0-2.08.81.39.39,0,0,1-.52-.14A.38.38,0,0,1,243.53,146.14Z" transform="translate(0 0)"/><path class="cls-3" d="M243.72,146.47a4.77,4.77,0,0,1,2.27-.85" transform="translate(0 0)"/><path class="cls-2" d="M144.27,138.56c4.11,6.39,4.87,6.35,9.84,11.55a.37.37,0,0,0,.57-.47c-5-5.16-5.68-5.16-9.75-11.46a.38.38,0,1,0-.66.38Z" transform="translate(0 0)"/><path class="cls-3" d="M144.6,138.37c3.88,6.77,5.35,6.44,9.8,11.51" transform="translate(0 0)"/><path class="cls-2" d="M153.12,141.12c2.7,4.78,4.92,7.1,7.81,11.36a.42.42,0,0,0,.47.24c.24-.1.33-.29.24-.48-2.79-4.26-5.16-6.72-7.81-11.41a.39.39,0,0,0-.52-.18A.34.34,0,0,0,153.12,141.12Z" transform="translate(0 0)"/><path class="cls-3" d="M153.45,141c1.47,3.55,7.48,10.27,7.86,11.36" transform="translate(0 0)"/><path class="cls-2" d="M162.63,147.79c2,4.17,1.09,2.13,2.84,6a.37.37,0,0,0,.38.34.34.34,0,0,0,.38-.34,60.65,60.65,0,0,0-2.89-6.29.34.34,0,0,0-.47-.19A.4.4,0,0,0,162.63,147.79Z" transform="translate(0 0)"/><path class="cls-3" d="M163,147.65c.38.95,2.84,5.59,2.84,6.15" transform="translate(0 0)"/><path class="cls-2" d="M138.63,138.37a50.35,50.35,0,0,0,8.48,10.7.41.41,0,0,0,.47.24.37.37,0,0,0,.24-.48c-3.65-4-5.59-5.91-8.48-10.69-.09-.19-.28-.34-.47-.24A.42.42,0,0,0,138.63,138.37Z" transform="translate(0 0)"/><path class="cls-3" d="M139,138.23c1.28,3.31,8.48,10.65,8.52,10.75" transform="translate(0 0)"/><path class="cls-2" d="M134.23,138.8c2.46,4.35,3.69,5.49,7,9.09a.38.38,0,0,0,.52.05.39.39,0,0,0,0-.53c-3.17-3.55-4.45-4.68-6.87-8.94a.37.37,0,0,0-.52-.14A.35.35,0,0,0,134.23,138.8Z" transform="translate(0 0)"/><path class="cls-3" d="M134.56,138.66c1.61,3.55,4.5,6.2,6.91,9" transform="translate(0 0)"/><path class="cls-2" d="M129.78,139.46c3.41,5.63,1.56,2.89,5.54,8.19a.37.37,0,0,0,.52,0,.37.37,0,0,0,0-.52c-3.93-5.16-2.13-2.51-5.45-8a.35.35,0,0,0-.52-.14A.34.34,0,0,0,129.78,139.46Z" transform="translate(0 0)"/><path class="cls-3" d="M130.11,139.32a45.14,45.14,0,0,0,5.49,8.05" transform="translate(0 0)"/><path class="cls-2" d="M126.23,140.36a27.39,27.39,0,0,0,4.5,7.1.39.39,0,0,0,.52-.19.33.33,0,0,0-.19-.47,36.72,36.72,0,0,1-4.07-6.49.38.38,0,0,0-.43-.33A.31.31,0,0,0,126.23,140.36Z" transform="translate(0 0)"/><path class="cls-3" d="M126.61,140.36c.09,1,4,6.63,4.31,6.77" transform="translate(0 0)"/><path class="cls-2" d="M122.44,141.21a49,49,0,0,0,3.41,5.49.33.33,0,0,0,.48.24.39.39,0,0,0,.23-.47c-1.23-2.09-2.32-3.17-3.41-5.45a.35.35,0,0,0-.42-.28A.4.4,0,0,0,122.44,141.21Z" transform="translate(0 0)"/><path class="cls-3" d="M122.82,141.12c.43,1.56,3.08,4.59,3.36,5.49" transform="translate(0 0)"/><path class="cls-2" d="M118.8,142.44a18.47,18.47,0,0,0,2.89,3.65.39.39,0,0,0,.47.24.44.44,0,0,0,.24-.48,27.62,27.62,0,0,1-2.89-3.69A.4.4,0,0,0,119,142,.34.34,0,0,0,118.8,142.44Z" transform="translate(0 0)"/><path class="cls-3" d="M119.13,142.3A24.28,24.28,0,0,0,122,146" transform="translate(0 0)"/><path class="cls-2" d="M115.82,143.25c1.75,2.18.9,1.18,2.51,3a.38.38,0,0,0,.52.14.44.44,0,0,0,.09-.52c-1.61-1.89-.8-.9-2.46-3a.34.34,0,0,0-.52-.14A.33.33,0,0,0,115.82,143.25Z" transform="translate(0 0)"/><path class="cls-3" d="M116.15,143.06c.42.71,2.32,2.79,2.46,3" transform="translate(0 0)"/><path class="cls-2" d="M112.55,144a11.91,11.91,0,0,0,2,2.55.35.35,0,0,0,.47-.23c.09-.19,0-.38-.24-.48-1-1.32-.52-.61-1.61-2.13a.33.33,0,0,0-.47-.19A.36.36,0,0,0,112.55,144Z" transform="translate(0 0)"/><path class="cls-3" d="M112.88,143.86a18.56,18.56,0,0,0,1.85,2.37" transform="translate(0 0)"/><path class="cls-2" d="M109.71,145a15.88,15.88,0,0,0,1.37,1.66.44.44,0,0,0,.48.24c.23-.1.33-.29.23-.48-.94-1.18-.47-.57-1.46-1.8a.4.4,0,0,0-.48-.14C109.66,144.57,109.57,144.76,109.71,145Z" transform="translate(0 0)"/><path class="cls-3" d="M110,144.76a17.81,17.81,0,0,0,1.42,1.71" transform="translate(0 0)"/><path class="cls-2" d="M107.63,145.38c.71,1.13.38.61,1,1.61a.4.4,0,0,0,.47.24.42.42,0,0,0,.24-.48c-.71-1.18-.33-.57-1.09-1.75a.36.36,0,1,0-.61.38Z" transform="translate(0 0)"/><path class="cls-3" d="M107.91,145.19c.14.24,1,1.61,1,1.66" transform="translate(0 0)"/><path class="cls-2" d="M105.17,146.23c.75.81.42.43,1.08,1.14.1.19.29.33.48.23a.32.32,0,0,0,.23-.47,11.82,11.82,0,0,0-1.23-1.47.38.38,0,0,0-.56.05A.36.36,0,0,0,105.17,146.23Z" transform="translate(0 0)"/><path class="cls-3" d="M105.45,146a14.81,14.81,0,0,1,1.18,1.32" transform="translate(0 0)"/><path class="cls-2" d="M164.38,149.4a99.81,99.81,0,0,1-8.61-5.44.37.37,0,1,0-.47.57,97,97,0,0,0,8.8,5.54.37.37,0,1,0,.28-.67Z" transform="translate(0 0)"/><path class="cls-3" d="M164.24,149.73c-1.8-.75-8.42-5.3-8.71-5.49" transform="translate(0 0)"/><path class="cls-2" d="M165.28,152.29c-1-.66-5-3.08-5.58-3.83a.42.42,0,0,0-.48-.24.37.37,0,0,0-.23.52c.61,1,4.68,3.36,5.77,4.12a.34.34,0,0,0,.52-.05A.36.36,0,0,0,165.28,152.29Z" transform="translate(0 0)"/><path class="cls-3" d="M165,152.57c-.81-.75-5.44-3.26-5.68-4" transform="translate(0 0)"/><path class="cls-2" d="M156.24,145.24c-2.6-1.42-7.1-4.5-10-5a.37.37,0,0,0-.33.38.38.38,0,0,0,.42.37c2.27.43,7.53,3.74,9.66,4.88a.33.33,0,0,0,.47-.19A.34.34,0,0,0,156.24,145.24Z" transform="translate(0 0)"/><path class="cls-3" d="M156.1,145.57c-1.89-.85-8.28-5.07-9.85-4.92" transform="translate(0 0)"/><path class="cls-2" d="M153.64,143.67c-2.84.15-1.37.05-4.36.19a.38.38,0,1,0,0,.76c3-.14,1.57-.05,4.36-.19a.38.38,0,0,0,0-.76Z" transform="translate(0 0)"/><path class="cls-3" d="M153.64,144.05c-1.42,0-2.56.19-4.36.19" transform="translate(0 0)"/><path class="cls-2" d="M158.51,148.41c-4.21-1.85-3.92-2.46-7.19-4.36-.24,0-.43,0-.47.24a.32.32,0,0,0,.19.47c3.31,1.94,2.88,2.42,7.24,4.36a.34.34,0,0,0,.47-.19A.44.44,0,0,0,158.51,148.41Z" transform="translate(0 0)"/><path class="cls-3" d="M158.37,148.79c-4.26-1.47-5.39-3.74-7.19-4.36" transform="translate(0 0)"/><path class="cls-2" d="M153.54,150c1.28-1.09.62-.57,1.94-1.61a.37.37,0,0,0,.24-.47.44.44,0,0,0-.52-.24A16.75,16.75,0,0,0,153,149.5a.36.36,0,0,0,0,.52A.37.37,0,0,0,153.54,150Z" transform="translate(0 0)"/><path class="cls-3" d="M153.26,149.73a17.93,17.93,0,0,1,2.08-1.7" transform="translate(0 0)"/><path class="cls-2" d="M142.8,138.66c.09,1.61-1,2.93-.62,4.16a.35.35,0,0,0,.48.19.38.38,0,0,0,.23-.47c-.19-.62.71-2.46.67-4a.47.47,0,0,0-.43-.33A.43.43,0,0,0,142.8,138.66Z" transform="translate(0 0)"/><path class="cls-3" d="M143.18,138.56c.23,1.28-1,3.36-.67,4.12" transform="translate(0 0)"/><path class="cls-2" d="M150.51,145.85c-4.4-1.89-2.22-1.13-5.91-3.41a3.25,3.25,0,0,0-1.75-.56.37.37,0,0,0-.38.33.38.38,0,0,0,.38.38,2.78,2.78,0,0,1,1.37.47c3.6,2.27,1.61,1.61,6,3.5a.39.39,0,0,0,.33-.71Z" transform="translate(0 0)"/><path class="cls-3" d="M150.37,146.23c-3.22-1.56-2.41-.52-5.54-3.17a3.52,3.52,0,0,0-2-.85" transform="translate(0 0)"/><path class="cls-2" d="M147.48,144.57a19.77,19.77,0,0,1-2.88.48.37.37,0,0,0-.33.38.36.36,0,0,0,.33.37,14.64,14.64,0,0,0,2.88-.47.37.37,0,0,0,.38-.33A.42.42,0,0,0,147.48,144.57Z" transform="translate(0 0)"/><path class="cls-3" d="M147.48,145a19.42,19.42,0,0,1-2.88.48" transform="translate(0 0)"/><path class="cls-2" d="M149.8,147.79a5.59,5.59,0,0,0-4.35-2.22.38.38,0,1,0,0,.76,5,5,0,0,1,3.79,1.94c.09.19.33.19.52,0A.36.36,0,0,0,149.8,147.79Z" transform="translate(0 0)"/><path class="cls-3" d="M149.52,148a5.49,5.49,0,0,0-4.07-2.08" transform="translate(0 0)"/><path class="cls-2" d="M148.1,146.75a5.46,5.46,0,0,1-1,.66c-.24.1-.33.29-.24.48a.35.35,0,0,0,.48.23,5.52,5.52,0,0,0,1.27-.75.37.37,0,0,0,.05-.52A.39.39,0,0,0,148.1,146.75Z" transform="translate(0 0)"/><path class="cls-3" d="M148.34,147a6,6,0,0,1-1.19.75" transform="translate(0 0)"/><path class="cls-2" d="M144,144.81c-1-1.51-5.68-3.08-7.48-4.07a.39.39,0,1,0-.57.52c1.42.81,6.68,2.89,7.34,3.83a.48.48,0,0,0,.52.24A.39.39,0,0,0,144,144.81Z" transform="translate(0 0)"/><path class="cls-3" d="M143.65,145c-.57-1.28-6.67-3.12-7.43-4" transform="translate(0 0)"/><path class="cls-2" d="M140.72,142.78a4.93,4.93,0,0,0-2.37.66.39.39,0,0,0-.24.47.42.42,0,0,0,.48.24,4.4,4.4,0,0,1,2.13-.62.4.4,0,0,0,.37-.38A.36.36,0,0,0,140.72,142.78Z" transform="translate(0 0)"/><path class="cls-3" d="M140.72,143.15c-1.09,0-1.24.29-2.23.67" transform="translate(0 0)"/><path class="cls-2" d="M136.83,138.75c1.28,1.56,1.94,1.56,2.13,3.55a.38.38,0,0,0,.38.38.41.41,0,0,0,.38-.38c-.24-2.32-.8-2.18-2.22-3.93a.44.44,0,0,0-.52-.14A.45.45,0,0,0,136.83,138.75Z" transform="translate(0 0)"/><path class="cls-3" d="M137.17,138.56c.66,1.09,2.17,1.52,2.17,3.74" transform="translate(0 0)"/><path class="cls-2" d="M140.15,145.71c2-.76,2.89.9,3.55.33,0,.05,0,.1-.14.1h.14a.38.38,0,1,0,0-.76h-.29c-1.84-.38-1.51-1.14-3.59-.38a.44.44,0,0,0-.19.52A.4.4,0,0,0,140.15,145.71Zm3.17-.28h0Z" transform="translate(0 0)"/><path class="cls-3" d="M140,145.38c1.61-.76,1.84.09,3.26.38.38,0-.05,0,.43,0" transform="translate(0 0)"/><path class="cls-2" d="M137.17,142.35a51.17,51.17,0,0,0-6.16-3.17.35.35,0,0,0-.33.42.37.37,0,0,0,.38.34c2,1,3.79,2,5.73,3.07a.38.38,0,0,0,.52-.14A.4.4,0,0,0,137.17,142.35Z" transform="translate(0 0)"/><path class="cls-3" d="M137,142.68c-.62-.33-5.64-3.17-5.92-3.12" transform="translate(0 0)"/><path class="cls-2" d="M134.7,140.93c-1.65.09-.85,1.09-1.89,1.89a.38.38,0,0,0,.43.62c1.32-1,.47-1.71,1.46-1.75a.38.38,0,0,0,.38-.38A.41.41,0,0,0,134.7,140.93Z" transform="translate(0 0)"/><path class="cls-3" d="M134.7,141.31c-1.32,0-.56,1-1.7,1.84" transform="translate(0 0)"/><path class="cls-2" d="M139,145.05c-1.75-.76-3.64-2.09-5.35-2.37a.41.41,0,0,0-.38.38.37.37,0,0,0,.38.38c1.28.23,3.74,1.75,5.11,2.36a.4.4,0,0,0,.48-.28A.41.41,0,0,0,139,145.05Z" transform="translate(0 0)"/><path class="cls-3" d="M138.87,145.43c-1.56-.48-4-2.37-5.21-2.37" transform="translate(0 0)"/><path class="cls-2" d="M137.07,144.15c-.71,0-1.37.66-2.51,1a.37.37,0,0,0-.28.43.41.41,0,0,0,.42.33c.86-.29,2.09-1,2.37-1a.41.41,0,0,0,.38-.38A.37.37,0,0,0,137.07,144.15Z" transform="translate(0 0)"/><path class="cls-3" d="M137.07,144.53c-.8,0-.66.61-2.41,1" transform="translate(0 0)"/><path class="cls-2" d="M131.86,142c-2-.85-2.27-2.89-3.5.19-.05,0-.05,0-.05,0a.37.37,0,0,0-.38.34.46.46,0,0,0,.34.42c1,0,.85-1.23,1.32-1.65a9.47,9.47,0,0,0,2.08,1.37.41.41,0,0,0,.48-.29A.37.37,0,0,0,131.86,142Z" transform="translate(0 0)"/><path class="cls-3" d="M131.77,142.35c-2-.52-2.08-2.84-3.08,0a.46.46,0,0,1-.38.28" transform="translate(0 0)"/><path class="cls-2" d="M129.4,141.17a3.07,3.07,0,0,0-2.13-1.14.35.35,0,0,0-.38.38.38.38,0,0,0,.38.38,2.2,2.2,0,0,1,1.52.8.39.39,0,0,0,.52.1A.38.38,0,0,0,129.4,141.17Z" transform="translate(0 0)"/><path class="cls-3" d="M129.07,141.4a2.49,2.49,0,0,0-1.8-1" transform="translate(0 0)"/><path class="cls-2" d="M133.33,144.53c-1.61-.38-3-2.09-4.73-2.13a.33.33,0,0,0-.33.38.34.34,0,0,0,.37.33c1.19.09,3,1.8,4.69,2.17a.38.38,0,1,0,0-.75Z" transform="translate(0 0)"/><path class="cls-3" d="M133.33,144.91c-1,0-3.6-2.23-4.69-2.18" transform="translate(0 0)"/><path class="cls-2" d="M133.19,145.9c-1.42-1.33-1.28-1.33-3.17-1.33a.37.37,0,0,0-.38.38.35.35,0,0,0,.38.38c1.65,0,1.37-.09,2.65,1.09a.37.37,0,1,0,.52-.52Z" transform="translate(0 0)"/><path class="cls-3" d="M133,146.14c-1.42-1.38-1.47-1.19-2.93-1.19" transform="translate(0 0)"/><path class="cls-2" d="M128,143.34c-1.94-.14-2.7-.94-4.5-1.61a.38.38,0,0,0-.38.38.41.41,0,0,0,.38.38c1.85.81,2.46,1.47,4.55,1.61a.37.37,0,0,0,.33-.38A.41.41,0,0,0,128,143.34Z" transform="translate(0 0)"/><path class="cls-3" d="M128,143.72c-1.75.05-4-1.61-4.5-1.61" transform="translate(0 0)"/><path class="cls-2" d="M126.89,141.26a1.94,1.94,0,0,0-1.89,1.37.37.37,0,1,0,.71.24,1.12,1.12,0,0,1,1.18-.85.38.38,0,0,0,0-.76Z" transform="translate(0 0)"/><path class="cls-3" d="M126.89,141.64a1.45,1.45,0,0,0-1.51,1.09" transform="translate(0 0)"/><path class="cls-2" d="M127.89,146c.38-1.7-1.19-1.7-2.56-2.08a.48.48,0,0,0-.52.24.42.42,0,0,0,.24.47c1.09.28,2.36.19,2.13,1.18-.1.19,0,.38.23.48A.39.39,0,0,0,127.89,146Z" transform="translate(0 0)"/><path class="cls-3" d="M127.51,146c.47-1.42-1.37-1.23-2.32-1.61" transform="translate(0 0)"/><path class="cls-2" d="M124.43,143.77c-1.94-.71-2.6-1.33-4.68-1.7a.37.37,0,0,0-.38.37.41.41,0,0,0,.38.38,28.13,28.13,0,0,1,4.49,1.66.37.37,0,0,0,.19-.71Z" transform="translate(0 0)"/><path class="cls-3" d="M124.34,144.1c-1.66-.43-3.27-1.66-4.59-1.66" transform="translate(0 0)"/><path class="cls-2" d="M122.68,143.11c-.66.42-1,.8-1.61,1.18a.4.4,0,0,0-.24.47.42.42,0,0,0,.48.24c.71-.43,1-.76,1.65-1.18a.39.39,0,0,0,.19-.52C123.11,143.11,122.87,143.06,122.68,143.11Z" transform="translate(0 0)"/><path class="cls-3" d="M122.82,143.49c-.47.18-1.28,1-1.61,1.13" transform="translate(0 0)"/><path class="cls-2" d="M116.76,143.58c2.18.71,1.09.38,3.22,1a.38.38,0,0,0,0-.75c-1.84-.62-.85-.29-2.93-.95a.35.35,0,0,0-.47.24A.4.4,0,0,0,116.76,143.58Z" transform="translate(0 0)"/><path class="cls-3" d="M116.91,143.2c.33.14,2.93,1,3,1" transform="translate(0 0)"/><path class="cls-2" d="M118.47,146.14c1.09-.15.57-1.14.57-1.47a.42.42,0,0,0,.23-.47.41.41,0,0,0-.47-.24c-.76.33-.43.9-.38,1.42a.4.4,0,0,0-.33.38A.38.38,0,0,0,118.47,146.14Z" transform="translate(0 0)"/><path class="cls-3" d="M118.47,145.76c.8,0-.19-1.23.42-1.42" transform="translate(0 0)"/><path class="cls-2" d="M122.35,146.09c.66-.33,1.8-.76,2.13-1.52a.36.36,0,0,0-.24-.47c-.19-.09-.38.05-.47.24a7.38,7.38,0,0,1-1.75,1.09.32.32,0,0,0-.19.47A.4.4,0,0,0,122.35,146.09Z" transform="translate(0 0)"/><path class="cls-3" d="M122.16,145.76c.52-.24,1.8-.85,2-1.33" transform="translate(0 0)"/><path class="cls-2" d="M117.05,144.34c-1.23.23-2.32-.38-3.51-.71a.36.36,0,0,0-.42.28.33.33,0,0,0,.33.43c1.61.47,2.13,1,3.79.71a.34.34,0,0,0,.28-.43A.37.37,0,0,0,117.05,144.34Z" transform="translate(0 0)"/><path class="cls-3" d="M117.14,144.72c-1.37.37-2.32-.48-3.64-.71" transform="translate(0 0)"/><path class="cls-2" d="M115.63,144.48c-.38.33-.76.71-1.14,1a.46.46,0,0,0-.19.48l.38.23c.38,0,1.09-.85,1.37-1.09a.39.39,0,0,0,.1-.56A.37.37,0,0,0,115.63,144.48Z" transform="translate(0 0)"/><path class="cls-3" d="M115.86,144.76c-.19.15-1.18,1.09-1.18,1" transform="translate(0 0)"/><path class="cls-2" d="M113.88,144.72c-2.13-.15-1-.05-3.18-.24a.33.33,0,0,0-.37.33c0,.19.14.38.33.43,2.13.19,1,.09,3.22.23a.38.38,0,0,0,0-.75Z" transform="translate(0 0)"/><path class="cls-3" d="M113.88,145.09c-1.14,0-2.13-.18-3.18-.23" transform="translate(0 0)"/><path class="cls-2" d="M110.89,146.14a5.11,5.11,0,0,0-2.51-.9.37.37,0,0,0-.33.38.34.34,0,0,0,.33.37,5,5,0,0,1,2.13.81.42.42,0,0,0,.53-.14A.38.38,0,0,0,110.89,146.14Z" transform="translate(0 0)"/><path class="cls-3" d="M110.7,146.47a4.73,4.73,0,0,0-2.32-.85" transform="translate(0 0)"/><path class="cls-2" d="M168.17,154.85c-15-22-33.56-16.71-53.63-10.89-3.5,1-7.05,2-10.7,2.93,3.27.24,6.67.52,10.13.81C134.37,149.31,155.91,151.06,168.17,154.85Zm-54.06-12.36c20.59-5.92,39.58-11.36,55.2,11.41a12.88,12.88,0,0,1,2.27,1.66,16.38,16.38,0,0,0,1.75,1.32c.14.1.28.14.43.24a.72.72,0,0,1,.33,1,.81.81,0,0,1-1,.33,3.89,3.89,0,0,0-.47-.28c-10.13-5.11-35.22-7.1-58.74-9-4.93-.38-9.76-.76-14.77-1.23a.75.75,0,0,1-.71-.57.8.8,0,0,1,.56-.9C104.08,145.43,109.14,144,114.11,142.49Z" transform="translate(0 0)"/><path class="cls-2" d="M167.65,155.08c-7.24-3.88-13-6.1-21.3-6.34-9.23-.28-19.08-2.23-27.93-2-4.21.14-8.19.43-12.45.43a.38.38,0,0,1,0-.76c4.26,0,8.24-.28,12.4-.38,8.9-.28,18.75,1.66,28,1.94,8.38.24,14.34,2.51,21.68,6.44a.42.42,0,0,1,.14.52A.37.37,0,0,1,167.65,155.08Z" transform="translate(0 0)"/><path class="cls-3" d="M167.84,154.75c-2.79-1.51-7.1-3.93-10.08-4.4-2.7-.47-5.49-2.18-9.9-2A197.51,197.51,0,0,1,128,146.8c-5.21-1.09-13.82,0-19.83,0H106" transform="translate(0 0)"/><path class="cls-2" d="M114.68,146.33a32,32,0,0,0,3.83,1.51.41.41,0,0,1,.38.38.37.37,0,0,1-.38.38,23.43,23.43,0,0,1-4-1.56.42.42,0,0,1-.28-.48C114.3,146.37,114.49,146.23,114.68,146.33Z" transform="translate(0 0)"/><path class="cls-3" d="M114.59,146.66c.94.28,3.07,1.56,3.92,1.56" transform="translate(0 0)"/><path class="cls-2" d="M121.35,148.6c-2.13-.29-1-1.33.48-1.85a.38.38,0,0,1,.66.38l-1.28.71h.19a.37.37,0,0,1,.33.43A.31.31,0,0,1,121.35,148.6Z" transform="translate(0 0)"/><path class="cls-3" d="M121.35,148.22c-2.17-.24.67-1.09.81-1.28" transform="translate(0 0)"/><path class="cls-2" d="M125.05,146.42c1.09,1.23.61,2,2.08,2.08a.41.41,0,0,1,.38.38.37.37,0,0,1-.38.38c-2-.09-1.56-1.09-2.6-2.32a.34.34,0,0,1,0-.52A.39.39,0,0,1,125.05,146.42Z" transform="translate(0 0)"/><path class="cls-3" d="M124.76,146.66c1,1,.57,2.22,2.37,2.22" transform="translate(0 0)"/><path class="cls-2" d="M130.4,147.94a2.2,2.2,0,0,0-1.23,1.32.37.37,0,0,1-.48.24.39.39,0,0,1-.23-.48,2.79,2.79,0,0,1,1.65-1.79.39.39,0,0,1,.48.23A.36.36,0,0,1,130.4,147.94Z" transform="translate(0 0)"/><path class="cls-3" d="M130.25,147.6a2.49,2.49,0,0,0-1.42,1.57" transform="translate(0 0)"/><path class="cls-2" d="M133.62,147.7c.28,1.13,1,1.42,2.08,1.89a.33.33,0,0,1,.23.48.39.39,0,0,1-.47.23c-1.42-.61-2.22-1-2.6-2.55a.45.45,0,0,1,.38-.43A.37.37,0,0,1,133.62,147.7Z" transform="translate(0 0)"/><path class="cls-3" d="M133.24,147.7c.14,1.23,1.32,1.89,2.36,2.22" transform="translate(0 0)"/><path class="cls-2" d="M140,148.46c-1.61,1.75-3.08.52-3.22,1.75a.37.37,0,0,1-.38.38.41.41,0,0,1-.38-.38c.19-2.13,2-.76,3.36-2.23a.37.37,0,0,1,.52,0A.39.39,0,0,1,140,148.46Z" transform="translate(0 0)"/><path class="cls-3" d="M139.63,148.22c-1.19,1.51-3.27.38-3.27,2" transform="translate(0 0)"/><path class="cls-2" d="M143.13,148.46c.09.42.43,2.55,1.18,2.55.19,0,.38.14.43.33a.37.37,0,0,1-.38.38c-1.51,0-1.85-2.36-1.94-3.45a.38.38,0,0,1,.43-.29A.39.39,0,0,1,143.13,148.46Z" transform="translate(0 0)"/><path class="cls-3" d="M142.8,148.36c-.1.24.38,3.08,1.56,3" transform="translate(0 0)"/><path class="cls-2" d="M147,151.67c-.76-1.51.76-.66.24-2.65a.39.39,0,0,1,.23-.47.34.34,0,0,1,.48.24c.61,2.46-.71,1.7-.29,2.51a.38.38,0,0,1-.14.52A.39.39,0,0,1,147,151.67Z" transform="translate(0 0)"/><path class="cls-3" d="M147.34,151.49c-.66-1.09.95-.62.29-2.61" transform="translate(0 0)"/><path class="cls-2" d="M153.26,149.92c-1.23-.19-1.66,2.46-3.55,1.94-.19-.09-.33-.28-.24-.47a.37.37,0,0,1,.48-.24c1.27.34,1.61-2.27,3.45-2,.24,0,.33.23.33.47A.41.41,0,0,1,153.26,149.92Z" transform="translate(0 0)"/><path class="cls-3" d="M153.35,149.54c-1.46-.33-2,2.47-3.55,2" transform="translate(0 0)"/><path class="cls-2" d="M156.19,150.11c.15.48.76,2.61,1.57,2.56a.37.37,0,0,1,.38.38.32.32,0,0,1-.34.38c-1.42,0-2-2.09-2.32-3.13a.36.36,0,0,1,.24-.47A.37.37,0,0,1,156.19,150.11Z" transform="translate(0 0)"/><path class="cls-3" d="M155.82,150.21c.23.75.9,2.93,2,2.84" transform="translate(0 0)"/><path class="cls-2" d="M161.69,152.38c-1.66.24-2.37.9-3,1a.46.46,0,0,1-.33-.42.34.34,0,0,1,.37-.34h0c1.14-.33.76-.61,3-.94a.37.37,0,0,1,.37.38A.34.34,0,0,1,161.69,152.38Z" transform="translate(0 0)"/><path class="cls-3" d="M161.69,152c-1.66,0-2.56.94-3,.94" transform="translate(0 0)"/><path class="cls-2" d="M143.18,149c3.12.24,2.17.9,3.78,1.76.19,0,.29.23.19.47s-.23.28-.47.24c-1.75-1-.8-1.52-3.5-1.71a.35.35,0,0,1-.38-.38A.37.37,0,0,1,143.18,149Z" transform="translate(0 0)"/><path class="cls-3" d="M143.18,149.4c2.65,0,2.6,1.33,3.64,1.71" transform="translate(0 0)"/><path class="cls-2" d="M152.22,149.69c3.6.56,1.42,1.37,3.36,2.36a.4.4,0,0,1,.19.52.34.34,0,0,1-.47.19c-2.51-1.32,0-1.84-3.18-2.32a.41.41,0,0,1-.33-.42A.42.42,0,0,1,152.22,149.69Z" transform="translate(0 0)"/><path class="cls-3" d="M152.17,150.07c3.17.28,1.23,1.42,3.27,2.36" transform="translate(0 0)"/><path class="cls-2" d="M142.51,148.88a36.93,36.93,0,0,0-4.16,1.71.37.37,0,0,1-.38-.38.35.35,0,0,1,.38-.38,19.31,19.31,0,0,1,4.16-1.71.38.38,0,0,1,0,.76Z" transform="translate(0 0)"/><path class="cls-3" d="M142.51,148.5c-.94,0-3.78,1.71-4.16,1.71" transform="translate(0 0)"/><path class="cls-2" d="M130.49,147.18c3.13,1.94,1.61,1,4.59,2.79a.37.37,0,0,1,.38.33.37.37,0,0,1-.38.38,32.1,32.1,0,0,1-5.06-2.93.34.34,0,0,1-.05-.52C130.06,147,130.3,147,130.49,147.18Z" transform="translate(0 0)"/><path class="cls-3" d="M130.25,147.46a50.17,50.17,0,0,0,4.83,2.84" transform="translate(0 0)"/><path class="cls-2" d="M147.91,148.5c1.71.38,2.08,2.32,4,3.32a.34.34,0,0,1,.23.47.39.39,0,0,1-.47.24c-1.94-1-2.75-3-3.83-3.27a.39.39,0,0,1-.34-.43A.47.47,0,0,1,147.91,148.5Z" transform="translate(0 0)"/><path class="cls-3" d="M147.86,148.88c1.28.14,2.28,2.7,3.93,3.27" transform="translate(0 0)"/><path class="cls-2" d="M122.44,146.42a6.86,6.86,0,0,0,3.74,2.23.37.37,0,0,1,.38.37.37.37,0,0,1-.38.38,7.14,7.14,0,0,1-4.3-2.51.37.37,0,0,1,0-.52A.38.38,0,0,1,122.44,146.42Z" transform="translate(0 0)"/><path class="cls-3" d="M122.16,146.66c.71.9,2.79,2.36,4,2.36" transform="translate(0 0)"/><path class="cls-2" d="M158,150.21c.24.57.86,2.08,1.47,2.36.19.1.33.29.24.48a.35.35,0,0,1-.48.23c-1-.47-1.56-1.94-1.94-2.84a.37.37,0,0,1,.29-.47A.33.33,0,0,1,158,150.21Z" transform="translate(0 0)"/><path class="cls-3" d="M157.66,150.3c.19.76,1.09,2.42,1.71,2.65" transform="translate(0 0)"/><path class="cls-2" d="M206.61,91.08H148.9L153,96.15h49.47Zm-9.8-13.16h0a5,5,0,0,1-.57-2.17,4.5,4.5,0,1,1,5.35,4.4h0l-4,8.28c-.48.95-1.42,1.19-2.61,1.19-2.17,0-4.4.37-3.36-1.47Zm-38.25,59.46H197l-6.1-4.83H164.72ZM157,97.66h41.56L196,102.49H159.56Zm3.36,6.49H195.2L190.61,131H164.9Z" transform="translate(0 0)"/><path class="cls-2" d="M185.12,153.9c15.62-22.77,34.6-17.33,55.15-11.41,5,1.47,10.08,2.94,15.14,4a.79.79,0,0,1,.62.9.76.76,0,0,1-.71.57c-5,.47-9.85.85-14.77,1.23-23.53,1.89-48.62,3.88-58.75,9a3.89,3.89,0,0,0-.47.28.8.8,0,0,1-1-.33.72.72,0,0,1,.33-1,1.8,1.8,0,0,1,.42-.24c.48-.33,1.14-.8,1.76-1.32A12.53,12.53,0,0,1,185.12,153.9ZM239.89,144c-20.07-5.82-38.63-11.13-53.64,10.89,12.26-3.79,33.8-5.54,54.2-7.15,3.46-.29,6.87-.57,10.14-.81C246.94,146,243.39,145,239.89,144Z" transform="translate(0 0)"/><path class="cls-2" d="M185.59,154.51c16.52-8.89,45.68-10.55,69.68-7.28-27.22,2.41-62.15,4-74.27,10.5C182.32,157.21,184.31,155,185.59,154.51Z" transform="translate(0 0)"/><path class="cls-2" d="M174.61,155.32c-2.18,3.31.28.09.24,6.25a.62.62,0,0,1-1.24,0c0-5.45-2.6-2.94,0-6.91a.72.72,0,0,1,.9-.19A.61.61,0,0,1,174.61,155.32Z" transform="translate(0 0)"/><path class="cls-3" d="M174.09,155c-2,3-.48,1.66.09,4.35a16.27,16.27,0,0,1,0,2.23" transform="translate(0 0)"/><path class="cls-2" d="M178.77,153.85c2.28,1.33,3.37,3.32,1.24,4v3.08a1.16,1.16,0,0,1-2.28,0c0-1.47-.52-4.26.9-4.79-.38-.28-1-.56-1.23-.71a.91.91,0,0,1-.19-1.37A1.22,1.22,0,0,1,178.77,153.85Z" transform="translate(0 0)"/><path class="cls-3" d="M178.06,154.61c.71.47,2.94,1.37,1.52,2.22-.81.53-.71-.42-.71,1.76v2.32" transform="translate(0 0)"/><path class="cls-2" d="M178.92,158a.88.88,0,0,0,.33-.24,1.11,1.11,0,0,1,.94-.75,1.16,1.16,0,0,1,1.24,1,2.59,2.59,0,0,1-2.18,2.23,1.16,1.16,0,0,1-1.23-1A1.1,1.1,0,0,1,178.92,158Z" transform="translate(0 0)"/><path class="cls-3" d="M179.15,159.06c.38-.05,1.19-.66,1.14-1" transform="translate(0 0)"/></g></g></g></g></svg>